  0
SECTION
  2
HEADER
  9
$ACADVER
  1
AC1009
  9
$DWGCODEPAGE
  3
ANSI_1252
  9
$INSBASE
 10
0.0
 20
0.0
 30
0.0
  9
$EXTMIN
 10
-100
 20
-100
 30
-100
  9
$EXTMAX
 10
100
 20
100
 30
100
  9
$LIMMIN
 10
0.0
 20
0.0
  9
$LIMMAX
 10
420.0
 20
297.0
  9
$ORTHOMODE
 70
0
  9
$REGENMODE
 70
1
  9
$DRAGMODE
 70
2
  9
$FILLMODE
 70
1
  9
$QTEXTMODE
 70
0
  9
$MIRRTEXT
 70
1
  9
$OSMODE
 70
20583
  9
$LTSCALE
 40
1.0
  9
$ATTMODE
 70
1
  9
$TEXTSIZE
 40
2.5
  9
$TRACEWID
 40
1.0
  9
$TEXTSTYLE
  7
OpenSans
  9
$CLAYER
  8
0
  9
$CELTYPE
  6
ByLayer
  9
$CECOLOR
 62
256
  9
$DIMSCALE
 40
1.0
  9
$DIMASZ
 40
0.175
  9
$DIMEXO
 40
0.125
  9
$DIMDLI
 40
3.75
  9
$DIMRND
 40
0.0
  9
$DIMDLE
 40
0.0
  9
$DIMEXE
 40
0.375
  9
$DIMTP
 40
0.0
  9
$DIMTM
 40
0.0
  9
$DIMTXT
 40
0.25
  9
$DIMCEN
 40
2.5
  9
$DIMTSZ
 40
0.0
  9
$DIMTOL
 70
0
  9
$DIMLIM
 70
0
  9
$DIMTIH
 70
0
  9
$DIMTOH
 70
0
  9
$DIMSE1
 70
0
  9
$DIMSE2
 70
0
  9
$DIMTAD
 70
1
  9
$DIMZIN
 70
8
  9
$DIMBLK
  1
ARCHTICK
  9
$DIMASO
 70
1
  9
$DIMSHO
 70
1
  9
$DIMPOST
  1

  9
$DIMAPOST
  1

  9
$DIMALT
 70
0
  9
$DIMALTD
 70
3
  9
$DIMALTF
 40
0.03937007874
  9
$DIMLFAC
 40
100.0
  9
$DIMTOFL
 70
1
  9
$DIMTVP
 40
0.0
  9
$DIMTIX
 70
0
  9
$DIMSOXD
 70
0
  9
$DIMSAH
 70
0
  9
$DIMBLK1
  1

  9
$DIMBLK2
  1

  9
$DIMSTYLE
  2
EZDXF
  9
$DIMCLRD
 70
0
  9
$DIMCLRE
 70
0
  9
$DIMCLRT
 70
0
  9
$DIMTFAC
 40
1.0
  9
$DIMGAP
 40
0.1
  9
$COORDS
 70
1
  9
$ATTDIA
 70
0
  9
$ATTREQ
 70
1
  9
$HANDLING
 70
1
  9
$LUNITS
 70
2
  9
$LUPREC
 70
4
  9
$SKETCHINC
 40
1.0
  9
$FILLETRAD
 40
10.0
  9
$AUNITS
 70
0
  9
$AUPREC
 70
2
  9
$MENU
  1
.
  9
$ELEVATION
 40
0.0
  9
$PELEVATION
 40
0.0
  9
$THICKNESS
 40
0.0
  9
$LIMCHECK
 70
0
  9
$CHAMFERA
 40
0.0
  9
$CHAMFERB
 40
0.0
  9
$SKPOLY
 70
0
  9
$TDCREATE
 40
2458926.946273148
  9
$TDUPDATE
 40
2458926.946273148
  9
$TDINDWG
 40
0.0
  9
$TDUSRTIMER
 40
0.0
  9
$USRTIMER
 70
1
  9
$ANGBASE
 50
0.0
  9
$ANGDIR
 70
0
  9
$PDMODE
 70
0
  9
$PDSIZE
 40
0.0
  9
$PLINEWID
 40
0.0
  9
$SPLFRAME
 70
0
  9
$SPLINETYPE
 70
6
  9
$SPLINESEGS
 70
8
  9
$HANDSEED
  5
478
  9
$SURFTAB1
 70
6
  9
$SURFTAB2
 70
6
  9
$SURFTYPE
 70
6
  9
$SURFU
 70
6
  9
$SURFV
 70
6
  9
$UCSNAME
  2

  9
$UCSORG
 10
0.0
 20
0.0
 30
0.0
  9
$UCSXDIR
 10
1.0
 20
0.0
 30
0.0
  9
$UCSYDIR
 10
0.0
 20
1.0
 30
0.0
  9
$PUCSNAME
  2

  9
$PUCSORG
 10
0.0
 20
0.0
 30
0.0
  9
$PUCSXDIR
 10
1.0
 20
0.0
 30
0.0
  9
$PUCSYDIR
 10
0.0
 20
1.0
 30
0.0
  9
$USERI1
 70
0
  9
$USERI2
 70
0
  9
$USERI3
 70
0
  9
$USERI4
 70
0
  9
$USERI5
 70
0
  9
$USERR1
 40
0.0
  9
$USERR2
 40
0.0
  9
$USERR3
 40
0.0
  9
$USERR4
 40
0.0
  9
$USERR5
 40
0.0
  9
$WORLDVIEW
 70
1
  9
$SHADEDGE
 70
3
  9
$SHADEDIF
 70
70
  9
$TILEMODE
 70
1
  9
$MAXACTVP
 70
64
  9
$PLIMCHECK
 70
0
  9
$PEXTMIN
 10
1e+20
 20
1e+20
 30
1e+20
  9
$PEXTMAX
 10
-1e+20
 20
-1e+20
 30
-1e+20
  9
$PLIMMIN
 10
0.0
 20
0.0
  9
$PLIMMAX
 10
420.0
 20
297.0
  9
$UNITMODE
 70
0
  9
$VISRETAIN
 70
1
  9
$PLINEGEN
 70
0
  9
$PSLTSCALE
 70
1
  0
ENDSEC
  0
SECTION
  2
TABLES
  0
TABLE
  2
VPORT
 70
1
  0
VPORT
  5
23
  2
*Active
 70
0
 10
0.0
 20
0.0
 11
1.0
 21
1.0
 12
70.0
 22
50.0
 13
0.0
 23
0.0
 14
0.5
 24
0.5
 15
0.5
 25
0.5
 16
0.0
 26
0.0
 36
1.0
 17
0.0
 27
0.0
 37
0.0
 40
1.0
 41
1.34
 42
50.0
 43
0.0
 44
0.0
 50
0.0
 51
0.0
 71
0
 72
1000
 73
1
 74
3
 75
0
 76
0
 77
0
 78
0
  0
ENDTAB
  0
TABLE
  2
LTYPE
 70
21
  0
LTYPE
  5
24
  2
ByBlock
 70
0
  3

 72
65
 73
0
 40
0.0
  0
LTYPE
  5
25
  2
ByLayer
 70
0
  3

 72
65
 73
0
 40
0.0
  0
LTYPE
  5
26
  2
Continuous
 70
0
  3

 72
65
 73
0
 40
0.0
  0
LTYPE
  5
2D
  2
CENTER
 70
0
  3
Center ____ _ ____ _ ____ _ ____ _ ____ _ ____
 72
65
 73
4
 40
2.0
 49
1.25
 49
-0.25
 49
0.25
 49
-0.25
  0
LTYPE
  5
2E
  2
CENTERX2
 70
0
  3
Center (2x) ________  __  ________  __  ________
 72
65
 73
4
 40
3.5
 49
2.5
 49
-0.25
 49
0.5
 49
-0.25
  0
LTYPE
  5
2F
  2
CENTER2
 70
0
  3
Center (.5x) ____ _ ____ _ ____ _ ____ _ ____
 72
65
 73
4
 40
1.0
 49
0.625
 49
-0.125
 49
0.125
 49
-0.125
  0
LTYPE
  5
30
  2
DASHED
 70
0
  3
Dashed __ __ __ __ __ __ __ __ __ __ __ __ __ _
 72
65
 73
2
 40
0.6
 49
0.5
 49
-0.1
  0
LTYPE
  5
31
  2
DASHEDX2
 70
0
  3
Dashed (2x) ____  ____  ____  ____  ____  ____
 72
65
 73
2
 40
1.2
 49
1.0
 49
-0.2
  0
LTYPE
  5
32
  2
DASHED2
 70
0
  3
Dashed (.5x) _ _ _ _ _ _ _ _ _ _ _ _ _ _
 72
65
 73
2
 40
0.3
 49
0.25
 49
-0.05
  0
LTYPE
  5
33
  2
PHANTOM
 70
0
  3
Phantom ______  __  __  ______  __  __  ______
 72
65
 73
6
 40
2.5
 49
1.25
 49
-0.25
 49
0.25
 49
-0.25
 49
0.25
 49
-0.25
  0
LTYPE
  5
34
  2
PHANTOMX2
 70
0
  3
Phantom (2x)____________    ____    ____    ____________
 72
65
 73
6
 40
4.25
 49
2.5
 49
-0.25
 49
0.5
 49
-0.25
 49
0.5
 49
-0.25
  0
LTYPE
  5
35
  2
PHANTOM2
 70
0
  3
Phantom (.5x) ___ _ _ ___ _ _ ___ _ _ ___ _ _ ___
 72
65
 73
6
 40
1.25
 49
0.625
 49
-0.125
 49
0.125
 49
-0.125
 49
0.125
 49
-0.125
  0
LTYPE
  5
36
  2
DASHDOT
 70
0
  3
Dash dot __ . __ . __ . __ . __ . __ . __ . __
 72
65
 73
4
 40
1.4
 49
1.0
 49
-0.2
 49
0.0
 49
-0.2
  0
LTYPE
  5
37
  2
DASHDOTX2
 70
0
  3
Dash dot (2x) ____  .  ____  .  ____  .  ____
 72
65
 73
4
 40
2.4
 49
2.0
 49
-0.2
 49
0.0
 49
-0.2
  0
LTYPE
  5
38
  2
DASHDOT2
 70
0
  3
Dash dot (.5x) _ . _ . _ . _ . _ . _ . _ . _
 72
65
 73
4
 40
0.7
 49
0.5
 49
-0.1
 49
0.0
 49
-0.1
  0
LTYPE
  5
39
  2
DOT
 70
0
  3
Dot .  .  .  .  .  .  .  .  .  .  .  .  .  .  .  .
 72
65
 73
2
 40
0.2
 49
0.0
 49
-0.2
  0
LTYPE
  5
3A
  2
DOTX2
 70
0
  3
Dot (2x) .    .    .    .    .    .    .    . 
 72
65
 73
2
 40
0.4
 49
0.0
 49
-0.4
  0
LTYPE
  5
3B
  2
DOT2
 70
0
  3
Dot (.5) . . . . . . . . . . . . . . . . . . . 
 72
65
 73
2
 40
0.1
 49
0.0
 49
-0.1
  0
LTYPE
  5
3C
  2
DIVIDE
 70
0
  3
Divide __ . . __ . . __ . . __ . . __ . . __
 72
65
 73
6
 40
1.6
 49
1.0
 49
-0.2
 49
0.0
 49
-0.2
 49
0.0
 49
-0.2
  0
LTYPE
  5
3D
  2
DIVIDEX2
 70
0
  3
Divide (2x) ____  . .  ____  . .  ____  . .  ____
 72
65
 73
6
 40
2.6
 49
2.0
 49
-0.2
 49
0.0
 49
-0.2
 49
0.0
 49
-0.2
  0
LTYPE
  5
3E
  2
DIVIDE2
 70
0
  3
Divide(.5x) _ . _ . _ . _ . _ . _ . _ . _
 72
65
 73
6
 40
0.8
 49
0.5
 49
-0.1
 49
0.0
 49
-0.1
 49
0.0
 49
-0.1
  0
ENDTAB
  0
TABLE
  2
LAYER
 70
3
  0
LAYER
  5
27
  2
0
 70
0
 62
7
  6
Continuous
  0
LAYER
  5
28
  2
Defpoints
 70
0
 62
7
  6
Continuous
  0
LAYER
  5
8E
  2
MyLines
 70
0
 62
7
  6
Continuous
  0
ENDTAB
  0
TABLE
  2
STYLE
 70
27
  0
STYLE
  5
29
  2
Standard
 70
0
 40
0.0
 41
1.0
 50
0.0
 71
0
 42
2.5
  3
txt
  4

  0
STYLE
  5
3F
  2
OpenSans-Light
 70
0
 40
0.0
 41
1.0
 50
0.0
 71
0
 42
2.5
  3
OpenSans-Light.ttf
  4

  0
STYLE
  5
40
  2
OpenSans-Light-Italic
 70
0
 40
0.0
 41
1.0
 50
0.0
 71
0
 42
2.5
  3
OpenSans-LightItalic.ttf
  4

  0
STYLE
  5
41
  2
OpenSans
 70
0
 40
0.0
 41
1.0
 50
0.0
 71
0
 42
2.5
  3
OpenSans-Regular.ttf
  4

  0
STYLE
  5
42
  2
OpenSans-Italic
 70
0
 40
0.0
 41
1.0
 50
0.0
 71
0
 42
2.5
  3
OpenSans-Italic.ttf
  4

  0
STYLE
  5
43
  2
OpenSans-SemiBold
 70
0
 40
0.0
 41
1.0
 50
0.0
 71
0
 42
2.5
  3
OpenSans-SemiBold.ttf
  4

  0
STYLE
  5
44
  2
OpenSans-SemiBoldItalic
 70
0
 40
0.0
 41
1.0
 50
0.0
 71
0
 42
2.5
  3
OpenSans-SemiBoldItalic.ttf
  4

  0
STYLE
  5
45
  2
OpenSans-Bold
 70
0
 40
0.0
 41
1.0
 50
0.0
 71
0
 42
2.5
  3
OpenSans-Bold.ttf
  4

  0
STYLE
  5
46
  2
OpenSans-BoldItalic
 70
0
 40
0.0
 41
1.0
 50
0.0
 71
0
 42
2.5
  3
OpenSans-BoldItalic.ttf
  4

  0
STYLE
  5
47
  2
OpenSans-ExtraBold
 70
0
 40
0.0
 41
1.0
 50
0.0
 71
0
 42
2.5
  3
OpenSans-ExtraBold.ttf
  4

  0
STYLE
  5
48
  2
OpenSans-ExtraBoldItalic
 70
0
 40
0.0
 41
1.0
 50
0.0
 71
0
 42
2.5
  3
OpenSans-ExtraBoldItalic.ttf
  4

  0
STYLE
  5
49
  2
OpenSansCondensed-Bold
 70
0
 40
0.0
 41
1.0
 50
0.0
 71
0
 42
2.5
  3
OpenSansCondensed-Bold.ttf
  4

  0
STYLE
  5
4A
  2
OpenSansCondensed-Light
 70
0
 40
0.0
 41
1.0
 50
0.0
 71
0
 42
2.5
  3
OpenSansCondensed-Light.ttf
  4

  0
STYLE
  5
4B
  2
OpenSansCondensed-Italic
 70
0
 40
0.0
 41
1.0
 50
0.0
 71
0
 42
2.5
  3
OpenSansCondensed-LightItalic.ttf
  4

  0
STYLE
  5
4C
  2
LiberationSans
 70
0
 40
0.0
 41
1.0
 50
0.0
 71
0
 42
2.5
  3
LiberationSans-Regular.ttf
  4

  0
STYLE
  5
4D
  2
LiberationSans-Bold
 70
0
 40
0.0
 41
1.0
 50
0.0
 71
0
 42
2.5
  3
LiberationSans-Bold.ttf
  4

  0
STYLE
  5
4E
  2
LiberationSans-BoldItalic
 70
0
 40
0.0
 41
1.0
 50
0.0
 71
0
 42
2.5
  3
LiberationSans-BoldItalic.ttf
  4

  0
STYLE
  5
4F
  2
LiberationSans-Italic
 70
0
 40
0.0
 41
1.0
 50
0.0
 71
0
 42
2.5
  3
LiberationSans-Italic.ttf
  4

  0
STYLE
  5
50
  2
LiberationSerif
 70
0
 40
0.0
 41
1.0
 50
0.0
 71
0
 42
2.5
  3
LiberationSerif-Regular.ttf
  4

  0
STYLE
  5
51
  2
LiberationSerif-Bold
 70
0
 40
0.0
 41
1.0
 50
0.0
 71
0
 42
2.5
  3
LiberationSerif-Bold.ttf
  4

  0
STYLE
  5
52
  2
LiberationSerif-BoldItalic
 70
0
 40
0.0
 41
1.0
 50
0.0
 71
0
 42
2.5
  3
LiberationSerif-BoldItalic.ttf
  4

  0
STYLE
  5
53
  2
LiberationSerif-Italic
 70
0
 40
0.0
 41
1.0
 50
0.0
 71
0
 42
2.5
  3
LiberationSerif-Italic.ttf
  4

  0
STYLE
  5
54
  2
LiberationMono
 70
0
 40
0.0
 41
1.0
 50
0.0
 71
0
 42
2.5
  3
LiberationMono-Regular.ttf
  4

  0
STYLE
  5
55
  2
LiberationMono-Bold
 70
0
 40
0.0
 41
1.0
 50
0.0
 71
0
 42
2.5
  3
LiberationMono-Bold.ttf
  4

  0
STYLE
  5
56
  2
LiberationMono-BoldItalic
 70
0
 40
0.0
 41
1.0
 50
0.0
 71
0
 42
2.5
  3
LiberationMono-BoldItalic.ttf
  4

  0
STYLE
  5
57
  2
LiberationMono-Italic
 70
0
 40
0.0
 41
1.0
 50
0.0
 71
0
 42
2.5
  3
LiberationMono-Italic.ttf
  4

  0
STYLE
  5
8F
  2
myStandard2
 70
0
 40
0.0
 41
1.0
 50
0.0
 71
0
 42
2.5
  3
C:\Windows\Fonts\OpenSans-Italic.ttf
  4

  0
ENDTAB
  0
TABLE
  2
VIEW
 70
0
  0
ENDTAB
  0
TABLE
  2
UCS
 70
0
  0
ENDTAB
  0
TABLE
  2
APPID
 70
1
  0
APPID
  5
2A
  2
ACAD
 70
0
  0
ENDTAB
  0
TABLE
  2
DIMSTYLE
 70
11
  0
DIMSTYLE
105
2B
  2
Standard
 70
0
  3

  4

  5

  6

  7

 40
1.0
 41
2.5
 42
0.625
 43
3.75
 44
1.25
 45
0.0
 46
0.0
 47
0.0
 48
0.0
140
2.5
141
2.5
142
0.0
143
0.03937007874
144
1.0
145
0.0
146
1.0
147
0.625
 71
0
 72
0
 73
0
 74
0
 75
0
 76
0
 77
1
 78
8
170
0
171
3
172
1
173
0
174
0
175
0
176
0
177
0
178
0
  0
DIMSTYLE
105
71
  2
EZDXF
 70
0
  3

  4

  5
ARCHTICK
  6

  7

 40
1.0
 41
0.175
 42
0.125
 43
3.75
 44
0.375
 45
0.0
 46
0.0
 47
0.0
 48
0.0
140
0.25
141
2.5
142
0.0
143
0.03937007874
144
100.0
145
0.0
146
1.0
147
0.1
 71
0
 72
0
 73
0
 74
0
 75
0
 76
0
 77
1
 78
8
170
0
171
3
172
1
173
0
174
0
175
0
176
0
177
0
178
0
  0
DIMSTYLE
105
7D
  2
EZ_M_100_H25_CM
 70
0
  3

  4

  5

  6

  7

 40
1.0
 41
0.25
 42
0.125
 43
3.75
 44
0.375
 45
0.0
 46
0.0
 47
0.0
 48
0.0
140
0.25
141
2.5
142
0.125
143
0.03937007874
144
100.0
145
0.0
146
1.0
147
0.1
 71
0
 72
0
 73
0
 74
0
 75
0
 76
0
 77
1
 78
8
170
0
171
3
172
1
173
0
174
0
175
0
176
0
177
0
178
0
  0
DIMSTYLE
105
7E
  2
EZ_M_50_H25_CM
 70
0
  3

  4

  5

  6

  7

 40
1.0
 41
0.125
 42
0.0625
 43
3.75
 44
0.1875
 45
0.0
 46
0.0
 47
0.0
 48
0.0
140
0.125
141
2.5
142
0.0625
143
0.03937007874
144
100.0
145
0.0
146
1.0
147
0.05
 71
0
 72
0
 73
0
 74
0
 75
0
 76
0
 77
1
 78
8
170
0
171
3
172
1
173
0
174
0
175
0
176
0
177
0
178
0
  0
DIMSTYLE
105
7F
  2
EZ_M_25_H25_CM
 70
0
  3

  4

  5

  6

  7

 40
1.0
 41
0.0625
 42
0.03125
 43
3.75
 44
0.09375
 45
0.0
 46
0.0
 47
0.0
 48
0.0
140
0.0625
141
2.5
142
0.03125
143
0.03937007874
144
100.0
145
0.0
146
1.0
147
0.025
 71
0
 72
0
 73
0
 74
0
 75
0
 76
0
 77
1
 78
8
170
0
171
3
172
1
173
0
174
0
175
0
176
0
177
0
178
0
  0
DIMSTYLE
105
80
  2
EZ_M_20_H25_CM
 70
0
  3

  4

  5

  6

  7

 40
1.0
 41
0.05
 42
0.025
 43
3.75
 44
0.07500000000000001
 45
0.0
 46
0.0
 47
0.0
 48
0.0
140
0.05
141
2.5
142
0.025
143
0.03937007874
144
100.0
145
0.0
146
1.0
147
0.020000000000000004
 71
0
 72
0
 73
0
 74
0
 75
0
 76
0
 77
1
 78
8
170
0
171
3
172
1
173
0
174
0
175
0
176
0
177
0
178
0
  0
DIMSTYLE
105
81
  2
EZ_M_10_H25_CM
 70
0
  3

  4

  5

  6

  7

 40
1.0
 41
0.025
 42
0.0125
 43
3.75
 44
0.037500000000000006
 45
0.0
 46
0.0
 47
0.0
 48
0.0
140
0.025
141
2.5
142
0.0125
143
0.03937007874
144
100.0
145
0.0
146
1.0
147
0.010000000000000002
 71
0
 72
0
 73
0
 74
0
 75
0
 76
0
 77
1
 78
8
170
0
171
3
172
1
173
0
174
0
175
0
176
0
177
0
178
0
  0
DIMSTYLE
105
82
  2
EZ_M_5_H25_CM
 70
0
  3

  4

  5

  6

  7

 40
1.0
 41
0.0125
 42
0.00625
 43
3.75
 44
0.018750000000000003
 45
0.0
 46
0.0
 47
0.0
 48
0.0
140
0.0125
141
2.5
142
0.00625
143
0.03937007874
144
100.0
145
0.0
146
1.0
147
0.005000000000000001
 71
0
 72
0
 73
0
 74
0
 75
0
 76
0
 77
1
 78
8
170
0
171
3
172
1
173
0
174
0
175
0
176
0
177
0
178
0
  0
DIMSTYLE
105
83
  2
EZ_M_1_H25_CM
 70
0
  3

  4

  5

  6

  7

 40
1.0
 41
0.0025
 42
0.00125
 43
3.75
 44
0.00375
 45
0.0
 46
0.0
 47
0.0
 48
0.0
140
0.0025
141
2.5
142
0.00125
143
0.03937007874
144
100.0
145
0.0
146
1.0
147
0.001
 71
0
 72
0
 73
0
 74
0
 75
0
 76
0
 77
1
 78
8
170
0
171
3
172
1
173
0
174
0
175
0
176
0
177
0
178
0
  0
DIMSTYLE
105
84
  2
EZ_RADIUS
 70
0
  3

  4

  5
CLOSEDBLANK
  6

  7

 40
1.0
 41
0.25
 42
0.125
 43
3.75
 44
0.375
 45
0.0
 46
0.0
 47
0.0
 48
0.0
140
0.25
141
0.0
142
0.0
143
0.03937007874
144
100.0
145
0.0
146
1.0
147
0.1
 71
0
 72
0
 73
0
 74
0
 75
0
 76
0
 77
1
 78
8
170
0
171
3
172
0
173
0
174
0
175
0
176
0
177
0
178
0
  0
DIMSTYLE
105
8D
  2
EZ_RADIUS_INSIDE
 70
0
  3

  4

  5
CLOSEDBLANK
  6

  7

 40
1.0
 41
0.25
 42
0.125
 43
3.75
 44
0.375
 45
0.0
 46
0.0
 47
0.0
 48
0.0
140
0.25
141
0.0
142
0.0
143
0.03937007874
144
100.0
145
0.0
146
1.0
147
0.1
 71
0
 72
0
 73
0
 74
0
 75
0
 76
0
 77
0
 78
8
170
0
171
3
172
0
173
0
174
1
175
0
176
0
177
0
178
0
  0
ENDTAB
  0
ENDSEC
  0
SECTION
  2
BLOCKS
  0
BLOCK
  5
18
  8
0
  2
$Model_Space
 70
0
 10
0.0
 20
0.0
 30
0.0
  3
$Model_Space
  1

  0
ENDBLK
  5
19
  8
0
  0
BLOCK
  5
1C
  8
0
  2
$Paper_Space
 70
0
 10
0.0
 20
0.0
 30
0.0
  3
$Paper_Space
  1

  0
ENDBLK
  5
1D
  8
0
  0
BLOCK
  5
73
  8
0
  2
_ARCHTICK
 70
0
 10
0.0
 20
0.0
 30
0.0
  3
_ARCHTICK
  1

  0
POLYLINE
  5
75
  8
0
  6
BYBLOCK
 62
0
 66
1
 70
0
 40
0.15
 41
0.15
  0
VERTEX
  5
77
  8
0
  6
BYBLOCK
 10
-0.5
 20
-0.5000000000000001
 30
0.0
 70
0
  0
VERTEX
  5
78
  8
0
  6
BYBLOCK
 10
0.5000000000000001
 20
0.5000000000000001
 30
0.0
 70
0
  0
SEQEND
  5
76
  8
0
  0
ENDBLK
  5
74
  8
0
  0
BLOCK
  5
7A
  8
0
  2
_CLOSEDFILLED
 70
0
 10
0.0
 20
0.0
 30
0.0
  3
_CLOSEDFILLED
  1

  0
SOLID
  5
7C
  8
0
  6
BYBLOCK
 62
0
 10
-1.0
 20
0.1643989837240255
 30
0.0
 11
0.0
 21
0.0
 31
0.0
 12
-1.0
 22
-0.1643989837240255
 32
0.0
 13
-1.0
 23
-0.1643989837240255
 33
0.0
  0
ENDBLK
  5
7B
  8
0
  0
BLOCK
  5
86
  8
0
  2
_CLOSEDBLANK
 70
0
 10
0.0
 20
0.0
 30
0.0
  3
_CLOSEDBLANK
  1

  0
POLYLINE
  5
88
  8
0
  6
BYBLOCK
 62
0
 66
1
 70
1
  0
VERTEX
  5
8A
  8
0
  6
BYBLOCK
 10
-1.0
 20
0.1643989837240255
 30
0.0
 70
0
  0
VERTEX
  5
8B
  8
0
  6
BYBLOCK
 10
0.0
 20
0.0
 30
0.0
 70
0
  0
VERTEX
  5
8C
  8
0
  6
BYBLOCK
 10
-1.0
 20
-0.1643989837240255
 30
0.0
 70
0
  0
SEQEND
  5
89
  8
0
  0
ENDBLK
  5
87
  8
0
  0
ENDSEC
  0
SECTION
  2
ENTITIES
  0
LINE
  5
90
  8
MyLines
 10
0.0
 20
46.0
 30
0.0
 11
241.0
 21
46.0
 31
0.0
  0
LINE
  5
91
  8
MyLines
 10
0.0
 20
0.0
 30
0.0
 11
241.0
 21
0.0
 31
0.0
  0
LINE
  5
92
  8
MyLines
 10
0.0
 20
0.0
 30
0.0
 11
0.0
 21
46.0
 31
0.0
  0
LINE
  5
93
  8
MyLines
 10
241.0
 20
0.0
 30
0.0
 11
241.0
 21
46.0
 31
0.0
  0
TEXT
  5
94
  8
MyLines
 62
1
 10
1.0
 20
1.0
 30
0.0
 40
1.0
  1
7500- 241 - 46.0
 11
1.0
 21
1.0
 31
0.0
  0
LINE
  5
95
  8
MyLines
 10
243.0
 20
51.5
 30
0.0
 11
499.0
 21
51.5
 31
0.0
  0
LINE
  5
96
  8
MyLines
 10
243.0
 20
0.0
 30
0.0
 11
499.0
 21
0.0
 31
0.0
  0
LINE
  5
97
  8
MyLines
 10
243.0
 20
0.0
 30
0.0
 11
243.0
 21
51.5
 31
0.0
  0
LINE
  5
98
  8
MyLines
 10
499.0
 20
0.0
 30
0.0
 11
499.0
 21
51.5
 31
0.0
  0
TEXT
  5
99
  8
MyLines
 62
1
 10
244.0
 20
1.0
 30
0.0
 40
1.0
  1
7501- 256 - 51.5
 11
244.0
 21
1.0
 31
0.0
  0
LINE
  5
9A
  8
MyLines
 10
501.0
 20
87.5
 30
0.0
 11
797.0
 21
87.5
 31
0.0
  0
LINE
  5
9B
  8
MyLines
 10
501.0
 20
0.0
 30
0.0
 11
797.0
 21
0.0
 31
0.0
  0
LINE
  5
9C
  8
MyLines
 10
501.0
 20
0.0
 30
0.0
 11
501.0
 21
87.5
 31
0.0
  0
LINE
  5
9D
  8
MyLines
 10
797.0
 20
0.0
 30
0.0
 11
797.0
 21
87.5
 31
0.0
  0
TEXT
  5
9E
  8
MyLines
 62
1
 10
502.0
 20
1.0
 30
0.0
 40
1.0
  1
7502- 296 - 87.5
 11
502.0
 21
1.0
 31
0.0
  0
LINE
  5
9F
  8
MyLines
 10
799.0
 20
69.0
 30
0.0
 11
1091.0
 21
69.0
 31
0.0
  0
LINE
  5
A0
  8
MyLines
 10
799.0
 20
0.0
 30
0.0
 11
1091.0
 21
0.0
 31
0.0
  0
LINE
  5
A1
  8
MyLines
 10
799.0
 20
0.0
 30
0.0
 11
799.0
 21
69.0
 31
0.0
  0
LINE
  5
A2
  8
MyLines
 10
1091.0
 20
0.0
 30
0.0
 11
1091.0
 21
69.0
 31
0.0
  0
TEXT
  5
A3
  8
MyLines
 62
1
 10
800.0
 20
1.0
 30
0.0
 40
1.0
  1
7503- 292 - 69.0
 11
800.0
 21
1.0
 31
0.0
  0
LINE
  5
A4
  8
MyLines
 10
1093.0
 20
82.0
 30
0.0
 11
1271.0
 21
82.0
 31
0.0
  0
LINE
  5
A5
  8
MyLines
 10
1093.0
 20
0.0
 30
0.0
 11
1271.0
 21
0.0
 31
0.0
  0
LINE
  5
A6
  8
MyLines
 10
1093.0
 20
0.0
 30
0.0
 11
1093.0
 21
82.0
 31
0.0
  0
LINE
  5
A7
  8
MyLines
 10
1271.0
 20
0.0
 30
0.0
 11
1271.0
 21
82.0
 31
0.0
  0
TEXT
  5
A8
  8
MyLines
 62
1
 10
1094.0
 20
1.0
 30
0.0
 40
1.0
  1
7504- 178 - 82.0
 11
1094.0
 21
1.0
 31
0.0
  0
LINE
  5
A9
  8
MyLines
 10
1273.0
 20
39.5
 30
0.0
 11
1517.0
 21
39.5
 31
0.0
  0
LINE
  5
AA
  8
MyLines
 10
1273.0
 20
0.0
 30
0.0
 11
1517.0
 21
0.0
 31
0.0
  0
LINE
  5
AB
  8
MyLines
 10
1273.0
 20
0.0
 30
0.0
 11
1273.0
 21
39.5
 31
0.0
  0
LINE
  5
AC
  8
MyLines
 10
1517.0
 20
0.0
 30
0.0
 11
1517.0
 21
39.5
 31
0.0
  0
TEXT
  5
AD
  8
MyLines
 62
1
 10
1274.0
 20
1.0
 30
0.0
 40
1.0
  1
7505- 244 - 39.5
 11
1274.0
 21
1.0
 31
0.0
  0
LINE
  5
AE
  8
MyLines
 10
1519.0
 20
70.5
 30
0.0
 11
1750.0
 21
70.5
 31
0.0
  0
LINE
  5
AF
  8
MyLines
 10
1519.0
 20
0.0
 30
0.0
 11
1750.0
 21
0.0
 31
0.0
  0
LINE
  5
B0
  8
MyLines
 10
1519.0
 20
0.0
 30
0.0
 11
1519.0
 21
70.5
 31
0.0
  0
LINE
  5
B1
  8
MyLines
 10
1750.0
 20
0.0
 30
0.0
 11
1750.0
 21
70.5
 31
0.0
  0
TEXT
  5
B2
  8
MyLines
 62
1
 10
1520.0
 20
1.0
 30
0.0
 40
1.0
  1
7506- 231 - 70.5
 11
1520.0
 21
1.0
 31
0.0
  0
LINE
  5
B3
  8
MyLines
 10
1752.0
 20
53.0
 30
0.0
 11
2029.0
 21
53.0
 31
0.0
  0
LINE
  5
B4
  8
MyLines
 10
1752.0
 20
0.0
 30
0.0
 11
2029.0
 21
0.0
 31
0.0
  0
LINE
  5
B5
  8
MyLines
 10
1752.0
 20
0.0
 30
0.0
 11
1752.0
 21
53.0
 31
0.0
  0
LINE
  5
B6
  8
MyLines
 10
2029.0
 20
0.0
 30
0.0
 11
2029.0
 21
53.0
 31
0.0
  0
TEXT
  5
B7
  8
MyLines
 62
1
 10
1753.0
 20
1.0
 30
0.0
 40
1.0
  1
7507- 277 - 53.0
 11
1753.0
 21
1.0
 31
0.0
  0
LINE
  5
B8
  8
MyLines
 10
2031.0
 20
47.5
 30
0.0
 11
2311.0
 21
47.5
 31
0.0
  0
LINE
  5
B9
  8
MyLines
 10
2031.0
 20
0.0
 30
0.0
 11
2311.0
 21
0.0
 31
0.0
  0
LINE
  5
BA
  8
MyLines
 10
2031.0
 20
0.0
 30
0.0
 11
2031.0
 21
47.5
 31
0.0
  0
LINE
  5
BB
  8
MyLines
 10
2311.0
 20
0.0
 30
0.0
 11
2311.0
 21
47.5
 31
0.0
  0
TEXT
  5
BC
  8
MyLines
 62
1
 10
2032.0
 20
1.0
 30
0.0
 40
1.0
  1
7508- 280 - 47.5
 11
2032.0
 21
1.0
 31
0.0
  0
LINE
  5
BD
  8
MyLines
 10
2313.0
 20
75.0
 30
0.0
 11
2508.0
 21
75.0
 31
0.0
  0
LINE
  5
BE
  8
MyLines
 10
2313.0
 20
0.0
 30
0.0
 11
2508.0
 21
0.0
 31
0.0
  0
LINE
  5
BF
  8
MyLines
 10
2313.0
 20
0.0
 30
0.0
 11
2313.0
 21
75.0
 31
0.0
  0
LINE
  5
C0
  8
MyLines
 10
2508.0
 20
0.0
 30
0.0
 11
2508.0
 21
75.0
 31
0.0
  0
TEXT
  5
C1
  8
MyLines
 62
1
 10
2314.0
 20
1.0
 30
0.0
 40
1.0
  1
7509- 195 - 75.0
 11
2314.0
 21
1.0
 31
0.0
  0
LINE
  5
C2
  8
MyLines
 10
2510.0
 20
85.0
 30
0.0
 11
2703.0
 21
85.0
 31
0.0
  0
LINE
  5
C3
  8
MyLines
 10
2510.0
 20
0.0
 30
0.0
 11
2703.0
 21
0.0
 31
0.0
  0
LINE
  5
C4
  8
MyLines
 10
2510.0
 20
0.0
 30
0.0
 11
2510.0
 21
85.0
 31
0.0
  0
LINE
  5
C5
  8
MyLines
 10
2703.0
 20
0.0
 30
0.0
 11
2703.0
 21
85.0
 31
0.0
  0
TEXT
  5
C6
  8
MyLines
 62
1
 10
2511.0
 20
1.0
 30
0.0
 40
1.0
  1
7510- 193 - 85.0
 11
2511.0
 21
1.0
 31
0.0
  0
LINE
  5
C7
  8
MyLines
 10
2705.0
 20
88.0
 30
0.0
 11
2907.0
 21
88.0
 31
0.0
  0
LINE
  5
C8
  8
MyLines
 10
2705.0
 20
0.0
 30
0.0
 11
2907.0
 21
0.0
 31
0.0
  0
LINE
  5
C9
  8
MyLines
 10
2705.0
 20
0.0
 30
0.0
 11
2705.0
 21
88.0
 31
0.0
  0
LINE
  5
CA
  8
MyLines
 10
2907.0
 20
0.0
 30
0.0
 11
2907.0
 21
88.0
 31
0.0
  0
TEXT
  5
CB
  8
MyLines
 62
1
 10
2706.0
 20
1.0
 30
0.0
 40
1.0
  1
7511- 202 - 88.0
 11
2706.0
 21
1.0
 31
0.0
  0
LINE
  5
CC
  8
MyLines
 10
2909.0
 20
43.5
 30
0.0
 11
3124.0
 21
43.5
 31
0.0
  0
LINE
  5
CD
  8
MyLines
 10
2909.0
 20
0.0
 30
0.0
 11
3124.0
 21
0.0
 31
0.0
  0
LINE
  5
CE
  8
MyLines
 10
2909.0
 20
0.0
 30
0.0
 11
2909.0
 21
43.5
 31
0.0
  0
LINE
  5
CF
  8
MyLines
 10
3124.0
 20
0.0
 30
0.0
 11
3124.0
 21
43.5
 31
0.0
  0
TEXT
  5
D0
  8
MyLines
 62
1
 10
2910.0
 20
1.0
 30
0.0
 40
1.0
  1
7512- 215 - 43.5
 11
2910.0
 21
1.0
 31
0.0
  0
LINE
  5
D1
  8
MyLines
 10
3126.0
 20
54.5
 30
0.0
 11
3358.0
 21
54.5
 31
0.0
  0
LINE
  5
D2
  8
MyLines
 10
3126.0
 20
0.0
 30
0.0
 11
3358.0
 21
0.0
 31
0.0
  0
LINE
  5
D3
  8
MyLines
 10
3126.0
 20
0.0
 30
0.0
 11
3126.0
 21
54.5
 31
0.0
  0
LINE
  5
D4
  8
MyLines
 10
3358.0
 20
0.0
 30
0.0
 11
3358.0
 21
54.5
 31
0.0
  0
TEXT
  5
D5
  8
MyLines
 62
1
 10
3127.0
 20
1.0
 30
0.0
 40
1.0
  1
7513- 232 - 54.5
 11
3127.0
 21
1.0
 31
0.0
  0
LINE
  5
D6
  8
MyLines
 10
3360.0
 20
81.0
 30
0.0
 11
3600.0
 21
81.0
 31
0.0
  0
LINE
  5
D7
  8
MyLines
 10
3360.0
 20
0.0
 30
0.0
 11
3600.0
 21
0.0
 31
0.0
  0
LINE
  5
D8
  8
MyLines
 10
3360.0
 20
0.0
 30
0.0
 11
3360.0
 21
81.0
 31
0.0
  0
LINE
  5
D9
  8
MyLines
 10
3600.0
 20
0.0
 30
0.0
 11
3600.0
 21
81.0
 31
0.0
  0
TEXT
  5
DA
  8
MyLines
 62
1
 10
3361.0
 20
1.0
 30
0.0
 40
1.0
  1
7514- 240 - 81.0
 11
3361.0
 21
1.0
 31
0.0
  0
LINE
  5
DB
  8
MyLines
 10
3602.0
 20
57.0
 30
0.0
 11
3882.0
 21
57.0
 31
0.0
  0
LINE
  5
DC
  8
MyLines
 10
3602.0
 20
0.0
 30
0.0
 11
3882.0
 21
0.0
 31
0.0
  0
LINE
  5
DD
  8
MyLines
 10
3602.0
 20
0.0
 30
0.0
 11
3602.0
 21
57.0
 31
0.0
  0
LINE
  5
DE
  8
MyLines
 10
3882.0
 20
0.0
 30
0.0
 11
3882.0
 21
57.0
 31
0.0
  0
TEXT
  5
DF
  8
MyLines
 62
1
 10
3603.0
 20
1.0
 30
0.0
 40
1.0
  1
7515- 280 - 57.0
 11
3603.0
 21
1.0
 31
0.0
  0
LINE
  5
E0
  8
MyLines
 10
3884.0
 20
83.0
 30
0.0
 11
4144.0
 21
83.0
 31
0.0
  0
LINE
  5
E1
  8
MyLines
 10
3884.0
 20
0.0
 30
0.0
 11
4144.0
 21
0.0
 31
0.0
  0
LINE
  5
E2
  8
MyLines
 10
3884.0
 20
0.0
 30
0.0
 11
3884.0
 21
83.0
 31
0.0
  0
LINE
  5
E3
  8
MyLines
 10
4144.0
 20
0.0
 30
0.0
 11
4144.0
 21
83.0
 31
0.0
  0
TEXT
  5
E4
  8
MyLines
 62
1
 10
3885.0
 20
1.0
 30
0.0
 40
1.0
  1
7516- 260 - 83.0
 11
3885.0
 21
1.0
 31
0.0
  0
LINE
  5
E5
  8
MyLines
 10
4146.0
 20
75.5
 30
0.0
 11
4381.0
 21
75.5
 31
0.0
  0
LINE
  5
E6
  8
MyLines
 10
4146.0
 20
0.0
 30
0.0
 11
4381.0
 21
0.0
 31
0.0
  0
LINE
  5
E7
  8
MyLines
 10
4146.0
 20
0.0
 30
0.0
 11
4146.0
 21
75.5
 31
0.0
  0
LINE
  5
E8
  8
MyLines
 10
4381.0
 20
0.0
 30
0.0
 11
4381.0
 21
75.5
 31
0.0
  0
TEXT
  5
E9
  8
MyLines
 62
1
 10
4147.0
 20
1.0
 30
0.0
 40
1.0
  1
7517- 235 - 75.5
 11
4147.0
 21
1.0
 31
0.0
  0
LINE
  5
EA
  8
MyLines
 10
4383.0
 20
45.5
 30
0.0
 11
4610.0
 21
45.5
 31
0.0
  0
LINE
  5
EB
  8
MyLines
 10
4383.0
 20
0.0
 30
0.0
 11
4610.0
 21
0.0
 31
0.0
  0
LINE
  5
EC
  8
MyLines
 10
4383.0
 20
0.0
 30
0.0
 11
4383.0
 21
45.5
 31
0.0
  0
LINE
  5
ED
  8
MyLines
 10
4610.0
 20
0.0
 30
0.0
 11
4610.0
 21
45.5
 31
0.0
  0
TEXT
  5
EE
  8
MyLines
 62
1
 10
4384.0
 20
1.0
 30
0.0
 40
1.0
  1
7518- 227 - 45.5
 11
4384.0
 21
1.0
 31
0.0
  0
LINE
  5
EF
  8
MyLines
 10
4612.0
 20
86.0
 30
0.0
 11
4881.0
 21
86.0
 31
0.0
  0
LINE
  5
F0
  8
MyLines
 10
4612.0
 20
0.0
 30
0.0
 11
4881.0
 21
0.0
 31
0.0
  0
LINE
  5
F1
  8
MyLines
 10
4612.0
 20
0.0
 30
0.0
 11
4612.0
 21
86.0
 31
0.0
  0
LINE
  5
F2
  8
MyLines
 10
4881.0
 20
0.0
 30
0.0
 11
4881.0
 21
86.0
 31
0.0
  0
TEXT
  5
F3
  8
MyLines
 62
1
 10
4613.0
 20
1.0
 30
0.0
 40
1.0
  1
7519- 269 - 86.0
 11
4613.0
 21
1.0
 31
0.0
  0
LINE
  5
F4
  8
MyLines
 10
4883.0
 20
73.5
 30
0.0
 11
5124.0
 21
73.5
 31
0.0
  0
LINE
  5
F5
  8
MyLines
 10
4883.0
 20
0.0
 30
0.0
 11
5124.0
 21
0.0
 31
0.0
  0
LINE
  5
F6
  8
MyLines
 10
4883.0
 20
0.0
 30
0.0
 11
4883.0
 21
73.5
 31
0.0
  0
LINE
  5
F7
  8
MyLines
 10
5124.0
 20
0.0
 30
0.0
 11
5124.0
 21
73.5
 31
0.0
  0
TEXT
  5
F8
  8
MyLines
 62
1
 10
4884.0
 20
1.0
 30
0.0
 40
1.0
  1
7520- 241 - 73.5
 11
4884.0
 21
1.0
 31
0.0
  0
LINE
  5
F9
  8
MyLines
 10
5126.0
 20
90.0
 30
0.0
 11
5392.0
 21
90.0
 31
0.0
  0
LINE
  5
FA
  8
MyLines
 10
5126.0
 20
0.0
 30
0.0
 11
5392.0
 21
0.0
 31
0.0
  0
LINE
  5
FB
  8
MyLines
 10
5126.0
 20
0.0
 30
0.0
 11
5126.0
 21
90.0
 31
0.0
  0
LINE
  5
FC
  8
MyLines
 10
5392.0
 20
0.0
 30
0.0
 11
5392.0
 21
90.0
 31
0.0
  0
TEXT
  5
FD
  8
MyLines
 62
1
 10
5127.0
 20
1.0
 30
0.0
 40
1.0
  1
7521- 266 - 90.0
 11
5127.0
 21
1.0
 31
0.0
  0
LINE
  5
FE
  8
MyLines
 10
5394.0
 20
84.5
 30
0.0
 11
5693.0
 21
84.5
 31
0.0
  0
LINE
  5
FF
  8
MyLines
 10
5394.0
 20
0.0
 30
0.0
 11
5693.0
 21
0.0
 31
0.0
  0
LINE
  5
100
  8
MyLines
 10
5394.0
 20
0.0
 30
0.0
 11
5394.0
 21
84.5
 31
0.0
  0
LINE
  5
101
  8
MyLines
 10
5693.0
 20
0.0
 30
0.0
 11
5693.0
 21
84.5
 31
0.0
  0
TEXT
  5
102
  8
MyLines
 62
1
 10
5395.0
 20
1.0
 30
0.0
 40
1.0
  1
7522- 299 - 84.5
 11
5395.0
 21
1.0
 31
0.0
  0
LINE
  5
103
  8
MyLines
 10
5695.0
 20
70.5
 30
0.0
 11
5956.0
 21
70.5
 31
0.0
  0
LINE
  5
104
  8
MyLines
 10
5695.0
 20
0.0
 30
0.0
 11
5956.0
 21
0.0
 31
0.0
  0
LINE
  5
105
  8
MyLines
 10
5695.0
 20
0.0
 30
0.0
 11
5695.0
 21
70.5
 31
0.0
  0
LINE
  5
106
  8
MyLines
 10
5956.0
 20
0.0
 30
0.0
 11
5956.0
 21
70.5
 31
0.0
  0
TEXT
  5
107
  8
MyLines
 62
1
 10
5696.0
 20
1.0
 30
0.0
 40
1.0
  1
7523- 261 - 70.5
 11
5696.0
 21
1.0
 31
0.0
  0
LINE
  5
108
  8
MyLines
 10
5958.0
 20
42.0
 30
0.0
 11
6180.0
 21
42.0
 31
0.0
  0
LINE
  5
109
  8
MyLines
 10
5958.0
 20
0.0
 30
0.0
 11
6180.0
 21
0.0
 31
0.0
  0
LINE
  5
10A
  8
MyLines
 10
5958.0
 20
0.0
 30
0.0
 11
5958.0
 21
42.0
 31
0.0
  0
LINE
  5
10B
  8
MyLines
 10
6180.0
 20
0.0
 30
0.0
 11
6180.0
 21
42.0
 31
0.0
  0
TEXT
  5
10C
  8
MyLines
 62
1
 10
5959.0
 20
1.0
 30
0.0
 40
1.0
  1
7524- 222 - 42.0
 11
5959.0
 21
1.0
 31
0.0
  0
LINE
  5
10D
  8
MyLines
 10
6182.0
 20
67.0
 30
0.0
 11
6450.0
 21
67.0
 31
0.0
  0
LINE
  5
10E
  8
MyLines
 10
6182.0
 20
0.0
 30
0.0
 11
6450.0
 21
0.0
 31
0.0
  0
LINE
  5
10F
  8
MyLines
 10
6182.0
 20
0.0
 30
0.0
 11
6182.0
 21
67.0
 31
0.0
  0
LINE
  5
110
  8
MyLines
 10
6450.0
 20
0.0
 30
0.0
 11
6450.0
 21
67.0
 31
0.0
  0
TEXT
  5
111
  8
MyLines
 62
1
 10
6183.0
 20
1.0
 30
0.0
 40
1.0
  1
7525- 268 - 67.0
 11
6183.0
 21
1.0
 31
0.0
  0
LINE
  5
112
  8
MyLines
 10
6452.0
 20
90.0
 30
0.0
 11
6639.0
 21
90.0
 31
0.0
  0
LINE
  5
113
  8
MyLines
 10
6452.0
 20
0.0
 30
0.0
 11
6639.0
 21
0.0
 31
0.0
  0
LINE
  5
114
  8
MyLines
 10
6452.0
 20
0.0
 30
0.0
 11
6452.0
 21
90.0
 31
0.0
  0
LINE
  5
115
  8
MyLines
 10
6639.0
 20
0.0
 30
0.0
 11
6639.0
 21
90.0
 31
0.0
  0
TEXT
  5
116
  8
MyLines
 62
1
 10
6453.0
 20
1.0
 30
0.0
 40
1.0
  1
7526- 187 - 90.0
 11
6453.0
 21
1.0
 31
0.0
  0
LINE
  5
117
  8
MyLines
 10
6641.0
 20
76.5
 30
0.0
 11
6940.0
 21
76.5
 31
0.0
  0
LINE
  5
118
  8
MyLines
 10
6641.0
 20
0.0
 30
0.0
 11
6940.0
 21
0.0
 31
0.0
  0
LINE
  5
119
  8
MyLines
 10
6641.0
 20
0.0
 30
0.0
 11
6641.0
 21
76.5
 31
0.0
  0
LINE
  5
11A
  8
MyLines
 10
6940.0
 20
0.0
 30
0.0
 11
6940.0
 21
76.5
 31
0.0
  0
TEXT
  5
11B
  8
MyLines
 62
1
 10
6642.0
 20
1.0
 30
0.0
 40
1.0
  1
7527- 299 - 76.5
 11
6642.0
 21
1.0
 31
0.0
  0
LINE
  5
11C
  8
MyLines
 10
6942.0
 20
45.0
 30
0.0
 11
7121.0
 21
45.0
 31
0.0
  0
LINE
  5
11D
  8
MyLines
 10
6942.0
 20
0.0
 30
0.0
 11
7121.0
 21
0.0
 31
0.0
  0
LINE
  5
11E
  8
MyLines
 10
6942.0
 20
0.0
 30
0.0
 11
6942.0
 21
45.0
 31
0.0
  0
LINE
  5
11F
  8
MyLines
 10
7121.0
 20
0.0
 30
0.0
 11
7121.0
 21
45.0
 31
0.0
  0
TEXT
  5
120
  8
MyLines
 62
1
 10
6943.0
 20
1.0
 30
0.0
 40
1.0
  1
7528- 179 - 45.0
 11
6943.0
 21
1.0
 31
0.0
  0
LINE
  5
121
  8
MyLines
 10
7123.0
 20
90.0
 30
0.0
 11
7416.0
 21
90.0
 31
0.0
  0
LINE
  5
122
  8
MyLines
 10
7123.0
 20
0.0
 30
0.0
 11
7416.0
 21
0.0
 31
0.0
  0
LINE
  5
123
  8
MyLines
 10
7123.0
 20
0.0
 30
0.0
 11
7123.0
 21
90.0
 31
0.0
  0
LINE
  5
124
  8
MyLines
 10
7416.0
 20
0.0
 30
0.0
 11
7416.0
 21
90.0
 31
0.0
  0
TEXT
  5
125
  8
MyLines
 62
1
 10
7124.0
 20
1.0
 30
0.0
 40
1.0
  1
7529- 293 - 90.0
 11
7124.0
 21
1.0
 31
0.0
  0
LINE
  5
126
  8
MyLines
 10
7418.0
 20
36.5
 30
0.0
 11
7670.0
 21
36.5
 31
0.0
  0
LINE
  5
127
  8
MyLines
 10
7418.0
 20
0.0
 30
0.0
 11
7670.0
 21
0.0
 31
0.0
  0
LINE
  5
128
  8
MyLines
 10
7418.0
 20
0.0
 30
0.0
 11
7418.0
 21
36.5
 31
0.0
  0
LINE
  5
129
  8
MyLines
 10
7670.0
 20
0.0
 30
0.0
 11
7670.0
 21
36.5
 31
0.0
  0
TEXT
  5
12A
  8
MyLines
 62
1
 10
7419.0
 20
1.0
 30
0.0
 40
1.0
  1
7530- 252 - 36.5
 11
7419.0
 21
1.0
 31
0.0
  0
LINE
  5
12B
  8
MyLines
 10
7672.0
 20
43.0
 30
0.0
 11
7885.0
 21
43.0
 31
0.0
  0
LINE
  5
12C
  8
MyLines
 10
7672.0
 20
0.0
 30
0.0
 11
7885.0
 21
0.0
 31
0.0
  0
LINE
  5
12D
  8
MyLines
 10
7672.0
 20
0.0
 30
0.0
 11
7672.0
 21
43.0
 31
0.0
  0
LINE
  5
12E
  8
MyLines
 10
7885.0
 20
0.0
 30
0.0
 11
7885.0
 21
43.0
 31
0.0
  0
TEXT
  5
12F
  8
MyLines
 62
1
 10
7673.0
 20
1.0
 30
0.0
 40
1.0
  1
7531- 213 - 43.0
 11
7673.0
 21
1.0
 31
0.0
  0
LINE
  5
130
  8
MyLines
 10
7887.0
 20
47.5
 30
0.0
 11
8145.0
 21
47.5
 31
0.0
  0
LINE
  5
131
  8
MyLines
 10
7887.0
 20
0.0
 30
0.0
 11
8145.0
 21
0.0
 31
0.0
  0
LINE
  5
132
  8
MyLines
 10
7887.0
 20
0.0
 30
0.0
 11
7887.0
 21
47.5
 31
0.0
  0
LINE
  5
133
  8
MyLines
 10
8145.0
 20
0.0
 30
0.0
 11
8145.0
 21
47.5
 31
0.0
  0
TEXT
  5
134
  8
MyLines
 62
1
 10
7888.0
 20
1.0
 30
0.0
 40
1.0
  1
7532- 258 - 47.5
 11
7888.0
 21
1.0
 31
0.0
  0
LINE
  5
135
  8
MyLines
 10
8147.0
 20
73.5
 30
0.0
 11
8416.0
 21
73.5
 31
0.0
  0
LINE
  5
136
  8
MyLines
 10
8147.0
 20
0.0
 30
0.0
 11
8416.0
 21
0.0
 31
0.0
  0
LINE
  5
137
  8
MyLines
 10
8147.0
 20
0.0
 30
0.0
 11
8147.0
 21
73.5
 31
0.0
  0
LINE
  5
138
  8
MyLines
 10
8416.0
 20
0.0
 30
0.0
 11
8416.0
 21
73.5
 31
0.0
  0
TEXT
  5
139
  8
MyLines
 62
1
 10
8148.0
 20
1.0
 30
0.0
 40
1.0
  1
7533- 269 - 73.5
 11
8148.0
 21
1.0
 31
0.0
  0
LINE
  5
13A
  8
MyLines
 10
8418.0
 20
89.0
 30
0.0
 11
8624.0
 21
89.0
 31
0.0
  0
LINE
  5
13B
  8
MyLines
 10
8418.0
 20
0.0
 30
0.0
 11
8624.0
 21
0.0
 31
0.0
  0
LINE
  5
13C
  8
MyLines
 10
8418.0
 20
0.0
 30
0.0
 11
8418.0
 21
89.0
 31
0.0
  0
LINE
  5
13D
  8
MyLines
 10
8624.0
 20
0.0
 30
0.0
 11
8624.0
 21
89.0
 31
0.0
  0
TEXT
  5
13E
  8
MyLines
 62
1
 10
8419.0
 20
1.0
 30
0.0
 40
1.0
  1
7534- 206 - 89.0
 11
8419.0
 21
1.0
 31
0.0
  0
LINE
  5
13F
  8
MyLines
 10
8626.0
 20
61.0
 30
0.0
 11
8801.0
 21
61.0
 31
0.0
  0
LINE
  5
140
  8
MyLines
 10
8626.0
 20
0.0
 30
0.0
 11
8801.0
 21
0.0
 31
0.0
  0
LINE
  5
141
  8
MyLines
 10
8626.0
 20
0.0
 30
0.0
 11
8626.0
 21
61.0
 31
0.0
  0
LINE
  5
142
  8
MyLines
 10
8801.0
 20
0.0
 30
0.0
 11
8801.0
 21
61.0
 31
0.0
  0
TEXT
  5
143
  8
MyLines
 62
1
 10
8627.0
 20
1.0
 30
0.0
 40
1.0
  1
7535- 175 - 61.0
 11
8627.0
 21
1.0
 31
0.0
  0
LINE
  5
144
  8
MyLines
 10
8803.0
 20
85.5
 30
0.0
 11
9067.0
 21
85.5
 31
0.0
  0
LINE
  5
145
  8
MyLines
 10
8803.0
 20
0.0
 30
0.0
 11
9067.0
 21
0.0
 31
0.0
  0
LINE
  5
146
  8
MyLines
 10
8803.0
 20
0.0
 30
0.0
 11
8803.0
 21
85.5
 31
0.0
  0
LINE
  5
147
  8
MyLines
 10
9067.0
 20
0.0
 30
0.0
 11
9067.0
 21
85.5
 31
0.0
  0
TEXT
  5
148
  8
MyLines
 62
1
 10
8804.0
 20
1.0
 30
0.0
 40
1.0
  1
7536- 264 - 85.5
 11
8804.0
 21
1.0
 31
0.0
  0
LINE
  5
149
  8
MyLines
 10
9069.0
 20
69.0
 30
0.0
 11
9291.0
 21
69.0
 31
0.0
  0
LINE
  5
14A
  8
MyLines
 10
9069.0
 20
0.0
 30
0.0
 11
9291.0
 21
0.0
 31
0.0
  0
LINE
  5
14B
  8
MyLines
 10
9069.0
 20
0.0
 30
0.0
 11
9069.0
 21
69.0
 31
0.0
  0
LINE
  5
14C
  8
MyLines
 10
9291.0
 20
0.0
 30
0.0
 11
9291.0
 21
69.0
 31
0.0
  0
TEXT
  5
14D
  8
MyLines
 62
1
 10
9070.0
 20
1.0
 30
0.0
 40
1.0
  1
7537- 222 - 69.0
 11
9070.0
 21
1.0
 31
0.0
  0
LINE
  5
14E
  8
MyLines
 10
9293.0
 20
54.0
 30
0.0
 11
9498.0
 21
54.0
 31
0.0
  0
LINE
  5
14F
  8
MyLines
 10
9293.0
 20
0.0
 30
0.0
 11
9498.0
 21
0.0
 31
0.0
  0
LINE
  5
150
  8
MyLines
 10
9293.0
 20
0.0
 30
0.0
 11
9293.0
 21
54.0
 31
0.0
  0
LINE
  5
151
  8
MyLines
 10
9498.0
 20
0.0
 30
0.0
 11
9498.0
 21
54.0
 31
0.0
  0
TEXT
  5
152
  8
MyLines
 62
1
 10
9294.0
 20
1.0
 30
0.0
 40
1.0
  1
7538- 205 - 54.0
 11
9294.0
 21
1.0
 31
0.0
  0
LINE
  5
153
  8
MyLines
 10
9500.0
 20
58.5
 30
0.0
 11
9676.0
 21
58.5
 31
0.0
  0
LINE
  5
154
  8
MyLines
 10
9500.0
 20
0.0
 30
0.0
 11
9676.0
 21
0.0
 31
0.0
  0
LINE
  5
155
  8
MyLines
 10
9500.0
 20
0.0
 30
0.0
 11
9500.0
 21
58.5
 31
0.0
  0
LINE
  5
156
  8
MyLines
 10
9676.0
 20
0.0
 30
0.0
 11
9676.0
 21
58.5
 31
0.0
  0
TEXT
  5
157
  8
MyLines
 62
1
 10
9501.0
 20
1.0
 30
0.0
 40
1.0
  1
7539- 176 - 58.5
 11
9501.0
 21
1.0
 31
0.0
  0
LINE
  5
158
  8
MyLines
 10
9678.0
 20
55.0
 30
0.0
 11
9935.0
 21
55.0
 31
0.0
  0
LINE
  5
159
  8
MyLines
 10
9678.0
 20
0.0
 30
0.0
 11
9935.0
 21
0.0
 31
0.0
  0
LINE
  5
15A
  8
MyLines
 10
9678.0
 20
0.0
 30
0.0
 11
9678.0
 21
55.0
 31
0.0
  0
LINE
  5
15B
  8
MyLines
 10
9935.0
 20
0.0
 30
0.0
 11
9935.0
 21
55.0
 31
0.0
  0
TEXT
  5
15C
  8
MyLines
 62
1
 10
9679.0
 20
1.0
 30
0.0
 40
1.0
  1
7540- 257 - 55.0
 11
9679.0
 21
1.0
 31
0.0
  0
LINE
  5
15D
  8
MyLines
 10
9937.0
 20
49.5
 30
0.0
 11
10117.0
 21
49.5
 31
0.0
  0
LINE
  5
15E
  8
MyLines
 10
9937.0
 20
0.0
 30
0.0
 11
10117.0
 21
0.0
 31
0.0
  0
LINE
  5
15F
  8
MyLines
 10
9937.0
 20
0.0
 30
0.0
 11
9937.0
 21
49.5
 31
0.0
  0
LINE
  5
160
  8
MyLines
 10
10117.0
 20
0.0
 30
0.0
 11
10117.0
 21
49.5
 31
0.0
  0
TEXT
  5
161
  8
MyLines
 62
1
 10
9938.0
 20
1.0
 30
0.0
 40
1.0
  1
7541- 180 - 49.5
 11
9938.0
 21
1.0
 31
0.0
  0
LINE
  5
162
  8
MyLines
 10
10119.0
 20
84.0
 30
0.0
 11
10410.0
 21
84.0
 31
0.0
  0
LINE
  5
163
  8
MyLines
 10
10119.0
 20
0.0
 30
0.0
 11
10410.0
 21
0.0
 31
0.0
  0
LINE
  5
164
  8
MyLines
 10
10119.0
 20
0.0
 30
0.0
 11
10119.0
 21
84.0
 31
0.0
  0
LINE
  5
165
  8
MyLines
 10
10410.0
 20
0.0
 30
0.0
 11
10410.0
 21
84.0
 31
0.0
  0
TEXT
  5
166
  8
MyLines
 62
1
 10
10120.0
 20
1.0
 30
0.0
 40
1.0
  1
7542- 291 - 84.0
 11
10120.0
 21
1.0
 31
0.0
  0
LINE
  5
167
  8
MyLines
 10
10412.0
 20
84.0
 30
0.0
 11
10670.0
 21
84.0
 31
0.0
  0
LINE
  5
168
  8
MyLines
 10
10412.0
 20
0.0
 30
0.0
 11
10670.0
 21
0.0
 31
0.0
  0
LINE
  5
169
  8
MyLines
 10
10412.0
 20
0.0
 30
0.0
 11
10412.0
 21
84.0
 31
0.0
  0
LINE
  5
16A
  8
MyLines
 10
10670.0
 20
0.0
 30
0.0
 11
10670.0
 21
84.0
 31
0.0
  0
TEXT
  5
16B
  8
MyLines
 62
1
 10
10413.0
 20
1.0
 30
0.0
 40
1.0
  1
7543- 258 - 84.0
 11
10413.0
 21
1.0
 31
0.0
  0
LINE
  5
16C
  8
MyLines
 10
10672.0
 20
64.0
 30
0.0
 11
10883.0
 21
64.0
 31
0.0
  0
LINE
  5
16D
  8
MyLines
 10
10672.0
 20
0.0
 30
0.0
 11
10883.0
 21
0.0
 31
0.0
  0
LINE
  5
16E
  8
MyLines
 10
10672.0
 20
0.0
 30
0.0
 11
10672.0
 21
64.0
 31
0.0
  0
LINE
  5
16F
  8
MyLines
 10
10883.0
 20
0.0
 30
0.0
 11
10883.0
 21
64.0
 31
0.0
  0
TEXT
  5
170
  8
MyLines
 62
1
 10
10673.0
 20
1.0
 30
0.0
 40
1.0
  1
7544- 211 - 64.0
 11
10673.0
 21
1.0
 31
0.0
  0
LINE
  5
171
  8
MyLines
 10
10885.0
 20
57.0
 30
0.0
 11
11174.0
 21
57.0
 31
0.0
  0
LINE
  5
172
  8
MyLines
 10
10885.0
 20
0.0
 30
0.0
 11
11174.0
 21
0.0
 31
0.0
  0
LINE
  5
173
  8
MyLines
 10
10885.0
 20
0.0
 30
0.0
 11
10885.0
 21
57.0
 31
0.0
  0
LINE
  5
174
  8
MyLines
 10
11174.0
 20
0.0
 30
0.0
 11
11174.0
 21
57.0
 31
0.0
  0
TEXT
  5
175
  8
MyLines
 62
1
 10
10886.0
 20
1.0
 30
0.0
 40
1.0
  1
7545- 289 - 57.0
 11
10886.0
 21
1.0
 31
0.0
  0
LINE
  5
176
  8
MyLines
 10
11176.0
 20
54.5
 30
0.0
 11
11408.0
 21
54.5
 31
0.0
  0
LINE
  5
177
  8
MyLines
 10
11176.0
 20
0.0
 30
0.0
 11
11408.0
 21
0.0
 31
0.0
  0
LINE
  5
178
  8
MyLines
 10
11176.0
 20
0.0
 30
0.0
 11
11176.0
 21
54.5
 31
0.0
  0
LINE
  5
179
  8
MyLines
 10
11408.0
 20
0.0
 30
0.0
 11
11408.0
 21
54.5
 31
0.0
  0
TEXT
  5
17A
  8
MyLines
 62
1
 10
11177.0
 20
1.0
 30
0.0
 40
1.0
  1
7546- 232 - 54.5
 11
11177.0
 21
1.0
 31
0.0
  0
LINE
  5
17B
  8
MyLines
 10
11410.0
 20
72.5
 30
0.0
 11
11603.0
 21
72.5
 31
0.0
  0
LINE
  5
17C
  8
MyLines
 10
11410.0
 20
0.0
 30
0.0
 11
11603.0
 21
0.0
 31
0.0
  0
LINE
  5
17D
  8
MyLines
 10
11410.0
 20
0.0
 30
0.0
 11
11410.0
 21
72.5
 31
0.0
  0
LINE
  5
17E
  8
MyLines
 10
11603.0
 20
0.0
 30
0.0
 11
11603.0
 21
72.5
 31
0.0
  0
TEXT
  5
17F
  8
MyLines
 62
1
 10
11411.0
 20
1.0
 30
0.0
 40
1.0
  1
7547- 193 - 72.5
 11
11411.0
 21
1.0
 31
0.0
  0
LINE
  5
180
  8
MyLines
 10
11605.0
 20
72.5
 30
0.0
 11
11826.0
 21
72.5
 31
0.0
  0
LINE
  5
181
  8
MyLines
 10
11605.0
 20
0.0
 30
0.0
 11
11826.0
 21
0.0
 31
0.0
  0
LINE
  5
182
  8
MyLines
 10
11605.0
 20
0.0
 30
0.0
 11
11605.0
 21
72.5
 31
0.0
  0
LINE
  5
183
  8
MyLines
 10
11826.0
 20
0.0
 30
0.0
 11
11826.0
 21
72.5
 31
0.0
  0
TEXT
  5
184
  8
MyLines
 62
1
 10
11606.0
 20
1.0
 30
0.0
 40
1.0
  1
7548- 221 - 72.5
 11
11606.0
 21
1.0
 31
0.0
  0
LINE
  5
185
  8
MyLines
 10
11828.0
 20
42.5
 30
0.0
 11
12081.0
 21
42.5
 31
0.0
  0
LINE
  5
186
  8
MyLines
 10
11828.0
 20
0.0
 30
0.0
 11
12081.0
 21
0.0
 31
0.0
  0
LINE
  5
187
  8
MyLines
 10
11828.0
 20
0.0
 30
0.0
 11
11828.0
 21
42.5
 31
0.0
  0
LINE
  5
188
  8
MyLines
 10
12081.0
 20
0.0
 30
0.0
 11
12081.0
 21
42.5
 31
0.0
  0
TEXT
  5
189
  8
MyLines
 62
1
 10
11829.0
 20
1.0
 30
0.0
 40
1.0
  1
7549- 253 - 42.5
 11
11829.0
 21
1.0
 31
0.0
  0
LINE
  5
18A
  8
MyLines
 10
12083.0
 20
36.5
 30
0.0
 11
12371.0
 21
36.5
 31
0.0
  0
LINE
  5
18B
  8
MyLines
 10
12083.0
 20
0.0
 30
0.0
 11
12371.0
 21
0.0
 31
0.0
  0
LINE
  5
18C
  8
MyLines
 10
12083.0
 20
0.0
 30
0.0
 11
12083.0
 21
36.5
 31
0.0
  0
LINE
  5
18D
  8
MyLines
 10
12371.0
 20
0.0
 30
0.0
 11
12371.0
 21
36.5
 31
0.0
  0
TEXT
  5
18E
  8
MyLines
 62
1
 10
12084.0
 20
1.0
 30
0.0
 40
1.0
  1
7550- 288 - 36.5
 11
12084.0
 21
1.0
 31
0.0
  0
LINE
  5
18F
  8
MyLines
 10
12373.0
 20
47.0
 30
0.0
 11
12579.0
 21
47.0
 31
0.0
  0
LINE
  5
190
  8
MyLines
 10
12373.0
 20
0.0
 30
0.0
 11
12579.0
 21
0.0
 31
0.0
  0
LINE
  5
191
  8
MyLines
 10
12373.0
 20
0.0
 30
0.0
 11
12373.0
 21
47.0
 31
0.0
  0
LINE
  5
192
  8
MyLines
 10
12579.0
 20
0.0
 30
0.0
 11
12579.0
 21
47.0
 31
0.0
  0
TEXT
  5
193
  8
MyLines
 62
1
 10
12374.0
 20
1.0
 30
0.0
 40
1.0
  1
7551- 206 - 47.0
 11
12374.0
 21
1.0
 31
0.0
  0
LINE
  5
194
  8
MyLines
 10
12581.0
 20
69.5
 30
0.0
 11
12797.0
 21
69.5
 31
0.0
  0
LINE
  5
195
  8
MyLines
 10
12581.0
 20
0.0
 30
0.0
 11
12797.0
 21
0.0
 31
0.0
  0
LINE
  5
196
  8
MyLines
 10
12581.0
 20
0.0
 30
0.0
 11
12581.0
 21
69.5
 31
0.0
  0
LINE
  5
197
  8
MyLines
 10
12797.0
 20
0.0
 30
0.0
 11
12797.0
 21
69.5
 31
0.0
  0
TEXT
  5
198
  8
MyLines
 62
1
 10
12582.0
 20
1.0
 30
0.0
 40
1.0
  1
7552- 216 - 69.5
 11
12582.0
 21
1.0
 31
0.0
  0
LINE
  5
199
  8
MyLines
 10
12799.0
 20
68.5
 30
0.0
 11
13086.0
 21
68.5
 31
0.0
  0
LINE
  5
19A
  8
MyLines
 10
12799.0
 20
0.0
 30
0.0
 11
13086.0
 21
0.0
 31
0.0
  0
LINE
  5
19B
  8
MyLines
 10
12799.0
 20
0.0
 30
0.0
 11
12799.0
 21
68.5
 31
0.0
  0
LINE
  5
19C
  8
MyLines
 10
13086.0
 20
0.0
 30
0.0
 11
13086.0
 21
68.5
 31
0.0
  0
TEXT
  5
19D
  8
MyLines
 62
1
 10
12800.0
 20
1.0
 30
0.0
 40
1.0
  1
7553- 287 - 68.5
 11
12800.0
 21
1.0
 31
0.0
  0
LINE
  5
19E
  8
MyLines
 10
13088.0
 20
64.5
 30
0.0
 11
13282.0
 21
64.5
 31
0.0
  0
LINE
  5
19F
  8
MyLines
 10
13088.0
 20
0.0
 30
0.0
 11
13282.0
 21
0.0
 31
0.0
  0
LINE
  5
1A0
  8
MyLines
 10
13088.0
 20
0.0
 30
0.0
 11
13088.0
 21
64.5
 31
0.0
  0
LINE
  5
1A1
  8
MyLines
 10
13282.0
 20
0.0
 30
0.0
 11
13282.0
 21
64.5
 31
0.0
  0
TEXT
  5
1A2
  8
MyLines
 62
1
 10
13089.0
 20
1.0
 30
0.0
 40
1.0
  1
7554- 194 - 64.5
 11
13089.0
 21
1.0
 31
0.0
  0
LINE
  5
1A3
  8
MyLines
 10
13284.0
 20
57.5
 30
0.0
 11
13475.0
 21
57.5
 31
0.0
  0
LINE
  5
1A4
  8
MyLines
 10
13284.0
 20
0.0
 30
0.0
 11
13475.0
 21
0.0
 31
0.0
  0
LINE
  5
1A5
  8
MyLines
 10
13284.0
 20
0.0
 30
0.0
 11
13284.0
 21
57.5
 31
0.0
  0
LINE
  5
1A6
  8
MyLines
 10
13475.0
 20
0.0
 30
0.0
 11
13475.0
 21
57.5
 31
0.0
  0
TEXT
  5
1A7
  8
MyLines
 62
1
 10
13285.0
 20
1.0
 30
0.0
 40
1.0
  1
7555- 191 - 57.5
 11
13285.0
 21
1.0
 31
0.0
  0
LINE
  5
1A8
  8
MyLines
 10
13477.0
 20
42.5
 30
0.0
 11
13691.0
 21
42.5
 31
0.0
  0
LINE
  5
1A9
  8
MyLines
 10
13477.0
 20
0.0
 30
0.0
 11
13691.0
 21
0.0
 31
0.0
  0
LINE
  5
1AA
  8
MyLines
 10
13477.0
 20
0.0
 30
0.0
 11
13477.0
 21
42.5
 31
0.0
  0
LINE
  5
1AB
  8
MyLines
 10
13691.0
 20
0.0
 30
0.0
 11
13691.0
 21
42.5
 31
0.0
  0
TEXT
  5
1AC
  8
MyLines
 62
1
 10
13478.0
 20
1.0
 30
0.0
 40
1.0
  1
7556- 214 - 42.5
 11
13478.0
 21
1.0
 31
0.0
  0
LINE
  5
1AD
  8
MyLines
 10
13693.0
 20
64.5
 30
0.0
 11
13925.0
 21
64.5
 31
0.0
  0
LINE
  5
1AE
  8
MyLines
 10
13693.0
 20
0.0
 30
0.0
 11
13925.0
 21
0.0
 31
0.0
  0
LINE
  5
1AF
  8
MyLines
 10
13693.0
 20
0.0
 30
0.0
 11
13693.0
 21
64.5
 31
0.0
  0
LINE
  5
1B0
  8
MyLines
 10
13925.0
 20
0.0
 30
0.0
 11
13925.0
 21
64.5
 31
0.0
  0
TEXT
  5
1B1
  8
MyLines
 62
1
 10
13694.0
 20
1.0
 30
0.0
 40
1.0
  1
7557- 232 - 64.5
 11
13694.0
 21
1.0
 31
0.0
  0
LINE
  5
1B2
  8
MyLines
 10
13927.0
 20
82.5
 30
0.0
 11
14176.0
 21
82.5
 31
0.0
  0
LINE
  5
1B3
  8
MyLines
 10
13927.0
 20
0.0
 30
0.0
 11
14176.0
 21
0.0
 31
0.0
  0
LINE
  5
1B4
  8
MyLines
 10
13927.0
 20
0.0
 30
0.0
 11
13927.0
 21
82.5
 31
0.0
  0
LINE
  5
1B5
  8
MyLines
 10
14176.0
 20
0.0
 30
0.0
 11
14176.0
 21
82.5
 31
0.0
  0
TEXT
  5
1B6
  8
MyLines
 62
1
 10
13928.0
 20
1.0
 30
0.0
 40
1.0
  1
7558- 249 - 82.5
 11
13928.0
 21
1.0
 31
0.0
  0
LINE
  5
1B7
  8
MyLines
 10
14178.0
 20
68.0
 30
0.0
 11
14427.0
 21
68.0
 31
0.0
  0
LINE
  5
1B8
  8
MyLines
 10
14178.0
 20
0.0
 30
0.0
 11
14427.0
 21
0.0
 31
0.0
  0
LINE
  5
1B9
  8
MyLines
 10
14178.0
 20
0.0
 30
0.0
 11
14178.0
 21
68.0
 31
0.0
  0
LINE
  5
1BA
  8
MyLines
 10
14427.0
 20
0.0
 30
0.0
 11
14427.0
 21
68.0
 31
0.0
  0
TEXT
  5
1BB
  8
MyLines
 62
1
 10
14179.0
 20
1.0
 30
0.0
 40
1.0
  1
7559- 249 - 68.0
 11
14179.0
 21
1.0
 31
0.0
  0
LINE
  5
1BC
  8
MyLines
 10
14429.0
 20
89.5
 30
0.0
 11
14635.0
 21
89.5
 31
0.0
  0
LINE
  5
1BD
  8
MyLines
 10
14429.0
 20
0.0
 30
0.0
 11
14635.0
 21
0.0
 31
0.0
  0
LINE
  5
1BE
  8
MyLines
 10
14429.0
 20
0.0
 30
0.0
 11
14429.0
 21
89.5
 31
0.0
  0
LINE
  5
1BF
  8
MyLines
 10
14635.0
 20
0.0
 30
0.0
 11
14635.0
 21
89.5
 31
0.0
  0
TEXT
  5
1C0
  8
MyLines
 62
1
 10
14430.0
 20
1.0
 30
0.0
 40
1.0
  1
7560- 206 - 89.5
 11
14430.0
 21
1.0
 31
0.0
  0
LINE
  5
1C1
  8
MyLines
 10
14637.0
 20
89.5
 30
0.0
 11
14839.0
 21
89.5
 31
0.0
  0
LINE
  5
1C2
  8
MyLines
 10
14637.0
 20
0.0
 30
0.0
 11
14839.0
 21
0.0
 31
0.0
  0
LINE
  5
1C3
  8
MyLines
 10
14637.0
 20
0.0
 30
0.0
 11
14637.0
 21
89.5
 31
0.0
  0
LINE
  5
1C4
  8
MyLines
 10
14839.0
 20
0.0
 30
0.0
 11
14839.0
 21
89.5
 31
0.0
  0
TEXT
  5
1C5
  8
MyLines
 62
1
 10
14638.0
 20
1.0
 30
0.0
 40
1.0
  1
7561- 202 - 89.5
 11
14638.0
 21
1.0
 31
0.0
  0
LINE
  5
1C6
  8
MyLines
 10
14841.0
 20
51.0
 30
0.0
 11
15126.0
 21
51.0
 31
0.0
  0
LINE
  5
1C7
  8
MyLines
 10
14841.0
 20
0.0
 30
0.0
 11
15126.0
 21
0.0
 31
0.0
  0
LINE
  5
1C8
  8
MyLines
 10
14841.0
 20
0.0
 30
0.0
 11
14841.0
 21
51.0
 31
0.0
  0
LINE
  5
1C9
  8
MyLines
 10
15126.0
 20
0.0
 30
0.0
 11
15126.0
 21
51.0
 31
0.0
  0
TEXT
  5
1CA
  8
MyLines
 62
1
 10
14842.0
 20
1.0
 30
0.0
 40
1.0
  1
7562- 285 - 51.0
 11
14842.0
 21
1.0
 31
0.0
  0
LINE
  5
1CB
  8
MyLines
 10
15128.0
 20
68.0
 30
0.0
 11
15367.0
 21
68.0
 31
0.0
  0
LINE
  5
1CC
  8
MyLines
 10
15128.0
 20
0.0
 30
0.0
 11
15367.0
 21
0.0
 31
0.0
  0
LINE
  5
1CD
  8
MyLines
 10
15128.0
 20
0.0
 30
0.0
 11
15128.0
 21
68.0
 31
0.0
  0
LINE
  5
1CE
  8
MyLines
 10
15367.0
 20
0.0
 30
0.0
 11
15367.0
 21
68.0
 31
0.0
  0
TEXT
  5
1CF
  8
MyLines
 62
1
 10
15129.0
 20
1.0
 30
0.0
 40
1.0
  1
7563- 239 - 68.0
 11
15129.0
 21
1.0
 31
0.0
  0
LINE
  5
1D0
  8
MyLines
 10
15369.0
 20
44.0
 30
0.0
 11
15633.0
 21
44.0
 31
0.0
  0
LINE
  5
1D1
  8
MyLines
 10
15369.0
 20
0.0
 30
0.0
 11
15633.0
 21
0.0
 31
0.0
  0
LINE
  5
1D2
  8
MyLines
 10
15369.0
 20
0.0
 30
0.0
 11
15369.0
 21
44.0
 31
0.0
  0
LINE
  5
1D3
  8
MyLines
 10
15633.0
 20
0.0
 30
0.0
 11
15633.0
 21
44.0
 31
0.0
  0
TEXT
  5
1D4
  8
MyLines
 62
1
 10
15370.0
 20
1.0
 30
0.0
 40
1.0
  1
7564- 264 - 44.0
 11
15370.0
 21
1.0
 31
0.0
  0
LINE
  5
1D5
  8
MyLines
 10
15635.0
 20
85.5
 30
0.0
 11
15841.0
 21
85.5
 31
0.0
  0
LINE
  5
1D6
  8
MyLines
 10
15635.0
 20
0.0
 30
0.0
 11
15841.0
 21
0.0
 31
0.0
  0
LINE
  5
1D7
  8
MyLines
 10
15635.0
 20
0.0
 30
0.0
 11
15635.0
 21
85.5
 31
0.0
  0
LINE
  5
1D8
  8
MyLines
 10
15841.0
 20
0.0
 30
0.0
 11
15841.0
 21
85.5
 31
0.0
  0
TEXT
  5
1D9
  8
MyLines
 62
1
 10
15636.0
 20
1.0
 30
0.0
 40
1.0
  1
7565- 206 - 85.5
 11
15636.0
 21
1.0
 31
0.0
  0
LINE
  5
1DA
  8
MyLines
 10
15843.0
 20
85.5
 30
0.0
 11
16130.0
 21
85.5
 31
0.0
  0
LINE
  5
1DB
  8
MyLines
 10
15843.0
 20
0.0
 30
0.0
 11
16130.0
 21
0.0
 31
0.0
  0
LINE
  5
1DC
  8
MyLines
 10
15843.0
 20
0.0
 30
0.0
 11
15843.0
 21
85.5
 31
0.0
  0
LINE
  5
1DD
  8
MyLines
 10
16130.0
 20
0.0
 30
0.0
 11
16130.0
 21
85.5
 31
0.0
  0
TEXT
  5
1DE
  8
MyLines
 62
1
 10
15844.0
 20
1.0
 30
0.0
 40
1.0
  1
7566- 287 - 85.5
 11
15844.0
 21
1.0
 31
0.0
  0
LINE
  5
1DF
  8
MyLines
 10
16132.0
 20
47.0
 30
0.0
 11
16367.0
 21
47.0
 31
0.0
  0
LINE
  5
1E0
  8
MyLines
 10
16132.0
 20
0.0
 30
0.0
 11
16367.0
 21
0.0
 31
0.0
  0
LINE
  5
1E1
  8
MyLines
 10
16132.0
 20
0.0
 30
0.0
 11
16132.0
 21
47.0
 31
0.0
  0
LINE
  5
1E2
  8
MyLines
 10
16367.0
 20
0.0
 30
0.0
 11
16367.0
 21
47.0
 31
0.0
  0
TEXT
  5
1E3
  8
MyLines
 62
1
 10
16133.0
 20
1.0
 30
0.0
 40
1.0
  1
7567- 235 - 47.0
 11
16133.0
 21
1.0
 31
0.0
  0
LINE
  5
1E4
  8
MyLines
 10
16369.0
 20
70.5
 30
0.0
 11
16558.0
 21
70.5
 31
0.0
  0
LINE
  5
1E5
  8
MyLines
 10
16369.0
 20
0.0
 30
0.0
 11
16558.0
 21
0.0
 31
0.0
  0
LINE
  5
1E6
  8
MyLines
 10
16369.0
 20
0.0
 30
0.0
 11
16369.0
 21
70.5
 31
0.0
  0
LINE
  5
1E7
  8
MyLines
 10
16558.0
 20
0.0
 30
0.0
 11
16558.0
 21
70.5
 31
0.0
  0
TEXT
  5
1E8
  8
MyLines
 62
1
 10
16370.0
 20
1.0
 30
0.0
 40
1.0
  1
7568- 189 - 70.5
 11
16370.0
 21
1.0
 31
0.0
  0
LINE
  5
1E9
  8
MyLines
 10
16560.0
 20
84.0
 30
0.0
 11
16752.0
 21
84.0
 31
0.0
  0
LINE
  5
1EA
  8
MyLines
 10
16560.0
 20
0.0
 30
0.0
 11
16752.0
 21
0.0
 31
0.0
  0
LINE
  5
1EB
  8
MyLines
 10
16560.0
 20
0.0
 30
0.0
 11
16560.0
 21
84.0
 31
0.0
  0
LINE
  5
1EC
  8
MyLines
 10
16752.0
 20
0.0
 30
0.0
 11
16752.0
 21
84.0
 31
0.0
  0
TEXT
  5
1ED
  8
MyLines
 62
1
 10
16561.0
 20
1.0
 30
0.0
 40
1.0
  1
7569- 192 - 84.0
 11
16561.0
 21
1.0
 31
0.0
  0
LINE
  5
1EE
  8
MyLines
 10
16754.0
 20
54.0
 30
0.0
 11
16951.0
 21
54.0
 31
0.0
  0
LINE
  5
1EF
  8
MyLines
 10
16754.0
 20
0.0
 30
0.0
 11
16951.0
 21
0.0
 31
0.0
  0
LINE
  5
1F0
  8
MyLines
 10
16754.0
 20
0.0
 30
0.0
 11
16754.0
 21
54.0
 31
0.0
  0
LINE
  5
1F1
  8
MyLines
 10
16951.0
 20
0.0
 30
0.0
 11
16951.0
 21
54.0
 31
0.0
  0
TEXT
  5
1F2
  8
MyLines
 62
1
 10
16755.0
 20
1.0
 30
0.0
 40
1.0
  1
7570- 197 - 54.0
 11
16755.0
 21
1.0
 31
0.0
  0
LINE
  5
1F3
  8
MyLines
 10
16953.0
 20
37.5
 30
0.0
 11
17143.0
 21
37.5
 31
0.0
  0
LINE
  5
1F4
  8
MyLines
 10
16953.0
 20
0.0
 30
0.0
 11
17143.0
 21
0.0
 31
0.0
  0
LINE
  5
1F5
  8
MyLines
 10
16953.0
 20
0.0
 30
0.0
 11
16953.0
 21
37.5
 31
0.0
  0
LINE
  5
1F6
  8
MyLines
 10
17143.0
 20
0.0
 30
0.0
 11
17143.0
 21
37.5
 31
0.0
  0
TEXT
  5
1F7
  8
MyLines
 62
1
 10
16954.0
 20
1.0
 30
0.0
 40
1.0
  1
7571- 190 - 37.5
 11
16954.0
 21
1.0
 31
0.0
  0
LINE
  5
1F8
  8
MyLines
 10
17145.0
 20
81.5
 30
0.0
 11
17387.0
 21
81.5
 31
0.0
  0
LINE
  5
1F9
  8
MyLines
 10
17145.0
 20
0.0
 30
0.0
 11
17387.0
 21
0.0
 31
0.0
  0
LINE
  5
1FA
  8
MyLines
 10
17145.0
 20
0.0
 30
0.0
 11
17145.0
 21
81.5
 31
0.0
  0
LINE
  5
1FB
  8
MyLines
 10
17387.0
 20
0.0
 30
0.0
 11
17387.0
 21
81.5
 31
0.0
  0
TEXT
  5
1FC
  8
MyLines
 62
1
 10
17146.0
 20
1.0
 30
0.0
 40
1.0
  1
7572- 242 - 81.5
 11
17146.0
 21
1.0
 31
0.0
  0
LINE
  5
1FD
  8
MyLines
 10
17389.0
 20
72.0
 30
0.0
 11
17574.0
 21
72.0
 31
0.0
  0
LINE
  5
1FE
  8
MyLines
 10
17389.0
 20
0.0
 30
0.0
 11
17574.0
 21
0.0
 31
0.0
  0
LINE
  5
1FF
  8
MyLines
 10
17389.0
 20
0.0
 30
0.0
 11
17389.0
 21
72.0
 31
0.0
  0
LINE
  5
200
  8
MyLines
 10
17574.0
 20
0.0
 30
0.0
 11
17574.0
 21
72.0
 31
0.0
  0
TEXT
  5
201
  8
MyLines
 62
1
 10
17390.0
 20
1.0
 30
0.0
 40
1.0
  1
7573- 185 - 72.0
 11
17390.0
 21
1.0
 31
0.0
  0
LINE
  5
202
  8
MyLines
 10
17576.0
 20
76.0
 30
0.0
 11
17778.0
 21
76.0
 31
0.0
  0
LINE
  5
203
  8
MyLines
 10
17576.0
 20
0.0
 30
0.0
 11
17778.0
 21
0.0
 31
0.0
  0
LINE
  5
204
  8
MyLines
 10
17576.0
 20
0.0
 30
0.0
 11
17576.0
 21
76.0
 31
0.0
  0
LINE
  5
205
  8
MyLines
 10
17778.0
 20
0.0
 30
0.0
 11
17778.0
 21
76.0
 31
0.0
  0
TEXT
  5
206
  8
MyLines
 62
1
 10
17577.0
 20
1.0
 30
0.0
 40
1.0
  1
7574- 202 - 76.0
 11
17577.0
 21
1.0
 31
0.0
  0
LINE
  5
207
  8
MyLines
 10
17780.0
 20
83.5
 30
0.0
 11
18033.0
 21
83.5
 31
0.0
  0
LINE
  5
208
  8
MyLines
 10
17780.0
 20
0.0
 30
0.0
 11
18033.0
 21
0.0
 31
0.0
  0
LINE
  5
209
  8
MyLines
 10
17780.0
 20
0.0
 30
0.0
 11
17780.0
 21
83.5
 31
0.0
  0
LINE
  5
20A
  8
MyLines
 10
18033.0
 20
0.0
 30
0.0
 11
18033.0
 21
83.5
 31
0.0
  0
TEXT
  5
20B
  8
MyLines
 62
1
 10
17781.0
 20
1.0
 30
0.0
 40
1.0
  1
7575- 253 - 83.5
 11
17781.0
 21
1.0
 31
0.0
  0
LINE
  5
20C
  8
MyLines
 10
18035.0
 20
81.0
 30
0.0
 11
18298.0
 21
81.0
 31
0.0
  0
LINE
  5
20D
  8
MyLines
 10
18035.0
 20
0.0
 30
0.0
 11
18298.0
 21
0.0
 31
0.0
  0
LINE
  5
20E
  8
MyLines
 10
18035.0
 20
0.0
 30
0.0
 11
18035.0
 21
81.0
 31
0.0
  0
LINE
  5
20F
  8
MyLines
 10
18298.0
 20
0.0
 30
0.0
 11
18298.0
 21
81.0
 31
0.0
  0
TEXT
  5
210
  8
MyLines
 62
1
 10
18036.0
 20
1.0
 30
0.0
 40
1.0
  1
7576- 263 - 81.0
 11
18036.0
 21
1.0
 31
0.0
  0
LINE
  5
211
  8
MyLines
 10
18300.0
 20
42.5
 30
0.0
 11
18517.0
 21
42.5
 31
0.0
  0
LINE
  5
212
  8
MyLines
 10
18300.0
 20
0.0
 30
0.0
 11
18517.0
 21
0.0
 31
0.0
  0
LINE
  5
213
  8
MyLines
 10
18300.0
 20
0.0
 30
0.0
 11
18300.0
 21
42.5
 31
0.0
  0
LINE
  5
214
  8
MyLines
 10
18517.0
 20
0.0
 30
0.0
 11
18517.0
 21
42.5
 31
0.0
  0
TEXT
  5
215
  8
MyLines
 62
1
 10
18301.0
 20
1.0
 30
0.0
 40
1.0
  1
7577- 217 - 42.5
 11
18301.0
 21
1.0
 31
0.0
  0
LINE
  5
216
  8
MyLines
 10
18519.0
 20
63.5
 30
0.0
 11
18748.0
 21
63.5
 31
0.0
  0
LINE
  5
217
  8
MyLines
 10
18519.0
 20
0.0
 30
0.0
 11
18748.0
 21
0.0
 31
0.0
  0
LINE
  5
218
  8
MyLines
 10
18519.0
 20
0.0
 30
0.0
 11
18519.0
 21
63.5
 31
0.0
  0
LINE
  5
219
  8
MyLines
 10
18748.0
 20
0.0
 30
0.0
 11
18748.0
 21
63.5
 31
0.0
  0
TEXT
  5
21A
  8
MyLines
 62
1
 10
18520.0
 20
1.0
 30
0.0
 40
1.0
  1
7578- 229 - 63.5
 11
18520.0
 21
1.0
 31
0.0
  0
LINE
  5
21B
  8
MyLines
 10
18750.0
 20
88.0
 30
0.0
 11
18981.0
 21
88.0
 31
0.0
  0
LINE
  5
21C
  8
MyLines
 10
18750.0
 20
0.0
 30
0.0
 11
18981.0
 21
0.0
 31
0.0
  0
LINE
  5
21D
  8
MyLines
 10
18750.0
 20
0.0
 30
0.0
 11
18750.0
 21
88.0
 31
0.0
  0
LINE
  5
21E
  8
MyLines
 10
18981.0
 20
0.0
 30
0.0
 11
18981.0
 21
88.0
 31
0.0
  0
TEXT
  5
21F
  8
MyLines
 62
1
 10
18751.0
 20
1.0
 30
0.0
 40
1.0
  1
7579- 231 - 88.0
 11
18751.0
 21
1.0
 31
0.0
  0
LINE
  5
220
  8
MyLines
 10
18983.0
 20
76.5
 30
0.0
 11
19200.0
 21
76.5
 31
0.0
  0
LINE
  5
221
  8
MyLines
 10
18983.0
 20
0.0
 30
0.0
 11
19200.0
 21
0.0
 31
0.0
  0
LINE
  5
222
  8
MyLines
 10
18983.0
 20
0.0
 30
0.0
 11
18983.0
 21
76.5
 31
0.0
  0
LINE
  5
223
  8
MyLines
 10
19200.0
 20
0.0
 30
0.0
 11
19200.0
 21
76.5
 31
0.0
  0
TEXT
  5
224
  8
MyLines
 62
1
 10
18984.0
 20
1.0
 30
0.0
 40
1.0
  1
7580- 217 - 76.5
 11
18984.0
 21
1.0
 31
0.0
  0
LINE
  5
225
  8
MyLines
 10
19202.0
 20
82.0
 30
0.0
 11
19399.0
 21
82.0
 31
0.0
  0
LINE
  5
226
  8
MyLines
 10
19202.0
 20
0.0
 30
0.0
 11
19399.0
 21
0.0
 31
0.0
  0
LINE
  5
227
  8
MyLines
 10
19202.0
 20
0.0
 30
0.0
 11
19202.0
 21
82.0
 31
0.0
  0
LINE
  5
228
  8
MyLines
 10
19399.0
 20
0.0
 30
0.0
 11
19399.0
 21
82.0
 31
0.0
  0
TEXT
  5
229
  8
MyLines
 62
1
 10
19203.0
 20
1.0
 30
0.0
 40
1.0
  1
7581- 197 - 82.0
 11
19203.0
 21
1.0
 31
0.0
  0
LINE
  5
22A
  8
MyLines
 10
19401.0
 20
88.5
 30
0.0
 11
19593.0
 21
88.5
 31
0.0
  0
LINE
  5
22B
  8
MyLines
 10
19401.0
 20
0.0
 30
0.0
 11
19593.0
 21
0.0
 31
0.0
  0
LINE
  5
22C
  8
MyLines
 10
19401.0
 20
0.0
 30
0.0
 11
19401.0
 21
88.5
 31
0.0
  0
LINE
  5
22D
  8
MyLines
 10
19593.0
 20
0.0
 30
0.0
 11
19593.0
 21
88.5
 31
0.0
  0
TEXT
  5
22E
  8
MyLines
 62
1
 10
19402.0
 20
1.0
 30
0.0
 40
1.0
  1
7582- 192 - 88.5
 11
19402.0
 21
1.0
 31
0.0
  0
LINE
  5
22F
  8
MyLines
 10
19595.0
 20
75.0
 30
0.0
 11
19833.0
 21
75.0
 31
0.0
  0
LINE
  5
230
  8
MyLines
 10
19595.0
 20
0.0
 30
0.0
 11
19833.0
 21
0.0
 31
0.0
  0
LINE
  5
231
  8
MyLines
 10
19595.0
 20
0.0
 30
0.0
 11
19595.0
 21
75.0
 31
0.0
  0
LINE
  5
232
  8
MyLines
 10
19833.0
 20
0.0
 30
0.0
 11
19833.0
 21
75.0
 31
0.0
  0
TEXT
  5
233
  8
MyLines
 62
1
 10
19596.0
 20
1.0
 30
0.0
 40
1.0
  1
7583- 238 - 75.0
 11
19596.0
 21
1.0
 31
0.0
  0
LINE
  5
234
  8
MyLines
 10
19835.0
 20
46.0
 30
0.0
 11
20107.0
 21
46.0
 31
0.0
  0
LINE
  5
235
  8
MyLines
 10
19835.0
 20
0.0
 30
0.0
 11
20107.0
 21
0.0
 31
0.0
  0
LINE
  5
236
  8
MyLines
 10
19835.0
 20
0.0
 30
0.0
 11
19835.0
 21
46.0
 31
0.0
  0
LINE
  5
237
  8
MyLines
 10
20107.0
 20
0.0
 30
0.0
 11
20107.0
 21
46.0
 31
0.0
  0
TEXT
  5
238
  8
MyLines
 62
1
 10
19836.0
 20
1.0
 30
0.0
 40
1.0
  1
7584- 272 - 46.0
 11
19836.0
 21
1.0
 31
0.0
  0
LINE
  5
239
  8
MyLines
 10
20109.0
 20
55.5
 30
0.0
 11
20360.0
 21
55.5
 31
0.0
  0
LINE
  5
23A
  8
MyLines
 10
20109.0
 20
0.0
 30
0.0
 11
20360.0
 21
0.0
 31
0.0
  0
LINE
  5
23B
  8
MyLines
 10
20109.0
 20
0.0
 30
0.0
 11
20109.0
 21
55.5
 31
0.0
  0
LINE
  5
23C
  8
MyLines
 10
20360.0
 20
0.0
 30
0.0
 11
20360.0
 21
55.5
 31
0.0
  0
TEXT
  5
23D
  8
MyLines
 62
1
 10
20110.0
 20
1.0
 30
0.0
 40
1.0
  1
7585- 251 - 55.5
 11
20110.0
 21
1.0
 31
0.0
  0
LINE
  5
23E
  8
MyLines
 10
20362.0
 20
79.0
 30
0.0
 11
20572.0
 21
79.0
 31
0.0
  0
LINE
  5
23F
  8
MyLines
 10
20362.0
 20
0.0
 30
0.0
 11
20572.0
 21
0.0
 31
0.0
  0
LINE
  5
240
  8
MyLines
 10
20362.0
 20
0.0
 30
0.0
 11
20362.0
 21
79.0
 31
0.0
  0
LINE
  5
241
  8
MyLines
 10
20572.0
 20
0.0
 30
0.0
 11
20572.0
 21
79.0
 31
0.0
  0
TEXT
  5
242
  8
MyLines
 62
1
 10
20363.0
 20
1.0
 30
0.0
 40
1.0
  1
7586- 210 - 79.0
 11
20363.0
 21
1.0
 31
0.0
  0
LINE
  5
243
  8
MyLines
 10
20574.0
 20
58.5
 30
0.0
 11
20753.0
 21
58.5
 31
0.0
  0
LINE
  5
244
  8
MyLines
 10
20574.0
 20
0.0
 30
0.0
 11
20753.0
 21
0.0
 31
0.0
  0
LINE
  5
245
  8
MyLines
 10
20574.0
 20
0.0
 30
0.0
 11
20574.0
 21
58.5
 31
0.0
  0
LINE
  5
246
  8
MyLines
 10
20753.0
 20
0.0
 30
0.0
 11
20753.0
 21
58.5
 31
0.0
  0
TEXT
  5
247
  8
MyLines
 62
1
 10
20575.0
 20
1.0
 30
0.0
 40
1.0
  1
7587- 179 - 58.5
 11
20575.0
 21
1.0
 31
0.0
  0
LINE
  5
248
  8
MyLines
 10
20755.0
 20
53.5
 30
0.0
 11
21000.0
 21
53.5
 31
0.0
  0
LINE
  5
249
  8
MyLines
 10
20755.0
 20
0.0
 30
0.0
 11
21000.0
 21
0.0
 31
0.0
  0
LINE
  5
24A
  8
MyLines
 10
20755.0
 20
0.0
 30
0.0
 11
20755.0
 21
53.5
 31
0.0
  0
LINE
  5
24B
  8
MyLines
 10
21000.0
 20
0.0
 30
0.0
 11
21000.0
 21
53.5
 31
0.0
  0
TEXT
  5
24C
  8
MyLines
 62
1
 10
20756.0
 20
1.0
 30
0.0
 40
1.0
  1
7588- 245 - 53.5
 11
20756.0
 21
1.0
 31
0.0
  0
LINE
  5
24D
  8
MyLines
 10
21002.0
 20
85.0
 30
0.0
 11
21208.0
 21
85.0
 31
0.0
  0
LINE
  5
24E
  8
MyLines
 10
21002.0
 20
0.0
 30
0.0
 11
21208.0
 21
0.0
 31
0.0
  0
LINE
  5
24F
  8
MyLines
 10
21002.0
 20
0.0
 30
0.0
 11
21002.0
 21
85.0
 31
0.0
  0
LINE
  5
250
  8
MyLines
 10
21208.0
 20
0.0
 30
0.0
 11
21208.0
 21
85.0
 31
0.0
  0
TEXT
  5
251
  8
MyLines
 62
1
 10
21003.0
 20
1.0
 30
0.0
 40
1.0
  1
7589- 206 - 85.0
 11
21003.0
 21
1.0
 31
0.0
  0
LINE
  5
252
  8
MyLines
 10
21210.0
 20
51.5
 30
0.0
 11
21385.0
 21
51.5
 31
0.0
  0
LINE
  5
253
  8
MyLines
 10
21210.0
 20
0.0
 30
0.0
 11
21385.0
 21
0.0
 31
0.0
  0
LINE
  5
254
  8
MyLines
 10
21210.0
 20
0.0
 30
0.0
 11
21210.0
 21
51.5
 31
0.0
  0
LINE
  5
255
  8
MyLines
 10
21385.0
 20
0.0
 30
0.0
 11
21385.0
 21
51.5
 31
0.0
  0
TEXT
  5
256
  8
MyLines
 62
1
 10
21211.0
 20
1.0
 30
0.0
 40
1.0
  1
7590- 175 - 51.5
 11
21211.0
 21
1.0
 31
0.0
  0
LINE
  5
257
  8
MyLines
 10
21387.0
 20
40.5
 30
0.0
 11
21567.0
 21
40.5
 31
0.0
  0
LINE
  5
258
  8
MyLines
 10
21387.0
 20
0.0
 30
0.0
 11
21567.0
 21
0.0
 31
0.0
  0
LINE
  5
259
  8
MyLines
 10
21387.0
 20
0.0
 30
0.0
 11
21387.0
 21
40.5
 31
0.0
  0
LINE
  5
25A
  8
MyLines
 10
21567.0
 20
0.0
 30
0.0
 11
21567.0
 21
40.5
 31
0.0
  0
TEXT
  5
25B
  8
MyLines
 62
1
 10
21388.0
 20
1.0
 30
0.0
 40
1.0
  1
7591- 180 - 40.5
 11
21388.0
 21
1.0
 31
0.0
  0
LINE
  5
25C
  8
MyLines
 10
21569.0
 20
61.5
 30
0.0
 11
21772.0
 21
61.5
 31
0.0
  0
LINE
  5
25D
  8
MyLines
 10
21569.0
 20
0.0
 30
0.0
 11
21772.0
 21
0.0
 31
0.0
  0
LINE
  5
25E
  8
MyLines
 10
21569.0
 20
0.0
 30
0.0
 11
21569.0
 21
61.5
 31
0.0
  0
LINE
  5
25F
  8
MyLines
 10
21772.0
 20
0.0
 30
0.0
 11
21772.0
 21
61.5
 31
0.0
  0
TEXT
  5
260
  8
MyLines
 62
1
 10
21570.0
 20
1.0
 30
0.0
 40
1.0
  1
7592- 203 - 61.5
 11
21570.0
 21
1.0
 31
0.0
  0
LINE
  5
261
  8
MyLines
 10
21774.0
 20
50.5
 30
0.0
 11
22000.0
 21
50.5
 31
0.0
  0
LINE
  5
262
  8
MyLines
 10
21774.0
 20
0.0
 30
0.0
 11
22000.0
 21
0.0
 31
0.0
  0
LINE
  5
263
  8
MyLines
 10
21774.0
 20
0.0
 30
0.0
 11
21774.0
 21
50.5
 31
0.0
  0
LINE
  5
264
  8
MyLines
 10
22000.0
 20
0.0
 30
0.0
 11
22000.0
 21
50.5
 31
0.0
  0
TEXT
  5
265
  8
MyLines
 62
1
 10
21775.0
 20
1.0
 30
0.0
 40
1.0
  1
7593- 226 - 50.5
 11
21775.0
 21
1.0
 31
0.0
  0
LINE
  5
266
  8
MyLines
 10
22002.0
 20
51.0
 30
0.0
 11
22236.0
 21
51.0
 31
0.0
  0
LINE
  5
267
  8
MyLines
 10
22002.0
 20
0.0
 30
0.0
 11
22236.0
 21
0.0
 31
0.0
  0
LINE
  5
268
  8
MyLines
 10
22002.0
 20
0.0
 30
0.0
 11
22002.0
 21
51.0
 31
0.0
  0
LINE
  5
269
  8
MyLines
 10
22236.0
 20
0.0
 30
0.0
 11
22236.0
 21
51.0
 31
0.0
  0
TEXT
  5
26A
  8
MyLines
 62
1
 10
22003.0
 20
1.0
 30
0.0
 40
1.0
  1
7594- 234 - 51.0
 11
22003.0
 21
1.0
 31
0.0
  0
LINE
  5
26B
  8
MyLines
 10
22238.0
 20
61.0
 30
0.0
 11
22442.0
 21
61.0
 31
0.0
  0
LINE
  5
26C
  8
MyLines
 10
22238.0
 20
0.0
 30
0.0
 11
22442.0
 21
0.0
 31
0.0
  0
LINE
  5
26D
  8
MyLines
 10
22238.0
 20
0.0
 30
0.0
 11
22238.0
 21
61.0
 31
0.0
  0
LINE
  5
26E
  8
MyLines
 10
22442.0
 20
0.0
 30
0.0
 11
22442.0
 21
61.0
 31
0.0
  0
TEXT
  5
26F
  8
MyLines
 62
1
 10
22239.0
 20
1.0
 30
0.0
 40
1.0
  1
7595- 204 - 61.0
 11
22239.0
 21
1.0
 31
0.0
  0
LINE
  5
270
  8
MyLines
 10
22444.0
 20
88.0
 30
0.0
 11
22726.0
 21
88.0
 31
0.0
  0
LINE
  5
271
  8
MyLines
 10
22444.0
 20
0.0
 30
0.0
 11
22726.0
 21
0.0
 31
0.0
  0
LINE
  5
272
  8
MyLines
 10
22444.0
 20
0.0
 30
0.0
 11
22444.0
 21
88.0
 31
0.0
  0
LINE
  5
273
  8
MyLines
 10
22726.0
 20
0.0
 30
0.0
 11
22726.0
 21
88.0
 31
0.0
  0
TEXT
  5
274
  8
MyLines
 62
1
 10
22445.0
 20
1.0
 30
0.0
 40
1.0
  1
7596- 282 - 88.0
 11
22445.0
 21
1.0
 31
0.0
  0
LINE
  5
275
  8
MyLines
 10
22728.0
 20
46.0
 30
0.0
 11
23012.0
 21
46.0
 31
0.0
  0
LINE
  5
276
  8
MyLines
 10
22728.0
 20
0.0
 30
0.0
 11
23012.0
 21
0.0
 31
0.0
  0
LINE
  5
277
  8
MyLines
 10
22728.0
 20
0.0
 30
0.0
 11
22728.0
 21
46.0
 31
0.0
  0
LINE
  5
278
  8
MyLines
 10
23012.0
 20
0.0
 30
0.0
 11
23012.0
 21
46.0
 31
0.0
  0
TEXT
  5
279
  8
MyLines
 62
1
 10
22729.0
 20
1.0
 30
0.0
 40
1.0
  1
7597- 284 - 46.0
 11
22729.0
 21
1.0
 31
0.0
  0
LINE
  5
27A
  8
MyLines
 10
23014.0
 20
53.5
 30
0.0
 11
23210.0
 21
53.5
 31
0.0
  0
LINE
  5
27B
  8
MyLines
 10
23014.0
 20
0.0
 30
0.0
 11
23210.0
 21
0.0
 31
0.0
  0
LINE
  5
27C
  8
MyLines
 10
23014.0
 20
0.0
 30
0.0
 11
23014.0
 21
53.5
 31
0.0
  0
LINE
  5
27D
  8
MyLines
 10
23210.0
 20
0.0
 30
0.0
 11
23210.0
 21
53.5
 31
0.0
  0
TEXT
  5
27E
  8
MyLines
 62
1
 10
23015.0
 20
1.0
 30
0.0
 40
1.0
  1
7598- 196 - 53.5
 11
23015.0
 21
1.0
 31
0.0
  0
LINE
  5
27F
  8
MyLines
 10
23212.0
 20
47.5
 30
0.0
 11
23445.0
 21
47.5
 31
0.0
  0
LINE
  5
280
  8
MyLines
 10
23212.0
 20
0.0
 30
0.0
 11
23445.0
 21
0.0
 31
0.0
  0
LINE
  5
281
  8
MyLines
 10
23212.0
 20
0.0
 30
0.0
 11
23212.0
 21
47.5
 31
0.0
  0
LINE
  5
282
  8
MyLines
 10
23445.0
 20
0.0
 30
0.0
 11
23445.0
 21
47.5
 31
0.0
  0
TEXT
  5
283
  8
MyLines
 62
1
 10
23213.0
 20
1.0
 30
0.0
 40
1.0
  1
7599- 233 - 47.5
 11
23213.0
 21
1.0
 31
0.0
  0
LINE
  5
284
  8
MyLines
 10
23447.0
 20
77.0
 30
0.0
 11
23676.0
 21
77.0
 31
0.0
  0
LINE
  5
285
  8
MyLines
 10
23447.0
 20
0.0
 30
0.0
 11
23676.0
 21
0.0
 31
0.0
  0
LINE
  5
286
  8
MyLines
 10
23447.0
 20
0.0
 30
0.0
 11
23447.0
 21
77.0
 31
0.0
  0
LINE
  5
287
  8
MyLines
 10
23676.0
 20
0.0
 30
0.0
 11
23676.0
 21
77.0
 31
0.0
  0
TEXT
  5
288
  8
MyLines
 62
1
 10
23448.0
 20
1.0
 30
0.0
 40
1.0
  1
7600- 229 - 77.0
 11
23448.0
 21
1.0
 31
0.0
  0
LINE
  5
289
  8
MyLines
 10
23678.0
 20
56.5
 30
0.0
 11
23876.0
 21
56.5
 31
0.0
  0
LINE
  5
28A
  8
MyLines
 10
23678.0
 20
0.0
 30
0.0
 11
23876.0
 21
0.0
 31
0.0
  0
LINE
  5
28B
  8
MyLines
 10
23678.0
 20
0.0
 30
0.0
 11
23678.0
 21
56.5
 31
0.0
  0
LINE
  5
28C
  8
MyLines
 10
23876.0
 20
0.0
 30
0.0
 11
23876.0
 21
56.5
 31
0.0
  0
TEXT
  5
28D
  8
MyLines
 62
1
 10
23679.0
 20
1.0
 30
0.0
 40
1.0
  1
7601- 198 - 56.5
 11
23679.0
 21
1.0
 31
0.0
  0
LINE
  5
28E
  8
MyLines
 10
23878.0
 20
48.5
 30
0.0
 11
24097.0
 21
48.5
 31
0.0
  0
LINE
  5
28F
  8
MyLines
 10
23878.0
 20
0.0
 30
0.0
 11
24097.0
 21
0.0
 31
0.0
  0
LINE
  5
290
  8
MyLines
 10
23878.0
 20
0.0
 30
0.0
 11
23878.0
 21
48.5
 31
0.0
  0
LINE
  5
291
  8
MyLines
 10
24097.0
 20
0.0
 30
0.0
 11
24097.0
 21
48.5
 31
0.0
  0
TEXT
  5
292
  8
MyLines
 62
1
 10
23879.0
 20
1.0
 30
0.0
 40
1.0
  1
7602- 219 - 48.5
 11
23879.0
 21
1.0
 31
0.0
  0
LINE
  5
293
  8
MyLines
 10
24099.0
 20
73.5
 30
0.0
 11
24396.0
 21
73.5
 31
0.0
  0
LINE
  5
294
  8
MyLines
 10
24099.0
 20
0.0
 30
0.0
 11
24396.0
 21
0.0
 31
0.0
  0
LINE
  5
295
  8
MyLines
 10
24099.0
 20
0.0
 30
0.0
 11
24099.0
 21
73.5
 31
0.0
  0
LINE
  5
296
  8
MyLines
 10
24396.0
 20
0.0
 30
0.0
 11
24396.0
 21
73.5
 31
0.0
  0
TEXT
  5
297
  8
MyLines
 62
1
 10
24100.0
 20
1.0
 30
0.0
 40
1.0
  1
7603- 297 - 73.5
 11
24100.0
 21
1.0
 31
0.0
  0
LINE
  5
298
  8
MyLines
 10
24398.0
 20
89.5
 30
0.0
 11
24652.0
 21
89.5
 31
0.0
  0
LINE
  5
299
  8
MyLines
 10
24398.0
 20
0.0
 30
0.0
 11
24652.0
 21
0.0
 31
0.0
  0
LINE
  5
29A
  8
MyLines
 10
24398.0
 20
0.0
 30
0.0
 11
24398.0
 21
89.5
 31
0.0
  0
LINE
  5
29B
  8
MyLines
 10
24652.0
 20
0.0
 30
0.0
 11
24652.0
 21
89.5
 31
0.0
  0
TEXT
  5
29C
  8
MyLines
 62
1
 10
24399.0
 20
1.0
 30
0.0
 40
1.0
  1
7604- 254 - 89.5
 11
24399.0
 21
1.0
 31
0.0
  0
LINE
  5
29D
  8
MyLines
 10
24654.0
 20
70.0
 30
0.0
 11
24859.0
 21
70.0
 31
0.0
  0
LINE
  5
29E
  8
MyLines
 10
24654.0
 20
0.0
 30
0.0
 11
24859.0
 21
0.0
 31
0.0
  0
LINE
  5
29F
  8
MyLines
 10
24654.0
 20
0.0
 30
0.0
 11
24654.0
 21
70.0
 31
0.0
  0
LINE
  5
2A0
  8
MyLines
 10
24859.0
 20
0.0
 30
0.0
 11
24859.0
 21
70.0
 31
0.0
  0
TEXT
  5
2A1
  8
MyLines
 62
1
 10
24655.0
 20
1.0
 30
0.0
 40
1.0
  1
7605- 205 - 70.0
 11
24655.0
 21
1.0
 31
0.0
  0
LINE
  5
2A2
  8
MyLines
 10
24861.0
 20
42.5
 30
0.0
 11
25080.0
 21
42.5
 31
0.0
  0
LINE
  5
2A3
  8
MyLines
 10
24861.0
 20
0.0
 30
0.0
 11
25080.0
 21
0.0
 31
0.0
  0
LINE
  5
2A4
  8
MyLines
 10
24861.0
 20
0.0
 30
0.0
 11
24861.0
 21
42.5
 31
0.0
  0
LINE
  5
2A5
  8
MyLines
 10
25080.0
 20
0.0
 30
0.0
 11
25080.0
 21
42.5
 31
0.0
  0
TEXT
  5
2A6
  8
MyLines
 62
1
 10
24862.0
 20
1.0
 30
0.0
 40
1.0
  1
7606- 219 - 42.5
 11
24862.0
 21
1.0
 31
0.0
  0
LINE
  5
2A7
  8
MyLines
 10
25082.0
 20
54.0
 30
0.0
 11
25301.0
 21
54.0
 31
0.0
  0
LINE
  5
2A8
  8
MyLines
 10
25082.0
 20
0.0
 30
0.0
 11
25301.0
 21
0.0
 31
0.0
  0
LINE
  5
2A9
  8
MyLines
 10
25082.0
 20
0.0
 30
0.0
 11
25082.0
 21
54.0
 31
0.0
  0
LINE
  5
2AA
  8
MyLines
 10
25301.0
 20
0.0
 30
0.0
 11
25301.0
 21
54.0
 31
0.0
  0
TEXT
  5
2AB
  8
MyLines
 62
1
 10
25083.0
 20
1.0
 30
0.0
 40
1.0
  1
7607- 219 - 54.0
 11
25083.0
 21
1.0
 31
0.0
  0
LINE
  5
2AC
  8
MyLines
 10
25303.0
 20
64.0
 30
0.0
 11
25531.0
 21
64.0
 31
0.0
  0
LINE
  5
2AD
  8
MyLines
 10
25303.0
 20
0.0
 30
0.0
 11
25531.0
 21
0.0
 31
0.0
  0
LINE
  5
2AE
  8
MyLines
 10
25303.0
 20
0.0
 30
0.0
 11
25303.0
 21
64.0
 31
0.0
  0
LINE
  5
2AF
  8
MyLines
 10
25531.0
 20
0.0
 30
0.0
 11
25531.0
 21
64.0
 31
0.0
  0
TEXT
  5
2B0
  8
MyLines
 62
1
 10
25304.0
 20
1.0
 30
0.0
 40
1.0
  1
7608- 228 - 64.0
 11
25304.0
 21
1.0
 31
0.0
  0
LINE
  5
2B1
  8
MyLines
 10
25533.0
 20
40.5
 30
0.0
 11
25797.0
 21
40.5
 31
0.0
  0
LINE
  5
2B2
  8
MyLines
 10
25533.0
 20
0.0
 30
0.0
 11
25797.0
 21
0.0
 31
0.0
  0
LINE
  5
2B3
  8
MyLines
 10
25533.0
 20
0.0
 30
0.0
 11
25533.0
 21
40.5
 31
0.0
  0
LINE
  5
2B4
  8
MyLines
 10
25797.0
 20
0.0
 30
0.0
 11
25797.0
 21
40.5
 31
0.0
  0
TEXT
  5
2B5
  8
MyLines
 62
1
 10
25534.0
 20
1.0
 30
0.0
 40
1.0
  1
7609- 264 - 40.5
 11
25534.0
 21
1.0
 31
0.0
  0
LINE
  5
2B6
  8
MyLines
 10
25799.0
 20
77.5
 30
0.0
 11
26079.0
 21
77.5
 31
0.0
  0
LINE
  5
2B7
  8
MyLines
 10
25799.0
 20
0.0
 30
0.0
 11
26079.0
 21
0.0
 31
0.0
  0
LINE
  5
2B8
  8
MyLines
 10
25799.0
 20
0.0
 30
0.0
 11
25799.0
 21
77.5
 31
0.0
  0
LINE
  5
2B9
  8
MyLines
 10
26079.0
 20
0.0
 30
0.0
 11
26079.0
 21
77.5
 31
0.0
  0
TEXT
  5
2BA
  8
MyLines
 62
1
 10
25800.0
 20
1.0
 30
0.0
 40
1.0
  1
7610- 280 - 77.5
 11
25800.0
 21
1.0
 31
0.0
  0
LINE
  5
2BB
  8
MyLines
 10
26081.0
 20
72.0
 30
0.0
 11
26350.0
 21
72.0
 31
0.0
  0
LINE
  5
2BC
  8
MyLines
 10
26081.0
 20
0.0
 30
0.0
 11
26350.0
 21
0.0
 31
0.0
  0
LINE
  5
2BD
  8
MyLines
 10
26081.0
 20
0.0
 30
0.0
 11
26081.0
 21
72.0
 31
0.0
  0
LINE
  5
2BE
  8
MyLines
 10
26350.0
 20
0.0
 30
0.0
 11
26350.0
 21
72.0
 31
0.0
  0
TEXT
  5
2BF
  8
MyLines
 62
1
 10
26082.0
 20
1.0
 30
0.0
 40
1.0
  1
7611- 269 - 72.0
 11
26082.0
 21
1.0
 31
0.0
  0
LINE
  5
2C0
  8
MyLines
 10
26352.0
 20
89.0
 30
0.0
 11
26574.0
 21
89.0
 31
0.0
  0
LINE
  5
2C1
  8
MyLines
 10
26352.0
 20
0.0
 30
0.0
 11
26574.0
 21
0.0
 31
0.0
  0
LINE
  5
2C2
  8
MyLines
 10
26352.0
 20
0.0
 30
0.0
 11
26352.0
 21
89.0
 31
0.0
  0
LINE
  5
2C3
  8
MyLines
 10
26574.0
 20
0.0
 30
0.0
 11
26574.0
 21
89.0
 31
0.0
  0
TEXT
  5
2C4
  8
MyLines
 62
1
 10
26353.0
 20
1.0
 30
0.0
 40
1.0
  1
7612- 222 - 89.0
 11
26353.0
 21
1.0
 31
0.0
  0
LINE
  5
2C5
  8
MyLines
 10
26576.0
 20
70.0
 30
0.0
 11
26785.0
 21
70.0
 31
0.0
  0
LINE
  5
2C6
  8
MyLines
 10
26576.0
 20
0.0
 30
0.0
 11
26785.0
 21
0.0
 31
0.0
  0
LINE
  5
2C7
  8
MyLines
 10
26576.0
 20
0.0
 30
0.0
 11
26576.0
 21
70.0
 31
0.0
  0
LINE
  5
2C8
  8
MyLines
 10
26785.0
 20
0.0
 30
0.0
 11
26785.0
 21
70.0
 31
0.0
  0
TEXT
  5
2C9
  8
MyLines
 62
1
 10
26577.0
 20
1.0
 30
0.0
 40
1.0
  1
7613- 209 - 70.0
 11
26577.0
 21
1.0
 31
0.0
  0
LINE
  5
2CA
  8
MyLines
 10
26787.0
 20
40.5
 30
0.0
 11
27031.0
 21
40.5
 31
0.0
  0
LINE
  5
2CB
  8
MyLines
 10
26787.0
 20
0.0
 30
0.0
 11
27031.0
 21
0.0
 31
0.0
  0
LINE
  5
2CC
  8
MyLines
 10
26787.0
 20
0.0
 30
0.0
 11
26787.0
 21
40.5
 31
0.0
  0
LINE
  5
2CD
  8
MyLines
 10
27031.0
 20
0.0
 30
0.0
 11
27031.0
 21
40.5
 31
0.0
  0
TEXT
  5
2CE
  8
MyLines
 62
1
 10
26788.0
 20
1.0
 30
0.0
 40
1.0
  1
7614- 244 - 40.5
 11
26788.0
 21
1.0
 31
0.0
  0
LINE
  5
2CF
  8
MyLines
 10
27033.0
 20
56.5
 30
0.0
 11
27212.0
 21
56.5
 31
0.0
  0
LINE
  5
2D0
  8
MyLines
 10
27033.0
 20
0.0
 30
0.0
 11
27212.0
 21
0.0
 31
0.0
  0
LINE
  5
2D1
  8
MyLines
 10
27033.0
 20
0.0
 30
0.0
 11
27033.0
 21
56.5
 31
0.0
  0
LINE
  5
2D2
  8
MyLines
 10
27212.0
 20
0.0
 30
0.0
 11
27212.0
 21
56.5
 31
0.0
  0
TEXT
  5
2D3
  8
MyLines
 62
1
 10
27034.0
 20
1.0
 30
0.0
 40
1.0
  1
7615- 179 - 56.5
 11
27034.0
 21
1.0
 31
0.0
  0
LINE
  5
2D4
  8
MyLines
 10
27214.0
 20
87.0
 30
0.0
 11
27392.0
 21
87.0
 31
0.0
  0
LINE
  5
2D5
  8
MyLines
 10
27214.0
 20
0.0
 30
0.0
 11
27392.0
 21
0.0
 31
0.0
  0
LINE
  5
2D6
  8
MyLines
 10
27214.0
 20
0.0
 30
0.0
 11
27214.0
 21
87.0
 31
0.0
  0
LINE
  5
2D7
  8
MyLines
 10
27392.0
 20
0.0
 30
0.0
 11
27392.0
 21
87.0
 31
0.0
  0
TEXT
  5
2D8
  8
MyLines
 62
1
 10
27215.0
 20
1.0
 30
0.0
 40
1.0
  1
7616- 178 - 87.0
 11
27215.0
 21
1.0
 31
0.0
  0
LINE
  5
2D9
  8
MyLines
 10
27394.0
 20
77.5
 30
0.0
 11
27589.0
 21
77.5
 31
0.0
  0
LINE
  5
2DA
  8
MyLines
 10
27394.0
 20
0.0
 30
0.0
 11
27589.0
 21
0.0
 31
0.0
  0
LINE
  5
2DB
  8
MyLines
 10
27394.0
 20
0.0
 30
0.0
 11
27394.0
 21
77.5
 31
0.0
  0
LINE
  5
2DC
  8
MyLines
 10
27589.0
 20
0.0
 30
0.0
 11
27589.0
 21
77.5
 31
0.0
  0
TEXT
  5
2DD
  8
MyLines
 62
1
 10
27395.0
 20
1.0
 30
0.0
 40
1.0
  1
7617- 195 - 77.5
 11
27395.0
 21
1.0
 31
0.0
  0
LINE
  5
2DE
  8
MyLines
 10
27591.0
 20
71.5
 30
0.0
 11
27823.0
 21
71.5
 31
0.0
  0
LINE
  5
2DF
  8
MyLines
 10
27591.0
 20
0.0
 30
0.0
 11
27823.0
 21
0.0
 31
0.0
  0
LINE
  5
2E0
  8
MyLines
 10
27591.0
 20
0.0
 30
0.0
 11
27591.0
 21
71.5
 31
0.0
  0
LINE
  5
2E1
  8
MyLines
 10
27823.0
 20
0.0
 30
0.0
 11
27823.0
 21
71.5
 31
0.0
  0
TEXT
  5
2E2
  8
MyLines
 62
1
 10
27592.0
 20
1.0
 30
0.0
 40
1.0
  1
7618- 232 - 71.5
 11
27592.0
 21
1.0
 31
0.0
  0
LINE
  5
2E3
  8
MyLines
 10
27825.0
 20
49.5
 30
0.0
 11
28118.0
 21
49.5
 31
0.0
  0
LINE
  5
2E4
  8
MyLines
 10
27825.0
 20
0.0
 30
0.0
 11
28118.0
 21
0.0
 31
0.0
  0
LINE
  5
2E5
  8
MyLines
 10
27825.0
 20
0.0
 30
0.0
 11
27825.0
 21
49.5
 31
0.0
  0
LINE
  5
2E6
  8
MyLines
 10
28118.0
 20
0.0
 30
0.0
 11
28118.0
 21
49.5
 31
0.0
  0
TEXT
  5
2E7
  8
MyLines
 62
1
 10
27826.0
 20
1.0
 30
0.0
 40
1.0
  1
7619- 293 - 49.5
 11
27826.0
 21
1.0
 31
0.0
  0
LINE
  5
2E8
  8
MyLines
 10
28120.0
 20
75.5
 30
0.0
 11
28307.0
 21
75.5
 31
0.0
  0
LINE
  5
2E9
  8
MyLines
 10
28120.0
 20
0.0
 30
0.0
 11
28307.0
 21
0.0
 31
0.0
  0
LINE
  5
2EA
  8
MyLines
 10
28120.0
 20
0.0
 30
0.0
 11
28120.0
 21
75.5
 31
0.0
  0
LINE
  5
2EB
  8
MyLines
 10
28307.0
 20
0.0
 30
0.0
 11
28307.0
 21
75.5
 31
0.0
  0
TEXT
  5
2EC
  8
MyLines
 62
1
 10
28121.0
 20
1.0
 30
0.0
 40
1.0
  1
7620- 187 - 75.5
 11
28121.0
 21
1.0
 31
0.0
  0
LINE
  5
2ED
  8
MyLines
 10
28309.0
 20
85.0
 30
0.0
 11
28577.0
 21
85.0
 31
0.0
  0
LINE
  5
2EE
  8
MyLines
 10
28309.0
 20
0.0
 30
0.0
 11
28577.0
 21
0.0
 31
0.0
  0
LINE
  5
2EF
  8
MyLines
 10
28309.0
 20
0.0
 30
0.0
 11
28309.0
 21
85.0
 31
0.0
  0
LINE
  5
2F0
  8
MyLines
 10
28577.0
 20
0.0
 30
0.0
 11
28577.0
 21
85.0
 31
0.0
  0
TEXT
  5
2F1
  8
MyLines
 62
1
 10
28310.0
 20
1.0
 30
0.0
 40
1.0
  1
7621- 268 - 85.0
 11
28310.0
 21
1.0
 31
0.0
  0
LINE
  5
2F2
  8
MyLines
 10
28579.0
 20
76.5
 30
0.0
 11
28793.0
 21
76.5
 31
0.0
  0
LINE
  5
2F3
  8
MyLines
 10
28579.0
 20
0.0
 30
0.0
 11
28793.0
 21
0.0
 31
0.0
  0
LINE
  5
2F4
  8
MyLines
 10
28579.0
 20
0.0
 30
0.0
 11
28579.0
 21
76.5
 31
0.0
  0
LINE
  5
2F5
  8
MyLines
 10
28793.0
 20
0.0
 30
0.0
 11
28793.0
 21
76.5
 31
0.0
  0
TEXT
  5
2F6
  8
MyLines
 62
1
 10
28580.0
 20
1.0
 30
0.0
 40
1.0
  1
7622- 214 - 76.5
 11
28580.0
 21
1.0
 31
0.0
  0
LINE
  5
2F7
  8
MyLines
 10
28795.0
 20
87.5
 30
0.0
 11
29056.0
 21
87.5
 31
0.0
  0
LINE
  5
2F8
  8
MyLines
 10
28795.0
 20
0.0
 30
0.0
 11
29056.0
 21
0.0
 31
0.0
  0
LINE
  5
2F9
  8
MyLines
 10
28795.0
 20
0.0
 30
0.0
 11
28795.0
 21
87.5
 31
0.0
  0
LINE
  5
2FA
  8
MyLines
 10
29056.0
 20
0.0
 30
0.0
 11
29056.0
 21
87.5
 31
0.0
  0
TEXT
  5
2FB
  8
MyLines
 62
1
 10
28796.0
 20
1.0
 30
0.0
 40
1.0
  1
7623- 261 - 87.5
 11
28796.0
 21
1.0
 31
0.0
  0
LINE
  5
2FC
  8
MyLines
 10
29058.0
 20
65.0
 30
0.0
 11
29339.0
 21
65.0
 31
0.0
  0
LINE
  5
2FD
  8
MyLines
 10
29058.0
 20
0.0
 30
0.0
 11
29339.0
 21
0.0
 31
0.0
  0
LINE
  5
2FE
  8
MyLines
 10
29058.0
 20
0.0
 30
0.0
 11
29058.0
 21
65.0
 31
0.0
  0
LINE
  5
2FF
  8
MyLines
 10
29339.0
 20
0.0
 30
0.0
 11
29339.0
 21
65.0
 31
0.0
  0
TEXT
  5
300
  8
MyLines
 62
1
 10
29059.0
 20
1.0
 30
0.0
 40
1.0
  1
7624- 281 - 65.0
 11
29059.0
 21
1.0
 31
0.0
  0
LINE
  5
301
  8
MyLines
 10
29341.0
 20
69.0
 30
0.0
 11
29560.0
 21
69.0
 31
0.0
  0
LINE
  5
302
  8
MyLines
 10
29341.0
 20
0.0
 30
0.0
 11
29560.0
 21
0.0
 31
0.0
  0
LINE
  5
303
  8
MyLines
 10
29341.0
 20
0.0
 30
0.0
 11
29341.0
 21
69.0
 31
0.0
  0
LINE
  5
304
  8
MyLines
 10
29560.0
 20
0.0
 30
0.0
 11
29560.0
 21
69.0
 31
0.0
  0
TEXT
  5
305
  8
MyLines
 62
1
 10
29342.0
 20
1.0
 30
0.0
 40
1.0
  1
7625- 219 - 69.0
 11
29342.0
 21
1.0
 31
0.0
  0
LINE
  5
306
  8
MyLines
 10
29562.0
 20
58.5
 30
0.0
 11
29756.0
 21
58.5
 31
0.0
  0
LINE
  5
307
  8
MyLines
 10
29562.0
 20
0.0
 30
0.0
 11
29756.0
 21
0.0
 31
0.0
  0
LINE
  5
308
  8
MyLines
 10
29562.0
 20
0.0
 30
0.0
 11
29562.0
 21
58.5
 31
0.0
  0
LINE
  5
309
  8
MyLines
 10
29756.0
 20
0.0
 30
0.0
 11
29756.0
 21
58.5
 31
0.0
  0
TEXT
  5
30A
  8
MyLines
 62
1
 10
29563.0
 20
1.0
 30
0.0
 40
1.0
  1
7626- 194 - 58.5
 11
29563.0
 21
1.0
 31
0.0
  0
LINE
  5
30B
  8
MyLines
 10
29758.0
 20
35.5
 30
0.0
 11
30040.0
 21
35.5
 31
0.0
  0
LINE
  5
30C
  8
MyLines
 10
29758.0
 20
0.0
 30
0.0
 11
30040.0
 21
0.0
 31
0.0
  0
LINE
  5
30D
  8
MyLines
 10
29758.0
 20
0.0
 30
0.0
 11
29758.0
 21
35.5
 31
0.0
  0
LINE
  5
30E
  8
MyLines
 10
30040.0
 20
0.0
 30
0.0
 11
30040.0
 21
35.5
 31
0.0
  0
TEXT
  5
30F
  8
MyLines
 62
1
 10
29759.0
 20
1.0
 30
0.0
 40
1.0
  1
7627- 282 - 35.5
 11
29759.0
 21
1.0
 31
0.0
  0
LINE
  5
310
  8
MyLines
 10
30042.0
 20
57.0
 30
0.0
 11
30282.0
 21
57.0
 31
0.0
  0
LINE
  5
311
  8
MyLines
 10
30042.0
 20
0.0
 30
0.0
 11
30282.0
 21
0.0
 31
0.0
  0
LINE
  5
312
  8
MyLines
 10
30042.0
 20
0.0
 30
0.0
 11
30042.0
 21
57.0
 31
0.0
  0
LINE
  5
313
  8
MyLines
 10
30282.0
 20
0.0
 30
0.0
 11
30282.0
 21
57.0
 31
0.0
  0
TEXT
  5
314
  8
MyLines
 62
1
 10
30043.0
 20
1.0
 30
0.0
 40
1.0
  1
7628- 240 - 57.0
 11
30043.0
 21
1.0
 31
0.0
  0
LINE
  5
315
  8
MyLines
 10
30284.0
 20
72.5
 30
0.0
 11
30520.0
 21
72.5
 31
0.0
  0
LINE
  5
316
  8
MyLines
 10
30284.0
 20
0.0
 30
0.0
 11
30520.0
 21
0.0
 31
0.0
  0
LINE
  5
317
  8
MyLines
 10
30284.0
 20
0.0
 30
0.0
 11
30284.0
 21
72.5
 31
0.0
  0
LINE
  5
318
  8
MyLines
 10
30520.0
 20
0.0
 30
0.0
 11
30520.0
 21
72.5
 31
0.0
  0
TEXT
  5
319
  8
MyLines
 62
1
 10
30285.0
 20
1.0
 30
0.0
 40
1.0
  1
7629- 236 - 72.5
 11
30285.0
 21
1.0
 31
0.0
  0
LINE
  5
31A
  8
MyLines
 10
30522.0
 20
47.0
 30
0.0
 11
30766.0
 21
47.0
 31
0.0
  0
LINE
  5
31B
  8
MyLines
 10
30522.0
 20
0.0
 30
0.0
 11
30766.0
 21
0.0
 31
0.0
  0
LINE
  5
31C
  8
MyLines
 10
30522.0
 20
0.0
 30
0.0
 11
30522.0
 21
47.0
 31
0.0
  0
LINE
  5
31D
  8
MyLines
 10
30766.0
 20
0.0
 30
0.0
 11
30766.0
 21
47.0
 31
0.0
  0
TEXT
  5
31E
  8
MyLines
 62
1
 10
30523.0
 20
1.0
 30
0.0
 40
1.0
  1
7630- 244 - 47.0
 11
30523.0
 21
1.0
 31
0.0
  0
LINE
  5
31F
  8
MyLines
 10
30768.0
 20
53.5
 30
0.0
 11
30961.0
 21
53.5
 31
0.0
  0
LINE
  5
320
  8
MyLines
 10
30768.0
 20
0.0
 30
0.0
 11
30961.0
 21
0.0
 31
0.0
  0
LINE
  5
321
  8
MyLines
 10
30768.0
 20
0.0
 30
0.0
 11
30768.0
 21
53.5
 31
0.0
  0
LINE
  5
322
  8
MyLines
 10
30961.0
 20
0.0
 30
0.0
 11
30961.0
 21
53.5
 31
0.0
  0
TEXT
  5
323
  8
MyLines
 62
1
 10
30769.0
 20
1.0
 30
0.0
 40
1.0
  1
7631- 193 - 53.5
 11
30769.0
 21
1.0
 31
0.0
  0
LINE
  5
324
  8
MyLines
 10
30963.0
 20
38.5
 30
0.0
 11
31181.0
 21
38.5
 31
0.0
  0
LINE
  5
325
  8
MyLines
 10
30963.0
 20
0.0
 30
0.0
 11
31181.0
 21
0.0
 31
0.0
  0
LINE
  5
326
  8
MyLines
 10
30963.0
 20
0.0
 30
0.0
 11
30963.0
 21
38.5
 31
0.0
  0
LINE
  5
327
  8
MyLines
 10
31181.0
 20
0.0
 30
0.0
 11
31181.0
 21
38.5
 31
0.0
  0
TEXT
  5
328
  8
MyLines
 62
1
 10
30964.0
 20
1.0
 30
0.0
 40
1.0
  1
7632- 218 - 38.5
 11
30964.0
 21
1.0
 31
0.0
  0
LINE
  5
329
  8
MyLines
 10
31183.0
 20
73.5
 30
0.0
 11
31468.0
 21
73.5
 31
0.0
  0
LINE
  5
32A
  8
MyLines
 10
31183.0
 20
0.0
 30
0.0
 11
31468.0
 21
0.0
 31
0.0
  0
LINE
  5
32B
  8
MyLines
 10
31183.0
 20
0.0
 30
0.0
 11
31183.0
 21
73.5
 31
0.0
  0
LINE
  5
32C
  8
MyLines
 10
31468.0
 20
0.0
 30
0.0
 11
31468.0
 21
73.5
 31
0.0
  0
TEXT
  5
32D
  8
MyLines
 62
1
 10
31184.0
 20
1.0
 30
0.0
 40
1.0
  1
7633- 285 - 73.5
 11
31184.0
 21
1.0
 31
0.0
  0
LINE
  5
32E
  8
MyLines
 10
31470.0
 20
50.5
 30
0.0
 11
31714.0
 21
50.5
 31
0.0
  0
LINE
  5
32F
  8
MyLines
 10
31470.0
 20
0.0
 30
0.0
 11
31714.0
 21
0.0
 31
0.0
  0
LINE
  5
330
  8
MyLines
 10
31470.0
 20
0.0
 30
0.0
 11
31470.0
 21
50.5
 31
0.0
  0
LINE
  5
331
  8
MyLines
 10
31714.0
 20
0.0
 30
0.0
 11
31714.0
 21
50.5
 31
0.0
  0
TEXT
  5
332
  8
MyLines
 62
1
 10
31471.0
 20
1.0
 30
0.0
 40
1.0
  1
7634- 244 - 50.5
 11
31471.0
 21
1.0
 31
0.0
  0
LINE
  5
333
  8
MyLines
 10
31716.0
 20
79.0
 30
0.0
 11
31969.0
 21
79.0
 31
0.0
  0
LINE
  5
334
  8
MyLines
 10
31716.0
 20
0.0
 30
0.0
 11
31969.0
 21
0.0
 31
0.0
  0
LINE
  5
335
  8
MyLines
 10
31716.0
 20
0.0
 30
0.0
 11
31716.0
 21
79.0
 31
0.0
  0
LINE
  5
336
  8
MyLines
 10
31969.0
 20
0.0
 30
0.0
 11
31969.0
 21
79.0
 31
0.0
  0
TEXT
  5
337
  8
MyLines
 62
1
 10
31717.0
 20
1.0
 30
0.0
 40
1.0
  1
7635- 253 - 79.0
 11
31717.0
 21
1.0
 31
0.0
  0
LINE
  5
338
  8
MyLines
 10
31971.0
 20
43.0
 30
0.0
 11
32235.0
 21
43.0
 31
0.0
  0
LINE
  5
339
  8
MyLines
 10
31971.0
 20
0.0
 30
0.0
 11
32235.0
 21
0.0
 31
0.0
  0
LINE
  5
33A
  8
MyLines
 10
31971.0
 20
0.0
 30
0.0
 11
31971.0
 21
43.0
 31
0.0
  0
LINE
  5
33B
  8
MyLines
 10
32235.0
 20
0.0
 30
0.0
 11
32235.0
 21
43.0
 31
0.0
  0
TEXT
  5
33C
  8
MyLines
 62
1
 10
31972.0
 20
1.0
 30
0.0
 40
1.0
  1
7636- 264 - 43.0
 11
31972.0
 21
1.0
 31
0.0
  0
LINE
  5
33D
  8
MyLines
 10
32237.0
 20
72.0
 30
0.0
 11
32533.0
 21
72.0
 31
0.0
  0
LINE
  5
33E
  8
MyLines
 10
32237.0
 20
0.0
 30
0.0
 11
32533.0
 21
0.0
 31
0.0
  0
LINE
  5
33F
  8
MyLines
 10
32237.0
 20
0.0
 30
0.0
 11
32237.0
 21
72.0
 31
0.0
  0
LINE
  5
340
  8
MyLines
 10
32533.0
 20
0.0
 30
0.0
 11
32533.0
 21
72.0
 31
0.0
  0
TEXT
  5
341
  8
MyLines
 62
1
 10
32238.0
 20
1.0
 30
0.0
 40
1.0
  1
7637- 296 - 72.0
 11
32238.0
 21
1.0
 31
0.0
  0
LINE
  5
342
  8
MyLines
 10
32535.0
 20
82.5
 30
0.0
 11
32815.0
 21
82.5
 31
0.0
  0
LINE
  5
343
  8
MyLines
 10
32535.0
 20
0.0
 30
0.0
 11
32815.0
 21
0.0
 31
0.0
  0
LINE
  5
344
  8
MyLines
 10
32535.0
 20
0.0
 30
0.0
 11
32535.0
 21
82.5
 31
0.0
  0
LINE
  5
345
  8
MyLines
 10
32815.0
 20
0.0
 30
0.0
 11
32815.0
 21
82.5
 31
0.0
  0
TEXT
  5
346
  8
MyLines
 62
1
 10
32536.0
 20
1.0
 30
0.0
 40
1.0
  1
7638- 280 - 82.5
 11
32536.0
 21
1.0
 31
0.0
  0
LINE
  5
347
  8
MyLines
 10
32817.0
 20
76.5
 30
0.0
 11
33041.0
 21
76.5
 31
0.0
  0
LINE
  5
348
  8
MyLines
 10
32817.0
 20
0.0
 30
0.0
 11
33041.0
 21
0.0
 31
0.0
  0
LINE
  5
349
  8
MyLines
 10
32817.0
 20
0.0
 30
0.0
 11
32817.0
 21
76.5
 31
0.0
  0
LINE
  5
34A
  8
MyLines
 10
33041.0
 20
0.0
 30
0.0
 11
33041.0
 21
76.5
 31
0.0
  0
TEXT
  5
34B
  8
MyLines
 62
1
 10
32818.0
 20
1.0
 30
0.0
 40
1.0
  1
7639- 224 - 76.5
 11
32818.0
 21
1.0
 31
0.0
  0
LINE
  5
34C
  8
MyLines
 10
33043.0
 20
73.5
 30
0.0
 11
33248.0
 21
73.5
 31
0.0
  0
LINE
  5
34D
  8
MyLines
 10
33043.0
 20
0.0
 30
0.0
 11
33248.0
 21
0.0
 31
0.0
  0
LINE
  5
34E
  8
MyLines
 10
33043.0
 20
0.0
 30
0.0
 11
33043.0
 21
73.5
 31
0.0
  0
LINE
  5
34F
  8
MyLines
 10
33248.0
 20
0.0
 30
0.0
 11
33248.0
 21
73.5
 31
0.0
  0
TEXT
  5
350
  8
MyLines
 62
1
 10
33044.0
 20
1.0
 30
0.0
 40
1.0
  1
7640- 205 - 73.5
 11
33044.0
 21
1.0
 31
0.0
  0
LINE
  5
351
  8
MyLines
 10
33250.0
 20
77.5
 30
0.0
 11
33478.0
 21
77.5
 31
0.0
  0
LINE
  5
352
  8
MyLines
 10
33250.0
 20
0.0
 30
0.0
 11
33478.0
 21
0.0
 31
0.0
  0
LINE
  5
353
  8
MyLines
 10
33250.0
 20
0.0
 30
0.0
 11
33250.0
 21
77.5
 31
0.0
  0
LINE
  5
354
  8
MyLines
 10
33478.0
 20
0.0
 30
0.0
 11
33478.0
 21
77.5
 31
0.0
  0
TEXT
  5
355
  8
MyLines
 62
1
 10
33251.0
 20
1.0
 30
0.0
 40
1.0
  1
7641- 228 - 77.5
 11
33251.0
 21
1.0
 31
0.0
  0
LINE
  5
356
  8
MyLines
 10
33480.0
 20
86.5
 30
0.0
 11
33770.0
 21
86.5
 31
0.0
  0
LINE
  5
357
  8
MyLines
 10
33480.0
 20
0.0
 30
0.0
 11
33770.0
 21
0.0
 31
0.0
  0
LINE
  5
358
  8
MyLines
 10
33480.0
 20
0.0
 30
0.0
 11
33480.0
 21
86.5
 31
0.0
  0
LINE
  5
359
  8
MyLines
 10
33770.0
 20
0.0
 30
0.0
 11
33770.0
 21
86.5
 31
0.0
  0
TEXT
  5
35A
  8
MyLines
 62
1
 10
33481.0
 20
1.0
 30
0.0
 40
1.0
  1
7642- 290 - 86.5
 11
33481.0
 21
1.0
 31
0.0
  0
LINE
  5
35B
  8
MyLines
 10
33772.0
 20
68.0
 30
0.0
 11
34042.0
 21
68.0
 31
0.0
  0
LINE
  5
35C
  8
MyLines
 10
33772.0
 20
0.0
 30
0.0
 11
34042.0
 21
0.0
 31
0.0
  0
LINE
  5
35D
  8
MyLines
 10
33772.0
 20
0.0
 30
0.0
 11
33772.0
 21
68.0
 31
0.0
  0
LINE
  5
35E
  8
MyLines
 10
34042.0
 20
0.0
 30
0.0
 11
34042.0
 21
68.0
 31
0.0
  0
TEXT
  5
35F
  8
MyLines
 62
1
 10
33773.0
 20
1.0
 30
0.0
 40
1.0
  1
7643- 270 - 68.0
 11
33773.0
 21
1.0
 31
0.0
  0
LINE
  5
360
  8
MyLines
 10
34044.0
 20
67.5
 30
0.0
 11
34303.0
 21
67.5
 31
0.0
  0
LINE
  5
361
  8
MyLines
 10
34044.0
 20
0.0
 30
0.0
 11
34303.0
 21
0.0
 31
0.0
  0
LINE
  5
362
  8
MyLines
 10
34044.0
 20
0.0
 30
0.0
 11
34044.0
 21
67.5
 31
0.0
  0
LINE
  5
363
  8
MyLines
 10
34303.0
 20
0.0
 30
0.0
 11
34303.0
 21
67.5
 31
0.0
  0
TEXT
  5
364
  8
MyLines
 62
1
 10
34045.0
 20
1.0
 30
0.0
 40
1.0
  1
7644- 259 - 67.5
 11
34045.0
 21
1.0
 31
0.0
  0
LINE
  5
365
  8
MyLines
 10
34305.0
 20
80.0
 30
0.0
 11
34581.0
 21
80.0
 31
0.0
  0
LINE
  5
366
  8
MyLines
 10
34305.0
 20
0.0
 30
0.0
 11
34581.0
 21
0.0
 31
0.0
  0
LINE
  5
367
  8
MyLines
 10
34305.0
 20
0.0
 30
0.0
 11
34305.0
 21
80.0
 31
0.0
  0
LINE
  5
368
  8
MyLines
 10
34581.0
 20
0.0
 30
0.0
 11
34581.0
 21
80.0
 31
0.0
  0
TEXT
  5
369
  8
MyLines
 62
1
 10
34306.0
 20
1.0
 30
0.0
 40
1.0
  1
7645- 276 - 80.0
 11
34306.0
 21
1.0
 31
0.0
  0
LINE
  5
36A
  8
MyLines
 10
34583.0
 20
47.5
 30
0.0
 11
34760.0
 21
47.5
 31
0.0
  0
LINE
  5
36B
  8
MyLines
 10
34583.0
 20
0.0
 30
0.0
 11
34760.0
 21
0.0
 31
0.0
  0
LINE
  5
36C
  8
MyLines
 10
34583.0
 20
0.0
 30
0.0
 11
34583.0
 21
47.5
 31
0.0
  0
LINE
  5
36D
  8
MyLines
 10
34760.0
 20
0.0
 30
0.0
 11
34760.0
 21
47.5
 31
0.0
  0
TEXT
  5
36E
  8
MyLines
 62
1
 10
34584.0
 20
1.0
 30
0.0
 40
1.0
  1
7646- 177 - 47.5
 11
34584.0
 21
1.0
 31
0.0
  0
LINE
  5
36F
  8
MyLines
 10
34762.0
 20
66.5
 30
0.0
 11
34958.0
 21
66.5
 31
0.0
  0
LINE
  5
370
  8
MyLines
 10
34762.0
 20
0.0
 30
0.0
 11
34958.0
 21
0.0
 31
0.0
  0
LINE
  5
371
  8
MyLines
 10
34762.0
 20
0.0
 30
0.0
 11
34762.0
 21
66.5
 31
0.0
  0
LINE
  5
372
  8
MyLines
 10
34958.0
 20
0.0
 30
0.0
 11
34958.0
 21
66.5
 31
0.0
  0
TEXT
  5
373
  8
MyLines
 62
1
 10
34763.0
 20
1.0
 30
0.0
 40
1.0
  1
7647- 196 - 66.5
 11
34763.0
 21
1.0
 31
0.0
  0
LINE
  5
374
  8
MyLines
 10
34960.0
 20
73.0
 30
0.0
 11
35247.0
 21
73.0
 31
0.0
  0
LINE
  5
375
  8
MyLines
 10
34960.0
 20
0.0
 30
0.0
 11
35247.0
 21
0.0
 31
0.0
  0
LINE
  5
376
  8
MyLines
 10
34960.0
 20
0.0
 30
0.0
 11
34960.0
 21
73.0
 31
0.0
  0
LINE
  5
377
  8
MyLines
 10
35247.0
 20
0.0
 30
0.0
 11
35247.0
 21
73.0
 31
0.0
  0
TEXT
  5
378
  8
MyLines
 62
1
 10
34961.0
 20
1.0
 30
0.0
 40
1.0
  1
7648- 287 - 73.0
 11
34961.0
 21
1.0
 31
0.0
  0
LINE
  5
379
  8
MyLines
 10
35249.0
 20
65.0
 30
0.0
 11
35496.0
 21
65.0
 31
0.0
  0
LINE
  5
37A
  8
MyLines
 10
35249.0
 20
0.0
 30
0.0
 11
35496.0
 21
0.0
 31
0.0
  0
LINE
  5
37B
  8
MyLines
 10
35249.0
 20
0.0
 30
0.0
 11
35249.0
 21
65.0
 31
0.0
  0
LINE
  5
37C
  8
MyLines
 10
35496.0
 20
0.0
 30
0.0
 11
35496.0
 21
65.0
 31
0.0
  0
TEXT
  5
37D
  8
MyLines
 62
1
 10
35250.0
 20
1.0
 30
0.0
 40
1.0
  1
7649- 247 - 65.0
 11
35250.0
 21
1.0
 31
0.0
  0
LINE
  5
37E
  8
MyLines
 10
35498.0
 20
41.0
 30
0.0
 11
35781.0
 21
41.0
 31
0.0
  0
LINE
  5
37F
  8
MyLines
 10
35498.0
 20
0.0
 30
0.0
 11
35781.0
 21
0.0
 31
0.0
  0
LINE
  5
380
  8
MyLines
 10
35498.0
 20
0.0
 30
0.0
 11
35498.0
 21
41.0
 31
0.0
  0
LINE
  5
381
  8
MyLines
 10
35781.0
 20
0.0
 30
0.0
 11
35781.0
 21
41.0
 31
0.0
  0
TEXT
  5
382
  8
MyLines
 62
1
 10
35499.0
 20
1.0
 30
0.0
 40
1.0
  1
7650- 283 - 41.0
 11
35499.0
 21
1.0
 31
0.0
  0
LINE
  5
383
  8
MyLines
 10
35783.0
 20
37.5
 30
0.0
 11
35972.0
 21
37.5
 31
0.0
  0
LINE
  5
384
  8
MyLines
 10
35783.0
 20
0.0
 30
0.0
 11
35972.0
 21
0.0
 31
0.0
  0
LINE
  5
385
  8
MyLines
 10
35783.0
 20
0.0
 30
0.0
 11
35783.0
 21
37.5
 31
0.0
  0
LINE
  5
386
  8
MyLines
 10
35972.0
 20
0.0
 30
0.0
 11
35972.0
 21
37.5
 31
0.0
  0
TEXT
  5
387
  8
MyLines
 62
1
 10
35784.0
 20
1.0
 30
0.0
 40
1.0
  1
7651- 189 - 37.5
 11
35784.0
 21
1.0
 31
0.0
  0
LINE
  5
388
  8
MyLines
 10
35974.0
 20
70.0
 30
0.0
 11
36262.0
 21
70.0
 31
0.0
  0
LINE
  5
389
  8
MyLines
 10
35974.0
 20
0.0
 30
0.0
 11
36262.0
 21
0.0
 31
0.0
  0
LINE
  5
38A
  8
MyLines
 10
35974.0
 20
0.0
 30
0.0
 11
35974.0
 21
70.0
 31
0.0
  0
LINE
  5
38B
  8
MyLines
 10
36262.0
 20
0.0
 30
0.0
 11
36262.0
 21
70.0
 31
0.0
  0
TEXT
  5
38C
  8
MyLines
 62
1
 10
35975.0
 20
1.0
 30
0.0
 40
1.0
  1
7652- 288 - 70.0
 11
35975.0
 21
1.0
 31
0.0
  0
LINE
  5
38D
  8
MyLines
 10
36264.0
 20
64.0
 30
0.0
 11
36479.0
 21
64.0
 31
0.0
  0
LINE
  5
38E
  8
MyLines
 10
36264.0
 20
0.0
 30
0.0
 11
36479.0
 21
0.0
 31
0.0
  0
LINE
  5
38F
  8
MyLines
 10
36264.0
 20
0.0
 30
0.0
 11
36264.0
 21
64.0
 31
0.0
  0
LINE
  5
390
  8
MyLines
 10
36479.0
 20
0.0
 30
0.0
 11
36479.0
 21
64.0
 31
0.0
  0
TEXT
  5
391
  8
MyLines
 62
1
 10
36265.0
 20
1.0
 30
0.0
 40
1.0
  1
7653- 215 - 64.0
 11
36265.0
 21
1.0
 31
0.0
  0
LINE
  5
392
  8
MyLines
 10
36481.0
 20
78.0
 30
0.0
 11
36767.0
 21
78.0
 31
0.0
  0
LINE
  5
393
  8
MyLines
 10
36481.0
 20
0.0
 30
0.0
 11
36767.0
 21
0.0
 31
0.0
  0
LINE
  5
394
  8
MyLines
 10
36481.0
 20
0.0
 30
0.0
 11
36481.0
 21
78.0
 31
0.0
  0
LINE
  5
395
  8
MyLines
 10
36767.0
 20
0.0
 30
0.0
 11
36767.0
 21
78.0
 31
0.0
  0
TEXT
  5
396
  8
MyLines
 62
1
 10
36482.0
 20
1.0
 30
0.0
 40
1.0
  1
7654- 286 - 78.0
 11
36482.0
 21
1.0
 31
0.0
  0
LINE
  5
397
  8
MyLines
 10
36769.0
 20
44.5
 30
0.0
 11
37010.0
 21
44.5
 31
0.0
  0
LINE
  5
398
  8
MyLines
 10
36769.0
 20
0.0
 30
0.0
 11
37010.0
 21
0.0
 31
0.0
  0
LINE
  5
399
  8
MyLines
 10
36769.0
 20
0.0
 30
0.0
 11
36769.0
 21
44.5
 31
0.0
  0
LINE
  5
39A
  8
MyLines
 10
37010.0
 20
0.0
 30
0.0
 11
37010.0
 21
44.5
 31
0.0
  0
TEXT
  5
39B
  8
MyLines
 62
1
 10
36770.0
 20
1.0
 30
0.0
 40
1.0
  1
7655- 241 - 44.5
 11
36770.0
 21
1.0
 31
0.0
  0
LINE
  5
39C
  8
MyLines
 10
37012.0
 20
77.0
 30
0.0
 11
37240.0
 21
77.0
 31
0.0
  0
LINE
  5
39D
  8
MyLines
 10
37012.0
 20
0.0
 30
0.0
 11
37240.0
 21
0.0
 31
0.0
  0
LINE
  5
39E
  8
MyLines
 10
37012.0
 20
0.0
 30
0.0
 11
37012.0
 21
77.0
 31
0.0
  0
LINE
  5
39F
  8
MyLines
 10
37240.0
 20
0.0
 30
0.0
 11
37240.0
 21
77.0
 31
0.0
  0
TEXT
  5
3A0
  8
MyLines
 62
1
 10
37013.0
 20
1.0
 30
0.0
 40
1.0
  1
7656- 228 - 77.0
 11
37013.0
 21
1.0
 31
0.0
  0
LINE
  5
3A1
  8
MyLines
 10
37242.0
 20
85.0
 30
0.0
 11
37535.0
 21
85.0
 31
0.0
  0
LINE
  5
3A2
  8
MyLines
 10
37242.0
 20
0.0
 30
0.0
 11
37535.0
 21
0.0
 31
0.0
  0
LINE
  5
3A3
  8
MyLines
 10
37242.0
 20
0.0
 30
0.0
 11
37242.0
 21
85.0
 31
0.0
  0
LINE
  5
3A4
  8
MyLines
 10
37535.0
 20
0.0
 30
0.0
 11
37535.0
 21
85.0
 31
0.0
  0
TEXT
  5
3A5
  8
MyLines
 62
1
 10
37243.0
 20
1.0
 30
0.0
 40
1.0
  1
7657- 293 - 85.0
 11
37243.0
 21
1.0
 31
0.0
  0
LINE
  5
3A6
  8
MyLines
 10
37537.0
 20
63.0
 30
0.0
 11
37835.0
 21
63.0
 31
0.0
  0
LINE
  5
3A7
  8
MyLines
 10
37537.0
 20
0.0
 30
0.0
 11
37835.0
 21
0.0
 31
0.0
  0
LINE
  5
3A8
  8
MyLines
 10
37537.0
 20
0.0
 30
0.0
 11
37537.0
 21
63.0
 31
0.0
  0
LINE
  5
3A9
  8
MyLines
 10
37835.0
 20
0.0
 30
0.0
 11
37835.0
 21
63.0
 31
0.0
  0
TEXT
  5
3AA
  8
MyLines
 62
1
 10
37538.0
 20
1.0
 30
0.0
 40
1.0
  1
7658- 298 - 63.0
 11
37538.0
 21
1.0
 31
0.0
  0
LINE
  5
3AB
  8
MyLines
 10
37837.0
 20
55.5
 30
0.0
 11
38094.0
 21
55.5
 31
0.0
  0
LINE
  5
3AC
  8
MyLines
 10
37837.0
 20
0.0
 30
0.0
 11
38094.0
 21
0.0
 31
0.0
  0
LINE
  5
3AD
  8
MyLines
 10
37837.0
 20
0.0
 30
0.0
 11
37837.0
 21
55.5
 31
0.0
  0
LINE
  5
3AE
  8
MyLines
 10
38094.0
 20
0.0
 30
0.0
 11
38094.0
 21
55.5
 31
0.0
  0
TEXT
  5
3AF
  8
MyLines
 62
1
 10
37838.0
 20
1.0
 30
0.0
 40
1.0
  1
7659- 257 - 55.5
 11
37838.0
 21
1.0
 31
0.0
  0
LINE
  5
3B0
  8
MyLines
 10
38096.0
 20
67.5
 30
0.0
 11
38297.0
 21
67.5
 31
0.0
  0
LINE
  5
3B1
  8
MyLines
 10
38096.0
 20
0.0
 30
0.0
 11
38297.0
 21
0.0
 31
0.0
  0
LINE
  5
3B2
  8
MyLines
 10
38096.0
 20
0.0
 30
0.0
 11
38096.0
 21
67.5
 31
0.0
  0
LINE
  5
3B3
  8
MyLines
 10
38297.0
 20
0.0
 30
0.0
 11
38297.0
 21
67.5
 31
0.0
  0
TEXT
  5
3B4
  8
MyLines
 62
1
 10
38097.0
 20
1.0
 30
0.0
 40
1.0
  1
7660- 201 - 67.5
 11
38097.0
 21
1.0
 31
0.0
  0
LINE
  5
3B5
  8
MyLines
 10
38299.0
 20
87.5
 30
0.0
 11
38529.0
 21
87.5
 31
0.0
  0
LINE
  5
3B6
  8
MyLines
 10
38299.0
 20
0.0
 30
0.0
 11
38529.0
 21
0.0
 31
0.0
  0
LINE
  5
3B7
  8
MyLines
 10
38299.0
 20
0.0
 30
0.0
 11
38299.0
 21
87.5
 31
0.0
  0
LINE
  5
3B8
  8
MyLines
 10
38529.0
 20
0.0
 30
0.0
 11
38529.0
 21
87.5
 31
0.0
  0
TEXT
  5
3B9
  8
MyLines
 62
1
 10
38300.0
 20
1.0
 30
0.0
 40
1.0
  1
7661- 230 - 87.5
 11
38300.0
 21
1.0
 31
0.0
  0
LINE
  5
3BA
  8
MyLines
 10
38531.0
 20
73.0
 30
0.0
 11
38726.0
 21
73.0
 31
0.0
  0
LINE
  5
3BB
  8
MyLines
 10
38531.0
 20
0.0
 30
0.0
 11
38726.0
 21
0.0
 31
0.0
  0
LINE
  5
3BC
  8
MyLines
 10
38531.0
 20
0.0
 30
0.0
 11
38531.0
 21
73.0
 31
0.0
  0
LINE
  5
3BD
  8
MyLines
 10
38726.0
 20
0.0
 30
0.0
 11
38726.0
 21
73.0
 31
0.0
  0
TEXT
  5
3BE
  8
MyLines
 62
1
 10
38532.0
 20
1.0
 30
0.0
 40
1.0
  1
7662- 195 - 73.0
 11
38532.0
 21
1.0
 31
0.0
  0
LINE
  5
3BF
  8
MyLines
 10
38728.0
 20
37.0
 30
0.0
 11
38905.0
 21
37.0
 31
0.0
  0
LINE
  5
3C0
  8
MyLines
 10
38728.0
 20
0.0
 30
0.0
 11
38905.0
 21
0.0
 31
0.0
  0
LINE
  5
3C1
  8
MyLines
 10
38728.0
 20
0.0
 30
0.0
 11
38728.0
 21
37.0
 31
0.0
  0
LINE
  5
3C2
  8
MyLines
 10
38905.0
 20
0.0
 30
0.0
 11
38905.0
 21
37.0
 31
0.0
  0
TEXT
  5
3C3
  8
MyLines
 62
1
 10
38729.0
 20
1.0
 30
0.0
 40
1.0
  1
7663- 177 - 37.0
 11
38729.0
 21
1.0
 31
0.0
  0
LINE
  5
3C4
  8
MyLines
 10
38907.0
 20
36.0
 30
0.0
 11
39197.0
 21
36.0
 31
0.0
  0
LINE
  5
3C5
  8
MyLines
 10
38907.0
 20
0.0
 30
0.0
 11
39197.0
 21
0.0
 31
0.0
  0
LINE
  5
3C6
  8
MyLines
 10
38907.0
 20
0.0
 30
0.0
 11
38907.0
 21
36.0
 31
0.0
  0
LINE
  5
3C7
  8
MyLines
 10
39197.0
 20
0.0
 30
0.0
 11
39197.0
 21
36.0
 31
0.0
  0
TEXT
  5
3C8
  8
MyLines
 62
1
 10
38908.0
 20
1.0
 30
0.0
 40
1.0
  1
7664- 290 - 36.0
 11
38908.0
 21
1.0
 31
0.0
  0
LINE
  5
3C9
  8
MyLines
 10
39199.0
 20
44.0
 30
0.0
 11
39433.0
 21
44.0
 31
0.0
  0
LINE
  5
3CA
  8
MyLines
 10
39199.0
 20
0.0
 30
0.0
 11
39433.0
 21
0.0
 31
0.0
  0
LINE
  5
3CB
  8
MyLines
 10
39199.0
 20
0.0
 30
0.0
 11
39199.0
 21
44.0
 31
0.0
  0
LINE
  5
3CC
  8
MyLines
 10
39433.0
 20
0.0
 30
0.0
 11
39433.0
 21
44.0
 31
0.0
  0
TEXT
  5
3CD
  8
MyLines
 62
1
 10
39200.0
 20
1.0
 30
0.0
 40
1.0
  1
7665- 234 - 44.0
 11
39200.0
 21
1.0
 31
0.0
  0
LINE
  5
3CE
  8
MyLines
 10
39435.0
 20
72.0
 30
0.0
 11
39658.0
 21
72.0
 31
0.0
  0
LINE
  5
3CF
  8
MyLines
 10
39435.0
 20
0.0
 30
0.0
 11
39658.0
 21
0.0
 31
0.0
  0
LINE
  5
3D0
  8
MyLines
 10
39435.0
 20
0.0
 30
0.0
 11
39435.0
 21
72.0
 31
0.0
  0
LINE
  5
3D1
  8
MyLines
 10
39658.0
 20
0.0
 30
0.0
 11
39658.0
 21
72.0
 31
0.0
  0
TEXT
  5
3D2
  8
MyLines
 62
1
 10
39436.0
 20
1.0
 30
0.0
 40
1.0
  1
7666- 223 - 72.0
 11
39436.0
 21
1.0
 31
0.0
  0
LINE
  5
3D3
  8
MyLines
 10
39660.0
 20
62.0
 30
0.0
 11
39943.0
 21
62.0
 31
0.0
  0
LINE
  5
3D4
  8
MyLines
 10
39660.0
 20
0.0
 30
0.0
 11
39943.0
 21
0.0
 31
0.0
  0
LINE
  5
3D5
  8
MyLines
 10
39660.0
 20
0.0
 30
0.0
 11
39660.0
 21
62.0
 31
0.0
  0
LINE
  5
3D6
  8
MyLines
 10
39943.0
 20
0.0
 30
0.0
 11
39943.0
 21
62.0
 31
0.0
  0
TEXT
  5
3D7
  8
MyLines
 62
1
 10
39661.0
 20
1.0
 30
0.0
 40
1.0
  1
7667- 283 - 62.0
 11
39661.0
 21
1.0
 31
0.0
  0
LINE
  5
3D8
  8
MyLines
 10
39945.0
 20
44.5
 30
0.0
 11
40178.0
 21
44.5
 31
0.0
  0
LINE
  5
3D9
  8
MyLines
 10
39945.0
 20
0.0
 30
0.0
 11
40178.0
 21
0.0
 31
0.0
  0
LINE
  5
3DA
  8
MyLines
 10
39945.0
 20
0.0
 30
0.0
 11
39945.0
 21
44.5
 31
0.0
  0
LINE
  5
3DB
  8
MyLines
 10
40178.0
 20
0.0
 30
0.0
 11
40178.0
 21
44.5
 31
0.0
  0
TEXT
  5
3DC
  8
MyLines
 62
1
 10
39946.0
 20
1.0
 30
0.0
 40
1.0
  1
7668- 233 - 44.5
 11
39946.0
 21
1.0
 31
0.0
  0
LINE
  5
3DD
  8
MyLines
 10
40180.0
 20
70.0
 30
0.0
 11
40371.0
 21
70.0
 31
0.0
  0
LINE
  5
3DE
  8
MyLines
 10
40180.0
 20
0.0
 30
0.0
 11
40371.0
 21
0.0
 31
0.0
  0
LINE
  5
3DF
  8
MyLines
 10
40180.0
 20
0.0
 30
0.0
 11
40180.0
 21
70.0
 31
0.0
  0
LINE
  5
3E0
  8
MyLines
 10
40371.0
 20
0.0
 30
0.0
 11
40371.0
 21
70.0
 31
0.0
  0
TEXT
  5
3E1
  8
MyLines
 62
1
 10
40181.0
 20
1.0
 30
0.0
 40
1.0
  1
7669- 191 - 70.0
 11
40181.0
 21
1.0
 31
0.0
  0
LINE
  5
3E2
  8
MyLines
 10
40373.0
 20
43.5
 30
0.0
 11
40584.0
 21
43.5
 31
0.0
  0
LINE
  5
3E3
  8
MyLines
 10
40373.0
 20
0.0
 30
0.0
 11
40584.0
 21
0.0
 31
0.0
  0
LINE
  5
3E4
  8
MyLines
 10
40373.0
 20
0.0
 30
0.0
 11
40373.0
 21
43.5
 31
0.0
  0
LINE
  5
3E5
  8
MyLines
 10
40584.0
 20
0.0
 30
0.0
 11
40584.0
 21
43.5
 31
0.0
  0
TEXT
  5
3E6
  8
MyLines
 62
1
 10
40374.0
 20
1.0
 30
0.0
 40
1.0
  1
7670- 211 - 43.5
 11
40374.0
 21
1.0
 31
0.0
  0
LINE
  5
3E7
  8
MyLines
 10
40586.0
 20
75.5
 30
0.0
 11
40819.0
 21
75.5
 31
0.0
  0
LINE
  5
3E8
  8
MyLines
 10
40586.0
 20
0.0
 30
0.0
 11
40819.0
 21
0.0
 31
0.0
  0
LINE
  5
3E9
  8
MyLines
 10
40586.0
 20
0.0
 30
0.0
 11
40586.0
 21
75.5
 31
0.0
  0
LINE
  5
3EA
  8
MyLines
 10
40819.0
 20
0.0
 30
0.0
 11
40819.0
 21
75.5
 31
0.0
  0
TEXT
  5
3EB
  8
MyLines
 62
1
 10
40587.0
 20
1.0
 30
0.0
 40
1.0
  1
7671- 233 - 75.5
 11
40587.0
 21
1.0
 31
0.0
  0
LINE
  5
3EC
  8
MyLines
 10
40821.0
 20
85.0
 30
0.0
 11
41118.0
 21
85.0
 31
0.0
  0
LINE
  5
3ED
  8
MyLines
 10
40821.0
 20
0.0
 30
0.0
 11
41118.0
 21
0.0
 31
0.0
  0
LINE
  5
3EE
  8
MyLines
 10
40821.0
 20
0.0
 30
0.0
 11
40821.0
 21
85.0
 31
0.0
  0
LINE
  5
3EF
  8
MyLines
 10
41118.0
 20
0.0
 30
0.0
 11
41118.0
 21
85.0
 31
0.0
  0
TEXT
  5
3F0
  8
MyLines
 62
1
 10
40822.0
 20
1.0
 30
0.0
 40
1.0
  1
7672- 297 - 85.0
 11
40822.0
 21
1.0
 31
0.0
  0
LINE
  5
3F1
  8
MyLines
 10
41120.0
 20
78.5
 30
0.0
 11
41317.0
 21
78.5
 31
0.0
  0
LINE
  5
3F2
  8
MyLines
 10
41120.0
 20
0.0
 30
0.0
 11
41317.0
 21
0.0
 31
0.0
  0
LINE
  5
3F3
  8
MyLines
 10
41120.0
 20
0.0
 30
0.0
 11
41120.0
 21
78.5
 31
0.0
  0
LINE
  5
3F4
  8
MyLines
 10
41317.0
 20
0.0
 30
0.0
 11
41317.0
 21
78.5
 31
0.0
  0
TEXT
  5
3F5
  8
MyLines
 62
1
 10
41121.0
 20
1.0
 30
0.0
 40
1.0
  1
7673- 197 - 78.5
 11
41121.0
 21
1.0
 31
0.0
  0
LINE
  5
3F6
  8
MyLines
 10
41319.0
 20
39.0
 30
0.0
 11
41601.0
 21
39.0
 31
0.0
  0
LINE
  5
3F7
  8
MyLines
 10
41319.0
 20
0.0
 30
0.0
 11
41601.0
 21
0.0
 31
0.0
  0
LINE
  5
3F8
  8
MyLines
 10
41319.0
 20
0.0
 30
0.0
 11
41319.0
 21
39.0
 31
0.0
  0
LINE
  5
3F9
  8
MyLines
 10
41601.0
 20
0.0
 30
0.0
 11
41601.0
 21
39.0
 31
0.0
  0
TEXT
  5
3FA
  8
MyLines
 62
1
 10
41320.0
 20
1.0
 30
0.0
 40
1.0
  1
7674- 282 - 39.0
 11
41320.0
 21
1.0
 31
0.0
  0
LINE
  5
3FB
  8
MyLines
 10
41603.0
 20
36.5
 30
0.0
 11
41863.0
 21
36.5
 31
0.0
  0
LINE
  5
3FC
  8
MyLines
 10
41603.0
 20
0.0
 30
0.0
 11
41863.0
 21
0.0
 31
0.0
  0
LINE
  5
3FD
  8
MyLines
 10
41603.0
 20
0.0
 30
0.0
 11
41603.0
 21
36.5
 31
0.0
  0
LINE
  5
3FE
  8
MyLines
 10
41863.0
 20
0.0
 30
0.0
 11
41863.0
 21
36.5
 31
0.0
  0
TEXT
  5
3FF
  8
MyLines
 62
1
 10
41604.0
 20
1.0
 30
0.0
 40
1.0
  1
7675- 260 - 36.5
 11
41604.0
 21
1.0
 31
0.0
  0
LINE
  5
400
  8
MyLines
 10
41865.0
 20
57.5
 30
0.0
 11
42050.0
 21
57.5
 31
0.0
  0
LINE
  5
401
  8
MyLines
 10
41865.0
 20
0.0
 30
0.0
 11
42050.0
 21
0.0
 31
0.0
  0
LINE
  5
402
  8
MyLines
 10
41865.0
 20
0.0
 30
0.0
 11
41865.0
 21
57.5
 31
0.0
  0
LINE
  5
403
  8
MyLines
 10
42050.0
 20
0.0
 30
0.0
 11
42050.0
 21
57.5
 31
0.0
  0
TEXT
  5
404
  8
MyLines
 62
1
 10
41866.0
 20
1.0
 30
0.0
 40
1.0
  1
7676- 185 - 57.5
 11
41866.0
 21
1.0
 31
0.0
  0
LINE
  5
405
  8
MyLines
 10
42052.0
 20
63.5
 30
0.0
 11
42303.0
 21
63.5
 31
0.0
  0
LINE
  5
406
  8
MyLines
 10
42052.0
 20
0.0
 30
0.0
 11
42303.0
 21
0.0
 31
0.0
  0
LINE
  5
407
  8
MyLines
 10
42052.0
 20
0.0
 30
0.0
 11
42052.0
 21
63.5
 31
0.0
  0
LINE
  5
408
  8
MyLines
 10
42303.0
 20
0.0
 30
0.0
 11
42303.0
 21
63.5
 31
0.0
  0
TEXT
  5
409
  8
MyLines
 62
1
 10
42053.0
 20
1.0
 30
0.0
 40
1.0
  1
7677- 251 - 63.5
 11
42053.0
 21
1.0
 31
0.0
  0
LINE
  5
40A
  8
MyLines
 10
42305.0
 20
76.0
 30
0.0
 11
42532.0
 21
76.0
 31
0.0
  0
LINE
  5
40B
  8
MyLines
 10
42305.0
 20
0.0
 30
0.0
 11
42532.0
 21
0.0
 31
0.0
  0
LINE
  5
40C
  8
MyLines
 10
42305.0
 20
0.0
 30
0.0
 11
42305.0
 21
76.0
 31
0.0
  0
LINE
  5
40D
  8
MyLines
 10
42532.0
 20
0.0
 30
0.0
 11
42532.0
 21
76.0
 31
0.0
  0
TEXT
  5
40E
  8
MyLines
 62
1
 10
42306.0
 20
1.0
 30
0.0
 40
1.0
  1
7678- 227 - 76.0
 11
42306.0
 21
1.0
 31
0.0
  0
LINE
  5
40F
  8
MyLines
 10
42534.0
 20
81.0
 30
0.0
 11
42814.0
 21
81.0
 31
0.0
  0
LINE
  5
410
  8
MyLines
 10
42534.0
 20
0.0
 30
0.0
 11
42814.0
 21
0.0
 31
0.0
  0
LINE
  5
411
  8
MyLines
 10
42534.0
 20
0.0
 30
0.0
 11
42534.0
 21
81.0
 31
0.0
  0
LINE
  5
412
  8
MyLines
 10
42814.0
 20
0.0
 30
0.0
 11
42814.0
 21
81.0
 31
0.0
  0
TEXT
  5
413
  8
MyLines
 62
1
 10
42535.0
 20
1.0
 30
0.0
 40
1.0
  1
7679- 280 - 81.0
 11
42535.0
 21
1.0
 31
0.0
  0
LINE
  5
414
  8
MyLines
 10
42816.0
 20
70.0
 30
0.0
 11
43046.0
 21
70.0
 31
0.0
  0
LINE
  5
415
  8
MyLines
 10
42816.0
 20
0.0
 30
0.0
 11
43046.0
 21
0.0
 31
0.0
  0
LINE
  5
416
  8
MyLines
 10
42816.0
 20
0.0
 30
0.0
 11
42816.0
 21
70.0
 31
0.0
  0
LINE
  5
417
  8
MyLines
 10
43046.0
 20
0.0
 30
0.0
 11
43046.0
 21
70.0
 31
0.0
  0
TEXT
  5
418
  8
MyLines
 62
1
 10
42817.0
 20
1.0
 30
0.0
 40
1.0
  1
7680- 230 - 70.0
 11
42817.0
 21
1.0
 31
0.0
  0
LINE
  5
419
  8
MyLines
 10
43048.0
 20
42.5
 30
0.0
 11
43308.0
 21
42.5
 31
0.0
  0
LINE
  5
41A
  8
MyLines
 10
43048.0
 20
0.0
 30
0.0
 11
43308.0
 21
0.0
 31
0.0
  0
LINE
  5
41B
  8
MyLines
 10
43048.0
 20
0.0
 30
0.0
 11
43048.0
 21
42.5
 31
0.0
  0
LINE
  5
41C
  8
MyLines
 10
43308.0
 20
0.0
 30
0.0
 11
43308.0
 21
42.5
 31
0.0
  0
TEXT
  5
41D
  8
MyLines
 62
1
 10
43049.0
 20
1.0
 30
0.0
 40
1.0
  1
7681- 260 - 42.5
 11
43049.0
 21
1.0
 31
0.0
  0
LINE
  5
41E
  8
MyLines
 10
43310.0
 20
46.5
 30
0.0
 11
43511.0
 21
46.5
 31
0.0
  0
LINE
  5
41F
  8
MyLines
 10
43310.0
 20
0.0
 30
0.0
 11
43511.0
 21
0.0
 31
0.0
  0
LINE
  5
420
  8
MyLines
 10
43310.0
 20
0.0
 30
0.0
 11
43310.0
 21
46.5
 31
0.0
  0
LINE
  5
421
  8
MyLines
 10
43511.0
 20
0.0
 30
0.0
 11
43511.0
 21
46.5
 31
0.0
  0
TEXT
  5
422
  8
MyLines
 62
1
 10
43311.0
 20
1.0
 30
0.0
 40
1.0
  1
7682- 201 - 46.5
 11
43311.0
 21
1.0
 31
0.0
  0
LINE
  5
423
  8
MyLines
 10
43513.0
 20
86.0
 30
0.0
 11
43805.0
 21
86.0
 31
0.0
  0
LINE
  5
424
  8
MyLines
 10
43513.0
 20
0.0
 30
0.0
 11
43805.0
 21
0.0
 31
0.0
  0
LINE
  5
425
  8
MyLines
 10
43513.0
 20
0.0
 30
0.0
 11
43513.0
 21
86.0
 31
0.0
  0
LINE
  5
426
  8
MyLines
 10
43805.0
 20
0.0
 30
0.0
 11
43805.0
 21
86.0
 31
0.0
  0
TEXT
  5
427
  8
MyLines
 62
1
 10
43514.0
 20
1.0
 30
0.0
 40
1.0
  1
7683- 292 - 86.0
 11
43514.0
 21
1.0
 31
0.0
  0
LINE
  5
428
  8
MyLines
 10
43807.0
 20
41.5
 30
0.0
 11
44087.0
 21
41.5
 31
0.0
  0
LINE
  5
429
  8
MyLines
 10
43807.0
 20
0.0
 30
0.0
 11
44087.0
 21
0.0
 31
0.0
  0
LINE
  5
42A
  8
MyLines
 10
43807.0
 20
0.0
 30
0.0
 11
43807.0
 21
41.5
 31
0.0
  0
LINE
  5
42B
  8
MyLines
 10
44087.0
 20
0.0
 30
0.0
 11
44087.0
 21
41.5
 31
0.0
  0
TEXT
  5
42C
  8
MyLines
 62
1
 10
43808.0
 20
1.0
 30
0.0
 40
1.0
  1
7684- 280 - 41.5
 11
43808.0
 21
1.0
 31
0.0
  0
LINE
  5
42D
  8
MyLines
 10
44089.0
 20
83.0
 30
0.0
 11
44273.0
 21
83.0
 31
0.0
  0
LINE
  5
42E
  8
MyLines
 10
44089.0
 20
0.0
 30
0.0
 11
44273.0
 21
0.0
 31
0.0
  0
LINE
  5
42F
  8
MyLines
 10
44089.0
 20
0.0
 30
0.0
 11
44089.0
 21
83.0
 31
0.0
  0
LINE
  5
430
  8
MyLines
 10
44273.0
 20
0.0
 30
0.0
 11
44273.0
 21
83.0
 31
0.0
  0
TEXT
  5
431
  8
MyLines
 62
1
 10
44090.0
 20
1.0
 30
0.0
 40
1.0
  1
7685- 184 - 83.0
 11
44090.0
 21
1.0
 31
0.0
  0
LINE
  5
432
  8
MyLines
 10
44275.0
 20
74.5
 30
0.0
 11
44567.0
 21
74.5
 31
0.0
  0
LINE
  5
433
  8
MyLines
 10
44275.0
 20
0.0
 30
0.0
 11
44567.0
 21
0.0
 31
0.0
  0
LINE
  5
434
  8
MyLines
 10
44275.0
 20
0.0
 30
0.0
 11
44275.0
 21
74.5
 31
0.0
  0
LINE
  5
435
  8
MyLines
 10
44567.0
 20
0.0
 30
0.0
 11
44567.0
 21
74.5
 31
0.0
  0
TEXT
  5
436
  8
MyLines
 62
1
 10
44276.0
 20
1.0
 30
0.0
 40
1.0
  1
7686- 292 - 74.5
 11
44276.0
 21
1.0
 31
0.0
  0
LINE
  5
437
  8
MyLines
 10
44569.0
 20
78.0
 30
0.0
 11
44805.0
 21
78.0
 31
0.0
  0
LINE
  5
438
  8
MyLines
 10
44569.0
 20
0.0
 30
0.0
 11
44805.0
 21
0.0
 31
0.0
  0
LINE
  5
439
  8
MyLines
 10
44569.0
 20
0.0
 30
0.0
 11
44569.0
 21
78.0
 31
0.0
  0
LINE
  5
43A
  8
MyLines
 10
44805.0
 20
0.0
 30
0.0
 11
44805.0
 21
78.0
 31
0.0
  0
TEXT
  5
43B
  8
MyLines
 62
1
 10
44570.0
 20
1.0
 30
0.0
 40
1.0
  1
7687- 236 - 78.0
 11
44570.0
 21
1.0
 31
0.0
  0
LINE
  5
43C
  8
MyLines
 10
44807.0
 20
85.0
 30
0.0
 11
45050.0
 21
85.0
 31
0.0
  0
LINE
  5
43D
  8
MyLines
 10
44807.0
 20
0.0
 30
0.0
 11
45050.0
 21
0.0
 31
0.0
  0
LINE
  5
43E
  8
MyLines
 10
44807.0
 20
0.0
 30
0.0
 11
44807.0
 21
85.0
 31
0.0
  0
LINE
  5
43F
  8
MyLines
 10
45050.0
 20
0.0
 30
0.0
 11
45050.0
 21
85.0
 31
0.0
  0
TEXT
  5
440
  8
MyLines
 62
1
 10
44808.0
 20
1.0
 30
0.0
 40
1.0
  1
7688- 243 - 85.0
 11
44808.0
 21
1.0
 31
0.0
  0
LINE
  5
441
  8
MyLines
 10
45052.0
 20
57.0
 30
0.0
 11
45333.0
 21
57.0
 31
0.0
  0
LINE
  5
442
  8
MyLines
 10
45052.0
 20
0.0
 30
0.0
 11
45333.0
 21
0.0
 31
0.0
  0
LINE
  5
443
  8
MyLines
 10
45052.0
 20
0.0
 30
0.0
 11
45052.0
 21
57.0
 31
0.0
  0
LINE
  5
444
  8
MyLines
 10
45333.0
 20
0.0
 30
0.0
 11
45333.0
 21
57.0
 31
0.0
  0
TEXT
  5
445
  8
MyLines
 62
1
 10
45053.0
 20
1.0
 30
0.0
 40
1.0
  1
7689- 281 - 57.0
 11
45053.0
 21
1.0
 31
0.0
  0
LINE
  5
446
  8
MyLines
 10
45335.0
 20
36.0
 30
0.0
 11
45595.0
 21
36.0
 31
0.0
  0
LINE
  5
447
  8
MyLines
 10
45335.0
 20
0.0
 30
0.0
 11
45595.0
 21
0.0
 31
0.0
  0
LINE
  5
448
  8
MyLines
 10
45335.0
 20
0.0
 30
0.0
 11
45335.0
 21
36.0
 31
0.0
  0
LINE
  5
449
  8
MyLines
 10
45595.0
 20
0.0
 30
0.0
 11
45595.0
 21
36.0
 31
0.0
  0
TEXT
  5
44A
  8
MyLines
 62
1
 10
45336.0
 20
1.0
 30
0.0
 40
1.0
  1
7690- 260 - 36.0
 11
45336.0
 21
1.0
 31
0.0
  0
LINE
  5
44B
  8
MyLines
 10
45597.0
 20
50.0
 30
0.0
 11
45835.0
 21
50.0
 31
0.0
  0
LINE
  5
44C
  8
MyLines
 10
45597.0
 20
0.0
 30
0.0
 11
45835.0
 21
0.0
 31
0.0
  0
LINE
  5
44D
  8
MyLines
 10
45597.0
 20
0.0
 30
0.0
 11
45597.0
 21
50.0
 31
0.0
  0
LINE
  5
44E
  8
MyLines
 10
45835.0
 20
0.0
 30
0.0
 11
45835.0
 21
50.0
 31
0.0
  0
TEXT
  5
44F
  8
MyLines
 62
1
 10
45598.0
 20
1.0
 30
0.0
 40
1.0
  1
7691- 238 - 50.0
 11
45598.0
 21
1.0
 31
0.0
  0
LINE
  5
450
  8
MyLines
 10
45837.0
 20
50.5
 30
0.0
 11
46019.0
 21
50.5
 31
0.0
  0
LINE
  5
451
  8
MyLines
 10
45837.0
 20
0.0
 30
0.0
 11
46019.0
 21
0.0
 31
0.0
  0
LINE
  5
452
  8
MyLines
 10
45837.0
 20
0.0
 30
0.0
 11
45837.0
 21
50.5
 31
0.0
  0
LINE
  5
453
  8
MyLines
 10
46019.0
 20
0.0
 30
0.0
 11
46019.0
 21
50.5
 31
0.0
  0
TEXT
  5
454
  8
MyLines
 62
1
 10
45838.0
 20
1.0
 30
0.0
 40
1.0
  1
7692- 182 - 50.5
 11
45838.0
 21
1.0
 31
0.0
  0
LINE
  5
455
  8
MyLines
 10
46021.0
 20
70.5
 30
0.0
 11
46207.0
 21
70.5
 31
0.0
  0
LINE
  5
456
  8
MyLines
 10
46021.0
 20
0.0
 30
0.0
 11
46207.0
 21
0.0
 31
0.0
  0
LINE
  5
457
  8
MyLines
 10
46021.0
 20
0.0
 30
0.0
 11
46021.0
 21
70.5
 31
0.0
  0
LINE
  5
458
  8
MyLines
 10
46207.0
 20
0.0
 30
0.0
 11
46207.0
 21
70.5
 31
0.0
  0
TEXT
  5
459
  8
MyLines
 62
1
 10
46022.0
 20
1.0
 30
0.0
 40
1.0
  1
7693- 186 - 70.5
 11
46022.0
 21
1.0
 31
0.0
  0
LINE
  5
45A
  8
MyLines
 10
46209.0
 20
90.0
 30
0.0
 11
46434.0
 21
90.0
 31
0.0
  0
LINE
  5
45B
  8
MyLines
 10
46209.0
 20
0.0
 30
0.0
 11
46434.0
 21
0.0
 31
0.0
  0
LINE
  5
45C
  8
MyLines
 10
46209.0
 20
0.0
 30
0.0
 11
46209.0
 21
90.0
 31
0.0
  0
LINE
  5
45D
  8
MyLines
 10
46434.0
 20
0.0
 30
0.0
 11
46434.0
 21
90.0
 31
0.0
  0
TEXT
  5
45E
  8
MyLines
 62
1
 10
46210.0
 20
1.0
 30
0.0
 40
1.0
  1
7694- 225 - 90.0
 11
46210.0
 21
1.0
 31
0.0
  0
LINE
  5
45F
  8
MyLines
 10
46436.0
 20
77.5
 30
0.0
 11
46718.0
 21
77.5
 31
0.0
  0
LINE
  5
460
  8
MyLines
 10
46436.0
 20
0.0
 30
0.0
 11
46718.0
 21
0.0
 31
0.0
  0
LINE
  5
461
  8
MyLines
 10
46436.0
 20
0.0
 30
0.0
 11
46436.0
 21
77.5
 31
0.0
  0
LINE
  5
462
  8
MyLines
 10
46718.0
 20
0.0
 30
0.0
 11
46718.0
 21
77.5
 31
0.0
  0
TEXT
  5
463
  8
MyLines
 62
1
 10
46437.0
 20
1.0
 30
0.0
 40
1.0
  1
7695- 282 - 77.5
 11
46437.0
 21
1.0
 31
0.0
  0
LINE
  5
464
  8
MyLines
 10
46720.0
 20
63.5
 30
0.0
 11
46995.0
 21
63.5
 31
0.0
  0
LINE
  5
465
  8
MyLines
 10
46720.0
 20
0.0
 30
0.0
 11
46995.0
 21
0.0
 31
0.0
  0
LINE
  5
466
  8
MyLines
 10
46720.0
 20
0.0
 30
0.0
 11
46720.0
 21
63.5
 31
0.0
  0
LINE
  5
467
  8
MyLines
 10
46995.0
 20
0.0
 30
0.0
 11
46995.0
 21
63.5
 31
0.0
  0
TEXT
  5
468
  8
MyLines
 62
1
 10
46721.0
 20
1.0
 30
0.0
 40
1.0
  1
7696- 275 - 63.5
 11
46721.0
 21
1.0
 31
0.0
  0
LINE
  5
469
  8
MyLines
 10
46997.0
 20
73.5
 30
0.0
 11
47182.0
 21
73.5
 31
0.0
  0
LINE
  5
46A
  8
MyLines
 10
46997.0
 20
0.0
 30
0.0
 11
47182.0
 21
0.0
 31
0.0
  0
LINE
  5
46B
  8
MyLines
 10
46997.0
 20
0.0
 30
0.0
 11
46997.0
 21
73.5
 31
0.0
  0
LINE
  5
46C
  8
MyLines
 10
47182.0
 20
0.0
 30
0.0
 11
47182.0
 21
73.5
 31
0.0
  0
TEXT
  5
46D
  8
MyLines
 62
1
 10
46998.0
 20
1.0
 30
0.0
 40
1.0
  1
7697- 185 - 73.5
 11
46998.0
 21
1.0
 31
0.0
  0
LINE
  5
46E
  8
MyLines
 10
47184.0
 20
66.0
 30
0.0
 11
47428.0
 21
66.0
 31
0.0
  0
LINE
  5
46F
  8
MyLines
 10
47184.0
 20
0.0
 30
0.0
 11
47428.0
 21
0.0
 31
0.0
  0
LINE
  5
470
  8
MyLines
 10
47184.0
 20
0.0
 30
0.0
 11
47184.0
 21
66.0
 31
0.0
  0
LINE
  5
471
  8
MyLines
 10
47428.0
 20
0.0
 30
0.0
 11
47428.0
 21
66.0
 31
0.0
  0
TEXT
  5
472
  8
MyLines
 62
1
 10
47185.0
 20
1.0
 30
0.0
 40
1.0
  1
7698- 244 - 66.0
 11
47185.0
 21
1.0
 31
0.0
  0
LINE
  5
473
  8
MyLines
 10
47430.0
 20
78.5
 30
0.0
 11
47692.0
 21
78.5
 31
0.0
  0
LINE
  5
474
  8
MyLines
 10
47430.0
 20
0.0
 30
0.0
 11
47692.0
 21
0.0
 31
0.0
  0
LINE
  5
475
  8
MyLines
 10
47430.0
 20
0.0
 30
0.0
 11
47430.0
 21
78.5
 31
0.0
  0
LINE
  5
476
  8
MyLines
 10
47692.0
 20
0.0
 30
0.0
 11
47692.0
 21
78.5
 31
0.0
  0
TEXT
  5
477
  8
MyLines
 62
1
 10
47431.0
 20
1.0
 30
0.0
 40
1.0
  1
7699- 262 - 78.5
 11
47431.0
 21
1.0
 31
0.0
  0
ENDSEC
  0
EOF
