  0
SECTION
  2
HEADER
  9
$ACADVER
  1
AC1009
  9
$DWGCODEPAGE
  3
ANSI_1252
  9
$INSBASE
 10
0.0
 20
0.0
 30
0.0
  9
$EXTMIN
 10
-100
 20
-100
 30
-100
  9
$EXTMAX
 10
100
 20
100
 30
100
  9
$LIMMIN
 10
0.0
 20
0.0
  9
$LIMMAX
 10
420.0
 20
297.0
  9
$ORTHOMODE
 70
0
  9
$REGENMODE
 70
1
  9
$DRAGMODE
 70
2
  9
$FILLMODE
 70
1
  9
$QTEXTMODE
 70
0
  9
$MIRRTEXT
 70
1
  9
$OSMODE
 70
20583
  9
$LTSCALE
 40
1.0
  9
$ATTMODE
 70
1
  9
$TEXTSIZE
 40
2.5
  9
$TRACEWID
 40
1.0
  9
$TEXTSTYLE
  7
OpenSans
  9
$CLAYER
  8
0
  9
$CELTYPE
  6
ByLayer
  9
$CECOLOR
 62
256
  9
$DIMSCALE
 40
1.0
  9
$DIMASZ
 40
0.175
  9
$DIMEXO
 40
0.125
  9
$DIMDLI
 40
3.75
  9
$DIMRND
 40
0.0
  9
$DIMDLE
 40
0.0
  9
$DIMEXE
 40
0.375
  9
$DIMTP
 40
0.0
  9
$DIMTM
 40
0.0
  9
$DIMTXT
 40
0.25
  9
$DIMCEN
 40
2.5
  9
$DIMTSZ
 40
0.0
  9
$DIMTOL
 70
0
  9
$DIMLIM
 70
0
  9
$DIMTIH
 70
0
  9
$DIMTOH
 70
0
  9
$DIMSE1
 70
0
  9
$DIMSE2
 70
0
  9
$DIMTAD
 70
1
  9
$DIMZIN
 70
8
  9
$DIMBLK
  1
ARCHTICK
  9
$DIMASO
 70
1
  9
$DIMSHO
 70
1
  9
$DIMPOST
  1

  9
$DIMAPOST
  1

  9
$DIMALT
 70
0
  9
$DIMALTD
 70
3
  9
$DIMALTF
 40
0.03937007874
  9
$DIMLFAC
 40
100.0
  9
$DIMTOFL
 70
1
  9
$DIMTVP
 40
0.0
  9
$DIMTIX
 70
0
  9
$DIMSOXD
 70
0
  9
$DIMSAH
 70
0
  9
$DIMBLK1
  1

  9
$DIMBLK2
  1

  9
$DIMSTYLE
  2
EZDXF
  9
$DIMCLRD
 70
0
  9
$DIMCLRE
 70
0
  9
$DIMCLRT
 70
0
  9
$DIMTFAC
 40
1.0
  9
$DIMGAP
 40
0.1
  9
$COORDS
 70
1
  9
$ATTDIA
 70
0
  9
$ATTREQ
 70
1
  9
$HANDLING
 70
1
  9
$LUNITS
 70
2
  9
$LUPREC
 70
4
  9
$SKETCHINC
 40
1.0
  9
$FILLETRAD
 40
10.0
  9
$AUNITS
 70
0
  9
$AUPREC
 70
2
  9
$MENU
  1
.
  9
$ELEVATION
 40
0.0
  9
$PELEVATION
 40
0.0
  9
$THICKNESS
 40
0.0
  9
$LIMCHECK
 70
0
  9
$CHAMFERA
 40
0.0
  9
$CHAMFERB
 40
0.0
  9
$SKPOLY
 70
0
  9
$TDCREATE
 40
2458926.928171296
  9
$TDUPDATE
 40
2458926.928171296
  9
$TDINDWG
 40
0.0
  9
$TDUSRTIMER
 40
0.0
  9
$USRTIMER
 70
1
  9
$ANGBASE
 50
0.0
  9
$ANGDIR
 70
0
  9
$PDMODE
 70
0
  9
$PDSIZE
 40
0.0
  9
$PLINEWID
 40
0.0
  9
$SPLFRAME
 70
0
  9
$SPLINETYPE
 70
6
  9
$SPLINESEGS
 70
8
  9
$HANDSEED
  5
478
  9
$SURFTAB1
 70
6
  9
$SURFTAB2
 70
6
  9
$SURFTYPE
 70
6
  9
$SURFU
 70
6
  9
$SURFV
 70
6
  9
$UCSNAME
  2

  9
$UCSORG
 10
0.0
 20
0.0
 30
0.0
  9
$UCSXDIR
 10
1.0
 20
0.0
 30
0.0
  9
$UCSYDIR
 10
0.0
 20
1.0
 30
0.0
  9
$PUCSNAME
  2

  9
$PUCSORG
 10
0.0
 20
0.0
 30
0.0
  9
$PUCSXDIR
 10
1.0
 20
0.0
 30
0.0
  9
$PUCSYDIR
 10
0.0
 20
1.0
 30
0.0
  9
$USERI1
 70
0
  9
$USERI2
 70
0
  9
$USERI3
 70
0
  9
$USERI4
 70
0
  9
$USERI5
 70
0
  9
$USERR1
 40
0.0
  9
$USERR2
 40
0.0
  9
$USERR3
 40
0.0
  9
$USERR4
 40
0.0
  9
$USERR5
 40
0.0
  9
$WORLDVIEW
 70
1
  9
$SHADEDGE
 70
3
  9
$SHADEDIF
 70
70
  9
$TILEMODE
 70
1
  9
$MAXACTVP
 70
64
  9
$PLIMCHECK
 70
0
  9
$PEXTMIN
 10
1e+20
 20
1e+20
 30
1e+20
  9
$PEXTMAX
 10
-1e+20
 20
-1e+20
 30
-1e+20
  9
$PLIMMIN
 10
0.0
 20
0.0
  9
$PLIMMAX
 10
420.0
 20
297.0
  9
$UNITMODE
 70
0
  9
$VISRETAIN
 70
1
  9
$PLINEGEN
 70
0
  9
$PSLTSCALE
 70
1
  0
ENDSEC
  0
SECTION
  2
TABLES
  0
TABLE
  2
VPORT
 70
1
  0
VPORT
  5
23
  2
*Active
 70
0
 10
0.0
 20
0.0
 11
1.0
 21
1.0
 12
70.0
 22
50.0
 13
0.0
 23
0.0
 14
0.5
 24
0.5
 15
0.5
 25
0.5
 16
0.0
 26
0.0
 36
1.0
 17
0.0
 27
0.0
 37
0.0
 40
1.0
 41
1.34
 42
50.0
 43
0.0
 44
0.0
 50
0.0
 51
0.0
 71
0
 72
1000
 73
1
 74
3
 75
0
 76
0
 77
0
 78
0
  0
ENDTAB
  0
TABLE
  2
LTYPE
 70
21
  0
LTYPE
  5
24
  2
ByBlock
 70
0
  3

 72
65
 73
0
 40
0.0
  0
LTYPE
  5
25
  2
ByLayer
 70
0
  3

 72
65
 73
0
 40
0.0
  0
LTYPE
  5
26
  2
Continuous
 70
0
  3

 72
65
 73
0
 40
0.0
  0
LTYPE
  5
2D
  2
CENTER
 70
0
  3
Center ____ _ ____ _ ____ _ ____ _ ____ _ ____
 72
65
 73
4
 40
2.0
 49
1.25
 49
-0.25
 49
0.25
 49
-0.25
  0
LTYPE
  5
2E
  2
CENTERX2
 70
0
  3
Center (2x) ________  __  ________  __  ________
 72
65
 73
4
 40
3.5
 49
2.5
 49
-0.25
 49
0.5
 49
-0.25
  0
LTYPE
  5
2F
  2
CENTER2
 70
0
  3
Center (.5x) ____ _ ____ _ ____ _ ____ _ ____
 72
65
 73
4
 40
1.0
 49
0.625
 49
-0.125
 49
0.125
 49
-0.125
  0
LTYPE
  5
30
  2
DASHED
 70
0
  3
Dashed __ __ __ __ __ __ __ __ __ __ __ __ __ _
 72
65
 73
2
 40
0.6
 49
0.5
 49
-0.1
  0
LTYPE
  5
31
  2
DASHEDX2
 70
0
  3
Dashed (2x) ____  ____  ____  ____  ____  ____
 72
65
 73
2
 40
1.2
 49
1.0
 49
-0.2
  0
LTYPE
  5
32
  2
DASHED2
 70
0
  3
Dashed (.5x) _ _ _ _ _ _ _ _ _ _ _ _ _ _
 72
65
 73
2
 40
0.3
 49
0.25
 49
-0.05
  0
LTYPE
  5
33
  2
PHANTOM
 70
0
  3
Phantom ______  __  __  ______  __  __  ______
 72
65
 73
6
 40
2.5
 49
1.25
 49
-0.25
 49
0.25
 49
-0.25
 49
0.25
 49
-0.25
  0
LTYPE
  5
34
  2
PHANTOMX2
 70
0
  3
Phantom (2x)____________    ____    ____    ____________
 72
65
 73
6
 40
4.25
 49
2.5
 49
-0.25
 49
0.5
 49
-0.25
 49
0.5
 49
-0.25
  0
LTYPE
  5
35
  2
PHANTOM2
 70
0
  3
Phantom (.5x) ___ _ _ ___ _ _ ___ _ _ ___ _ _ ___
 72
65
 73
6
 40
1.25
 49
0.625
 49
-0.125
 49
0.125
 49
-0.125
 49
0.125
 49
-0.125
  0
LTYPE
  5
36
  2
DASHDOT
 70
0
  3
Dash dot __ . __ . __ . __ . __ . __ . __ . __
 72
65
 73
4
 40
1.4
 49
1.0
 49
-0.2
 49
0.0
 49
-0.2
  0
LTYPE
  5
37
  2
DASHDOTX2
 70
0
  3
Dash dot (2x) ____  .  ____  .  ____  .  ____
 72
65
 73
4
 40
2.4
 49
2.0
 49
-0.2
 49
0.0
 49
-0.2
  0
LTYPE
  5
38
  2
DASHDOT2
 70
0
  3
Dash dot (.5x) _ . _ . _ . _ . _ . _ . _ . _
 72
65
 73
4
 40
0.7
 49
0.5
 49
-0.1
 49
0.0
 49
-0.1
  0
LTYPE
  5
39
  2
DOT
 70
0
  3
Dot .  .  .  .  .  .  .  .  .  .  .  .  .  .  .  .
 72
65
 73
2
 40
0.2
 49
0.0
 49
-0.2
  0
LTYPE
  5
3A
  2
DOTX2
 70
0
  3
Dot (2x) .    .    .    .    .    .    .    . 
 72
65
 73
2
 40
0.4
 49
0.0
 49
-0.4
  0
LTYPE
  5
3B
  2
DOT2
 70
0
  3
Dot (.5) . . . . . . . . . . . . . . . . . . . 
 72
65
 73
2
 40
0.1
 49
0.0
 49
-0.1
  0
LTYPE
  5
3C
  2
DIVIDE
 70
0
  3
Divide __ . . __ . . __ . . __ . . __ . . __
 72
65
 73
6
 40
1.6
 49
1.0
 49
-0.2
 49
0.0
 49
-0.2
 49
0.0
 49
-0.2
  0
LTYPE
  5
3D
  2
DIVIDEX2
 70
0
  3
Divide (2x) ____  . .  ____  . .  ____  . .  ____
 72
65
 73
6
 40
2.6
 49
2.0
 49
-0.2
 49
0.0
 49
-0.2
 49
0.0
 49
-0.2
  0
LTYPE
  5
3E
  2
DIVIDE2
 70
0
  3
Divide(.5x) _ . _ . _ . _ . _ . _ . _ . _
 72
65
 73
6
 40
0.8
 49
0.5
 49
-0.1
 49
0.0
 49
-0.1
 49
0.0
 49
-0.1
  0
ENDTAB
  0
TABLE
  2
LAYER
 70
3
  0
LAYER
  5
27
  2
0
 70
0
 62
7
  6
Continuous
  0
LAYER
  5
28
  2
Defpoints
 70
0
 62
7
  6
Continuous
  0
LAYER
  5
8E
  2
MyLines
 70
0
 62
7
  6
Continuous
  0
ENDTAB
  0
TABLE
  2
STYLE
 70
27
  0
STYLE
  5
29
  2
Standard
 70
0
 40
0.0
 41
1.0
 50
0.0
 71
0
 42
2.5
  3
txt
  4

  0
STYLE
  5
3F
  2
OpenSans-Light
 70
0
 40
0.0
 41
1.0
 50
0.0
 71
0
 42
2.5
  3
OpenSans-Light.ttf
  4

  0
STYLE
  5
40
  2
OpenSans-Light-Italic
 70
0
 40
0.0
 41
1.0
 50
0.0
 71
0
 42
2.5
  3
OpenSans-LightItalic.ttf
  4

  0
STYLE
  5
41
  2
OpenSans
 70
0
 40
0.0
 41
1.0
 50
0.0
 71
0
 42
2.5
  3
OpenSans-Regular.ttf
  4

  0
STYLE
  5
42
  2
OpenSans-Italic
 70
0
 40
0.0
 41
1.0
 50
0.0
 71
0
 42
2.5
  3
OpenSans-Italic.ttf
  4

  0
STYLE
  5
43
  2
OpenSans-SemiBold
 70
0
 40
0.0
 41
1.0
 50
0.0
 71
0
 42
2.5
  3
OpenSans-SemiBold.ttf
  4

  0
STYLE
  5
44
  2
OpenSans-SemiBoldItalic
 70
0
 40
0.0
 41
1.0
 50
0.0
 71
0
 42
2.5
  3
OpenSans-SemiBoldItalic.ttf
  4

  0
STYLE
  5
45
  2
OpenSans-Bold
 70
0
 40
0.0
 41
1.0
 50
0.0
 71
0
 42
2.5
  3
OpenSans-Bold.ttf
  4

  0
STYLE
  5
46
  2
OpenSans-BoldItalic
 70
0
 40
0.0
 41
1.0
 50
0.0
 71
0
 42
2.5
  3
OpenSans-BoldItalic.ttf
  4

  0
STYLE
  5
47
  2
OpenSans-ExtraBold
 70
0
 40
0.0
 41
1.0
 50
0.0
 71
0
 42
2.5
  3
OpenSans-ExtraBold.ttf
  4

  0
STYLE
  5
48
  2
OpenSans-ExtraBoldItalic
 70
0
 40
0.0
 41
1.0
 50
0.0
 71
0
 42
2.5
  3
OpenSans-ExtraBoldItalic.ttf
  4

  0
STYLE
  5
49
  2
OpenSansCondensed-Bold
 70
0
 40
0.0
 41
1.0
 50
0.0
 71
0
 42
2.5
  3
OpenSansCondensed-Bold.ttf
  4

  0
STYLE
  5
4A
  2
OpenSansCondensed-Light
 70
0
 40
0.0
 41
1.0
 50
0.0
 71
0
 42
2.5
  3
OpenSansCondensed-Light.ttf
  4

  0
STYLE
  5
4B
  2
OpenSansCondensed-Italic
 70
0
 40
0.0
 41
1.0
 50
0.0
 71
0
 42
2.5
  3
OpenSansCondensed-LightItalic.ttf
  4

  0
STYLE
  5
4C
  2
LiberationSans
 70
0
 40
0.0
 41
1.0
 50
0.0
 71
0
 42
2.5
  3
LiberationSans-Regular.ttf
  4

  0
STYLE
  5
4D
  2
LiberationSans-Bold
 70
0
 40
0.0
 41
1.0
 50
0.0
 71
0
 42
2.5
  3
LiberationSans-Bold.ttf
  4

  0
STYLE
  5
4E
  2
LiberationSans-BoldItalic
 70
0
 40
0.0
 41
1.0
 50
0.0
 71
0
 42
2.5
  3
LiberationSans-BoldItalic.ttf
  4

  0
STYLE
  5
4F
  2
LiberationSans-Italic
 70
0
 40
0.0
 41
1.0
 50
0.0
 71
0
 42
2.5
  3
LiberationSans-Italic.ttf
  4

  0
STYLE
  5
50
  2
LiberationSerif
 70
0
 40
0.0
 41
1.0
 50
0.0
 71
0
 42
2.5
  3
LiberationSerif-Regular.ttf
  4

  0
STYLE
  5
51
  2
LiberationSerif-Bold
 70
0
 40
0.0
 41
1.0
 50
0.0
 71
0
 42
2.5
  3
LiberationSerif-Bold.ttf
  4

  0
STYLE
  5
52
  2
LiberationSerif-BoldItalic
 70
0
 40
0.0
 41
1.0
 50
0.0
 71
0
 42
2.5
  3
LiberationSerif-BoldItalic.ttf
  4

  0
STYLE
  5
53
  2
LiberationSerif-Italic
 70
0
 40
0.0
 41
1.0
 50
0.0
 71
0
 42
2.5
  3
LiberationSerif-Italic.ttf
  4

  0
STYLE
  5
54
  2
LiberationMono
 70
0
 40
0.0
 41
1.0
 50
0.0
 71
0
 42
2.5
  3
LiberationMono-Regular.ttf
  4

  0
STYLE
  5
55
  2
LiberationMono-Bold
 70
0
 40
0.0
 41
1.0
 50
0.0
 71
0
 42
2.5
  3
LiberationMono-Bold.ttf
  4

  0
STYLE
  5
56
  2
LiberationMono-BoldItalic
 70
0
 40
0.0
 41
1.0
 50
0.0
 71
0
 42
2.5
  3
LiberationMono-BoldItalic.ttf
  4

  0
STYLE
  5
57
  2
LiberationMono-Italic
 70
0
 40
0.0
 41
1.0
 50
0.0
 71
0
 42
2.5
  3
LiberationMono-Italic.ttf
  4

  0
STYLE
  5
8F
  2
myStandard2
 70
0
 40
0.0
 41
1.0
 50
0.0
 71
0
 42
2.5
  3
C:\Windows\Fonts\OpenSans-Italic.ttf
  4

  0
ENDTAB
  0
TABLE
  2
VIEW
 70
0
  0
ENDTAB
  0
TABLE
  2
UCS
 70
0
  0
ENDTAB
  0
TABLE
  2
APPID
 70
1
  0
APPID
  5
2A
  2
ACAD
 70
0
  0
ENDTAB
  0
TABLE
  2
DIMSTYLE
 70
11
  0
DIMSTYLE
105
2B
  2
Standard
 70
0
  3

  4

  5

  6

  7

 40
1.0
 41
2.5
 42
0.625
 43
3.75
 44
1.25
 45
0.0
 46
0.0
 47
0.0
 48
0.0
140
2.5
141
2.5
142
0.0
143
0.03937007874
144
1.0
145
0.0
146
1.0
147
0.625
 71
0
 72
0
 73
0
 74
0
 75
0
 76
0
 77
1
 78
8
170
0
171
3
172
1
173
0
174
0
175
0
176
0
177
0
178
0
  0
DIMSTYLE
105
71
  2
EZDXF
 70
0
  3

  4

  5
ARCHTICK
  6

  7

 40
1.0
 41
0.175
 42
0.125
 43
3.75
 44
0.375
 45
0.0
 46
0.0
 47
0.0
 48
0.0
140
0.25
141
2.5
142
0.0
143
0.03937007874
144
100.0
145
0.0
146
1.0
147
0.1
 71
0
 72
0
 73
0
 74
0
 75
0
 76
0
 77
1
 78
8
170
0
171
3
172
1
173
0
174
0
175
0
176
0
177
0
178
0
  0
DIMSTYLE
105
7D
  2
EZ_M_100_H25_CM
 70
0
  3

  4

  5

  6

  7

 40
1.0
 41
0.25
 42
0.125
 43
3.75
 44
0.375
 45
0.0
 46
0.0
 47
0.0
 48
0.0
140
0.25
141
2.5
142
0.125
143
0.03937007874
144
100.0
145
0.0
146
1.0
147
0.1
 71
0
 72
0
 73
0
 74
0
 75
0
 76
0
 77
1
 78
8
170
0
171
3
172
1
173
0
174
0
175
0
176
0
177
0
178
0
  0
DIMSTYLE
105
7E
  2
EZ_M_50_H25_CM
 70
0
  3

  4

  5

  6

  7

 40
1.0
 41
0.125
 42
0.0625
 43
3.75
 44
0.1875
 45
0.0
 46
0.0
 47
0.0
 48
0.0
140
0.125
141
2.5
142
0.0625
143
0.03937007874
144
100.0
145
0.0
146
1.0
147
0.05
 71
0
 72
0
 73
0
 74
0
 75
0
 76
0
 77
1
 78
8
170
0
171
3
172
1
173
0
174
0
175
0
176
0
177
0
178
0
  0
DIMSTYLE
105
7F
  2
EZ_M_25_H25_CM
 70
0
  3

  4

  5

  6

  7

 40
1.0
 41
0.0625
 42
0.03125
 43
3.75
 44
0.09375
 45
0.0
 46
0.0
 47
0.0
 48
0.0
140
0.0625
141
2.5
142
0.03125
143
0.03937007874
144
100.0
145
0.0
146
1.0
147
0.025
 71
0
 72
0
 73
0
 74
0
 75
0
 76
0
 77
1
 78
8
170
0
171
3
172
1
173
0
174
0
175
0
176
0
177
0
178
0
  0
DIMSTYLE
105
80
  2
EZ_M_20_H25_CM
 70
0
  3

  4

  5

  6

  7

 40
1.0
 41
0.05
 42
0.025
 43
3.75
 44
0.07500000000000001
 45
0.0
 46
0.0
 47
0.0
 48
0.0
140
0.05
141
2.5
142
0.025
143
0.03937007874
144
100.0
145
0.0
146
1.0
147
0.020000000000000004
 71
0
 72
0
 73
0
 74
0
 75
0
 76
0
 77
1
 78
8
170
0
171
3
172
1
173
0
174
0
175
0
176
0
177
0
178
0
  0
DIMSTYLE
105
81
  2
EZ_M_10_H25_CM
 70
0
  3

  4

  5

  6

  7

 40
1.0
 41
0.025
 42
0.0125
 43
3.75
 44
0.037500000000000006
 45
0.0
 46
0.0
 47
0.0
 48
0.0
140
0.025
141
2.5
142
0.0125
143
0.03937007874
144
100.0
145
0.0
146
1.0
147
0.010000000000000002
 71
0
 72
0
 73
0
 74
0
 75
0
 76
0
 77
1
 78
8
170
0
171
3
172
1
173
0
174
0
175
0
176
0
177
0
178
0
  0
DIMSTYLE
105
82
  2
EZ_M_5_H25_CM
 70
0
  3

  4

  5

  6

  7

 40
1.0
 41
0.0125
 42
0.00625
 43
3.75
 44
0.018750000000000003
 45
0.0
 46
0.0
 47
0.0
 48
0.0
140
0.0125
141
2.5
142
0.00625
143
0.03937007874
144
100.0
145
0.0
146
1.0
147
0.005000000000000001
 71
0
 72
0
 73
0
 74
0
 75
0
 76
0
 77
1
 78
8
170
0
171
3
172
1
173
0
174
0
175
0
176
0
177
0
178
0
  0
DIMSTYLE
105
83
  2
EZ_M_1_H25_CM
 70
0
  3

  4

  5

  6

  7

 40
1.0
 41
0.0025
 42
0.00125
 43
3.75
 44
0.00375
 45
0.0
 46
0.0
 47
0.0
 48
0.0
140
0.0025
141
2.5
142
0.00125
143
0.03937007874
144
100.0
145
0.0
146
1.0
147
0.001
 71
0
 72
0
 73
0
 74
0
 75
0
 76
0
 77
1
 78
8
170
0
171
3
172
1
173
0
174
0
175
0
176
0
177
0
178
0
  0
DIMSTYLE
105
84
  2
EZ_RADIUS
 70
0
  3

  4

  5
CLOSEDBLANK
  6

  7

 40
1.0
 41
0.25
 42
0.125
 43
3.75
 44
0.375
 45
0.0
 46
0.0
 47
0.0
 48
0.0
140
0.25
141
0.0
142
0.0
143
0.03937007874
144
100.0
145
0.0
146
1.0
147
0.1
 71
0
 72
0
 73
0
 74
0
 75
0
 76
0
 77
1
 78
8
170
0
171
3
172
0
173
0
174
0
175
0
176
0
177
0
178
0
  0
DIMSTYLE
105
8D
  2
EZ_RADIUS_INSIDE
 70
0
  3

  4

  5
CLOSEDBLANK
  6

  7

 40
1.0
 41
0.25
 42
0.125
 43
3.75
 44
0.375
 45
0.0
 46
0.0
 47
0.0
 48
0.0
140
0.25
141
0.0
142
0.0
143
0.03937007874
144
100.0
145
0.0
146
1.0
147
0.1
 71
0
 72
0
 73
0
 74
0
 75
0
 76
0
 77
0
 78
8
170
0
171
3
172
0
173
0
174
1
175
0
176
0
177
0
178
0
  0
ENDTAB
  0
ENDSEC
  0
SECTION
  2
BLOCKS
  0
BLOCK
  5
18
  8
0
  2
$Model_Space
 70
0
 10
0.0
 20
0.0
 30
0.0
  3
$Model_Space
  1

  0
ENDBLK
  5
19
  8
0
  0
BLOCK
  5
1C
  8
0
  2
$Paper_Space
 70
0
 10
0.0
 20
0.0
 30
0.0
  3
$Paper_Space
  1

  0
ENDBLK
  5
1D
  8
0
  0
BLOCK
  5
73
  8
0
  2
_ARCHTICK
 70
0
 10
0.0
 20
0.0
 30
0.0
  3
_ARCHTICK
  1

  0
POLYLINE
  5
75
  8
0
  6
BYBLOCK
 62
0
 66
1
 70
0
 40
0.15
 41
0.15
  0
VERTEX
  5
77
  8
0
  6
BYBLOCK
 10
-0.5
 20
-0.5000000000000001
 30
0.0
 70
0
  0
VERTEX
  5
78
  8
0
  6
BYBLOCK
 10
0.5000000000000001
 20
0.5000000000000001
 30
0.0
 70
0
  0
SEQEND
  5
76
  8
0
  0
ENDBLK
  5
74
  8
0
  0
BLOCK
  5
7A
  8
0
  2
_CLOSEDFILLED
 70
0
 10
0.0
 20
0.0
 30
0.0
  3
_CLOSEDFILLED
  1

  0
SOLID
  5
7C
  8
0
  6
BYBLOCK
 62
0
 10
-1.0
 20
0.1643989837240255
 30
0.0
 11
0.0
 21
0.0
 31
0.0
 12
-1.0
 22
-0.1643989837240255
 32
0.0
 13
-1.0
 23
-0.1643989837240255
 33
0.0
  0
ENDBLK
  5
7B
  8
0
  0
BLOCK
  5
86
  8
0
  2
_CLOSEDBLANK
 70
0
 10
0.0
 20
0.0
 30
0.0
  3
_CLOSEDBLANK
  1

  0
POLYLINE
  5
88
  8
0
  6
BYBLOCK
 62
0
 66
1
 70
1
  0
VERTEX
  5
8A
  8
0
  6
BYBLOCK
 10
-1.0
 20
0.1643989837240255
 30
0.0
 70
0
  0
VERTEX
  5
8B
  8
0
  6
BYBLOCK
 10
0.0
 20
0.0
 30
0.0
 70
0
  0
VERTEX
  5
8C
  8
0
  6
BYBLOCK
 10
-1.0
 20
-0.1643989837240255
 30
0.0
 70
0
  0
SEQEND
  5
89
  8
0
  0
ENDBLK
  5
87
  8
0
  0
ENDSEC
  0
SECTION
  2
ENTITIES
  0
LINE
  5
90
  8
MyLines
 10
0.0
 20
78.5
 30
0.0
 11
299.0
 21
78.5
 31
0.0
  0
LINE
  5
91
  8
MyLines
 10
0.0
 20
0.0
 30
0.0
 11
299.0
 21
0.0
 31
0.0
  0
LINE
  5
92
  8
MyLines
 10
0.0
 20
0.0
 30
0.0
 11
0.0
 21
78.5
 31
0.0
  0
LINE
  5
93
  8
MyLines
 10
299.0
 20
0.0
 30
0.0
 11
299.0
 21
78.5
 31
0.0
  0
TEXT
  5
94
  8
MyLines
 62
1
 10
1.0
 20
1.0
 30
0.0
 40
1.0
  1
7500- 299 * 78.5
 11
1.0
 21
1.0
 31
0.0
  0
LINE
  5
95
  8
MyLines
 10
301.0
 20
75.0
 30
0.0
 11
478.0
 21
75.0
 31
0.0
  0
LINE
  5
96
  8
MyLines
 10
301.0
 20
0.0
 30
0.0
 11
478.0
 21
0.0
 31
0.0
  0
LINE
  5
97
  8
MyLines
 10
301.0
 20
0.0
 30
0.0
 11
301.0
 21
75.0
 31
0.0
  0
LINE
  5
98
  8
MyLines
 10
478.0
 20
0.0
 30
0.0
 11
478.0
 21
75.0
 31
0.0
  0
TEXT
  5
99
  8
MyLines
 62
1
 10
302.0
 20
1.0
 30
0.0
 40
1.0
  1
7501- 177 * 75.0
 11
302.0
 21
1.0
 31
0.0
  0
LINE
  5
9A
  8
MyLines
 10
480.0
 20
65.0
 30
0.0
 11
709.0
 21
65.0
 31
0.0
  0
LINE
  5
9B
  8
MyLines
 10
480.0
 20
0.0
 30
0.0
 11
709.0
 21
0.0
 31
0.0
  0
LINE
  5
9C
  8
MyLines
 10
480.0
 20
0.0
 30
0.0
 11
480.0
 21
65.0
 31
0.0
  0
LINE
  5
9D
  8
MyLines
 10
709.0
 20
0.0
 30
0.0
 11
709.0
 21
65.0
 31
0.0
  0
TEXT
  5
9E
  8
MyLines
 62
1
 10
481.0
 20
1.0
 30
0.0
 40
1.0
  1
7502- 229 * 65.0
 11
481.0
 21
1.0
 31
0.0
  0
LINE
  5
9F
  8
MyLines
 10
711.0
 20
52.5
 30
0.0
 11
997.0
 21
52.5
 31
0.0
  0
LINE
  5
A0
  8
MyLines
 10
711.0
 20
0.0
 30
0.0
 11
997.0
 21
0.0
 31
0.0
  0
LINE
  5
A1
  8
MyLines
 10
711.0
 20
0.0
 30
0.0
 11
711.0
 21
52.5
 31
0.0
  0
LINE
  5
A2
  8
MyLines
 10
997.0
 20
0.0
 30
0.0
 11
997.0
 21
52.5
 31
0.0
  0
TEXT
  5
A3
  8
MyLines
 62
1
 10
712.0
 20
1.0
 30
0.0
 40
1.0
  1
7503- 286 * 52.5
 11
712.0
 21
1.0
 31
0.0
  0
LINE
  5
A4
  8
MyLines
 10
999.0
 20
67.5
 30
0.0
 11
1184.0
 21
67.5
 31
0.0
  0
LINE
  5
A5
  8
MyLines
 10
999.0
 20
0.0
 30
0.0
 11
1184.0
 21
0.0
 31
0.0
  0
LINE
  5
A6
  8
MyLines
 10
999.0
 20
0.0
 30
0.0
 11
999.0
 21
67.5
 31
0.0
  0
LINE
  5
A7
  8
MyLines
 10
1184.0
 20
0.0
 30
0.0
 11
1184.0
 21
67.5
 31
0.0
  0
TEXT
  5
A8
  8
MyLines
 62
1
 10
1000.0
 20
1.0
 30
0.0
 40
1.0
  1
7504- 185 * 67.5
 11
1000.0
 21
1.0
 31
0.0
  0
LINE
  5
A9
  8
MyLines
 10
1186.0
 20
53.0
 30
0.0
 11
1400.0
 21
53.0
 31
0.0
  0
LINE
  5
AA
  8
MyLines
 10
1186.0
 20
0.0
 30
0.0
 11
1400.0
 21
0.0
 31
0.0
  0
LINE
  5
AB
  8
MyLines
 10
1186.0
 20
0.0
 30
0.0
 11
1186.0
 21
53.0
 31
0.0
  0
LINE
  5
AC
  8
MyLines
 10
1400.0
 20
0.0
 30
0.0
 11
1400.0
 21
53.0
 31
0.0
  0
TEXT
  5
AD
  8
MyLines
 62
1
 10
1187.0
 20
1.0
 30
0.0
 40
1.0
  1
7505- 214 * 53.0
 11
1187.0
 21
1.0
 31
0.0
  0
LINE
  5
AE
  8
MyLines
 10
1402.0
 20
48.5
 30
0.0
 11
1652.0
 21
48.5
 31
0.0
  0
LINE
  5
AF
  8
MyLines
 10
1402.0
 20
0.0
 30
0.0
 11
1652.0
 21
0.0
 31
0.0
  0
LINE
  5
B0
  8
MyLines
 10
1402.0
 20
0.0
 30
0.0
 11
1402.0
 21
48.5
 31
0.0
  0
LINE
  5
B1
  8
MyLines
 10
1652.0
 20
0.0
 30
0.0
 11
1652.0
 21
48.5
 31
0.0
  0
TEXT
  5
B2
  8
MyLines
 62
1
 10
1403.0
 20
1.0
 30
0.0
 40
1.0
  1
7506- 250 * 48.5
 11
1403.0
 21
1.0
 31
0.0
  0
LINE
  5
B3
  8
MyLines
 10
1654.0
 20
69.0
 30
0.0
 11
1830.0
 21
69.0
 31
0.0
  0
LINE
  5
B4
  8
MyLines
 10
1654.0
 20
0.0
 30
0.0
 11
1830.0
 21
0.0
 31
0.0
  0
LINE
  5
B5
  8
MyLines
 10
1654.0
 20
0.0
 30
0.0
 11
1654.0
 21
69.0
 31
0.0
  0
LINE
  5
B6
  8
MyLines
 10
1830.0
 20
0.0
 30
0.0
 11
1830.0
 21
69.0
 31
0.0
  0
TEXT
  5
B7
  8
MyLines
 62
1
 10
1655.0
 20
1.0
 30
0.0
 40
1.0
  1
7507- 176 * 69.0
 11
1655.0
 21
1.0
 31
0.0
  0
LINE
  5
B8
  8
MyLines
 10
1832.0
 20
73.0
 30
0.0
 11
2075.0
 21
73.0
 31
0.0
  0
LINE
  5
B9
  8
MyLines
 10
1832.0
 20
0.0
 30
0.0
 11
2075.0
 21
0.0
 31
0.0
  0
LINE
  5
BA
  8
MyLines
 10
1832.0
 20
0.0
 30
0.0
 11
1832.0
 21
73.0
 31
0.0
  0
LINE
  5
BB
  8
MyLines
 10
2075.0
 20
0.0
 30
0.0
 11
2075.0
 21
73.0
 31
0.0
  0
TEXT
  5
BC
  8
MyLines
 62
1
 10
1833.0
 20
1.0
 30
0.0
 40
1.0
  1
7508- 243 * 73.0
 11
1833.0
 21
1.0
 31
0.0
  0
LINE
  5
BD
  8
MyLines
 10
2077.0
 20
73.0
 30
0.0
 11
2371.0
 21
73.0
 31
0.0
  0
LINE
  5
BE
  8
MyLines
 10
2077.0
 20
0.0
 30
0.0
 11
2371.0
 21
0.0
 31
0.0
  0
LINE
  5
BF
  8
MyLines
 10
2077.0
 20
0.0
 30
0.0
 11
2077.0
 21
73.0
 31
0.0
  0
LINE
  5
C0
  8
MyLines
 10
2371.0
 20
0.0
 30
0.0
 11
2371.0
 21
73.0
 31
0.0
  0
TEXT
  5
C1
  8
MyLines
 62
1
 10
2078.0
 20
1.0
 30
0.0
 40
1.0
  1
7509- 294 * 73.0
 11
2078.0
 21
1.0
 31
0.0
  0
LINE
  5
C2
  8
MyLines
 10
2373.0
 20
85.5
 30
0.0
 11
2565.0
 21
85.5
 31
0.0
  0
LINE
  5
C3
  8
MyLines
 10
2373.0
 20
0.0
 30
0.0
 11
2565.0
 21
0.0
 31
0.0
  0
LINE
  5
C4
  8
MyLines
 10
2373.0
 20
0.0
 30
0.0
 11
2373.0
 21
85.5
 31
0.0
  0
LINE
  5
C5
  8
MyLines
 10
2565.0
 20
0.0
 30
0.0
 11
2565.0
 21
85.5
 31
0.0
  0
TEXT
  5
C6
  8
MyLines
 62
1
 10
2374.0
 20
1.0
 30
0.0
 40
1.0
  1
7510- 192 * 85.5
 11
2374.0
 21
1.0
 31
0.0
  0
LINE
  5
C7
  8
MyLines
 10
2567.0
 20
61.5
 30
0.0
 11
2755.0
 21
61.5
 31
0.0
  0
LINE
  5
C8
  8
MyLines
 10
2567.0
 20
0.0
 30
0.0
 11
2755.0
 21
0.0
 31
0.0
  0
LINE
  5
C9
  8
MyLines
 10
2567.0
 20
0.0
 30
0.0
 11
2567.0
 21
61.5
 31
0.0
  0
LINE
  5
CA
  8
MyLines
 10
2755.0
 20
0.0
 30
0.0
 11
2755.0
 21
61.5
 31
0.0
  0
TEXT
  5
CB
  8
MyLines
 62
1
 10
2568.0
 20
1.0
 30
0.0
 40
1.0
  1
7511- 188 * 61.5
 11
2568.0
 21
1.0
 31
0.0
  0
LINE
  5
CC
  8
MyLines
 10
2757.0
 20
35.5
 30
0.0
 11
2953.0
 21
35.5
 31
0.0
  0
LINE
  5
CD
  8
MyLines
 10
2757.0
 20
0.0
 30
0.0
 11
2953.0
 21
0.0
 31
0.0
  0
LINE
  5
CE
  8
MyLines
 10
2757.0
 20
0.0
 30
0.0
 11
2757.0
 21
35.5
 31
0.0
  0
LINE
  5
CF
  8
MyLines
 10
2953.0
 20
0.0
 30
0.0
 11
2953.0
 21
35.5
 31
0.0
  0
TEXT
  5
D0
  8
MyLines
 62
1
 10
2758.0
 20
1.0
 30
0.0
 40
1.0
  1
7512- 196 * 35.5
 11
2758.0
 21
1.0
 31
0.0
  0
LINE
  5
D1
  8
MyLines
 10
2955.0
 20
53.5
 30
0.0
 11
3235.0
 21
53.5
 31
0.0
  0
LINE
  5
D2
  8
MyLines
 10
2955.0
 20
0.0
 30
0.0
 11
3235.0
 21
0.0
 31
0.0
  0
LINE
  5
D3
  8
MyLines
 10
2955.0
 20
0.0
 30
0.0
 11
2955.0
 21
53.5
 31
0.0
  0
LINE
  5
D4
  8
MyLines
 10
3235.0
 20
0.0
 30
0.0
 11
3235.0
 21
53.5
 31
0.0
  0
TEXT
  5
D5
  8
MyLines
 62
1
 10
2956.0
 20
1.0
 30
0.0
 40
1.0
  1
7513- 280 * 53.5
 11
2956.0
 21
1.0
 31
0.0
  0
LINE
  5
D6
  8
MyLines
 10
3237.0
 20
38.0
 30
0.0
 11
3490.0
 21
38.0
 31
0.0
  0
LINE
  5
D7
  8
MyLines
 10
3237.0
 20
0.0
 30
0.0
 11
3490.0
 21
0.0
 31
0.0
  0
LINE
  5
D8
  8
MyLines
 10
3237.0
 20
0.0
 30
0.0
 11
3237.0
 21
38.0
 31
0.0
  0
LINE
  5
D9
  8
MyLines
 10
3490.0
 20
0.0
 30
0.0
 11
3490.0
 21
38.0
 31
0.0
  0
TEXT
  5
DA
  8
MyLines
 62
1
 10
3238.0
 20
1.0
 30
0.0
 40
1.0
  1
7514- 253 * 38.0
 11
3238.0
 21
1.0
 31
0.0
  0
LINE
  5
DB
  8
MyLines
 10
3492.0
 20
39.5
 30
0.0
 11
3733.0
 21
39.5
 31
0.0
  0
LINE
  5
DC
  8
MyLines
 10
3492.0
 20
0.0
 30
0.0
 11
3733.0
 21
0.0
 31
0.0
  0
LINE
  5
DD
  8
MyLines
 10
3492.0
 20
0.0
 30
0.0
 11
3492.0
 21
39.5
 31
0.0
  0
LINE
  5
DE
  8
MyLines
 10
3733.0
 20
0.0
 30
0.0
 11
3733.0
 21
39.5
 31
0.0
  0
TEXT
  5
DF
  8
MyLines
 62
1
 10
3493.0
 20
1.0
 30
0.0
 40
1.0
  1
7515- 241 * 39.5
 11
3493.0
 21
1.0
 31
0.0
  0
LINE
  5
E0
  8
MyLines
 10
3735.0
 20
73.0
 30
0.0
 11
4010.0
 21
73.0
 31
0.0
  0
LINE
  5
E1
  8
MyLines
 10
3735.0
 20
0.0
 30
0.0
 11
4010.0
 21
0.0
 31
0.0
  0
LINE
  5
E2
  8
MyLines
 10
3735.0
 20
0.0
 30
0.0
 11
3735.0
 21
73.0
 31
0.0
  0
LINE
  5
E3
  8
MyLines
 10
4010.0
 20
0.0
 30
0.0
 11
4010.0
 21
73.0
 31
0.0
  0
TEXT
  5
E4
  8
MyLines
 62
1
 10
3736.0
 20
1.0
 30
0.0
 40
1.0
  1
7516- 275 * 73.0
 11
3736.0
 21
1.0
 31
0.0
  0
LINE
  5
E5
  8
MyLines
 10
4012.0
 20
46.0
 30
0.0
 11
4311.0
 21
46.0
 31
0.0
  0
LINE
  5
E6
  8
MyLines
 10
4012.0
 20
0.0
 30
0.0
 11
4311.0
 21
0.0
 31
0.0
  0
LINE
  5
E7
  8
MyLines
 10
4012.0
 20
0.0
 30
0.0
 11
4012.0
 21
46.0
 31
0.0
  0
LINE
  5
E8
  8
MyLines
 10
4311.0
 20
0.0
 30
0.0
 11
4311.0
 21
46.0
 31
0.0
  0
TEXT
  5
E9
  8
MyLines
 62
1
 10
4013.0
 20
1.0
 30
0.0
 40
1.0
  1
7517- 299 * 46.0
 11
4013.0
 21
1.0
 31
0.0
  0
LINE
  5
EA
  8
MyLines
 10
4313.0
 20
58.5
 30
0.0
 11
4548.0
 21
58.5
 31
0.0
  0
LINE
  5
EB
  8
MyLines
 10
4313.0
 20
0.0
 30
0.0
 11
4548.0
 21
0.0
 31
0.0
  0
LINE
  5
EC
  8
MyLines
 10
4313.0
 20
0.0
 30
0.0
 11
4313.0
 21
58.5
 31
0.0
  0
LINE
  5
ED
  8
MyLines
 10
4548.0
 20
0.0
 30
0.0
 11
4548.0
 21
58.5
 31
0.0
  0
TEXT
  5
EE
  8
MyLines
 62
1
 10
4314.0
 20
1.0
 30
0.0
 40
1.0
  1
7518- 235 * 58.5
 11
4314.0
 21
1.0
 31
0.0
  0
LINE
  5
EF
  8
MyLines
 10
4550.0
 20
81.0
 30
0.0
 11
4755.0
 21
81.0
 31
0.0
  0
LINE
  5
F0
  8
MyLines
 10
4550.0
 20
0.0
 30
0.0
 11
4755.0
 21
0.0
 31
0.0
  0
LINE
  5
F1
  8
MyLines
 10
4550.0
 20
0.0
 30
0.0
 11
4550.0
 21
81.0
 31
0.0
  0
LINE
  5
F2
  8
MyLines
 10
4755.0
 20
0.0
 30
0.0
 11
4755.0
 21
81.0
 31
0.0
  0
TEXT
  5
F3
  8
MyLines
 62
1
 10
4551.0
 20
1.0
 30
0.0
 40
1.0
  1
7519- 205 * 81.0
 11
4551.0
 21
1.0
 31
0.0
  0
LINE
  5
F4
  8
MyLines
 10
4757.0
 20
59.0
 30
0.0
 11
5047.0
 21
59.0
 31
0.0
  0
LINE
  5
F5
  8
MyLines
 10
4757.0
 20
0.0
 30
0.0
 11
5047.0
 21
0.0
 31
0.0
  0
LINE
  5
F6
  8
MyLines
 10
4757.0
 20
0.0
 30
0.0
 11
4757.0
 21
59.0
 31
0.0
  0
LINE
  5
F7
  8
MyLines
 10
5047.0
 20
0.0
 30
0.0
 11
5047.0
 21
59.0
 31
0.0
  0
TEXT
  5
F8
  8
MyLines
 62
1
 10
4758.0
 20
1.0
 30
0.0
 40
1.0
  1
7520- 290 * 59.0
 11
4758.0
 21
1.0
 31
0.0
  0
LINE
  5
F9
  8
MyLines
 10
5049.0
 20
69.0
 30
0.0
 11
5262.0
 21
69.0
 31
0.0
  0
LINE
  5
FA
  8
MyLines
 10
5049.0
 20
0.0
 30
0.0
 11
5262.0
 21
0.0
 31
0.0
  0
LINE
  5
FB
  8
MyLines
 10
5049.0
 20
0.0
 30
0.0
 11
5049.0
 21
69.0
 31
0.0
  0
LINE
  5
FC
  8
MyLines
 10
5262.0
 20
0.0
 30
0.0
 11
5262.0
 21
69.0
 31
0.0
  0
TEXT
  5
FD
  8
MyLines
 62
1
 10
5050.0
 20
1.0
 30
0.0
 40
1.0
  1
7521- 213 * 69.0
 11
5050.0
 21
1.0
 31
0.0
  0
LINE
  5
FE
  8
MyLines
 10
5264.0
 20
69.5
 30
0.0
 11
5464.0
 21
69.5
 31
0.0
  0
LINE
  5
FF
  8
MyLines
 10
5264.0
 20
0.0
 30
0.0
 11
5464.0
 21
0.0
 31
0.0
  0
LINE
  5
100
  8
MyLines
 10
5264.0
 20
0.0
 30
0.0
 11
5264.0
 21
69.5
 31
0.0
  0
LINE
  5
101
  8
MyLines
 10
5464.0
 20
0.0
 30
0.0
 11
5464.0
 21
69.5
 31
0.0
  0
TEXT
  5
102
  8
MyLines
 62
1
 10
5265.0
 20
1.0
 30
0.0
 40
1.0
  1
7522- 200 * 69.5
 11
5265.0
 21
1.0
 31
0.0
  0
LINE
  5
103
  8
MyLines
 10
5466.0
 20
54.5
 30
0.0
 11
5671.0
 21
54.5
 31
0.0
  0
LINE
  5
104
  8
MyLines
 10
5466.0
 20
0.0
 30
0.0
 11
5671.0
 21
0.0
 31
0.0
  0
LINE
  5
105
  8
MyLines
 10
5466.0
 20
0.0
 30
0.0
 11
5466.0
 21
54.5
 31
0.0
  0
LINE
  5
106
  8
MyLines
 10
5671.0
 20
0.0
 30
0.0
 11
5671.0
 21
54.5
 31
0.0
  0
TEXT
  5
107
  8
MyLines
 62
1
 10
5467.0
 20
1.0
 30
0.0
 40
1.0
  1
7523- 205 * 54.5
 11
5467.0
 21
1.0
 31
0.0
  0
LINE
  5
108
  8
MyLines
 10
5673.0
 20
65.0
 30
0.0
 11
5874.0
 21
65.0
 31
0.0
  0
LINE
  5
109
  8
MyLines
 10
5673.0
 20
0.0
 30
0.0
 11
5874.0
 21
0.0
 31
0.0
  0
LINE
  5
10A
  8
MyLines
 10
5673.0
 20
0.0
 30
0.0
 11
5673.0
 21
65.0
 31
0.0
  0
LINE
  5
10B
  8
MyLines
 10
5874.0
 20
0.0
 30
0.0
 11
5874.0
 21
65.0
 31
0.0
  0
TEXT
  5
10C
  8
MyLines
 62
1
 10
5674.0
 20
1.0
 30
0.0
 40
1.0
  1
7524- 201 * 65.0
 11
5674.0
 21
1.0
 31
0.0
  0
LINE
  5
10D
  8
MyLines
 10
5876.0
 20
81.0
 30
0.0
 11
6141.0
 21
81.0
 31
0.0
  0
LINE
  5
10E
  8
MyLines
 10
5876.0
 20
0.0
 30
0.0
 11
6141.0
 21
0.0
 31
0.0
  0
LINE
  5
10F
  8
MyLines
 10
5876.0
 20
0.0
 30
0.0
 11
5876.0
 21
81.0
 31
0.0
  0
LINE
  5
110
  8
MyLines
 10
6141.0
 20
0.0
 30
0.0
 11
6141.0
 21
81.0
 31
0.0
  0
TEXT
  5
111
  8
MyLines
 62
1
 10
5877.0
 20
1.0
 30
0.0
 40
1.0
  1
7525- 265 * 81.0
 11
5877.0
 21
1.0
 31
0.0
  0
LINE
  5
112
  8
MyLines
 10
6143.0
 20
56.5
 30
0.0
 11
6430.0
 21
56.5
 31
0.0
  0
LINE
  5
113
  8
MyLines
 10
6143.0
 20
0.0
 30
0.0
 11
6430.0
 21
0.0
 31
0.0
  0
LINE
  5
114
  8
MyLines
 10
6143.0
 20
0.0
 30
0.0
 11
6143.0
 21
56.5
 31
0.0
  0
LINE
  5
115
  8
MyLines
 10
6430.0
 20
0.0
 30
0.0
 11
6430.0
 21
56.5
 31
0.0
  0
TEXT
  5
116
  8
MyLines
 62
1
 10
6144.0
 20
1.0
 30
0.0
 40
1.0
  1
7526- 287 * 56.5
 11
6144.0
 21
1.0
 31
0.0
  0
LINE
  5
117
  8
MyLines
 10
6432.0
 20
88.0
 30
0.0
 11
6633.0
 21
88.0
 31
0.0
  0
LINE
  5
118
  8
MyLines
 10
6432.0
 20
0.0
 30
0.0
 11
6633.0
 21
0.0
 31
0.0
  0
LINE
  5
119
  8
MyLines
 10
6432.0
 20
0.0
 30
0.0
 11
6432.0
 21
88.0
 31
0.0
  0
LINE
  5
11A
  8
MyLines
 10
6633.0
 20
0.0
 30
0.0
 11
6633.0
 21
88.0
 31
0.0
  0
TEXT
  5
11B
  8
MyLines
 62
1
 10
6433.0
 20
1.0
 30
0.0
 40
1.0
  1
7527- 201 * 88.0
 11
6433.0
 21
1.0
 31
0.0
  0
LINE
  5
11C
  8
MyLines
 10
6635.0
 20
51.5
 30
0.0
 11
6821.0
 21
51.5
 31
0.0
  0
LINE
  5
11D
  8
MyLines
 10
6635.0
 20
0.0
 30
0.0
 11
6821.0
 21
0.0
 31
0.0
  0
LINE
  5
11E
  8
MyLines
 10
6635.0
 20
0.0
 30
0.0
 11
6635.0
 21
51.5
 31
0.0
  0
LINE
  5
11F
  8
MyLines
 10
6821.0
 20
0.0
 30
0.0
 11
6821.0
 21
51.5
 31
0.0
  0
TEXT
  5
120
  8
MyLines
 62
1
 10
6636.0
 20
1.0
 30
0.0
 40
1.0
  1
7528- 186 * 51.5
 11
6636.0
 21
1.0
 31
0.0
  0
LINE
  5
121
  8
MyLines
 10
6823.0
 20
83.5
 30
0.0
 11
7119.0
 21
83.5
 31
0.0
  0
LINE
  5
122
  8
MyLines
 10
6823.0
 20
0.0
 30
0.0
 11
7119.0
 21
0.0
 31
0.0
  0
LINE
  5
123
  8
MyLines
 10
6823.0
 20
0.0
 30
0.0
 11
6823.0
 21
83.5
 31
0.0
  0
LINE
  5
124
  8
MyLines
 10
7119.0
 20
0.0
 30
0.0
 11
7119.0
 21
83.5
 31
0.0
  0
TEXT
  5
125
  8
MyLines
 62
1
 10
6824.0
 20
1.0
 30
0.0
 40
1.0
  1
7529- 296 * 83.5
 11
6824.0
 21
1.0
 31
0.0
  0
LINE
  5
126
  8
MyLines
 10
7121.0
 20
77.5
 30
0.0
 11
7340.0
 21
77.5
 31
0.0
  0
LINE
  5
127
  8
MyLines
 10
7121.0
 20
0.0
 30
0.0
 11
7340.0
 21
0.0
 31
0.0
  0
LINE
  5
128
  8
MyLines
 10
7121.0
 20
0.0
 30
0.0
 11
7121.0
 21
77.5
 31
0.0
  0
LINE
  5
129
  8
MyLines
 10
7340.0
 20
0.0
 30
0.0
 11
7340.0
 21
77.5
 31
0.0
  0
TEXT
  5
12A
  8
MyLines
 62
1
 10
7122.0
 20
1.0
 30
0.0
 40
1.0
  1
7530- 219 * 77.5
 11
7122.0
 21
1.0
 31
0.0
  0
LINE
  5
12B
  8
MyLines
 10
7342.0
 20
54.0
 30
0.0
 11
7535.0
 21
54.0
 31
0.0
  0
LINE
  5
12C
  8
MyLines
 10
7342.0
 20
0.0
 30
0.0
 11
7535.0
 21
0.0
 31
0.0
  0
LINE
  5
12D
  8
MyLines
 10
7342.0
 20
0.0
 30
0.0
 11
7342.0
 21
54.0
 31
0.0
  0
LINE
  5
12E
  8
MyLines
 10
7535.0
 20
0.0
 30
0.0
 11
7535.0
 21
54.0
 31
0.0
  0
TEXT
  5
12F
  8
MyLines
 62
1
 10
7343.0
 20
1.0
 30
0.0
 40
1.0
  1
7531- 193 * 54.0
 11
7343.0
 21
1.0
 31
0.0
  0
LINE
  5
130
  8
MyLines
 10
7537.0
 20
77.5
 30
0.0
 11
7815.0
 21
77.5
 31
0.0
  0
LINE
  5
131
  8
MyLines
 10
7537.0
 20
0.0
 30
0.0
 11
7815.0
 21
0.0
 31
0.0
  0
LINE
  5
132
  8
MyLines
 10
7537.0
 20
0.0
 30
0.0
 11
7537.0
 21
77.5
 31
0.0
  0
LINE
  5
133
  8
MyLines
 10
7815.0
 20
0.0
 30
0.0
 11
7815.0
 21
77.5
 31
0.0
  0
TEXT
  5
134
  8
MyLines
 62
1
 10
7538.0
 20
1.0
 30
0.0
 40
1.0
  1
7532- 278 * 77.5
 11
7538.0
 21
1.0
 31
0.0
  0
LINE
  5
135
  8
MyLines
 10
7817.0
 20
83.5
 30
0.0
 11
8017.0
 21
83.5
 31
0.0
  0
LINE
  5
136
  8
MyLines
 10
7817.0
 20
0.0
 30
0.0
 11
8017.0
 21
0.0
 31
0.0
  0
LINE
  5
137
  8
MyLines
 10
7817.0
 20
0.0
 30
0.0
 11
7817.0
 21
83.5
 31
0.0
  0
LINE
  5
138
  8
MyLines
 10
8017.0
 20
0.0
 30
0.0
 11
8017.0
 21
83.5
 31
0.0
  0
TEXT
  5
139
  8
MyLines
 62
1
 10
7818.0
 20
1.0
 30
0.0
 40
1.0
  1
7533- 200 * 83.5
 11
7818.0
 21
1.0
 31
0.0
  0
LINE
  5
13A
  8
MyLines
 10
8019.0
 20
81.0
 30
0.0
 11
8296.0
 21
81.0
 31
0.0
  0
LINE
  5
13B
  8
MyLines
 10
8019.0
 20
0.0
 30
0.0
 11
8296.0
 21
0.0
 31
0.0
  0
LINE
  5
13C
  8
MyLines
 10
8019.0
 20
0.0
 30
0.0
 11
8019.0
 21
81.0
 31
0.0
  0
LINE
  5
13D
  8
MyLines
 10
8296.0
 20
0.0
 30
0.0
 11
8296.0
 21
81.0
 31
0.0
  0
TEXT
  5
13E
  8
MyLines
 62
1
 10
8020.0
 20
1.0
 30
0.0
 40
1.0
  1
7534- 277 * 81.0
 11
8020.0
 21
1.0
 31
0.0
  0
LINE
  5
13F
  8
MyLines
 10
8298.0
 20
81.5
 30
0.0
 11
8554.0
 21
81.5
 31
0.0
  0
LINE
  5
140
  8
MyLines
 10
8298.0
 20
0.0
 30
0.0
 11
8554.0
 21
0.0
 31
0.0
  0
LINE
  5
141
  8
MyLines
 10
8298.0
 20
0.0
 30
0.0
 11
8298.0
 21
81.5
 31
0.0
  0
LINE
  5
142
  8
MyLines
 10
8554.0
 20
0.0
 30
0.0
 11
8554.0
 21
81.5
 31
0.0
  0
TEXT
  5
143
  8
MyLines
 62
1
 10
8299.0
 20
1.0
 30
0.0
 40
1.0
  1
7535- 256 * 81.5
 11
8299.0
 21
1.0
 31
0.0
  0
LINE
  5
144
  8
MyLines
 10
8556.0
 20
75.5
 30
0.0
 11
8780.0
 21
75.5
 31
0.0
  0
LINE
  5
145
  8
MyLines
 10
8556.0
 20
0.0
 30
0.0
 11
8780.0
 21
0.0
 31
0.0
  0
LINE
  5
146
  8
MyLines
 10
8556.0
 20
0.0
 30
0.0
 11
8556.0
 21
75.5
 31
0.0
  0
LINE
  5
147
  8
MyLines
 10
8780.0
 20
0.0
 30
0.0
 11
8780.0
 21
75.5
 31
0.0
  0
TEXT
  5
148
  8
MyLines
 62
1
 10
8557.0
 20
1.0
 30
0.0
 40
1.0
  1
7536- 224 * 75.5
 11
8557.0
 21
1.0
 31
0.0
  0
LINE
  5
149
  8
MyLines
 10
8782.0
 20
49.0
 30
0.0
 11
8995.0
 21
49.0
 31
0.0
  0
LINE
  5
14A
  8
MyLines
 10
8782.0
 20
0.0
 30
0.0
 11
8995.0
 21
0.0
 31
0.0
  0
LINE
  5
14B
  8
MyLines
 10
8782.0
 20
0.0
 30
0.0
 11
8782.0
 21
49.0
 31
0.0
  0
LINE
  5
14C
  8
MyLines
 10
8995.0
 20
0.0
 30
0.0
 11
8995.0
 21
49.0
 31
0.0
  0
TEXT
  5
14D
  8
MyLines
 62
1
 10
8783.0
 20
1.0
 30
0.0
 40
1.0
  1
7537- 213 * 49.0
 11
8783.0
 21
1.0
 31
0.0
  0
LINE
  5
14E
  8
MyLines
 10
8997.0
 20
79.0
 30
0.0
 11
9240.0
 21
79.0
 31
0.0
  0
LINE
  5
14F
  8
MyLines
 10
8997.0
 20
0.0
 30
0.0
 11
9240.0
 21
0.0
 31
0.0
  0
LINE
  5
150
  8
MyLines
 10
8997.0
 20
0.0
 30
0.0
 11
8997.0
 21
79.0
 31
0.0
  0
LINE
  5
151
  8
MyLines
 10
9240.0
 20
0.0
 30
0.0
 11
9240.0
 21
79.0
 31
0.0
  0
TEXT
  5
152
  8
MyLines
 62
1
 10
8998.0
 20
1.0
 30
0.0
 40
1.0
  1
7538- 243 * 79.0
 11
8998.0
 21
1.0
 31
0.0
  0
LINE
  5
153
  8
MyLines
 10
9242.0
 20
61.0
 30
0.0
 11
9495.0
 21
61.0
 31
0.0
  0
LINE
  5
154
  8
MyLines
 10
9242.0
 20
0.0
 30
0.0
 11
9495.0
 21
0.0
 31
0.0
  0
LINE
  5
155
  8
MyLines
 10
9242.0
 20
0.0
 30
0.0
 11
9242.0
 21
61.0
 31
0.0
  0
LINE
  5
156
  8
MyLines
 10
9495.0
 20
0.0
 30
0.0
 11
9495.0
 21
61.0
 31
0.0
  0
TEXT
  5
157
  8
MyLines
 62
1
 10
9243.0
 20
1.0
 30
0.0
 40
1.0
  1
7539- 253 * 61.0
 11
9243.0
 21
1.0
 31
0.0
  0
LINE
  5
158
  8
MyLines
 10
9497.0
 20
66.0
 30
0.0
 11
9771.0
 21
66.0
 31
0.0
  0
LINE
  5
159
  8
MyLines
 10
9497.0
 20
0.0
 30
0.0
 11
9771.0
 21
0.0
 31
0.0
  0
LINE
  5
15A
  8
MyLines
 10
9497.0
 20
0.0
 30
0.0
 11
9497.0
 21
66.0
 31
0.0
  0
LINE
  5
15B
  8
MyLines
 10
9771.0
 20
0.0
 30
0.0
 11
9771.0
 21
66.0
 31
0.0
  0
TEXT
  5
15C
  8
MyLines
 62
1
 10
9498.0
 20
1.0
 30
0.0
 40
1.0
  1
7540- 274 * 66.0
 11
9498.0
 21
1.0
 31
0.0
  0
LINE
  5
15D
  8
MyLines
 10
9773.0
 20
77.0
 30
0.0
 11
9964.0
 21
77.0
 31
0.0
  0
LINE
  5
15E
  8
MyLines
 10
9773.0
 20
0.0
 30
0.0
 11
9964.0
 21
0.0
 31
0.0
  0
LINE
  5
15F
  8
MyLines
 10
9773.0
 20
0.0
 30
0.0
 11
9773.0
 21
77.0
 31
0.0
  0
LINE
  5
160
  8
MyLines
 10
9964.0
 20
0.0
 30
0.0
 11
9964.0
 21
77.0
 31
0.0
  0
TEXT
  5
161
  8
MyLines
 62
1
 10
9774.0
 20
1.0
 30
0.0
 40
1.0
  1
7541- 191 * 77.0
 11
9774.0
 21
1.0
 31
0.0
  0
LINE
  5
162
  8
MyLines
 10
9966.0
 20
45.0
 30
0.0
 11
10163.0
 21
45.0
 31
0.0
  0
LINE
  5
163
  8
MyLines
 10
9966.0
 20
0.0
 30
0.0
 11
10163.0
 21
0.0
 31
0.0
  0
LINE
  5
164
  8
MyLines
 10
9966.0
 20
0.0
 30
0.0
 11
9966.0
 21
45.0
 31
0.0
  0
LINE
  5
165
  8
MyLines
 10
10163.0
 20
0.0
 30
0.0
 11
10163.0
 21
45.0
 31
0.0
  0
TEXT
  5
166
  8
MyLines
 62
1
 10
9967.0
 20
1.0
 30
0.0
 40
1.0
  1
7542- 197 * 45.0
 11
9967.0
 21
1.0
 31
0.0
  0
LINE
  5
167
  8
MyLines
 10
10165.0
 20
78.5
 30
0.0
 11
10371.0
 21
78.5
 31
0.0
  0
LINE
  5
168
  8
MyLines
 10
10165.0
 20
0.0
 30
0.0
 11
10371.0
 21
0.0
 31
0.0
  0
LINE
  5
169
  8
MyLines
 10
10165.0
 20
0.0
 30
0.0
 11
10165.0
 21
78.5
 31
0.0
  0
LINE
  5
16A
  8
MyLines
 10
10371.0
 20
0.0
 30
0.0
 11
10371.0
 21
78.5
 31
0.0
  0
TEXT
  5
16B
  8
MyLines
 62
1
 10
10166.0
 20
1.0
 30
0.0
 40
1.0
  1
7543- 206 * 78.5
 11
10166.0
 21
1.0
 31
0.0
  0
LINE
  5
16C
  8
MyLines
 10
10373.0
 20
50.5
 30
0.0
 11
10572.0
 21
50.5
 31
0.0
  0
LINE
  5
16D
  8
MyLines
 10
10373.0
 20
0.0
 30
0.0
 11
10572.0
 21
0.0
 31
0.0
  0
LINE
  5
16E
  8
MyLines
 10
10373.0
 20
0.0
 30
0.0
 11
10373.0
 21
50.5
 31
0.0
  0
LINE
  5
16F
  8
MyLines
 10
10572.0
 20
0.0
 30
0.0
 11
10572.0
 21
50.5
 31
0.0
  0
TEXT
  5
170
  8
MyLines
 62
1
 10
10374.0
 20
1.0
 30
0.0
 40
1.0
  1
7544- 199 * 50.5
 11
10374.0
 21
1.0
 31
0.0
  0
LINE
  5
171
  8
MyLines
 10
10574.0
 20
88.5
 30
0.0
 11
10811.0
 21
88.5
 31
0.0
  0
LINE
  5
172
  8
MyLines
 10
10574.0
 20
0.0
 30
0.0
 11
10811.0
 21
0.0
 31
0.0
  0
LINE
  5
173
  8
MyLines
 10
10574.0
 20
0.0
 30
0.0
 11
10574.0
 21
88.5
 31
0.0
  0
LINE
  5
174
  8
MyLines
 10
10811.0
 20
0.0
 30
0.0
 11
10811.0
 21
88.5
 31
0.0
  0
TEXT
  5
175
  8
MyLines
 62
1
 10
10575.0
 20
1.0
 30
0.0
 40
1.0
  1
7545- 237 * 88.5
 11
10575.0
 21
1.0
 31
0.0
  0
LINE
  5
176
  8
MyLines
 10
10813.0
 20
49.0
 30
0.0
 11
11007.0
 21
49.0
 31
0.0
  0
LINE
  5
177
  8
MyLines
 10
10813.0
 20
0.0
 30
0.0
 11
11007.0
 21
0.0
 31
0.0
  0
LINE
  5
178
  8
MyLines
 10
10813.0
 20
0.0
 30
0.0
 11
10813.0
 21
49.0
 31
0.0
  0
LINE
  5
179
  8
MyLines
 10
11007.0
 20
0.0
 30
0.0
 11
11007.0
 21
49.0
 31
0.0
  0
TEXT
  5
17A
  8
MyLines
 62
1
 10
10814.0
 20
1.0
 30
0.0
 40
1.0
  1
7546- 194 * 49.0
 11
10814.0
 21
1.0
 31
0.0
  0
LINE
  5
17B
  8
MyLines
 10
11009.0
 20
59.0
 30
0.0
 11
11271.0
 21
59.0
 31
0.0
  0
LINE
  5
17C
  8
MyLines
 10
11009.0
 20
0.0
 30
0.0
 11
11271.0
 21
0.0
 31
0.0
  0
LINE
  5
17D
  8
MyLines
 10
11009.0
 20
0.0
 30
0.0
 11
11009.0
 21
59.0
 31
0.0
  0
LINE
  5
17E
  8
MyLines
 10
11271.0
 20
0.0
 30
0.0
 11
11271.0
 21
59.0
 31
0.0
  0
TEXT
  5
17F
  8
MyLines
 62
1
 10
11010.0
 20
1.0
 30
0.0
 40
1.0
  1
7547- 262 * 59.0
 11
11010.0
 21
1.0
 31
0.0
  0
LINE
  5
180
  8
MyLines
 10
11273.0
 20
57.0
 30
0.0
 11
11528.0
 21
57.0
 31
0.0
  0
LINE
  5
181
  8
MyLines
 10
11273.0
 20
0.0
 30
0.0
 11
11528.0
 21
0.0
 31
0.0
  0
LINE
  5
182
  8
MyLines
 10
11273.0
 20
0.0
 30
0.0
 11
11273.0
 21
57.0
 31
0.0
  0
LINE
  5
183
  8
MyLines
 10
11528.0
 20
0.0
 30
0.0
 11
11528.0
 21
57.0
 31
0.0
  0
TEXT
  5
184
  8
MyLines
 62
1
 10
11274.0
 20
1.0
 30
0.0
 40
1.0
  1
7548- 255 * 57.0
 11
11274.0
 21
1.0
 31
0.0
  0
LINE
  5
185
  8
MyLines
 10
11530.0
 20
53.5
 30
0.0
 11
11793.0
 21
53.5
 31
0.0
  0
LINE
  5
186
  8
MyLines
 10
11530.0
 20
0.0
 30
0.0
 11
11793.0
 21
0.0
 31
0.0
  0
LINE
  5
187
  8
MyLines
 10
11530.0
 20
0.0
 30
0.0
 11
11530.0
 21
53.5
 31
0.0
  0
LINE
  5
188
  8
MyLines
 10
11793.0
 20
0.0
 30
0.0
 11
11793.0
 21
53.5
 31
0.0
  0
TEXT
  5
189
  8
MyLines
 62
1
 10
11531.0
 20
1.0
 30
0.0
 40
1.0
  1
7549- 263 * 53.5
 11
11531.0
 21
1.0
 31
0.0
  0
LINE
  5
18A
  8
MyLines
 10
11795.0
 20
53.0
 30
0.0
 11
12092.0
 21
53.0
 31
0.0
  0
LINE
  5
18B
  8
MyLines
 10
11795.0
 20
0.0
 30
0.0
 11
12092.0
 21
0.0
 31
0.0
  0
LINE
  5
18C
  8
MyLines
 10
11795.0
 20
0.0
 30
0.0
 11
11795.0
 21
53.0
 31
0.0
  0
LINE
  5
18D
  8
MyLines
 10
12092.0
 20
0.0
 30
0.0
 11
12092.0
 21
53.0
 31
0.0
  0
TEXT
  5
18E
  8
MyLines
 62
1
 10
11796.0
 20
1.0
 30
0.0
 40
1.0
  1
7550- 297 * 53.0
 11
11796.0
 21
1.0
 31
0.0
  0
LINE
  5
18F
  8
MyLines
 10
12094.0
 20
53.5
 30
0.0
 11
12289.0
 21
53.5
 31
0.0
  0
LINE
  5
190
  8
MyLines
 10
12094.0
 20
0.0
 30
0.0
 11
12289.0
 21
0.0
 31
0.0
  0
LINE
  5
191
  8
MyLines
 10
12094.0
 20
0.0
 30
0.0
 11
12094.0
 21
53.5
 31
0.0
  0
LINE
  5
192
  8
MyLines
 10
12289.0
 20
0.0
 30
0.0
 11
12289.0
 21
53.5
 31
0.0
  0
TEXT
  5
193
  8
MyLines
 62
1
 10
12095.0
 20
1.0
 30
0.0
 40
1.0
  1
7551- 195 * 53.5
 11
12095.0
 21
1.0
 31
0.0
  0
LINE
  5
194
  8
MyLines
 10
12291.0
 20
77.5
 30
0.0
 11
12467.0
 21
77.5
 31
0.0
  0
LINE
  5
195
  8
MyLines
 10
12291.0
 20
0.0
 30
0.0
 11
12467.0
 21
0.0
 31
0.0
  0
LINE
  5
196
  8
MyLines
 10
12291.0
 20
0.0
 30
0.0
 11
12291.0
 21
77.5
 31
0.0
  0
LINE
  5
197
  8
MyLines
 10
12467.0
 20
0.0
 30
0.0
 11
12467.0
 21
77.5
 31
0.0
  0
TEXT
  5
198
  8
MyLines
 62
1
 10
12292.0
 20
1.0
 30
0.0
 40
1.0
  1
7552- 176 * 77.5
 11
12292.0
 21
1.0
 31
0.0
  0
LINE
  5
199
  8
MyLines
 10
12469.0
 20
64.0
 30
0.0
 11
12676.0
 21
64.0
 31
0.0
  0
LINE
  5
19A
  8
MyLines
 10
12469.0
 20
0.0
 30
0.0
 11
12676.0
 21
0.0
 31
0.0
  0
LINE
  5
19B
  8
MyLines
 10
12469.0
 20
0.0
 30
0.0
 11
12469.0
 21
64.0
 31
0.0
  0
LINE
  5
19C
  8
MyLines
 10
12676.0
 20
0.0
 30
0.0
 11
12676.0
 21
64.0
 31
0.0
  0
TEXT
  5
19D
  8
MyLines
 62
1
 10
12470.0
 20
1.0
 30
0.0
 40
1.0
  1
7553- 207 * 64.0
 11
12470.0
 21
1.0
 31
0.0
  0
LINE
  5
19E
  8
MyLines
 10
12678.0
 20
66.0
 30
0.0
 11
12914.0
 21
66.0
 31
0.0
  0
LINE
  5
19F
  8
MyLines
 10
12678.0
 20
0.0
 30
0.0
 11
12914.0
 21
0.0
 31
0.0
  0
LINE
  5
1A0
  8
MyLines
 10
12678.0
 20
0.0
 30
0.0
 11
12678.0
 21
66.0
 31
0.0
  0
LINE
  5
1A1
  8
MyLines
 10
12914.0
 20
0.0
 30
0.0
 11
12914.0
 21
66.0
 31
0.0
  0
TEXT
  5
1A2
  8
MyLines
 62
1
 10
12679.0
 20
1.0
 30
0.0
 40
1.0
  1
7554- 236 * 66.0
 11
12679.0
 21
1.0
 31
0.0
  0
LINE
  5
1A3
  8
MyLines
 10
12916.0
 20
56.5
 30
0.0
 11
13130.0
 21
56.5
 31
0.0
  0
LINE
  5
1A4
  8
MyLines
 10
12916.0
 20
0.0
 30
0.0
 11
13130.0
 21
0.0
 31
0.0
  0
LINE
  5
1A5
  8
MyLines
 10
12916.0
 20
0.0
 30
0.0
 11
12916.0
 21
56.5
 31
0.0
  0
LINE
  5
1A6
  8
MyLines
 10
13130.0
 20
0.0
 30
0.0
 11
13130.0
 21
56.5
 31
0.0
  0
TEXT
  5
1A7
  8
MyLines
 62
1
 10
12917.0
 20
1.0
 30
0.0
 40
1.0
  1
7555- 214 * 56.5
 11
12917.0
 21
1.0
 31
0.0
  0
LINE
  5
1A8
  8
MyLines
 10
13132.0
 20
44.0
 30
0.0
 11
13401.0
 21
44.0
 31
0.0
  0
LINE
  5
1A9
  8
MyLines
 10
13132.0
 20
0.0
 30
0.0
 11
13401.0
 21
0.0
 31
0.0
  0
LINE
  5
1AA
  8
MyLines
 10
13132.0
 20
0.0
 30
0.0
 11
13132.0
 21
44.0
 31
0.0
  0
LINE
  5
1AB
  8
MyLines
 10
13401.0
 20
0.0
 30
0.0
 11
13401.0
 21
44.0
 31
0.0
  0
TEXT
  5
1AC
  8
MyLines
 62
1
 10
13133.0
 20
1.0
 30
0.0
 40
1.0
  1
7556- 269 * 44.0
 11
13133.0
 21
1.0
 31
0.0
  0
LINE
  5
1AD
  8
MyLines
 10
13403.0
 20
60.0
 30
0.0
 11
13666.0
 21
60.0
 31
0.0
  0
LINE
  5
1AE
  8
MyLines
 10
13403.0
 20
0.0
 30
0.0
 11
13666.0
 21
0.0
 31
0.0
  0
LINE
  5
1AF
  8
MyLines
 10
13403.0
 20
0.0
 30
0.0
 11
13403.0
 21
60.0
 31
0.0
  0
LINE
  5
1B0
  8
MyLines
 10
13666.0
 20
0.0
 30
0.0
 11
13666.0
 21
60.0
 31
0.0
  0
TEXT
  5
1B1
  8
MyLines
 62
1
 10
13404.0
 20
1.0
 30
0.0
 40
1.0
  1
7557- 263 * 60.0
 11
13404.0
 21
1.0
 31
0.0
  0
LINE
  5
1B2
  8
MyLines
 10
13668.0
 20
86.0
 30
0.0
 11
13887.0
 21
86.0
 31
0.0
  0
LINE
  5
1B3
  8
MyLines
 10
13668.0
 20
0.0
 30
0.0
 11
13887.0
 21
0.0
 31
0.0
  0
LINE
  5
1B4
  8
MyLines
 10
13668.0
 20
0.0
 30
0.0
 11
13668.0
 21
86.0
 31
0.0
  0
LINE
  5
1B5
  8
MyLines
 10
13887.0
 20
0.0
 30
0.0
 11
13887.0
 21
86.0
 31
0.0
  0
TEXT
  5
1B6
  8
MyLines
 62
1
 10
13669.0
 20
1.0
 30
0.0
 40
1.0
  1
7558- 219 * 86.0
 11
13669.0
 21
1.0
 31
0.0
  0
LINE
  5
1B7
  8
MyLines
 10
13889.0
 20
67.5
 30
0.0
 11
14167.0
 21
67.5
 31
0.0
  0
LINE
  5
1B8
  8
MyLines
 10
13889.0
 20
0.0
 30
0.0
 11
14167.0
 21
0.0
 31
0.0
  0
LINE
  5
1B9
  8
MyLines
 10
13889.0
 20
0.0
 30
0.0
 11
13889.0
 21
67.5
 31
0.0
  0
LINE
  5
1BA
  8
MyLines
 10
14167.0
 20
0.0
 30
0.0
 11
14167.0
 21
67.5
 31
0.0
  0
TEXT
  5
1BB
  8
MyLines
 62
1
 10
13890.0
 20
1.0
 30
0.0
 40
1.0
  1
7559- 278 * 67.5
 11
13890.0
 21
1.0
 31
0.0
  0
LINE
  5
1BC
  8
MyLines
 10
14169.0
 20
35.5
 30
0.0
 11
14401.0
 21
35.5
 31
0.0
  0
LINE
  5
1BD
  8
MyLines
 10
14169.0
 20
0.0
 30
0.0
 11
14401.0
 21
0.0
 31
0.0
  0
LINE
  5
1BE
  8
MyLines
 10
14169.0
 20
0.0
 30
0.0
 11
14169.0
 21
35.5
 31
0.0
  0
LINE
  5
1BF
  8
MyLines
 10
14401.0
 20
0.0
 30
0.0
 11
14401.0
 21
35.5
 31
0.0
  0
TEXT
  5
1C0
  8
MyLines
 62
1
 10
14170.0
 20
1.0
 30
0.0
 40
1.0
  1
7560- 232 * 35.5
 11
14170.0
 21
1.0
 31
0.0
  0
LINE
  5
1C1
  8
MyLines
 10
14403.0
 20
43.5
 30
0.0
 11
14669.0
 21
43.5
 31
0.0
  0
LINE
  5
1C2
  8
MyLines
 10
14403.0
 20
0.0
 30
0.0
 11
14669.0
 21
0.0
 31
0.0
  0
LINE
  5
1C3
  8
MyLines
 10
14403.0
 20
0.0
 30
0.0
 11
14403.0
 21
43.5
 31
0.0
  0
LINE
  5
1C4
  8
MyLines
 10
14669.0
 20
0.0
 30
0.0
 11
14669.0
 21
43.5
 31
0.0
  0
TEXT
  5
1C5
  8
MyLines
 62
1
 10
14404.0
 20
1.0
 30
0.0
 40
1.0
  1
7561- 266 * 43.5
 11
14404.0
 21
1.0
 31
0.0
  0
LINE
  5
1C6
  8
MyLines
 10
14671.0
 20
64.5
 30
0.0
 11
14895.0
 21
64.5
 31
0.0
  0
LINE
  5
1C7
  8
MyLines
 10
14671.0
 20
0.0
 30
0.0
 11
14895.0
 21
0.0
 31
0.0
  0
LINE
  5
1C8
  8
MyLines
 10
14671.0
 20
0.0
 30
0.0
 11
14671.0
 21
64.5
 31
0.0
  0
LINE
  5
1C9
  8
MyLines
 10
14895.0
 20
0.0
 30
0.0
 11
14895.0
 21
64.5
 31
0.0
  0
TEXT
  5
1CA
  8
MyLines
 62
1
 10
14672.0
 20
1.0
 30
0.0
 40
1.0
  1
7562- 224 * 64.5
 11
14672.0
 21
1.0
 31
0.0
  0
LINE
  5
1CB
  8
MyLines
 10
14897.0
 20
54.0
 30
0.0
 11
15082.0
 21
54.0
 31
0.0
  0
LINE
  5
1CC
  8
MyLines
 10
14897.0
 20
0.0
 30
0.0
 11
15082.0
 21
0.0
 31
0.0
  0
LINE
  5
1CD
  8
MyLines
 10
14897.0
 20
0.0
 30
0.0
 11
14897.0
 21
54.0
 31
0.0
  0
LINE
  5
1CE
  8
MyLines
 10
15082.0
 20
0.0
 30
0.0
 11
15082.0
 21
54.0
 31
0.0
  0
TEXT
  5
1CF
  8
MyLines
 62
1
 10
14898.0
 20
1.0
 30
0.0
 40
1.0
  1
7563- 185 * 54.0
 11
14898.0
 21
1.0
 31
0.0
  0
LINE
  5
1D0
  8
MyLines
 10
15084.0
 20
80.5
 30
0.0
 11
15341.0
 21
80.5
 31
0.0
  0
LINE
  5
1D1
  8
MyLines
 10
15084.0
 20
0.0
 30
0.0
 11
15341.0
 21
0.0
 31
0.0
  0
LINE
  5
1D2
  8
MyLines
 10
15084.0
 20
0.0
 30
0.0
 11
15084.0
 21
80.5
 31
0.0
  0
LINE
  5
1D3
  8
MyLines
 10
15341.0
 20
0.0
 30
0.0
 11
15341.0
 21
80.5
 31
0.0
  0
TEXT
  5
1D4
  8
MyLines
 62
1
 10
15085.0
 20
1.0
 30
0.0
 40
1.0
  1
7564- 257 * 80.5
 11
15085.0
 21
1.0
 31
0.0
  0
LINE
  5
1D5
  8
MyLines
 10
15343.0
 20
79.0
 30
0.0
 11
15537.0
 21
79.0
 31
0.0
  0
LINE
  5
1D6
  8
MyLines
 10
15343.0
 20
0.0
 30
0.0
 11
15537.0
 21
0.0
 31
0.0
  0
LINE
  5
1D7
  8
MyLines
 10
15343.0
 20
0.0
 30
0.0
 11
15343.0
 21
79.0
 31
0.0
  0
LINE
  5
1D8
  8
MyLines
 10
15537.0
 20
0.0
 30
0.0
 11
15537.0
 21
79.0
 31
0.0
  0
TEXT
  5
1D9
  8
MyLines
 62
1
 10
15344.0
 20
1.0
 30
0.0
 40
1.0
  1
7565- 194 * 79.0
 11
15344.0
 21
1.0
 31
0.0
  0
LINE
  5
1DA
  8
MyLines
 10
15539.0
 20
62.0
 30
0.0
 11
15725.0
 21
62.0
 31
0.0
  0
LINE
  5
1DB
  8
MyLines
 10
15539.0
 20
0.0
 30
0.0
 11
15725.0
 21
0.0
 31
0.0
  0
LINE
  5
1DC
  8
MyLines
 10
15539.0
 20
0.0
 30
0.0
 11
15539.0
 21
62.0
 31
0.0
  0
LINE
  5
1DD
  8
MyLines
 10
15725.0
 20
0.0
 30
0.0
 11
15725.0
 21
62.0
 31
0.0
  0
TEXT
  5
1DE
  8
MyLines
 62
1
 10
15540.0
 20
1.0
 30
0.0
 40
1.0
  1
7566- 186 * 62.0
 11
15540.0
 21
1.0
 31
0.0
  0
LINE
  5
1DF
  8
MyLines
 10
15727.0
 20
50.5
 30
0.0
 11
16003.0
 21
50.5
 31
0.0
  0
LINE
  5
1E0
  8
MyLines
 10
15727.0
 20
0.0
 30
0.0
 11
16003.0
 21
0.0
 31
0.0
  0
LINE
  5
1E1
  8
MyLines
 10
15727.0
 20
0.0
 30
0.0
 11
15727.0
 21
50.5
 31
0.0
  0
LINE
  5
1E2
  8
MyLines
 10
16003.0
 20
0.0
 30
0.0
 11
16003.0
 21
50.5
 31
0.0
  0
TEXT
  5
1E3
  8
MyLines
 62
1
 10
15728.0
 20
1.0
 30
0.0
 40
1.0
  1
7567- 276 * 50.5
 11
15728.0
 21
1.0
 31
0.0
  0
LINE
  5
1E4
  8
MyLines
 10
16005.0
 20
84.0
 30
0.0
 11
16221.0
 21
84.0
 31
0.0
  0
LINE
  5
1E5
  8
MyLines
 10
16005.0
 20
0.0
 30
0.0
 11
16221.0
 21
0.0
 31
0.0
  0
LINE
  5
1E6
  8
MyLines
 10
16005.0
 20
0.0
 30
0.0
 11
16005.0
 21
84.0
 31
0.0
  0
LINE
  5
1E7
  8
MyLines
 10
16221.0
 20
0.0
 30
0.0
 11
16221.0
 21
84.0
 31
0.0
  0
TEXT
  5
1E8
  8
MyLines
 62
1
 10
16006.0
 20
1.0
 30
0.0
 40
1.0
  1
7568- 216 * 84.0
 11
16006.0
 21
1.0
 31
0.0
  0
LINE
  5
1E9
  8
MyLines
 10
16223.0
 20
44.0
 30
0.0
 11
16504.0
 21
44.0
 31
0.0
  0
LINE
  5
1EA
  8
MyLines
 10
16223.0
 20
0.0
 30
0.0
 11
16504.0
 21
0.0
 31
0.0
  0
LINE
  5
1EB
  8
MyLines
 10
16223.0
 20
0.0
 30
0.0
 11
16223.0
 21
44.0
 31
0.0
  0
LINE
  5
1EC
  8
MyLines
 10
16504.0
 20
0.0
 30
0.0
 11
16504.0
 21
44.0
 31
0.0
  0
TEXT
  5
1ED
  8
MyLines
 62
1
 10
16224.0
 20
1.0
 30
0.0
 40
1.0
  1
7569- 281 * 44.0
 11
16224.0
 21
1.0
 31
0.0
  0
LINE
  5
1EE
  8
MyLines
 10
16506.0
 20
82.0
 30
0.0
 11
16764.0
 21
82.0
 31
0.0
  0
LINE
  5
1EF
  8
MyLines
 10
16506.0
 20
0.0
 30
0.0
 11
16764.0
 21
0.0
 31
0.0
  0
LINE
  5
1F0
  8
MyLines
 10
16506.0
 20
0.0
 30
0.0
 11
16506.0
 21
82.0
 31
0.0
  0
LINE
  5
1F1
  8
MyLines
 10
16764.0
 20
0.0
 30
0.0
 11
16764.0
 21
82.0
 31
0.0
  0
TEXT
  5
1F2
  8
MyLines
 62
1
 10
16507.0
 20
1.0
 30
0.0
 40
1.0
  1
7570- 258 * 82.0
 11
16507.0
 21
1.0
 31
0.0
  0
LINE
  5
1F3
  8
MyLines
 10
16766.0
 20
51.5
 30
0.0
 11
17000.0
 21
51.5
 31
0.0
  0
LINE
  5
1F4
  8
MyLines
 10
16766.0
 20
0.0
 30
0.0
 11
17000.0
 21
0.0
 31
0.0
  0
LINE
  5
1F5
  8
MyLines
 10
16766.0
 20
0.0
 30
0.0
 11
16766.0
 21
51.5
 31
0.0
  0
LINE
  5
1F6
  8
MyLines
 10
17000.0
 20
0.0
 30
0.0
 11
17000.0
 21
51.5
 31
0.0
  0
TEXT
  5
1F7
  8
MyLines
 62
1
 10
16767.0
 20
1.0
 30
0.0
 40
1.0
  1
7571- 234 * 51.5
 11
16767.0
 21
1.0
 31
0.0
  0
LINE
  5
1F8
  8
MyLines
 10
17002.0
 20
43.5
 30
0.0
 11
17298.0
 21
43.5
 31
0.0
  0
LINE
  5
1F9
  8
MyLines
 10
17002.0
 20
0.0
 30
0.0
 11
17298.0
 21
0.0
 31
0.0
  0
LINE
  5
1FA
  8
MyLines
 10
17002.0
 20
0.0
 30
0.0
 11
17002.0
 21
43.5
 31
0.0
  0
LINE
  5
1FB
  8
MyLines
 10
17298.0
 20
0.0
 30
0.0
 11
17298.0
 21
43.5
 31
0.0
  0
TEXT
  5
1FC
  8
MyLines
 62
1
 10
17003.0
 20
1.0
 30
0.0
 40
1.0
  1
7572- 296 * 43.5
 11
17003.0
 21
1.0
 31
0.0
  0
LINE
  5
1FD
  8
MyLines
 10
17300.0
 20
46.0
 30
0.0
 11
17498.0
 21
46.0
 31
0.0
  0
LINE
  5
1FE
  8
MyLines
 10
17300.0
 20
0.0
 30
0.0
 11
17498.0
 21
0.0
 31
0.0
  0
LINE
  5
1FF
  8
MyLines
 10
17300.0
 20
0.0
 30
0.0
 11
17300.0
 21
46.0
 31
0.0
  0
LINE
  5
200
  8
MyLines
 10
17498.0
 20
0.0
 30
0.0
 11
17498.0
 21
46.0
 31
0.0
  0
TEXT
  5
201
  8
MyLines
 62
1
 10
17301.0
 20
1.0
 30
0.0
 40
1.0
  1
7573- 198 * 46.0
 11
17301.0
 21
1.0
 31
0.0
  0
LINE
  5
202
  8
MyLines
 10
17500.0
 20
69.0
 30
0.0
 11
17719.0
 21
69.0
 31
0.0
  0
LINE
  5
203
  8
MyLines
 10
17500.0
 20
0.0
 30
0.0
 11
17719.0
 21
0.0
 31
0.0
  0
LINE
  5
204
  8
MyLines
 10
17500.0
 20
0.0
 30
0.0
 11
17500.0
 21
69.0
 31
0.0
  0
LINE
  5
205
  8
MyLines
 10
17719.0
 20
0.0
 30
0.0
 11
17719.0
 21
69.0
 31
0.0
  0
TEXT
  5
206
  8
MyLines
 62
1
 10
17501.0
 20
1.0
 30
0.0
 40
1.0
  1
7574- 219 * 69.0
 11
17501.0
 21
1.0
 31
0.0
  0
LINE
  5
207
  8
MyLines
 10
17721.0
 20
64.5
 30
0.0
 11
17957.0
 21
64.5
 31
0.0
  0
LINE
  5
208
  8
MyLines
 10
17721.0
 20
0.0
 30
0.0
 11
17957.0
 21
0.0
 31
0.0
  0
LINE
  5
209
  8
MyLines
 10
17721.0
 20
0.0
 30
0.0
 11
17721.0
 21
64.5
 31
0.0
  0
LINE
  5
20A
  8
MyLines
 10
17957.0
 20
0.0
 30
0.0
 11
17957.0
 21
64.5
 31
0.0
  0
TEXT
  5
20B
  8
MyLines
 62
1
 10
17722.0
 20
1.0
 30
0.0
 40
1.0
  1
7575- 236 * 64.5
 11
17722.0
 21
1.0
 31
0.0
  0
LINE
  5
20C
  8
MyLines
 10
17959.0
 20
37.5
 30
0.0
 11
18228.0
 21
37.5
 31
0.0
  0
LINE
  5
20D
  8
MyLines
 10
17959.0
 20
0.0
 30
0.0
 11
18228.0
 21
0.0
 31
0.0
  0
LINE
  5
20E
  8
MyLines
 10
17959.0
 20
0.0
 30
0.0
 11
17959.0
 21
37.5
 31
0.0
  0
LINE
  5
20F
  8
MyLines
 10
18228.0
 20
0.0
 30
0.0
 11
18228.0
 21
37.5
 31
0.0
  0
TEXT
  5
210
  8
MyLines
 62
1
 10
17960.0
 20
1.0
 30
0.0
 40
1.0
  1
7576- 269 * 37.5
 11
17960.0
 21
1.0
 31
0.0
  0
LINE
  5
211
  8
MyLines
 10
18230.0
 20
35.0
 30
0.0
 11
18468.0
 21
35.0
 31
0.0
  0
LINE
  5
212
  8
MyLines
 10
18230.0
 20
0.0
 30
0.0
 11
18468.0
 21
0.0
 31
0.0
  0
LINE
  5
213
  8
MyLines
 10
18230.0
 20
0.0
 30
0.0
 11
18230.0
 21
35.0
 31
0.0
  0
LINE
  5
214
  8
MyLines
 10
18468.0
 20
0.0
 30
0.0
 11
18468.0
 21
35.0
 31
0.0
  0
TEXT
  5
215
  8
MyLines
 62
1
 10
18231.0
 20
1.0
 30
0.0
 40
1.0
  1
7577- 238 * 35.0
 11
18231.0
 21
1.0
 31
0.0
  0
LINE
  5
216
  8
MyLines
 10
18470.0
 20
36.0
 30
0.0
 11
18653.0
 21
36.0
 31
0.0
  0
LINE
  5
217
  8
MyLines
 10
18470.0
 20
0.0
 30
0.0
 11
18653.0
 21
0.0
 31
0.0
  0
LINE
  5
218
  8
MyLines
 10
18470.0
 20
0.0
 30
0.0
 11
18470.0
 21
36.0
 31
0.0
  0
LINE
  5
219
  8
MyLines
 10
18653.0
 20
0.0
 30
0.0
 11
18653.0
 21
36.0
 31
0.0
  0
TEXT
  5
21A
  8
MyLines
 62
1
 10
18471.0
 20
1.0
 30
0.0
 40
1.0
  1
7578- 183 * 36.0
 11
18471.0
 21
1.0
 31
0.0
  0
LINE
  5
21B
  8
MyLines
 10
18655.0
 20
60.5
 30
0.0
 11
18892.0
 21
60.5
 31
0.0
  0
LINE
  5
21C
  8
MyLines
 10
18655.0
 20
0.0
 30
0.0
 11
18892.0
 21
0.0
 31
0.0
  0
LINE
  5
21D
  8
MyLines
 10
18655.0
 20
0.0
 30
0.0
 11
18655.0
 21
60.5
 31
0.0
  0
LINE
  5
21E
  8
MyLines
 10
18892.0
 20
0.0
 30
0.0
 11
18892.0
 21
60.5
 31
0.0
  0
TEXT
  5
21F
  8
MyLines
 62
1
 10
18656.0
 20
1.0
 30
0.0
 40
1.0
  1
7579- 237 * 60.5
 11
18656.0
 21
1.0
 31
0.0
  0
LINE
  5
220
  8
MyLines
 10
18894.0
 20
85.0
 30
0.0
 11
19153.0
 21
85.0
 31
0.0
  0
LINE
  5
221
  8
MyLines
 10
18894.0
 20
0.0
 30
0.0
 11
19153.0
 21
0.0
 31
0.0
  0
LINE
  5
222
  8
MyLines
 10
18894.0
 20
0.0
 30
0.0
 11
18894.0
 21
85.0
 31
0.0
  0
LINE
  5
223
  8
MyLines
 10
19153.0
 20
0.0
 30
0.0
 11
19153.0
 21
85.0
 31
0.0
  0
TEXT
  5
224
  8
MyLines
 62
1
 10
18895.0
 20
1.0
 30
0.0
 40
1.0
  1
7580- 259 * 85.0
 11
18895.0
 21
1.0
 31
0.0
  0
LINE
  5
225
  8
MyLines
 10
19155.0
 20
40.5
 30
0.0
 11
19429.0
 21
40.5
 31
0.0
  0
LINE
  5
226
  8
MyLines
 10
19155.0
 20
0.0
 30
0.0
 11
19429.0
 21
0.0
 31
0.0
  0
LINE
  5
227
  8
MyLines
 10
19155.0
 20
0.0
 30
0.0
 11
19155.0
 21
40.5
 31
0.0
  0
LINE
  5
228
  8
MyLines
 10
19429.0
 20
0.0
 30
0.0
 11
19429.0
 21
40.5
 31
0.0
  0
TEXT
  5
229
  8
MyLines
 62
1
 10
19156.0
 20
1.0
 30
0.0
 40
1.0
  1
7581- 274 * 40.5
 11
19156.0
 21
1.0
 31
0.0
  0
LINE
  5
22A
  8
MyLines
 10
19431.0
 20
42.5
 30
0.0
 11
19611.0
 21
42.5
 31
0.0
  0
LINE
  5
22B
  8
MyLines
 10
19431.0
 20
0.0
 30
0.0
 11
19611.0
 21
0.0
 31
0.0
  0
LINE
  5
22C
  8
MyLines
 10
19431.0
 20
0.0
 30
0.0
 11
19431.0
 21
42.5
 31
0.0
  0
LINE
  5
22D
  8
MyLines
 10
19611.0
 20
0.0
 30
0.0
 11
19611.0
 21
42.5
 31
0.0
  0
TEXT
  5
22E
  8
MyLines
 62
1
 10
19432.0
 20
1.0
 30
0.0
 40
1.0
  1
7582- 180 * 42.5
 11
19432.0
 21
1.0
 31
0.0
  0
LINE
  5
22F
  8
MyLines
 10
19613.0
 20
49.0
 30
0.0
 11
19841.0
 21
49.0
 31
0.0
  0
LINE
  5
230
  8
MyLines
 10
19613.0
 20
0.0
 30
0.0
 11
19841.0
 21
0.0
 31
0.0
  0
LINE
  5
231
  8
MyLines
 10
19613.0
 20
0.0
 30
0.0
 11
19613.0
 21
49.0
 31
0.0
  0
LINE
  5
232
  8
MyLines
 10
19841.0
 20
0.0
 30
0.0
 11
19841.0
 21
49.0
 31
0.0
  0
TEXT
  5
233
  8
MyLines
 62
1
 10
19614.0
 20
1.0
 30
0.0
 40
1.0
  1
7583- 228 * 49.0
 11
19614.0
 21
1.0
 31
0.0
  0
LINE
  5
234
  8
MyLines
 10
19843.0
 20
85.5
 30
0.0
 11
20084.0
 21
85.5
 31
0.0
  0
LINE
  5
235
  8
MyLines
 10
19843.0
 20
0.0
 30
0.0
 11
20084.0
 21
0.0
 31
0.0
  0
LINE
  5
236
  8
MyLines
 10
19843.0
 20
0.0
 30
0.0
 11
19843.0
 21
85.5
 31
0.0
  0
LINE
  5
237
  8
MyLines
 10
20084.0
 20
0.0
 30
0.0
 11
20084.0
 21
85.5
 31
0.0
  0
TEXT
  5
238
  8
MyLines
 62
1
 10
19844.0
 20
1.0
 30
0.0
 40
1.0
  1
7584- 241 * 85.5
 11
19844.0
 21
1.0
 31
0.0
  0
LINE
  5
239
  8
MyLines
 10
20086.0
 20
78.5
 30
0.0
 11
20379.0
 21
78.5
 31
0.0
  0
LINE
  5
23A
  8
MyLines
 10
20086.0
 20
0.0
 30
0.0
 11
20379.0
 21
0.0
 31
0.0
  0
LINE
  5
23B
  8
MyLines
 10
20086.0
 20
0.0
 30
0.0
 11
20086.0
 21
78.5
 31
0.0
  0
LINE
  5
23C
  8
MyLines
 10
20379.0
 20
0.0
 30
0.0
 11
20379.0
 21
78.5
 31
0.0
  0
TEXT
  5
23D
  8
MyLines
 62
1
 10
20087.0
 20
1.0
 30
0.0
 40
1.0
  1
7585- 293 * 78.5
 11
20087.0
 21
1.0
 31
0.0
  0
LINE
  5
23E
  8
MyLines
 10
20381.0
 20
90.0
 30
0.0
 11
20585.0
 21
90.0
 31
0.0
  0
LINE
  5
23F
  8
MyLines
 10
20381.0
 20
0.0
 30
0.0
 11
20585.0
 21
0.0
 31
0.0
  0
LINE
  5
240
  8
MyLines
 10
20381.0
 20
0.0
 30
0.0
 11
20381.0
 21
90.0
 31
0.0
  0
LINE
  5
241
  8
MyLines
 10
20585.0
 20
0.0
 30
0.0
 11
20585.0
 21
90.0
 31
0.0
  0
TEXT
  5
242
  8
MyLines
 62
1
 10
20382.0
 20
1.0
 30
0.0
 40
1.0
  1
7586- 204 * 90.0
 11
20382.0
 21
1.0
 31
0.0
  0
LINE
  5
243
  8
MyLines
 10
20587.0
 20
45.5
 30
0.0
 11
20837.0
 21
45.5
 31
0.0
  0
LINE
  5
244
  8
MyLines
 10
20587.0
 20
0.0
 30
0.0
 11
20837.0
 21
0.0
 31
0.0
  0
LINE
  5
245
  8
MyLines
 10
20587.0
 20
0.0
 30
0.0
 11
20587.0
 21
45.5
 31
0.0
  0
LINE
  5
246
  8
MyLines
 10
20837.0
 20
0.0
 30
0.0
 11
20837.0
 21
45.5
 31
0.0
  0
TEXT
  5
247
  8
MyLines
 62
1
 10
20588.0
 20
1.0
 30
0.0
 40
1.0
  1
7587- 250 * 45.5
 11
20588.0
 21
1.0
 31
0.0
  0
LINE
  5
248
  8
MyLines
 10
20839.0
 20
79.5
 30
0.0
 11
21057.0
 21
79.5
 31
0.0
  0
LINE
  5
249
  8
MyLines
 10
20839.0
 20
0.0
 30
0.0
 11
21057.0
 21
0.0
 31
0.0
  0
LINE
  5
24A
  8
MyLines
 10
20839.0
 20
0.0
 30
0.0
 11
20839.0
 21
79.5
 31
0.0
  0
LINE
  5
24B
  8
MyLines
 10
21057.0
 20
0.0
 30
0.0
 11
21057.0
 21
79.5
 31
0.0
  0
TEXT
  5
24C
  8
MyLines
 62
1
 10
20840.0
 20
1.0
 30
0.0
 40
1.0
  1
7588- 218 * 79.5
 11
20840.0
 21
1.0
 31
0.0
  0
LINE
  5
24D
  8
MyLines
 10
21059.0
 20
66.5
 30
0.0
 11
21297.0
 21
66.5
 31
0.0
  0
LINE
  5
24E
  8
MyLines
 10
21059.0
 20
0.0
 30
0.0
 11
21297.0
 21
0.0
 31
0.0
  0
LINE
  5
24F
  8
MyLines
 10
21059.0
 20
0.0
 30
0.0
 11
21059.0
 21
66.5
 31
0.0
  0
LINE
  5
250
  8
MyLines
 10
21297.0
 20
0.0
 30
0.0
 11
21297.0
 21
66.5
 31
0.0
  0
TEXT
  5
251
  8
MyLines
 62
1
 10
21060.0
 20
1.0
 30
0.0
 40
1.0
  1
7589- 238 * 66.5
 11
21060.0
 21
1.0
 31
0.0
  0
LINE
  5
252
  8
MyLines
 10
21299.0
 20
88.5
 30
0.0
 11
21598.0
 21
88.5
 31
0.0
  0
LINE
  5
253
  8
MyLines
 10
21299.0
 20
0.0
 30
0.0
 11
21598.0
 21
0.0
 31
0.0
  0
LINE
  5
254
  8
MyLines
 10
21299.0
 20
0.0
 30
0.0
 11
21299.0
 21
88.5
 31
0.0
  0
LINE
  5
255
  8
MyLines
 10
21598.0
 20
0.0
 30
0.0
 11
21598.0
 21
88.5
 31
0.0
  0
TEXT
  5
256
  8
MyLines
 62
1
 10
21300.0
 20
1.0
 30
0.0
 40
1.0
  1
7590- 299 * 88.5
 11
21300.0
 21
1.0
 31
0.0
  0
LINE
  5
257
  8
MyLines
 10
21600.0
 20
48.0
 30
0.0
 11
21855.0
 21
48.0
 31
0.0
  0
LINE
  5
258
  8
MyLines
 10
21600.0
 20
0.0
 30
0.0
 11
21855.0
 21
0.0
 31
0.0
  0
LINE
  5
259
  8
MyLines
 10
21600.0
 20
0.0
 30
0.0
 11
21600.0
 21
48.0
 31
0.0
  0
LINE
  5
25A
  8
MyLines
 10
21855.0
 20
0.0
 30
0.0
 11
21855.0
 21
48.0
 31
0.0
  0
TEXT
  5
25B
  8
MyLines
 62
1
 10
21601.0
 20
1.0
 30
0.0
 40
1.0
  1
7591- 255 * 48.0
 11
21601.0
 21
1.0
 31
0.0
  0
LINE
  5
25C
  8
MyLines
 10
21857.0
 20
45.0
 30
0.0
 11
22097.0
 21
45.0
 31
0.0
  0
LINE
  5
25D
  8
MyLines
 10
21857.0
 20
0.0
 30
0.0
 11
22097.0
 21
0.0
 31
0.0
  0
LINE
  5
25E
  8
MyLines
 10
21857.0
 20
0.0
 30
0.0
 11
21857.0
 21
45.0
 31
0.0
  0
LINE
  5
25F
  8
MyLines
 10
22097.0
 20
0.0
 30
0.0
 11
22097.0
 21
45.0
 31
0.0
  0
TEXT
  5
260
  8
MyLines
 62
1
 10
21858.0
 20
1.0
 30
0.0
 40
1.0
  1
7592- 240 * 45.0
 11
21858.0
 21
1.0
 31
0.0
  0
LINE
  5
261
  8
MyLines
 10
22099.0
 20
76.0
 30
0.0
 11
22345.0
 21
76.0
 31
0.0
  0
LINE
  5
262
  8
MyLines
 10
22099.0
 20
0.0
 30
0.0
 11
22345.0
 21
0.0
 31
0.0
  0
LINE
  5
263
  8
MyLines
 10
22099.0
 20
0.0
 30
0.0
 11
22099.0
 21
76.0
 31
0.0
  0
LINE
  5
264
  8
MyLines
 10
22345.0
 20
0.0
 30
0.0
 11
22345.0
 21
76.0
 31
0.0
  0
TEXT
  5
265
  8
MyLines
 62
1
 10
22100.0
 20
1.0
 30
0.0
 40
1.0
  1
7593- 246 * 76.0
 11
22100.0
 21
1.0
 31
0.0
  0
LINE
  5
266
  8
MyLines
 10
22347.0
 20
39.5
 30
0.0
 11
22594.0
 21
39.5
 31
0.0
  0
LINE
  5
267
  8
MyLines
 10
22347.0
 20
0.0
 30
0.0
 11
22594.0
 21
0.0
 31
0.0
  0
LINE
  5
268
  8
MyLines
 10
22347.0
 20
0.0
 30
0.0
 11
22347.0
 21
39.5
 31
0.0
  0
LINE
  5
269
  8
MyLines
 10
22594.0
 20
0.0
 30
0.0
 11
22594.0
 21
39.5
 31
0.0
  0
TEXT
  5
26A
  8
MyLines
 62
1
 10
22348.0
 20
1.0
 30
0.0
 40
1.0
  1
7594- 247 * 39.5
 11
22348.0
 21
1.0
 31
0.0
  0
LINE
  5
26B
  8
MyLines
 10
22596.0
 20
64.5
 30
0.0
 11
22895.0
 21
64.5
 31
0.0
  0
LINE
  5
26C
  8
MyLines
 10
22596.0
 20
0.0
 30
0.0
 11
22895.0
 21
0.0
 31
0.0
  0
LINE
  5
26D
  8
MyLines
 10
22596.0
 20
0.0
 30
0.0
 11
22596.0
 21
64.5
 31
0.0
  0
LINE
  5
26E
  8
MyLines
 10
22895.0
 20
0.0
 30
0.0
 11
22895.0
 21
64.5
 31
0.0
  0
TEXT
  5
26F
  8
MyLines
 62
1
 10
22597.0
 20
1.0
 30
0.0
 40
1.0
  1
7595- 299 * 64.5
 11
22597.0
 21
1.0
 31
0.0
  0
LINE
  5
270
  8
MyLines
 10
22897.0
 20
64.0
 30
0.0
 11
23168.0
 21
64.0
 31
0.0
  0
LINE
  5
271
  8
MyLines
 10
22897.0
 20
0.0
 30
0.0
 11
23168.0
 21
0.0
 31
0.0
  0
LINE
  5
272
  8
MyLines
 10
22897.0
 20
0.0
 30
0.0
 11
22897.0
 21
64.0
 31
0.0
  0
LINE
  5
273
  8
MyLines
 10
23168.0
 20
0.0
 30
0.0
 11
23168.0
 21
64.0
 31
0.0
  0
TEXT
  5
274
  8
MyLines
 62
1
 10
22898.0
 20
1.0
 30
0.0
 40
1.0
  1
7596- 271 * 64.0
 11
22898.0
 21
1.0
 31
0.0
  0
LINE
  5
275
  8
MyLines
 10
23170.0
 20
65.5
 30
0.0
 11
23425.0
 21
65.5
 31
0.0
  0
LINE
  5
276
  8
MyLines
 10
23170.0
 20
0.0
 30
0.0
 11
23425.0
 21
0.0
 31
0.0
  0
LINE
  5
277
  8
MyLines
 10
23170.0
 20
0.0
 30
0.0
 11
23170.0
 21
65.5
 31
0.0
  0
LINE
  5
278
  8
MyLines
 10
23425.0
 20
0.0
 30
0.0
 11
23425.0
 21
65.5
 31
0.0
  0
TEXT
  5
279
  8
MyLines
 62
1
 10
23171.0
 20
1.0
 30
0.0
 40
1.0
  1
7597- 255 * 65.5
 11
23171.0
 21
1.0
 31
0.0
  0
LINE
  5
27A
  8
MyLines
 10
23427.0
 20
60.0
 30
0.0
 11
23613.0
 21
60.0
 31
0.0
  0
LINE
  5
27B
  8
MyLines
 10
23427.0
 20
0.0
 30
0.0
 11
23613.0
 21
0.0
 31
0.0
  0
LINE
  5
27C
  8
MyLines
 10
23427.0
 20
0.0
 30
0.0
 11
23427.0
 21
60.0
 31
0.0
  0
LINE
  5
27D
  8
MyLines
 10
23613.0
 20
0.0
 30
0.0
 11
23613.0
 21
60.0
 31
0.0
  0
TEXT
  5
27E
  8
MyLines
 62
1
 10
23428.0
 20
1.0
 30
0.0
 40
1.0
  1
7598- 186 * 60.0
 11
23428.0
 21
1.0
 31
0.0
  0
LINE
  5
27F
  8
MyLines
 10
23615.0
 20
47.5
 30
0.0
 11
23840.0
 21
47.5
 31
0.0
  0
LINE
  5
280
  8
MyLines
 10
23615.0
 20
0.0
 30
0.0
 11
23840.0
 21
0.0
 31
0.0
  0
LINE
  5
281
  8
MyLines
 10
23615.0
 20
0.0
 30
0.0
 11
23615.0
 21
47.5
 31
0.0
  0
LINE
  5
282
  8
MyLines
 10
23840.0
 20
0.0
 30
0.0
 11
23840.0
 21
47.5
 31
0.0
  0
TEXT
  5
283
  8
MyLines
 62
1
 10
23616.0
 20
1.0
 30
0.0
 40
1.0
  1
7599- 225 * 47.5
 11
23616.0
 21
1.0
 31
0.0
  0
LINE
  5
284
  8
MyLines
 10
23842.0
 20
73.0
 30
0.0
 11
24090.0
 21
73.0
 31
0.0
  0
LINE
  5
285
  8
MyLines
 10
23842.0
 20
0.0
 30
0.0
 11
24090.0
 21
0.0
 31
0.0
  0
LINE
  5
286
  8
MyLines
 10
23842.0
 20
0.0
 30
0.0
 11
23842.0
 21
73.0
 31
0.0
  0
LINE
  5
287
  8
MyLines
 10
24090.0
 20
0.0
 30
0.0
 11
24090.0
 21
73.0
 31
0.0
  0
TEXT
  5
288
  8
MyLines
 62
1
 10
23843.0
 20
1.0
 30
0.0
 40
1.0
  1
7600- 248 * 73.0
 11
23843.0
 21
1.0
 31
0.0
  0
LINE
  5
289
  8
MyLines
 10
24092.0
 20
50.5
 30
0.0
 11
24291.0
 21
50.5
 31
0.0
  0
LINE
  5
28A
  8
MyLines
 10
24092.0
 20
0.0
 30
0.0
 11
24291.0
 21
0.0
 31
0.0
  0
LINE
  5
28B
  8
MyLines
 10
24092.0
 20
0.0
 30
0.0
 11
24092.0
 21
50.5
 31
0.0
  0
LINE
  5
28C
  8
MyLines
 10
24291.0
 20
0.0
 30
0.0
 11
24291.0
 21
50.5
 31
0.0
  0
TEXT
  5
28D
  8
MyLines
 62
1
 10
24093.0
 20
1.0
 30
0.0
 40
1.0
  1
7601- 199 * 50.5
 11
24093.0
 21
1.0
 31
0.0
  0
LINE
  5
28E
  8
MyLines
 10
24293.0
 20
56.0
 30
0.0
 11
24563.0
 21
56.0
 31
0.0
  0
LINE
  5
28F
  8
MyLines
 10
24293.0
 20
0.0
 30
0.0
 11
24563.0
 21
0.0
 31
0.0
  0
LINE
  5
290
  8
MyLines
 10
24293.0
 20
0.0
 30
0.0
 11
24293.0
 21
56.0
 31
0.0
  0
LINE
  5
291
  8
MyLines
 10
24563.0
 20
0.0
 30
0.0
 11
24563.0
 21
56.0
 31
0.0
  0
TEXT
  5
292
  8
MyLines
 62
1
 10
24294.0
 20
1.0
 30
0.0
 40
1.0
  1
7602- 270 * 56.0
 11
24294.0
 21
1.0
 31
0.0
  0
LINE
  5
293
  8
MyLines
 10
24565.0
 20
61.5
 30
0.0
 11
24774.0
 21
61.5
 31
0.0
  0
LINE
  5
294
  8
MyLines
 10
24565.0
 20
0.0
 30
0.0
 11
24774.0
 21
0.0
 31
0.0
  0
LINE
  5
295
  8
MyLines
 10
24565.0
 20
0.0
 30
0.0
 11
24565.0
 21
61.5
 31
0.0
  0
LINE
  5
296
  8
MyLines
 10
24774.0
 20
0.0
 30
0.0
 11
24774.0
 21
61.5
 31
0.0
  0
TEXT
  5
297
  8
MyLines
 62
1
 10
24566.0
 20
1.0
 30
0.0
 40
1.0
  1
7603- 209 * 61.5
 11
24566.0
 21
1.0
 31
0.0
  0
LINE
  5
298
  8
MyLines
 10
24776.0
 20
36.0
 30
0.0
 11
24968.0
 21
36.0
 31
0.0
  0
LINE
  5
299
  8
MyLines
 10
24776.0
 20
0.0
 30
0.0
 11
24968.0
 21
0.0
 31
0.0
  0
LINE
  5
29A
  8
MyLines
 10
24776.0
 20
0.0
 30
0.0
 11
24776.0
 21
36.0
 31
0.0
  0
LINE
  5
29B
  8
MyLines
 10
24968.0
 20
0.0
 30
0.0
 11
24968.0
 21
36.0
 31
0.0
  0
TEXT
  5
29C
  8
MyLines
 62
1
 10
24777.0
 20
1.0
 30
0.0
 40
1.0
  1
7604- 192 * 36.0
 11
24777.0
 21
1.0
 31
0.0
  0
LINE
  5
29D
  8
MyLines
 10
24970.0
 20
62.0
 30
0.0
 11
25247.0
 21
62.0
 31
0.0
  0
LINE
  5
29E
  8
MyLines
 10
24970.0
 20
0.0
 30
0.0
 11
25247.0
 21
0.0
 31
0.0
  0
LINE
  5
29F
  8
MyLines
 10
24970.0
 20
0.0
 30
0.0
 11
24970.0
 21
62.0
 31
0.0
  0
LINE
  5
2A0
  8
MyLines
 10
25247.0
 20
0.0
 30
0.0
 11
25247.0
 21
62.0
 31
0.0
  0
TEXT
  5
2A1
  8
MyLines
 62
1
 10
24971.0
 20
1.0
 30
0.0
 40
1.0
  1
7605- 277 * 62.0
 11
24971.0
 21
1.0
 31
0.0
  0
LINE
  5
2A2
  8
MyLines
 10
25249.0
 20
84.0
 30
0.0
 11
25461.0
 21
84.0
 31
0.0
  0
LINE
  5
2A3
  8
MyLines
 10
25249.0
 20
0.0
 30
0.0
 11
25461.0
 21
0.0
 31
0.0
  0
LINE
  5
2A4
  8
MyLines
 10
25249.0
 20
0.0
 30
0.0
 11
25249.0
 21
84.0
 31
0.0
  0
LINE
  5
2A5
  8
MyLines
 10
25461.0
 20
0.0
 30
0.0
 11
25461.0
 21
84.0
 31
0.0
  0
TEXT
  5
2A6
  8
MyLines
 62
1
 10
25250.0
 20
1.0
 30
0.0
 40
1.0
  1
7606- 212 * 84.0
 11
25250.0
 21
1.0
 31
0.0
  0
LINE
  5
2A7
  8
MyLines
 10
25463.0
 20
51.0
 30
0.0
 11
25709.0
 21
51.0
 31
0.0
  0
LINE
  5
2A8
  8
MyLines
 10
25463.0
 20
0.0
 30
0.0
 11
25709.0
 21
0.0
 31
0.0
  0
LINE
  5
2A9
  8
MyLines
 10
25463.0
 20
0.0
 30
0.0
 11
25463.0
 21
51.0
 31
0.0
  0
LINE
  5
2AA
  8
MyLines
 10
25709.0
 20
0.0
 30
0.0
 11
25709.0
 21
51.0
 31
0.0
  0
TEXT
  5
2AB
  8
MyLines
 62
1
 10
25464.0
 20
1.0
 30
0.0
 40
1.0
  1
7607- 246 * 51.0
 11
25464.0
 21
1.0
 31
0.0
  0
LINE
  5
2AC
  8
MyLines
 10
25711.0
 20
53.5
 30
0.0
 11
25944.0
 21
53.5
 31
0.0
  0
LINE
  5
2AD
  8
MyLines
 10
25711.0
 20
0.0
 30
0.0
 11
25944.0
 21
0.0
 31
0.0
  0
LINE
  5
2AE
  8
MyLines
 10
25711.0
 20
0.0
 30
0.0
 11
25711.0
 21
53.5
 31
0.0
  0
LINE
  5
2AF
  8
MyLines
 10
25944.0
 20
0.0
 30
0.0
 11
25944.0
 21
53.5
 31
0.0
  0
TEXT
  5
2B0
  8
MyLines
 62
1
 10
25712.0
 20
1.0
 30
0.0
 40
1.0
  1
7608- 233 * 53.5
 11
25712.0
 21
1.0
 31
0.0
  0
LINE
  5
2B1
  8
MyLines
 10
25946.0
 20
37.0
 30
0.0
 11
26162.0
 21
37.0
 31
0.0
  0
LINE
  5
2B2
  8
MyLines
 10
25946.0
 20
0.0
 30
0.0
 11
26162.0
 21
0.0
 31
0.0
  0
LINE
  5
2B3
  8
MyLines
 10
25946.0
 20
0.0
 30
0.0
 11
25946.0
 21
37.0
 31
0.0
  0
LINE
  5
2B4
  8
MyLines
 10
26162.0
 20
0.0
 30
0.0
 11
26162.0
 21
37.0
 31
0.0
  0
TEXT
  5
2B5
  8
MyLines
 62
1
 10
25947.0
 20
1.0
 30
0.0
 40
1.0
  1
7609- 216 * 37.0
 11
25947.0
 21
1.0
 31
0.0
  0
LINE
  5
2B6
  8
MyLines
 10
26164.0
 20
53.5
 30
0.0
 11
26389.0
 21
53.5
 31
0.0
  0
LINE
  5
2B7
  8
MyLines
 10
26164.0
 20
0.0
 30
0.0
 11
26389.0
 21
0.0
 31
0.0
  0
LINE
  5
2B8
  8
MyLines
 10
26164.0
 20
0.0
 30
0.0
 11
26164.0
 21
53.5
 31
0.0
  0
LINE
  5
2B9
  8
MyLines
 10
26389.0
 20
0.0
 30
0.0
 11
26389.0
 21
53.5
 31
0.0
  0
TEXT
  5
2BA
  8
MyLines
 62
1
 10
26165.0
 20
1.0
 30
0.0
 40
1.0
  1
7610- 225 * 53.5
 11
26165.0
 21
1.0
 31
0.0
  0
LINE
  5
2BB
  8
MyLines
 10
26391.0
 20
83.5
 30
0.0
 11
26615.0
 21
83.5
 31
0.0
  0
LINE
  5
2BC
  8
MyLines
 10
26391.0
 20
0.0
 30
0.0
 11
26615.0
 21
0.0
 31
0.0
  0
LINE
  5
2BD
  8
MyLines
 10
26391.0
 20
0.0
 30
0.0
 11
26391.0
 21
83.5
 31
0.0
  0
LINE
  5
2BE
  8
MyLines
 10
26615.0
 20
0.0
 30
0.0
 11
26615.0
 21
83.5
 31
0.0
  0
TEXT
  5
2BF
  8
MyLines
 62
1
 10
26392.0
 20
1.0
 30
0.0
 40
1.0
  1
7611- 224 * 83.5
 11
26392.0
 21
1.0
 31
0.0
  0
LINE
  5
2C0
  8
MyLines
 10
26617.0
 20
84.5
 30
0.0
 11
26895.0
 21
84.5
 31
0.0
  0
LINE
  5
2C1
  8
MyLines
 10
26617.0
 20
0.0
 30
0.0
 11
26895.0
 21
0.0
 31
0.0
  0
LINE
  5
2C2
  8
MyLines
 10
26617.0
 20
0.0
 30
0.0
 11
26617.0
 21
84.5
 31
0.0
  0
LINE
  5
2C3
  8
MyLines
 10
26895.0
 20
0.0
 30
0.0
 11
26895.0
 21
84.5
 31
0.0
  0
TEXT
  5
2C4
  8
MyLines
 62
1
 10
26618.0
 20
1.0
 30
0.0
 40
1.0
  1
7612- 278 * 84.5
 11
26618.0
 21
1.0
 31
0.0
  0
LINE
  5
2C5
  8
MyLines
 10
26897.0
 20
51.0
 30
0.0
 11
27127.0
 21
51.0
 31
0.0
  0
LINE
  5
2C6
  8
MyLines
 10
26897.0
 20
0.0
 30
0.0
 11
27127.0
 21
0.0
 31
0.0
  0
LINE
  5
2C7
  8
MyLines
 10
26897.0
 20
0.0
 30
0.0
 11
26897.0
 21
51.0
 31
0.0
  0
LINE
  5
2C8
  8
MyLines
 10
27127.0
 20
0.0
 30
0.0
 11
27127.0
 21
51.0
 31
0.0
  0
TEXT
  5
2C9
  8
MyLines
 62
1
 10
26898.0
 20
1.0
 30
0.0
 40
1.0
  1
7613- 230 * 51.0
 11
26898.0
 21
1.0
 31
0.0
  0
LINE
  5
2CA
  8
MyLines
 10
27129.0
 20
38.5
 30
0.0
 11
27388.0
 21
38.5
 31
0.0
  0
LINE
  5
2CB
  8
MyLines
 10
27129.0
 20
0.0
 30
0.0
 11
27388.0
 21
0.0
 31
0.0
  0
LINE
  5
2CC
  8
MyLines
 10
27129.0
 20
0.0
 30
0.0
 11
27129.0
 21
38.5
 31
0.0
  0
LINE
  5
2CD
  8
MyLines
 10
27388.0
 20
0.0
 30
0.0
 11
27388.0
 21
38.5
 31
0.0
  0
TEXT
  5
2CE
  8
MyLines
 62
1
 10
27130.0
 20
1.0
 30
0.0
 40
1.0
  1
7614- 259 * 38.5
 11
27130.0
 21
1.0
 31
0.0
  0
LINE
  5
2CF
  8
MyLines
 10
27390.0
 20
56.5
 30
0.0
 11
27626.0
 21
56.5
 31
0.0
  0
LINE
  5
2D0
  8
MyLines
 10
27390.0
 20
0.0
 30
0.0
 11
27626.0
 21
0.0
 31
0.0
  0
LINE
  5
2D1
  8
MyLines
 10
27390.0
 20
0.0
 30
0.0
 11
27390.0
 21
56.5
 31
0.0
  0
LINE
  5
2D2
  8
MyLines
 10
27626.0
 20
0.0
 30
0.0
 11
27626.0
 21
56.5
 31
0.0
  0
TEXT
  5
2D3
  8
MyLines
 62
1
 10
27391.0
 20
1.0
 30
0.0
 40
1.0
  1
7615- 236 * 56.5
 11
27391.0
 21
1.0
 31
0.0
  0
LINE
  5
2D4
  8
MyLines
 10
27628.0
 20
48.0
 30
0.0
 11
27881.0
 21
48.0
 31
0.0
  0
LINE
  5
2D5
  8
MyLines
 10
27628.0
 20
0.0
 30
0.0
 11
27881.0
 21
0.0
 31
0.0
  0
LINE
  5
2D6
  8
MyLines
 10
27628.0
 20
0.0
 30
0.0
 11
27628.0
 21
48.0
 31
0.0
  0
LINE
  5
2D7
  8
MyLines
 10
27881.0
 20
0.0
 30
0.0
 11
27881.0
 21
48.0
 31
0.0
  0
TEXT
  5
2D8
  8
MyLines
 62
1
 10
27629.0
 20
1.0
 30
0.0
 40
1.0
  1
7616- 253 * 48.0
 11
27629.0
 21
1.0
 31
0.0
  0
LINE
  5
2D9
  8
MyLines
 10
27883.0
 20
54.5
 30
0.0
 11
28169.0
 21
54.5
 31
0.0
  0
LINE
  5
2DA
  8
MyLines
 10
27883.0
 20
0.0
 30
0.0
 11
28169.0
 21
0.0
 31
0.0
  0
LINE
  5
2DB
  8
MyLines
 10
27883.0
 20
0.0
 30
0.0
 11
27883.0
 21
54.5
 31
0.0
  0
LINE
  5
2DC
  8
MyLines
 10
28169.0
 20
0.0
 30
0.0
 11
28169.0
 21
54.5
 31
0.0
  0
TEXT
  5
2DD
  8
MyLines
 62
1
 10
27884.0
 20
1.0
 30
0.0
 40
1.0
  1
7617- 286 * 54.5
 11
27884.0
 21
1.0
 31
0.0
  0
LINE
  5
2DE
  8
MyLines
 10
28171.0
 20
75.5
 30
0.0
 11
28375.0
 21
75.5
 31
0.0
  0
LINE
  5
2DF
  8
MyLines
 10
28171.0
 20
0.0
 30
0.0
 11
28375.0
 21
0.0
 31
0.0
  0
LINE
  5
2E0
  8
MyLines
 10
28171.0
 20
0.0
 30
0.0
 11
28171.0
 21
75.5
 31
0.0
  0
LINE
  5
2E1
  8
MyLines
 10
28375.0
 20
0.0
 30
0.0
 11
28375.0
 21
75.5
 31
0.0
  0
TEXT
  5
2E2
  8
MyLines
 62
1
 10
28172.0
 20
1.0
 30
0.0
 40
1.0
  1
7618- 204 * 75.5
 11
28172.0
 21
1.0
 31
0.0
  0
LINE
  5
2E3
  8
MyLines
 10
28377.0
 20
80.5
 30
0.0
 11
28630.0
 21
80.5
 31
0.0
  0
LINE
  5
2E4
  8
MyLines
 10
28377.0
 20
0.0
 30
0.0
 11
28630.0
 21
0.0
 31
0.0
  0
LINE
  5
2E5
  8
MyLines
 10
28377.0
 20
0.0
 30
0.0
 11
28377.0
 21
80.5
 31
0.0
  0
LINE
  5
2E6
  8
MyLines
 10
28630.0
 20
0.0
 30
0.0
 11
28630.0
 21
80.5
 31
0.0
  0
TEXT
  5
2E7
  8
MyLines
 62
1
 10
28378.0
 20
1.0
 30
0.0
 40
1.0
  1
7619- 253 * 80.5
 11
28378.0
 21
1.0
 31
0.0
  0
LINE
  5
2E8
  8
MyLines
 10
28632.0
 20
38.0
 30
0.0
 11
28919.0
 21
38.0
 31
0.0
  0
LINE
  5
2E9
  8
MyLines
 10
28632.0
 20
0.0
 30
0.0
 11
28919.0
 21
0.0
 31
0.0
  0
LINE
  5
2EA
  8
MyLines
 10
28632.0
 20
0.0
 30
0.0
 11
28632.0
 21
38.0
 31
0.0
  0
LINE
  5
2EB
  8
MyLines
 10
28919.0
 20
0.0
 30
0.0
 11
28919.0
 21
38.0
 31
0.0
  0
TEXT
  5
2EC
  8
MyLines
 62
1
 10
28633.0
 20
1.0
 30
0.0
 40
1.0
  1
7620- 287 * 38.0
 11
28633.0
 21
1.0
 31
0.0
  0
LINE
  5
2ED
  8
MyLines
 10
28921.0
 20
83.5
 30
0.0
 11
29110.0
 21
83.5
 31
0.0
  0
LINE
  5
2EE
  8
MyLines
 10
28921.0
 20
0.0
 30
0.0
 11
29110.0
 21
0.0
 31
0.0
  0
LINE
  5
2EF
  8
MyLines
 10
28921.0
 20
0.0
 30
0.0
 11
28921.0
 21
83.5
 31
0.0
  0
LINE
  5
2F0
  8
MyLines
 10
29110.0
 20
0.0
 30
0.0
 11
29110.0
 21
83.5
 31
0.0
  0
TEXT
  5
2F1
  8
MyLines
 62
1
 10
28922.0
 20
1.0
 30
0.0
 40
1.0
  1
7621- 189 * 83.5
 11
28922.0
 21
1.0
 31
0.0
  0
LINE
  5
2F2
  8
MyLines
 10
29112.0
 20
50.0
 30
0.0
 11
29340.0
 21
50.0
 31
0.0
  0
LINE
  5
2F3
  8
MyLines
 10
29112.0
 20
0.0
 30
0.0
 11
29340.0
 21
0.0
 31
0.0
  0
LINE
  5
2F4
  8
MyLines
 10
29112.0
 20
0.0
 30
0.0
 11
29112.0
 21
50.0
 31
0.0
  0
LINE
  5
2F5
  8
MyLines
 10
29340.0
 20
0.0
 30
0.0
 11
29340.0
 21
50.0
 31
0.0
  0
TEXT
  5
2F6
  8
MyLines
 62
1
 10
29113.0
 20
1.0
 30
0.0
 40
1.0
  1
7622- 228 * 50.0
 11
29113.0
 21
1.0
 31
0.0
  0
LINE
  5
2F7
  8
MyLines
 10
29342.0
 20
45.5
 30
0.0
 11
29553.0
 21
45.5
 31
0.0
  0
LINE
  5
2F8
  8
MyLines
 10
29342.0
 20
0.0
 30
0.0
 11
29553.0
 21
0.0
 31
0.0
  0
LINE
  5
2F9
  8
MyLines
 10
29342.0
 20
0.0
 30
0.0
 11
29342.0
 21
45.5
 31
0.0
  0
LINE
  5
2FA
  8
MyLines
 10
29553.0
 20
0.0
 30
0.0
 11
29553.0
 21
45.5
 31
0.0
  0
TEXT
  5
2FB
  8
MyLines
 62
1
 10
29343.0
 20
1.0
 30
0.0
 40
1.0
  1
7623- 211 * 45.5
 11
29343.0
 21
1.0
 31
0.0
  0
LINE
  5
2FC
  8
MyLines
 10
29555.0
 20
68.0
 30
0.0
 11
29760.0
 21
68.0
 31
0.0
  0
LINE
  5
2FD
  8
MyLines
 10
29555.0
 20
0.0
 30
0.0
 11
29760.0
 21
0.0
 31
0.0
  0
LINE
  5
2FE
  8
MyLines
 10
29555.0
 20
0.0
 30
0.0
 11
29555.0
 21
68.0
 31
0.0
  0
LINE
  5
2FF
  8
MyLines
 10
29760.0
 20
0.0
 30
0.0
 11
29760.0
 21
68.0
 31
0.0
  0
TEXT
  5
300
  8
MyLines
 62
1
 10
29556.0
 20
1.0
 30
0.0
 40
1.0
  1
7624- 205 * 68.0
 11
29556.0
 21
1.0
 31
0.0
  0
LINE
  5
301
  8
MyLines
 10
29762.0
 20
71.5
 30
0.0
 11
30055.0
 21
71.5
 31
0.0
  0
LINE
  5
302
  8
MyLines
 10
29762.0
 20
0.0
 30
0.0
 11
30055.0
 21
0.0
 31
0.0
  0
LINE
  5
303
  8
MyLines
 10
29762.0
 20
0.0
 30
0.0
 11
29762.0
 21
71.5
 31
0.0
  0
LINE
  5
304
  8
MyLines
 10
30055.0
 20
0.0
 30
0.0
 11
30055.0
 21
71.5
 31
0.0
  0
TEXT
  5
305
  8
MyLines
 62
1
 10
29763.0
 20
1.0
 30
0.0
 40
1.0
  1
7625- 293 * 71.5
 11
29763.0
 21
1.0
 31
0.0
  0
LINE
  5
306
  8
MyLines
 10
30057.0
 20
61.0
 30
0.0
 11
30345.0
 21
61.0
 31
0.0
  0
LINE
  5
307
  8
MyLines
 10
30057.0
 20
0.0
 30
0.0
 11
30345.0
 21
0.0
 31
0.0
  0
LINE
  5
308
  8
MyLines
 10
30057.0
 20
0.0
 30
0.0
 11
30057.0
 21
61.0
 31
0.0
  0
LINE
  5
309
  8
MyLines
 10
30345.0
 20
0.0
 30
0.0
 11
30345.0
 21
61.0
 31
0.0
  0
TEXT
  5
30A
  8
MyLines
 62
1
 10
30058.0
 20
1.0
 30
0.0
 40
1.0
  1
7626- 288 * 61.0
 11
30058.0
 21
1.0
 31
0.0
  0
LINE
  5
30B
  8
MyLines
 10
30347.0
 20
67.0
 30
0.0
 11
30627.0
 21
67.0
 31
0.0
  0
LINE
  5
30C
  8
MyLines
 10
30347.0
 20
0.0
 30
0.0
 11
30627.0
 21
0.0
 31
0.0
  0
LINE
  5
30D
  8
MyLines
 10
30347.0
 20
0.0
 30
0.0
 11
30347.0
 21
67.0
 31
0.0
  0
LINE
  5
30E
  8
MyLines
 10
30627.0
 20
0.0
 30
0.0
 11
30627.0
 21
67.0
 31
0.0
  0
TEXT
  5
30F
  8
MyLines
 62
1
 10
30348.0
 20
1.0
 30
0.0
 40
1.0
  1
7627- 280 * 67.0
 11
30348.0
 21
1.0
 31
0.0
  0
LINE
  5
310
  8
MyLines
 10
30629.0
 20
61.0
 30
0.0
 11
30836.0
 21
61.0
 31
0.0
  0
LINE
  5
311
  8
MyLines
 10
30629.0
 20
0.0
 30
0.0
 11
30836.0
 21
0.0
 31
0.0
  0
LINE
  5
312
  8
MyLines
 10
30629.0
 20
0.0
 30
0.0
 11
30629.0
 21
61.0
 31
0.0
  0
LINE
  5
313
  8
MyLines
 10
30836.0
 20
0.0
 30
0.0
 11
30836.0
 21
61.0
 31
0.0
  0
TEXT
  5
314
  8
MyLines
 62
1
 10
30630.0
 20
1.0
 30
0.0
 40
1.0
  1
7628- 207 * 61.0
 11
30630.0
 21
1.0
 31
0.0
  0
LINE
  5
315
  8
MyLines
 10
30838.0
 20
47.5
 30
0.0
 11
31066.0
 21
47.5
 31
0.0
  0
LINE
  5
316
  8
MyLines
 10
30838.0
 20
0.0
 30
0.0
 11
31066.0
 21
0.0
 31
0.0
  0
LINE
  5
317
  8
MyLines
 10
30838.0
 20
0.0
 30
0.0
 11
30838.0
 21
47.5
 31
0.0
  0
LINE
  5
318
  8
MyLines
 10
31066.0
 20
0.0
 30
0.0
 11
31066.0
 21
47.5
 31
0.0
  0
TEXT
  5
319
  8
MyLines
 62
1
 10
30839.0
 20
1.0
 30
0.0
 40
1.0
  1
7629- 228 * 47.5
 11
30839.0
 21
1.0
 31
0.0
  0
LINE
  5
31A
  8
MyLines
 10
31068.0
 20
46.5
 30
0.0
 11
31273.0
 21
46.5
 31
0.0
  0
LINE
  5
31B
  8
MyLines
 10
31068.0
 20
0.0
 30
0.0
 11
31273.0
 21
0.0
 31
0.0
  0
LINE
  5
31C
  8
MyLines
 10
31068.0
 20
0.0
 30
0.0
 11
31068.0
 21
46.5
 31
0.0
  0
LINE
  5
31D
  8
MyLines
 10
31273.0
 20
0.0
 30
0.0
 11
31273.0
 21
46.5
 31
0.0
  0
TEXT
  5
31E
  8
MyLines
 62
1
 10
31069.0
 20
1.0
 30
0.0
 40
1.0
  1
7630- 205 * 46.5
 11
31069.0
 21
1.0
 31
0.0
  0
LINE
  5
31F
  8
MyLines
 10
31275.0
 20
44.5
 30
0.0
 11
31502.0
 21
44.5
 31
0.0
  0
LINE
  5
320
  8
MyLines
 10
31275.0
 20
0.0
 30
0.0
 11
31502.0
 21
0.0
 31
0.0
  0
LINE
  5
321
  8
MyLines
 10
31275.0
 20
0.0
 30
0.0
 11
31275.0
 21
44.5
 31
0.0
  0
LINE
  5
322
  8
MyLines
 10
31502.0
 20
0.0
 30
0.0
 11
31502.0
 21
44.5
 31
0.0
  0
TEXT
  5
323
  8
MyLines
 62
1
 10
31276.0
 20
1.0
 30
0.0
 40
1.0
  1
7631- 227 * 44.5
 11
31276.0
 21
1.0
 31
0.0
  0
LINE
  5
324
  8
MyLines
 10
31504.0
 20
38.5
 30
0.0
 11
31730.0
 21
38.5
 31
0.0
  0
LINE
  5
325
  8
MyLines
 10
31504.0
 20
0.0
 30
0.0
 11
31730.0
 21
0.0
 31
0.0
  0
LINE
  5
326
  8
MyLines
 10
31504.0
 20
0.0
 30
0.0
 11
31504.0
 21
38.5
 31
0.0
  0
LINE
  5
327
  8
MyLines
 10
31730.0
 20
0.0
 30
0.0
 11
31730.0
 21
38.5
 31
0.0
  0
TEXT
  5
328
  8
MyLines
 62
1
 10
31505.0
 20
1.0
 30
0.0
 40
1.0
  1
7632- 226 * 38.5
 11
31505.0
 21
1.0
 31
0.0
  0
LINE
  5
329
  8
MyLines
 10
31732.0
 20
73.5
 30
0.0
 11
31929.0
 21
73.5
 31
0.0
  0
LINE
  5
32A
  8
MyLines
 10
31732.0
 20
0.0
 30
0.0
 11
31929.0
 21
0.0
 31
0.0
  0
LINE
  5
32B
  8
MyLines
 10
31732.0
 20
0.0
 30
0.0
 11
31732.0
 21
73.5
 31
0.0
  0
LINE
  5
32C
  8
MyLines
 10
31929.0
 20
0.0
 30
0.0
 11
31929.0
 21
73.5
 31
0.0
  0
TEXT
  5
32D
  8
MyLines
 62
1
 10
31733.0
 20
1.0
 30
0.0
 40
1.0
  1
7633- 197 * 73.5
 11
31733.0
 21
1.0
 31
0.0
  0
LINE
  5
32E
  8
MyLines
 10
31931.0
 20
72.0
 30
0.0
 11
32227.0
 21
72.0
 31
0.0
  0
LINE
  5
32F
  8
MyLines
 10
31931.0
 20
0.0
 30
0.0
 11
32227.0
 21
0.0
 31
0.0
  0
LINE
  5
330
  8
MyLines
 10
31931.0
 20
0.0
 30
0.0
 11
31931.0
 21
72.0
 31
0.0
  0
LINE
  5
331
  8
MyLines
 10
32227.0
 20
0.0
 30
0.0
 11
32227.0
 21
72.0
 31
0.0
  0
TEXT
  5
332
  8
MyLines
 62
1
 10
31932.0
 20
1.0
 30
0.0
 40
1.0
  1
7634- 296 * 72.0
 11
31932.0
 21
1.0
 31
0.0
  0
LINE
  5
333
  8
MyLines
 10
32229.0
 20
59.5
 30
0.0
 11
32486.0
 21
59.5
 31
0.0
  0
LINE
  5
334
  8
MyLines
 10
32229.0
 20
0.0
 30
0.0
 11
32486.0
 21
0.0
 31
0.0
  0
LINE
  5
335
  8
MyLines
 10
32229.0
 20
0.0
 30
0.0
 11
32229.0
 21
59.5
 31
0.0
  0
LINE
  5
336
  8
MyLines
 10
32486.0
 20
0.0
 30
0.0
 11
32486.0
 21
59.5
 31
0.0
  0
TEXT
  5
337
  8
MyLines
 62
1
 10
32230.0
 20
1.0
 30
0.0
 40
1.0
  1
7635- 257 * 59.5
 11
32230.0
 21
1.0
 31
0.0
  0
LINE
  5
338
  8
MyLines
 10
32488.0
 20
74.5
 30
0.0
 11
32740.0
 21
74.5
 31
0.0
  0
LINE
  5
339
  8
MyLines
 10
32488.0
 20
0.0
 30
0.0
 11
32740.0
 21
0.0
 31
0.0
  0
LINE
  5
33A
  8
MyLines
 10
32488.0
 20
0.0
 30
0.0
 11
32488.0
 21
74.5
 31
0.0
  0
LINE
  5
33B
  8
MyLines
 10
32740.0
 20
0.0
 30
0.0
 11
32740.0
 21
74.5
 31
0.0
  0
TEXT
  5
33C
  8
MyLines
 62
1
 10
32489.0
 20
1.0
 30
0.0
 40
1.0
  1
7636- 252 * 74.5
 11
32489.0
 21
1.0
 31
0.0
  0
LINE
  5
33D
  8
MyLines
 10
32742.0
 20
43.0
 30
0.0
 11
32922.0
 21
43.0
 31
0.0
  0
LINE
  5
33E
  8
MyLines
 10
32742.0
 20
0.0
 30
0.0
 11
32922.0
 21
0.0
 31
0.0
  0
LINE
  5
33F
  8
MyLines
 10
32742.0
 20
0.0
 30
0.0
 11
32742.0
 21
43.0
 31
0.0
  0
LINE
  5
340
  8
MyLines
 10
32922.0
 20
0.0
 30
0.0
 11
32922.0
 21
43.0
 31
0.0
  0
TEXT
  5
341
  8
MyLines
 62
1
 10
32743.0
 20
1.0
 30
0.0
 40
1.0
  1
7637- 180 * 43.0
 11
32743.0
 21
1.0
 31
0.0
  0
LINE
  5
342
  8
MyLines
 10
32924.0
 20
52.0
 30
0.0
 11
33198.0
 21
52.0
 31
0.0
  0
LINE
  5
343
  8
MyLines
 10
32924.0
 20
0.0
 30
0.0
 11
33198.0
 21
0.0
 31
0.0
  0
LINE
  5
344
  8
MyLines
 10
32924.0
 20
0.0
 30
0.0
 11
32924.0
 21
52.0
 31
0.0
  0
LINE
  5
345
  8
MyLines
 10
33198.0
 20
0.0
 30
0.0
 11
33198.0
 21
52.0
 31
0.0
  0
TEXT
  5
346
  8
MyLines
 62
1
 10
32925.0
 20
1.0
 30
0.0
 40
1.0
  1
7638- 274 * 52.0
 11
32925.0
 21
1.0
 31
0.0
  0
LINE
  5
347
  8
MyLines
 10
33200.0
 20
87.0
 30
0.0
 11
33420.0
 21
87.0
 31
0.0
  0
LINE
  5
348
  8
MyLines
 10
33200.0
 20
0.0
 30
0.0
 11
33420.0
 21
0.0
 31
0.0
  0
LINE
  5
349
  8
MyLines
 10
33200.0
 20
0.0
 30
0.0
 11
33200.0
 21
87.0
 31
0.0
  0
LINE
  5
34A
  8
MyLines
 10
33420.0
 20
0.0
 30
0.0
 11
33420.0
 21
87.0
 31
0.0
  0
TEXT
  5
34B
  8
MyLines
 62
1
 10
33201.0
 20
1.0
 30
0.0
 40
1.0
  1
7639- 220 * 87.0
 11
33201.0
 21
1.0
 31
0.0
  0
LINE
  5
34C
  8
MyLines
 10
33422.0
 20
57.0
 30
0.0
 11
33609.0
 21
57.0
 31
0.0
  0
LINE
  5
34D
  8
MyLines
 10
33422.0
 20
0.0
 30
0.0
 11
33609.0
 21
0.0
 31
0.0
  0
LINE
  5
34E
  8
MyLines
 10
33422.0
 20
0.0
 30
0.0
 11
33422.0
 21
57.0
 31
0.0
  0
LINE
  5
34F
  8
MyLines
 10
33609.0
 20
0.0
 30
0.0
 11
33609.0
 21
57.0
 31
0.0
  0
TEXT
  5
350
  8
MyLines
 62
1
 10
33423.0
 20
1.0
 30
0.0
 40
1.0
  1
7640- 187 * 57.0
 11
33423.0
 21
1.0
 31
0.0
  0
LINE
  5
351
  8
MyLines
 10
33611.0
 20
66.0
 30
0.0
 11
33865.0
 21
66.0
 31
0.0
  0
LINE
  5
352
  8
MyLines
 10
33611.0
 20
0.0
 30
0.0
 11
33865.0
 21
0.0
 31
0.0
  0
LINE
  5
353
  8
MyLines
 10
33611.0
 20
0.0
 30
0.0
 11
33611.0
 21
66.0
 31
0.0
  0
LINE
  5
354
  8
MyLines
 10
33865.0
 20
0.0
 30
0.0
 11
33865.0
 21
66.0
 31
0.0
  0
TEXT
  5
355
  8
MyLines
 62
1
 10
33612.0
 20
1.0
 30
0.0
 40
1.0
  1
7641- 254 * 66.0
 11
33612.0
 21
1.0
 31
0.0
  0
LINE
  5
356
  8
MyLines
 10
33867.0
 20
43.0
 30
0.0
 11
34049.0
 21
43.0
 31
0.0
  0
LINE
  5
357
  8
MyLines
 10
33867.0
 20
0.0
 30
0.0
 11
34049.0
 21
0.0
 31
0.0
  0
LINE
  5
358
  8
MyLines
 10
33867.0
 20
0.0
 30
0.0
 11
33867.0
 21
43.0
 31
0.0
  0
LINE
  5
359
  8
MyLines
 10
34049.0
 20
0.0
 30
0.0
 11
34049.0
 21
43.0
 31
0.0
  0
TEXT
  5
35A
  8
MyLines
 62
1
 10
33868.0
 20
1.0
 30
0.0
 40
1.0
  1
7642- 182 * 43.0
 11
33868.0
 21
1.0
 31
0.0
  0
LINE
  5
35B
  8
MyLines
 10
34051.0
 20
88.5
 30
0.0
 11
34229.0
 21
88.5
 31
0.0
  0
LINE
  5
35C
  8
MyLines
 10
34051.0
 20
0.0
 30
0.0
 11
34229.0
 21
0.0
 31
0.0
  0
LINE
  5
35D
  8
MyLines
 10
34051.0
 20
0.0
 30
0.0
 11
34051.0
 21
88.5
 31
0.0
  0
LINE
  5
35E
  8
MyLines
 10
34229.0
 20
0.0
 30
0.0
 11
34229.0
 21
88.5
 31
0.0
  0
TEXT
  5
35F
  8
MyLines
 62
1
 10
34052.0
 20
1.0
 30
0.0
 40
1.0
  1
7643- 178 * 88.5
 11
34052.0
 21
1.0
 31
0.0
  0
LINE
  5
360
  8
MyLines
 10
34231.0
 20
57.5
 30
0.0
 11
34478.0
 21
57.5
 31
0.0
  0
LINE
  5
361
  8
MyLines
 10
34231.0
 20
0.0
 30
0.0
 11
34478.0
 21
0.0
 31
0.0
  0
LINE
  5
362
  8
MyLines
 10
34231.0
 20
0.0
 30
0.0
 11
34231.0
 21
57.5
 31
0.0
  0
LINE
  5
363
  8
MyLines
 10
34478.0
 20
0.0
 30
0.0
 11
34478.0
 21
57.5
 31
0.0
  0
TEXT
  5
364
  8
MyLines
 62
1
 10
34232.0
 20
1.0
 30
0.0
 40
1.0
  1
7644- 247 * 57.5
 11
34232.0
 21
1.0
 31
0.0
  0
LINE
  5
365
  8
MyLines
 10
34480.0
 20
54.5
 30
0.0
 11
34716.0
 21
54.5
 31
0.0
  0
LINE
  5
366
  8
MyLines
 10
34480.0
 20
0.0
 30
0.0
 11
34716.0
 21
0.0
 31
0.0
  0
LINE
  5
367
  8
MyLines
 10
34480.0
 20
0.0
 30
0.0
 11
34480.0
 21
54.5
 31
0.0
  0
LINE
  5
368
  8
MyLines
 10
34716.0
 20
0.0
 30
0.0
 11
34716.0
 21
54.5
 31
0.0
  0
TEXT
  5
369
  8
MyLines
 62
1
 10
34481.0
 20
1.0
 30
0.0
 40
1.0
  1
7645- 236 * 54.5
 11
34481.0
 21
1.0
 31
0.0
  0
LINE
  5
36A
  8
MyLines
 10
34718.0
 20
75.5
 30
0.0
 11
34896.0
 21
75.5
 31
0.0
  0
LINE
  5
36B
  8
MyLines
 10
34718.0
 20
0.0
 30
0.0
 11
34896.0
 21
0.0
 31
0.0
  0
LINE
  5
36C
  8
MyLines
 10
34718.0
 20
0.0
 30
0.0
 11
34718.0
 21
75.5
 31
0.0
  0
LINE
  5
36D
  8
MyLines
 10
34896.0
 20
0.0
 30
0.0
 11
34896.0
 21
75.5
 31
0.0
  0
TEXT
  5
36E
  8
MyLines
 62
1
 10
34719.0
 20
1.0
 30
0.0
 40
1.0
  1
7646- 178 * 75.5
 11
34719.0
 21
1.0
 31
0.0
  0
LINE
  5
36F
  8
MyLines
 10
34898.0
 20
56.5
 30
0.0
 11
35086.0
 21
56.5
 31
0.0
  0
LINE
  5
370
  8
MyLines
 10
34898.0
 20
0.0
 30
0.0
 11
35086.0
 21
0.0
 31
0.0
  0
LINE
  5
371
  8
MyLines
 10
34898.0
 20
0.0
 30
0.0
 11
34898.0
 21
56.5
 31
0.0
  0
LINE
  5
372
  8
MyLines
 10
35086.0
 20
0.0
 30
0.0
 11
35086.0
 21
56.5
 31
0.0
  0
TEXT
  5
373
  8
MyLines
 62
1
 10
34899.0
 20
1.0
 30
0.0
 40
1.0
  1
7647- 188 * 56.5
 11
34899.0
 21
1.0
 31
0.0
  0
LINE
  5
374
  8
MyLines
 10
35088.0
 20
90.0
 30
0.0
 11
35378.0
 21
90.0
 31
0.0
  0
LINE
  5
375
  8
MyLines
 10
35088.0
 20
0.0
 30
0.0
 11
35378.0
 21
0.0
 31
0.0
  0
LINE
  5
376
  8
MyLines
 10
35088.0
 20
0.0
 30
0.0
 11
35088.0
 21
90.0
 31
0.0
  0
LINE
  5
377
  8
MyLines
 10
35378.0
 20
0.0
 30
0.0
 11
35378.0
 21
90.0
 31
0.0
  0
TEXT
  5
378
  8
MyLines
 62
1
 10
35089.0
 20
1.0
 30
0.0
 40
1.0
  1
7648- 290 * 90.0
 11
35089.0
 21
1.0
 31
0.0
  0
LINE
  5
379
  8
MyLines
 10
35380.0
 20
78.5
 30
0.0
 11
35672.0
 21
78.5
 31
0.0
  0
LINE
  5
37A
  8
MyLines
 10
35380.0
 20
0.0
 30
0.0
 11
35672.0
 21
0.0
 31
0.0
  0
LINE
  5
37B
  8
MyLines
 10
35380.0
 20
0.0
 30
0.0
 11
35380.0
 21
78.5
 31
0.0
  0
LINE
  5
37C
  8
MyLines
 10
35672.0
 20
0.0
 30
0.0
 11
35672.0
 21
78.5
 31
0.0
  0
TEXT
  5
37D
  8
MyLines
 62
1
 10
35381.0
 20
1.0
 30
0.0
 40
1.0
  1
7649- 292 * 78.5
 11
35381.0
 21
1.0
 31
0.0
  0
LINE
  5
37E
  8
MyLines
 10
35674.0
 20
38.0
 30
0.0
 11
35929.0
 21
38.0
 31
0.0
  0
LINE
  5
37F
  8
MyLines
 10
35674.0
 20
0.0
 30
0.0
 11
35929.0
 21
0.0
 31
0.0
  0
LINE
  5
380
  8
MyLines
 10
35674.0
 20
0.0
 30
0.0
 11
35674.0
 21
38.0
 31
0.0
  0
LINE
  5
381
  8
MyLines
 10
35929.0
 20
0.0
 30
0.0
 11
35929.0
 21
38.0
 31
0.0
  0
TEXT
  5
382
  8
MyLines
 62
1
 10
35675.0
 20
1.0
 30
0.0
 40
1.0
  1
7650- 255 * 38.0
 11
35675.0
 21
1.0
 31
0.0
  0
LINE
  5
383
  8
MyLines
 10
35931.0
 20
35.0
 30
0.0
 11
36129.0
 21
35.0
 31
0.0
  0
LINE
  5
384
  8
MyLines
 10
35931.0
 20
0.0
 30
0.0
 11
36129.0
 21
0.0
 31
0.0
  0
LINE
  5
385
  8
MyLines
 10
35931.0
 20
0.0
 30
0.0
 11
35931.0
 21
35.0
 31
0.0
  0
LINE
  5
386
  8
MyLines
 10
36129.0
 20
0.0
 30
0.0
 11
36129.0
 21
35.0
 31
0.0
  0
TEXT
  5
387
  8
MyLines
 62
1
 10
35932.0
 20
1.0
 30
0.0
 40
1.0
  1
7651- 198 * 35.0
 11
35932.0
 21
1.0
 31
0.0
  0
LINE
  5
388
  8
MyLines
 10
36131.0
 20
62.5
 30
0.0
 11
36397.0
 21
62.5
 31
0.0
  0
LINE
  5
389
  8
MyLines
 10
36131.0
 20
0.0
 30
0.0
 11
36397.0
 21
0.0
 31
0.0
  0
LINE
  5
38A
  8
MyLines
 10
36131.0
 20
0.0
 30
0.0
 11
36131.0
 21
62.5
 31
0.0
  0
LINE
  5
38B
  8
MyLines
 10
36397.0
 20
0.0
 30
0.0
 11
36397.0
 21
62.5
 31
0.0
  0
TEXT
  5
38C
  8
MyLines
 62
1
 10
36132.0
 20
1.0
 30
0.0
 40
1.0
  1
7652- 266 * 62.5
 11
36132.0
 21
1.0
 31
0.0
  0
LINE
  5
38D
  8
MyLines
 10
36399.0
 20
37.5
 30
0.0
 11
36592.0
 21
37.5
 31
0.0
  0
LINE
  5
38E
  8
MyLines
 10
36399.0
 20
0.0
 30
0.0
 11
36592.0
 21
0.0
 31
0.0
  0
LINE
  5
38F
  8
MyLines
 10
36399.0
 20
0.0
 30
0.0
 11
36399.0
 21
37.5
 31
0.0
  0
LINE
  5
390
  8
MyLines
 10
36592.0
 20
0.0
 30
0.0
 11
36592.0
 21
37.5
 31
0.0
  0
TEXT
  5
391
  8
MyLines
 62
1
 10
36400.0
 20
1.0
 30
0.0
 40
1.0
  1
7653- 193 * 37.5
 11
36400.0
 21
1.0
 31
0.0
  0
LINE
  5
392
  8
MyLines
 10
36594.0
 20
49.0
 30
0.0
 11
36848.0
 21
49.0
 31
0.0
  0
LINE
  5
393
  8
MyLines
 10
36594.0
 20
0.0
 30
0.0
 11
36848.0
 21
0.0
 31
0.0
  0
LINE
  5
394
  8
MyLines
 10
36594.0
 20
0.0
 30
0.0
 11
36594.0
 21
49.0
 31
0.0
  0
LINE
  5
395
  8
MyLines
 10
36848.0
 20
0.0
 30
0.0
 11
36848.0
 21
49.0
 31
0.0
  0
TEXT
  5
396
  8
MyLines
 62
1
 10
36595.0
 20
1.0
 30
0.0
 40
1.0
  1
7654- 254 * 49.0
 11
36595.0
 21
1.0
 31
0.0
  0
LINE
  5
397
  8
MyLines
 10
36850.0
 20
77.0
 30
0.0
 11
37131.0
 21
77.0
 31
0.0
  0
LINE
  5
398
  8
MyLines
 10
36850.0
 20
0.0
 30
0.0
 11
37131.0
 21
0.0
 31
0.0
  0
LINE
  5
399
  8
MyLines
 10
36850.0
 20
0.0
 30
0.0
 11
36850.0
 21
77.0
 31
0.0
  0
LINE
  5
39A
  8
MyLines
 10
37131.0
 20
0.0
 30
0.0
 11
37131.0
 21
77.0
 31
0.0
  0
TEXT
  5
39B
  8
MyLines
 62
1
 10
36851.0
 20
1.0
 30
0.0
 40
1.0
  1
7655- 281 * 77.0
 11
36851.0
 21
1.0
 31
0.0
  0
LINE
  5
39C
  8
MyLines
 10
37133.0
 20
60.0
 30
0.0
 11
37361.0
 21
60.0
 31
0.0
  0
LINE
  5
39D
  8
MyLines
 10
37133.0
 20
0.0
 30
0.0
 11
37361.0
 21
0.0
 31
0.0
  0
LINE
  5
39E
  8
MyLines
 10
37133.0
 20
0.0
 30
0.0
 11
37133.0
 21
60.0
 31
0.0
  0
LINE
  5
39F
  8
MyLines
 10
37361.0
 20
0.0
 30
0.0
 11
37361.0
 21
60.0
 31
0.0
  0
TEXT
  5
3A0
  8
MyLines
 62
1
 10
37134.0
 20
1.0
 30
0.0
 40
1.0
  1
7656- 228 * 60.0
 11
37134.0
 21
1.0
 31
0.0
  0
LINE
  5
3A1
  8
MyLines
 10
37363.0
 20
42.0
 30
0.0
 11
37643.0
 21
42.0
 31
0.0
  0
LINE
  5
3A2
  8
MyLines
 10
37363.0
 20
0.0
 30
0.0
 11
37643.0
 21
0.0
 31
0.0
  0
LINE
  5
3A3
  8
MyLines
 10
37363.0
 20
0.0
 30
0.0
 11
37363.0
 21
42.0
 31
0.0
  0
LINE
  5
3A4
  8
MyLines
 10
37643.0
 20
0.0
 30
0.0
 11
37643.0
 21
42.0
 31
0.0
  0
TEXT
  5
3A5
  8
MyLines
 62
1
 10
37364.0
 20
1.0
 30
0.0
 40
1.0
  1
7657- 280 * 42.0
 11
37364.0
 21
1.0
 31
0.0
  0
LINE
  5
3A6
  8
MyLines
 10
37645.0
 20
41.5
 30
0.0
 11
37877.0
 21
41.5
 31
0.0
  0
LINE
  5
3A7
  8
MyLines
 10
37645.0
 20
0.0
 30
0.0
 11
37877.0
 21
0.0
 31
0.0
  0
LINE
  5
3A8
  8
MyLines
 10
37645.0
 20
0.0
 30
0.0
 11
37645.0
 21
41.5
 31
0.0
  0
LINE
  5
3A9
  8
MyLines
 10
37877.0
 20
0.0
 30
0.0
 11
37877.0
 21
41.5
 31
0.0
  0
TEXT
  5
3AA
  8
MyLines
 62
1
 10
37646.0
 20
1.0
 30
0.0
 40
1.0
  1
7658- 232 * 41.5
 11
37646.0
 21
1.0
 31
0.0
  0
LINE
  5
3AB
  8
MyLines
 10
37879.0
 20
88.0
 30
0.0
 11
38059.0
 21
88.0
 31
0.0
  0
LINE
  5
3AC
  8
MyLines
 10
37879.0
 20
0.0
 30
0.0
 11
38059.0
 21
0.0
 31
0.0
  0
LINE
  5
3AD
  8
MyLines
 10
37879.0
 20
0.0
 30
0.0
 11
37879.0
 21
88.0
 31
0.0
  0
LINE
  5
3AE
  8
MyLines
 10
38059.0
 20
0.0
 30
0.0
 11
38059.0
 21
88.0
 31
0.0
  0
TEXT
  5
3AF
  8
MyLines
 62
1
 10
37880.0
 20
1.0
 30
0.0
 40
1.0
  1
7659- 180 * 88.0
 11
37880.0
 21
1.0
 31
0.0
  0
LINE
  5
3B0
  8
MyLines
 10
38061.0
 20
74.5
 30
0.0
 11
38349.0
 21
74.5
 31
0.0
  0
LINE
  5
3B1
  8
MyLines
 10
38061.0
 20
0.0
 30
0.0
 11
38349.0
 21
0.0
 31
0.0
  0
LINE
  5
3B2
  8
MyLines
 10
38061.0
 20
0.0
 30
0.0
 11
38061.0
 21
74.5
 31
0.0
  0
LINE
  5
3B3
  8
MyLines
 10
38349.0
 20
0.0
 30
0.0
 11
38349.0
 21
74.5
 31
0.0
  0
TEXT
  5
3B4
  8
MyLines
 62
1
 10
38062.0
 20
1.0
 30
0.0
 40
1.0
  1
7660- 288 * 74.5
 11
38062.0
 21
1.0
 31
0.0
  0
LINE
  5
3B5
  8
MyLines
 10
38351.0
 20
77.0
 30
0.0
 11
38645.0
 21
77.0
 31
0.0
  0
LINE
  5
3B6
  8
MyLines
 10
38351.0
 20
0.0
 30
0.0
 11
38645.0
 21
0.0
 31
0.0
  0
LINE
  5
3B7
  8
MyLines
 10
38351.0
 20
0.0
 30
0.0
 11
38351.0
 21
77.0
 31
0.0
  0
LINE
  5
3B8
  8
MyLines
 10
38645.0
 20
0.0
 30
0.0
 11
38645.0
 21
77.0
 31
0.0
  0
TEXT
  5
3B9
  8
MyLines
 62
1
 10
38352.0
 20
1.0
 30
0.0
 40
1.0
  1
7661- 294 * 77.0
 11
38352.0
 21
1.0
 31
0.0
  0
LINE
  5
3BA
  8
MyLines
 10
38647.0
 20
36.0
 30
0.0
 11
38903.0
 21
36.0
 31
0.0
  0
LINE
  5
3BB
  8
MyLines
 10
38647.0
 20
0.0
 30
0.0
 11
38903.0
 21
0.0
 31
0.0
  0
LINE
  5
3BC
  8
MyLines
 10
38647.0
 20
0.0
 30
0.0
 11
38647.0
 21
36.0
 31
0.0
  0
LINE
  5
3BD
  8
MyLines
 10
38903.0
 20
0.0
 30
0.0
 11
38903.0
 21
36.0
 31
0.0
  0
TEXT
  5
3BE
  8
MyLines
 62
1
 10
38648.0
 20
1.0
 30
0.0
 40
1.0
  1
7662- 256 * 36.0
 11
38648.0
 21
1.0
 31
0.0
  0
LINE
  5
3BF
  8
MyLines
 10
38905.0
 20
46.0
 30
0.0
 11
39082.0
 21
46.0
 31
0.0
  0
LINE
  5
3C0
  8
MyLines
 10
38905.0
 20
0.0
 30
0.0
 11
39082.0
 21
0.0
 31
0.0
  0
LINE
  5
3C1
  8
MyLines
 10
38905.0
 20
0.0
 30
0.0
 11
38905.0
 21
46.0
 31
0.0
  0
LINE
  5
3C2
  8
MyLines
 10
39082.0
 20
0.0
 30
0.0
 11
39082.0
 21
46.0
 31
0.0
  0
TEXT
  5
3C3
  8
MyLines
 62
1
 10
38906.0
 20
1.0
 30
0.0
 40
1.0
  1
7663- 177 * 46.0
 11
38906.0
 21
1.0
 31
0.0
  0
LINE
  5
3C4
  8
MyLines
 10
39084.0
 20
48.5
 30
0.0
 11
39350.0
 21
48.5
 31
0.0
  0
LINE
  5
3C5
  8
MyLines
 10
39084.0
 20
0.0
 30
0.0
 11
39350.0
 21
0.0
 31
0.0
  0
LINE
  5
3C6
  8
MyLines
 10
39084.0
 20
0.0
 30
0.0
 11
39084.0
 21
48.5
 31
0.0
  0
LINE
  5
3C7
  8
MyLines
 10
39350.0
 20
0.0
 30
0.0
 11
39350.0
 21
48.5
 31
0.0
  0
TEXT
  5
3C8
  8
MyLines
 62
1
 10
39085.0
 20
1.0
 30
0.0
 40
1.0
  1
7664- 266 * 48.5
 11
39085.0
 21
1.0
 31
0.0
  0
LINE
  5
3C9
  8
MyLines
 10
39352.0
 20
70.0
 30
0.0
 11
39595.0
 21
70.0
 31
0.0
  0
LINE
  5
3CA
  8
MyLines
 10
39352.0
 20
0.0
 30
0.0
 11
39595.0
 21
0.0
 31
0.0
  0
LINE
  5
3CB
  8
MyLines
 10
39352.0
 20
0.0
 30
0.0
 11
39352.0
 21
70.0
 31
0.0
  0
LINE
  5
3CC
  8
MyLines
 10
39595.0
 20
0.0
 30
0.0
 11
39595.0
 21
70.0
 31
0.0
  0
TEXT
  5
3CD
  8
MyLines
 62
1
 10
39353.0
 20
1.0
 30
0.0
 40
1.0
  1
7665- 243 * 70.0
 11
39353.0
 21
1.0
 31
0.0
  0
LINE
  5
3CE
  8
MyLines
 10
39597.0
 20
84.5
 30
0.0
 11
39894.0
 21
84.5
 31
0.0
  0
LINE
  5
3CF
  8
MyLines
 10
39597.0
 20
0.0
 30
0.0
 11
39894.0
 21
0.0
 31
0.0
  0
LINE
  5
3D0
  8
MyLines
 10
39597.0
 20
0.0
 30
0.0
 11
39597.0
 21
84.5
 31
0.0
  0
LINE
  5
3D1
  8
MyLines
 10
39894.0
 20
0.0
 30
0.0
 11
39894.0
 21
84.5
 31
0.0
  0
TEXT
  5
3D2
  8
MyLines
 62
1
 10
39598.0
 20
1.0
 30
0.0
 40
1.0
  1
7666- 297 * 84.5
 11
39598.0
 21
1.0
 31
0.0
  0
LINE
  5
3D3
  8
MyLines
 10
39896.0
 20
87.5
 30
0.0
 11
40133.0
 21
87.5
 31
0.0
  0
LINE
  5
3D4
  8
MyLines
 10
39896.0
 20
0.0
 30
0.0
 11
40133.0
 21
0.0
 31
0.0
  0
LINE
  5
3D5
  8
MyLines
 10
39896.0
 20
0.0
 30
0.0
 11
39896.0
 21
87.5
 31
0.0
  0
LINE
  5
3D6
  8
MyLines
 10
40133.0
 20
0.0
 30
0.0
 11
40133.0
 21
87.5
 31
0.0
  0
TEXT
  5
3D7
  8
MyLines
 62
1
 10
39897.0
 20
1.0
 30
0.0
 40
1.0
  1
7667- 237 * 87.5
 11
39897.0
 21
1.0
 31
0.0
  0
LINE
  5
3D8
  8
MyLines
 10
40135.0
 20
45.0
 30
0.0
 11
40315.0
 21
45.0
 31
0.0
  0
LINE
  5
3D9
  8
MyLines
 10
40135.0
 20
0.0
 30
0.0
 11
40315.0
 21
0.0
 31
0.0
  0
LINE
  5
3DA
  8
MyLines
 10
40135.0
 20
0.0
 30
0.0
 11
40135.0
 21
45.0
 31
0.0
  0
LINE
  5
3DB
  8
MyLines
 10
40315.0
 20
0.0
 30
0.0
 11
40315.0
 21
45.0
 31
0.0
  0
TEXT
  5
3DC
  8
MyLines
 62
1
 10
40136.0
 20
1.0
 30
0.0
 40
1.0
  1
7668- 180 * 45.0
 11
40136.0
 21
1.0
 31
0.0
  0
LINE
  5
3DD
  8
MyLines
 10
40317.0
 20
65.5
 30
0.0
 11
40589.0
 21
65.5
 31
0.0
  0
LINE
  5
3DE
  8
MyLines
 10
40317.0
 20
0.0
 30
0.0
 11
40589.0
 21
0.0
 31
0.0
  0
LINE
  5
3DF
  8
MyLines
 10
40317.0
 20
0.0
 30
0.0
 11
40317.0
 21
65.5
 31
0.0
  0
LINE
  5
3E0
  8
MyLines
 10
40589.0
 20
0.0
 30
0.0
 11
40589.0
 21
65.5
 31
0.0
  0
TEXT
  5
3E1
  8
MyLines
 62
1
 10
40318.0
 20
1.0
 30
0.0
 40
1.0
  1
7669- 272 * 65.5
 11
40318.0
 21
1.0
 31
0.0
  0
LINE
  5
3E2
  8
MyLines
 10
40591.0
 20
70.0
 30
0.0
 11
40861.0
 21
70.0
 31
0.0
  0
LINE
  5
3E3
  8
MyLines
 10
40591.0
 20
0.0
 30
0.0
 11
40861.0
 21
0.0
 31
0.0
  0
LINE
  5
3E4
  8
MyLines
 10
40591.0
 20
0.0
 30
0.0
 11
40591.0
 21
70.0
 31
0.0
  0
LINE
  5
3E5
  8
MyLines
 10
40861.0
 20
0.0
 30
0.0
 11
40861.0
 21
70.0
 31
0.0
  0
TEXT
  5
3E6
  8
MyLines
 62
1
 10
40592.0
 20
1.0
 30
0.0
 40
1.0
  1
7670- 270 * 70.0
 11
40592.0
 21
1.0
 31
0.0
  0
LINE
  5
3E7
  8
MyLines
 10
40863.0
 20
42.0
 30
0.0
 11
41048.0
 21
42.0
 31
0.0
  0
LINE
  5
3E8
  8
MyLines
 10
40863.0
 20
0.0
 30
0.0
 11
41048.0
 21
0.0
 31
0.0
  0
LINE
  5
3E9
  8
MyLines
 10
40863.0
 20
0.0
 30
0.0
 11
40863.0
 21
42.0
 31
0.0
  0
LINE
  5
3EA
  8
MyLines
 10
41048.0
 20
0.0
 30
0.0
 11
41048.0
 21
42.0
 31
0.0
  0
TEXT
  5
3EB
  8
MyLines
 62
1
 10
40864.0
 20
1.0
 30
0.0
 40
1.0
  1
7671- 185 * 42.0
 11
40864.0
 21
1.0
 31
0.0
  0
LINE
  5
3EC
  8
MyLines
 10
41050.0
 20
63.0
 30
0.0
 11
41338.0
 21
63.0
 31
0.0
  0
LINE
  5
3ED
  8
MyLines
 10
41050.0
 20
0.0
 30
0.0
 11
41338.0
 21
0.0
 31
0.0
  0
LINE
  5
3EE
  8
MyLines
 10
41050.0
 20
0.0
 30
0.0
 11
41050.0
 21
63.0
 31
0.0
  0
LINE
  5
3EF
  8
MyLines
 10
41338.0
 20
0.0
 30
0.0
 11
41338.0
 21
63.0
 31
0.0
  0
TEXT
  5
3F0
  8
MyLines
 62
1
 10
41051.0
 20
1.0
 30
0.0
 40
1.0
  1
7672- 288 * 63.0
 11
41051.0
 21
1.0
 31
0.0
  0
LINE
  5
3F1
  8
MyLines
 10
41340.0
 20
49.0
 30
0.0
 11
41554.0
 21
49.0
 31
0.0
  0
LINE
  5
3F2
  8
MyLines
 10
41340.0
 20
0.0
 30
0.0
 11
41554.0
 21
0.0
 31
0.0
  0
LINE
  5
3F3
  8
MyLines
 10
41340.0
 20
0.0
 30
0.0
 11
41340.0
 21
49.0
 31
0.0
  0
LINE
  5
3F4
  8
MyLines
 10
41554.0
 20
0.0
 30
0.0
 11
41554.0
 21
49.0
 31
0.0
  0
TEXT
  5
3F5
  8
MyLines
 62
1
 10
41341.0
 20
1.0
 30
0.0
 40
1.0
  1
7673- 214 * 49.0
 11
41341.0
 21
1.0
 31
0.0
  0
LINE
  5
3F6
  8
MyLines
 10
41556.0
 20
53.5
 30
0.0
 11
41765.0
 21
53.5
 31
0.0
  0
LINE
  5
3F7
  8
MyLines
 10
41556.0
 20
0.0
 30
0.0
 11
41765.0
 21
0.0
 31
0.0
  0
LINE
  5
3F8
  8
MyLines
 10
41556.0
 20
0.0
 30
0.0
 11
41556.0
 21
53.5
 31
0.0
  0
LINE
  5
3F9
  8
MyLines
 10
41765.0
 20
0.0
 30
0.0
 11
41765.0
 21
53.5
 31
0.0
  0
TEXT
  5
3FA
  8
MyLines
 62
1
 10
41557.0
 20
1.0
 30
0.0
 40
1.0
  1
7674- 209 * 53.5
 11
41557.0
 21
1.0
 31
0.0
  0
LINE
  5
3FB
  8
MyLines
 10
41767.0
 20
41.5
 30
0.0
 11
42046.0
 21
41.5
 31
0.0
  0
LINE
  5
3FC
  8
MyLines
 10
41767.0
 20
0.0
 30
0.0
 11
42046.0
 21
0.0
 31
0.0
  0
LINE
  5
3FD
  8
MyLines
 10
41767.0
 20
0.0
 30
0.0
 11
41767.0
 21
41.5
 31
0.0
  0
LINE
  5
3FE
  8
MyLines
 10
42046.0
 20
0.0
 30
0.0
 11
42046.0
 21
41.5
 31
0.0
  0
TEXT
  5
3FF
  8
MyLines
 62
1
 10
41768.0
 20
1.0
 30
0.0
 40
1.0
  1
7675- 279 * 41.5
 11
41768.0
 21
1.0
 31
0.0
  0
LINE
  5
400
  8
MyLines
 10
42048.0
 20
40.0
 30
0.0
 11
42245.0
 21
40.0
 31
0.0
  0
LINE
  5
401
  8
MyLines
 10
42048.0
 20
0.0
 30
0.0
 11
42245.0
 21
0.0
 31
0.0
  0
LINE
  5
402
  8
MyLines
 10
42048.0
 20
0.0
 30
0.0
 11
42048.0
 21
40.0
 31
0.0
  0
LINE
  5
403
  8
MyLines
 10
42245.0
 20
0.0
 30
0.0
 11
42245.0
 21
40.0
 31
0.0
  0
TEXT
  5
404
  8
MyLines
 62
1
 10
42049.0
 20
1.0
 30
0.0
 40
1.0
  1
7676- 197 * 40.0
 11
42049.0
 21
1.0
 31
0.0
  0
LINE
  5
405
  8
MyLines
 10
42247.0
 20
81.5
 30
0.0
 11
42522.0
 21
81.5
 31
0.0
  0
LINE
  5
406
  8
MyLines
 10
42247.0
 20
0.0
 30
0.0
 11
42522.0
 21
0.0
 31
0.0
  0
LINE
  5
407
  8
MyLines
 10
42247.0
 20
0.0
 30
0.0
 11
42247.0
 21
81.5
 31
0.0
  0
LINE
  5
408
  8
MyLines
 10
42522.0
 20
0.0
 30
0.0
 11
42522.0
 21
81.5
 31
0.0
  0
TEXT
  5
409
  8
MyLines
 62
1
 10
42248.0
 20
1.0
 30
0.0
 40
1.0
  1
7677- 275 * 81.5
 11
42248.0
 21
1.0
 31
0.0
  0
LINE
  5
40A
  8
MyLines
 10
42524.0
 20
55.5
 30
0.0
 11
42756.0
 21
55.5
 31
0.0
  0
LINE
  5
40B
  8
MyLines
 10
42524.0
 20
0.0
 30
0.0
 11
42756.0
 21
0.0
 31
0.0
  0
LINE
  5
40C
  8
MyLines
 10
42524.0
 20
0.0
 30
0.0
 11
42524.0
 21
55.5
 31
0.0
  0
LINE
  5
40D
  8
MyLines
 10
42756.0
 20
0.0
 30
0.0
 11
42756.0
 21
55.5
 31
0.0
  0
TEXT
  5
40E
  8
MyLines
 62
1
 10
42525.0
 20
1.0
 30
0.0
 40
1.0
  1
7678- 232 * 55.5
 11
42525.0
 21
1.0
 31
0.0
  0
LINE
  5
40F
  8
MyLines
 10
42758.0
 20
38.5
 30
0.0
 11
42987.0
 21
38.5
 31
0.0
  0
LINE
  5
410
  8
MyLines
 10
42758.0
 20
0.0
 30
0.0
 11
42987.0
 21
0.0
 31
0.0
  0
LINE
  5
411
  8
MyLines
 10
42758.0
 20
0.0
 30
0.0
 11
42758.0
 21
38.5
 31
0.0
  0
LINE
  5
412
  8
MyLines
 10
42987.0
 20
0.0
 30
0.0
 11
42987.0
 21
38.5
 31
0.0
  0
TEXT
  5
413
  8
MyLines
 62
1
 10
42759.0
 20
1.0
 30
0.0
 40
1.0
  1
7679- 229 * 38.5
 11
42759.0
 21
1.0
 31
0.0
  0
LINE
  5
414
  8
MyLines
 10
42989.0
 20
65.5
 30
0.0
 11
43170.0
 21
65.5
 31
0.0
  0
LINE
  5
415
  8
MyLines
 10
42989.0
 20
0.0
 30
0.0
 11
43170.0
 21
0.0
 31
0.0
  0
LINE
  5
416
  8
MyLines
 10
42989.0
 20
0.0
 30
0.0
 11
42989.0
 21
65.5
 31
0.0
  0
LINE
  5
417
  8
MyLines
 10
43170.0
 20
0.0
 30
0.0
 11
43170.0
 21
65.5
 31
0.0
  0
TEXT
  5
418
  8
MyLines
 62
1
 10
42990.0
 20
1.0
 30
0.0
 40
1.0
  1
7680- 181 * 65.5
 11
42990.0
 21
1.0
 31
0.0
  0
LINE
  5
419
  8
MyLines
 10
43172.0
 20
72.5
 30
0.0
 11
43353.0
 21
72.5
 31
0.0
  0
LINE
  5
41A
  8
MyLines
 10
43172.0
 20
0.0
 30
0.0
 11
43353.0
 21
0.0
 31
0.0
  0
LINE
  5
41B
  8
MyLines
 10
43172.0
 20
0.0
 30
0.0
 11
43172.0
 21
72.5
 31
0.0
  0
LINE
  5
41C
  8
MyLines
 10
43353.0
 20
0.0
 30
0.0
 11
43353.0
 21
72.5
 31
0.0
  0
TEXT
  5
41D
  8
MyLines
 62
1
 10
43173.0
 20
1.0
 30
0.0
 40
1.0
  1
7681- 181 * 72.5
 11
43173.0
 21
1.0
 31
0.0
  0
LINE
  5
41E
  8
MyLines
 10
43355.0
 20
82.0
 30
0.0
 11
43532.0
 21
82.0
 31
0.0
  0
LINE
  5
41F
  8
MyLines
 10
43355.0
 20
0.0
 30
0.0
 11
43532.0
 21
0.0
 31
0.0
  0
LINE
  5
420
  8
MyLines
 10
43355.0
 20
0.0
 30
0.0
 11
43355.0
 21
82.0
 31
0.0
  0
LINE
  5
421
  8
MyLines
 10
43532.0
 20
0.0
 30
0.0
 11
43532.0
 21
82.0
 31
0.0
  0
TEXT
  5
422
  8
MyLines
 62
1
 10
43356.0
 20
1.0
 30
0.0
 40
1.0
  1
7682- 177 * 82.0
 11
43356.0
 21
1.0
 31
0.0
  0
LINE
  5
423
  8
MyLines
 10
43534.0
 20
63.5
 30
0.0
 11
43716.0
 21
63.5
 31
0.0
  0
LINE
  5
424
  8
MyLines
 10
43534.0
 20
0.0
 30
0.0
 11
43716.0
 21
0.0
 31
0.0
  0
LINE
  5
425
  8
MyLines
 10
43534.0
 20
0.0
 30
0.0
 11
43534.0
 21
63.5
 31
0.0
  0
LINE
  5
426
  8
MyLines
 10
43716.0
 20
0.0
 30
0.0
 11
43716.0
 21
63.5
 31
0.0
  0
TEXT
  5
427
  8
MyLines
 62
1
 10
43535.0
 20
1.0
 30
0.0
 40
1.0
  1
7683- 182 * 63.5
 11
43535.0
 21
1.0
 31
0.0
  0
LINE
  5
428
  8
MyLines
 10
43718.0
 20
87.0
 30
0.0
 11
44004.0
 21
87.0
 31
0.0
  0
LINE
  5
429
  8
MyLines
 10
43718.0
 20
0.0
 30
0.0
 11
44004.0
 21
0.0
 31
0.0
  0
LINE
  5
42A
  8
MyLines
 10
43718.0
 20
0.0
 30
0.0
 11
43718.0
 21
87.0
 31
0.0
  0
LINE
  5
42B
  8
MyLines
 10
44004.0
 20
0.0
 30
0.0
 11
44004.0
 21
87.0
 31
0.0
  0
TEXT
  5
42C
  8
MyLines
 62
1
 10
43719.0
 20
1.0
 30
0.0
 40
1.0
  1
7684- 286 * 87.0
 11
43719.0
 21
1.0
 31
0.0
  0
LINE
  5
42D
  8
MyLines
 10
44006.0
 20
35.5
 30
0.0
 11
44205.0
 21
35.5
 31
0.0
  0
LINE
  5
42E
  8
MyLines
 10
44006.0
 20
0.0
 30
0.0
 11
44205.0
 21
0.0
 31
0.0
  0
LINE
  5
42F
  8
MyLines
 10
44006.0
 20
0.0
 30
0.0
 11
44006.0
 21
35.5
 31
0.0
  0
LINE
  5
430
  8
MyLines
 10
44205.0
 20
0.0
 30
0.0
 11
44205.0
 21
35.5
 31
0.0
  0
TEXT
  5
431
  8
MyLines
 62
1
 10
44007.0
 20
1.0
 30
0.0
 40
1.0
  1
7685- 199 * 35.5
 11
44007.0
 21
1.0
 31
0.0
  0
LINE
  5
432
  8
MyLines
 10
44207.0
 20
61.5
 30
0.0
 11
44428.0
 21
61.5
 31
0.0
  0
LINE
  5
433
  8
MyLines
 10
44207.0
 20
0.0
 30
0.0
 11
44428.0
 21
0.0
 31
0.0
  0
LINE
  5
434
  8
MyLines
 10
44207.0
 20
0.0
 30
0.0
 11
44207.0
 21
61.5
 31
0.0
  0
LINE
  5
435
  8
MyLines
 10
44428.0
 20
0.0
 30
0.0
 11
44428.0
 21
61.5
 31
0.0
  0
TEXT
  5
436
  8
MyLines
 62
1
 10
44208.0
 20
1.0
 30
0.0
 40
1.0
  1
7686- 221 * 61.5
 11
44208.0
 21
1.0
 31
0.0
  0
LINE
  5
437
  8
MyLines
 10
44430.0
 20
36.5
 30
0.0
 11
44683.0
 21
36.5
 31
0.0
  0
LINE
  5
438
  8
MyLines
 10
44430.0
 20
0.0
 30
0.0
 11
44683.0
 21
0.0
 31
0.0
  0
LINE
  5
439
  8
MyLines
 10
44430.0
 20
0.0
 30
0.0
 11
44430.0
 21
36.5
 31
0.0
  0
LINE
  5
43A
  8
MyLines
 10
44683.0
 20
0.0
 30
0.0
 11
44683.0
 21
36.5
 31
0.0
  0
TEXT
  5
43B
  8
MyLines
 62
1
 10
44431.0
 20
1.0
 30
0.0
 40
1.0
  1
7687- 253 * 36.5
 11
44431.0
 21
1.0
 31
0.0
  0
LINE
  5
43C
  8
MyLines
 10
44685.0
 20
48.5
 30
0.0
 11
44918.0
 21
48.5
 31
0.0
  0
LINE
  5
43D
  8
MyLines
 10
44685.0
 20
0.0
 30
0.0
 11
44918.0
 21
0.0
 31
0.0
  0
LINE
  5
43E
  8
MyLines
 10
44685.0
 20
0.0
 30
0.0
 11
44685.0
 21
48.5
 31
0.0
  0
LINE
  5
43F
  8
MyLines
 10
44918.0
 20
0.0
 30
0.0
 11
44918.0
 21
48.5
 31
0.0
  0
TEXT
  5
440
  8
MyLines
 62
1
 10
44686.0
 20
1.0
 30
0.0
 40
1.0
  1
7688- 233 * 48.5
 11
44686.0
 21
1.0
 31
0.0
  0
LINE
  5
441
  8
MyLines
 10
44920.0
 20
47.0
 30
0.0
 11
45170.0
 21
47.0
 31
0.0
  0
LINE
  5
442
  8
MyLines
 10
44920.0
 20
0.0
 30
0.0
 11
45170.0
 21
0.0
 31
0.0
  0
LINE
  5
443
  8
MyLines
 10
44920.0
 20
0.0
 30
0.0
 11
44920.0
 21
47.0
 31
0.0
  0
LINE
  5
444
  8
MyLines
 10
45170.0
 20
0.0
 30
0.0
 11
45170.0
 21
47.0
 31
0.0
  0
TEXT
  5
445
  8
MyLines
 62
1
 10
44921.0
 20
1.0
 30
0.0
 40
1.0
  1
7689- 250 * 47.0
 11
44921.0
 21
1.0
 31
0.0
  0
LINE
  5
446
  8
MyLines
 10
45172.0
 20
51.0
 30
0.0
 11
45459.0
 21
51.0
 31
0.0
  0
LINE
  5
447
  8
MyLines
 10
45172.0
 20
0.0
 30
0.0
 11
45459.0
 21
0.0
 31
0.0
  0
LINE
  5
448
  8
MyLines
 10
45172.0
 20
0.0
 30
0.0
 11
45172.0
 21
51.0
 31
0.0
  0
LINE
  5
449
  8
MyLines
 10
45459.0
 20
0.0
 30
0.0
 11
45459.0
 21
51.0
 31
0.0
  0
TEXT
  5
44A
  8
MyLines
 62
1
 10
45173.0
 20
1.0
 30
0.0
 40
1.0
  1
7690- 287 * 51.0
 11
45173.0
 21
1.0
 31
0.0
  0
LINE
  5
44B
  8
MyLines
 10
45461.0
 20
41.5
 30
0.0
 11
45730.0
 21
41.5
 31
0.0
  0
LINE
  5
44C
  8
MyLines
 10
45461.0
 20
0.0
 30
0.0
 11
45730.0
 21
0.0
 31
0.0
  0
LINE
  5
44D
  8
MyLines
 10
45461.0
 20
0.0
 30
0.0
 11
45461.0
 21
41.5
 31
0.0
  0
LINE
  5
44E
  8
MyLines
 10
45730.0
 20
0.0
 30
0.0
 11
45730.0
 21
41.5
 31
0.0
  0
TEXT
  5
44F
  8
MyLines
 62
1
 10
45462.0
 20
1.0
 30
0.0
 40
1.0
  1
7691- 269 * 41.5
 11
45462.0
 21
1.0
 31
0.0
  0
LINE
  5
450
  8
MyLines
 10
45732.0
 20
39.5
 30
0.0
 11
46010.0
 21
39.5
 31
0.0
  0
LINE
  5
451
  8
MyLines
 10
45732.0
 20
0.0
 30
0.0
 11
46010.0
 21
0.0
 31
0.0
  0
LINE
  5
452
  8
MyLines
 10
45732.0
 20
0.0
 30
0.0
 11
45732.0
 21
39.5
 31
0.0
  0
LINE
  5
453
  8
MyLines
 10
46010.0
 20
0.0
 30
0.0
 11
46010.0
 21
39.5
 31
0.0
  0
TEXT
  5
454
  8
MyLines
 62
1
 10
45733.0
 20
1.0
 30
0.0
 40
1.0
  1
7692- 278 * 39.5
 11
45733.0
 21
1.0
 31
0.0
  0
LINE
  5
455
  8
MyLines
 10
46012.0
 20
85.0
 30
0.0
 11
46267.0
 21
85.0
 31
0.0
  0
LINE
  5
456
  8
MyLines
 10
46012.0
 20
0.0
 30
0.0
 11
46267.0
 21
0.0
 31
0.0
  0
LINE
  5
457
  8
MyLines
 10
46012.0
 20
0.0
 30
0.0
 11
46012.0
 21
85.0
 31
0.0
  0
LINE
  5
458
  8
MyLines
 10
46267.0
 20
0.0
 30
0.0
 11
46267.0
 21
85.0
 31
0.0
  0
TEXT
  5
459
  8
MyLines
 62
1
 10
46013.0
 20
1.0
 30
0.0
 40
1.0
  1
7693- 255 * 85.0
 11
46013.0
 21
1.0
 31
0.0
  0
LINE
  5
45A
  8
MyLines
 10
46269.0
 20
54.0
 30
0.0
 11
46536.0
 21
54.0
 31
0.0
  0
LINE
  5
45B
  8
MyLines
 10
46269.0
 20
0.0
 30
0.0
 11
46536.0
 21
0.0
 31
0.0
  0
LINE
  5
45C
  8
MyLines
 10
46269.0
 20
0.0
 30
0.0
 11
46269.0
 21
54.0
 31
0.0
  0
LINE
  5
45D
  8
MyLines
 10
46536.0
 20
0.0
 30
0.0
 11
46536.0
 21
54.0
 31
0.0
  0
TEXT
  5
45E
  8
MyLines
 62
1
 10
46270.0
 20
1.0
 30
0.0
 40
1.0
  1
7694- 267 * 54.0
 11
46270.0
 21
1.0
 31
0.0
  0
LINE
  5
45F
  8
MyLines
 10
46538.0
 20
88.5
 30
0.0
 11
46799.0
 21
88.5
 31
0.0
  0
LINE
  5
460
  8
MyLines
 10
46538.0
 20
0.0
 30
0.0
 11
46799.0
 21
0.0
 31
0.0
  0
LINE
  5
461
  8
MyLines
 10
46538.0
 20
0.0
 30
0.0
 11
46538.0
 21
88.5
 31
0.0
  0
LINE
  5
462
  8
MyLines
 10
46799.0
 20
0.0
 30
0.0
 11
46799.0
 21
88.5
 31
0.0
  0
TEXT
  5
463
  8
MyLines
 62
1
 10
46539.0
 20
1.0
 30
0.0
 40
1.0
  1
7695- 261 * 88.5
 11
46539.0
 21
1.0
 31
0.0
  0
LINE
  5
464
  8
MyLines
 10
46801.0
 20
83.5
 30
0.0
 11
47030.0
 21
83.5
 31
0.0
  0
LINE
  5
465
  8
MyLines
 10
46801.0
 20
0.0
 30
0.0
 11
47030.0
 21
0.0
 31
0.0
  0
LINE
  5
466
  8
MyLines
 10
46801.0
 20
0.0
 30
0.0
 11
46801.0
 21
83.5
 31
0.0
  0
LINE
  5
467
  8
MyLines
 10
47030.0
 20
0.0
 30
0.0
 11
47030.0
 21
83.5
 31
0.0
  0
TEXT
  5
468
  8
MyLines
 62
1
 10
46802.0
 20
1.0
 30
0.0
 40
1.0
  1
7696- 229 * 83.5
 11
46802.0
 21
1.0
 31
0.0
  0
LINE
  5
469
  8
MyLines
 10
47032.0
 20
83.0
 30
0.0
 11
47234.0
 21
83.0
 31
0.0
  0
LINE
  5
46A
  8
MyLines
 10
47032.0
 20
0.0
 30
0.0
 11
47234.0
 21
0.0
 31
0.0
  0
LINE
  5
46B
  8
MyLines
 10
47032.0
 20
0.0
 30
0.0
 11
47032.0
 21
83.0
 31
0.0
  0
LINE
  5
46C
  8
MyLines
 10
47234.0
 20
0.0
 30
0.0
 11
47234.0
 21
83.0
 31
0.0
  0
TEXT
  5
46D
  8
MyLines
 62
1
 10
47033.0
 20
1.0
 30
0.0
 40
1.0
  1
7697- 202 * 83.0
 11
47033.0
 21
1.0
 31
0.0
  0
LINE
  5
46E
  8
MyLines
 10
47236.0
 20
70.5
 30
0.0
 11
47512.0
 21
70.5
 31
0.0
  0
LINE
  5
46F
  8
MyLines
 10
47236.0
 20
0.0
 30
0.0
 11
47512.0
 21
0.0
 31
0.0
  0
LINE
  5
470
  8
MyLines
 10
47236.0
 20
0.0
 30
0.0
 11
47236.0
 21
70.5
 31
0.0
  0
LINE
  5
471
  8
MyLines
 10
47512.0
 20
0.0
 30
0.0
 11
47512.0
 21
70.5
 31
0.0
  0
TEXT
  5
472
  8
MyLines
 62
1
 10
47237.0
 20
1.0
 30
0.0
 40
1.0
  1
7698- 276 * 70.5
 11
47237.0
 21
1.0
 31
0.0
  0
LINE
  5
473
  8
MyLines
 10
47514.0
 20
86.5
 30
0.0
 11
47720.0
 21
86.5
 31
0.0
  0
LINE
  5
474
  8
MyLines
 10
47514.0
 20
0.0
 30
0.0
 11
47720.0
 21
0.0
 31
0.0
  0
LINE
  5
475
  8
MyLines
 10
47514.0
 20
0.0
 30
0.0
 11
47514.0
 21
86.5
 31
0.0
  0
LINE
  5
476
  8
MyLines
 10
47720.0
 20
0.0
 30
0.0
 11
47720.0
 21
86.5
 31
0.0
  0
TEXT
  5
477
  8
MyLines
 62
1
 10
47515.0
 20
1.0
 30
0.0
 40
1.0
  1
7699- 206 * 86.5
 11
47515.0
 21
1.0
 31
0.0
  0
ENDSEC
  0
EOF
