  0
SECTION
  2
HEADER
  9
$ACADVER
  1
AC1009
  9
$DWGCODEPAGE
  3
ANSI_1252
  9
$INSBASE
 10
0.0
 20
0.0
 30
0.0
  9
$EXTMIN
 10
-100
 20
-100
 30
-100
  9
$EXTMAX
 10
100
 20
100
 30
100
  9
$LIMMIN
 10
0.0
 20
0.0
  9
$LIMMAX
 10
420.0
 20
297.0
  9
$ORTHOMODE
 70
0
  9
$REGENMODE
 70
1
  9
$DRAGMODE
 70
2
  9
$FILLMODE
 70
1
  9
$QTEXTMODE
 70
0
  9
$MIRRTEXT
 70
1
  9
$OSMODE
 70
20583
  9
$LTSCALE
 40
1.0
  9
$ATTMODE
 70
1
  9
$TEXTSIZE
 40
2.5
  9
$TRACEWID
 40
1.0
  9
$TEXTSTYLE
  7
OpenSans
  9
$CLAYER
  8
0
  9
$CELTYPE
  6
ByLayer
  9
$CECOLOR
 62
256
  9
$DIMSCALE
 40
1.0
  9
$DIMASZ
 40
0.175
  9
$DIMEXO
 40
0.125
  9
$DIMDLI
 40
3.75
  9
$DIMRND
 40
0.0
  9
$DIMDLE
 40
0.0
  9
$DIMEXE
 40
0.375
  9
$DIMTP
 40
0.0
  9
$DIMTM
 40
0.0
  9
$DIMTXT
 40
0.25
  9
$DIMCEN
 40
2.5
  9
$DIMTSZ
 40
0.0
  9
$DIMTOL
 70
0
  9
$DIMLIM
 70
0
  9
$DIMTIH
 70
0
  9
$DIMTOH
 70
0
  9
$DIMSE1
 70
0
  9
$DIMSE2
 70
0
  9
$DIMTAD
 70
1
  9
$DIMZIN
 70
8
  9
$DIMBLK
  1
ARCHTICK
  9
$DIMASO
 70
1
  9
$DIMSHO
 70
1
  9
$DIMPOST
  1

  9
$DIMAPOST
  1

  9
$DIMALT
 70
0
  9
$DIMALTD
 70
3
  9
$DIMALTF
 40
0.03937007874
  9
$DIMLFAC
 40
100.0
  9
$DIMTOFL
 70
1
  9
$DIMTVP
 40
0.0
  9
$DIMTIX
 70
0
  9
$DIMSOXD
 70
0
  9
$DIMSAH
 70
0
  9
$DIMBLK1
  1

  9
$DIMBLK2
  1

  9
$DIMSTYLE
  2
EZDXF
  9
$DIMCLRD
 70
0
  9
$DIMCLRE
 70
0
  9
$DIMCLRT
 70
0
  9
$DIMTFAC
 40
1.0
  9
$DIMGAP
 40
0.1
  9
$COORDS
 70
1
  9
$ATTDIA
 70
0
  9
$ATTREQ
 70
1
  9
$HANDLING
 70
1
  9
$LUNITS
 70
2
  9
$LUPREC
 70
4
  9
$SKETCHINC
 40
1.0
  9
$FILLETRAD
 40
10.0
  9
$AUNITS
 70
0
  9
$AUPREC
 70
2
  9
$MENU
  1
.
  9
$ELEVATION
 40
0.0
  9
$PELEVATION
 40
0.0
  9
$THICKNESS
 40
0.0
  9
$LIMCHECK
 70
0
  9
$CHAMFERA
 40
0.0
  9
$CHAMFERB
 40
0.0
  9
$SKPOLY
 70
0
  9
$TDCREATE
 40
2458914.8051736113
  9
$TDUPDATE
 40
2458914.8051736113
  9
$TDINDWG
 40
0.0
  9
$TDUSRTIMER
 40
0.0
  9
$USRTIMER
 70
1
  9
$ANGBASE
 50
0.0
  9
$ANGDIR
 70
0
  9
$PDMODE
 70
0
  9
$PDSIZE
 40
0.0
  9
$PLINEWID
 40
0.0
  9
$SPLFRAME
 70
0
  9
$SPLINETYPE
 70
6
  9
$SPLINESEGS
 70
8
  9
$HANDSEED
  5
608
  9
$SURFTAB1
 70
6
  9
$SURFTAB2
 70
6
  9
$SURFTYPE
 70
6
  9
$SURFU
 70
6
  9
$SURFV
 70
6
  9
$UCSNAME
  2

  9
$UCSORG
 10
0.0
 20
0.0
 30
0.0
  9
$UCSXDIR
 10
1.0
 20
0.0
 30
0.0
  9
$UCSYDIR
 10
0.0
 20
1.0
 30
0.0
  9
$PUCSNAME
  2

  9
$PUCSORG
 10
0.0
 20
0.0
 30
0.0
  9
$PUCSXDIR
 10
1.0
 20
0.0
 30
0.0
  9
$PUCSYDIR
 10
0.0
 20
1.0
 30
0.0
  9
$USERI1
 70
0
  9
$USERI2
 70
0
  9
$USERI3
 70
0
  9
$USERI4
 70
0
  9
$USERI5
 70
0
  9
$USERR1
 40
0.0
  9
$USERR2
 40
0.0
  9
$USERR3
 40
0.0
  9
$USERR4
 40
0.0
  9
$USERR5
 40
0.0
  9
$WORLDVIEW
 70
1
  9
$SHADEDGE
 70
3
  9
$SHADEDIF
 70
70
  9
$TILEMODE
 70
1
  9
$MAXACTVP
 70
64
  9
$PLIMCHECK
 70
0
  9
$PEXTMIN
 10
1e+20
 20
1e+20
 30
1e+20
  9
$PEXTMAX
 10
-1e+20
 20
-1e+20
 30
-1e+20
  9
$PLIMMIN
 10
0.0
 20
0.0
  9
$PLIMMAX
 10
420.0
 20
297.0
  9
$UNITMODE
 70
0
  9
$VISRETAIN
 70
1
  9
$PLINEGEN
 70
0
  9
$PSLTSCALE
 70
1
  0
ENDSEC
  0
SECTION
  2
TABLES
  0
TABLE
  2
VPORT
 70
1
  0
VPORT
  5
23
  2
*Active
 70
0
 10
0.0
 20
0.0
 11
1.0
 21
1.0
 12
70.0
 22
50.0
 13
0.0
 23
0.0
 14
0.5
 24
0.5
 15
0.5
 25
0.5
 16
0.0
 26
0.0
 36
1.0
 17
0.0
 27
0.0
 37
0.0
 40
1.0
 41
1.34
 42
50.0
 43
0.0
 44
0.0
 50
0.0
 51
0.0
 71
0
 72
1000
 73
1
 74
3
 75
0
 76
0
 77
0
 78
0
  0
ENDTAB
  0
TABLE
  2
LTYPE
 70
21
  0
LTYPE
  5
24
  2
ByBlock
 70
0
  3

 72
65
 73
0
 40
0.0
  0
LTYPE
  5
25
  2
ByLayer
 70
0
  3

 72
65
 73
0
 40
0.0
  0
LTYPE
  5
26
  2
Continuous
 70
0
  3

 72
65
 73
0
 40
0.0
  0
LTYPE
  5
2D
  2
CENTER
 70
0
  3
Center ____ _ ____ _ ____ _ ____ _ ____ _ ____
 72
65
 73
4
 40
2.0
 49
1.25
 49
-0.25
 49
0.25
 49
-0.25
  0
LTYPE
  5
2E
  2
CENTERX2
 70
0
  3
Center (2x) ________  __  ________  __  ________
 72
65
 73
4
 40
3.5
 49
2.5
 49
-0.25
 49
0.5
 49
-0.25
  0
LTYPE
  5
2F
  2
CENTER2
 70
0
  3
Center (.5x) ____ _ ____ _ ____ _ ____ _ ____
 72
65
 73
4
 40
1.0
 49
0.625
 49
-0.125
 49
0.125
 49
-0.125
  0
LTYPE
  5
30
  2
DASHED
 70
0
  3
Dashed __ __ __ __ __ __ __ __ __ __ __ __ __ _
 72
65
 73
2
 40
0.6
 49
0.5
 49
-0.1
  0
LTYPE
  5
31
  2
DASHEDX2
 70
0
  3
Dashed (2x) ____  ____  ____  ____  ____  ____
 72
65
 73
2
 40
1.2
 49
1.0
 49
-0.2
  0
LTYPE
  5
32
  2
DASHED2
 70
0
  3
Dashed (.5x) _ _ _ _ _ _ _ _ _ _ _ _ _ _
 72
65
 73
2
 40
0.3
 49
0.25
 49
-0.05
  0
LTYPE
  5
33
  2
PHANTOM
 70
0
  3
Phantom ______  __  __  ______  __  __  ______
 72
65
 73
6
 40
2.5
 49
1.25
 49
-0.25
 49
0.25
 49
-0.25
 49
0.25
 49
-0.25
  0
LTYPE
  5
34
  2
PHANTOMX2
 70
0
  3
Phantom (2x)____________    ____    ____    ____________
 72
65
 73
6
 40
4.25
 49
2.5
 49
-0.25
 49
0.5
 49
-0.25
 49
0.5
 49
-0.25
  0
LTYPE
  5
35
  2
PHANTOM2
 70
0
  3
Phantom (.5x) ___ _ _ ___ _ _ ___ _ _ ___ _ _ ___
 72
65
 73
6
 40
1.25
 49
0.625
 49
-0.125
 49
0.125
 49
-0.125
 49
0.125
 49
-0.125
  0
LTYPE
  5
36
  2
DASHDOT
 70
0
  3
Dash dot __ . __ . __ . __ . __ . __ . __ . __
 72
65
 73
4
 40
1.4
 49
1.0
 49
-0.2
 49
0.0
 49
-0.2
  0
LTYPE
  5
37
  2
DASHDOTX2
 70
0
  3
Dash dot (2x) ____  .  ____  .  ____  .  ____
 72
65
 73
4
 40
2.4
 49
2.0
 49
-0.2
 49
0.0
 49
-0.2
  0
LTYPE
  5
38
  2
DASHDOT2
 70
0
  3
Dash dot (.5x) _ . _ . _ . _ . _ . _ . _ . _
 72
65
 73
4
 40
0.7
 49
0.5
 49
-0.1
 49
0.0
 49
-0.1
  0
LTYPE
  5
39
  2
DOT
 70
0
  3
Dot .  .  .  .  .  .  .  .  .  .  .  .  .  .  .  .
 72
65
 73
2
 40
0.2
 49
0.0
 49
-0.2
  0
LTYPE
  5
3A
  2
DOTX2
 70
0
  3
Dot (2x) .    .    .    .    .    .    .    . 
 72
65
 73
2
 40
0.4
 49
0.0
 49
-0.4
  0
LTYPE
  5
3B
  2
DOT2
 70
0
  3
Dot (.5) . . . . . . . . . . . . . . . . . . . 
 72
65
 73
2
 40
0.1
 49
0.0
 49
-0.1
  0
LTYPE
  5
3C
  2
DIVIDE
 70
0
  3
Divide __ . . __ . . __ . . __ . . __ . . __
 72
65
 73
6
 40
1.6
 49
1.0
 49
-0.2
 49
0.0
 49
-0.2
 49
0.0
 49
-0.2
  0
LTYPE
  5
3D
  2
DIVIDEX2
 70
0
  3
Divide (2x) ____  . .  ____  . .  ____  . .  ____
 72
65
 73
6
 40
2.6
 49
2.0
 49
-0.2
 49
0.0
 49
-0.2
 49
0.0
 49
-0.2
  0
LTYPE
  5
3E
  2
DIVIDE2
 70
0
  3
Divide(.5x) _ . _ . _ . _ . _ . _ . _ . _
 72
65
 73
6
 40
0.8
 49
0.5
 49
-0.1
 49
0.0
 49
-0.1
 49
0.0
 49
-0.1
  0
ENDTAB
  0
TABLE
  2
LAYER
 70
3
  0
LAYER
  5
27
  2
0
 70
0
 62
7
  6
Continuous
  0
LAYER
  5
28
  2
Defpoints
 70
0
 62
7
  6
Continuous
  0
LAYER
  5
8E
  2
MyLines
 70
0
 62
7
  6
Continuous
  0
ENDTAB
  0
TABLE
  2
STYLE
 70
27
  0
STYLE
  5
29
  2
Standard
 70
0
 40
0.0
 41
1.0
 50
0.0
 71
0
 42
2.5
  3
txt
  4

  0
STYLE
  5
3F
  2
OpenSans-Light
 70
0
 40
0.0
 41
1.0
 50
0.0
 71
0
 42
2.5
  3
OpenSans-Light.ttf
  4

  0
STYLE
  5
40
  2
OpenSans-Light-Italic
 70
0
 40
0.0
 41
1.0
 50
0.0
 71
0
 42
2.5
  3
OpenSans-LightItalic.ttf
  4

  0
STYLE
  5
41
  2
OpenSans
 70
0
 40
0.0
 41
1.0
 50
0.0
 71
0
 42
2.5
  3
OpenSans-Regular.ttf
  4

  0
STYLE
  5
42
  2
OpenSans-Italic
 70
0
 40
0.0
 41
1.0
 50
0.0
 71
0
 42
2.5
  3
OpenSans-Italic.ttf
  4

  0
STYLE
  5
43
  2
OpenSans-SemiBold
 70
0
 40
0.0
 41
1.0
 50
0.0
 71
0
 42
2.5
  3
OpenSans-SemiBold.ttf
  4

  0
STYLE
  5
44
  2
OpenSans-SemiBoldItalic
 70
0
 40
0.0
 41
1.0
 50
0.0
 71
0
 42
2.5
  3
OpenSans-SemiBoldItalic.ttf
  4

  0
STYLE
  5
45
  2
OpenSans-Bold
 70
0
 40
0.0
 41
1.0
 50
0.0
 71
0
 42
2.5
  3
OpenSans-Bold.ttf
  4

  0
STYLE
  5
46
  2
OpenSans-BoldItalic
 70
0
 40
0.0
 41
1.0
 50
0.0
 71
0
 42
2.5
  3
OpenSans-BoldItalic.ttf
  4

  0
STYLE
  5
47
  2
OpenSans-ExtraBold
 70
0
 40
0.0
 41
1.0
 50
0.0
 71
0
 42
2.5
  3
OpenSans-ExtraBold.ttf
  4

  0
STYLE
  5
48
  2
OpenSans-ExtraBoldItalic
 70
0
 40
0.0
 41
1.0
 50
0.0
 71
0
 42
2.5
  3
OpenSans-ExtraBoldItalic.ttf
  4

  0
STYLE
  5
49
  2
OpenSansCondensed-Bold
 70
0
 40
0.0
 41
1.0
 50
0.0
 71
0
 42
2.5
  3
OpenSansCondensed-Bold.ttf
  4

  0
STYLE
  5
4A
  2
OpenSansCondensed-Light
 70
0
 40
0.0
 41
1.0
 50
0.0
 71
0
 42
2.5
  3
OpenSansCondensed-Light.ttf
  4

  0
STYLE
  5
4B
  2
OpenSansCondensed-Italic
 70
0
 40
0.0
 41
1.0
 50
0.0
 71
0
 42
2.5
  3
OpenSansCondensed-LightItalic.ttf
  4

  0
STYLE
  5
4C
  2
LiberationSans
 70
0
 40
0.0
 41
1.0
 50
0.0
 71
0
 42
2.5
  3
LiberationSans-Regular.ttf
  4

  0
STYLE
  5
4D
  2
LiberationSans-Bold
 70
0
 40
0.0
 41
1.0
 50
0.0
 71
0
 42
2.5
  3
LiberationSans-Bold.ttf
  4

  0
STYLE
  5
4E
  2
LiberationSans-BoldItalic
 70
0
 40
0.0
 41
1.0
 50
0.0
 71
0
 42
2.5
  3
LiberationSans-BoldItalic.ttf
  4

  0
STYLE
  5
4F
  2
LiberationSans-Italic
 70
0
 40
0.0
 41
1.0
 50
0.0
 71
0
 42
2.5
  3
LiberationSans-Italic.ttf
  4

  0
STYLE
  5
50
  2
LiberationSerif
 70
0
 40
0.0
 41
1.0
 50
0.0
 71
0
 42
2.5
  3
LiberationSerif-Regular.ttf
  4

  0
STYLE
  5
51
  2
LiberationSerif-Bold
 70
0
 40
0.0
 41
1.0
 50
0.0
 71
0
 42
2.5
  3
LiberationSerif-Bold.ttf
  4

  0
STYLE
  5
52
  2
LiberationSerif-BoldItalic
 70
0
 40
0.0
 41
1.0
 50
0.0
 71
0
 42
2.5
  3
LiberationSerif-BoldItalic.ttf
  4

  0
STYLE
  5
53
  2
LiberationSerif-Italic
 70
0
 40
0.0
 41
1.0
 50
0.0
 71
0
 42
2.5
  3
LiberationSerif-Italic.ttf
  4

  0
STYLE
  5
54
  2
LiberationMono
 70
0
 40
0.0
 41
1.0
 50
0.0
 71
0
 42
2.5
  3
LiberationMono-Regular.ttf
  4

  0
STYLE
  5
55
  2
LiberationMono-Bold
 70
0
 40
0.0
 41
1.0
 50
0.0
 71
0
 42
2.5
  3
LiberationMono-Bold.ttf
  4

  0
STYLE
  5
56
  2
LiberationMono-BoldItalic
 70
0
 40
0.0
 41
1.0
 50
0.0
 71
0
 42
2.5
  3
LiberationMono-BoldItalic.ttf
  4

  0
STYLE
  5
57
  2
LiberationMono-Italic
 70
0
 40
0.0
 41
1.0
 50
0.0
 71
0
 42
2.5
  3
LiberationMono-Italic.ttf
  4

  0
STYLE
  5
8F
  2
myStandard2
 70
0
 40
0.0
 41
1.0
 50
0.0
 71
0
 42
2.5
  3
C:\Windows\Fonts\OpenSans-Italic.ttf
  4

  0
ENDTAB
  0
TABLE
  2
VIEW
 70
0
  0
ENDTAB
  0
TABLE
  2
UCS
 70
0
  0
ENDTAB
  0
TABLE
  2
APPID
 70
1
  0
APPID
  5
2A
  2
ACAD
 70
0
  0
ENDTAB
  0
TABLE
  2
DIMSTYLE
 70
11
  0
DIMSTYLE
105
2B
  2
Standard
 70
0
  3

  4

  5

  6

  7

 40
1.0
 41
2.5
 42
0.625
 43
3.75
 44
1.25
 45
0.0
 46
0.0
 47
0.0
 48
0.0
140
2.5
141
2.5
142
0.0
143
0.03937007874
144
1.0
145
0.0
146
1.0
147
0.625
 71
0
 72
0
 73
0
 74
0
 75
0
 76
0
 77
1
 78
8
170
0
171
3
172
1
173
0
174
0
175
0
176
0
177
0
178
0
  0
DIMSTYLE
105
71
  2
EZDXF
 70
0
  3

  4

  5
ARCHTICK
  6

  7

 40
1.0
 41
0.175
 42
0.125
 43
3.75
 44
0.375
 45
0.0
 46
0.0
 47
0.0
 48
0.0
140
0.25
141
2.5
142
0.0
143
0.03937007874
144
100.0
145
0.0
146
1.0
147
0.1
 71
0
 72
0
 73
0
 74
0
 75
0
 76
0
 77
1
 78
8
170
0
171
3
172
1
173
0
174
0
175
0
176
0
177
0
178
0
  0
DIMSTYLE
105
7D
  2
EZ_M_100_H25_CM
 70
0
  3

  4

  5

  6

  7

 40
1.0
 41
0.25
 42
0.125
 43
3.75
 44
0.375
 45
0.0
 46
0.0
 47
0.0
 48
0.0
140
0.25
141
2.5
142
0.125
143
0.03937007874
144
100.0
145
0.0
146
1.0
147
0.1
 71
0
 72
0
 73
0
 74
0
 75
0
 76
0
 77
1
 78
8
170
0
171
3
172
1
173
0
174
0
175
0
176
0
177
0
178
0
  0
DIMSTYLE
105
7E
  2
EZ_M_50_H25_CM
 70
0
  3

  4

  5

  6

  7

 40
1.0
 41
0.125
 42
0.0625
 43
3.75
 44
0.1875
 45
0.0
 46
0.0
 47
0.0
 48
0.0
140
0.125
141
2.5
142
0.0625
143
0.03937007874
144
100.0
145
0.0
146
1.0
147
0.05
 71
0
 72
0
 73
0
 74
0
 75
0
 76
0
 77
1
 78
8
170
0
171
3
172
1
173
0
174
0
175
0
176
0
177
0
178
0
  0
DIMSTYLE
105
7F
  2
EZ_M_25_H25_CM
 70
0
  3

  4

  5

  6

  7

 40
1.0
 41
0.0625
 42
0.03125
 43
3.75
 44
0.09375
 45
0.0
 46
0.0
 47
0.0
 48
0.0
140
0.0625
141
2.5
142
0.03125
143
0.03937007874
144
100.0
145
0.0
146
1.0
147
0.025
 71
0
 72
0
 73
0
 74
0
 75
0
 76
0
 77
1
 78
8
170
0
171
3
172
1
173
0
174
0
175
0
176
0
177
0
178
0
  0
DIMSTYLE
105
80
  2
EZ_M_20_H25_CM
 70
0
  3

  4

  5

  6

  7

 40
1.0
 41
0.05
 42
0.025
 43
3.75
 44
0.07500000000000001
 45
0.0
 46
0.0
 47
0.0
 48
0.0
140
0.05
141
2.5
142
0.025
143
0.03937007874
144
100.0
145
0.0
146
1.0
147
0.020000000000000004
 71
0
 72
0
 73
0
 74
0
 75
0
 76
0
 77
1
 78
8
170
0
171
3
172
1
173
0
174
0
175
0
176
0
177
0
178
0
  0
DIMSTYLE
105
81
  2
EZ_M_10_H25_CM
 70
0
  3

  4

  5

  6

  7

 40
1.0
 41
0.025
 42
0.0125
 43
3.75
 44
0.037500000000000006
 45
0.0
 46
0.0
 47
0.0
 48
0.0
140
0.025
141
2.5
142
0.0125
143
0.03937007874
144
100.0
145
0.0
146
1.0
147
0.010000000000000002
 71
0
 72
0
 73
0
 74
0
 75
0
 76
0
 77
1
 78
8
170
0
171
3
172
1
173
0
174
0
175
0
176
0
177
0
178
0
  0
DIMSTYLE
105
82
  2
EZ_M_5_H25_CM
 70
0
  3

  4

  5

  6

  7

 40
1.0
 41
0.0125
 42
0.00625
 43
3.75
 44
0.018750000000000003
 45
0.0
 46
0.0
 47
0.0
 48
0.0
140
0.0125
141
2.5
142
0.00625
143
0.03937007874
144
100.0
145
0.0
146
1.0
147
0.005000000000000001
 71
0
 72
0
 73
0
 74
0
 75
0
 76
0
 77
1
 78
8
170
0
171
3
172
1
173
0
174
0
175
0
176
0
177
0
178
0
  0
DIMSTYLE
105
83
  2
EZ_M_1_H25_CM
 70
0
  3

  4

  5

  6

  7

 40
1.0
 41
0.0025
 42
0.00125
 43
3.75
 44
0.00375
 45
0.0
 46
0.0
 47
0.0
 48
0.0
140
0.0025
141
2.5
142
0.00125
143
0.03937007874
144
100.0
145
0.0
146
1.0
147
0.001
 71
0
 72
0
 73
0
 74
0
 75
0
 76
0
 77
1
 78
8
170
0
171
3
172
1
173
0
174
0
175
0
176
0
177
0
178
0
  0
DIMSTYLE
105
84
  2
EZ_RADIUS
 70
0
  3

  4

  5
CLOSEDBLANK
  6

  7

 40
1.0
 41
0.25
 42
0.125
 43
3.75
 44
0.375
 45
0.0
 46
0.0
 47
0.0
 48
0.0
140
0.25
141
0.0
142
0.0
143
0.03937007874
144
100.0
145
0.0
146
1.0
147
0.1
 71
0
 72
0
 73
0
 74
0
 75
0
 76
0
 77
1
 78
8
170
0
171
3
172
0
173
0
174
0
175
0
176
0
177
0
178
0
  0
DIMSTYLE
105
8D
  2
EZ_RADIUS_INSIDE
 70
0
  3

  4

  5
CLOSEDBLANK
  6

  7

 40
1.0
 41
0.25
 42
0.125
 43
3.75
 44
0.375
 45
0.0
 46
0.0
 47
0.0
 48
0.0
140
0.25
141
0.0
142
0.0
143
0.03937007874
144
100.0
145
0.0
146
1.0
147
0.1
 71
0
 72
0
 73
0
 74
0
 75
0
 76
0
 77
0
 78
8
170
0
171
3
172
0
173
0
174
1
175
0
176
0
177
0
178
0
  0
ENDTAB
  0
ENDSEC
  0
SECTION
  2
BLOCKS
  0
BLOCK
  5
18
  8
0
  2
$Model_Space
 70
0
 10
0.0
 20
0.0
 30
0.0
  3
$Model_Space
  1

  0
ENDBLK
  5
19
  8
0
  0
BLOCK
  5
1C
  8
0
  2
$Paper_Space
 70
0
 10
0.0
 20
0.0
 30
0.0
  3
$Paper_Space
  1

  0
ENDBLK
  5
1D
  8
0
  0
BLOCK
  5
73
  8
0
  2
_ARCHTICK
 70
0
 10
0.0
 20
0.0
 30
0.0
  3
_ARCHTICK
  1

  0
POLYLINE
  5
75
  8
0
  6
BYBLOCK
 62
0
 66
1
 70
0
 40
0.15
 41
0.15
  0
VERTEX
  5
77
  8
0
  6
BYBLOCK
 10
-0.5
 20
-0.5000000000000001
 30
0.0
 70
0
  0
VERTEX
  5
78
  8
0
  6
BYBLOCK
 10
0.5000000000000001
 20
0.5000000000000001
 30
0.0
 70
0
  0
SEQEND
  5
76
  8
0
  0
ENDBLK
  5
74
  8
0
  0
BLOCK
  5
7A
  8
0
  2
_CLOSEDFILLED
 70
0
 10
0.0
 20
0.0
 30
0.0
  3
_CLOSEDFILLED
  1

  0
SOLID
  5
7C
  8
0
  6
BYBLOCK
 62
0
 10
-1.0
 20
0.1643989837240255
 30
0.0
 11
0.0
 21
0.0
 31
0.0
 12
-1.0
 22
-0.1643989837240255
 32
0.0
 13
-1.0
 23
-0.1643989837240255
 33
0.0
  0
ENDBLK
  5
7B
  8
0
  0
BLOCK
  5
86
  8
0
  2
_CLOSEDBLANK
 70
0
 10
0.0
 20
0.0
 30
0.0
  3
_CLOSEDBLANK
  1

  0
POLYLINE
  5
88
  8
0
  6
BYBLOCK
 62
0
 66
1
 70
1
  0
VERTEX
  5
8A
  8
0
  6
BYBLOCK
 10
-1.0
 20
0.1643989837240255
 30
0.0
 70
0
  0
VERTEX
  5
8B
  8
0
  6
BYBLOCK
 10
0.0
 20
0.0
 30
0.0
 70
0
  0
VERTEX
  5
8C
  8
0
  6
BYBLOCK
 10
-1.0
 20
-0.1643989837240255
 30
0.0
 70
0
  0
SEQEND
  5
89
  8
0
  0
ENDBLK
  5
87
  8
0
  0
ENDSEC
  0
SECTION
  2
ENTITIES
  0
LINE
  5
90
  8
MyLines
 10
0.0
 20
107.0
 30
0.0
 11
263.0
 21
107.0
 31
0.0
  0
LINE
  5
91
  8
MyLines
 10
0.0
 20
0.0
 30
0.0
 11
263.0
 21
0.0
 31
0.0
  0
LINE
  5
92
  8
MyLines
 10
0.0
 20
0.0
 30
0.0
 11
0.0
 21
107.0
 31
0.0
  0
LINE
  5
93
  8
MyLines
 10
263.0
 20
0.0
 30
0.0
 11
263.0
 21
107.0
 31
0.0
  0
TEXT
  5
94
  8
MyLines
 62
1
 10
1.0
 20
54.5
 30
0.0
 40
1.0
  1
7500-B
 11
1.0
 21
54.5
 31
0.0
  0
TEXT
  5
95
  8
MyLines
 62
1
 10
1.0
 20
1.0
 30
0.0
 40
1.0
  1
7500-A
 11
1.0
 21
1.0
 31
0.0
  0
LINE
  5
96
  8
MyLines
 10
0.0
 20
53.5
 30
0.0
 11
263.0
 21
53.5
 31
0.0
  0
LINE
  5
97
  8
MyLines
 10
265.0
 20
88.0
 30
0.0
 11
446.0
 21
88.0
 31
0.0
  0
LINE
  5
98
  8
MyLines
 10
265.0
 20
0.0
 30
0.0
 11
446.0
 21
0.0
 31
0.0
  0
LINE
  5
99
  8
MyLines
 10
265.0
 20
0.0
 30
0.0
 11
265.0
 21
88.0
 31
0.0
  0
LINE
  5
9A
  8
MyLines
 10
446.0
 20
0.0
 30
0.0
 11
446.0
 21
88.0
 31
0.0
  0
TEXT
  5
9B
  8
MyLines
 62
1
 10
266.0
 20
45.0
 30
0.0
 40
1.0
  1
7501-B
 11
266.0
 21
45.0
 31
0.0
  0
TEXT
  5
9C
  8
MyLines
 62
1
 10
266.0
 20
1.0
 30
0.0
 40
1.0
  1
7501-A
 11
266.0
 21
1.0
 31
0.0
  0
LINE
  5
9D
  8
MyLines
 10
265.0
 20
44.0
 30
0.0
 11
446.0
 21
44.0
 31
0.0
  0
LINE
  5
9E
  8
MyLines
 10
448.0
 20
110.0
 30
0.0
 11
651.0
 21
110.0
 31
0.0
  0
LINE
  5
9F
  8
MyLines
 10
448.0
 20
0.0
 30
0.0
 11
651.0
 21
0.0
 31
0.0
  0
LINE
  5
A0
  8
MyLines
 10
448.0
 20
0.0
 30
0.0
 11
448.0
 21
110.0
 31
0.0
  0
LINE
  5
A1
  8
MyLines
 10
651.0
 20
0.0
 30
0.0
 11
651.0
 21
110.0
 31
0.0
  0
TEXT
  5
A2
  8
MyLines
 62
1
 10
449.0
 20
56.0
 30
0.0
 40
1.0
  1
7502-B
 11
449.0
 21
56.0
 31
0.0
  0
TEXT
  5
A3
  8
MyLines
 62
1
 10
449.0
 20
1.0
 30
0.0
 40
1.0
  1
7502-A
 11
449.0
 21
1.0
 31
0.0
  0
LINE
  5
A4
  8
MyLines
 10
448.0
 20
55.0
 30
0.0
 11
651.0
 21
55.0
 31
0.0
  0
LINE
  5
A5
  8
MyLines
 10
653.0
 20
138.0
 30
0.0
 11
833.0
 21
138.0
 31
0.0
  0
LINE
  5
A6
  8
MyLines
 10
653.0
 20
0.0
 30
0.0
 11
833.0
 21
0.0
 31
0.0
  0
LINE
  5
A7
  8
MyLines
 10
653.0
 20
0.0
 30
0.0
 11
653.0
 21
138.0
 31
0.0
  0
LINE
  5
A8
  8
MyLines
 10
833.0
 20
0.0
 30
0.0
 11
833.0
 21
138.0
 31
0.0
  0
TEXT
  5
A9
  8
MyLines
 62
1
 10
654.0
 20
70.0
 30
0.0
 40
1.0
  1
7503-B
 11
654.0
 21
70.0
 31
0.0
  0
TEXT
  5
AA
  8
MyLines
 62
1
 10
654.0
 20
1.0
 30
0.0
 40
1.0
  1
7503-A
 11
654.0
 21
1.0
 31
0.0
  0
LINE
  5
AB
  8
MyLines
 10
653.0
 20
69.0
 30
0.0
 11
833.0
 21
69.0
 31
0.0
  0
LINE
  5
AC
  8
MyLines
 10
835.0
 20
122.0
 30
0.0
 11
1044.0
 21
122.0
 31
0.0
  0
LINE
  5
AD
  8
MyLines
 10
835.0
 20
0.0
 30
0.0
 11
1044.0
 21
0.0
 31
0.0
  0
LINE
  5
AE
  8
MyLines
 10
835.0
 20
0.0
 30
0.0
 11
835.0
 21
122.0
 31
0.0
  0
LINE
  5
AF
  8
MyLines
 10
1044.0
 20
0.0
 30
0.0
 11
1044.0
 21
122.0
 31
0.0
  0
TEXT
  5
B0
  8
MyLines
 62
1
 10
836.0
 20
62.0
 30
0.0
 40
1.0
  1
7504-B
 11
836.0
 21
62.0
 31
0.0
  0
TEXT
  5
B1
  8
MyLines
 62
1
 10
836.0
 20
1.0
 30
0.0
 40
1.0
  1
7504-A
 11
836.0
 21
1.0
 31
0.0
  0
LINE
  5
B2
  8
MyLines
 10
835.0
 20
61.0
 30
0.0
 11
1044.0
 21
61.0
 31
0.0
  0
LINE
  5
B3
  8
MyLines
 10
1046.0
 20
150.0
 30
0.0
 11
1241.0
 21
150.0
 31
0.0
  0
LINE
  5
B4
  8
MyLines
 10
1046.0
 20
0.0
 30
0.0
 11
1241.0
 21
0.0
 31
0.0
  0
LINE
  5
B5
  8
MyLines
 10
1046.0
 20
0.0
 30
0.0
 11
1046.0
 21
150.0
 31
0.0
  0
LINE
  5
B6
  8
MyLines
 10
1241.0
 20
0.0
 30
0.0
 11
1241.0
 21
150.0
 31
0.0
  0
TEXT
  5
B7
  8
MyLines
 62
1
 10
1047.0
 20
76.0
 30
0.0
 40
1.0
  1
7505-B
 11
1047.0
 21
76.0
 31
0.0
  0
TEXT
  5
B8
  8
MyLines
 62
1
 10
1047.0
 20
1.0
 30
0.0
 40
1.0
  1
7505-A
 11
1047.0
 21
1.0
 31
0.0
  0
LINE
  5
B9
  8
MyLines
 10
1046.0
 20
75.0
 30
0.0
 11
1241.0
 21
75.0
 31
0.0
  0
LINE
  5
BA
  8
MyLines
 10
1243.0
 20
142.0
 30
0.0
 11
1475.0
 21
142.0
 31
0.0
  0
LINE
  5
BB
  8
MyLines
 10
1243.0
 20
0.0
 30
0.0
 11
1475.0
 21
0.0
 31
0.0
  0
LINE
  5
BC
  8
MyLines
 10
1243.0
 20
0.0
 30
0.0
 11
1243.0
 21
142.0
 31
0.0
  0
LINE
  5
BD
  8
MyLines
 10
1475.0
 20
0.0
 30
0.0
 11
1475.0
 21
142.0
 31
0.0
  0
TEXT
  5
BE
  8
MyLines
 62
1
 10
1244.0
 20
72.0
 30
0.0
 40
1.0
  1
7506-B
 11
1244.0
 21
72.0
 31
0.0
  0
TEXT
  5
BF
  8
MyLines
 62
1
 10
1244.0
 20
1.0
 30
0.0
 40
1.0
  1
7506-A
 11
1244.0
 21
1.0
 31
0.0
  0
LINE
  5
C0
  8
MyLines
 10
1243.0
 20
71.0
 30
0.0
 11
1475.0
 21
71.0
 31
0.0
  0
LINE
  5
C1
  8
MyLines
 10
1477.0
 20
107.0
 30
0.0
 11
1661.0
 21
107.0
 31
0.0
  0
LINE
  5
C2
  8
MyLines
 10
1477.0
 20
0.0
 30
0.0
 11
1661.0
 21
0.0
 31
0.0
  0
LINE
  5
C3
  8
MyLines
 10
1477.0
 20
0.0
 30
0.0
 11
1477.0
 21
107.0
 31
0.0
  0
LINE
  5
C4
  8
MyLines
 10
1661.0
 20
0.0
 30
0.0
 11
1661.0
 21
107.0
 31
0.0
  0
TEXT
  5
C5
  8
MyLines
 62
1
 10
1478.0
 20
54.5
 30
0.0
 40
1.0
  1
7507-B
 11
1478.0
 21
54.5
 31
0.0
  0
TEXT
  5
C6
  8
MyLines
 62
1
 10
1478.0
 20
1.0
 30
0.0
 40
1.0
  1
7507-A
 11
1478.0
 21
1.0
 31
0.0
  0
LINE
  5
C7
  8
MyLines
 10
1477.0
 20
53.5
 30
0.0
 11
1661.0
 21
53.5
 31
0.0
  0
LINE
  5
C8
  8
MyLines
 10
1663.0
 20
92.0
 30
0.0
 11
1860.0
 21
92.0
 31
0.0
  0
LINE
  5
C9
  8
MyLines
 10
1663.0
 20
0.0
 30
0.0
 11
1860.0
 21
0.0
 31
0.0
  0
LINE
  5
CA
  8
MyLines
 10
1663.0
 20
0.0
 30
0.0
 11
1663.0
 21
92.0
 31
0.0
  0
LINE
  5
CB
  8
MyLines
 10
1860.0
 20
0.0
 30
0.0
 11
1860.0
 21
92.0
 31
0.0
  0
TEXT
  5
CC
  8
MyLines
 62
1
 10
1664.0
 20
47.0
 30
0.0
 40
1.0
  1
7508-B
 11
1664.0
 21
47.0
 31
0.0
  0
TEXT
  5
CD
  8
MyLines
 62
1
 10
1664.0
 20
1.0
 30
0.0
 40
1.0
  1
7508-A
 11
1664.0
 21
1.0
 31
0.0
  0
LINE
  5
CE
  8
MyLines
 10
1663.0
 20
46.0
 30
0.0
 11
1860.0
 21
46.0
 31
0.0
  0
LINE
  5
CF
  8
MyLines
 10
1862.0
 20
160.0
 30
0.0
 11
2109.0
 21
160.0
 31
0.0
  0
LINE
  5
D0
  8
MyLines
 10
1862.0
 20
0.0
 30
0.0
 11
2109.0
 21
0.0
 31
0.0
  0
LINE
  5
D1
  8
MyLines
 10
1862.0
 20
0.0
 30
0.0
 11
1862.0
 21
160.0
 31
0.0
  0
LINE
  5
D2
  8
MyLines
 10
2109.0
 20
0.0
 30
0.0
 11
2109.0
 21
160.0
 31
0.0
  0
TEXT
  5
D3
  8
MyLines
 62
1
 10
1863.0
 20
81.0
 30
0.0
 40
1.0
  1
7509-B
 11
1863.0
 21
81.0
 31
0.0
  0
TEXT
  5
D4
  8
MyLines
 62
1
 10
1863.0
 20
1.0
 30
0.0
 40
1.0
  1
7509-A
 11
1863.0
 21
1.0
 31
0.0
  0
LINE
  5
D5
  8
MyLines
 10
1862.0
 20
80.0
 30
0.0
 11
2109.0
 21
80.0
 31
0.0
  0
LINE
  5
D6
  8
MyLines
 10
2111.0
 20
72.0
 30
0.0
 11
2331.0
 21
72.0
 31
0.0
  0
LINE
  5
D7
  8
MyLines
 10
2111.0
 20
0.0
 30
0.0
 11
2331.0
 21
0.0
 31
0.0
  0
LINE
  5
D8
  8
MyLines
 10
2111.0
 20
0.0
 30
0.0
 11
2111.0
 21
72.0
 31
0.0
  0
LINE
  5
D9
  8
MyLines
 10
2331.0
 20
0.0
 30
0.0
 11
2331.0
 21
72.0
 31
0.0
  0
TEXT
  5
DA
  8
MyLines
 62
1
 10
2112.0
 20
37.0
 30
0.0
 40
1.0
  1
7510-B
 11
2112.0
 21
37.0
 31
0.0
  0
TEXT
  5
DB
  8
MyLines
 62
1
 10
2112.0
 20
1.0
 30
0.0
 40
1.0
  1
7510-A
 11
2112.0
 21
1.0
 31
0.0
  0
LINE
  5
DC
  8
MyLines
 10
2111.0
 20
36.0
 30
0.0
 11
2331.0
 21
36.0
 31
0.0
  0
LINE
  5
DD
  8
MyLines
 10
2333.0
 20
86.0
 30
0.0
 11
2626.0
 21
86.0
 31
0.0
  0
LINE
  5
DE
  8
MyLines
 10
2333.0
 20
0.0
 30
0.0
 11
2626.0
 21
0.0
 31
0.0
  0
LINE
  5
DF
  8
MyLines
 10
2333.0
 20
0.0
 30
0.0
 11
2333.0
 21
86.0
 31
0.0
  0
LINE
  5
E0
  8
MyLines
 10
2626.0
 20
0.0
 30
0.0
 11
2626.0
 21
86.0
 31
0.0
  0
TEXT
  5
E1
  8
MyLines
 62
1
 10
2334.0
 20
44.0
 30
0.0
 40
1.0
  1
7511-B
 11
2334.0
 21
44.0
 31
0.0
  0
TEXT
  5
E2
  8
MyLines
 62
1
 10
2334.0
 20
1.0
 30
0.0
 40
1.0
  1
7511-A
 11
2334.0
 21
1.0
 31
0.0
  0
LINE
  5
E3
  8
MyLines
 10
2333.0
 20
43.0
 30
0.0
 11
2626.0
 21
43.0
 31
0.0
  0
LINE
  5
E4
  8
MyLines
 10
2628.0
 20
102.0
 30
0.0
 11
2877.0
 21
102.0
 31
0.0
  0
LINE
  5
E5
  8
MyLines
 10
2628.0
 20
0.0
 30
0.0
 11
2877.0
 21
0.0
 31
0.0
  0
LINE
  5
E6
  8
MyLines
 10
2628.0
 20
0.0
 30
0.0
 11
2628.0
 21
102.0
 31
0.0
  0
LINE
  5
E7
  8
MyLines
 10
2877.0
 20
0.0
 30
0.0
 11
2877.0
 21
102.0
 31
0.0
  0
TEXT
  5
E8
  8
MyLines
 62
1
 10
2629.0
 20
52.0
 30
0.0
 40
1.0
  1
7512-B
 11
2629.0
 21
52.0
 31
0.0
  0
TEXT
  5
E9
  8
MyLines
 62
1
 10
2629.0
 20
1.0
 30
0.0
 40
1.0
  1
7512-A
 11
2629.0
 21
1.0
 31
0.0
  0
LINE
  5
EA
  8
MyLines
 10
2628.0
 20
51.0
 30
0.0
 11
2877.0
 21
51.0
 31
0.0
  0
LINE
  5
EB
  8
MyLines
 10
2879.0
 20
137.0
 30
0.0
 11
3173.0
 21
137.0
 31
0.0
  0
LINE
  5
EC
  8
MyLines
 10
2879.0
 20
0.0
 30
0.0
 11
3173.0
 21
0.0
 31
0.0
  0
LINE
  5
ED
  8
MyLines
 10
2879.0
 20
0.0
 30
0.0
 11
2879.0
 21
137.0
 31
0.0
  0
LINE
  5
EE
  8
MyLines
 10
3173.0
 20
0.0
 30
0.0
 11
3173.0
 21
137.0
 31
0.0
  0
TEXT
  5
EF
  8
MyLines
 62
1
 10
2880.0
 20
69.5
 30
0.0
 40
1.0
  1
7513-B
 11
2880.0
 21
69.5
 31
0.0
  0
TEXT
  5
F0
  8
MyLines
 62
1
 10
2880.0
 20
1.0
 30
0.0
 40
1.0
  1
7513-A
 11
2880.0
 21
1.0
 31
0.0
  0
LINE
  5
F1
  8
MyLines
 10
2879.0
 20
68.5
 30
0.0
 11
3173.0
 21
68.5
 31
0.0
  0
LINE
  5
F2
  8
MyLines
 10
3175.0
 20
136.0
 30
0.0
 11
3470.0
 21
136.0
 31
0.0
  0
LINE
  5
F3
  8
MyLines
 10
3175.0
 20
0.0
 30
0.0
 11
3470.0
 21
0.0
 31
0.0
  0
LINE
  5
F4
  8
MyLines
 10
3175.0
 20
0.0
 30
0.0
 11
3175.0
 21
136.0
 31
0.0
  0
LINE
  5
F5
  8
MyLines
 10
3470.0
 20
0.0
 30
0.0
 11
3470.0
 21
136.0
 31
0.0
  0
TEXT
  5
F6
  8
MyLines
 62
1
 10
3176.0
 20
69.0
 30
0.0
 40
1.0
  1
7514-B
 11
3176.0
 21
69.0
 31
0.0
  0
TEXT
  5
F7
  8
MyLines
 62
1
 10
3176.0
 20
1.0
 30
0.0
 40
1.0
  1
7514-A
 11
3176.0
 21
1.0
 31
0.0
  0
LINE
  5
F8
  8
MyLines
 10
3175.0
 20
68.0
 30
0.0
 11
3470.0
 21
68.0
 31
0.0
  0
LINE
  5
F9
  8
MyLines
 10
3472.0
 20
93.0
 30
0.0
 11
3757.0
 21
93.0
 31
0.0
  0
LINE
  5
FA
  8
MyLines
 10
3472.0
 20
0.0
 30
0.0
 11
3757.0
 21
0.0
 31
0.0
  0
LINE
  5
FB
  8
MyLines
 10
3472.0
 20
0.0
 30
0.0
 11
3472.0
 21
93.0
 31
0.0
  0
LINE
  5
FC
  8
MyLines
 10
3757.0
 20
0.0
 30
0.0
 11
3757.0
 21
93.0
 31
0.0
  0
TEXT
  5
FD
  8
MyLines
 62
1
 10
3473.0
 20
47.5
 30
0.0
 40
1.0
  1
7515-B
 11
3473.0
 21
47.5
 31
0.0
  0
TEXT
  5
FE
  8
MyLines
 62
1
 10
3473.0
 20
1.0
 30
0.0
 40
1.0
  1
7515-A
 11
3473.0
 21
1.0
 31
0.0
  0
LINE
  5
FF
  8
MyLines
 10
3472.0
 20
46.5
 30
0.0
 11
3757.0
 21
46.5
 31
0.0
  0
LINE
  5
100
  8
MyLines
 10
3759.0
 20
155.0
 30
0.0
 11
4043.0
 21
155.0
 31
0.0
  0
LINE
  5
101
  8
MyLines
 10
3759.0
 20
0.0
 30
0.0
 11
4043.0
 21
0.0
 31
0.0
  0
LINE
  5
102
  8
MyLines
 10
3759.0
 20
0.0
 30
0.0
 11
3759.0
 21
155.0
 31
0.0
  0
LINE
  5
103
  8
MyLines
 10
4043.0
 20
0.0
 30
0.0
 11
4043.0
 21
155.0
 31
0.0
  0
TEXT
  5
104
  8
MyLines
 62
1
 10
3760.0
 20
78.5
 30
0.0
 40
1.0
  1
7516-B
 11
3760.0
 21
78.5
 31
0.0
  0
TEXT
  5
105
  8
MyLines
 62
1
 10
3760.0
 20
1.0
 30
0.0
 40
1.0
  1
7516-A
 11
3760.0
 21
1.0
 31
0.0
  0
LINE
  5
106
  8
MyLines
 10
3759.0
 20
77.5
 30
0.0
 11
4043.0
 21
77.5
 31
0.0
  0
LINE
  5
107
  8
MyLines
 10
4045.0
 20
91.0
 30
0.0
 11
4291.0
 21
91.0
 31
0.0
  0
LINE
  5
108
  8
MyLines
 10
4045.0
 20
0.0
 30
0.0
 11
4291.0
 21
0.0
 31
0.0
  0
LINE
  5
109
  8
MyLines
 10
4045.0
 20
0.0
 30
0.0
 11
4045.0
 21
91.0
 31
0.0
  0
LINE
  5
10A
  8
MyLines
 10
4291.0
 20
0.0
 30
0.0
 11
4291.0
 21
91.0
 31
0.0
  0
TEXT
  5
10B
  8
MyLines
 62
1
 10
4046.0
 20
46.5
 30
0.0
 40
1.0
  1
7517-B
 11
4046.0
 21
46.5
 31
0.0
  0
TEXT
  5
10C
  8
MyLines
 62
1
 10
4046.0
 20
1.0
 30
0.0
 40
1.0
  1
7517-A
 11
4046.0
 21
1.0
 31
0.0
  0
LINE
  5
10D
  8
MyLines
 10
4045.0
 20
45.5
 30
0.0
 11
4291.0
 21
45.5
 31
0.0
  0
LINE
  5
10E
  8
MyLines
 10
4293.0
 20
88.0
 30
0.0
 11
4572.0
 21
88.0
 31
0.0
  0
LINE
  5
10F
  8
MyLines
 10
4293.0
 20
0.0
 30
0.0
 11
4572.0
 21
0.0
 31
0.0
  0
LINE
  5
110
  8
MyLines
 10
4293.0
 20
0.0
 30
0.0
 11
4293.0
 21
88.0
 31
0.0
  0
LINE
  5
111
  8
MyLines
 10
4572.0
 20
0.0
 30
0.0
 11
4572.0
 21
88.0
 31
0.0
  0
TEXT
  5
112
  8
MyLines
 62
1
 10
4294.0
 20
45.0
 30
0.0
 40
1.0
  1
7518-B
 11
4294.0
 21
45.0
 31
0.0
  0
TEXT
  5
113
  8
MyLines
 62
1
 10
4294.0
 20
1.0
 30
0.0
 40
1.0
  1
7518-A
 11
4294.0
 21
1.0
 31
0.0
  0
LINE
  5
114
  8
MyLines
 10
4293.0
 20
44.0
 30
0.0
 11
4572.0
 21
44.0
 31
0.0
  0
LINE
  5
115
  8
MyLines
 10
4574.0
 20
173.0
 30
0.0
 11
4859.0
 21
173.0
 31
0.0
  0
LINE
  5
116
  8
MyLines
 10
4574.0
 20
0.0
 30
0.0
 11
4859.0
 21
0.0
 31
0.0
  0
LINE
  5
117
  8
MyLines
 10
4574.0
 20
0.0
 30
0.0
 11
4574.0
 21
173.0
 31
0.0
  0
LINE
  5
118
  8
MyLines
 10
4859.0
 20
0.0
 30
0.0
 11
4859.0
 21
173.0
 31
0.0
  0
TEXT
  5
119
  8
MyLines
 62
1
 10
4575.0
 20
87.5
 30
0.0
 40
1.0
  1
7519-B
 11
4575.0
 21
87.5
 31
0.0
  0
TEXT
  5
11A
  8
MyLines
 62
1
 10
4575.0
 20
1.0
 30
0.0
 40
1.0
  1
7519-A
 11
4575.0
 21
1.0
 31
0.0
  0
LINE
  5
11B
  8
MyLines
 10
4574.0
 20
86.5
 30
0.0
 11
4859.0
 21
86.5
 31
0.0
  0
LINE
  5
11C
  8
MyLines
 10
4861.0
 20
171.0
 30
0.0
 11
5110.0
 21
171.0
 31
0.0
  0
LINE
  5
11D
  8
MyLines
 10
4861.0
 20
0.0
 30
0.0
 11
5110.0
 21
0.0
 31
0.0
  0
LINE
  5
11E
  8
MyLines
 10
4861.0
 20
0.0
 30
0.0
 11
4861.0
 21
171.0
 31
0.0
  0
LINE
  5
11F
  8
MyLines
 10
5110.0
 20
0.0
 30
0.0
 11
5110.0
 21
171.0
 31
0.0
  0
TEXT
  5
120
  8
MyLines
 62
1
 10
4862.0
 20
86.5
 30
0.0
 40
1.0
  1
7520-B
 11
4862.0
 21
86.5
 31
0.0
  0
TEXT
  5
121
  8
MyLines
 62
1
 10
4862.0
 20
1.0
 30
0.0
 40
1.0
  1
7520-A
 11
4862.0
 21
1.0
 31
0.0
  0
LINE
  5
122
  8
MyLines
 10
4861.0
 20
85.5
 30
0.0
 11
5110.0
 21
85.5
 31
0.0
  0
LINE
  5
123
  8
MyLines
 10
5112.0
 20
163.0
 30
0.0
 11
5404.0
 21
163.0
 31
0.0
  0
LINE
  5
124
  8
MyLines
 10
5112.0
 20
0.0
 30
0.0
 11
5404.0
 21
0.0
 31
0.0
  0
LINE
  5
125
  8
MyLines
 10
5112.0
 20
0.0
 30
0.0
 11
5112.0
 21
163.0
 31
0.0
  0
LINE
  5
126
  8
MyLines
 10
5404.0
 20
0.0
 30
0.0
 11
5404.0
 21
163.0
 31
0.0
  0
TEXT
  5
127
  8
MyLines
 62
1
 10
5113.0
 20
82.5
 30
0.0
 40
1.0
  1
7521-B
 11
5113.0
 21
82.5
 31
0.0
  0
TEXT
  5
128
  8
MyLines
 62
1
 10
5113.0
 20
1.0
 30
0.0
 40
1.0
  1
7521-A
 11
5113.0
 21
1.0
 31
0.0
  0
LINE
  5
129
  8
MyLines
 10
5112.0
 20
81.5
 30
0.0
 11
5404.0
 21
81.5
 31
0.0
  0
LINE
  5
12A
  8
MyLines
 10
5406.0
 20
173.0
 30
0.0
 11
5645.0
 21
173.0
 31
0.0
  0
LINE
  5
12B
  8
MyLines
 10
5406.0
 20
0.0
 30
0.0
 11
5645.0
 21
0.0
 31
0.0
  0
LINE
  5
12C
  8
MyLines
 10
5406.0
 20
0.0
 30
0.0
 11
5406.0
 21
173.0
 31
0.0
  0
LINE
  5
12D
  8
MyLines
 10
5645.0
 20
0.0
 30
0.0
 11
5645.0
 21
173.0
 31
0.0
  0
TEXT
  5
12E
  8
MyLines
 62
1
 10
5407.0
 20
87.5
 30
0.0
 40
1.0
  1
7522-B
 11
5407.0
 21
87.5
 31
0.0
  0
TEXT
  5
12F
  8
MyLines
 62
1
 10
5407.0
 20
1.0
 30
0.0
 40
1.0
  1
7522-A
 11
5407.0
 21
1.0
 31
0.0
  0
LINE
  5
130
  8
MyLines
 10
5406.0
 20
86.5
 30
0.0
 11
5645.0
 21
86.5
 31
0.0
  0
LINE
  5
131
  8
MyLines
 10
5647.0
 20
93.0
 30
0.0
 11
5940.0
 21
93.0
 31
0.0
  0
LINE
  5
132
  8
MyLines
 10
5647.0
 20
0.0
 30
0.0
 11
5940.0
 21
0.0
 31
0.0
  0
LINE
  5
133
  8
MyLines
 10
5647.0
 20
0.0
 30
0.0
 11
5647.0
 21
93.0
 31
0.0
  0
LINE
  5
134
  8
MyLines
 10
5940.0
 20
0.0
 30
0.0
 11
5940.0
 21
93.0
 31
0.0
  0
TEXT
  5
135
  8
MyLines
 62
1
 10
5648.0
 20
47.5
 30
0.0
 40
1.0
  1
7523-B
 11
5648.0
 21
47.5
 31
0.0
  0
TEXT
  5
136
  8
MyLines
 62
1
 10
5648.0
 20
1.0
 30
0.0
 40
1.0
  1
7523-A
 11
5648.0
 21
1.0
 31
0.0
  0
LINE
  5
137
  8
MyLines
 10
5647.0
 20
46.5
 30
0.0
 11
5940.0
 21
46.5
 31
0.0
  0
LINE
  5
138
  8
MyLines
 10
5942.0
 20
75.0
 30
0.0
 11
6136.0
 21
75.0
 31
0.0
  0
LINE
  5
139
  8
MyLines
 10
5942.0
 20
0.0
 30
0.0
 11
6136.0
 21
0.0
 31
0.0
  0
LINE
  5
13A
  8
MyLines
 10
5942.0
 20
0.0
 30
0.0
 11
5942.0
 21
75.0
 31
0.0
  0
LINE
  5
13B
  8
MyLines
 10
6136.0
 20
0.0
 30
0.0
 11
6136.0
 21
75.0
 31
0.0
  0
TEXT
  5
13C
  8
MyLines
 62
1
 10
5943.0
 20
38.5
 30
0.0
 40
1.0
  1
7524-B
 11
5943.0
 21
38.5
 31
0.0
  0
TEXT
  5
13D
  8
MyLines
 62
1
 10
5943.0
 20
1.0
 30
0.0
 40
1.0
  1
7524-A
 11
5943.0
 21
1.0
 31
0.0
  0
LINE
  5
13E
  8
MyLines
 10
5942.0
 20
37.5
 30
0.0
 11
6136.0
 21
37.5
 31
0.0
  0
LINE
  5
13F
  8
MyLines
 10
6138.0
 20
135.0
 30
0.0
 11
6345.0
 21
135.0
 31
0.0
  0
LINE
  5
140
  8
MyLines
 10
6138.0
 20
0.0
 30
0.0
 11
6345.0
 21
0.0
 31
0.0
  0
LINE
  5
141
  8
MyLines
 10
6138.0
 20
0.0
 30
0.0
 11
6138.0
 21
135.0
 31
0.0
  0
LINE
  5
142
  8
MyLines
 10
6345.0
 20
0.0
 30
0.0
 11
6345.0
 21
135.0
 31
0.0
  0
TEXT
  5
143
  8
MyLines
 62
1
 10
6139.0
 20
68.5
 30
0.0
 40
1.0
  1
7525-B
 11
6139.0
 21
68.5
 31
0.0
  0
TEXT
  5
144
  8
MyLines
 62
1
 10
6139.0
 20
1.0
 30
0.0
 40
1.0
  1
7525-A
 11
6139.0
 21
1.0
 31
0.0
  0
LINE
  5
145
  8
MyLines
 10
6138.0
 20
67.5
 30
0.0
 11
6345.0
 21
67.5
 31
0.0
  0
LINE
  5
146
  8
MyLines
 10
6347.0
 20
163.0
 30
0.0
 11
6625.0
 21
163.0
 31
0.0
  0
LINE
  5
147
  8
MyLines
 10
6347.0
 20
0.0
 30
0.0
 11
6625.0
 21
0.0
 31
0.0
  0
LINE
  5
148
  8
MyLines
 10
6347.0
 20
0.0
 30
0.0
 11
6347.0
 21
163.0
 31
0.0
  0
LINE
  5
149
  8
MyLines
 10
6625.0
 20
0.0
 30
0.0
 11
6625.0
 21
163.0
 31
0.0
  0
TEXT
  5
14A
  8
MyLines
 62
1
 10
6348.0
 20
82.5
 30
0.0
 40
1.0
  1
7526-B
 11
6348.0
 21
82.5
 31
0.0
  0
TEXT
  5
14B
  8
MyLines
 62
1
 10
6348.0
 20
1.0
 30
0.0
 40
1.0
  1
7526-A
 11
6348.0
 21
1.0
 31
0.0
  0
LINE
  5
14C
  8
MyLines
 10
6347.0
 20
81.5
 30
0.0
 11
6625.0
 21
81.5
 31
0.0
  0
LINE
  5
14D
  8
MyLines
 10
6627.0
 20
115.0
 30
0.0
 11
6899.0
 21
115.0
 31
0.0
  0
LINE
  5
14E
  8
MyLines
 10
6627.0
 20
0.0
 30
0.0
 11
6899.0
 21
0.0
 31
0.0
  0
LINE
  5
14F
  8
MyLines
 10
6627.0
 20
0.0
 30
0.0
 11
6627.0
 21
115.0
 31
0.0
  0
LINE
  5
150
  8
MyLines
 10
6899.0
 20
0.0
 30
0.0
 11
6899.0
 21
115.0
 31
0.0
  0
TEXT
  5
151
  8
MyLines
 62
1
 10
6628.0
 20
58.5
 30
0.0
 40
1.0
  1
7527-B
 11
6628.0
 21
58.5
 31
0.0
  0
TEXT
  5
152
  8
MyLines
 62
1
 10
6628.0
 20
1.0
 30
0.0
 40
1.0
  1
7527-A
 11
6628.0
 21
1.0
 31
0.0
  0
LINE
  5
153
  8
MyLines
 10
6627.0
 20
57.5
 30
0.0
 11
6899.0
 21
57.5
 31
0.0
  0
LINE
  5
154
  8
MyLines
 10
6901.0
 20
96.0
 30
0.0
 11
7199.0
 21
96.0
 31
0.0
  0
LINE
  5
155
  8
MyLines
 10
6901.0
 20
0.0
 30
0.0
 11
7199.0
 21
0.0
 31
0.0
  0
LINE
  5
156
  8
MyLines
 10
6901.0
 20
0.0
 30
0.0
 11
6901.0
 21
96.0
 31
0.0
  0
LINE
  5
157
  8
MyLines
 10
7199.0
 20
0.0
 30
0.0
 11
7199.0
 21
96.0
 31
0.0
  0
TEXT
  5
158
  8
MyLines
 62
1
 10
6902.0
 20
49.0
 30
0.0
 40
1.0
  1
7528-B
 11
6902.0
 21
49.0
 31
0.0
  0
TEXT
  5
159
  8
MyLines
 62
1
 10
6902.0
 20
1.0
 30
0.0
 40
1.0
  1
7528-A
 11
6902.0
 21
1.0
 31
0.0
  0
LINE
  5
15A
  8
MyLines
 10
6901.0
 20
48.0
 30
0.0
 11
7199.0
 21
48.0
 31
0.0
  0
LINE
  5
15B
  8
MyLines
 10
7201.0
 20
139.0
 30
0.0
 11
7404.0
 21
139.0
 31
0.0
  0
LINE
  5
15C
  8
MyLines
 10
7201.0
 20
0.0
 30
0.0
 11
7404.0
 21
0.0
 31
0.0
  0
LINE
  5
15D
  8
MyLines
 10
7201.0
 20
0.0
 30
0.0
 11
7201.0
 21
139.0
 31
0.0
  0
LINE
  5
15E
  8
MyLines
 10
7404.0
 20
0.0
 30
0.0
 11
7404.0
 21
139.0
 31
0.0
  0
TEXT
  5
15F
  8
MyLines
 62
1
 10
7202.0
 20
70.5
 30
0.0
 40
1.0
  1
7529-B
 11
7202.0
 21
70.5
 31
0.0
  0
TEXT
  5
160
  8
MyLines
 62
1
 10
7202.0
 20
1.0
 30
0.0
 40
1.0
  1
7529-A
 11
7202.0
 21
1.0
 31
0.0
  0
LINE
  5
161
  8
MyLines
 10
7201.0
 20
69.5
 30
0.0
 11
7404.0
 21
69.5
 31
0.0
  0
LINE
  5
162
  8
MyLines
 10
7406.0
 20
74.0
 30
0.0
 11
7616.0
 21
74.0
 31
0.0
  0
LINE
  5
163
  8
MyLines
 10
7406.0
 20
0.0
 30
0.0
 11
7616.0
 21
0.0
 31
0.0
  0
LINE
  5
164
  8
MyLines
 10
7406.0
 20
0.0
 30
0.0
 11
7406.0
 21
74.0
 31
0.0
  0
LINE
  5
165
  8
MyLines
 10
7616.0
 20
0.0
 30
0.0
 11
7616.0
 21
74.0
 31
0.0
  0
TEXT
  5
166
  8
MyLines
 62
1
 10
7407.0
 20
38.0
 30
0.0
 40
1.0
  1
7530-B
 11
7407.0
 21
38.0
 31
0.0
  0
TEXT
  5
167
  8
MyLines
 62
1
 10
7407.0
 20
1.0
 30
0.0
 40
1.0
  1
7530-A
 11
7407.0
 21
1.0
 31
0.0
  0
LINE
  5
168
  8
MyLines
 10
7406.0
 20
37.0
 30
0.0
 11
7616.0
 21
37.0
 31
0.0
  0
LINE
  5
169
  8
MyLines
 10
7618.0
 20
135.0
 30
0.0
 11
7832.0
 21
135.0
 31
0.0
  0
LINE
  5
16A
  8
MyLines
 10
7618.0
 20
0.0
 30
0.0
 11
7832.0
 21
0.0
 31
0.0
  0
LINE
  5
16B
  8
MyLines
 10
7618.0
 20
0.0
 30
0.0
 11
7618.0
 21
135.0
 31
0.0
  0
LINE
  5
16C
  8
MyLines
 10
7832.0
 20
0.0
 30
0.0
 11
7832.0
 21
135.0
 31
0.0
  0
TEXT
  5
16D
  8
MyLines
 62
1
 10
7619.0
 20
68.5
 30
0.0
 40
1.0
  1
7531-B
 11
7619.0
 21
68.5
 31
0.0
  0
TEXT
  5
16E
  8
MyLines
 62
1
 10
7619.0
 20
1.0
 30
0.0
 40
1.0
  1
7531-A
 11
7619.0
 21
1.0
 31
0.0
  0
LINE
  5
16F
  8
MyLines
 10
7618.0
 20
67.5
 30
0.0
 11
7832.0
 21
67.5
 31
0.0
  0
LINE
  5
170
  8
MyLines
 10
7834.0
 20
84.0
 30
0.0
 11
8031.0
 21
84.0
 31
0.0
  0
LINE
  5
171
  8
MyLines
 10
7834.0
 20
0.0
 30
0.0
 11
8031.0
 21
0.0
 31
0.0
  0
LINE
  5
172
  8
MyLines
 10
7834.0
 20
0.0
 30
0.0
 11
7834.0
 21
84.0
 31
0.0
  0
LINE
  5
173
  8
MyLines
 10
8031.0
 20
0.0
 30
0.0
 11
8031.0
 21
84.0
 31
0.0
  0
TEXT
  5
174
  8
MyLines
 62
1
 10
7835.0
 20
43.0
 30
0.0
 40
1.0
  1
7532-B
 11
7835.0
 21
43.0
 31
0.0
  0
TEXT
  5
175
  8
MyLines
 62
1
 10
7835.0
 20
1.0
 30
0.0
 40
1.0
  1
7532-A
 11
7835.0
 21
1.0
 31
0.0
  0
LINE
  5
176
  8
MyLines
 10
7834.0
 20
42.0
 30
0.0
 11
8031.0
 21
42.0
 31
0.0
  0
LINE
  5
177
  8
MyLines
 10
8033.0
 20
71.0
 30
0.0
 11
8253.0
 21
71.0
 31
0.0
  0
LINE
  5
178
  8
MyLines
 10
8033.0
 20
0.0
 30
0.0
 11
8253.0
 21
0.0
 31
0.0
  0
LINE
  5
179
  8
MyLines
 10
8033.0
 20
0.0
 30
0.0
 11
8033.0
 21
71.0
 31
0.0
  0
LINE
  5
17A
  8
MyLines
 10
8253.0
 20
0.0
 30
0.0
 11
8253.0
 21
71.0
 31
0.0
  0
TEXT
  5
17B
  8
MyLines
 62
1
 10
8034.0
 20
36.5
 30
0.0
 40
1.0
  1
7533-B
 11
8034.0
 21
36.5
 31
0.0
  0
TEXT
  5
17C
  8
MyLines
 62
1
 10
8034.0
 20
1.0
 30
0.0
 40
1.0
  1
7533-A
 11
8034.0
 21
1.0
 31
0.0
  0
LINE
  5
17D
  8
MyLines
 10
8033.0
 20
35.5
 30
0.0
 11
8253.0
 21
35.5
 31
0.0
  0
LINE
  5
17E
  8
MyLines
 10
8255.0
 20
173.0
 30
0.0
 11
8433.0
 21
173.0
 31
0.0
  0
LINE
  5
17F
  8
MyLines
 10
8255.0
 20
0.0
 30
0.0
 11
8433.0
 21
0.0
 31
0.0
  0
LINE
  5
180
  8
MyLines
 10
8255.0
 20
0.0
 30
0.0
 11
8255.0
 21
173.0
 31
0.0
  0
LINE
  5
181
  8
MyLines
 10
8433.0
 20
0.0
 30
0.0
 11
8433.0
 21
173.0
 31
0.0
  0
TEXT
  5
182
  8
MyLines
 62
1
 10
8256.0
 20
87.5
 30
0.0
 40
1.0
  1
7534-B
 11
8256.0
 21
87.5
 31
0.0
  0
TEXT
  5
183
  8
MyLines
 62
1
 10
8256.0
 20
1.0
 30
0.0
 40
1.0
  1
7534-A
 11
8256.0
 21
1.0
 31
0.0
  0
LINE
  5
184
  8
MyLines
 10
8255.0
 20
86.5
 30
0.0
 11
8433.0
 21
86.5
 31
0.0
  0
LINE
  5
185
  8
MyLines
 10
8435.0
 20
132.0
 30
0.0
 11
8703.0
 21
132.0
 31
0.0
  0
LINE
  5
186
  8
MyLines
 10
8435.0
 20
0.0
 30
0.0
 11
8703.0
 21
0.0
 31
0.0
  0
LINE
  5
187
  8
MyLines
 10
8435.0
 20
0.0
 30
0.0
 11
8435.0
 21
132.0
 31
0.0
  0
LINE
  5
188
  8
MyLines
 10
8703.0
 20
0.0
 30
0.0
 11
8703.0
 21
132.0
 31
0.0
  0
TEXT
  5
189
  8
MyLines
 62
1
 10
8436.0
 20
67.0
 30
0.0
 40
1.0
  1
7535-B
 11
8436.0
 21
67.0
 31
0.0
  0
TEXT
  5
18A
  8
MyLines
 62
1
 10
8436.0
 20
1.0
 30
0.0
 40
1.0
  1
7535-A
 11
8436.0
 21
1.0
 31
0.0
  0
LINE
  5
18B
  8
MyLines
 10
8435.0
 20
66.0
 30
0.0
 11
8703.0
 21
66.0
 31
0.0
  0
LINE
  5
18C
  8
MyLines
 10
8705.0
 20
124.0
 30
0.0
 11
8899.0
 21
124.0
 31
0.0
  0
LINE
  5
18D
  8
MyLines
 10
8705.0
 20
0.0
 30
0.0
 11
8899.0
 21
0.0
 31
0.0
  0
LINE
  5
18E
  8
MyLines
 10
8705.0
 20
0.0
 30
0.0
 11
8705.0
 21
124.0
 31
0.0
  0
LINE
  5
18F
  8
MyLines
 10
8899.0
 20
0.0
 30
0.0
 11
8899.0
 21
124.0
 31
0.0
  0
TEXT
  5
190
  8
MyLines
 62
1
 10
8706.0
 20
63.0
 30
0.0
 40
1.0
  1
7536-B
 11
8706.0
 21
63.0
 31
0.0
  0
TEXT
  5
191
  8
MyLines
 62
1
 10
8706.0
 20
1.0
 30
0.0
 40
1.0
  1
7536-A
 11
8706.0
 21
1.0
 31
0.0
  0
LINE
  5
192
  8
MyLines
 10
8705.0
 20
62.0
 30
0.0
 11
8899.0
 21
62.0
 31
0.0
  0
LINE
  5
193
  8
MyLines
 10
8901.0
 20
73.0
 30
0.0
 11
9188.0
 21
73.0
 31
0.0
  0
LINE
  5
194
  8
MyLines
 10
8901.0
 20
0.0
 30
0.0
 11
9188.0
 21
0.0
 31
0.0
  0
LINE
  5
195
  8
MyLines
 10
8901.0
 20
0.0
 30
0.0
 11
8901.0
 21
73.0
 31
0.0
  0
LINE
  5
196
  8
MyLines
 10
9188.0
 20
0.0
 30
0.0
 11
9188.0
 21
73.0
 31
0.0
  0
TEXT
  5
197
  8
MyLines
 62
1
 10
8902.0
 20
37.5
 30
0.0
 40
1.0
  1
7537-B
 11
8902.0
 21
37.5
 31
0.0
  0
TEXT
  5
198
  8
MyLines
 62
1
 10
8902.0
 20
1.0
 30
0.0
 40
1.0
  1
7537-A
 11
8902.0
 21
1.0
 31
0.0
  0
LINE
  5
199
  8
MyLines
 10
8901.0
 20
36.5
 30
0.0
 11
9188.0
 21
36.5
 31
0.0
  0
LINE
  5
19A
  8
MyLines
 10
9190.0
 20
141.0
 30
0.0
 11
9434.0
 21
141.0
 31
0.0
  0
LINE
  5
19B
  8
MyLines
 10
9190.0
 20
0.0
 30
0.0
 11
9434.0
 21
0.0
 31
0.0
  0
LINE
  5
19C
  8
MyLines
 10
9190.0
 20
0.0
 30
0.0
 11
9190.0
 21
141.0
 31
0.0
  0
LINE
  5
19D
  8
MyLines
 10
9434.0
 20
0.0
 30
0.0
 11
9434.0
 21
141.0
 31
0.0
  0
TEXT
  5
19E
  8
MyLines
 62
1
 10
9191.0
 20
71.5
 30
0.0
 40
1.0
  1
7538-B
 11
9191.0
 21
71.5
 31
0.0
  0
TEXT
  5
19F
  8
MyLines
 62
1
 10
9191.0
 20
1.0
 30
0.0
 40
1.0
  1
7538-A
 11
9191.0
 21
1.0
 31
0.0
  0
LINE
  5
1A0
  8
MyLines
 10
9190.0
 20
70.5
 30
0.0
 11
9434.0
 21
70.5
 31
0.0
  0
LINE
  5
1A1
  8
MyLines
 10
9436.0
 20
176.0
 30
0.0
 11
9629.0
 21
176.0
 31
0.0
  0
LINE
  5
1A2
  8
MyLines
 10
9436.0
 20
0.0
 30
0.0
 11
9629.0
 21
0.0
 31
0.0
  0
LINE
  5
1A3
  8
MyLines
 10
9436.0
 20
0.0
 30
0.0
 11
9436.0
 21
176.0
 31
0.0
  0
LINE
  5
1A4
  8
MyLines
 10
9629.0
 20
0.0
 30
0.0
 11
9629.0
 21
176.0
 31
0.0
  0
TEXT
  5
1A5
  8
MyLines
 62
1
 10
9437.0
 20
89.0
 30
0.0
 40
1.0
  1
7539-B
 11
9437.0
 21
89.0
 31
0.0
  0
TEXT
  5
1A6
  8
MyLines
 62
1
 10
9437.0
 20
1.0
 30
0.0
 40
1.0
  1
7539-A
 11
9437.0
 21
1.0
 31
0.0
  0
LINE
  5
1A7
  8
MyLines
 10
9436.0
 20
88.0
 30
0.0
 11
9629.0
 21
88.0
 31
0.0
  0
LINE
  5
1A8
  8
MyLines
 10
9631.0
 20
86.0
 30
0.0
 11
9828.0
 21
86.0
 31
0.0
  0
LINE
  5
1A9
  8
MyLines
 10
9631.0
 20
0.0
 30
0.0
 11
9828.0
 21
0.0
 31
0.0
  0
LINE
  5
1AA
  8
MyLines
 10
9631.0
 20
0.0
 30
0.0
 11
9631.0
 21
86.0
 31
0.0
  0
LINE
  5
1AB
  8
MyLines
 10
9828.0
 20
0.0
 30
0.0
 11
9828.0
 21
86.0
 31
0.0
  0
TEXT
  5
1AC
  8
MyLines
 62
1
 10
9632.0
 20
44.0
 30
0.0
 40
1.0
  1
7540-B
 11
9632.0
 21
44.0
 31
0.0
  0
TEXT
  5
1AD
  8
MyLines
 62
1
 10
9632.0
 20
1.0
 30
0.0
 40
1.0
  1
7540-A
 11
9632.0
 21
1.0
 31
0.0
  0
LINE
  5
1AE
  8
MyLines
 10
9631.0
 20
43.0
 30
0.0
 11
9828.0
 21
43.0
 31
0.0
  0
LINE
  5
1AF
  8
MyLines
 10
9830.0
 20
128.0
 30
0.0
 11
10037.0
 21
128.0
 31
0.0
  0
LINE
  5
1B0
  8
MyLines
 10
9830.0
 20
0.0
 30
0.0
 11
10037.0
 21
0.0
 31
0.0
  0
LINE
  5
1B1
  8
MyLines
 10
9830.0
 20
0.0
 30
0.0
 11
9830.0
 21
128.0
 31
0.0
  0
LINE
  5
1B2
  8
MyLines
 10
10037.0
 20
0.0
 30
0.0
 11
10037.0
 21
128.0
 31
0.0
  0
TEXT
  5
1B3
  8
MyLines
 62
1
 10
9831.0
 20
65.0
 30
0.0
 40
1.0
  1
7541-B
 11
9831.0
 21
65.0
 31
0.0
  0
TEXT
  5
1B4
  8
MyLines
 62
1
 10
9831.0
 20
1.0
 30
0.0
 40
1.0
  1
7541-A
 11
9831.0
 21
1.0
 31
0.0
  0
LINE
  5
1B5
  8
MyLines
 10
9830.0
 20
64.0
 30
0.0
 11
10037.0
 21
64.0
 31
0.0
  0
LINE
  5
1B6
  8
MyLines
 10
10039.0
 20
77.0
 30
0.0
 11
10295.0
 21
77.0
 31
0.0
  0
LINE
  5
1B7
  8
MyLines
 10
10039.0
 20
0.0
 30
0.0
 11
10295.0
 21
0.0
 31
0.0
  0
LINE
  5
1B8
  8
MyLines
 10
10039.0
 20
0.0
 30
0.0
 11
10039.0
 21
77.0
 31
0.0
  0
LINE
  5
1B9
  8
MyLines
 10
10295.0
 20
0.0
 30
0.0
 11
10295.0
 21
77.0
 31
0.0
  0
TEXT
  5
1BA
  8
MyLines
 62
1
 10
10040.0
 20
39.5
 30
0.0
 40
1.0
  1
7542-B
 11
10040.0
 21
39.5
 31
0.0
  0
TEXT
  5
1BB
  8
MyLines
 62
1
 10
10040.0
 20
1.0
 30
0.0
 40
1.0
  1
7542-A
 11
10040.0
 21
1.0
 31
0.0
  0
LINE
  5
1BC
  8
MyLines
 10
10039.0
 20
38.5
 30
0.0
 11
10295.0
 21
38.5
 31
0.0
  0
LINE
  5
1BD
  8
MyLines
 10
10297.0
 20
91.0
 30
0.0
 11
10548.0
 21
91.0
 31
0.0
  0
LINE
  5
1BE
  8
MyLines
 10
10297.0
 20
0.0
 30
0.0
 11
10548.0
 21
0.0
 31
0.0
  0
LINE
  5
1BF
  8
MyLines
 10
10297.0
 20
0.0
 30
0.0
 11
10297.0
 21
91.0
 31
0.0
  0
LINE
  5
1C0
  8
MyLines
 10
10548.0
 20
0.0
 30
0.0
 11
10548.0
 21
91.0
 31
0.0
  0
TEXT
  5
1C1
  8
MyLines
 62
1
 10
10298.0
 20
46.5
 30
0.0
 40
1.0
  1
7543-B
 11
10298.0
 21
46.5
 31
0.0
  0
TEXT
  5
1C2
  8
MyLines
 62
1
 10
10298.0
 20
1.0
 30
0.0
 40
1.0
  1
7543-A
 11
10298.0
 21
1.0
 31
0.0
  0
LINE
  5
1C3
  8
MyLines
 10
10297.0
 20
45.5
 30
0.0
 11
10548.0
 21
45.5
 31
0.0
  0
LINE
  5
1C4
  8
MyLines
 10
10550.0
 20
93.0
 30
0.0
 11
10815.0
 21
93.0
 31
0.0
  0
LINE
  5
1C5
  8
MyLines
 10
10550.0
 20
0.0
 30
0.0
 11
10815.0
 21
0.0
 31
0.0
  0
LINE
  5
1C6
  8
MyLines
 10
10550.0
 20
0.0
 30
0.0
 11
10550.0
 21
93.0
 31
0.0
  0
LINE
  5
1C7
  8
MyLines
 10
10815.0
 20
0.0
 30
0.0
 11
10815.0
 21
93.0
 31
0.0
  0
TEXT
  5
1C8
  8
MyLines
 62
1
 10
10551.0
 20
47.5
 30
0.0
 40
1.0
  1
7544-B
 11
10551.0
 21
47.5
 31
0.0
  0
TEXT
  5
1C9
  8
MyLines
 62
1
 10
10551.0
 20
1.0
 30
0.0
 40
1.0
  1
7544-A
 11
10551.0
 21
1.0
 31
0.0
  0
LINE
  5
1CA
  8
MyLines
 10
10550.0
 20
46.5
 30
0.0
 11
10815.0
 21
46.5
 31
0.0
  0
LINE
  5
1CB
  8
MyLines
 10
10817.0
 20
108.0
 30
0.0
 11
11052.0
 21
108.0
 31
0.0
  0
LINE
  5
1CC
  8
MyLines
 10
10817.0
 20
0.0
 30
0.0
 11
11052.0
 21
0.0
 31
0.0
  0
LINE
  5
1CD
  8
MyLines
 10
10817.0
 20
0.0
 30
0.0
 11
10817.0
 21
108.0
 31
0.0
  0
LINE
  5
1CE
  8
MyLines
 10
11052.0
 20
0.0
 30
0.0
 11
11052.0
 21
108.0
 31
0.0
  0
TEXT
  5
1CF
  8
MyLines
 62
1
 10
10818.0
 20
55.0
 30
0.0
 40
1.0
  1
7545-B
 11
10818.0
 21
55.0
 31
0.0
  0
TEXT
  5
1D0
  8
MyLines
 62
1
 10
10818.0
 20
1.0
 30
0.0
 40
1.0
  1
7545-A
 11
10818.0
 21
1.0
 31
0.0
  0
LINE
  5
1D1
  8
MyLines
 10
10817.0
 20
54.0
 30
0.0
 11
11052.0
 21
54.0
 31
0.0
  0
LINE
  5
1D2
  8
MyLines
 10
11054.0
 20
141.0
 30
0.0
 11
11306.0
 21
141.0
 31
0.0
  0
LINE
  5
1D3
  8
MyLines
 10
11054.0
 20
0.0
 30
0.0
 11
11306.0
 21
0.0
 31
0.0
  0
LINE
  5
1D4
  8
MyLines
 10
11054.0
 20
0.0
 30
0.0
 11
11054.0
 21
141.0
 31
0.0
  0
LINE
  5
1D5
  8
MyLines
 10
11306.0
 20
0.0
 30
0.0
 11
11306.0
 21
141.0
 31
0.0
  0
TEXT
  5
1D6
  8
MyLines
 62
1
 10
11055.0
 20
71.5
 30
0.0
 40
1.0
  1
7546-B
 11
11055.0
 21
71.5
 31
0.0
  0
TEXT
  5
1D7
  8
MyLines
 62
1
 10
11055.0
 20
1.0
 30
0.0
 40
1.0
  1
7546-A
 11
11055.0
 21
1.0
 31
0.0
  0
LINE
  5
1D8
  8
MyLines
 10
11054.0
 20
70.5
 30
0.0
 11
11306.0
 21
70.5
 31
0.0
  0
LINE
  5
1D9
  8
MyLines
 10
11308.0
 20
167.0
 30
0.0
 11
11505.0
 21
167.0
 31
0.0
  0
LINE
  5
1DA
  8
MyLines
 10
11308.0
 20
0.0
 30
0.0
 11
11505.0
 21
0.0
 31
0.0
  0
LINE
  5
1DB
  8
MyLines
 10
11308.0
 20
0.0
 30
0.0
 11
11308.0
 21
167.0
 31
0.0
  0
LINE
  5
1DC
  8
MyLines
 10
11505.0
 20
0.0
 30
0.0
 11
11505.0
 21
167.0
 31
0.0
  0
TEXT
  5
1DD
  8
MyLines
 62
1
 10
11309.0
 20
84.5
 30
0.0
 40
1.0
  1
7547-B
 11
11309.0
 21
84.5
 31
0.0
  0
TEXT
  5
1DE
  8
MyLines
 62
1
 10
11309.0
 20
1.0
 30
0.0
 40
1.0
  1
7547-A
 11
11309.0
 21
1.0
 31
0.0
  0
LINE
  5
1DF
  8
MyLines
 10
11308.0
 20
83.5
 30
0.0
 11
11505.0
 21
83.5
 31
0.0
  0
LINE
  5
1E0
  8
MyLines
 10
11507.0
 20
131.0
 30
0.0
 11
11693.0
 21
131.0
 31
0.0
  0
LINE
  5
1E1
  8
MyLines
 10
11507.0
 20
0.0
 30
0.0
 11
11693.0
 21
0.0
 31
0.0
  0
LINE
  5
1E2
  8
MyLines
 10
11507.0
 20
0.0
 30
0.0
 11
11507.0
 21
131.0
 31
0.0
  0
LINE
  5
1E3
  8
MyLines
 10
11693.0
 20
0.0
 30
0.0
 11
11693.0
 21
131.0
 31
0.0
  0
TEXT
  5
1E4
  8
MyLines
 62
1
 10
11508.0
 20
66.5
 30
0.0
 40
1.0
  1
7548-B
 11
11508.0
 21
66.5
 31
0.0
  0
TEXT
  5
1E5
  8
MyLines
 62
1
 10
11508.0
 20
1.0
 30
0.0
 40
1.0
  1
7548-A
 11
11508.0
 21
1.0
 31
0.0
  0
LINE
  5
1E6
  8
MyLines
 10
11507.0
 20
65.5
 30
0.0
 11
11693.0
 21
65.5
 31
0.0
  0
LINE
  5
1E7
  8
MyLines
 10
11695.0
 20
126.0
 30
0.0
 11
11989.0
 21
126.0
 31
0.0
  0
LINE
  5
1E8
  8
MyLines
 10
11695.0
 20
0.0
 30
0.0
 11
11989.0
 21
0.0
 31
0.0
  0
LINE
  5
1E9
  8
MyLines
 10
11695.0
 20
0.0
 30
0.0
 11
11695.0
 21
126.0
 31
0.0
  0
LINE
  5
1EA
  8
MyLines
 10
11989.0
 20
0.0
 30
0.0
 11
11989.0
 21
126.0
 31
0.0
  0
TEXT
  5
1EB
  8
MyLines
 62
1
 10
11696.0
 20
64.0
 30
0.0
 40
1.0
  1
7549-B
 11
11696.0
 21
64.0
 31
0.0
  0
TEXT
  5
1EC
  8
MyLines
 62
1
 10
11696.0
 20
1.0
 30
0.0
 40
1.0
  1
7549-A
 11
11696.0
 21
1.0
 31
0.0
  0
LINE
  5
1ED
  8
MyLines
 10
11695.0
 20
63.0
 30
0.0
 11
11989.0
 21
63.0
 31
0.0
  0
LINE
  5
1EE
  8
MyLines
 10
11991.0
 20
150.0
 30
0.0
 11
12220.0
 21
150.0
 31
0.0
  0
LINE
  5
1EF
  8
MyLines
 10
11991.0
 20
0.0
 30
0.0
 11
12220.0
 21
0.0
 31
0.0
  0
LINE
  5
1F0
  8
MyLines
 10
11991.0
 20
0.0
 30
0.0
 11
11991.0
 21
150.0
 31
0.0
  0
LINE
  5
1F1
  8
MyLines
 10
12220.0
 20
0.0
 30
0.0
 11
12220.0
 21
150.0
 31
0.0
  0
TEXT
  5
1F2
  8
MyLines
 62
1
 10
11992.0
 20
76.0
 30
0.0
 40
1.0
  1
7550-B
 11
11992.0
 21
76.0
 31
0.0
  0
TEXT
  5
1F3
  8
MyLines
 62
1
 10
11992.0
 20
1.0
 30
0.0
 40
1.0
  1
7550-A
 11
11992.0
 21
1.0
 31
0.0
  0
LINE
  5
1F4
  8
MyLines
 10
11991.0
 20
75.0
 30
0.0
 11
12220.0
 21
75.0
 31
0.0
  0
LINE
  5
1F5
  8
MyLines
 10
12222.0
 20
167.0
 30
0.0
 11
12402.0
 21
167.0
 31
0.0
  0
LINE
  5
1F6
  8
MyLines
 10
12222.0
 20
0.0
 30
0.0
 11
12402.0
 21
0.0
 31
0.0
  0
LINE
  5
1F7
  8
MyLines
 10
12222.0
 20
0.0
 30
0.0
 11
12222.0
 21
167.0
 31
0.0
  0
LINE
  5
1F8
  8
MyLines
 10
12402.0
 20
0.0
 30
0.0
 11
12402.0
 21
167.0
 31
0.0
  0
TEXT
  5
1F9
  8
MyLines
 62
1
 10
12223.0
 20
84.5
 30
0.0
 40
1.0
  1
7551-B
 11
12223.0
 21
84.5
 31
0.0
  0
TEXT
  5
1FA
  8
MyLines
 62
1
 10
12223.0
 20
1.0
 30
0.0
 40
1.0
  1
7551-A
 11
12223.0
 21
1.0
 31
0.0
  0
LINE
  5
1FB
  8
MyLines
 10
12222.0
 20
83.5
 30
0.0
 11
12402.0
 21
83.5
 31
0.0
  0
LINE
  5
1FC
  8
MyLines
 10
12404.0
 20
89.0
 30
0.0
 11
12606.0
 21
89.0
 31
0.0
  0
LINE
  5
1FD
  8
MyLines
 10
12404.0
 20
0.0
 30
0.0
 11
12606.0
 21
0.0
 31
0.0
  0
LINE
  5
1FE
  8
MyLines
 10
12404.0
 20
0.0
 30
0.0
 11
12404.0
 21
89.0
 31
0.0
  0
LINE
  5
1FF
  8
MyLines
 10
12606.0
 20
0.0
 30
0.0
 11
12606.0
 21
89.0
 31
0.0
  0
TEXT
  5
200
  8
MyLines
 62
1
 10
12405.0
 20
45.5
 30
0.0
 40
1.0
  1
7552-B
 11
12405.0
 21
45.5
 31
0.0
  0
TEXT
  5
201
  8
MyLines
 62
1
 10
12405.0
 20
1.0
 30
0.0
 40
1.0
  1
7552-A
 11
12405.0
 21
1.0
 31
0.0
  0
LINE
  5
202
  8
MyLines
 10
12404.0
 20
44.5
 30
0.0
 11
12606.0
 21
44.5
 31
0.0
  0
LINE
  5
203
  8
MyLines
 10
12608.0
 20
73.0
 30
0.0
 11
12898.0
 21
73.0
 31
0.0
  0
LINE
  5
204
  8
MyLines
 10
12608.0
 20
0.0
 30
0.0
 11
12898.0
 21
0.0
 31
0.0
  0
LINE
  5
205
  8
MyLines
 10
12608.0
 20
0.0
 30
0.0
 11
12608.0
 21
73.0
 31
0.0
  0
LINE
  5
206
  8
MyLines
 10
12898.0
 20
0.0
 30
0.0
 11
12898.0
 21
73.0
 31
0.0
  0
TEXT
  5
207
  8
MyLines
 62
1
 10
12609.0
 20
37.5
 30
0.0
 40
1.0
  1
7553-B
 11
12609.0
 21
37.5
 31
0.0
  0
TEXT
  5
208
  8
MyLines
 62
1
 10
12609.0
 20
1.0
 30
0.0
 40
1.0
  1
7553-A
 11
12609.0
 21
1.0
 31
0.0
  0
LINE
  5
209
  8
MyLines
 10
12608.0
 20
36.5
 30
0.0
 11
12898.0
 21
36.5
 31
0.0
  0
LINE
  5
20A
  8
MyLines
 10
12900.0
 20
100.0
 30
0.0
 11
13180.0
 21
100.0
 31
0.0
  0
LINE
  5
20B
  8
MyLines
 10
12900.0
 20
0.0
 30
0.0
 11
13180.0
 21
0.0
 31
0.0
  0
LINE
  5
20C
  8
MyLines
 10
12900.0
 20
0.0
 30
0.0
 11
12900.0
 21
100.0
 31
0.0
  0
LINE
  5
20D
  8
MyLines
 10
13180.0
 20
0.0
 30
0.0
 11
13180.0
 21
100.0
 31
0.0
  0
TEXT
  5
20E
  8
MyLines
 62
1
 10
12901.0
 20
51.0
 30
0.0
 40
1.0
  1
7554-B
 11
12901.0
 21
51.0
 31
0.0
  0
TEXT
  5
20F
  8
MyLines
 62
1
 10
12901.0
 20
1.0
 30
0.0
 40
1.0
  1
7554-A
 11
12901.0
 21
1.0
 31
0.0
  0
LINE
  5
210
  8
MyLines
 10
12900.0
 20
50.0
 30
0.0
 11
13180.0
 21
50.0
 31
0.0
  0
LINE
  5
211
  8
MyLines
 10
13182.0
 20
121.0
 30
0.0
 11
13432.0
 21
121.0
 31
0.0
  0
LINE
  5
212
  8
MyLines
 10
13182.0
 20
0.0
 30
0.0
 11
13432.0
 21
0.0
 31
0.0
  0
LINE
  5
213
  8
MyLines
 10
13182.0
 20
0.0
 30
0.0
 11
13182.0
 21
121.0
 31
0.0
  0
LINE
  5
214
  8
MyLines
 10
13432.0
 20
0.0
 30
0.0
 11
13432.0
 21
121.0
 31
0.0
  0
TEXT
  5
215
  8
MyLines
 62
1
 10
13183.0
 20
61.5
 30
0.0
 40
1.0
  1
7555-B
 11
13183.0
 21
61.5
 31
0.0
  0
TEXT
  5
216
  8
MyLines
 62
1
 10
13183.0
 20
1.0
 30
0.0
 40
1.0
  1
7555-A
 11
13183.0
 21
1.0
 31
0.0
  0
LINE
  5
217
  8
MyLines
 10
13182.0
 20
60.5
 30
0.0
 11
13432.0
 21
60.5
 31
0.0
  0
LINE
  5
218
  8
MyLines
 10
13434.0
 20
116.0
 30
0.0
 11
13629.0
 21
116.0
 31
0.0
  0
LINE
  5
219
  8
MyLines
 10
13434.0
 20
0.0
 30
0.0
 11
13629.0
 21
0.0
 31
0.0
  0
LINE
  5
21A
  8
MyLines
 10
13434.0
 20
0.0
 30
0.0
 11
13434.0
 21
116.0
 31
0.0
  0
LINE
  5
21B
  8
MyLines
 10
13629.0
 20
0.0
 30
0.0
 11
13629.0
 21
116.0
 31
0.0
  0
TEXT
  5
21C
  8
MyLines
 62
1
 10
13435.0
 20
59.0
 30
0.0
 40
1.0
  1
7556-B
 11
13435.0
 21
59.0
 31
0.0
  0
TEXT
  5
21D
  8
MyLines
 62
1
 10
13435.0
 20
1.0
 30
0.0
 40
1.0
  1
7556-A
 11
13435.0
 21
1.0
 31
0.0
  0
LINE
  5
21E
  8
MyLines
 10
13434.0
 20
58.0
 30
0.0
 11
13629.0
 21
58.0
 31
0.0
  0
LINE
  5
21F
  8
MyLines
 10
13631.0
 20
140.0
 30
0.0
 11
13813.0
 21
140.0
 31
0.0
  0
LINE
  5
220
  8
MyLines
 10
13631.0
 20
0.0
 30
0.0
 11
13813.0
 21
0.0
 31
0.0
  0
LINE
  5
221
  8
MyLines
 10
13631.0
 20
0.0
 30
0.0
 11
13631.0
 21
140.0
 31
0.0
  0
LINE
  5
222
  8
MyLines
 10
13813.0
 20
0.0
 30
0.0
 11
13813.0
 21
140.0
 31
0.0
  0
TEXT
  5
223
  8
MyLines
 62
1
 10
13632.0
 20
71.0
 30
0.0
 40
1.0
  1
7557-B
 11
13632.0
 21
71.0
 31
0.0
  0
TEXT
  5
224
  8
MyLines
 62
1
 10
13632.0
 20
1.0
 30
0.0
 40
1.0
  1
7557-A
 11
13632.0
 21
1.0
 31
0.0
  0
LINE
  5
225
  8
MyLines
 10
13631.0
 20
70.0
 30
0.0
 11
13813.0
 21
70.0
 31
0.0
  0
LINE
  5
226
  8
MyLines
 10
13815.0
 20
139.0
 30
0.0
 11
14080.0
 21
139.0
 31
0.0
  0
LINE
  5
227
  8
MyLines
 10
13815.0
 20
0.0
 30
0.0
 11
14080.0
 21
0.0
 31
0.0
  0
LINE
  5
228
  8
MyLines
 10
13815.0
 20
0.0
 30
0.0
 11
13815.0
 21
139.0
 31
0.0
  0
LINE
  5
229
  8
MyLines
 10
14080.0
 20
0.0
 30
0.0
 11
14080.0
 21
139.0
 31
0.0
  0
TEXT
  5
22A
  8
MyLines
 62
1
 10
13816.0
 20
70.5
 30
0.0
 40
1.0
  1
7558-B
 11
13816.0
 21
70.5
 31
0.0
  0
TEXT
  5
22B
  8
MyLines
 62
1
 10
13816.0
 20
1.0
 30
0.0
 40
1.0
  1
7558-A
 11
13816.0
 21
1.0
 31
0.0
  0
LINE
  5
22C
  8
MyLines
 10
13815.0
 20
69.5
 30
0.0
 11
14080.0
 21
69.5
 31
0.0
  0
LINE
  5
22D
  8
MyLines
 10
14082.0
 20
120.0
 30
0.0
 11
14262.0
 21
120.0
 31
0.0
  0
LINE
  5
22E
  8
MyLines
 10
14082.0
 20
0.0
 30
0.0
 11
14262.0
 21
0.0
 31
0.0
  0
LINE
  5
22F
  8
MyLines
 10
14082.0
 20
0.0
 30
0.0
 11
14082.0
 21
120.0
 31
0.0
  0
LINE
  5
230
  8
MyLines
 10
14262.0
 20
0.0
 30
0.0
 11
14262.0
 21
120.0
 31
0.0
  0
TEXT
  5
231
  8
MyLines
 62
1
 10
14083.0
 20
61.0
 30
0.0
 40
1.0
  1
7559-B
 11
14083.0
 21
61.0
 31
0.0
  0
TEXT
  5
232
  8
MyLines
 62
1
 10
14083.0
 20
1.0
 30
0.0
 40
1.0
  1
7559-A
 11
14083.0
 21
1.0
 31
0.0
  0
LINE
  5
233
  8
MyLines
 10
14082.0
 20
60.0
 30
0.0
 11
14262.0
 21
60.0
 31
0.0
  0
LINE
  5
234
  8
MyLines
 10
14264.0
 20
73.0
 30
0.0
 11
14511.0
 21
73.0
 31
0.0
  0
LINE
  5
235
  8
MyLines
 10
14264.0
 20
0.0
 30
0.0
 11
14511.0
 21
0.0
 31
0.0
  0
LINE
  5
236
  8
MyLines
 10
14264.0
 20
0.0
 30
0.0
 11
14264.0
 21
73.0
 31
0.0
  0
LINE
  5
237
  8
MyLines
 10
14511.0
 20
0.0
 30
0.0
 11
14511.0
 21
73.0
 31
0.0
  0
TEXT
  5
238
  8
MyLines
 62
1
 10
14265.0
 20
37.5
 30
0.0
 40
1.0
  1
7560-B
 11
14265.0
 21
37.5
 31
0.0
  0
TEXT
  5
239
  8
MyLines
 62
1
 10
14265.0
 20
1.0
 30
0.0
 40
1.0
  1
7560-A
 11
14265.0
 21
1.0
 31
0.0
  0
LINE
  5
23A
  8
MyLines
 10
14264.0
 20
36.5
 30
0.0
 11
14511.0
 21
36.5
 31
0.0
  0
LINE
  5
23B
  8
MyLines
 10
14513.0
 20
96.0
 30
0.0
 11
14799.0
 21
96.0
 31
0.0
  0
LINE
  5
23C
  8
MyLines
 10
14513.0
 20
0.0
 30
0.0
 11
14799.0
 21
0.0
 31
0.0
  0
LINE
  5
23D
  8
MyLines
 10
14513.0
 20
0.0
 30
0.0
 11
14513.0
 21
96.0
 31
0.0
  0
LINE
  5
23E
  8
MyLines
 10
14799.0
 20
0.0
 30
0.0
 11
14799.0
 21
96.0
 31
0.0
  0
TEXT
  5
23F
  8
MyLines
 62
1
 10
14514.0
 20
49.0
 30
0.0
 40
1.0
  1
7561-B
 11
14514.0
 21
49.0
 31
0.0
  0
TEXT
  5
240
  8
MyLines
 62
1
 10
14514.0
 20
1.0
 30
0.0
 40
1.0
  1
7561-A
 11
14514.0
 21
1.0
 31
0.0
  0
LINE
  5
241
  8
MyLines
 10
14513.0
 20
48.0
 30
0.0
 11
14799.0
 21
48.0
 31
0.0
  0
LINE
  5
242
  8
MyLines
 10
14801.0
 20
158.0
 30
0.0
 11
15060.0
 21
158.0
 31
0.0
  0
LINE
  5
243
  8
MyLines
 10
14801.0
 20
0.0
 30
0.0
 11
15060.0
 21
0.0
 31
0.0
  0
LINE
  5
244
  8
MyLines
 10
14801.0
 20
0.0
 30
0.0
 11
14801.0
 21
158.0
 31
0.0
  0
LINE
  5
245
  8
MyLines
 10
15060.0
 20
0.0
 30
0.0
 11
15060.0
 21
158.0
 31
0.0
  0
TEXT
  5
246
  8
MyLines
 62
1
 10
14802.0
 20
80.0
 30
0.0
 40
1.0
  1
7562-B
 11
14802.0
 21
80.0
 31
0.0
  0
TEXT
  5
247
  8
MyLines
 62
1
 10
14802.0
 20
1.0
 30
0.0
 40
1.0
  1
7562-A
 11
14802.0
 21
1.0
 31
0.0
  0
LINE
  5
248
  8
MyLines
 10
14801.0
 20
79.0
 30
0.0
 11
15060.0
 21
79.0
 31
0.0
  0
LINE
  5
249
  8
MyLines
 10
15062.0
 20
110.0
 30
0.0
 11
15346.0
 21
110.0
 31
0.0
  0
LINE
  5
24A
  8
MyLines
 10
15062.0
 20
0.0
 30
0.0
 11
15346.0
 21
0.0
 31
0.0
  0
LINE
  5
24B
  8
MyLines
 10
15062.0
 20
0.0
 30
0.0
 11
15062.0
 21
110.0
 31
0.0
  0
LINE
  5
24C
  8
MyLines
 10
15346.0
 20
0.0
 30
0.0
 11
15346.0
 21
110.0
 31
0.0
  0
TEXT
  5
24D
  8
MyLines
 62
1
 10
15063.0
 20
56.0
 30
0.0
 40
1.0
  1
7563-B
 11
15063.0
 21
56.0
 31
0.0
  0
TEXT
  5
24E
  8
MyLines
 62
1
 10
15063.0
 20
1.0
 30
0.0
 40
1.0
  1
7563-A
 11
15063.0
 21
1.0
 31
0.0
  0
LINE
  5
24F
  8
MyLines
 10
15062.0
 20
55.0
 30
0.0
 11
15346.0
 21
55.0
 31
0.0
  0
LINE
  5
250
  8
MyLines
 10
15348.0
 20
124.0
 30
0.0
 11
15579.0
 21
124.0
 31
0.0
  0
LINE
  5
251
  8
MyLines
 10
15348.0
 20
0.0
 30
0.0
 11
15579.0
 21
0.0
 31
0.0
  0
LINE
  5
252
  8
MyLines
 10
15348.0
 20
0.0
 30
0.0
 11
15348.0
 21
124.0
 31
0.0
  0
LINE
  5
253
  8
MyLines
 10
15579.0
 20
0.0
 30
0.0
 11
15579.0
 21
124.0
 31
0.0
  0
TEXT
  5
254
  8
MyLines
 62
1
 10
15349.0
 20
63.0
 30
0.0
 40
1.0
  1
7564-B
 11
15349.0
 21
63.0
 31
0.0
  0
TEXT
  5
255
  8
MyLines
 62
1
 10
15349.0
 20
1.0
 30
0.0
 40
1.0
  1
7564-A
 11
15349.0
 21
1.0
 31
0.0
  0
LINE
  5
256
  8
MyLines
 10
15348.0
 20
62.0
 30
0.0
 11
15579.0
 21
62.0
 31
0.0
  0
LINE
  5
257
  8
MyLines
 10
15581.0
 20
142.0
 30
0.0
 11
15812.0
 21
142.0
 31
0.0
  0
LINE
  5
258
  8
MyLines
 10
15581.0
 20
0.0
 30
0.0
 11
15812.0
 21
0.0
 31
0.0
  0
LINE
  5
259
  8
MyLines
 10
15581.0
 20
0.0
 30
0.0
 11
15581.0
 21
142.0
 31
0.0
  0
LINE
  5
25A
  8
MyLines
 10
15812.0
 20
0.0
 30
0.0
 11
15812.0
 21
142.0
 31
0.0
  0
TEXT
  5
25B
  8
MyLines
 62
1
 10
15582.0
 20
72.0
 30
0.0
 40
1.0
  1
7565-B
 11
15582.0
 21
72.0
 31
0.0
  0
TEXT
  5
25C
  8
MyLines
 62
1
 10
15582.0
 20
1.0
 30
0.0
 40
1.0
  1
7565-A
 11
15582.0
 21
1.0
 31
0.0
  0
LINE
  5
25D
  8
MyLines
 10
15581.0
 20
71.0
 30
0.0
 11
15812.0
 21
71.0
 31
0.0
  0
LINE
  5
25E
  8
MyLines
 10
15814.0
 20
175.0
 30
0.0
 11
15990.0
 21
175.0
 31
0.0
  0
LINE
  5
25F
  8
MyLines
 10
15814.0
 20
0.0
 30
0.0
 11
15990.0
 21
0.0
 31
0.0
  0
LINE
  5
260
  8
MyLines
 10
15814.0
 20
0.0
 30
0.0
 11
15814.0
 21
175.0
 31
0.0
  0
LINE
  5
261
  8
MyLines
 10
15990.0
 20
0.0
 30
0.0
 11
15990.0
 21
175.0
 31
0.0
  0
TEXT
  5
262
  8
MyLines
 62
1
 10
15815.0
 20
88.5
 30
0.0
 40
1.0
  1
7566-B
 11
15815.0
 21
88.5
 31
0.0
  0
TEXT
  5
263
  8
MyLines
 62
1
 10
15815.0
 20
1.0
 30
0.0
 40
1.0
  1
7566-A
 11
15815.0
 21
1.0
 31
0.0
  0
LINE
  5
264
  8
MyLines
 10
15814.0
 20
87.5
 30
0.0
 11
15990.0
 21
87.5
 31
0.0
  0
LINE
  5
265
  8
MyLines
 10
15992.0
 20
113.0
 30
0.0
 11
16278.0
 21
113.0
 31
0.0
  0
LINE
  5
266
  8
MyLines
 10
15992.0
 20
0.0
 30
0.0
 11
16278.0
 21
0.0
 31
0.0
  0
LINE
  5
267
  8
MyLines
 10
15992.0
 20
0.0
 30
0.0
 11
15992.0
 21
113.0
 31
0.0
  0
LINE
  5
268
  8
MyLines
 10
16278.0
 20
0.0
 30
0.0
 11
16278.0
 21
113.0
 31
0.0
  0
TEXT
  5
269
  8
MyLines
 62
1
 10
15993.0
 20
57.5
 30
0.0
 40
1.0
  1
7567-B
 11
15993.0
 21
57.5
 31
0.0
  0
TEXT
  5
26A
  8
MyLines
 62
1
 10
15993.0
 20
1.0
 30
0.0
 40
1.0
  1
7567-A
 11
15993.0
 21
1.0
 31
0.0
  0
LINE
  5
26B
  8
MyLines
 10
15992.0
 20
56.5
 30
0.0
 11
16278.0
 21
56.5
 31
0.0
  0
LINE
  5
26C
  8
MyLines
 10
16280.0
 20
158.0
 30
0.0
 11
16504.0
 21
158.0
 31
0.0
  0
LINE
  5
26D
  8
MyLines
 10
16280.0
 20
0.0
 30
0.0
 11
16504.0
 21
0.0
 31
0.0
  0
LINE
  5
26E
  8
MyLines
 10
16280.0
 20
0.0
 30
0.0
 11
16280.0
 21
158.0
 31
0.0
  0
LINE
  5
26F
  8
MyLines
 10
16504.0
 20
0.0
 30
0.0
 11
16504.0
 21
158.0
 31
0.0
  0
TEXT
  5
270
  8
MyLines
 62
1
 10
16281.0
 20
80.0
 30
0.0
 40
1.0
  1
7568-B
 11
16281.0
 21
80.0
 31
0.0
  0
TEXT
  5
271
  8
MyLines
 62
1
 10
16281.0
 20
1.0
 30
0.0
 40
1.0
  1
7568-A
 11
16281.0
 21
1.0
 31
0.0
  0
LINE
  5
272
  8
MyLines
 10
16280.0
 20
79.0
 30
0.0
 11
16504.0
 21
79.0
 31
0.0
  0
LINE
  5
273
  8
MyLines
 10
16506.0
 20
180.0
 30
0.0
 11
16769.0
 21
180.0
 31
0.0
  0
LINE
  5
274
  8
MyLines
 10
16506.0
 20
0.0
 30
0.0
 11
16769.0
 21
0.0
 31
0.0
  0
LINE
  5
275
  8
MyLines
 10
16506.0
 20
0.0
 30
0.0
 11
16506.0
 21
180.0
 31
0.0
  0
LINE
  5
276
  8
MyLines
 10
16769.0
 20
0.0
 30
0.0
 11
16769.0
 21
180.0
 31
0.0
  0
TEXT
  5
277
  8
MyLines
 62
1
 10
16507.0
 20
91.0
 30
0.0
 40
1.0
  1
7569-B
 11
16507.0
 21
91.0
 31
0.0
  0
TEXT
  5
278
  8
MyLines
 62
1
 10
16507.0
 20
1.0
 30
0.0
 40
1.0
  1
7569-A
 11
16507.0
 21
1.0
 31
0.0
  0
LINE
  5
279
  8
MyLines
 10
16506.0
 20
90.0
 30
0.0
 11
16769.0
 21
90.0
 31
0.0
  0
LINE
  5
27A
  8
MyLines
 10
16771.0
 20
161.0
 30
0.0
 11
17003.0
 21
161.0
 31
0.0
  0
LINE
  5
27B
  8
MyLines
 10
16771.0
 20
0.0
 30
0.0
 11
17003.0
 21
0.0
 31
0.0
  0
LINE
  5
27C
  8
MyLines
 10
16771.0
 20
0.0
 30
0.0
 11
16771.0
 21
161.0
 31
0.0
  0
LINE
  5
27D
  8
MyLines
 10
17003.0
 20
0.0
 30
0.0
 11
17003.0
 21
161.0
 31
0.0
  0
TEXT
  5
27E
  8
MyLines
 62
1
 10
16772.0
 20
81.5
 30
0.0
 40
1.0
  1
7570-B
 11
16772.0
 21
81.5
 31
0.0
  0
TEXT
  5
27F
  8
MyLines
 62
1
 10
16772.0
 20
1.0
 30
0.0
 40
1.0
  1
7570-A
 11
16772.0
 21
1.0
 31
0.0
  0
LINE
  5
280
  8
MyLines
 10
16771.0
 20
80.5
 30
0.0
 11
17003.0
 21
80.5
 31
0.0
  0
LINE
  5
281
  8
MyLines
 10
17005.0
 20
81.0
 30
0.0
 11
17269.0
 21
81.0
 31
0.0
  0
LINE
  5
282
  8
MyLines
 10
17005.0
 20
0.0
 30
0.0
 11
17269.0
 21
0.0
 31
0.0
  0
LINE
  5
283
  8
MyLines
 10
17005.0
 20
0.0
 30
0.0
 11
17005.0
 21
81.0
 31
0.0
  0
LINE
  5
284
  8
MyLines
 10
17269.0
 20
0.0
 30
0.0
 11
17269.0
 21
81.0
 31
0.0
  0
TEXT
  5
285
  8
MyLines
 62
1
 10
17006.0
 20
41.5
 30
0.0
 40
1.0
  1
7571-B
 11
17006.0
 21
41.5
 31
0.0
  0
TEXT
  5
286
  8
MyLines
 62
1
 10
17006.0
 20
1.0
 30
0.0
 40
1.0
  1
7571-A
 11
17006.0
 21
1.0
 31
0.0
  0
LINE
  5
287
  8
MyLines
 10
17005.0
 20
40.5
 30
0.0
 11
17269.0
 21
40.5
 31
0.0
  0
LINE
  5
288
  8
MyLines
 10
17271.0
 20
139.0
 30
0.0
 11
17548.0
 21
139.0
 31
0.0
  0
LINE
  5
289
  8
MyLines
 10
17271.0
 20
0.0
 30
0.0
 11
17548.0
 21
0.0
 31
0.0
  0
LINE
  5
28A
  8
MyLines
 10
17271.0
 20
0.0
 30
0.0
 11
17271.0
 21
139.0
 31
0.0
  0
LINE
  5
28B
  8
MyLines
 10
17548.0
 20
0.0
 30
0.0
 11
17548.0
 21
139.0
 31
0.0
  0
TEXT
  5
28C
  8
MyLines
 62
1
 10
17272.0
 20
70.5
 30
0.0
 40
1.0
  1
7572-B
 11
17272.0
 21
70.5
 31
0.0
  0
TEXT
  5
28D
  8
MyLines
 62
1
 10
17272.0
 20
1.0
 30
0.0
 40
1.0
  1
7572-A
 11
17272.0
 21
1.0
 31
0.0
  0
LINE
  5
28E
  8
MyLines
 10
17271.0
 20
69.5
 30
0.0
 11
17548.0
 21
69.5
 31
0.0
  0
LINE
  5
28F
  8
MyLines
 10
17550.0
 20
156.0
 30
0.0
 11
17788.0
 21
156.0
 31
0.0
  0
LINE
  5
290
  8
MyLines
 10
17550.0
 20
0.0
 30
0.0
 11
17788.0
 21
0.0
 31
0.0
  0
LINE
  5
291
  8
MyLines
 10
17550.0
 20
0.0
 30
0.0
 11
17550.0
 21
156.0
 31
0.0
  0
LINE
  5
292
  8
MyLines
 10
17788.0
 20
0.0
 30
0.0
 11
17788.0
 21
156.0
 31
0.0
  0
TEXT
  5
293
  8
MyLines
 62
1
 10
17551.0
 20
79.0
 30
0.0
 40
1.0
  1
7573-B
 11
17551.0
 21
79.0
 31
0.0
  0
TEXT
  5
294
  8
MyLines
 62
1
 10
17551.0
 20
1.0
 30
0.0
 40
1.0
  1
7573-A
 11
17551.0
 21
1.0
 31
0.0
  0
LINE
  5
295
  8
MyLines
 10
17550.0
 20
78.0
 30
0.0
 11
17788.0
 21
78.0
 31
0.0
  0
LINE
  5
296
  8
MyLines
 10
17790.0
 20
105.0
 30
0.0
 11
18069.0
 21
105.0
 31
0.0
  0
LINE
  5
297
  8
MyLines
 10
17790.0
 20
0.0
 30
0.0
 11
18069.0
 21
0.0
 31
0.0
  0
LINE
  5
298
  8
MyLines
 10
17790.0
 20
0.0
 30
0.0
 11
17790.0
 21
105.0
 31
0.0
  0
LINE
  5
299
  8
MyLines
 10
18069.0
 20
0.0
 30
0.0
 11
18069.0
 21
105.0
 31
0.0
  0
TEXT
  5
29A
  8
MyLines
 62
1
 10
17791.0
 20
53.5
 30
0.0
 40
1.0
  1
7574-B
 11
17791.0
 21
53.5
 31
0.0
  0
TEXT
  5
29B
  8
MyLines
 62
1
 10
17791.0
 20
1.0
 30
0.0
 40
1.0
  1
7574-A
 11
17791.0
 21
1.0
 31
0.0
  0
LINE
  5
29C
  8
MyLines
 10
17790.0
 20
52.5
 30
0.0
 11
18069.0
 21
52.5
 31
0.0
  0
LINE
  5
29D
  8
MyLines
 10
18071.0
 20
158.0
 30
0.0
 11
18357.0
 21
158.0
 31
0.0
  0
LINE
  5
29E
  8
MyLines
 10
18071.0
 20
0.0
 30
0.0
 11
18357.0
 21
0.0
 31
0.0
  0
LINE
  5
29F
  8
MyLines
 10
18071.0
 20
0.0
 30
0.0
 11
18071.0
 21
158.0
 31
0.0
  0
LINE
  5
2A0
  8
MyLines
 10
18357.0
 20
0.0
 30
0.0
 11
18357.0
 21
158.0
 31
0.0
  0
TEXT
  5
2A1
  8
MyLines
 62
1
 10
18072.0
 20
80.0
 30
0.0
 40
1.0
  1
7575-B
 11
18072.0
 21
80.0
 31
0.0
  0
TEXT
  5
2A2
  8
MyLines
 62
1
 10
18072.0
 20
1.0
 30
0.0
 40
1.0
  1
7575-A
 11
18072.0
 21
1.0
 31
0.0
  0
LINE
  5
2A3
  8
MyLines
 10
18071.0
 20
79.0
 30
0.0
 11
18357.0
 21
79.0
 31
0.0
  0
LINE
  5
2A4
  8
MyLines
 10
18359.0
 20
87.0
 30
0.0
 11
18550.0
 21
87.0
 31
0.0
  0
LINE
  5
2A5
  8
MyLines
 10
18359.0
 20
0.0
 30
0.0
 11
18550.0
 21
0.0
 31
0.0
  0
LINE
  5
2A6
  8
MyLines
 10
18359.0
 20
0.0
 30
0.0
 11
18359.0
 21
87.0
 31
0.0
  0
LINE
  5
2A7
  8
MyLines
 10
18550.0
 20
0.0
 30
0.0
 11
18550.0
 21
87.0
 31
0.0
  0
TEXT
  5
2A8
  8
MyLines
 62
1
 10
18360.0
 20
44.5
 30
0.0
 40
1.0
  1
7576-B
 11
18360.0
 21
44.5
 31
0.0
  0
TEXT
  5
2A9
  8
MyLines
 62
1
 10
18360.0
 20
1.0
 30
0.0
 40
1.0
  1
7576-A
 11
18360.0
 21
1.0
 31
0.0
  0
LINE
  5
2AA
  8
MyLines
 10
18359.0
 20
43.5
 30
0.0
 11
18550.0
 21
43.5
 31
0.0
  0
LINE
  5
2AB
  8
MyLines
 10
18552.0
 20
93.0
 30
0.0
 11
18728.0
 21
93.0
 31
0.0
  0
LINE
  5
2AC
  8
MyLines
 10
18552.0
 20
0.0
 30
0.0
 11
18728.0
 21
0.0
 31
0.0
  0
LINE
  5
2AD
  8
MyLines
 10
18552.0
 20
0.0
 30
0.0
 11
18552.0
 21
93.0
 31
0.0
  0
LINE
  5
2AE
  8
MyLines
 10
18728.0
 20
0.0
 30
0.0
 11
18728.0
 21
93.0
 31
0.0
  0
TEXT
  5
2AF
  8
MyLines
 62
1
 10
18553.0
 20
47.5
 30
0.0
 40
1.0
  1
7577-B
 11
18553.0
 21
47.5
 31
0.0
  0
TEXT
  5
2B0
  8
MyLines
 62
1
 10
18553.0
 20
1.0
 30
0.0
 40
1.0
  1
7577-A
 11
18553.0
 21
1.0
 31
0.0
  0
LINE
  5
2B1
  8
MyLines
 10
18552.0
 20
46.5
 30
0.0
 11
18728.0
 21
46.5
 31
0.0
  0
LINE
  5
2B2
  8
MyLines
 10
18730.0
 20
92.0
 30
0.0
 11
18924.0
 21
92.0
 31
0.0
  0
LINE
  5
2B3
  8
MyLines
 10
18730.0
 20
0.0
 30
0.0
 11
18924.0
 21
0.0
 31
0.0
  0
LINE
  5
2B4
  8
MyLines
 10
18730.0
 20
0.0
 30
0.0
 11
18730.0
 21
92.0
 31
0.0
  0
LINE
  5
2B5
  8
MyLines
 10
18924.0
 20
0.0
 30
0.0
 11
18924.0
 21
92.0
 31
0.0
  0
TEXT
  5
2B6
  8
MyLines
 62
1
 10
18731.0
 20
47.0
 30
0.0
 40
1.0
  1
7578-B
 11
18731.0
 21
47.0
 31
0.0
  0
TEXT
  5
2B7
  8
MyLines
 62
1
 10
18731.0
 20
1.0
 30
0.0
 40
1.0
  1
7578-A
 11
18731.0
 21
1.0
 31
0.0
  0
LINE
  5
2B8
  8
MyLines
 10
18730.0
 20
46.0
 30
0.0
 11
18924.0
 21
46.0
 31
0.0
  0
LINE
  5
2B9
  8
MyLines
 10
18926.0
 20
112.0
 30
0.0
 11
19209.0
 21
112.0
 31
0.0
  0
LINE
  5
2BA
  8
MyLines
 10
18926.0
 20
0.0
 30
0.0
 11
19209.0
 21
0.0
 31
0.0
  0
LINE
  5
2BB
  8
MyLines
 10
18926.0
 20
0.0
 30
0.0
 11
18926.0
 21
112.0
 31
0.0
  0
LINE
  5
2BC
  8
MyLines
 10
19209.0
 20
0.0
 30
0.0
 11
19209.0
 21
112.0
 31
0.0
  0
TEXT
  5
2BD
  8
MyLines
 62
1
 10
18927.0
 20
57.0
 30
0.0
 40
1.0
  1
7579-B
 11
18927.0
 21
57.0
 31
0.0
  0
TEXT
  5
2BE
  8
MyLines
 62
1
 10
18927.0
 20
1.0
 30
0.0
 40
1.0
  1
7579-A
 11
18927.0
 21
1.0
 31
0.0
  0
LINE
  5
2BF
  8
MyLines
 10
18926.0
 20
56.0
 30
0.0
 11
19209.0
 21
56.0
 31
0.0
  0
LINE
  5
2C0
  8
MyLines
 10
19211.0
 20
73.0
 30
0.0
 11
19461.0
 21
73.0
 31
0.0
  0
LINE
  5
2C1
  8
MyLines
 10
19211.0
 20
0.0
 30
0.0
 11
19461.0
 21
0.0
 31
0.0
  0
LINE
  5
2C2
  8
MyLines
 10
19211.0
 20
0.0
 30
0.0
 11
19211.0
 21
73.0
 31
0.0
  0
LINE
  5
2C3
  8
MyLines
 10
19461.0
 20
0.0
 30
0.0
 11
19461.0
 21
73.0
 31
0.0
  0
TEXT
  5
2C4
  8
MyLines
 62
1
 10
19212.0
 20
37.5
 30
0.0
 40
1.0
  1
7580-B
 11
19212.0
 21
37.5
 31
0.0
  0
TEXT
  5
2C5
  8
MyLines
 62
1
 10
19212.0
 20
1.0
 30
0.0
 40
1.0
  1
7580-A
 11
19212.0
 21
1.0
 31
0.0
  0
LINE
  5
2C6
  8
MyLines
 10
19211.0
 20
36.5
 30
0.0
 11
19461.0
 21
36.5
 31
0.0
  0
LINE
  5
2C7
  8
MyLines
 10
19463.0
 20
154.0
 30
0.0
 11
19649.0
 21
154.0
 31
0.0
  0
LINE
  5
2C8
  8
MyLines
 10
19463.0
 20
0.0
 30
0.0
 11
19649.0
 21
0.0
 31
0.0
  0
LINE
  5
2C9
  8
MyLines
 10
19463.0
 20
0.0
 30
0.0
 11
19463.0
 21
154.0
 31
0.0
  0
LINE
  5
2CA
  8
MyLines
 10
19649.0
 20
0.0
 30
0.0
 11
19649.0
 21
154.0
 31
0.0
  0
TEXT
  5
2CB
  8
MyLines
 62
1
 10
19464.0
 20
78.0
 30
0.0
 40
1.0
  1
7581-B
 11
19464.0
 21
78.0
 31
0.0
  0
TEXT
  5
2CC
  8
MyLines
 62
1
 10
19464.0
 20
1.0
 30
0.0
 40
1.0
  1
7581-A
 11
19464.0
 21
1.0
 31
0.0
  0
LINE
  5
2CD
  8
MyLines
 10
19463.0
 20
77.0
 30
0.0
 11
19649.0
 21
77.0
 31
0.0
  0
LINE
  5
2CE
  8
MyLines
 10
19651.0
 20
82.0
 30
0.0
 11
19916.0
 21
82.0
 31
0.0
  0
LINE
  5
2CF
  8
MyLines
 10
19651.0
 20
0.0
 30
0.0
 11
19916.0
 21
0.0
 31
0.0
  0
LINE
  5
2D0
  8
MyLines
 10
19651.0
 20
0.0
 30
0.0
 11
19651.0
 21
82.0
 31
0.0
  0
LINE
  5
2D1
  8
MyLines
 10
19916.0
 20
0.0
 30
0.0
 11
19916.0
 21
82.0
 31
0.0
  0
TEXT
  5
2D2
  8
MyLines
 62
1
 10
19652.0
 20
42.0
 30
0.0
 40
1.0
  1
7582-B
 11
19652.0
 21
42.0
 31
0.0
  0
TEXT
  5
2D3
  8
MyLines
 62
1
 10
19652.0
 20
1.0
 30
0.0
 40
1.0
  1
7582-A
 11
19652.0
 21
1.0
 31
0.0
  0
LINE
  5
2D4
  8
MyLines
 10
19651.0
 20
41.0
 30
0.0
 11
19916.0
 21
41.0
 31
0.0
  0
LINE
  5
2D5
  8
MyLines
 10
19918.0
 20
88.0
 30
0.0
 11
20214.0
 21
88.0
 31
0.0
  0
LINE
  5
2D6
  8
MyLines
 10
19918.0
 20
0.0
 30
0.0
 11
20214.0
 21
0.0
 31
0.0
  0
LINE
  5
2D7
  8
MyLines
 10
19918.0
 20
0.0
 30
0.0
 11
19918.0
 21
88.0
 31
0.0
  0
LINE
  5
2D8
  8
MyLines
 10
20214.0
 20
0.0
 30
0.0
 11
20214.0
 21
88.0
 31
0.0
  0
TEXT
  5
2D9
  8
MyLines
 62
1
 10
19919.0
 20
45.0
 30
0.0
 40
1.0
  1
7583-B
 11
19919.0
 21
45.0
 31
0.0
  0
TEXT
  5
2DA
  8
MyLines
 62
1
 10
19919.0
 20
1.0
 30
0.0
 40
1.0
  1
7583-A
 11
19919.0
 21
1.0
 31
0.0
  0
LINE
  5
2DB
  8
MyLines
 10
19918.0
 20
44.0
 30
0.0
 11
20214.0
 21
44.0
 31
0.0
  0
LINE
  5
2DC
  8
MyLines
 10
20216.0
 20
85.0
 30
0.0
 11
20498.0
 21
85.0
 31
0.0
  0
LINE
  5
2DD
  8
MyLines
 10
20216.0
 20
0.0
 30
0.0
 11
20498.0
 21
0.0
 31
0.0
  0
LINE
  5
2DE
  8
MyLines
 10
20216.0
 20
0.0
 30
0.0
 11
20216.0
 21
85.0
 31
0.0
  0
LINE
  5
2DF
  8
MyLines
 10
20498.0
 20
0.0
 30
0.0
 11
20498.0
 21
85.0
 31
0.0
  0
TEXT
  5
2E0
  8
MyLines
 62
1
 10
20217.0
 20
43.5
 30
0.0
 40
1.0
  1
7584-B
 11
20217.0
 21
43.5
 31
0.0
  0
TEXT
  5
2E1
  8
MyLines
 62
1
 10
20217.0
 20
1.0
 30
0.0
 40
1.0
  1
7584-A
 11
20217.0
 21
1.0
 31
0.0
  0
LINE
  5
2E2
  8
MyLines
 10
20216.0
 20
42.5
 30
0.0
 11
20498.0
 21
42.5
 31
0.0
  0
LINE
  5
2E3
  8
MyLines
 10
20500.0
 20
98.0
 30
0.0
 11
20796.0
 21
98.0
 31
0.0
  0
LINE
  5
2E4
  8
MyLines
 10
20500.0
 20
0.0
 30
0.0
 11
20796.0
 21
0.0
 31
0.0
  0
LINE
  5
2E5
  8
MyLines
 10
20500.0
 20
0.0
 30
0.0
 11
20500.0
 21
98.0
 31
0.0
  0
LINE
  5
2E6
  8
MyLines
 10
20796.0
 20
0.0
 30
0.0
 11
20796.0
 21
98.0
 31
0.0
  0
TEXT
  5
2E7
  8
MyLines
 62
1
 10
20501.0
 20
50.0
 30
0.0
 40
1.0
  1
7585-B
 11
20501.0
 21
50.0
 31
0.0
  0
TEXT
  5
2E8
  8
MyLines
 62
1
 10
20501.0
 20
1.0
 30
0.0
 40
1.0
  1
7585-A
 11
20501.0
 21
1.0
 31
0.0
  0
LINE
  5
2E9
  8
MyLines
 10
20500.0
 20
49.0
 30
0.0
 11
20796.0
 21
49.0
 31
0.0
  0
LINE
  5
2EA
  8
MyLines
 10
20798.0
 20
96.0
 30
0.0
 11
21019.0
 21
96.0
 31
0.0
  0
LINE
  5
2EB
  8
MyLines
 10
20798.0
 20
0.0
 30
0.0
 11
21019.0
 21
0.0
 31
0.0
  0
LINE
  5
2EC
  8
MyLines
 10
20798.0
 20
0.0
 30
0.0
 11
20798.0
 21
96.0
 31
0.0
  0
LINE
  5
2ED
  8
MyLines
 10
21019.0
 20
0.0
 30
0.0
 11
21019.0
 21
96.0
 31
0.0
  0
TEXT
  5
2EE
  8
MyLines
 62
1
 10
20799.0
 20
49.0
 30
0.0
 40
1.0
  1
7586-B
 11
20799.0
 21
49.0
 31
0.0
  0
TEXT
  5
2EF
  8
MyLines
 62
1
 10
20799.0
 20
1.0
 30
0.0
 40
1.0
  1
7586-A
 11
20799.0
 21
1.0
 31
0.0
  0
LINE
  5
2F0
  8
MyLines
 10
20798.0
 20
48.0
 30
0.0
 11
21019.0
 21
48.0
 31
0.0
  0
LINE
  5
2F1
  8
MyLines
 10
21021.0
 20
76.0
 30
0.0
 11
21318.0
 21
76.0
 31
0.0
  0
LINE
  5
2F2
  8
MyLines
 10
21021.0
 20
0.0
 30
0.0
 11
21318.0
 21
0.0
 31
0.0
  0
LINE
  5
2F3
  8
MyLines
 10
21021.0
 20
0.0
 30
0.0
 11
21021.0
 21
76.0
 31
0.0
  0
LINE
  5
2F4
  8
MyLines
 10
21318.0
 20
0.0
 30
0.0
 11
21318.0
 21
76.0
 31
0.0
  0
TEXT
  5
2F5
  8
MyLines
 62
1
 10
21022.0
 20
39.0
 30
0.0
 40
1.0
  1
7587-B
 11
21022.0
 21
39.0
 31
0.0
  0
TEXT
  5
2F6
  8
MyLines
 62
1
 10
21022.0
 20
1.0
 30
0.0
 40
1.0
  1
7587-A
 11
21022.0
 21
1.0
 31
0.0
  0
LINE
  5
2F7
  8
MyLines
 10
21021.0
 20
38.0
 30
0.0
 11
21318.0
 21
38.0
 31
0.0
  0
LINE
  5
2F8
  8
MyLines
 10
21320.0
 20
160.0
 30
0.0
 11
21516.0
 21
160.0
 31
0.0
  0
LINE
  5
2F9
  8
MyLines
 10
21320.0
 20
0.0
 30
0.0
 11
21516.0
 21
0.0
 31
0.0
  0
LINE
  5
2FA
  8
MyLines
 10
21320.0
 20
0.0
 30
0.0
 11
21320.0
 21
160.0
 31
0.0
  0
LINE
  5
2FB
  8
MyLines
 10
21516.0
 20
0.0
 30
0.0
 11
21516.0
 21
160.0
 31
0.0
  0
TEXT
  5
2FC
  8
MyLines
 62
1
 10
21321.0
 20
81.0
 30
0.0
 40
1.0
  1
7588-B
 11
21321.0
 21
81.0
 31
0.0
  0
TEXT
  5
2FD
  8
MyLines
 62
1
 10
21321.0
 20
1.0
 30
0.0
 40
1.0
  1
7588-A
 11
21321.0
 21
1.0
 31
0.0
  0
LINE
  5
2FE
  8
MyLines
 10
21320.0
 20
80.0
 30
0.0
 11
21516.0
 21
80.0
 31
0.0
  0
LINE
  5
2FF
  8
MyLines
 10
21518.0
 20
122.0
 30
0.0
 11
21698.0
 21
122.0
 31
0.0
  0
LINE
  5
300
  8
MyLines
 10
21518.0
 20
0.0
 30
0.0
 11
21698.0
 21
0.0
 31
0.0
  0
LINE
  5
301
  8
MyLines
 10
21518.0
 20
0.0
 30
0.0
 11
21518.0
 21
122.0
 31
0.0
  0
LINE
  5
302
  8
MyLines
 10
21698.0
 20
0.0
 30
0.0
 11
21698.0
 21
122.0
 31
0.0
  0
TEXT
  5
303
  8
MyLines
 62
1
 10
21519.0
 20
62.0
 30
0.0
 40
1.0
  1
7589-B
 11
21519.0
 21
62.0
 31
0.0
  0
TEXT
  5
304
  8
MyLines
 62
1
 10
21519.0
 20
1.0
 30
0.0
 40
1.0
  1
7589-A
 11
21519.0
 21
1.0
 31
0.0
  0
LINE
  5
305
  8
MyLines
 10
21518.0
 20
61.0
 30
0.0
 11
21698.0
 21
61.0
 31
0.0
  0
LINE
  5
306
  8
MyLines
 10
21700.0
 20
100.0
 30
0.0
 11
21890.0
 21
100.0
 31
0.0
  0
LINE
  5
307
  8
MyLines
 10
21700.0
 20
0.0
 30
0.0
 11
21890.0
 21
0.0
 31
0.0
  0
LINE
  5
308
  8
MyLines
 10
21700.0
 20
0.0
 30
0.0
 11
21700.0
 21
100.0
 31
0.0
  0
LINE
  5
309
  8
MyLines
 10
21890.0
 20
0.0
 30
0.0
 11
21890.0
 21
100.0
 31
0.0
  0
TEXT
  5
30A
  8
MyLines
 62
1
 10
21701.0
 20
51.0
 30
0.0
 40
1.0
  1
7590-B
 11
21701.0
 21
51.0
 31
0.0
  0
TEXT
  5
30B
  8
MyLines
 62
1
 10
21701.0
 20
1.0
 30
0.0
 40
1.0
  1
7590-A
 11
21701.0
 21
1.0
 31
0.0
  0
LINE
  5
30C
  8
MyLines
 10
21700.0
 20
50.0
 30
0.0
 11
21890.0
 21
50.0
 31
0.0
  0
LINE
  5
30D
  8
MyLines
 10
21892.0
 20
165.0
 30
0.0
 11
22166.0
 21
165.0
 31
0.0
  0
LINE
  5
30E
  8
MyLines
 10
21892.0
 20
0.0
 30
0.0
 11
22166.0
 21
0.0
 31
0.0
  0
LINE
  5
30F
  8
MyLines
 10
21892.0
 20
0.0
 30
0.0
 11
21892.0
 21
165.0
 31
0.0
  0
LINE
  5
310
  8
MyLines
 10
22166.0
 20
0.0
 30
0.0
 11
22166.0
 21
165.0
 31
0.0
  0
TEXT
  5
311
  8
MyLines
 62
1
 10
21893.0
 20
83.5
 30
0.0
 40
1.0
  1
7591-B
 11
21893.0
 21
83.5
 31
0.0
  0
TEXT
  5
312
  8
MyLines
 62
1
 10
21893.0
 20
1.0
 30
0.0
 40
1.0
  1
7591-A
 11
21893.0
 21
1.0
 31
0.0
  0
LINE
  5
313
  8
MyLines
 10
21892.0
 20
82.5
 30
0.0
 11
22166.0
 21
82.5
 31
0.0
  0
LINE
  5
314
  8
MyLines
 10
22168.0
 20
170.0
 30
0.0
 11
22459.0
 21
170.0
 31
0.0
  0
LINE
  5
315
  8
MyLines
 10
22168.0
 20
0.0
 30
0.0
 11
22459.0
 21
0.0
 31
0.0
  0
LINE
  5
316
  8
MyLines
 10
22168.0
 20
0.0
 30
0.0
 11
22168.0
 21
170.0
 31
0.0
  0
LINE
  5
317
  8
MyLines
 10
22459.0
 20
0.0
 30
0.0
 11
22459.0
 21
170.0
 31
0.0
  0
TEXT
  5
318
  8
MyLines
 62
1
 10
22169.0
 20
86.0
 30
0.0
 40
1.0
  1
7592-B
 11
22169.0
 21
86.0
 31
0.0
  0
TEXT
  5
319
  8
MyLines
 62
1
 10
22169.0
 20
1.0
 30
0.0
 40
1.0
  1
7592-A
 11
22169.0
 21
1.0
 31
0.0
  0
LINE
  5
31A
  8
MyLines
 10
22168.0
 20
85.0
 30
0.0
 11
22459.0
 21
85.0
 31
0.0
  0
LINE
  5
31B
  8
MyLines
 10
22461.0
 20
85.0
 30
0.0
 11
22713.0
 21
85.0
 31
0.0
  0
LINE
  5
31C
  8
MyLines
 10
22461.0
 20
0.0
 30
0.0
 11
22713.0
 21
0.0
 31
0.0
  0
LINE
  5
31D
  8
MyLines
 10
22461.0
 20
0.0
 30
0.0
 11
22461.0
 21
85.0
 31
0.0
  0
LINE
  5
31E
  8
MyLines
 10
22713.0
 20
0.0
 30
0.0
 11
22713.0
 21
85.0
 31
0.0
  0
TEXT
  5
31F
  8
MyLines
 62
1
 10
22462.0
 20
43.5
 30
0.0
 40
1.0
  1
7593-B
 11
22462.0
 21
43.5
 31
0.0
  0
TEXT
  5
320
  8
MyLines
 62
1
 10
22462.0
 20
1.0
 30
0.0
 40
1.0
  1
7593-A
 11
22462.0
 21
1.0
 31
0.0
  0
LINE
  5
321
  8
MyLines
 10
22461.0
 20
42.5
 30
0.0
 11
22713.0
 21
42.5
 31
0.0
  0
LINE
  5
322
  8
MyLines
 10
22715.0
 20
153.0
 30
0.0
 11
22938.0
 21
153.0
 31
0.0
  0
LINE
  5
323
  8
MyLines
 10
22715.0
 20
0.0
 30
0.0
 11
22938.0
 21
0.0
 31
0.0
  0
LINE
  5
324
  8
MyLines
 10
22715.0
 20
0.0
 30
0.0
 11
22715.0
 21
153.0
 31
0.0
  0
LINE
  5
325
  8
MyLines
 10
22938.0
 20
0.0
 30
0.0
 11
22938.0
 21
153.0
 31
0.0
  0
TEXT
  5
326
  8
MyLines
 62
1
 10
22716.0
 20
77.5
 30
0.0
 40
1.0
  1
7594-B
 11
22716.0
 21
77.5
 31
0.0
  0
TEXT
  5
327
  8
MyLines
 62
1
 10
22716.0
 20
1.0
 30
0.0
 40
1.0
  1
7594-A
 11
22716.0
 21
1.0
 31
0.0
  0
LINE
  5
328
  8
MyLines
 10
22715.0
 20
76.5
 30
0.0
 11
22938.0
 21
76.5
 31
0.0
  0
LINE
  5
329
  8
MyLines
 10
22940.0
 20
179.0
 30
0.0
 11
23211.0
 21
179.0
 31
0.0
  0
LINE
  5
32A
  8
MyLines
 10
22940.0
 20
0.0
 30
0.0
 11
23211.0
 21
0.0
 31
0.0
  0
LINE
  5
32B
  8
MyLines
 10
22940.0
 20
0.0
 30
0.0
 11
22940.0
 21
179.0
 31
0.0
  0
LINE
  5
32C
  8
MyLines
 10
23211.0
 20
0.0
 30
0.0
 11
23211.0
 21
179.0
 31
0.0
  0
TEXT
  5
32D
  8
MyLines
 62
1
 10
22941.0
 20
90.5
 30
0.0
 40
1.0
  1
7595-B
 11
22941.0
 21
90.5
 31
0.0
  0
TEXT
  5
32E
  8
MyLines
 62
1
 10
22941.0
 20
1.0
 30
0.0
 40
1.0
  1
7595-A
 11
22941.0
 21
1.0
 31
0.0
  0
LINE
  5
32F
  8
MyLines
 10
22940.0
 20
89.5
 30
0.0
 11
23211.0
 21
89.5
 31
0.0
  0
LINE
  5
330
  8
MyLines
 10
23213.0
 20
112.0
 30
0.0
 11
23465.0
 21
112.0
 31
0.0
  0
LINE
  5
331
  8
MyLines
 10
23213.0
 20
0.0
 30
0.0
 11
23465.0
 21
0.0
 31
0.0
  0
LINE
  5
332
  8
MyLines
 10
23213.0
 20
0.0
 30
0.0
 11
23213.0
 21
112.0
 31
0.0
  0
LINE
  5
333
  8
MyLines
 10
23465.0
 20
0.0
 30
0.0
 11
23465.0
 21
112.0
 31
0.0
  0
TEXT
  5
334
  8
MyLines
 62
1
 10
23214.0
 20
57.0
 30
0.0
 40
1.0
  1
7596-B
 11
23214.0
 21
57.0
 31
0.0
  0
TEXT
  5
335
  8
MyLines
 62
1
 10
23214.0
 20
1.0
 30
0.0
 40
1.0
  1
7596-A
 11
23214.0
 21
1.0
 31
0.0
  0
LINE
  5
336
  8
MyLines
 10
23213.0
 20
56.0
 30
0.0
 11
23465.0
 21
56.0
 31
0.0
  0
LINE
  5
337
  8
MyLines
 10
23467.0
 20
89.0
 30
0.0
 11
23659.0
 21
89.0
 31
0.0
  0
LINE
  5
338
  8
MyLines
 10
23467.0
 20
0.0
 30
0.0
 11
23659.0
 21
0.0
 31
0.0
  0
LINE
  5
339
  8
MyLines
 10
23467.0
 20
0.0
 30
0.0
 11
23467.0
 21
89.0
 31
0.0
  0
LINE
  5
33A
  8
MyLines
 10
23659.0
 20
0.0
 30
0.0
 11
23659.0
 21
89.0
 31
0.0
  0
TEXT
  5
33B
  8
MyLines
 62
1
 10
23468.0
 20
45.5
 30
0.0
 40
1.0
  1
7597-B
 11
23468.0
 21
45.5
 31
0.0
  0
TEXT
  5
33C
  8
MyLines
 62
1
 10
23468.0
 20
1.0
 30
0.0
 40
1.0
  1
7597-A
 11
23468.0
 21
1.0
 31
0.0
  0
LINE
  5
33D
  8
MyLines
 10
23467.0
 20
44.5
 30
0.0
 11
23659.0
 21
44.5
 31
0.0
  0
LINE
  5
33E
  8
MyLines
 10
23661.0
 20
162.0
 30
0.0
 11
23837.0
 21
162.0
 31
0.0
  0
LINE
  5
33F
  8
MyLines
 10
23661.0
 20
0.0
 30
0.0
 11
23837.0
 21
0.0
 31
0.0
  0
LINE
  5
340
  8
MyLines
 10
23661.0
 20
0.0
 30
0.0
 11
23661.0
 21
162.0
 31
0.0
  0
LINE
  5
341
  8
MyLines
 10
23837.0
 20
0.0
 30
0.0
 11
23837.0
 21
162.0
 31
0.0
  0
TEXT
  5
342
  8
MyLines
 62
1
 10
23662.0
 20
82.0
 30
0.0
 40
1.0
  1
7598-B
 11
23662.0
 21
82.0
 31
0.0
  0
TEXT
  5
343
  8
MyLines
 62
1
 10
23662.0
 20
1.0
 30
0.0
 40
1.0
  1
7598-A
 11
23662.0
 21
1.0
 31
0.0
  0
LINE
  5
344
  8
MyLines
 10
23661.0
 20
81.0
 30
0.0
 11
23837.0
 21
81.0
 31
0.0
  0
LINE
  5
345
  8
MyLines
 10
23839.0
 20
93.0
 30
0.0
 11
24071.0
 21
93.0
 31
0.0
  0
LINE
  5
346
  8
MyLines
 10
23839.0
 20
0.0
 30
0.0
 11
24071.0
 21
0.0
 31
0.0
  0
LINE
  5
347
  8
MyLines
 10
23839.0
 20
0.0
 30
0.0
 11
23839.0
 21
93.0
 31
0.0
  0
LINE
  5
348
  8
MyLines
 10
24071.0
 20
0.0
 30
0.0
 11
24071.0
 21
93.0
 31
0.0
  0
TEXT
  5
349
  8
MyLines
 62
1
 10
23840.0
 20
47.5
 30
0.0
 40
1.0
  1
7599-B
 11
23840.0
 21
47.5
 31
0.0
  0
TEXT
  5
34A
  8
MyLines
 62
1
 10
23840.0
 20
1.0
 30
0.0
 40
1.0
  1
7599-A
 11
23840.0
 21
1.0
 31
0.0
  0
LINE
  5
34B
  8
MyLines
 10
23839.0
 20
46.5
 30
0.0
 11
24071.0
 21
46.5
 31
0.0
  0
LINE
  5
34C
  8
MyLines
 10
24073.0
 20
77.0
 30
0.0
 11
24372.0
 21
77.0
 31
0.0
  0
LINE
  5
34D
  8
MyLines
 10
24073.0
 20
0.0
 30
0.0
 11
24372.0
 21
0.0
 31
0.0
  0
LINE
  5
34E
  8
MyLines
 10
24073.0
 20
0.0
 30
0.0
 11
24073.0
 21
77.0
 31
0.0
  0
LINE
  5
34F
  8
MyLines
 10
24372.0
 20
0.0
 30
0.0
 11
24372.0
 21
77.0
 31
0.0
  0
TEXT
  5
350
  8
MyLines
 62
1
 10
24074.0
 20
39.5
 30
0.0
 40
1.0
  1
7600-B
 11
24074.0
 21
39.5
 31
0.0
  0
TEXT
  5
351
  8
MyLines
 62
1
 10
24074.0
 20
1.0
 30
0.0
 40
1.0
  1
7600-A
 11
24074.0
 21
1.0
 31
0.0
  0
LINE
  5
352
  8
MyLines
 10
24073.0
 20
38.5
 30
0.0
 11
24372.0
 21
38.5
 31
0.0
  0
LINE
  5
353
  8
MyLines
 10
24374.0
 20
84.0
 30
0.0
 11
24627.0
 21
84.0
 31
0.0
  0
LINE
  5
354
  8
MyLines
 10
24374.0
 20
0.0
 30
0.0
 11
24627.0
 21
0.0
 31
0.0
  0
LINE
  5
355
  8
MyLines
 10
24374.0
 20
0.0
 30
0.0
 11
24374.0
 21
84.0
 31
0.0
  0
LINE
  5
356
  8
MyLines
 10
24627.0
 20
0.0
 30
0.0
 11
24627.0
 21
84.0
 31
0.0
  0
TEXT
  5
357
  8
MyLines
 62
1
 10
24375.0
 20
43.0
 30
0.0
 40
1.0
  1
7601-B
 11
24375.0
 21
43.0
 31
0.0
  0
TEXT
  5
358
  8
MyLines
 62
1
 10
24375.0
 20
1.0
 30
0.0
 40
1.0
  1
7601-A
 11
24375.0
 21
1.0
 31
0.0
  0
LINE
  5
359
  8
MyLines
 10
24374.0
 20
42.0
 30
0.0
 11
24627.0
 21
42.0
 31
0.0
  0
LINE
  5
35A
  8
MyLines
 10
24629.0
 20
98.0
 30
0.0
 11
24874.0
 21
98.0
 31
0.0
  0
LINE
  5
35B
  8
MyLines
 10
24629.0
 20
0.0
 30
0.0
 11
24874.0
 21
0.0
 31
0.0
  0
LINE
  5
35C
  8
MyLines
 10
24629.0
 20
0.0
 30
0.0
 11
24629.0
 21
98.0
 31
0.0
  0
LINE
  5
35D
  8
MyLines
 10
24874.0
 20
0.0
 30
0.0
 11
24874.0
 21
98.0
 31
0.0
  0
TEXT
  5
35E
  8
MyLines
 62
1
 10
24630.0
 20
50.0
 30
0.0
 40
1.0
  1
7602-B
 11
24630.0
 21
50.0
 31
0.0
  0
TEXT
  5
35F
  8
MyLines
 62
1
 10
24630.0
 20
1.0
 30
0.0
 40
1.0
  1
7602-A
 11
24630.0
 21
1.0
 31
0.0
  0
LINE
  5
360
  8
MyLines
 10
24629.0
 20
49.0
 30
0.0
 11
24874.0
 21
49.0
 31
0.0
  0
LINE
  5
361
  8
MyLines
 10
24876.0
 20
142.0
 30
0.0
 11
25133.0
 21
142.0
 31
0.0
  0
LINE
  5
362
  8
MyLines
 10
24876.0
 20
0.0
 30
0.0
 11
25133.0
 21
0.0
 31
0.0
  0
LINE
  5
363
  8
MyLines
 10
24876.0
 20
0.0
 30
0.0
 11
24876.0
 21
142.0
 31
0.0
  0
LINE
  5
364
  8
MyLines
 10
25133.0
 20
0.0
 30
0.0
 11
25133.0
 21
142.0
 31
0.0
  0
TEXT
  5
365
  8
MyLines
 62
1
 10
24877.0
 20
72.0
 30
0.0
 40
1.0
  1
7603-B
 11
24877.0
 21
72.0
 31
0.0
  0
TEXT
  5
366
  8
MyLines
 62
1
 10
24877.0
 20
1.0
 30
0.0
 40
1.0
  1
7603-A
 11
24877.0
 21
1.0
 31
0.0
  0
LINE
  5
367
  8
MyLines
 10
24876.0
 20
71.0
 30
0.0
 11
25133.0
 21
71.0
 31
0.0
  0
LINE
  5
368
  8
MyLines
 10
25135.0
 20
148.0
 30
0.0
 11
25330.0
 21
148.0
 31
0.0
  0
LINE
  5
369
  8
MyLines
 10
25135.0
 20
0.0
 30
0.0
 11
25330.0
 21
0.0
 31
0.0
  0
LINE
  5
36A
  8
MyLines
 10
25135.0
 20
0.0
 30
0.0
 11
25135.0
 21
148.0
 31
0.0
  0
LINE
  5
36B
  8
MyLines
 10
25330.0
 20
0.0
 30
0.0
 11
25330.0
 21
148.0
 31
0.0
  0
TEXT
  5
36C
  8
MyLines
 62
1
 10
25136.0
 20
75.0
 30
0.0
 40
1.0
  1
7604-B
 11
25136.0
 21
75.0
 31
0.0
  0
TEXT
  5
36D
  8
MyLines
 62
1
 10
25136.0
 20
1.0
 30
0.0
 40
1.0
  1
7604-A
 11
25136.0
 21
1.0
 31
0.0
  0
LINE
  5
36E
  8
MyLines
 10
25135.0
 20
74.0
 30
0.0
 11
25330.0
 21
74.0
 31
0.0
  0
LINE
  5
36F
  8
MyLines
 10
25332.0
 20
175.0
 30
0.0
 11
25583.0
 21
175.0
 31
0.0
  0
LINE
  5
370
  8
MyLines
 10
25332.0
 20
0.0
 30
0.0
 11
25583.0
 21
0.0
 31
0.0
  0
LINE
  5
371
  8
MyLines
 10
25332.0
 20
0.0
 30
0.0
 11
25332.0
 21
175.0
 31
0.0
  0
LINE
  5
372
  8
MyLines
 10
25583.0
 20
0.0
 30
0.0
 11
25583.0
 21
175.0
 31
0.0
  0
TEXT
  5
373
  8
MyLines
 62
1
 10
25333.0
 20
88.5
 30
0.0
 40
1.0
  1
7605-B
 11
25333.0
 21
88.5
 31
0.0
  0
TEXT
  5
374
  8
MyLines
 62
1
 10
25333.0
 20
1.0
 30
0.0
 40
1.0
  1
7605-A
 11
25333.0
 21
1.0
 31
0.0
  0
LINE
  5
375
  8
MyLines
 10
25332.0
 20
87.5
 30
0.0
 11
25583.0
 21
87.5
 31
0.0
  0
LINE
  5
376
  8
MyLines
 10
25585.0
 20
147.0
 30
0.0
 11
25832.0
 21
147.0
 31
0.0
  0
LINE
  5
377
  8
MyLines
 10
25585.0
 20
0.0
 30
0.0
 11
25832.0
 21
0.0
 31
0.0
  0
LINE
  5
378
  8
MyLines
 10
25585.0
 20
0.0
 30
0.0
 11
25585.0
 21
147.0
 31
0.0
  0
LINE
  5
379
  8
MyLines
 10
25832.0
 20
0.0
 30
0.0
 11
25832.0
 21
147.0
 31
0.0
  0
TEXT
  5
37A
  8
MyLines
 62
1
 10
25586.0
 20
74.5
 30
0.0
 40
1.0
  1
7606-B
 11
25586.0
 21
74.5
 31
0.0
  0
TEXT
  5
37B
  8
MyLines
 62
1
 10
25586.0
 20
1.0
 30
0.0
 40
1.0
  1
7606-A
 11
25586.0
 21
1.0
 31
0.0
  0
LINE
  5
37C
  8
MyLines
 10
25585.0
 20
73.5
 30
0.0
 11
25832.0
 21
73.5
 31
0.0
  0
LINE
  5
37D
  8
MyLines
 10
25834.0
 20
164.0
 30
0.0
 11
26085.0
 21
164.0
 31
0.0
  0
LINE
  5
37E
  8
MyLines
 10
25834.0
 20
0.0
 30
0.0
 11
26085.0
 21
0.0
 31
0.0
  0
LINE
  5
37F
  8
MyLines
 10
25834.0
 20
0.0
 30
0.0
 11
25834.0
 21
164.0
 31
0.0
  0
LINE
  5
380
  8
MyLines
 10
26085.0
 20
0.0
 30
0.0
 11
26085.0
 21
164.0
 31
0.0
  0
TEXT
  5
381
  8
MyLines
 62
1
 10
25835.0
 20
83.0
 30
0.0
 40
1.0
  1
7607-B
 11
25835.0
 21
83.0
 31
0.0
  0
TEXT
  5
382
  8
MyLines
 62
1
 10
25835.0
 20
1.0
 30
0.0
 40
1.0
  1
7607-A
 11
25835.0
 21
1.0
 31
0.0
  0
LINE
  5
383
  8
MyLines
 10
25834.0
 20
82.0
 30
0.0
 11
26085.0
 21
82.0
 31
0.0
  0
LINE
  5
384
  8
MyLines
 10
26087.0
 20
178.0
 30
0.0
 11
26359.0
 21
178.0
 31
0.0
  0
LINE
  5
385
  8
MyLines
 10
26087.0
 20
0.0
 30
0.0
 11
26359.0
 21
0.0
 31
0.0
  0
LINE
  5
386
  8
MyLines
 10
26087.0
 20
0.0
 30
0.0
 11
26087.0
 21
178.0
 31
0.0
  0
LINE
  5
387
  8
MyLines
 10
26359.0
 20
0.0
 30
0.0
 11
26359.0
 21
178.0
 31
0.0
  0
TEXT
  5
388
  8
MyLines
 62
1
 10
26088.0
 20
90.0
 30
0.0
 40
1.0
  1
7608-B
 11
26088.0
 21
90.0
 31
0.0
  0
TEXT
  5
389
  8
MyLines
 62
1
 10
26088.0
 20
1.0
 30
0.0
 40
1.0
  1
7608-A
 11
26088.0
 21
1.0
 31
0.0
  0
LINE
  5
38A
  8
MyLines
 10
26087.0
 20
89.0
 30
0.0
 11
26359.0
 21
89.0
 31
0.0
  0
LINE
  5
38B
  8
MyLines
 10
26361.0
 20
144.0
 30
0.0
 11
26550.0
 21
144.0
 31
0.0
  0
LINE
  5
38C
  8
MyLines
 10
26361.0
 20
0.0
 30
0.0
 11
26550.0
 21
0.0
 31
0.0
  0
LINE
  5
38D
  8
MyLines
 10
26361.0
 20
0.0
 30
0.0
 11
26361.0
 21
144.0
 31
0.0
  0
LINE
  5
38E
  8
MyLines
 10
26550.0
 20
0.0
 30
0.0
 11
26550.0
 21
144.0
 31
0.0
  0
TEXT
  5
38F
  8
MyLines
 62
1
 10
26362.0
 20
73.0
 30
0.0
 40
1.0
  1
7609-B
 11
26362.0
 21
73.0
 31
0.0
  0
TEXT
  5
390
  8
MyLines
 62
1
 10
26362.0
 20
1.0
 30
0.0
 40
1.0
  1
7609-A
 11
26362.0
 21
1.0
 31
0.0
  0
LINE
  5
391
  8
MyLines
 10
26361.0
 20
72.0
 30
0.0
 11
26550.0
 21
72.0
 31
0.0
  0
LINE
  5
392
  8
MyLines
 10
26552.0
 20
157.0
 30
0.0
 11
26728.0
 21
157.0
 31
0.0
  0
LINE
  5
393
  8
MyLines
 10
26552.0
 20
0.0
 30
0.0
 11
26728.0
 21
0.0
 31
0.0
  0
LINE
  5
394
  8
MyLines
 10
26552.0
 20
0.0
 30
0.0
 11
26552.0
 21
157.0
 31
0.0
  0
LINE
  5
395
  8
MyLines
 10
26728.0
 20
0.0
 30
0.0
 11
26728.0
 21
157.0
 31
0.0
  0
TEXT
  5
396
  8
MyLines
 62
1
 10
26553.0
 20
79.5
 30
0.0
 40
1.0
  1
7610-B
 11
26553.0
 21
79.5
 31
0.0
  0
TEXT
  5
397
  8
MyLines
 62
1
 10
26553.0
 20
1.0
 30
0.0
 40
1.0
  1
7610-A
 11
26553.0
 21
1.0
 31
0.0
  0
LINE
  5
398
  8
MyLines
 10
26552.0
 20
78.5
 30
0.0
 11
26728.0
 21
78.5
 31
0.0
  0
LINE
  5
399
  8
MyLines
 10
26730.0
 20
95.0
 30
0.0
 11
26968.0
 21
95.0
 31
0.0
  0
LINE
  5
39A
  8
MyLines
 10
26730.0
 20
0.0
 30
0.0
 11
26968.0
 21
0.0
 31
0.0
  0
LINE
  5
39B
  8
MyLines
 10
26730.0
 20
0.0
 30
0.0
 11
26730.0
 21
95.0
 31
0.0
  0
LINE
  5
39C
  8
MyLines
 10
26968.0
 20
0.0
 30
0.0
 11
26968.0
 21
95.0
 31
0.0
  0
TEXT
  5
39D
  8
MyLines
 62
1
 10
26731.0
 20
48.5
 30
0.0
 40
1.0
  1
7611-B
 11
26731.0
 21
48.5
 31
0.0
  0
TEXT
  5
39E
  8
MyLines
 62
1
 10
26731.0
 20
1.0
 30
0.0
 40
1.0
  1
7611-A
 11
26731.0
 21
1.0
 31
0.0
  0
LINE
  5
39F
  8
MyLines
 10
26730.0
 20
47.5
 30
0.0
 11
26968.0
 21
47.5
 31
0.0
  0
LINE
  5
3A0
  8
MyLines
 10
26970.0
 20
110.0
 30
0.0
 11
27186.0
 21
110.0
 31
0.0
  0
LINE
  5
3A1
  8
MyLines
 10
26970.0
 20
0.0
 30
0.0
 11
27186.0
 21
0.0
 31
0.0
  0
LINE
  5
3A2
  8
MyLines
 10
26970.0
 20
0.0
 30
0.0
 11
26970.0
 21
110.0
 31
0.0
  0
LINE
  5
3A3
  8
MyLines
 10
27186.0
 20
0.0
 30
0.0
 11
27186.0
 21
110.0
 31
0.0
  0
TEXT
  5
3A4
  8
MyLines
 62
1
 10
26971.0
 20
56.0
 30
0.0
 40
1.0
  1
7612-B
 11
26971.0
 21
56.0
 31
0.0
  0
TEXT
  5
3A5
  8
MyLines
 62
1
 10
26971.0
 20
1.0
 30
0.0
 40
1.0
  1
7612-A
 11
26971.0
 21
1.0
 31
0.0
  0
LINE
  5
3A6
  8
MyLines
 10
26970.0
 20
55.0
 30
0.0
 11
27186.0
 21
55.0
 31
0.0
  0
LINE
  5
3A7
  8
MyLines
 10
27188.0
 20
151.0
 30
0.0
 11
27404.0
 21
151.0
 31
0.0
  0
LINE
  5
3A8
  8
MyLines
 10
27188.0
 20
0.0
 30
0.0
 11
27404.0
 21
0.0
 31
0.0
  0
LINE
  5
3A9
  8
MyLines
 10
27188.0
 20
0.0
 30
0.0
 11
27188.0
 21
151.0
 31
0.0
  0
LINE
  5
3AA
  8
MyLines
 10
27404.0
 20
0.0
 30
0.0
 11
27404.0
 21
151.0
 31
0.0
  0
TEXT
  5
3AB
  8
MyLines
 62
1
 10
27189.0
 20
76.5
 30
0.0
 40
1.0
  1
7613-B
 11
27189.0
 21
76.5
 31
0.0
  0
TEXT
  5
3AC
  8
MyLines
 62
1
 10
27189.0
 20
1.0
 30
0.0
 40
1.0
  1
7613-A
 11
27189.0
 21
1.0
 31
0.0
  0
LINE
  5
3AD
  8
MyLines
 10
27188.0
 20
75.5
 30
0.0
 11
27404.0
 21
75.5
 31
0.0
  0
LINE
  5
3AE
  8
MyLines
 10
27406.0
 20
103.0
 30
0.0
 11
27656.0
 21
103.0
 31
0.0
  0
LINE
  5
3AF
  8
MyLines
 10
27406.0
 20
0.0
 30
0.0
 11
27656.0
 21
0.0
 31
0.0
  0
LINE
  5
3B0
  8
MyLines
 10
27406.0
 20
0.0
 30
0.0
 11
27406.0
 21
103.0
 31
0.0
  0
LINE
  5
3B1
  8
MyLines
 10
27656.0
 20
0.0
 30
0.0
 11
27656.0
 21
103.0
 31
0.0
  0
TEXT
  5
3B2
  8
MyLines
 62
1
 10
27407.0
 20
52.5
 30
0.0
 40
1.0
  1
7614-B
 11
27407.0
 21
52.5
 31
0.0
  0
TEXT
  5
3B3
  8
MyLines
 62
1
 10
27407.0
 20
1.0
 30
0.0
 40
1.0
  1
7614-A
 11
27407.0
 21
1.0
 31
0.0
  0
LINE
  5
3B4
  8
MyLines
 10
27406.0
 20
51.5
 30
0.0
 11
27656.0
 21
51.5
 31
0.0
  0
LINE
  5
3B5
  8
MyLines
 10
27658.0
 20
96.0
 30
0.0
 11
27876.0
 21
96.0
 31
0.0
  0
LINE
  5
3B6
  8
MyLines
 10
27658.0
 20
0.0
 30
0.0
 11
27876.0
 21
0.0
 31
0.0
  0
LINE
  5
3B7
  8
MyLines
 10
27658.0
 20
0.0
 30
0.0
 11
27658.0
 21
96.0
 31
0.0
  0
LINE
  5
3B8
  8
MyLines
 10
27876.0
 20
0.0
 30
0.0
 11
27876.0
 21
96.0
 31
0.0
  0
TEXT
  5
3B9
  8
MyLines
 62
1
 10
27659.0
 20
49.0
 30
0.0
 40
1.0
  1
7615-B
 11
27659.0
 21
49.0
 31
0.0
  0
TEXT
  5
3BA
  8
MyLines
 62
1
 10
27659.0
 20
1.0
 30
0.0
 40
1.0
  1
7615-A
 11
27659.0
 21
1.0
 31
0.0
  0
LINE
  5
3BB
  8
MyLines
 10
27658.0
 20
48.0
 30
0.0
 11
27876.0
 21
48.0
 31
0.0
  0
LINE
  5
3BC
  8
MyLines
 10
27878.0
 20
94.0
 30
0.0
 11
28085.0
 21
94.0
 31
0.0
  0
LINE
  5
3BD
  8
MyLines
 10
27878.0
 20
0.0
 30
0.0
 11
28085.0
 21
0.0
 31
0.0
  0
LINE
  5
3BE
  8
MyLines
 10
27878.0
 20
0.0
 30
0.0
 11
27878.0
 21
94.0
 31
0.0
  0
LINE
  5
3BF
  8
MyLines
 10
28085.0
 20
0.0
 30
0.0
 11
28085.0
 21
94.0
 31
0.0
  0
TEXT
  5
3C0
  8
MyLines
 62
1
 10
27879.0
 20
48.0
 30
0.0
 40
1.0
  1
7616-B
 11
27879.0
 21
48.0
 31
0.0
  0
TEXT
  5
3C1
  8
MyLines
 62
1
 10
27879.0
 20
1.0
 30
0.0
 40
1.0
  1
7616-A
 11
27879.0
 21
1.0
 31
0.0
  0
LINE
  5
3C2
  8
MyLines
 10
27878.0
 20
47.0
 30
0.0
 11
28085.0
 21
47.0
 31
0.0
  0
LINE
  5
3C3
  8
MyLines
 10
28087.0
 20
88.0
 30
0.0
 11
28316.0
 21
88.0
 31
0.0
  0
LINE
  5
3C4
  8
MyLines
 10
28087.0
 20
0.0
 30
0.0
 11
28316.0
 21
0.0
 31
0.0
  0
LINE
  5
3C5
  8
MyLines
 10
28087.0
 20
0.0
 30
0.0
 11
28087.0
 21
88.0
 31
0.0
  0
LINE
  5
3C6
  8
MyLines
 10
28316.0
 20
0.0
 30
0.0
 11
28316.0
 21
88.0
 31
0.0
  0
TEXT
  5
3C7
  8
MyLines
 62
1
 10
28088.0
 20
45.0
 30
0.0
 40
1.0
  1
7617-B
 11
28088.0
 21
45.0
 31
0.0
  0
TEXT
  5
3C8
  8
MyLines
 62
1
 10
28088.0
 20
1.0
 30
0.0
 40
1.0
  1
7617-A
 11
28088.0
 21
1.0
 31
0.0
  0
LINE
  5
3C9
  8
MyLines
 10
28087.0
 20
44.0
 30
0.0
 11
28316.0
 21
44.0
 31
0.0
  0
LINE
  5
3CA
  8
MyLines
 10
28318.0
 20
125.0
 30
0.0
 11
28546.0
 21
125.0
 31
0.0
  0
LINE
  5
3CB
  8
MyLines
 10
28318.0
 20
0.0
 30
0.0
 11
28546.0
 21
0.0
 31
0.0
  0
LINE
  5
3CC
  8
MyLines
 10
28318.0
 20
0.0
 30
0.0
 11
28318.0
 21
125.0
 31
0.0
  0
LINE
  5
3CD
  8
MyLines
 10
28546.0
 20
0.0
 30
0.0
 11
28546.0
 21
125.0
 31
0.0
  0
TEXT
  5
3CE
  8
MyLines
 62
1
 10
28319.0
 20
63.5
 30
0.0
 40
1.0
  1
7618-B
 11
28319.0
 21
63.5
 31
0.0
  0
TEXT
  5
3CF
  8
MyLines
 62
1
 10
28319.0
 20
1.0
 30
0.0
 40
1.0
  1
7618-A
 11
28319.0
 21
1.0
 31
0.0
  0
LINE
  5
3D0
  8
MyLines
 10
28318.0
 20
62.5
 30
0.0
 11
28546.0
 21
62.5
 31
0.0
  0
LINE
  5
3D1
  8
MyLines
 10
28548.0
 20
152.0
 30
0.0
 11
28772.0
 21
152.0
 31
0.0
  0
LINE
  5
3D2
  8
MyLines
 10
28548.0
 20
0.0
 30
0.0
 11
28772.0
 21
0.0
 31
0.0
  0
LINE
  5
3D3
  8
MyLines
 10
28548.0
 20
0.0
 30
0.0
 11
28548.0
 21
152.0
 31
0.0
  0
LINE
  5
3D4
  8
MyLines
 10
28772.0
 20
0.0
 30
0.0
 11
28772.0
 21
152.0
 31
0.0
  0
TEXT
  5
3D5
  8
MyLines
 62
1
 10
28549.0
 20
77.0
 30
0.0
 40
1.0
  1
7619-B
 11
28549.0
 21
77.0
 31
0.0
  0
TEXT
  5
3D6
  8
MyLines
 62
1
 10
28549.0
 20
1.0
 30
0.0
 40
1.0
  1
7619-A
 11
28549.0
 21
1.0
 31
0.0
  0
LINE
  5
3D7
  8
MyLines
 10
28548.0
 20
76.0
 30
0.0
 11
28772.0
 21
76.0
 31
0.0
  0
LINE
  5
3D8
  8
MyLines
 10
28774.0
 20
166.0
 30
0.0
 11
28969.0
 21
166.0
 31
0.0
  0
LINE
  5
3D9
  8
MyLines
 10
28774.0
 20
0.0
 30
0.0
 11
28969.0
 21
0.0
 31
0.0
  0
LINE
  5
3DA
  8
MyLines
 10
28774.0
 20
0.0
 30
0.0
 11
28774.0
 21
166.0
 31
0.0
  0
LINE
  5
3DB
  8
MyLines
 10
28969.0
 20
0.0
 30
0.0
 11
28969.0
 21
166.0
 31
0.0
  0
TEXT
  5
3DC
  8
MyLines
 62
1
 10
28775.0
 20
84.0
 30
0.0
 40
1.0
  1
7620-B
 11
28775.0
 21
84.0
 31
0.0
  0
TEXT
  5
3DD
  8
MyLines
 62
1
 10
28775.0
 20
1.0
 30
0.0
 40
1.0
  1
7620-A
 11
28775.0
 21
1.0
 31
0.0
  0
LINE
  5
3DE
  8
MyLines
 10
28774.0
 20
83.0
 30
0.0
 11
28969.0
 21
83.0
 31
0.0
  0
LINE
  5
3DF
  8
MyLines
 10
28971.0
 20
112.0
 30
0.0
 11
29263.0
 21
112.0
 31
0.0
  0
LINE
  5
3E0
  8
MyLines
 10
28971.0
 20
0.0
 30
0.0
 11
29263.0
 21
0.0
 31
0.0
  0
LINE
  5
3E1
  8
MyLines
 10
28971.0
 20
0.0
 30
0.0
 11
28971.0
 21
112.0
 31
0.0
  0
LINE
  5
3E2
  8
MyLines
 10
29263.0
 20
0.0
 30
0.0
 11
29263.0
 21
112.0
 31
0.0
  0
TEXT
  5
3E3
  8
MyLines
 62
1
 10
28972.0
 20
57.0
 30
0.0
 40
1.0
  1
7621-B
 11
28972.0
 21
57.0
 31
0.0
  0
TEXT
  5
3E4
  8
MyLines
 62
1
 10
28972.0
 20
1.0
 30
0.0
 40
1.0
  1
7621-A
 11
28972.0
 21
1.0
 31
0.0
  0
LINE
  5
3E5
  8
MyLines
 10
28971.0
 20
56.0
 30
0.0
 11
29263.0
 21
56.0
 31
0.0
  0
LINE
  5
3E6
  8
MyLines
 10
29265.0
 20
174.0
 30
0.0
 11
29501.0
 21
174.0
 31
0.0
  0
LINE
  5
3E7
  8
MyLines
 10
29265.0
 20
0.0
 30
0.0
 11
29501.0
 21
0.0
 31
0.0
  0
LINE
  5
3E8
  8
MyLines
 10
29265.0
 20
0.0
 30
0.0
 11
29265.0
 21
174.0
 31
0.0
  0
LINE
  5
3E9
  8
MyLines
 10
29501.0
 20
0.0
 30
0.0
 11
29501.0
 21
174.0
 31
0.0
  0
TEXT
  5
3EA
  8
MyLines
 62
1
 10
29266.0
 20
88.0
 30
0.0
 40
1.0
  1
7622-B
 11
29266.0
 21
88.0
 31
0.0
  0
TEXT
  5
3EB
  8
MyLines
 62
1
 10
29266.0
 20
1.0
 30
0.0
 40
1.0
  1
7622-A
 11
29266.0
 21
1.0
 31
0.0
  0
LINE
  5
3EC
  8
MyLines
 10
29265.0
 20
87.0
 30
0.0
 11
29501.0
 21
87.0
 31
0.0
  0
LINE
  5
3ED
  8
MyLines
 10
29503.0
 20
154.0
 30
0.0
 11
29707.0
 21
154.0
 31
0.0
  0
LINE
  5
3EE
  8
MyLines
 10
29503.0
 20
0.0
 30
0.0
 11
29707.0
 21
0.0
 31
0.0
  0
LINE
  5
3EF
  8
MyLines
 10
29503.0
 20
0.0
 30
0.0
 11
29503.0
 21
154.0
 31
0.0
  0
LINE
  5
3F0
  8
MyLines
 10
29707.0
 20
0.0
 30
0.0
 11
29707.0
 21
154.0
 31
0.0
  0
TEXT
  5
3F1
  8
MyLines
 62
1
 10
29504.0
 20
78.0
 30
0.0
 40
1.0
  1
7623-B
 11
29504.0
 21
78.0
 31
0.0
  0
TEXT
  5
3F2
  8
MyLines
 62
1
 10
29504.0
 20
1.0
 30
0.0
 40
1.0
  1
7623-A
 11
29504.0
 21
1.0
 31
0.0
  0
LINE
  5
3F3
  8
MyLines
 10
29503.0
 20
77.0
 30
0.0
 11
29707.0
 21
77.0
 31
0.0
  0
LINE
  5
3F4
  8
MyLines
 10
29709.0
 20
143.0
 30
0.0
 11
29889.0
 21
143.0
 31
0.0
  0
LINE
  5
3F5
  8
MyLines
 10
29709.0
 20
0.0
 30
0.0
 11
29889.0
 21
0.0
 31
0.0
  0
LINE
  5
3F6
  8
MyLines
 10
29709.0
 20
0.0
 30
0.0
 11
29709.0
 21
143.0
 31
0.0
  0
LINE
  5
3F7
  8
MyLines
 10
29889.0
 20
0.0
 30
0.0
 11
29889.0
 21
143.0
 31
0.0
  0
TEXT
  5
3F8
  8
MyLines
 62
1
 10
29710.0
 20
72.5
 30
0.0
 40
1.0
  1
7624-B
 11
29710.0
 21
72.5
 31
0.0
  0
TEXT
  5
3F9
  8
MyLines
 62
1
 10
29710.0
 20
1.0
 30
0.0
 40
1.0
  1
7624-A
 11
29710.0
 21
1.0
 31
0.0
  0
LINE
  5
3FA
  8
MyLines
 10
29709.0
 20
71.5
 30
0.0
 11
29889.0
 21
71.5
 31
0.0
  0
LINE
  5
3FB
  8
MyLines
 10
29891.0
 20
138.0
 30
0.0
 11
30101.0
 21
138.0
 31
0.0
  0
LINE
  5
3FC
  8
MyLines
 10
29891.0
 20
0.0
 30
0.0
 11
30101.0
 21
0.0
 31
0.0
  0
LINE
  5
3FD
  8
MyLines
 10
29891.0
 20
0.0
 30
0.0
 11
29891.0
 21
138.0
 31
0.0
  0
LINE
  5
3FE
  8
MyLines
 10
30101.0
 20
0.0
 30
0.0
 11
30101.0
 21
138.0
 31
0.0
  0
TEXT
  5
3FF
  8
MyLines
 62
1
 10
29892.0
 20
70.0
 30
0.0
 40
1.0
  1
7625-B
 11
29892.0
 21
70.0
 31
0.0
  0
TEXT
  5
400
  8
MyLines
 62
1
 10
29892.0
 20
1.0
 30
0.0
 40
1.0
  1
7625-A
 11
29892.0
 21
1.0
 31
0.0
  0
LINE
  5
401
  8
MyLines
 10
29891.0
 20
69.0
 30
0.0
 11
30101.0
 21
69.0
 31
0.0
  0
LINE
  5
402
  8
MyLines
 10
30103.0
 20
88.0
 30
0.0
 11
30323.0
 21
88.0
 31
0.0
  0
LINE
  5
403
  8
MyLines
 10
30103.0
 20
0.0
 30
0.0
 11
30323.0
 21
0.0
 31
0.0
  0
LINE
  5
404
  8
MyLines
 10
30103.0
 20
0.0
 30
0.0
 11
30103.0
 21
88.0
 31
0.0
  0
LINE
  5
405
  8
MyLines
 10
30323.0
 20
0.0
 30
0.0
 11
30323.0
 21
88.0
 31
0.0
  0
TEXT
  5
406
  8
MyLines
 62
1
 10
30104.0
 20
45.0
 30
0.0
 40
1.0
  1
7626-B
 11
30104.0
 21
45.0
 31
0.0
  0
TEXT
  5
407
  8
MyLines
 62
1
 10
30104.0
 20
1.0
 30
0.0
 40
1.0
  1
7626-A
 11
30104.0
 21
1.0
 31
0.0
  0
LINE
  5
408
  8
MyLines
 10
30103.0
 20
44.0
 30
0.0
 11
30323.0
 21
44.0
 31
0.0
  0
LINE
  5
409
  8
MyLines
 10
30325.0
 20
77.0
 30
0.0
 11
30578.0
 21
77.0
 31
0.0
  0
LINE
  5
40A
  8
MyLines
 10
30325.0
 20
0.0
 30
0.0
 11
30578.0
 21
0.0
 31
0.0
  0
LINE
  5
40B
  8
MyLines
 10
30325.0
 20
0.0
 30
0.0
 11
30325.0
 21
77.0
 31
0.0
  0
LINE
  5
40C
  8
MyLines
 10
30578.0
 20
0.0
 30
0.0
 11
30578.0
 21
77.0
 31
0.0
  0
TEXT
  5
40D
  8
MyLines
 62
1
 10
30326.0
 20
39.5
 30
0.0
 40
1.0
  1
7627-B
 11
30326.0
 21
39.5
 31
0.0
  0
TEXT
  5
40E
  8
MyLines
 62
1
 10
30326.0
 20
1.0
 30
0.0
 40
1.0
  1
7627-A
 11
30326.0
 21
1.0
 31
0.0
  0
LINE
  5
40F
  8
MyLines
 10
30325.0
 20
38.5
 30
0.0
 11
30578.0
 21
38.5
 31
0.0
  0
LINE
  5
410
  8
MyLines
 10
30580.0
 20
121.0
 30
0.0
 11
30805.0
 21
121.0
 31
0.0
  0
LINE
  5
411
  8
MyLines
 10
30580.0
 20
0.0
 30
0.0
 11
30805.0
 21
0.0
 31
0.0
  0
LINE
  5
412
  8
MyLines
 10
30580.0
 20
0.0
 30
0.0
 11
30580.0
 21
121.0
 31
0.0
  0
LINE
  5
413
  8
MyLines
 10
30805.0
 20
0.0
 30
0.0
 11
30805.0
 21
121.0
 31
0.0
  0
TEXT
  5
414
  8
MyLines
 62
1
 10
30581.0
 20
61.5
 30
0.0
 40
1.0
  1
7628-B
 11
30581.0
 21
61.5
 31
0.0
  0
TEXT
  5
415
  8
MyLines
 62
1
 10
30581.0
 20
1.0
 30
0.0
 40
1.0
  1
7628-A
 11
30581.0
 21
1.0
 31
0.0
  0
LINE
  5
416
  8
MyLines
 10
30580.0
 20
60.5
 30
0.0
 11
30805.0
 21
60.5
 31
0.0
  0
LINE
  5
417
  8
MyLines
 10
30807.0
 20
97.0
 30
0.0
 11
31050.0
 21
97.0
 31
0.0
  0
LINE
  5
418
  8
MyLines
 10
30807.0
 20
0.0
 30
0.0
 11
31050.0
 21
0.0
 31
0.0
  0
LINE
  5
419
  8
MyLines
 10
30807.0
 20
0.0
 30
0.0
 11
30807.0
 21
97.0
 31
0.0
  0
LINE
  5
41A
  8
MyLines
 10
31050.0
 20
0.0
 30
0.0
 11
31050.0
 21
97.0
 31
0.0
  0
TEXT
  5
41B
  8
MyLines
 62
1
 10
30808.0
 20
49.5
 30
0.0
 40
1.0
  1
7629-B
 11
30808.0
 21
49.5
 31
0.0
  0
TEXT
  5
41C
  8
MyLines
 62
1
 10
30808.0
 20
1.0
 30
0.0
 40
1.0
  1
7629-A
 11
30808.0
 21
1.0
 31
0.0
  0
LINE
  5
41D
  8
MyLines
 10
30807.0
 20
48.5
 30
0.0
 11
31050.0
 21
48.5
 31
0.0
  0
LINE
  5
41E
  8
MyLines
 10
31052.0
 20
109.0
 30
0.0
 11
31267.0
 21
109.0
 31
0.0
  0
LINE
  5
41F
  8
MyLines
 10
31052.0
 20
0.0
 30
0.0
 11
31267.0
 21
0.0
 31
0.0
  0
LINE
  5
420
  8
MyLines
 10
31052.0
 20
0.0
 30
0.0
 11
31052.0
 21
109.0
 31
0.0
  0
LINE
  5
421
  8
MyLines
 10
31267.0
 20
0.0
 30
0.0
 11
31267.0
 21
109.0
 31
0.0
  0
TEXT
  5
422
  8
MyLines
 62
1
 10
31053.0
 20
55.5
 30
0.0
 40
1.0
  1
7630-B
 11
31053.0
 21
55.5
 31
0.0
  0
TEXT
  5
423
  8
MyLines
 62
1
 10
31053.0
 20
1.0
 30
0.0
 40
1.0
  1
7630-A
 11
31053.0
 21
1.0
 31
0.0
  0
LINE
  5
424
  8
MyLines
 10
31052.0
 20
54.5
 30
0.0
 11
31267.0
 21
54.5
 31
0.0
  0
LINE
  5
425
  8
MyLines
 10
31269.0
 20
76.0
 30
0.0
 11
31507.0
 21
76.0
 31
0.0
  0
LINE
  5
426
  8
MyLines
 10
31269.0
 20
0.0
 30
0.0
 11
31507.0
 21
0.0
 31
0.0
  0
LINE
  5
427
  8
MyLines
 10
31269.0
 20
0.0
 30
0.0
 11
31269.0
 21
76.0
 31
0.0
  0
LINE
  5
428
  8
MyLines
 10
31507.0
 20
0.0
 30
0.0
 11
31507.0
 21
76.0
 31
0.0
  0
TEXT
  5
429
  8
MyLines
 62
1
 10
31270.0
 20
39.0
 30
0.0
 40
1.0
  1
7631-B
 11
31270.0
 21
39.0
 31
0.0
  0
TEXT
  5
42A
  8
MyLines
 62
1
 10
31270.0
 20
1.0
 30
0.0
 40
1.0
  1
7631-A
 11
31270.0
 21
1.0
 31
0.0
  0
LINE
  5
42B
  8
MyLines
 10
31269.0
 20
38.0
 30
0.0
 11
31507.0
 21
38.0
 31
0.0
  0
LINE
  5
42C
  8
MyLines
 10
31509.0
 20
116.0
 30
0.0
 11
31795.0
 21
116.0
 31
0.0
  0
LINE
  5
42D
  8
MyLines
 10
31509.0
 20
0.0
 30
0.0
 11
31795.0
 21
0.0
 31
0.0
  0
LINE
  5
42E
  8
MyLines
 10
31509.0
 20
0.0
 30
0.0
 11
31509.0
 21
116.0
 31
0.0
  0
LINE
  5
42F
  8
MyLines
 10
31795.0
 20
0.0
 30
0.0
 11
31795.0
 21
116.0
 31
0.0
  0
TEXT
  5
430
  8
MyLines
 62
1
 10
31510.0
 20
59.0
 30
0.0
 40
1.0
  1
7632-B
 11
31510.0
 21
59.0
 31
0.0
  0
TEXT
  5
431
  8
MyLines
 62
1
 10
31510.0
 20
1.0
 30
0.0
 40
1.0
  1
7632-A
 11
31510.0
 21
1.0
 31
0.0
  0
LINE
  5
432
  8
MyLines
 10
31509.0
 20
58.0
 30
0.0
 11
31795.0
 21
58.0
 31
0.0
  0
LINE
  5
433
  8
MyLines
 10
31797.0
 20
92.0
 30
0.0
 11
32033.0
 21
92.0
 31
0.0
  0
LINE
  5
434
  8
MyLines
 10
31797.0
 20
0.0
 30
0.0
 11
32033.0
 21
0.0
 31
0.0
  0
LINE
  5
435
  8
MyLines
 10
31797.0
 20
0.0
 30
0.0
 11
31797.0
 21
92.0
 31
0.0
  0
LINE
  5
436
  8
MyLines
 10
32033.0
 20
0.0
 30
0.0
 11
32033.0
 21
92.0
 31
0.0
  0
TEXT
  5
437
  8
MyLines
 62
1
 10
31798.0
 20
47.0
 30
0.0
 40
1.0
  1
7633-B
 11
31798.0
 21
47.0
 31
0.0
  0
TEXT
  5
438
  8
MyLines
 62
1
 10
31798.0
 20
1.0
 30
0.0
 40
1.0
  1
7633-A
 11
31798.0
 21
1.0
 31
0.0
  0
LINE
  5
439
  8
MyLines
 10
31797.0
 20
46.0
 30
0.0
 11
32033.0
 21
46.0
 31
0.0
  0
LINE
  5
43A
  8
MyLines
 10
32035.0
 20
158.0
 30
0.0
 11
32233.0
 21
158.0
 31
0.0
  0
LINE
  5
43B
  8
MyLines
 10
32035.0
 20
0.0
 30
0.0
 11
32233.0
 21
0.0
 31
0.0
  0
LINE
  5
43C
  8
MyLines
 10
32035.0
 20
0.0
 30
0.0
 11
32035.0
 21
158.0
 31
0.0
  0
LINE
  5
43D
  8
MyLines
 10
32233.0
 20
0.0
 30
0.0
 11
32233.0
 21
158.0
 31
0.0
  0
TEXT
  5
43E
  8
MyLines
 62
1
 10
32036.0
 20
80.0
 30
0.0
 40
1.0
  1
7634-B
 11
32036.0
 21
80.0
 31
0.0
  0
TEXT
  5
43F
  8
MyLines
 62
1
 10
32036.0
 20
1.0
 30
0.0
 40
1.0
  1
7634-A
 11
32036.0
 21
1.0
 31
0.0
  0
LINE
  5
440
  8
MyLines
 10
32035.0
 20
79.0
 30
0.0
 11
32233.0
 21
79.0
 31
0.0
  0
LINE
  5
441
  8
MyLines
 10
32235.0
 20
103.0
 30
0.0
 11
32479.0
 21
103.0
 31
0.0
  0
LINE
  5
442
  8
MyLines
 10
32235.0
 20
0.0
 30
0.0
 11
32479.0
 21
0.0
 31
0.0
  0
LINE
  5
443
  8
MyLines
 10
32235.0
 20
0.0
 30
0.0
 11
32235.0
 21
103.0
 31
0.0
  0
LINE
  5
444
  8
MyLines
 10
32479.0
 20
0.0
 30
0.0
 11
32479.0
 21
103.0
 31
0.0
  0
TEXT
  5
445
  8
MyLines
 62
1
 10
32236.0
 20
52.5
 30
0.0
 40
1.0
  1
7635-B
 11
32236.0
 21
52.5
 31
0.0
  0
TEXT
  5
446
  8
MyLines
 62
1
 10
32236.0
 20
1.0
 30
0.0
 40
1.0
  1
7635-A
 11
32236.0
 21
1.0
 31
0.0
  0
LINE
  5
447
  8
MyLines
 10
32235.0
 20
51.5
 30
0.0
 11
32479.0
 21
51.5
 31
0.0
  0
LINE
  5
448
  8
MyLines
 10
32481.0
 20
115.0
 30
0.0
 11
32685.0
 21
115.0
 31
0.0
  0
LINE
  5
449
  8
MyLines
 10
32481.0
 20
0.0
 30
0.0
 11
32685.0
 21
0.0
 31
0.0
  0
LINE
  5
44A
  8
MyLines
 10
32481.0
 20
0.0
 30
0.0
 11
32481.0
 21
115.0
 31
0.0
  0
LINE
  5
44B
  8
MyLines
 10
32685.0
 20
0.0
 30
0.0
 11
32685.0
 21
115.0
 31
0.0
  0
TEXT
  5
44C
  8
MyLines
 62
1
 10
32482.0
 20
58.5
 30
0.0
 40
1.0
  1
7636-B
 11
32482.0
 21
58.5
 31
0.0
  0
TEXT
  5
44D
  8
MyLines
 62
1
 10
32482.0
 20
1.0
 30
0.0
 40
1.0
  1
7636-A
 11
32482.0
 21
1.0
 31
0.0
  0
LINE
  5
44E
  8
MyLines
 10
32481.0
 20
57.5
 30
0.0
 11
32685.0
 21
57.5
 31
0.0
  0
LINE
  5
44F
  8
MyLines
 10
32687.0
 20
111.0
 30
0.0
 11
32908.0
 21
111.0
 31
0.0
  0
LINE
  5
450
  8
MyLines
 10
32687.0
 20
0.0
 30
0.0
 11
32908.0
 21
0.0
 31
0.0
  0
LINE
  5
451
  8
MyLines
 10
32687.0
 20
0.0
 30
0.0
 11
32687.0
 21
111.0
 31
0.0
  0
LINE
  5
452
  8
MyLines
 10
32908.0
 20
0.0
 30
0.0
 11
32908.0
 21
111.0
 31
0.0
  0
TEXT
  5
453
  8
MyLines
 62
1
 10
32688.0
 20
56.5
 30
0.0
 40
1.0
  1
7637-B
 11
32688.0
 21
56.5
 31
0.0
  0
TEXT
  5
454
  8
MyLines
 62
1
 10
32688.0
 20
1.0
 30
0.0
 40
1.0
  1
7637-A
 11
32688.0
 21
1.0
 31
0.0
  0
LINE
  5
455
  8
MyLines
 10
32687.0
 20
55.5
 30
0.0
 11
32908.0
 21
55.5
 31
0.0
  0
LINE
  5
456
  8
MyLines
 10
32910.0
 20
169.0
 30
0.0
 11
33137.0
 21
169.0
 31
0.0
  0
LINE
  5
457
  8
MyLines
 10
32910.0
 20
0.0
 30
0.0
 11
33137.0
 21
0.0
 31
0.0
  0
LINE
  5
458
  8
MyLines
 10
32910.0
 20
0.0
 30
0.0
 11
32910.0
 21
169.0
 31
0.0
  0
LINE
  5
459
  8
MyLines
 10
33137.0
 20
0.0
 30
0.0
 11
33137.0
 21
169.0
 31
0.0
  0
TEXT
  5
45A
  8
MyLines
 62
1
 10
32911.0
 20
85.5
 30
0.0
 40
1.0
  1
7638-B
 11
32911.0
 21
85.5
 31
0.0
  0
TEXT
  5
45B
  8
MyLines
 62
1
 10
32911.0
 20
1.0
 30
0.0
 40
1.0
  1
7638-A
 11
32911.0
 21
1.0
 31
0.0
  0
LINE
  5
45C
  8
MyLines
 10
32910.0
 20
84.5
 30
0.0
 11
33137.0
 21
84.5
 31
0.0
  0
LINE
  5
45D
  8
MyLines
 10
33139.0
 20
160.0
 30
0.0
 11
33343.0
 21
160.0
 31
0.0
  0
LINE
  5
45E
  8
MyLines
 10
33139.0
 20
0.0
 30
0.0
 11
33343.0
 21
0.0
 31
0.0
  0
LINE
  5
45F
  8
MyLines
 10
33139.0
 20
0.0
 30
0.0
 11
33139.0
 21
160.0
 31
0.0
  0
LINE
  5
460
  8
MyLines
 10
33343.0
 20
0.0
 30
0.0
 11
33343.0
 21
160.0
 31
0.0
  0
TEXT
  5
461
  8
MyLines
 62
1
 10
33140.0
 20
81.0
 30
0.0
 40
1.0
  1
7639-B
 11
33140.0
 21
81.0
 31
0.0
  0
TEXT
  5
462
  8
MyLines
 62
1
 10
33140.0
 20
1.0
 30
0.0
 40
1.0
  1
7639-A
 11
33140.0
 21
1.0
 31
0.0
  0
LINE
  5
463
  8
MyLines
 10
33139.0
 20
80.0
 30
0.0
 11
33343.0
 21
80.0
 31
0.0
  0
LINE
  5
464
  8
MyLines
 10
33345.0
 20
89.0
 30
0.0
 11
33561.0
 21
89.0
 31
0.0
  0
LINE
  5
465
  8
MyLines
 10
33345.0
 20
0.0
 30
0.0
 11
33561.0
 21
0.0
 31
0.0
  0
LINE
  5
466
  8
MyLines
 10
33345.0
 20
0.0
 30
0.0
 11
33345.0
 21
89.0
 31
0.0
  0
LINE
  5
467
  8
MyLines
 10
33561.0
 20
0.0
 30
0.0
 11
33561.0
 21
89.0
 31
0.0
  0
TEXT
  5
468
  8
MyLines
 62
1
 10
33346.0
 20
45.5
 30
0.0
 40
1.0
  1
7640-B
 11
33346.0
 21
45.5
 31
0.0
  0
TEXT
  5
469
  8
MyLines
 62
1
 10
33346.0
 20
1.0
 30
0.0
 40
1.0
  1
7640-A
 11
33346.0
 21
1.0
 31
0.0
  0
LINE
  5
46A
  8
MyLines
 10
33345.0
 20
44.5
 30
0.0
 11
33561.0
 21
44.5
 31
0.0
  0
LINE
  5
46B
  8
MyLines
 10
33563.0
 20
88.0
 30
0.0
 11
33793.0
 21
88.0
 31
0.0
  0
LINE
  5
46C
  8
MyLines
 10
33563.0
 20
0.0
 30
0.0
 11
33793.0
 21
0.0
 31
0.0
  0
LINE
  5
46D
  8
MyLines
 10
33563.0
 20
0.0
 30
0.0
 11
33563.0
 21
88.0
 31
0.0
  0
LINE
  5
46E
  8
MyLines
 10
33793.0
 20
0.0
 30
0.0
 11
33793.0
 21
88.0
 31
0.0
  0
TEXT
  5
46F
  8
MyLines
 62
1
 10
33564.0
 20
45.0
 30
0.0
 40
1.0
  1
7641-B
 11
33564.0
 21
45.0
 31
0.0
  0
TEXT
  5
470
  8
MyLines
 62
1
 10
33564.0
 20
1.0
 30
0.0
 40
1.0
  1
7641-A
 11
33564.0
 21
1.0
 31
0.0
  0
LINE
  5
471
  8
MyLines
 10
33563.0
 20
44.0
 30
0.0
 11
33793.0
 21
44.0
 31
0.0
  0
LINE
  5
472
  8
MyLines
 10
33795.0
 20
85.0
 30
0.0
 11
33974.0
 21
85.0
 31
0.0
  0
LINE
  5
473
  8
MyLines
 10
33795.0
 20
0.0
 30
0.0
 11
33974.0
 21
0.0
 31
0.0
  0
LINE
  5
474
  8
MyLines
 10
33795.0
 20
0.0
 30
0.0
 11
33795.0
 21
85.0
 31
0.0
  0
LINE
  5
475
  8
MyLines
 10
33974.0
 20
0.0
 30
0.0
 11
33974.0
 21
85.0
 31
0.0
  0
TEXT
  5
476
  8
MyLines
 62
1
 10
33796.0
 20
43.5
 30
0.0
 40
1.0
  1
7642-B
 11
33796.0
 21
43.5
 31
0.0
  0
TEXT
  5
477
  8
MyLines
 62
1
 10
33796.0
 20
1.0
 30
0.0
 40
1.0
  1
7642-A
 11
33796.0
 21
1.0
 31
0.0
  0
LINE
  5
478
  8
MyLines
 10
33795.0
 20
42.5
 30
0.0
 11
33974.0
 21
42.5
 31
0.0
  0
LINE
  5
479
  8
MyLines
 10
33976.0
 20
131.0
 30
0.0
 11
34202.0
 21
131.0
 31
0.0
  0
LINE
  5
47A
  8
MyLines
 10
33976.0
 20
0.0
 30
0.0
 11
34202.0
 21
0.0
 31
0.0
  0
LINE
  5
47B
  8
MyLines
 10
33976.0
 20
0.0
 30
0.0
 11
33976.0
 21
131.0
 31
0.0
  0
LINE
  5
47C
  8
MyLines
 10
34202.0
 20
0.0
 30
0.0
 11
34202.0
 21
131.0
 31
0.0
  0
TEXT
  5
47D
  8
MyLines
 62
1
 10
33977.0
 20
66.5
 30
0.0
 40
1.0
  1
7643-B
 11
33977.0
 21
66.5
 31
0.0
  0
TEXT
  5
47E
  8
MyLines
 62
1
 10
33977.0
 20
1.0
 30
0.0
 40
1.0
  1
7643-A
 11
33977.0
 21
1.0
 31
0.0
  0
LINE
  5
47F
  8
MyLines
 10
33976.0
 20
65.5
 30
0.0
 11
34202.0
 21
65.5
 31
0.0
  0
LINE
  5
480
  8
MyLines
 10
34204.0
 20
129.0
 30
0.0
 11
34403.0
 21
129.0
 31
0.0
  0
LINE
  5
481
  8
MyLines
 10
34204.0
 20
0.0
 30
0.0
 11
34403.0
 21
0.0
 31
0.0
  0
LINE
  5
482
  8
MyLines
 10
34204.0
 20
0.0
 30
0.0
 11
34204.0
 21
129.0
 31
0.0
  0
LINE
  5
483
  8
MyLines
 10
34403.0
 20
0.0
 30
0.0
 11
34403.0
 21
129.0
 31
0.0
  0
TEXT
  5
484
  8
MyLines
 62
1
 10
34205.0
 20
65.5
 30
0.0
 40
1.0
  1
7644-B
 11
34205.0
 21
65.5
 31
0.0
  0
TEXT
  5
485
  8
MyLines
 62
1
 10
34205.0
 20
1.0
 30
0.0
 40
1.0
  1
7644-A
 11
34205.0
 21
1.0
 31
0.0
  0
LINE
  5
486
  8
MyLines
 10
34204.0
 20
64.5
 30
0.0
 11
34403.0
 21
64.5
 31
0.0
  0
LINE
  5
487
  8
MyLines
 10
34405.0
 20
175.0
 30
0.0
 11
34611.0
 21
175.0
 31
0.0
  0
LINE
  5
488
  8
MyLines
 10
34405.0
 20
0.0
 30
0.0
 11
34611.0
 21
0.0
 31
0.0
  0
LINE
  5
489
  8
MyLines
 10
34405.0
 20
0.0
 30
0.0
 11
34405.0
 21
175.0
 31
0.0
  0
LINE
  5
48A
  8
MyLines
 10
34611.0
 20
0.0
 30
0.0
 11
34611.0
 21
175.0
 31
0.0
  0
TEXT
  5
48B
  8
MyLines
 62
1
 10
34406.0
 20
88.5
 30
0.0
 40
1.0
  1
7645-B
 11
34406.0
 21
88.5
 31
0.0
  0
TEXT
  5
48C
  8
MyLines
 62
1
 10
34406.0
 20
1.0
 30
0.0
 40
1.0
  1
7645-A
 11
34406.0
 21
1.0
 31
0.0
  0
LINE
  5
48D
  8
MyLines
 10
34405.0
 20
87.5
 30
0.0
 11
34611.0
 21
87.5
 31
0.0
  0
LINE
  5
48E
  8
MyLines
 10
34613.0
 20
134.0
 30
0.0
 11
34816.0
 21
134.0
 31
0.0
  0
LINE
  5
48F
  8
MyLines
 10
34613.0
 20
0.0
 30
0.0
 11
34816.0
 21
0.0
 31
0.0
  0
LINE
  5
490
  8
MyLines
 10
34613.0
 20
0.0
 30
0.0
 11
34613.0
 21
134.0
 31
0.0
  0
LINE
  5
491
  8
MyLines
 10
34816.0
 20
0.0
 30
0.0
 11
34816.0
 21
134.0
 31
0.0
  0
TEXT
  5
492
  8
MyLines
 62
1
 10
34614.0
 20
68.0
 30
0.0
 40
1.0
  1
7646-B
 11
34614.0
 21
68.0
 31
0.0
  0
TEXT
  5
493
  8
MyLines
 62
1
 10
34614.0
 20
1.0
 30
0.0
 40
1.0
  1
7646-A
 11
34614.0
 21
1.0
 31
0.0
  0
LINE
  5
494
  8
MyLines
 10
34613.0
 20
67.0
 30
0.0
 11
34816.0
 21
67.0
 31
0.0
  0
LINE
  5
495
  8
MyLines
 10
34818.0
 20
72.0
 30
0.0
 11
35018.0
 21
72.0
 31
0.0
  0
LINE
  5
496
  8
MyLines
 10
34818.0
 20
0.0
 30
0.0
 11
35018.0
 21
0.0
 31
0.0
  0
LINE
  5
497
  8
MyLines
 10
34818.0
 20
0.0
 30
0.0
 11
34818.0
 21
72.0
 31
0.0
  0
LINE
  5
498
  8
MyLines
 10
35018.0
 20
0.0
 30
0.0
 11
35018.0
 21
72.0
 31
0.0
  0
TEXT
  5
499
  8
MyLines
 62
1
 10
34819.0
 20
37.0
 30
0.0
 40
1.0
  1
7647-B
 11
34819.0
 21
37.0
 31
0.0
  0
TEXT
  5
49A
  8
MyLines
 62
1
 10
34819.0
 20
1.0
 30
0.0
 40
1.0
  1
7647-A
 11
34819.0
 21
1.0
 31
0.0
  0
LINE
  5
49B
  8
MyLines
 10
34818.0
 20
36.0
 30
0.0
 11
35018.0
 21
36.0
 31
0.0
  0
LINE
  5
49C
  8
MyLines
 10
35020.0
 20
172.0
 30
0.0
 11
35211.0
 21
172.0
 31
0.0
  0
LINE
  5
49D
  8
MyLines
 10
35020.0
 20
0.0
 30
0.0
 11
35211.0
 21
0.0
 31
0.0
  0
LINE
  5
49E
  8
MyLines
 10
35020.0
 20
0.0
 30
0.0
 11
35020.0
 21
172.0
 31
0.0
  0
LINE
  5
49F
  8
MyLines
 10
35211.0
 20
0.0
 30
0.0
 11
35211.0
 21
172.0
 31
0.0
  0
TEXT
  5
4A0
  8
MyLines
 62
1
 10
35021.0
 20
87.0
 30
0.0
 40
1.0
  1
7648-B
 11
35021.0
 21
87.0
 31
0.0
  0
TEXT
  5
4A1
  8
MyLines
 62
1
 10
35021.0
 20
1.0
 30
0.0
 40
1.0
  1
7648-A
 11
35021.0
 21
1.0
 31
0.0
  0
LINE
  5
4A2
  8
MyLines
 10
35020.0
 20
86.0
 30
0.0
 11
35211.0
 21
86.0
 31
0.0
  0
LINE
  5
4A3
  8
MyLines
 10
35213.0
 20
176.0
 30
0.0
 11
35494.0
 21
176.0
 31
0.0
  0
LINE
  5
4A4
  8
MyLines
 10
35213.0
 20
0.0
 30
0.0
 11
35494.0
 21
0.0
 31
0.0
  0
LINE
  5
4A5
  8
MyLines
 10
35213.0
 20
0.0
 30
0.0
 11
35213.0
 21
176.0
 31
0.0
  0
LINE
  5
4A6
  8
MyLines
 10
35494.0
 20
0.0
 30
0.0
 11
35494.0
 21
176.0
 31
0.0
  0
TEXT
  5
4A7
  8
MyLines
 62
1
 10
35214.0
 20
89.0
 30
0.0
 40
1.0
  1
7649-B
 11
35214.0
 21
89.0
 31
0.0
  0
TEXT
  5
4A8
  8
MyLines
 62
1
 10
35214.0
 20
1.0
 30
0.0
 40
1.0
  1
7649-A
 11
35214.0
 21
1.0
 31
0.0
  0
LINE
  5
4A9
  8
MyLines
 10
35213.0
 20
88.0
 30
0.0
 11
35494.0
 21
88.0
 31
0.0
  0
LINE
  5
4AA
  8
MyLines
 10
35496.0
 20
96.0
 30
0.0
 11
35745.0
 21
96.0
 31
0.0
  0
LINE
  5
4AB
  8
MyLines
 10
35496.0
 20
0.0
 30
0.0
 11
35745.0
 21
0.0
 31
0.0
  0
LINE
  5
4AC
  8
MyLines
 10
35496.0
 20
0.0
 30
0.0
 11
35496.0
 21
96.0
 31
0.0
  0
LINE
  5
4AD
  8
MyLines
 10
35745.0
 20
0.0
 30
0.0
 11
35745.0
 21
96.0
 31
0.0
  0
TEXT
  5
4AE
  8
MyLines
 62
1
 10
35497.0
 20
49.0
 30
0.0
 40
1.0
  1
7650-B
 11
35497.0
 21
49.0
 31
0.0
  0
TEXT
  5
4AF
  8
MyLines
 62
1
 10
35497.0
 20
1.0
 30
0.0
 40
1.0
  1
7650-A
 11
35497.0
 21
1.0
 31
0.0
  0
LINE
  5
4B0
  8
MyLines
 10
35496.0
 20
48.0
 30
0.0
 11
35745.0
 21
48.0
 31
0.0
  0
LINE
  5
4B1
  8
MyLines
 10
35747.0
 20
75.0
 30
0.0
 11
35963.0
 21
75.0
 31
0.0
  0
LINE
  5
4B2
  8
MyLines
 10
35747.0
 20
0.0
 30
0.0
 11
35963.0
 21
0.0
 31
0.0
  0
LINE
  5
4B3
  8
MyLines
 10
35747.0
 20
0.0
 30
0.0
 11
35747.0
 21
75.0
 31
0.0
  0
LINE
  5
4B4
  8
MyLines
 10
35963.0
 20
0.0
 30
0.0
 11
35963.0
 21
75.0
 31
0.0
  0
TEXT
  5
4B5
  8
MyLines
 62
1
 10
35748.0
 20
38.5
 30
0.0
 40
1.0
  1
7651-B
 11
35748.0
 21
38.5
 31
0.0
  0
TEXT
  5
4B6
  8
MyLines
 62
1
 10
35748.0
 20
1.0
 30
0.0
 40
1.0
  1
7651-A
 11
35748.0
 21
1.0
 31
0.0
  0
LINE
  5
4B7
  8
MyLines
 10
35747.0
 20
37.5
 30
0.0
 11
35963.0
 21
37.5
 31
0.0
  0
LINE
  5
4B8
  8
MyLines
 10
35965.0
 20
113.0
 30
0.0
 11
36172.0
 21
113.0
 31
0.0
  0
LINE
  5
4B9
  8
MyLines
 10
35965.0
 20
0.0
 30
0.0
 11
36172.0
 21
0.0
 31
0.0
  0
LINE
  5
4BA
  8
MyLines
 10
35965.0
 20
0.0
 30
0.0
 11
35965.0
 21
113.0
 31
0.0
  0
LINE
  5
4BB
  8
MyLines
 10
36172.0
 20
0.0
 30
0.0
 11
36172.0
 21
113.0
 31
0.0
  0
TEXT
  5
4BC
  8
MyLines
 62
1
 10
35966.0
 20
57.5
 30
0.0
 40
1.0
  1
7652-B
 11
35966.0
 21
57.5
 31
0.0
  0
TEXT
  5
4BD
  8
MyLines
 62
1
 10
35966.0
 20
1.0
 30
0.0
 40
1.0
  1
7652-A
 11
35966.0
 21
1.0
 31
0.0
  0
LINE
  5
4BE
  8
MyLines
 10
35965.0
 20
56.5
 30
0.0
 11
36172.0
 21
56.5
 31
0.0
  0
LINE
  5
4BF
  8
MyLines
 10
36174.0
 20
153.0
 30
0.0
 11
36382.0
 21
153.0
 31
0.0
  0
LINE
  5
4C0
  8
MyLines
 10
36174.0
 20
0.0
 30
0.0
 11
36382.0
 21
0.0
 31
0.0
  0
LINE
  5
4C1
  8
MyLines
 10
36174.0
 20
0.0
 30
0.0
 11
36174.0
 21
153.0
 31
0.0
  0
LINE
  5
4C2
  8
MyLines
 10
36382.0
 20
0.0
 30
0.0
 11
36382.0
 21
153.0
 31
0.0
  0
TEXT
  5
4C3
  8
MyLines
 62
1
 10
36175.0
 20
77.5
 30
0.0
 40
1.0
  1
7653-B
 11
36175.0
 21
77.5
 31
0.0
  0
TEXT
  5
4C4
  8
MyLines
 62
1
 10
36175.0
 20
1.0
 30
0.0
 40
1.0
  1
7653-A
 11
36175.0
 21
1.0
 31
0.0
  0
LINE
  5
4C5
  8
MyLines
 10
36174.0
 20
76.5
 30
0.0
 11
36382.0
 21
76.5
 31
0.0
  0
LINE
  5
4C6
  8
MyLines
 10
36384.0
 20
140.0
 30
0.0
 11
36605.0
 21
140.0
 31
0.0
  0
LINE
  5
4C7
  8
MyLines
 10
36384.0
 20
0.0
 30
0.0
 11
36605.0
 21
0.0
 31
0.0
  0
LINE
  5
4C8
  8
MyLines
 10
36384.0
 20
0.0
 30
0.0
 11
36384.0
 21
140.0
 31
0.0
  0
LINE
  5
4C9
  8
MyLines
 10
36605.0
 20
0.0
 30
0.0
 11
36605.0
 21
140.0
 31
0.0
  0
TEXT
  5
4CA
  8
MyLines
 62
1
 10
36385.0
 20
71.0
 30
0.0
 40
1.0
  1
7654-B
 11
36385.0
 21
71.0
 31
0.0
  0
TEXT
  5
4CB
  8
MyLines
 62
1
 10
36385.0
 20
1.0
 30
0.0
 40
1.0
  1
7654-A
 11
36385.0
 21
1.0
 31
0.0
  0
LINE
  5
4CC
  8
MyLines
 10
36384.0
 20
70.0
 30
0.0
 11
36605.0
 21
70.0
 31
0.0
  0
LINE
  5
4CD
  8
MyLines
 10
36607.0
 20
158.0
 30
0.0
 11
36833.0
 21
158.0
 31
0.0
  0
LINE
  5
4CE
  8
MyLines
 10
36607.0
 20
0.0
 30
0.0
 11
36833.0
 21
0.0
 31
0.0
  0
LINE
  5
4CF
  8
MyLines
 10
36607.0
 20
0.0
 30
0.0
 11
36607.0
 21
158.0
 31
0.0
  0
LINE
  5
4D0
  8
MyLines
 10
36833.0
 20
0.0
 30
0.0
 11
36833.0
 21
158.0
 31
0.0
  0
TEXT
  5
4D1
  8
MyLines
 62
1
 10
36608.0
 20
80.0
 30
0.0
 40
1.0
  1
7655-B
 11
36608.0
 21
80.0
 31
0.0
  0
TEXT
  5
4D2
  8
MyLines
 62
1
 10
36608.0
 20
1.0
 30
0.0
 40
1.0
  1
7655-A
 11
36608.0
 21
1.0
 31
0.0
  0
LINE
  5
4D3
  8
MyLines
 10
36607.0
 20
79.0
 30
0.0
 11
36833.0
 21
79.0
 31
0.0
  0
LINE
  5
4D4
  8
MyLines
 10
36835.0
 20
166.0
 30
0.0
 11
37133.0
 21
166.0
 31
0.0
  0
LINE
  5
4D5
  8
MyLines
 10
36835.0
 20
0.0
 30
0.0
 11
37133.0
 21
0.0
 31
0.0
  0
LINE
  5
4D6
  8
MyLines
 10
36835.0
 20
0.0
 30
0.0
 11
36835.0
 21
166.0
 31
0.0
  0
LINE
  5
4D7
  8
MyLines
 10
37133.0
 20
0.0
 30
0.0
 11
37133.0
 21
166.0
 31
0.0
  0
TEXT
  5
4D8
  8
MyLines
 62
1
 10
36836.0
 20
84.0
 30
0.0
 40
1.0
  1
7656-B
 11
36836.0
 21
84.0
 31
0.0
  0
TEXT
  5
4D9
  8
MyLines
 62
1
 10
36836.0
 20
1.0
 30
0.0
 40
1.0
  1
7656-A
 11
36836.0
 21
1.0
 31
0.0
  0
LINE
  5
4DA
  8
MyLines
 10
36835.0
 20
83.0
 30
0.0
 11
37133.0
 21
83.0
 31
0.0
  0
LINE
  5
4DB
  8
MyLines
 10
37135.0
 20
141.0
 30
0.0
 11
37341.0
 21
141.0
 31
0.0
  0
LINE
  5
4DC
  8
MyLines
 10
37135.0
 20
0.0
 30
0.0
 11
37341.0
 21
0.0
 31
0.0
  0
LINE
  5
4DD
  8
MyLines
 10
37135.0
 20
0.0
 30
0.0
 11
37135.0
 21
141.0
 31
0.0
  0
LINE
  5
4DE
  8
MyLines
 10
37341.0
 20
0.0
 30
0.0
 11
37341.0
 21
141.0
 31
0.0
  0
TEXT
  5
4DF
  8
MyLines
 62
1
 10
37136.0
 20
71.5
 30
0.0
 40
1.0
  1
7657-B
 11
37136.0
 21
71.5
 31
0.0
  0
TEXT
  5
4E0
  8
MyLines
 62
1
 10
37136.0
 20
1.0
 30
0.0
 40
1.0
  1
7657-A
 11
37136.0
 21
1.0
 31
0.0
  0
LINE
  5
4E1
  8
MyLines
 10
37135.0
 20
70.5
 30
0.0
 11
37341.0
 21
70.5
 31
0.0
  0
LINE
  5
4E2
  8
MyLines
 10
37343.0
 20
133.0
 30
0.0
 11
37524.0
 21
133.0
 31
0.0
  0
LINE
  5
4E3
  8
MyLines
 10
37343.0
 20
0.0
 30
0.0
 11
37524.0
 21
0.0
 31
0.0
  0
LINE
  5
4E4
  8
MyLines
 10
37343.0
 20
0.0
 30
0.0
 11
37343.0
 21
133.0
 31
0.0
  0
LINE
  5
4E5
  8
MyLines
 10
37524.0
 20
0.0
 30
0.0
 11
37524.0
 21
133.0
 31
0.0
  0
TEXT
  5
4E6
  8
MyLines
 62
1
 10
37344.0
 20
67.5
 30
0.0
 40
1.0
  1
7658-B
 11
37344.0
 21
67.5
 31
0.0
  0
TEXT
  5
4E7
  8
MyLines
 62
1
 10
37344.0
 20
1.0
 30
0.0
 40
1.0
  1
7658-A
 11
37344.0
 21
1.0
 31
0.0
  0
LINE
  5
4E8
  8
MyLines
 10
37343.0
 20
66.5
 30
0.0
 11
37524.0
 21
66.5
 31
0.0
  0
LINE
  5
4E9
  8
MyLines
 10
37526.0
 20
90.0
 30
0.0
 11
37704.0
 21
90.0
 31
0.0
  0
LINE
  5
4EA
  8
MyLines
 10
37526.0
 20
0.0
 30
0.0
 11
37704.0
 21
0.0
 31
0.0
  0
LINE
  5
4EB
  8
MyLines
 10
37526.0
 20
0.0
 30
0.0
 11
37526.0
 21
90.0
 31
0.0
  0
LINE
  5
4EC
  8
MyLines
 10
37704.0
 20
0.0
 30
0.0
 11
37704.0
 21
90.0
 31
0.0
  0
TEXT
  5
4ED
  8
MyLines
 62
1
 10
37527.0
 20
46.0
 30
0.0
 40
1.0
  1
7659-B
 11
37527.0
 21
46.0
 31
0.0
  0
TEXT
  5
4EE
  8
MyLines
 62
1
 10
37527.0
 20
1.0
 30
0.0
 40
1.0
  1
7659-A
 11
37527.0
 21
1.0
 31
0.0
  0
LINE
  5
4EF
  8
MyLines
 10
37526.0
 20
45.0
 30
0.0
 11
37704.0
 21
45.0
 31
0.0
  0
LINE
  5
4F0
  8
MyLines
 10
37706.0
 20
164.0
 30
0.0
 11
37933.0
 21
164.0
 31
0.0
  0
LINE
  5
4F1
  8
MyLines
 10
37706.0
 20
0.0
 30
0.0
 11
37933.0
 21
0.0
 31
0.0
  0
LINE
  5
4F2
  8
MyLines
 10
37706.0
 20
0.0
 30
0.0
 11
37706.0
 21
164.0
 31
0.0
  0
LINE
  5
4F3
  8
MyLines
 10
37933.0
 20
0.0
 30
0.0
 11
37933.0
 21
164.0
 31
0.0
  0
TEXT
  5
4F4
  8
MyLines
 62
1
 10
37707.0
 20
83.0
 30
0.0
 40
1.0
  1
7660-B
 11
37707.0
 21
83.0
 31
0.0
  0
TEXT
  5
4F5
  8
MyLines
 62
1
 10
37707.0
 20
1.0
 30
0.0
 40
1.0
  1
7660-A
 11
37707.0
 21
1.0
 31
0.0
  0
LINE
  5
4F6
  8
MyLines
 10
37706.0
 20
82.0
 30
0.0
 11
37933.0
 21
82.0
 31
0.0
  0
LINE
  5
4F7
  8
MyLines
 10
37935.0
 20
163.0
 30
0.0
 11
38233.0
 21
163.0
 31
0.0
  0
LINE
  5
4F8
  8
MyLines
 10
37935.0
 20
0.0
 30
0.0
 11
38233.0
 21
0.0
 31
0.0
  0
LINE
  5
4F9
  8
MyLines
 10
37935.0
 20
0.0
 30
0.0
 11
37935.0
 21
163.0
 31
0.0
  0
LINE
  5
4FA
  8
MyLines
 10
38233.0
 20
0.0
 30
0.0
 11
38233.0
 21
163.0
 31
0.0
  0
TEXT
  5
4FB
  8
MyLines
 62
1
 10
37936.0
 20
82.5
 30
0.0
 40
1.0
  1
7661-B
 11
37936.0
 21
82.5
 31
0.0
  0
TEXT
  5
4FC
  8
MyLines
 62
1
 10
37936.0
 20
1.0
 30
0.0
 40
1.0
  1
7661-A
 11
37936.0
 21
1.0
 31
0.0
  0
LINE
  5
4FD
  8
MyLines
 10
37935.0
 20
81.5
 30
0.0
 11
38233.0
 21
81.5
 31
0.0
  0
LINE
  5
4FE
  8
MyLines
 10
38235.0
 20
119.0
 30
0.0
 11
38497.0
 21
119.0
 31
0.0
  0
LINE
  5
4FF
  8
MyLines
 10
38235.0
 20
0.0
 30
0.0
 11
38497.0
 21
0.0
 31
0.0
  0
LINE
  5
500
  8
MyLines
 10
38235.0
 20
0.0
 30
0.0
 11
38235.0
 21
119.0
 31
0.0
  0
LINE
  5
501
  8
MyLines
 10
38497.0
 20
0.0
 30
0.0
 11
38497.0
 21
119.0
 31
0.0
  0
TEXT
  5
502
  8
MyLines
 62
1
 10
38236.0
 20
60.5
 30
0.0
 40
1.0
  1
7662-B
 11
38236.0
 21
60.5
 31
0.0
  0
TEXT
  5
503
  8
MyLines
 62
1
 10
38236.0
 20
1.0
 30
0.0
 40
1.0
  1
7662-A
 11
38236.0
 21
1.0
 31
0.0
  0
LINE
  5
504
  8
MyLines
 10
38235.0
 20
59.5
 30
0.0
 11
38497.0
 21
59.5
 31
0.0
  0
LINE
  5
505
  8
MyLines
 10
38499.0
 20
121.0
 30
0.0
 11
38739.0
 21
121.0
 31
0.0
  0
LINE
  5
506
  8
MyLines
 10
38499.0
 20
0.0
 30
0.0
 11
38739.0
 21
0.0
 31
0.0
  0
LINE
  5
507
  8
MyLines
 10
38499.0
 20
0.0
 30
0.0
 11
38499.0
 21
121.0
 31
0.0
  0
LINE
  5
508
  8
MyLines
 10
38739.0
 20
0.0
 30
0.0
 11
38739.0
 21
121.0
 31
0.0
  0
TEXT
  5
509
  8
MyLines
 62
1
 10
38500.0
 20
61.5
 30
0.0
 40
1.0
  1
7663-B
 11
38500.0
 21
61.5
 31
0.0
  0
TEXT
  5
50A
  8
MyLines
 62
1
 10
38500.0
 20
1.0
 30
0.0
 40
1.0
  1
7663-A
 11
38500.0
 21
1.0
 31
0.0
  0
LINE
  5
50B
  8
MyLines
 10
38499.0
 20
60.5
 30
0.0
 11
38739.0
 21
60.5
 31
0.0
  0
LINE
  5
50C
  8
MyLines
 10
38741.0
 20
143.0
 30
0.0
 11
38935.0
 21
143.0
 31
0.0
  0
LINE
  5
50D
  8
MyLines
 10
38741.0
 20
0.0
 30
0.0
 11
38935.0
 21
0.0
 31
0.0
  0
LINE
  5
50E
  8
MyLines
 10
38741.0
 20
0.0
 30
0.0
 11
38741.0
 21
143.0
 31
0.0
  0
LINE
  5
50F
  8
MyLines
 10
38935.0
 20
0.0
 30
0.0
 11
38935.0
 21
143.0
 31
0.0
  0
TEXT
  5
510
  8
MyLines
 62
1
 10
38742.0
 20
72.5
 30
0.0
 40
1.0
  1
7664-B
 11
38742.0
 21
72.5
 31
0.0
  0
TEXT
  5
511
  8
MyLines
 62
1
 10
38742.0
 20
1.0
 30
0.0
 40
1.0
  1
7664-A
 11
38742.0
 21
1.0
 31
0.0
  0
LINE
  5
512
  8
MyLines
 10
38741.0
 20
71.5
 30
0.0
 11
38935.0
 21
71.5
 31
0.0
  0
LINE
  5
513
  8
MyLines
 10
38937.0
 20
100.0
 30
0.0
 11
39192.0
 21
100.0
 31
0.0
  0
LINE
  5
514
  8
MyLines
 10
38937.0
 20
0.0
 30
0.0
 11
39192.0
 21
0.0
 31
0.0
  0
LINE
  5
515
  8
MyLines
 10
38937.0
 20
0.0
 30
0.0
 11
38937.0
 21
100.0
 31
0.0
  0
LINE
  5
516
  8
MyLines
 10
39192.0
 20
0.0
 30
0.0
 11
39192.0
 21
100.0
 31
0.0
  0
TEXT
  5
517
  8
MyLines
 62
1
 10
38938.0
 20
51.0
 30
0.0
 40
1.0
  1
7665-B
 11
38938.0
 21
51.0
 31
0.0
  0
TEXT
  5
518
  8
MyLines
 62
1
 10
38938.0
 20
1.0
 30
0.0
 40
1.0
  1
7665-A
 11
38938.0
 21
1.0
 31
0.0
  0
LINE
  5
519
  8
MyLines
 10
38937.0
 20
50.0
 30
0.0
 11
39192.0
 21
50.0
 31
0.0
  0
LINE
  5
51A
  8
MyLines
 10
39194.0
 20
148.0
 30
0.0
 11
39456.0
 21
148.0
 31
0.0
  0
LINE
  5
51B
  8
MyLines
 10
39194.0
 20
0.0
 30
0.0
 11
39456.0
 21
0.0
 31
0.0
  0
LINE
  5
51C
  8
MyLines
 10
39194.0
 20
0.0
 30
0.0
 11
39194.0
 21
148.0
 31
0.0
  0
LINE
  5
51D
  8
MyLines
 10
39456.0
 20
0.0
 30
0.0
 11
39456.0
 21
148.0
 31
0.0
  0
TEXT
  5
51E
  8
MyLines
 62
1
 10
39195.0
 20
75.0
 30
0.0
 40
1.0
  1
7666-B
 11
39195.0
 21
75.0
 31
0.0
  0
TEXT
  5
51F
  8
MyLines
 62
1
 10
39195.0
 20
1.0
 30
0.0
 40
1.0
  1
7666-A
 11
39195.0
 21
1.0
 31
0.0
  0
LINE
  5
520
  8
MyLines
 10
39194.0
 20
74.0
 30
0.0
 11
39456.0
 21
74.0
 31
0.0
  0
LINE
  5
521
  8
MyLines
 10
39458.0
 20
130.0
 30
0.0
 11
39676.0
 21
130.0
 31
0.0
  0
LINE
  5
522
  8
MyLines
 10
39458.0
 20
0.0
 30
0.0
 11
39676.0
 21
0.0
 31
0.0
  0
LINE
  5
523
  8
MyLines
 10
39458.0
 20
0.0
 30
0.0
 11
39458.0
 21
130.0
 31
0.0
  0
LINE
  5
524
  8
MyLines
 10
39676.0
 20
0.0
 30
0.0
 11
39676.0
 21
130.0
 31
0.0
  0
TEXT
  5
525
  8
MyLines
 62
1
 10
39459.0
 20
66.0
 30
0.0
 40
1.0
  1
7667-B
 11
39459.0
 21
66.0
 31
0.0
  0
TEXT
  5
526
  8
MyLines
 62
1
 10
39459.0
 20
1.0
 30
0.0
 40
1.0
  1
7667-A
 11
39459.0
 21
1.0
 31
0.0
  0
LINE
  5
527
  8
MyLines
 10
39458.0
 20
65.0
 30
0.0
 11
39676.0
 21
65.0
 31
0.0
  0
LINE
  5
528
  8
MyLines
 10
39678.0
 20
115.0
 30
0.0
 11
39941.0
 21
115.0
 31
0.0
  0
LINE
  5
529
  8
MyLines
 10
39678.0
 20
0.0
 30
0.0
 11
39941.0
 21
0.0
 31
0.0
  0
LINE
  5
52A
  8
MyLines
 10
39678.0
 20
0.0
 30
0.0
 11
39678.0
 21
115.0
 31
0.0
  0
LINE
  5
52B
  8
MyLines
 10
39941.0
 20
0.0
 30
0.0
 11
39941.0
 21
115.0
 31
0.0
  0
TEXT
  5
52C
  8
MyLines
 62
1
 10
39679.0
 20
58.5
 30
0.0
 40
1.0
  1
7668-B
 11
39679.0
 21
58.5
 31
0.0
  0
TEXT
  5
52D
  8
MyLines
 62
1
 10
39679.0
 20
1.0
 30
0.0
 40
1.0
  1
7668-A
 11
39679.0
 21
1.0
 31
0.0
  0
LINE
  5
52E
  8
MyLines
 10
39678.0
 20
57.5
 30
0.0
 11
39941.0
 21
57.5
 31
0.0
  0
LINE
  5
52F
  8
MyLines
 10
39943.0
 20
156.0
 30
0.0
 11
40242.0
 21
156.0
 31
0.0
  0
LINE
  5
530
  8
MyLines
 10
39943.0
 20
0.0
 30
0.0
 11
40242.0
 21
0.0
 31
0.0
  0
LINE
  5
531
  8
MyLines
 10
39943.0
 20
0.0
 30
0.0
 11
39943.0
 21
156.0
 31
0.0
  0
LINE
  5
532
  8
MyLines
 10
40242.0
 20
0.0
 30
0.0
 11
40242.0
 21
156.0
 31
0.0
  0
TEXT
  5
533
  8
MyLines
 62
1
 10
39944.0
 20
79.0
 30
0.0
 40
1.0
  1
7669-B
 11
39944.0
 21
79.0
 31
0.0
  0
TEXT
  5
534
  8
MyLines
 62
1
 10
39944.0
 20
1.0
 30
0.0
 40
1.0
  1
7669-A
 11
39944.0
 21
1.0
 31
0.0
  0
LINE
  5
535
  8
MyLines
 10
39943.0
 20
78.0
 30
0.0
 11
40242.0
 21
78.0
 31
0.0
  0
LINE
  5
536
  8
MyLines
 10
40244.0
 20
72.0
 30
0.0
 11
40538.0
 21
72.0
 31
0.0
  0
LINE
  5
537
  8
MyLines
 10
40244.0
 20
0.0
 30
0.0
 11
40538.0
 21
0.0
 31
0.0
  0
LINE
  5
538
  8
MyLines
 10
40244.0
 20
0.0
 30
0.0
 11
40244.0
 21
72.0
 31
0.0
  0
LINE
  5
539
  8
MyLines
 10
40538.0
 20
0.0
 30
0.0
 11
40538.0
 21
72.0
 31
0.0
  0
TEXT
  5
53A
  8
MyLines
 62
1
 10
40245.0
 20
37.0
 30
0.0
 40
1.0
  1
7670-B
 11
40245.0
 21
37.0
 31
0.0
  0
TEXT
  5
53B
  8
MyLines
 62
1
 10
40245.0
 20
1.0
 30
0.0
 40
1.0
  1
7670-A
 11
40245.0
 21
1.0
 31
0.0
  0
LINE
  5
53C
  8
MyLines
 10
40244.0
 20
36.0
 30
0.0
 11
40538.0
 21
36.0
 31
0.0
  0
LINE
  5
53D
  8
MyLines
 10
40540.0
 20
114.0
 30
0.0
 11
40783.0
 21
114.0
 31
0.0
  0
LINE
  5
53E
  8
MyLines
 10
40540.0
 20
0.0
 30
0.0
 11
40783.0
 21
0.0
 31
0.0
  0
LINE
  5
53F
  8
MyLines
 10
40540.0
 20
0.0
 30
0.0
 11
40540.0
 21
114.0
 31
0.0
  0
LINE
  5
540
  8
MyLines
 10
40783.0
 20
0.0
 30
0.0
 11
40783.0
 21
114.0
 31
0.0
  0
TEXT
  5
541
  8
MyLines
 62
1
 10
40541.0
 20
58.0
 30
0.0
 40
1.0
  1
7671-B
 11
40541.0
 21
58.0
 31
0.0
  0
TEXT
  5
542
  8
MyLines
 62
1
 10
40541.0
 20
1.0
 30
0.0
 40
1.0
  1
7671-A
 11
40541.0
 21
1.0
 31
0.0
  0
LINE
  5
543
  8
MyLines
 10
40540.0
 20
57.0
 30
0.0
 11
40783.0
 21
57.0
 31
0.0
  0
LINE
  5
544
  8
MyLines
 10
40785.0
 20
171.0
 30
0.0
 11
41034.0
 21
171.0
 31
0.0
  0
LINE
  5
545
  8
MyLines
 10
40785.0
 20
0.0
 30
0.0
 11
41034.0
 21
0.0
 31
0.0
  0
LINE
  5
546
  8
MyLines
 10
40785.0
 20
0.0
 30
0.0
 11
40785.0
 21
171.0
 31
0.0
  0
LINE
  5
547
  8
MyLines
 10
41034.0
 20
0.0
 30
0.0
 11
41034.0
 21
171.0
 31
0.0
  0
TEXT
  5
548
  8
MyLines
 62
1
 10
40786.0
 20
86.5
 30
0.0
 40
1.0
  1
7672-B
 11
40786.0
 21
86.5
 31
0.0
  0
TEXT
  5
549
  8
MyLines
 62
1
 10
40786.0
 20
1.0
 30
0.0
 40
1.0
  1
7672-A
 11
40786.0
 21
1.0
 31
0.0
  0
LINE
  5
54A
  8
MyLines
 10
40785.0
 20
85.5
 30
0.0
 11
41034.0
 21
85.5
 31
0.0
  0
LINE
  5
54B
  8
MyLines
 10
41036.0
 20
76.0
 30
0.0
 11
41267.0
 21
76.0
 31
0.0
  0
LINE
  5
54C
  8
MyLines
 10
41036.0
 20
0.0
 30
0.0
 11
41267.0
 21
0.0
 31
0.0
  0
LINE
  5
54D
  8
MyLines
 10
41036.0
 20
0.0
 30
0.0
 11
41036.0
 21
76.0
 31
0.0
  0
LINE
  5
54E
  8
MyLines
 10
41267.0
 20
0.0
 30
0.0
 11
41267.0
 21
76.0
 31
0.0
  0
TEXT
  5
54F
  8
MyLines
 62
1
 10
41037.0
 20
39.0
 30
0.0
 40
1.0
  1
7673-B
 11
41037.0
 21
39.0
 31
0.0
  0
TEXT
  5
550
  8
MyLines
 62
1
 10
41037.0
 20
1.0
 30
0.0
 40
1.0
  1
7673-A
 11
41037.0
 21
1.0
 31
0.0
  0
LINE
  5
551
  8
MyLines
 10
41036.0
 20
38.0
 30
0.0
 11
41267.0
 21
38.0
 31
0.0
  0
LINE
  5
552
  8
MyLines
 10
41269.0
 20
74.0
 30
0.0
 11
41461.0
 21
74.0
 31
0.0
  0
LINE
  5
553
  8
MyLines
 10
41269.0
 20
0.0
 30
0.0
 11
41461.0
 21
0.0
 31
0.0
  0
LINE
  5
554
  8
MyLines
 10
41269.0
 20
0.0
 30
0.0
 11
41269.0
 21
74.0
 31
0.0
  0
LINE
  5
555
  8
MyLines
 10
41461.0
 20
0.0
 30
0.0
 11
41461.0
 21
74.0
 31
0.0
  0
TEXT
  5
556
  8
MyLines
 62
1
 10
41270.0
 20
38.0
 30
0.0
 40
1.0
  1
7674-B
 11
41270.0
 21
38.0
 31
0.0
  0
TEXT
  5
557
  8
MyLines
 62
1
 10
41270.0
 20
1.0
 30
0.0
 40
1.0
  1
7674-A
 11
41270.0
 21
1.0
 31
0.0
  0
LINE
  5
558
  8
MyLines
 10
41269.0
 20
37.0
 30
0.0
 11
41461.0
 21
37.0
 31
0.0
  0
LINE
  5
559
  8
MyLines
 10
41463.0
 20
174.0
 30
0.0
 11
41703.0
 21
174.0
 31
0.0
  0
LINE
  5
55A
  8
MyLines
 10
41463.0
 20
0.0
 30
0.0
 11
41703.0
 21
0.0
 31
0.0
  0
LINE
  5
55B
  8
MyLines
 10
41463.0
 20
0.0
 30
0.0
 11
41463.0
 21
174.0
 31
0.0
  0
LINE
  5
55C
  8
MyLines
 10
41703.0
 20
0.0
 30
0.0
 11
41703.0
 21
174.0
 31
0.0
  0
TEXT
  5
55D
  8
MyLines
 62
1
 10
41464.0
 20
88.0
 30
0.0
 40
1.0
  1
7675-B
 11
41464.0
 21
88.0
 31
0.0
  0
TEXT
  5
55E
  8
MyLines
 62
1
 10
41464.0
 20
1.0
 30
0.0
 40
1.0
  1
7675-A
 11
41464.0
 21
1.0
 31
0.0
  0
LINE
  5
55F
  8
MyLines
 10
41463.0
 20
87.0
 30
0.0
 11
41703.0
 21
87.0
 31
0.0
  0
LINE
  5
560
  8
MyLines
 10
41705.0
 20
79.0
 30
0.0
 11
41928.0
 21
79.0
 31
0.0
  0
LINE
  5
561
  8
MyLines
 10
41705.0
 20
0.0
 30
0.0
 11
41928.0
 21
0.0
 31
0.0
  0
LINE
  5
562
  8
MyLines
 10
41705.0
 20
0.0
 30
0.0
 11
41705.0
 21
79.0
 31
0.0
  0
LINE
  5
563
  8
MyLines
 10
41928.0
 20
0.0
 30
0.0
 11
41928.0
 21
79.0
 31
0.0
  0
TEXT
  5
564
  8
MyLines
 62
1
 10
41706.0
 20
40.5
 30
0.0
 40
1.0
  1
7676-B
 11
41706.0
 21
40.5
 31
0.0
  0
TEXT
  5
565
  8
MyLines
 62
1
 10
41706.0
 20
1.0
 30
0.0
 40
1.0
  1
7676-A
 11
41706.0
 21
1.0
 31
0.0
  0
LINE
  5
566
  8
MyLines
 10
41705.0
 20
39.5
 30
0.0
 11
41928.0
 21
39.5
 31
0.0
  0
LINE
  5
567
  8
MyLines
 10
41930.0
 20
164.0
 30
0.0
 11
42189.0
 21
164.0
 31
0.0
  0
LINE
  5
568
  8
MyLines
 10
41930.0
 20
0.0
 30
0.0
 11
42189.0
 21
0.0
 31
0.0
  0
LINE
  5
569
  8
MyLines
 10
41930.0
 20
0.0
 30
0.0
 11
41930.0
 21
164.0
 31
0.0
  0
LINE
  5
56A
  8
MyLines
 10
42189.0
 20
0.0
 30
0.0
 11
42189.0
 21
164.0
 31
0.0
  0
TEXT
  5
56B
  8
MyLines
 62
1
 10
41931.0
 20
83.0
 30
0.0
 40
1.0
  1
7677-B
 11
41931.0
 21
83.0
 31
0.0
  0
TEXT
  5
56C
  8
MyLines
 62
1
 10
41931.0
 20
1.0
 30
0.0
 40
1.0
  1
7677-A
 11
41931.0
 21
1.0
 31
0.0
  0
LINE
  5
56D
  8
MyLines
 10
41930.0
 20
82.0
 30
0.0
 11
42189.0
 21
82.0
 31
0.0
  0
LINE
  5
56E
  8
MyLines
 10
42191.0
 20
71.0
 30
0.0
 11
42422.0
 21
71.0
 31
0.0
  0
LINE
  5
56F
  8
MyLines
 10
42191.0
 20
0.0
 30
0.0
 11
42422.0
 21
0.0
 31
0.0
  0
LINE
  5
570
  8
MyLines
 10
42191.0
 20
0.0
 30
0.0
 11
42191.0
 21
71.0
 31
0.0
  0
LINE
  5
571
  8
MyLines
 10
42422.0
 20
0.0
 30
0.0
 11
42422.0
 21
71.0
 31
0.0
  0
TEXT
  5
572
  8
MyLines
 62
1
 10
42192.0
 20
36.5
 30
0.0
 40
1.0
  1
7678-B
 11
42192.0
 21
36.5
 31
0.0
  0
TEXT
  5
573
  8
MyLines
 62
1
 10
42192.0
 20
1.0
 30
0.0
 40
1.0
  1
7678-A
 11
42192.0
 21
1.0
 31
0.0
  0
LINE
  5
574
  8
MyLines
 10
42191.0
 20
35.5
 30
0.0
 11
42422.0
 21
35.5
 31
0.0
  0
LINE
  5
575
  8
MyLines
 10
42424.0
 20
71.0
 30
0.0
 11
42679.0
 21
71.0
 31
0.0
  0
LINE
  5
576
  8
MyLines
 10
42424.0
 20
0.0
 30
0.0
 11
42679.0
 21
0.0
 31
0.0
  0
LINE
  5
577
  8
MyLines
 10
42424.0
 20
0.0
 30
0.0
 11
42424.0
 21
71.0
 31
0.0
  0
LINE
  5
578
  8
MyLines
 10
42679.0
 20
0.0
 30
0.0
 11
42679.0
 21
71.0
 31
0.0
  0
TEXT
  5
579
  8
MyLines
 62
1
 10
42425.0
 20
36.5
 30
0.0
 40
1.0
  1
7679-B
 11
42425.0
 21
36.5
 31
0.0
  0
TEXT
  5
57A
  8
MyLines
 62
1
 10
42425.0
 20
1.0
 30
0.0
 40
1.0
  1
7679-A
 11
42425.0
 21
1.0
 31
0.0
  0
LINE
  5
57B
  8
MyLines
 10
42424.0
 20
35.5
 30
0.0
 11
42679.0
 21
35.5
 31
0.0
  0
LINE
  5
57C
  8
MyLines
 10
42681.0
 20
114.0
 30
0.0
 11
42975.0
 21
114.0
 31
0.0
  0
LINE
  5
57D
  8
MyLines
 10
42681.0
 20
0.0
 30
0.0
 11
42975.0
 21
0.0
 31
0.0
  0
LINE
  5
57E
  8
MyLines
 10
42681.0
 20
0.0
 30
0.0
 11
42681.0
 21
114.0
 31
0.0
  0
LINE
  5
57F
  8
MyLines
 10
42975.0
 20
0.0
 30
0.0
 11
42975.0
 21
114.0
 31
0.0
  0
TEXT
  5
580
  8
MyLines
 62
1
 10
42682.0
 20
58.0
 30
0.0
 40
1.0
  1
7680-B
 11
42682.0
 21
58.0
 31
0.0
  0
TEXT
  5
581
  8
MyLines
 62
1
 10
42682.0
 20
1.0
 30
0.0
 40
1.0
  1
7680-A
 11
42682.0
 21
1.0
 31
0.0
  0
LINE
  5
582
  8
MyLines
 10
42681.0
 20
57.0
 30
0.0
 11
42975.0
 21
57.0
 31
0.0
  0
LINE
  5
583
  8
MyLines
 10
42977.0
 20
142.0
 30
0.0
 11
43224.0
 21
142.0
 31
0.0
  0
LINE
  5
584
  8
MyLines
 10
42977.0
 20
0.0
 30
0.0
 11
43224.0
 21
0.0
 31
0.0
  0
LINE
  5
585
  8
MyLines
 10
42977.0
 20
0.0
 30
0.0
 11
42977.0
 21
142.0
 31
0.0
  0
LINE
  5
586
  8
MyLines
 10
43224.0
 20
0.0
 30
0.0
 11
43224.0
 21
142.0
 31
0.0
  0
TEXT
  5
587
  8
MyLines
 62
1
 10
42978.0
 20
72.0
 30
0.0
 40
1.0
  1
7681-B
 11
42978.0
 21
72.0
 31
0.0
  0
TEXT
  5
588
  8
MyLines
 62
1
 10
42978.0
 20
1.0
 30
0.0
 40
1.0
  1
7681-A
 11
42978.0
 21
1.0
 31
0.0
  0
LINE
  5
589
  8
MyLines
 10
42977.0
 20
71.0
 30
0.0
 11
43224.0
 21
71.0
 31
0.0
  0
LINE
  5
58A
  8
MyLines
 10
43226.0
 20
122.0
 30
0.0
 11
43460.0
 21
122.0
 31
0.0
  0
LINE
  5
58B
  8
MyLines
 10
43226.0
 20
0.0
 30
0.0
 11
43460.0
 21
0.0
 31
0.0
  0
LINE
  5
58C
  8
MyLines
 10
43226.0
 20
0.0
 30
0.0
 11
43226.0
 21
122.0
 31
0.0
  0
LINE
  5
58D
  8
MyLines
 10
43460.0
 20
0.0
 30
0.0
 11
43460.0
 21
122.0
 31
0.0
  0
TEXT
  5
58E
  8
MyLines
 62
1
 10
43227.0
 20
62.0
 30
0.0
 40
1.0
  1
7682-B
 11
43227.0
 21
62.0
 31
0.0
  0
TEXT
  5
58F
  8
MyLines
 62
1
 10
43227.0
 20
1.0
 30
0.0
 40
1.0
  1
7682-A
 11
43227.0
 21
1.0
 31
0.0
  0
LINE
  5
590
  8
MyLines
 10
43226.0
 20
61.0
 30
0.0
 11
43460.0
 21
61.0
 31
0.0
  0
LINE
  5
591
  8
MyLines
 10
43462.0
 20
135.0
 30
0.0
 11
43683.0
 21
135.0
 31
0.0
  0
LINE
  5
592
  8
MyLines
 10
43462.0
 20
0.0
 30
0.0
 11
43683.0
 21
0.0
 31
0.0
  0
LINE
  5
593
  8
MyLines
 10
43462.0
 20
0.0
 30
0.0
 11
43462.0
 21
135.0
 31
0.0
  0
LINE
  5
594
  8
MyLines
 10
43683.0
 20
0.0
 30
0.0
 11
43683.0
 21
135.0
 31
0.0
  0
TEXT
  5
595
  8
MyLines
 62
1
 10
43463.0
 20
68.5
 30
0.0
 40
1.0
  1
7683-B
 11
43463.0
 21
68.5
 31
0.0
  0
TEXT
  5
596
  8
MyLines
 62
1
 10
43463.0
 20
1.0
 30
0.0
 40
1.0
  1
7683-A
 11
43463.0
 21
1.0
 31
0.0
  0
LINE
  5
597
  8
MyLines
 10
43462.0
 20
67.5
 30
0.0
 11
43683.0
 21
67.5
 31
0.0
  0
LINE
  5
598
  8
MyLines
 10
43685.0
 20
147.0
 30
0.0
 11
43893.0
 21
147.0
 31
0.0
  0
LINE
  5
599
  8
MyLines
 10
43685.0
 20
0.0
 30
0.0
 11
43893.0
 21
0.0
 31
0.0
  0
LINE
  5
59A
  8
MyLines
 10
43685.0
 20
0.0
 30
0.0
 11
43685.0
 21
147.0
 31
0.0
  0
LINE
  5
59B
  8
MyLines
 10
43893.0
 20
0.0
 30
0.0
 11
43893.0
 21
147.0
 31
0.0
  0
TEXT
  5
59C
  8
MyLines
 62
1
 10
43686.0
 20
74.5
 30
0.0
 40
1.0
  1
7684-B
 11
43686.0
 21
74.5
 31
0.0
  0
TEXT
  5
59D
  8
MyLines
 62
1
 10
43686.0
 20
1.0
 30
0.0
 40
1.0
  1
7684-A
 11
43686.0
 21
1.0
 31
0.0
  0
LINE
  5
59E
  8
MyLines
 10
43685.0
 20
73.5
 30
0.0
 11
43893.0
 21
73.5
 31
0.0
  0
LINE
  5
59F
  8
MyLines
 10
43895.0
 20
93.0
 30
0.0
 11
44144.0
 21
93.0
 31
0.0
  0
LINE
  5
5A0
  8
MyLines
 10
43895.0
 20
0.0
 30
0.0
 11
44144.0
 21
0.0
 31
0.0
  0
LINE
  5
5A1
  8
MyLines
 10
43895.0
 20
0.0
 30
0.0
 11
43895.0
 21
93.0
 31
0.0
  0
LINE
  5
5A2
  8
MyLines
 10
44144.0
 20
0.0
 30
0.0
 11
44144.0
 21
93.0
 31
0.0
  0
TEXT
  5
5A3
  8
MyLines
 62
1
 10
43896.0
 20
47.5
 30
0.0
 40
1.0
  1
7685-B
 11
43896.0
 21
47.5
 31
0.0
  0
TEXT
  5
5A4
  8
MyLines
 62
1
 10
43896.0
 20
1.0
 30
0.0
 40
1.0
  1
7685-A
 11
43896.0
 21
1.0
 31
0.0
  0
LINE
  5
5A5
  8
MyLines
 10
43895.0
 20
46.5
 30
0.0
 11
44144.0
 21
46.5
 31
0.0
  0
LINE
  5
5A6
  8
MyLines
 10
44146.0
 20
133.0
 30
0.0
 11
44331.0
 21
133.0
 31
0.0
  0
LINE
  5
5A7
  8
MyLines
 10
44146.0
 20
0.0
 30
0.0
 11
44331.0
 21
0.0
 31
0.0
  0
LINE
  5
5A8
  8
MyLines
 10
44146.0
 20
0.0
 30
0.0
 11
44146.0
 21
133.0
 31
0.0
  0
LINE
  5
5A9
  8
MyLines
 10
44331.0
 20
0.0
 30
0.0
 11
44331.0
 21
133.0
 31
0.0
  0
TEXT
  5
5AA
  8
MyLines
 62
1
 10
44147.0
 20
67.5
 30
0.0
 40
1.0
  1
7686-B
 11
44147.0
 21
67.5
 31
0.0
  0
TEXT
  5
5AB
  8
MyLines
 62
1
 10
44147.0
 20
1.0
 30
0.0
 40
1.0
  1
7686-A
 11
44147.0
 21
1.0
 31
0.0
  0
LINE
  5
5AC
  8
MyLines
 10
44146.0
 20
66.5
 30
0.0
 11
44331.0
 21
66.5
 31
0.0
  0
LINE
  5
5AD
  8
MyLines
 10
44333.0
 20
180.0
 30
0.0
 11
44520.0
 21
180.0
 31
0.0
  0
LINE
  5
5AE
  8
MyLines
 10
44333.0
 20
0.0
 30
0.0
 11
44520.0
 21
0.0
 31
0.0
  0
LINE
  5
5AF
  8
MyLines
 10
44333.0
 20
0.0
 30
0.0
 11
44333.0
 21
180.0
 31
0.0
  0
LINE
  5
5B0
  8
MyLines
 10
44520.0
 20
0.0
 30
0.0
 11
44520.0
 21
180.0
 31
0.0
  0
TEXT
  5
5B1
  8
MyLines
 62
1
 10
44334.0
 20
91.0
 30
0.0
 40
1.0
  1
7687-B
 11
44334.0
 21
91.0
 31
0.0
  0
TEXT
  5
5B2
  8
MyLines
 62
1
 10
44334.0
 20
1.0
 30
0.0
 40
1.0
  1
7687-A
 11
44334.0
 21
1.0
 31
0.0
  0
LINE
  5
5B3
  8
MyLines
 10
44333.0
 20
90.0
 30
0.0
 11
44520.0
 21
90.0
 31
0.0
  0
LINE
  5
5B4
  8
MyLines
 10
44522.0
 20
165.0
 30
0.0
 11
44770.0
 21
165.0
 31
0.0
  0
LINE
  5
5B5
  8
MyLines
 10
44522.0
 20
0.0
 30
0.0
 11
44770.0
 21
0.0
 31
0.0
  0
LINE
  5
5B6
  8
MyLines
 10
44522.0
 20
0.0
 30
0.0
 11
44522.0
 21
165.0
 31
0.0
  0
LINE
  5
5B7
  8
MyLines
 10
44770.0
 20
0.0
 30
0.0
 11
44770.0
 21
165.0
 31
0.0
  0
TEXT
  5
5B8
  8
MyLines
 62
1
 10
44523.0
 20
83.5
 30
0.0
 40
1.0
  1
7688-B
 11
44523.0
 21
83.5
 31
0.0
  0
TEXT
  5
5B9
  8
MyLines
 62
1
 10
44523.0
 20
1.0
 30
0.0
 40
1.0
  1
7688-A
 11
44523.0
 21
1.0
 31
0.0
  0
LINE
  5
5BA
  8
MyLines
 10
44522.0
 20
82.5
 30
0.0
 11
44770.0
 21
82.5
 31
0.0
  0
LINE
  5
5BB
  8
MyLines
 10
44772.0
 20
85.0
 30
0.0
 11
45044.0
 21
85.0
 31
0.0
  0
LINE
  5
5BC
  8
MyLines
 10
44772.0
 20
0.0
 30
0.0
 11
45044.0
 21
0.0
 31
0.0
  0
LINE
  5
5BD
  8
MyLines
 10
44772.0
 20
0.0
 30
0.0
 11
44772.0
 21
85.0
 31
0.0
  0
LINE
  5
5BE
  8
MyLines
 10
45044.0
 20
0.0
 30
0.0
 11
45044.0
 21
85.0
 31
0.0
  0
TEXT
  5
5BF
  8
MyLines
 62
1
 10
44773.0
 20
43.5
 30
0.0
 40
1.0
  1
7689-B
 11
44773.0
 21
43.5
 31
0.0
  0
TEXT
  5
5C0
  8
MyLines
 62
1
 10
44773.0
 20
1.0
 30
0.0
 40
1.0
  1
7689-A
 11
44773.0
 21
1.0
 31
0.0
  0
LINE
  5
5C1
  8
MyLines
 10
44772.0
 20
42.5
 30
0.0
 11
45044.0
 21
42.5
 31
0.0
  0
LINE
  5
5C2
  8
MyLines
 10
45046.0
 20
71.0
 30
0.0
 11
45306.0
 21
71.0
 31
0.0
  0
LINE
  5
5C3
  8
MyLines
 10
45046.0
 20
0.0
 30
0.0
 11
45306.0
 21
0.0
 31
0.0
  0
LINE
  5
5C4
  8
MyLines
 10
45046.0
 20
0.0
 30
0.0
 11
45046.0
 21
71.0
 31
0.0
  0
LINE
  5
5C5
  8
MyLines
 10
45306.0
 20
0.0
 30
0.0
 11
45306.0
 21
71.0
 31
0.0
  0
TEXT
  5
5C6
  8
MyLines
 62
1
 10
45047.0
 20
36.5
 30
0.0
 40
1.0
  1
7690-B
 11
45047.0
 21
36.5
 31
0.0
  0
TEXT
  5
5C7
  8
MyLines
 62
1
 10
45047.0
 20
1.0
 30
0.0
 40
1.0
  1
7690-A
 11
45047.0
 21
1.0
 31
0.0
  0
LINE
  5
5C8
  8
MyLines
 10
45046.0
 20
35.5
 30
0.0
 11
45306.0
 21
35.5
 31
0.0
  0
LINE
  5
5C9
  8
MyLines
 10
45308.0
 20
103.0
 30
0.0
 11
45536.0
 21
103.0
 31
0.0
  0
LINE
  5
5CA
  8
MyLines
 10
45308.0
 20
0.0
 30
0.0
 11
45536.0
 21
0.0
 31
0.0
  0
LINE
  5
5CB
  8
MyLines
 10
45308.0
 20
0.0
 30
0.0
 11
45308.0
 21
103.0
 31
0.0
  0
LINE
  5
5CC
  8
MyLines
 10
45536.0
 20
0.0
 30
0.0
 11
45536.0
 21
103.0
 31
0.0
  0
TEXT
  5
5CD
  8
MyLines
 62
1
 10
45309.0
 20
52.5
 30
0.0
 40
1.0
  1
7691-B
 11
45309.0
 21
52.5
 31
0.0
  0
TEXT
  5
5CE
  8
MyLines
 62
1
 10
45309.0
 20
1.0
 30
0.0
 40
1.0
  1
7691-A
 11
45309.0
 21
1.0
 31
0.0
  0
LINE
  5
5CF
  8
MyLines
 10
45308.0
 20
51.5
 30
0.0
 11
45536.0
 21
51.5
 31
0.0
  0
LINE
  5
5D0
  8
MyLines
 10
45538.0
 20
121.0
 30
0.0
 11
45727.0
 21
121.0
 31
0.0
  0
LINE
  5
5D1
  8
MyLines
 10
45538.0
 20
0.0
 30
0.0
 11
45727.0
 21
0.0
 31
0.0
  0
LINE
  5
5D2
  8
MyLines
 10
45538.0
 20
0.0
 30
0.0
 11
45538.0
 21
121.0
 31
0.0
  0
LINE
  5
5D3
  8
MyLines
 10
45727.0
 20
0.0
 30
0.0
 11
45727.0
 21
121.0
 31
0.0
  0
TEXT
  5
5D4
  8
MyLines
 62
1
 10
45539.0
 20
61.5
 30
0.0
 40
1.0
  1
7692-B
 11
45539.0
 21
61.5
 31
0.0
  0
TEXT
  5
5D5
  8
MyLines
 62
1
 10
45539.0
 20
1.0
 30
0.0
 40
1.0
  1
7692-A
 11
45539.0
 21
1.0
 31
0.0
  0
LINE
  5
5D6
  8
MyLines
 10
45538.0
 20
60.5
 30
0.0
 11
45727.0
 21
60.5
 31
0.0
  0
LINE
  5
5D7
  8
MyLines
 10
45729.0
 20
129.0
 30
0.0
 11
45976.0
 21
129.0
 31
0.0
  0
LINE
  5
5D8
  8
MyLines
 10
45729.0
 20
0.0
 30
0.0
 11
45976.0
 21
0.0
 31
0.0
  0
LINE
  5
5D9
  8
MyLines
 10
45729.0
 20
0.0
 30
0.0
 11
45729.0
 21
129.0
 31
0.0
  0
LINE
  5
5DA
  8
MyLines
 10
45976.0
 20
0.0
 30
0.0
 11
45976.0
 21
129.0
 31
0.0
  0
TEXT
  5
5DB
  8
MyLines
 62
1
 10
45730.0
 20
65.5
 30
0.0
 40
1.0
  1
7693-B
 11
45730.0
 21
65.5
 31
0.0
  0
TEXT
  5
5DC
  8
MyLines
 62
1
 10
45730.0
 20
1.0
 30
0.0
 40
1.0
  1
7693-A
 11
45730.0
 21
1.0
 31
0.0
  0
LINE
  5
5DD
  8
MyLines
 10
45729.0
 20
64.5
 30
0.0
 11
45976.0
 21
64.5
 31
0.0
  0
LINE
  5
5DE
  8
MyLines
 10
45978.0
 20
105.0
 30
0.0
 11
46221.0
 21
105.0
 31
0.0
  0
LINE
  5
5DF
  8
MyLines
 10
45978.0
 20
0.0
 30
0.0
 11
46221.0
 21
0.0
 31
0.0
  0
LINE
  5
5E0
  8
MyLines
 10
45978.0
 20
0.0
 30
0.0
 11
45978.0
 21
105.0
 31
0.0
  0
LINE
  5
5E1
  8
MyLines
 10
46221.0
 20
0.0
 30
0.0
 11
46221.0
 21
105.0
 31
0.0
  0
TEXT
  5
5E2
  8
MyLines
 62
1
 10
45979.0
 20
53.5
 30
0.0
 40
1.0
  1
7694-B
 11
45979.0
 21
53.5
 31
0.0
  0
TEXT
  5
5E3
  8
MyLines
 62
1
 10
45979.0
 20
1.0
 30
0.0
 40
1.0
  1
7694-A
 11
45979.0
 21
1.0
 31
0.0
  0
LINE
  5
5E4
  8
MyLines
 10
45978.0
 20
52.5
 30
0.0
 11
46221.0
 21
52.5
 31
0.0
  0
LINE
  5
5E5
  8
MyLines
 10
46223.0
 20
94.0
 30
0.0
 11
46413.0
 21
94.0
 31
0.0
  0
LINE
  5
5E6
  8
MyLines
 10
46223.0
 20
0.0
 30
0.0
 11
46413.0
 21
0.0
 31
0.0
  0
LINE
  5
5E7
  8
MyLines
 10
46223.0
 20
0.0
 30
0.0
 11
46223.0
 21
94.0
 31
0.0
  0
LINE
  5
5E8
  8
MyLines
 10
46413.0
 20
0.0
 30
0.0
 11
46413.0
 21
94.0
 31
0.0
  0
TEXT
  5
5E9
  8
MyLines
 62
1
 10
46224.0
 20
48.0
 30
0.0
 40
1.0
  1
7695-B
 11
46224.0
 21
48.0
 31
0.0
  0
TEXT
  5
5EA
  8
MyLines
 62
1
 10
46224.0
 20
1.0
 30
0.0
 40
1.0
  1
7695-A
 11
46224.0
 21
1.0
 31
0.0
  0
LINE
  5
5EB
  8
MyLines
 10
46223.0
 20
47.0
 30
0.0
 11
46413.0
 21
47.0
 31
0.0
  0
LINE
  5
5EC
  8
MyLines
 10
46415.0
 20
83.0
 30
0.0
 11
46676.0
 21
83.0
 31
0.0
  0
LINE
  5
5ED
  8
MyLines
 10
46415.0
 20
0.0
 30
0.0
 11
46676.0
 21
0.0
 31
0.0
  0
LINE
  5
5EE
  8
MyLines
 10
46415.0
 20
0.0
 30
0.0
 11
46415.0
 21
83.0
 31
0.0
  0
LINE
  5
5EF
  8
MyLines
 10
46676.0
 20
0.0
 30
0.0
 11
46676.0
 21
83.0
 31
0.0
  0
TEXT
  5
5F0
  8
MyLines
 62
1
 10
46416.0
 20
42.5
 30
0.0
 40
1.0
  1
7696-B
 11
46416.0
 21
42.5
 31
0.0
  0
TEXT
  5
5F1
  8
MyLines
 62
1
 10
46416.0
 20
1.0
 30
0.0
 40
1.0
  1
7696-A
 11
46416.0
 21
1.0
 31
0.0
  0
LINE
  5
5F2
  8
MyLines
 10
46415.0
 20
41.5
 30
0.0
 11
46676.0
 21
41.5
 31
0.0
  0
LINE
  5
5F3
  8
MyLines
 10
46678.0
 20
77.0
 30
0.0
 11
46952.0
 21
77.0
 31
0.0
  0
LINE
  5
5F4
  8
MyLines
 10
46678.0
 20
0.0
 30
0.0
 11
46952.0
 21
0.0
 31
0.0
  0
LINE
  5
5F5
  8
MyLines
 10
46678.0
 20
0.0
 30
0.0
 11
46678.0
 21
77.0
 31
0.0
  0
LINE
  5
5F6
  8
MyLines
 10
46952.0
 20
0.0
 30
0.0
 11
46952.0
 21
77.0
 31
0.0
  0
TEXT
  5
5F7
  8
MyLines
 62
1
 10
46679.0
 20
39.5
 30
0.0
 40
1.0
  1
7697-B
 11
46679.0
 21
39.5
 31
0.0
  0
TEXT
  5
5F8
  8
MyLines
 62
1
 10
46679.0
 20
1.0
 30
0.0
 40
1.0
  1
7697-A
 11
46679.0
 21
1.0
 31
0.0
  0
LINE
  5
5F9
  8
MyLines
 10
46678.0
 20
38.5
 30
0.0
 11
46952.0
 21
38.5
 31
0.0
  0
LINE
  5
5FA
  8
MyLines
 10
46954.0
 20
163.0
 30
0.0
 11
47150.0
 21
163.0
 31
0.0
  0
LINE
  5
5FB
  8
MyLines
 10
46954.0
 20
0.0
 30
0.0
 11
47150.0
 21
0.0
 31
0.0
  0
LINE
  5
5FC
  8
MyLines
 10
46954.0
 20
0.0
 30
0.0
 11
46954.0
 21
163.0
 31
0.0
  0
LINE
  5
5FD
  8
MyLines
 10
47150.0
 20
0.0
 30
0.0
 11
47150.0
 21
163.0
 31
0.0
  0
TEXT
  5
5FE
  8
MyLines
 62
1
 10
46955.0
 20
82.5
 30
0.0
 40
1.0
  1
7698-B
 11
46955.0
 21
82.5
 31
0.0
  0
TEXT
  5
5FF
  8
MyLines
 62
1
 10
46955.0
 20
1.0
 30
0.0
 40
1.0
  1
7698-A
 11
46955.0
 21
1.0
 31
0.0
  0
LINE
  5
600
  8
MyLines
 10
46954.0
 20
81.5
 30
0.0
 11
47150.0
 21
81.5
 31
0.0
  0
LINE
  5
601
  8
MyLines
 10
47152.0
 20
83.0
 30
0.0
 11
47384.0
 21
83.0
 31
0.0
  0
LINE
  5
602
  8
MyLines
 10
47152.0
 20
0.0
 30
0.0
 11
47384.0
 21
0.0
 31
0.0
  0
LINE
  5
603
  8
MyLines
 10
47152.0
 20
0.0
 30
0.0
 11
47152.0
 21
83.0
 31
0.0
  0
LINE
  5
604
  8
MyLines
 10
47384.0
 20
0.0
 30
0.0
 11
47384.0
 21
83.0
 31
0.0
  0
TEXT
  5
605
  8
MyLines
 62
1
 10
47153.0
 20
42.5
 30
0.0
 40
1.0
  1
7699-B
 11
47153.0
 21
42.5
 31
0.0
  0
TEXT
  5
606
  8
MyLines
 62
1
 10
47153.0
 20
1.0
 30
0.0
 40
1.0
  1
7699-A
 11
47153.0
 21
1.0
 31
0.0
  0
LINE
  5
607
  8
MyLines
 10
47152.0
 20
41.5
 30
0.0
 11
47384.0
 21
41.5
 31
0.0
  0
ENDSEC
  0
EOF
