  0
SECTION
  2
HEADER
  9
$ACADVER
  1
AC1009
  9
$DWGCODEPAGE
  3
ANSI_1252
  9
$INSBASE
 10
0.0
 20
0.0
 30
0.0
  9
$EXTMIN
 10
-100
 20
-100
 30
-100
  9
$EXTMAX
 10
100
 20
100
 30
100
  9
$LIMMIN
 10
0.0
 20
0.0
  9
$LIMMAX
 10
420.0
 20
297.0
  9
$ORTHOMODE
 70
0
  9
$REGENMODE
 70
1
  9
$DRAGMODE
 70
2
  9
$FILLMODE
 70
1
  9
$QTEXTMODE
 70
0
  9
$MIRRTEXT
 70
1
  9
$OSMODE
 70
20583
  9
$LTSCALE
 40
1.0
  9
$ATTMODE
 70
1
  9
$TEXTSIZE
 40
2.5
  9
$TRACEWID
 40
1.0
  9
$TEXTSTYLE
  7
OpenSans
  9
$CLAYER
  8
0
  9
$CELTYPE
  6
ByLayer
  9
$CECOLOR
 62
256
  9
$DIMSCALE
 40
1.0
  9
$DIMASZ
 40
0.175
  9
$DIMEXO
 40
0.125
  9
$DIMDLI
 40
3.75
  9
$DIMRND
 40
0.0
  9
$DIMDLE
 40
0.0
  9
$DIMEXE
 40
0.375
  9
$DIMTP
 40
0.0
  9
$DIMTM
 40
0.0
  9
$DIMTXT
 40
0.25
  9
$DIMCEN
 40
2.5
  9
$DIMTSZ
 40
0.0
  9
$DIMTOL
 70
0
  9
$DIMLIM
 70
0
  9
$DIMTIH
 70
0
  9
$DIMTOH
 70
0
  9
$DIMSE1
 70
0
  9
$DIMSE2
 70
0
  9
$DIMTAD
 70
1
  9
$DIMZIN
 70
8
  9
$DIMBLK
  1
ARCHTICK
  9
$DIMASO
 70
1
  9
$DIMSHO
 70
1
  9
$DIMPOST
  1

  9
$DIMAPOST
  1

  9
$DIMALT
 70
0
  9
$DIMALTD
 70
3
  9
$DIMALTF
 40
0.03937007874
  9
$DIMLFAC
 40
100.0
  9
$DIMTOFL
 70
1
  9
$DIMTVP
 40
0.0
  9
$DIMTIX
 70
0
  9
$DIMSOXD
 70
0
  9
$DIMSAH
 70
0
  9
$DIMBLK1
  1

  9
$DIMBLK2
  1

  9
$DIMSTYLE
  2
EZDXF
  9
$DIMCLRD
 70
0
  9
$DIMCLRE
 70
0
  9
$DIMCLRT
 70
0
  9
$DIMTFAC
 40
1.0
  9
$DIMGAP
 40
0.1
  9
$COORDS
 70
1
  9
$ATTDIA
 70
0
  9
$ATTREQ
 70
1
  9
$HANDLING
 70
1
  9
$LUNITS
 70
2
  9
$LUPREC
 70
4
  9
$SKETCHINC
 40
1.0
  9
$FILLETRAD
 40
10.0
  9
$AUNITS
 70
0
  9
$AUPREC
 70
2
  9
$MENU
  1
.
  9
$ELEVATION
 40
0.0
  9
$PELEVATION
 40
0.0
  9
$THICKNESS
 40
0.0
  9
$LIMCHECK
 70
0
  9
$CHAMFERA
 40
0.0
  9
$CHAMFERB
 40
0.0
  9
$SKPOLY
 70
0
  9
$TDCREATE
 40
2458920.471435185
  9
$TDUPDATE
 40
2458920.471435185
  9
$TDINDWG
 40
0.0
  9
$TDUSRTIMER
 40
0.0
  9
$USRTIMER
 70
1
  9
$ANGBASE
 50
0.0
  9
$ANGDIR
 70
0
  9
$PDMODE
 70
0
  9
$PDSIZE
 40
0.0
  9
$PLINEWID
 40
0.0
  9
$SPLFRAME
 70
0
  9
$SPLINETYPE
 70
6
  9
$SPLINESEGS
 70
8
  9
$HANDSEED
  5
608
  9
$SURFTAB1
 70
6
  9
$SURFTAB2
 70
6
  9
$SURFTYPE
 70
6
  9
$SURFU
 70
6
  9
$SURFV
 70
6
  9
$UCSNAME
  2

  9
$UCSORG
 10
0.0
 20
0.0
 30
0.0
  9
$UCSXDIR
 10
1.0
 20
0.0
 30
0.0
  9
$UCSYDIR
 10
0.0
 20
1.0
 30
0.0
  9
$PUCSNAME
  2

  9
$PUCSORG
 10
0.0
 20
0.0
 30
0.0
  9
$PUCSXDIR
 10
1.0
 20
0.0
 30
0.0
  9
$PUCSYDIR
 10
0.0
 20
1.0
 30
0.0
  9
$USERI1
 70
0
  9
$USERI2
 70
0
  9
$USERI3
 70
0
  9
$USERI4
 70
0
  9
$USERI5
 70
0
  9
$USERR1
 40
0.0
  9
$USERR2
 40
0.0
  9
$USERR3
 40
0.0
  9
$USERR4
 40
0.0
  9
$USERR5
 40
0.0
  9
$WORLDVIEW
 70
1
  9
$SHADEDGE
 70
3
  9
$SHADEDIF
 70
70
  9
$TILEMODE
 70
1
  9
$MAXACTVP
 70
64
  9
$PLIMCHECK
 70
0
  9
$PEXTMIN
 10
1e+20
 20
1e+20
 30
1e+20
  9
$PEXTMAX
 10
-1e+20
 20
-1e+20
 30
-1e+20
  9
$PLIMMIN
 10
0.0
 20
0.0
  9
$PLIMMAX
 10
420.0
 20
297.0
  9
$UNITMODE
 70
0
  9
$VISRETAIN
 70
1
  9
$PLINEGEN
 70
0
  9
$PSLTSCALE
 70
1
  0
ENDSEC
  0
SECTION
  2
TABLES
  0
TABLE
  2
VPORT
 70
1
  0
VPORT
  5
23
  2
*Active
 70
0
 10
0.0
 20
0.0
 11
1.0
 21
1.0
 12
70.0
 22
50.0
 13
0.0
 23
0.0
 14
0.5
 24
0.5
 15
0.5
 25
0.5
 16
0.0
 26
0.0
 36
1.0
 17
0.0
 27
0.0
 37
0.0
 40
1.0
 41
1.34
 42
50.0
 43
0.0
 44
0.0
 50
0.0
 51
0.0
 71
0
 72
1000
 73
1
 74
3
 75
0
 76
0
 77
0
 78
0
  0
ENDTAB
  0
TABLE
  2
LTYPE
 70
21
  0
LTYPE
  5
24
  2
ByBlock
 70
0
  3

 72
65
 73
0
 40
0.0
  0
LTYPE
  5
25
  2
ByLayer
 70
0
  3

 72
65
 73
0
 40
0.0
  0
LTYPE
  5
26
  2
Continuous
 70
0
  3

 72
65
 73
0
 40
0.0
  0
LTYPE
  5
2D
  2
CENTER
 70
0
  3
Center ____ _ ____ _ ____ _ ____ _ ____ _ ____
 72
65
 73
4
 40
2.0
 49
1.25
 49
-0.25
 49
0.25
 49
-0.25
  0
LTYPE
  5
2E
  2
CENTERX2
 70
0
  3
Center (2x) ________  __  ________  __  ________
 72
65
 73
4
 40
3.5
 49
2.5
 49
-0.25
 49
0.5
 49
-0.25
  0
LTYPE
  5
2F
  2
CENTER2
 70
0
  3
Center (.5x) ____ _ ____ _ ____ _ ____ _ ____
 72
65
 73
4
 40
1.0
 49
0.625
 49
-0.125
 49
0.125
 49
-0.125
  0
LTYPE
  5
30
  2
DASHED
 70
0
  3
Dashed __ __ __ __ __ __ __ __ __ __ __ __ __ _
 72
65
 73
2
 40
0.6
 49
0.5
 49
-0.1
  0
LTYPE
  5
31
  2
DASHEDX2
 70
0
  3
Dashed (2x) ____  ____  ____  ____  ____  ____
 72
65
 73
2
 40
1.2
 49
1.0
 49
-0.2
  0
LTYPE
  5
32
  2
DASHED2
 70
0
  3
Dashed (.5x) _ _ _ _ _ _ _ _ _ _ _ _ _ _
 72
65
 73
2
 40
0.3
 49
0.25
 49
-0.05
  0
LTYPE
  5
33
  2
PHANTOM
 70
0
  3
Phantom ______  __  __  ______  __  __  ______
 72
65
 73
6
 40
2.5
 49
1.25
 49
-0.25
 49
0.25
 49
-0.25
 49
0.25
 49
-0.25
  0
LTYPE
  5
34
  2
PHANTOMX2
 70
0
  3
Phantom (2x)____________    ____    ____    ____________
 72
65
 73
6
 40
4.25
 49
2.5
 49
-0.25
 49
0.5
 49
-0.25
 49
0.5
 49
-0.25
  0
LTYPE
  5
35
  2
PHANTOM2
 70
0
  3
Phantom (.5x) ___ _ _ ___ _ _ ___ _ _ ___ _ _ ___
 72
65
 73
6
 40
1.25
 49
0.625
 49
-0.125
 49
0.125
 49
-0.125
 49
0.125
 49
-0.125
  0
LTYPE
  5
36
  2
DASHDOT
 70
0
  3
Dash dot __ . __ . __ . __ . __ . __ . __ . __
 72
65
 73
4
 40
1.4
 49
1.0
 49
-0.2
 49
0.0
 49
-0.2
  0
LTYPE
  5
37
  2
DASHDOTX2
 70
0
  3
Dash dot (2x) ____  .  ____  .  ____  .  ____
 72
65
 73
4
 40
2.4
 49
2.0
 49
-0.2
 49
0.0
 49
-0.2
  0
LTYPE
  5
38
  2
DASHDOT2
 70
0
  3
Dash dot (.5x) _ . _ . _ . _ . _ . _ . _ . _
 72
65
 73
4
 40
0.7
 49
0.5
 49
-0.1
 49
0.0
 49
-0.1
  0
LTYPE
  5
39
  2
DOT
 70
0
  3
Dot .  .  .  .  .  .  .  .  .  .  .  .  .  .  .  .
 72
65
 73
2
 40
0.2
 49
0.0
 49
-0.2
  0
LTYPE
  5
3A
  2
DOTX2
 70
0
  3
Dot (2x) .    .    .    .    .    .    .    . 
 72
65
 73
2
 40
0.4
 49
0.0
 49
-0.4
  0
LTYPE
  5
3B
  2
DOT2
 70
0
  3
Dot (.5) . . . . . . . . . . . . . . . . . . . 
 72
65
 73
2
 40
0.1
 49
0.0
 49
-0.1
  0
LTYPE
  5
3C
  2
DIVIDE
 70
0
  3
Divide __ . . __ . . __ . . __ . . __ . . __
 72
65
 73
6
 40
1.6
 49
1.0
 49
-0.2
 49
0.0
 49
-0.2
 49
0.0
 49
-0.2
  0
LTYPE
  5
3D
  2
DIVIDEX2
 70
0
  3
Divide (2x) ____  . .  ____  . .  ____  . .  ____
 72
65
 73
6
 40
2.6
 49
2.0
 49
-0.2
 49
0.0
 49
-0.2
 49
0.0
 49
-0.2
  0
LTYPE
  5
3E
  2
DIVIDE2
 70
0
  3
Divide(.5x) _ . _ . _ . _ . _ . _ . _ . _
 72
65
 73
6
 40
0.8
 49
0.5
 49
-0.1
 49
0.0
 49
-0.1
 49
0.0
 49
-0.1
  0
ENDTAB
  0
TABLE
  2
LAYER
 70
3
  0
LAYER
  5
27
  2
0
 70
0
 62
7
  6
Continuous
  0
LAYER
  5
28
  2
Defpoints
 70
0
 62
7
  6
Continuous
  0
LAYER
  5
8E
  2
MyLines
 70
0
 62
7
  6
Continuous
  0
ENDTAB
  0
TABLE
  2
STYLE
 70
27
  0
STYLE
  5
29
  2
Standard
 70
0
 40
0.0
 41
1.0
 50
0.0
 71
0
 42
2.5
  3
txt
  4

  0
STYLE
  5
3F
  2
OpenSans-Light
 70
0
 40
0.0
 41
1.0
 50
0.0
 71
0
 42
2.5
  3
OpenSans-Light.ttf
  4

  0
STYLE
  5
40
  2
OpenSans-Light-Italic
 70
0
 40
0.0
 41
1.0
 50
0.0
 71
0
 42
2.5
  3
OpenSans-LightItalic.ttf
  4

  0
STYLE
  5
41
  2
OpenSans
 70
0
 40
0.0
 41
1.0
 50
0.0
 71
0
 42
2.5
  3
OpenSans-Regular.ttf
  4

  0
STYLE
  5
42
  2
OpenSans-Italic
 70
0
 40
0.0
 41
1.0
 50
0.0
 71
0
 42
2.5
  3
OpenSans-Italic.ttf
  4

  0
STYLE
  5
43
  2
OpenSans-SemiBold
 70
0
 40
0.0
 41
1.0
 50
0.0
 71
0
 42
2.5
  3
OpenSans-SemiBold.ttf
  4

  0
STYLE
  5
44
  2
OpenSans-SemiBoldItalic
 70
0
 40
0.0
 41
1.0
 50
0.0
 71
0
 42
2.5
  3
OpenSans-SemiBoldItalic.ttf
  4

  0
STYLE
  5
45
  2
OpenSans-Bold
 70
0
 40
0.0
 41
1.0
 50
0.0
 71
0
 42
2.5
  3
OpenSans-Bold.ttf
  4

  0
STYLE
  5
46
  2
OpenSans-BoldItalic
 70
0
 40
0.0
 41
1.0
 50
0.0
 71
0
 42
2.5
  3
OpenSans-BoldItalic.ttf
  4

  0
STYLE
  5
47
  2
OpenSans-ExtraBold
 70
0
 40
0.0
 41
1.0
 50
0.0
 71
0
 42
2.5
  3
OpenSans-ExtraBold.ttf
  4

  0
STYLE
  5
48
  2
OpenSans-ExtraBoldItalic
 70
0
 40
0.0
 41
1.0
 50
0.0
 71
0
 42
2.5
  3
OpenSans-ExtraBoldItalic.ttf
  4

  0
STYLE
  5
49
  2
OpenSansCondensed-Bold
 70
0
 40
0.0
 41
1.0
 50
0.0
 71
0
 42
2.5
  3
OpenSansCondensed-Bold.ttf
  4

  0
STYLE
  5
4A
  2
OpenSansCondensed-Light
 70
0
 40
0.0
 41
1.0
 50
0.0
 71
0
 42
2.5
  3
OpenSansCondensed-Light.ttf
  4

  0
STYLE
  5
4B
  2
OpenSansCondensed-Italic
 70
0
 40
0.0
 41
1.0
 50
0.0
 71
0
 42
2.5
  3
OpenSansCondensed-LightItalic.ttf
  4

  0
STYLE
  5
4C
  2
LiberationSans
 70
0
 40
0.0
 41
1.0
 50
0.0
 71
0
 42
2.5
  3
LiberationSans-Regular.ttf
  4

  0
STYLE
  5
4D
  2
LiberationSans-Bold
 70
0
 40
0.0
 41
1.0
 50
0.0
 71
0
 42
2.5
  3
LiberationSans-Bold.ttf
  4

  0
STYLE
  5
4E
  2
LiberationSans-BoldItalic
 70
0
 40
0.0
 41
1.0
 50
0.0
 71
0
 42
2.5
  3
LiberationSans-BoldItalic.ttf
  4

  0
STYLE
  5
4F
  2
LiberationSans-Italic
 70
0
 40
0.0
 41
1.0
 50
0.0
 71
0
 42
2.5
  3
LiberationSans-Italic.ttf
  4

  0
STYLE
  5
50
  2
LiberationSerif
 70
0
 40
0.0
 41
1.0
 50
0.0
 71
0
 42
2.5
  3
LiberationSerif-Regular.ttf
  4

  0
STYLE
  5
51
  2
LiberationSerif-Bold
 70
0
 40
0.0
 41
1.0
 50
0.0
 71
0
 42
2.5
  3
LiberationSerif-Bold.ttf
  4

  0
STYLE
  5
52
  2
LiberationSerif-BoldItalic
 70
0
 40
0.0
 41
1.0
 50
0.0
 71
0
 42
2.5
  3
LiberationSerif-BoldItalic.ttf
  4

  0
STYLE
  5
53
  2
LiberationSerif-Italic
 70
0
 40
0.0
 41
1.0
 50
0.0
 71
0
 42
2.5
  3
LiberationSerif-Italic.ttf
  4

  0
STYLE
  5
54
  2
LiberationMono
 70
0
 40
0.0
 41
1.0
 50
0.0
 71
0
 42
2.5
  3
LiberationMono-Regular.ttf
  4

  0
STYLE
  5
55
  2
LiberationMono-Bold
 70
0
 40
0.0
 41
1.0
 50
0.0
 71
0
 42
2.5
  3
LiberationMono-Bold.ttf
  4

  0
STYLE
  5
56
  2
LiberationMono-BoldItalic
 70
0
 40
0.0
 41
1.0
 50
0.0
 71
0
 42
2.5
  3
LiberationMono-BoldItalic.ttf
  4

  0
STYLE
  5
57
  2
LiberationMono-Italic
 70
0
 40
0.0
 41
1.0
 50
0.0
 71
0
 42
2.5
  3
LiberationMono-Italic.ttf
  4

  0
STYLE
  5
8F
  2
myStandard2
 70
0
 40
0.0
 41
1.0
 50
0.0
 71
0
 42
2.5
  3
C:\Windows\Fonts\OpenSans-Italic.ttf
  4

  0
ENDTAB
  0
TABLE
  2
VIEW
 70
0
  0
ENDTAB
  0
TABLE
  2
UCS
 70
0
  0
ENDTAB
  0
TABLE
  2
APPID
 70
1
  0
APPID
  5
2A
  2
ACAD
 70
0
  0
ENDTAB
  0
TABLE
  2
DIMSTYLE
 70
11
  0
DIMSTYLE
105
2B
  2
Standard
 70
0
  3

  4

  5

  6

  7

 40
1.0
 41
2.5
 42
0.625
 43
3.75
 44
1.25
 45
0.0
 46
0.0
 47
0.0
 48
0.0
140
2.5
141
2.5
142
0.0
143
0.03937007874
144
1.0
145
0.0
146
1.0
147
0.625
 71
0
 72
0
 73
0
 74
0
 75
0
 76
0
 77
1
 78
8
170
0
171
3
172
1
173
0
174
0
175
0
176
0
177
0
178
0
  0
DIMSTYLE
105
71
  2
EZDXF
 70
0
  3

  4

  5
ARCHTICK
  6

  7

 40
1.0
 41
0.175
 42
0.125
 43
3.75
 44
0.375
 45
0.0
 46
0.0
 47
0.0
 48
0.0
140
0.25
141
2.5
142
0.0
143
0.03937007874
144
100.0
145
0.0
146
1.0
147
0.1
 71
0
 72
0
 73
0
 74
0
 75
0
 76
0
 77
1
 78
8
170
0
171
3
172
1
173
0
174
0
175
0
176
0
177
0
178
0
  0
DIMSTYLE
105
7D
  2
EZ_M_100_H25_CM
 70
0
  3

  4

  5

  6

  7

 40
1.0
 41
0.25
 42
0.125
 43
3.75
 44
0.375
 45
0.0
 46
0.0
 47
0.0
 48
0.0
140
0.25
141
2.5
142
0.125
143
0.03937007874
144
100.0
145
0.0
146
1.0
147
0.1
 71
0
 72
0
 73
0
 74
0
 75
0
 76
0
 77
1
 78
8
170
0
171
3
172
1
173
0
174
0
175
0
176
0
177
0
178
0
  0
DIMSTYLE
105
7E
  2
EZ_M_50_H25_CM
 70
0
  3

  4

  5

  6

  7

 40
1.0
 41
0.125
 42
0.0625
 43
3.75
 44
0.1875
 45
0.0
 46
0.0
 47
0.0
 48
0.0
140
0.125
141
2.5
142
0.0625
143
0.03937007874
144
100.0
145
0.0
146
1.0
147
0.05
 71
0
 72
0
 73
0
 74
0
 75
0
 76
0
 77
1
 78
8
170
0
171
3
172
1
173
0
174
0
175
0
176
0
177
0
178
0
  0
DIMSTYLE
105
7F
  2
EZ_M_25_H25_CM
 70
0
  3

  4

  5

  6

  7

 40
1.0
 41
0.0625
 42
0.03125
 43
3.75
 44
0.09375
 45
0.0
 46
0.0
 47
0.0
 48
0.0
140
0.0625
141
2.5
142
0.03125
143
0.03937007874
144
100.0
145
0.0
146
1.0
147
0.025
 71
0
 72
0
 73
0
 74
0
 75
0
 76
0
 77
1
 78
8
170
0
171
3
172
1
173
0
174
0
175
0
176
0
177
0
178
0
  0
DIMSTYLE
105
80
  2
EZ_M_20_H25_CM
 70
0
  3

  4

  5

  6

  7

 40
1.0
 41
0.05
 42
0.025
 43
3.75
 44
0.07500000000000001
 45
0.0
 46
0.0
 47
0.0
 48
0.0
140
0.05
141
2.5
142
0.025
143
0.03937007874
144
100.0
145
0.0
146
1.0
147
0.020000000000000004
 71
0
 72
0
 73
0
 74
0
 75
0
 76
0
 77
1
 78
8
170
0
171
3
172
1
173
0
174
0
175
0
176
0
177
0
178
0
  0
DIMSTYLE
105
81
  2
EZ_M_10_H25_CM
 70
0
  3

  4

  5

  6

  7

 40
1.0
 41
0.025
 42
0.0125
 43
3.75
 44
0.037500000000000006
 45
0.0
 46
0.0
 47
0.0
 48
0.0
140
0.025
141
2.5
142
0.0125
143
0.03937007874
144
100.0
145
0.0
146
1.0
147
0.010000000000000002
 71
0
 72
0
 73
0
 74
0
 75
0
 76
0
 77
1
 78
8
170
0
171
3
172
1
173
0
174
0
175
0
176
0
177
0
178
0
  0
DIMSTYLE
105
82
  2
EZ_M_5_H25_CM
 70
0
  3

  4

  5

  6

  7

 40
1.0
 41
0.0125
 42
0.00625
 43
3.75
 44
0.018750000000000003
 45
0.0
 46
0.0
 47
0.0
 48
0.0
140
0.0125
141
2.5
142
0.00625
143
0.03937007874
144
100.0
145
0.0
146
1.0
147
0.005000000000000001
 71
0
 72
0
 73
0
 74
0
 75
0
 76
0
 77
1
 78
8
170
0
171
3
172
1
173
0
174
0
175
0
176
0
177
0
178
0
  0
DIMSTYLE
105
83
  2
EZ_M_1_H25_CM
 70
0
  3

  4

  5

  6

  7

 40
1.0
 41
0.0025
 42
0.00125
 43
3.75
 44
0.00375
 45
0.0
 46
0.0
 47
0.0
 48
0.0
140
0.0025
141
2.5
142
0.00125
143
0.03937007874
144
100.0
145
0.0
146
1.0
147
0.001
 71
0
 72
0
 73
0
 74
0
 75
0
 76
0
 77
1
 78
8
170
0
171
3
172
1
173
0
174
0
175
0
176
0
177
0
178
0
  0
DIMSTYLE
105
84
  2
EZ_RADIUS
 70
0
  3

  4

  5
CLOSEDBLANK
  6

  7

 40
1.0
 41
0.25
 42
0.125
 43
3.75
 44
0.375
 45
0.0
 46
0.0
 47
0.0
 48
0.0
140
0.25
141
0.0
142
0.0
143
0.03937007874
144
100.0
145
0.0
146
1.0
147
0.1
 71
0
 72
0
 73
0
 74
0
 75
0
 76
0
 77
1
 78
8
170
0
171
3
172
0
173
0
174
0
175
0
176
0
177
0
178
0
  0
DIMSTYLE
105
8D
  2
EZ_RADIUS_INSIDE
 70
0
  3

  4

  5
CLOSEDBLANK
  6

  7

 40
1.0
 41
0.25
 42
0.125
 43
3.75
 44
0.375
 45
0.0
 46
0.0
 47
0.0
 48
0.0
140
0.25
141
0.0
142
0.0
143
0.03937007874
144
100.0
145
0.0
146
1.0
147
0.1
 71
0
 72
0
 73
0
 74
0
 75
0
 76
0
 77
0
 78
8
170
0
171
3
172
0
173
0
174
1
175
0
176
0
177
0
178
0
  0
ENDTAB
  0
ENDSEC
  0
SECTION
  2
BLOCKS
  0
BLOCK
  5
18
  8
0
  2
$Model_Space
 70
0
 10
0.0
 20
0.0
 30
0.0
  3
$Model_Space
  1

  0
ENDBLK
  5
19
  8
0
  0
BLOCK
  5
1C
  8
0
  2
$Paper_Space
 70
0
 10
0.0
 20
0.0
 30
0.0
  3
$Paper_Space
  1

  0
ENDBLK
  5
1D
  8
0
  0
BLOCK
  5
73
  8
0
  2
_ARCHTICK
 70
0
 10
0.0
 20
0.0
 30
0.0
  3
_ARCHTICK
  1

  0
POLYLINE
  5
75
  8
0
  6
BYBLOCK
 62
0
 66
1
 70
0
 40
0.15
 41
0.15
  0
VERTEX
  5
77
  8
0
  6
BYBLOCK
 10
-0.5
 20
-0.5000000000000001
 30
0.0
 70
0
  0
VERTEX
  5
78
  8
0
  6
BYBLOCK
 10
0.5000000000000001
 20
0.5000000000000001
 30
0.0
 70
0
  0
SEQEND
  5
76
  8
0
  0
ENDBLK
  5
74
  8
0
  0
BLOCK
  5
7A
  8
0
  2
_CLOSEDFILLED
 70
0
 10
0.0
 20
0.0
 30
0.0
  3
_CLOSEDFILLED
  1

  0
SOLID
  5
7C
  8
0
  6
BYBLOCK
 62
0
 10
-1.0
 20
0.1643989837240255
 30
0.0
 11
0.0
 21
0.0
 31
0.0
 12
-1.0
 22
-0.1643989837240255
 32
0.0
 13
-1.0
 23
-0.1643989837240255
 33
0.0
  0
ENDBLK
  5
7B
  8
0
  0
BLOCK
  5
86
  8
0
  2
_CLOSEDBLANK
 70
0
 10
0.0
 20
0.0
 30
0.0
  3
_CLOSEDBLANK
  1

  0
POLYLINE
  5
88
  8
0
  6
BYBLOCK
 62
0
 66
1
 70
1
  0
VERTEX
  5
8A
  8
0
  6
BYBLOCK
 10
-1.0
 20
0.1643989837240255
 30
0.0
 70
0
  0
VERTEX
  5
8B
  8
0
  6
BYBLOCK
 10
0.0
 20
0.0
 30
0.0
 70
0
  0
VERTEX
  5
8C
  8
0
  6
BYBLOCK
 10
-1.0
 20
-0.1643989837240255
 30
0.0
 70
0
  0
SEQEND
  5
89
  8
0
  0
ENDBLK
  5
87
  8
0
  0
ENDSEC
  0
SECTION
  2
ENTITIES
  0
LINE
  5
90
  8
MyLines
 10
0.0
 20
78.0
 30
0.0
 11
450.0
 21
78.0
 31
0.0
  0
LINE
  5
91
  8
MyLines
 10
0.0
 20
0.0
 30
0.0
 11
450.0
 21
0.0
 31
0.0
  0
LINE
  5
92
  8
MyLines
 10
0.0
 20
0.0
 30
0.0
 11
0.0
 21
78.0
 31
0.0
  0
LINE
  5
93
  8
MyLines
 10
450.0
 20
0.0
 30
0.0
 11
450.0
 21
78.0
 31
0.0
  0
TEXT
  5
94
  8
MyLines
 62
1
 10
1.0
 20
79.0
 30
0.0
 40
1.0
  1
7500-B
 11
1.0
 21
79.0
 31
0.0
  0
TEXT
  5
95
  8
MyLines
 62
1
 10
1.0
 20
1.0
 30
0.0
 40
1.0
  1
7500-A
 11
1.0
 21
1.0
 31
0.0
  0
LINE
  5
96
  8
MyLines
 10
0.0
 20
78.0
 30
0.0
 11
225.0
 21
78.0
 31
0.0
  0
LINE
  5
97
  8
MyLines
 10
227.0
 20
47.5
 30
0.0
 11
633.0
 21
47.5
 31
0.0
  0
LINE
  5
98
  8
MyLines
 10
227.0
 20
0.0
 30
0.0
 11
633.0
 21
0.0
 31
0.0
  0
LINE
  5
99
  8
MyLines
 10
227.0
 20
0.0
 30
0.0
 11
227.0
 21
47.5
 31
0.0
  0
LINE
  5
9A
  8
MyLines
 10
633.0
 20
0.0
 30
0.0
 11
633.0
 21
47.5
 31
0.0
  0
TEXT
  5
9B
  8
MyLines
 62
1
 10
228.0
 20
48.5
 30
0.0
 40
1.0
  1
7501-B
 11
228.0
 21
48.5
 31
0.0
  0
TEXT
  5
9C
  8
MyLines
 62
1
 10
228.0
 20
1.0
 30
0.0
 40
1.0
  1
7501-A
 11
228.0
 21
1.0
 31
0.0
  0
LINE
  5
9D
  8
MyLines
 10
227.0
 20
47.5
 30
0.0
 11
430.0
 21
47.5
 31
0.0
  0
LINE
  5
9E
  8
MyLines
 10
432.0
 20
35.0
 30
0.0
 11
842.0
 21
35.0
 31
0.0
  0
LINE
  5
9F
  8
MyLines
 10
432.0
 20
0.0
 30
0.0
 11
842.0
 21
0.0
 31
0.0
  0
LINE
  5
A0
  8
MyLines
 10
432.0
 20
0.0
 30
0.0
 11
432.0
 21
35.0
 31
0.0
  0
LINE
  5
A1
  8
MyLines
 10
842.0
 20
0.0
 30
0.0
 11
842.0
 21
35.0
 31
0.0
  0
TEXT
  5
A2
  8
MyLines
 62
1
 10
433.0
 20
36.0
 30
0.0
 40
1.0
  1
7502-B
 11
433.0
 21
36.0
 31
0.0
  0
TEXT
  5
A3
  8
MyLines
 62
1
 10
433.0
 20
1.0
 30
0.0
 40
1.0
  1
7502-A
 11
433.0
 21
1.0
 31
0.0
  0
LINE
  5
A4
  8
MyLines
 10
432.0
 20
35.0
 30
0.0
 11
637.0
 21
35.0
 31
0.0
  0
LINE
  5
A5
  8
MyLines
 10
639.0
 20
70.5
 30
0.0
 11
1173.0
 21
70.5
 31
0.0
  0
LINE
  5
A6
  8
MyLines
 10
639.0
 20
0.0
 30
0.0
 11
1173.0
 21
0.0
 31
0.0
  0
LINE
  5
A7
  8
MyLines
 10
639.0
 20
0.0
 30
0.0
 11
639.0
 21
70.5
 31
0.0
  0
LINE
  5
A8
  8
MyLines
 10
1173.0
 20
0.0
 30
0.0
 11
1173.0
 21
70.5
 31
0.0
  0
TEXT
  5
A9
  8
MyLines
 62
1
 10
640.0
 20
71.5
 30
0.0
 40
1.0
  1
7503-B
 11
640.0
 21
71.5
 31
0.0
  0
TEXT
  5
AA
  8
MyLines
 62
1
 10
640.0
 20
1.0
 30
0.0
 40
1.0
  1
7503-A
 11
640.0
 21
1.0
 31
0.0
  0
LINE
  5
AB
  8
MyLines
 10
639.0
 20
70.5
 30
0.0
 11
906.0
 21
70.5
 31
0.0
  0
LINE
  5
AC
  8
MyLines
 10
908.0
 20
51.0
 30
0.0
 11
1336.0
 21
51.0
 31
0.0
  0
LINE
  5
AD
  8
MyLines
 10
908.0
 20
0.0
 30
0.0
 11
1336.0
 21
0.0
 31
0.0
  0
LINE
  5
AE
  8
MyLines
 10
908.0
 20
0.0
 30
0.0
 11
908.0
 21
51.0
 31
0.0
  0
LINE
  5
AF
  8
MyLines
 10
1336.0
 20
0.0
 30
0.0
 11
1336.0
 21
51.0
 31
0.0
  0
TEXT
  5
B0
  8
MyLines
 62
1
 10
909.0
 20
52.0
 30
0.0
 40
1.0
  1
7504-B
 11
909.0
 21
52.0
 31
0.0
  0
TEXT
  5
B1
  8
MyLines
 62
1
 10
909.0
 20
1.0
 30
0.0
 40
1.0
  1
7504-A
 11
909.0
 21
1.0
 31
0.0
  0
LINE
  5
B2
  8
MyLines
 10
908.0
 20
51.0
 30
0.0
 11
1122.0
 21
51.0
 31
0.0
  0
LINE
  5
B3
  8
MyLines
 10
1124.0
 20
70.5
 30
0.0
 11
1626.0
 21
70.5
 31
0.0
  0
LINE
  5
B4
  8
MyLines
 10
1124.0
 20
0.0
 30
0.0
 11
1626.0
 21
0.0
 31
0.0
  0
LINE
  5
B5
  8
MyLines
 10
1124.0
 20
0.0
 30
0.0
 11
1124.0
 21
70.5
 31
0.0
  0
LINE
  5
B6
  8
MyLines
 10
1626.0
 20
0.0
 30
0.0
 11
1626.0
 21
70.5
 31
0.0
  0
TEXT
  5
B7
  8
MyLines
 62
1
 10
1125.0
 20
71.5
 30
0.0
 40
1.0
  1
7505-B
 11
1125.0
 21
71.5
 31
0.0
  0
TEXT
  5
B8
  8
MyLines
 62
1
 10
1125.0
 20
1.0
 30
0.0
 40
1.0
  1
7505-A
 11
1125.0
 21
1.0
 31
0.0
  0
LINE
  5
B9
  8
MyLines
 10
1124.0
 20
70.5
 30
0.0
 11
1375.0
 21
70.5
 31
0.0
  0
LINE
  5
BA
  8
MyLines
 10
1377.0
 20
58.0
 30
0.0
 11
1953.0
 21
58.0
 31
0.0
  0
LINE
  5
BB
  8
MyLines
 10
1377.0
 20
0.0
 30
0.0
 11
1953.0
 21
0.0
 31
0.0
  0
LINE
  5
BC
  8
MyLines
 10
1377.0
 20
0.0
 30
0.0
 11
1377.0
 21
58.0
 31
0.0
  0
LINE
  5
BD
  8
MyLines
 10
1953.0
 20
0.0
 30
0.0
 11
1953.0
 21
58.0
 31
0.0
  0
TEXT
  5
BE
  8
MyLines
 62
1
 10
1378.0
 20
59.0
 30
0.0
 40
1.0
  1
7506-B
 11
1378.0
 21
59.0
 31
0.0
  0
TEXT
  5
BF
  8
MyLines
 62
1
 10
1378.0
 20
1.0
 30
0.0
 40
1.0
  1
7506-A
 11
1378.0
 21
1.0
 31
0.0
  0
LINE
  5
C0
  8
MyLines
 10
1377.0
 20
58.0
 30
0.0
 11
1665.0
 21
58.0
 31
0.0
  0
LINE
  5
C1
  8
MyLines
 10
1667.0
 20
43.0
 30
0.0
 11
2063.0
 21
43.0
 31
0.0
  0
LINE
  5
C2
  8
MyLines
 10
1667.0
 20
0.0
 30
0.0
 11
2063.0
 21
0.0
 31
0.0
  0
LINE
  5
C3
  8
MyLines
 10
1667.0
 20
0.0
 30
0.0
 11
1667.0
 21
43.0
 31
0.0
  0
LINE
  5
C4
  8
MyLines
 10
2063.0
 20
0.0
 30
0.0
 11
2063.0
 21
43.0
 31
0.0
  0
TEXT
  5
C5
  8
MyLines
 62
1
 10
1668.0
 20
44.0
 30
0.0
 40
1.0
  1
7507-B
 11
1668.0
 21
44.0
 31
0.0
  0
TEXT
  5
C6
  8
MyLines
 62
1
 10
1668.0
 20
1.0
 30
0.0
 40
1.0
  1
7507-A
 11
1668.0
 21
1.0
 31
0.0
  0
LINE
  5
C7
  8
MyLines
 10
1667.0
 20
43.0
 30
0.0
 11
1865.0
 21
43.0
 31
0.0
  0
LINE
  5
C8
  8
MyLines
 10
1867.0
 20
37.0
 30
0.0
 11
2253.0
 21
37.0
 31
0.0
  0
LINE
  5
C9
  8
MyLines
 10
1867.0
 20
0.0
 30
0.0
 11
2253.0
 21
0.0
 31
0.0
  0
LINE
  5
CA
  8
MyLines
 10
1867.0
 20
0.0
 30
0.0
 11
1867.0
 21
37.0
 31
0.0
  0
LINE
  5
CB
  8
MyLines
 10
2253.0
 20
0.0
 30
0.0
 11
2253.0
 21
37.0
 31
0.0
  0
TEXT
  5
CC
  8
MyLines
 62
1
 10
1868.0
 20
38.0
 30
0.0
 40
1.0
  1
7508-B
 11
1868.0
 21
38.0
 31
0.0
  0
TEXT
  5
CD
  8
MyLines
 62
1
 10
1868.0
 20
1.0
 30
0.0
 40
1.0
  1
7508-A
 11
1868.0
 21
1.0
 31
0.0
  0
LINE
  5
CE
  8
MyLines
 10
1867.0
 20
37.0
 30
0.0
 11
2060.0
 21
37.0
 31
0.0
  0
LINE
  5
CF
  8
MyLines
 10
2062.0
 20
44.5
 30
0.0
 11
2522.0
 21
44.5
 31
0.0
  0
LINE
  5
D0
  8
MyLines
 10
2062.0
 20
0.0
 30
0.0
 11
2522.0
 21
0.0
 31
0.0
  0
LINE
  5
D1
  8
MyLines
 10
2062.0
 20
0.0
 30
0.0
 11
2062.0
 21
44.5
 31
0.0
  0
LINE
  5
D2
  8
MyLines
 10
2522.0
 20
0.0
 30
0.0
 11
2522.0
 21
44.5
 31
0.0
  0
TEXT
  5
D3
  8
MyLines
 62
1
 10
2063.0
 20
45.5
 30
0.0
 40
1.0
  1
7509-B
 11
2063.0
 21
45.5
 31
0.0
  0
TEXT
  5
D4
  8
MyLines
 62
1
 10
2063.0
 20
1.0
 30
0.0
 40
1.0
  1
7509-A
 11
2063.0
 21
1.0
 31
0.0
  0
LINE
  5
D5
  8
MyLines
 10
2062.0
 20
44.5
 30
0.0
 11
2292.0
 21
44.5
 31
0.0
  0
LINE
  5
D6
  8
MyLines
 10
2294.0
 20
56.5
 30
0.0
 11
2706.0
 21
56.5
 31
0.0
  0
LINE
  5
D7
  8
MyLines
 10
2294.0
 20
0.0
 30
0.0
 11
2706.0
 21
0.0
 31
0.0
  0
LINE
  5
D8
  8
MyLines
 10
2294.0
 20
0.0
 30
0.0
 11
2294.0
 21
56.5
 31
0.0
  0
LINE
  5
D9
  8
MyLines
 10
2706.0
 20
0.0
 30
0.0
 11
2706.0
 21
56.5
 31
0.0
  0
TEXT
  5
DA
  8
MyLines
 62
1
 10
2295.0
 20
57.5
 30
0.0
 40
1.0
  1
7510-B
 11
2295.0
 21
57.5
 31
0.0
  0
TEXT
  5
DB
  8
MyLines
 62
1
 10
2295.0
 20
1.0
 30
0.0
 40
1.0
  1
7510-A
 11
2295.0
 21
1.0
 31
0.0
  0
LINE
  5
DC
  8
MyLines
 10
2294.0
 20
56.5
 30
0.0
 11
2500.0
 21
56.5
 31
0.0
  0
LINE
  5
DD
  8
MyLines
 10
2502.0
 20
59.0
 30
0.0
 11
2930.0
 21
59.0
 31
0.0
  0
LINE
  5
DE
  8
MyLines
 10
2502.0
 20
0.0
 30
0.0
 11
2930.0
 21
0.0
 31
0.0
  0
LINE
  5
DF
  8
MyLines
 10
2502.0
 20
0.0
 30
0.0
 11
2502.0
 21
59.0
 31
0.0
  0
LINE
  5
E0
  8
MyLines
 10
2930.0
 20
0.0
 30
0.0
 11
2930.0
 21
59.0
 31
0.0
  0
TEXT
  5
E1
  8
MyLines
 62
1
 10
2503.0
 20
60.0
 30
0.0
 40
1.0
  1
7511-B
 11
2503.0
 21
60.0
 31
0.0
  0
TEXT
  5
E2
  8
MyLines
 62
1
 10
2503.0
 20
1.0
 30
0.0
 40
1.0
  1
7511-A
 11
2503.0
 21
1.0
 31
0.0
  0
LINE
  5
E3
  8
MyLines
 10
2502.0
 20
59.0
 30
0.0
 11
2716.0
 21
59.0
 31
0.0
  0
LINE
  5
E4
  8
MyLines
 10
2718.0
 20
76.5
 30
0.0
 11
3142.0
 21
76.5
 31
0.0
  0
LINE
  5
E5
  8
MyLines
 10
2718.0
 20
0.0
 30
0.0
 11
3142.0
 21
0.0
 31
0.0
  0
LINE
  5
E6
  8
MyLines
 10
2718.0
 20
0.0
 30
0.0
 11
2718.0
 21
76.5
 31
0.0
  0
LINE
  5
E7
  8
MyLines
 10
3142.0
 20
0.0
 30
0.0
 11
3142.0
 21
76.5
 31
0.0
  0
TEXT
  5
E8
  8
MyLines
 62
1
 10
2719.0
 20
77.5
 30
0.0
 40
1.0
  1
7512-B
 11
2719.0
 21
77.5
 31
0.0
  0
TEXT
  5
E9
  8
MyLines
 62
1
 10
2719.0
 20
1.0
 30
0.0
 40
1.0
  1
7512-A
 11
2719.0
 21
1.0
 31
0.0
  0
LINE
  5
EA
  8
MyLines
 10
2718.0
 20
76.5
 30
0.0
 11
2930.0
 21
76.5
 31
0.0
  0
LINE
  5
EB
  8
MyLines
 10
2932.0
 20
84.5
 30
0.0
 11
3422.0
 21
84.5
 31
0.0
  0
LINE
  5
EC
  8
MyLines
 10
2932.0
 20
0.0
 30
0.0
 11
3422.0
 21
0.0
 31
0.0
  0
LINE
  5
ED
  8
MyLines
 10
2932.0
 20
0.0
 30
0.0
 11
2932.0
 21
84.5
 31
0.0
  0
LINE
  5
EE
  8
MyLines
 10
3422.0
 20
0.0
 30
0.0
 11
3422.0
 21
84.5
 31
0.0
  0
TEXT
  5
EF
  8
MyLines
 62
1
 10
2933.0
 20
85.5
 30
0.0
 40
1.0
  1
7513-B
 11
2933.0
 21
85.5
 31
0.0
  0
TEXT
  5
F0
  8
MyLines
 62
1
 10
2933.0
 20
1.0
 30
0.0
 40
1.0
  1
7513-A
 11
2933.0
 21
1.0
 31
0.0
  0
LINE
  5
F1
  8
MyLines
 10
2932.0
 20
84.5
 30
0.0
 11
3177.0
 21
84.5
 31
0.0
  0
LINE
  5
F2
  8
MyLines
 10
3179.0
 20
87.5
 30
0.0
 11
3575.0
 21
87.5
 31
0.0
  0
LINE
  5
F3
  8
MyLines
 10
3179.0
 20
0.0
 30
0.0
 11
3575.0
 21
0.0
 31
0.0
  0
LINE
  5
F4
  8
MyLines
 10
3179.0
 20
0.0
 30
0.0
 11
3179.0
 21
87.5
 31
0.0
  0
LINE
  5
F5
  8
MyLines
 10
3575.0
 20
0.0
 30
0.0
 11
3575.0
 21
87.5
 31
0.0
  0
TEXT
  5
F6
  8
MyLines
 62
1
 10
3180.0
 20
88.5
 30
0.0
 40
1.0
  1
7514-B
 11
3180.0
 21
88.5
 31
0.0
  0
TEXT
  5
F7
  8
MyLines
 62
1
 10
3180.0
 20
1.0
 30
0.0
 40
1.0
  1
7514-A
 11
3180.0
 21
1.0
 31
0.0
  0
LINE
  5
F8
  8
MyLines
 10
3179.0
 20
87.5
 30
0.0
 11
3377.0
 21
87.5
 31
0.0
  0
LINE
  5
F9
  8
MyLines
 10
3379.0
 20
83.5
 30
0.0
 11
3751.0
 21
83.5
 31
0.0
  0
LINE
  5
FA
  8
MyLines
 10
3379.0
 20
0.0
 30
0.0
 11
3751.0
 21
0.0
 31
0.0
  0
LINE
  5
FB
  8
MyLines
 10
3379.0
 20
0.0
 30
0.0
 11
3379.0
 21
83.5
 31
0.0
  0
LINE
  5
FC
  8
MyLines
 10
3751.0
 20
0.0
 30
0.0
 11
3751.0
 21
83.5
 31
0.0
  0
TEXT
  5
FD
  8
MyLines
 62
1
 10
3380.0
 20
84.5
 30
0.0
 40
1.0
  1
7515-B
 11
3380.0
 21
84.5
 31
0.0
  0
TEXT
  5
FE
  8
MyLines
 62
1
 10
3380.0
 20
1.0
 30
0.0
 40
1.0
  1
7515-A
 11
3380.0
 21
1.0
 31
0.0
  0
LINE
  5
FF
  8
MyLines
 10
3379.0
 20
83.5
 30
0.0
 11
3565.0
 21
83.5
 31
0.0
  0
LINE
  5
100
  8
MyLines
 10
3567.0
 20
72.5
 30
0.0
 11
4001.0
 21
72.5
 31
0.0
  0
LINE
  5
101
  8
MyLines
 10
3567.0
 20
0.0
 30
0.0
 11
4001.0
 21
0.0
 31
0.0
  0
LINE
  5
102
  8
MyLines
 10
3567.0
 20
0.0
 30
0.0
 11
3567.0
 21
72.5
 31
0.0
  0
LINE
  5
103
  8
MyLines
 10
4001.0
 20
0.0
 30
0.0
 11
4001.0
 21
72.5
 31
0.0
  0
TEXT
  5
104
  8
MyLines
 62
1
 10
3568.0
 20
73.5
 30
0.0
 40
1.0
  1
7516-B
 11
3568.0
 21
73.5
 31
0.0
  0
TEXT
  5
105
  8
MyLines
 62
1
 10
3568.0
 20
1.0
 30
0.0
 40
1.0
  1
7516-A
 11
3568.0
 21
1.0
 31
0.0
  0
LINE
  5
106
  8
MyLines
 10
3567.0
 20
72.5
 30
0.0
 11
3784.0
 21
72.5
 31
0.0
  0
LINE
  5
107
  8
MyLines
 10
3786.0
 20
58.0
 30
0.0
 11
4266.0
 21
58.0
 31
0.0
  0
LINE
  5
108
  8
MyLines
 10
3786.0
 20
0.0
 30
0.0
 11
4266.0
 21
0.0
 31
0.0
  0
LINE
  5
109
  8
MyLines
 10
3786.0
 20
0.0
 30
0.0
 11
3786.0
 21
58.0
 31
0.0
  0
LINE
  5
10A
  8
MyLines
 10
4266.0
 20
0.0
 30
0.0
 11
4266.0
 21
58.0
 31
0.0
  0
TEXT
  5
10B
  8
MyLines
 62
1
 10
3787.0
 20
59.0
 30
0.0
 40
1.0
  1
7517-B
 11
3787.0
 21
59.0
 31
0.0
  0
TEXT
  5
10C
  8
MyLines
 62
1
 10
3787.0
 20
1.0
 30
0.0
 40
1.0
  1
7517-A
 11
3787.0
 21
1.0
 31
0.0
  0
LINE
  5
10D
  8
MyLines
 10
3786.0
 20
58.0
 30
0.0
 11
4026.0
 21
58.0
 31
0.0
  0
LINE
  5
10E
  8
MyLines
 10
4028.0
 20
65.0
 30
0.0
 11
4460.0
 21
65.0
 31
0.0
  0
LINE
  5
10F
  8
MyLines
 10
4028.0
 20
0.0
 30
0.0
 11
4460.0
 21
0.0
 31
0.0
  0
LINE
  5
110
  8
MyLines
 10
4028.0
 20
0.0
 30
0.0
 11
4028.0
 21
65.0
 31
0.0
  0
LINE
  5
111
  8
MyLines
 10
4460.0
 20
0.0
 30
0.0
 11
4460.0
 21
65.0
 31
0.0
  0
TEXT
  5
112
  8
MyLines
 62
1
 10
4029.0
 20
66.0
 30
0.0
 40
1.0
  1
7518-B
 11
4029.0
 21
66.0
 31
0.0
  0
TEXT
  5
113
  8
MyLines
 62
1
 10
4029.0
 20
1.0
 30
0.0
 40
1.0
  1
7518-A
 11
4029.0
 21
1.0
 31
0.0
  0
LINE
  5
114
  8
MyLines
 10
4028.0
 20
65.0
 30
0.0
 11
4244.0
 21
65.0
 31
0.0
  0
LINE
  5
115
  8
MyLines
 10
4246.0
 20
67.0
 30
0.0
 11
4752.0
 21
67.0
 31
0.0
  0
LINE
  5
116
  8
MyLines
 10
4246.0
 20
0.0
 30
0.0
 11
4752.0
 21
0.0
 31
0.0
  0
LINE
  5
117
  8
MyLines
 10
4246.0
 20
0.0
 30
0.0
 11
4246.0
 21
67.0
 31
0.0
  0
LINE
  5
118
  8
MyLines
 10
4752.0
 20
0.0
 30
0.0
 11
4752.0
 21
67.0
 31
0.0
  0
TEXT
  5
119
  8
MyLines
 62
1
 10
4247.0
 20
68.0
 30
0.0
 40
1.0
  1
7519-B
 11
4247.0
 21
68.0
 31
0.0
  0
TEXT
  5
11A
  8
MyLines
 62
1
 10
4247.0
 20
1.0
 30
0.0
 40
1.0
  1
7519-A
 11
4247.0
 21
1.0
 31
0.0
  0
LINE
  5
11B
  8
MyLines
 10
4246.0
 20
67.0
 30
0.0
 11
4499.0
 21
67.0
 31
0.0
  0
LINE
  5
11C
  8
MyLines
 10
4501.0
 20
56.0
 30
0.0
 11
4853.0
 21
56.0
 31
0.0
  0
LINE
  5
11D
  8
MyLines
 10
4501.0
 20
0.0
 30
0.0
 11
4853.0
 21
0.0
 31
0.0
  0
LINE
  5
11E
  8
MyLines
 10
4501.0
 20
0.0
 30
0.0
 11
4501.0
 21
56.0
 31
0.0
  0
LINE
  5
11F
  8
MyLines
 10
4853.0
 20
0.0
 30
0.0
 11
4853.0
 21
56.0
 31
0.0
  0
TEXT
  5
120
  8
MyLines
 62
1
 10
4502.0
 20
57.0
 30
0.0
 40
1.0
  1
7520-B
 11
4502.0
 21
57.0
 31
0.0
  0
TEXT
  5
121
  8
MyLines
 62
1
 10
4502.0
 20
1.0
 30
0.0
 40
1.0
  1
7520-A
 11
4502.0
 21
1.0
 31
0.0
  0
LINE
  5
122
  8
MyLines
 10
4501.0
 20
56.0
 30
0.0
 11
4677.0
 21
56.0
 31
0.0
  0
LINE
  5
123
  8
MyLines
 10
4679.0
 20
37.0
 30
0.0
 11
5059.0
 21
37.0
 31
0.0
  0
LINE
  5
124
  8
MyLines
 10
4679.0
 20
0.0
 30
0.0
 11
5059.0
 21
0.0
 31
0.0
  0
LINE
  5
125
  8
MyLines
 10
4679.0
 20
0.0
 30
0.0
 11
4679.0
 21
37.0
 31
0.0
  0
LINE
  5
126
  8
MyLines
 10
5059.0
 20
0.0
 30
0.0
 11
5059.0
 21
37.0
 31
0.0
  0
TEXT
  5
127
  8
MyLines
 62
1
 10
4680.0
 20
38.0
 30
0.0
 40
1.0
  1
7521-B
 11
4680.0
 21
38.0
 31
0.0
  0
TEXT
  5
128
  8
MyLines
 62
1
 10
4680.0
 20
1.0
 30
0.0
 40
1.0
  1
7521-A
 11
4680.0
 21
1.0
 31
0.0
  0
LINE
  5
129
  8
MyLines
 10
4679.0
 20
37.0
 30
0.0
 11
4869.0
 21
37.0
 31
0.0
  0
LINE
  5
12A
  8
MyLines
 10
4871.0
 20
44.0
 30
0.0
 11
5379.0
 21
44.0
 31
0.0
  0
LINE
  5
12B
  8
MyLines
 10
4871.0
 20
0.0
 30
0.0
 11
5379.0
 21
0.0
 31
0.0
  0
LINE
  5
12C
  8
MyLines
 10
4871.0
 20
0.0
 30
0.0
 11
4871.0
 21
44.0
 31
0.0
  0
LINE
  5
12D
  8
MyLines
 10
5379.0
 20
0.0
 30
0.0
 11
5379.0
 21
44.0
 31
0.0
  0
TEXT
  5
12E
  8
MyLines
 62
1
 10
4872.0
 20
45.0
 30
0.0
 40
1.0
  1
7522-B
 11
4872.0
 21
45.0
 31
0.0
  0
TEXT
  5
12F
  8
MyLines
 62
1
 10
4872.0
 20
1.0
 30
0.0
 40
1.0
  1
7522-A
 11
4872.0
 21
1.0
 31
0.0
  0
LINE
  5
130
  8
MyLines
 10
4871.0
 20
44.0
 30
0.0
 11
5125.0
 21
44.0
 31
0.0
  0
LINE
  5
131
  8
MyLines
 10
5127.0
 20
51.5
 30
0.0
 11
5477.0
 21
51.5
 31
0.0
  0
LINE
  5
132
  8
MyLines
 10
5127.0
 20
0.0
 30
0.0
 11
5477.0
 21
0.0
 31
0.0
  0
LINE
  5
133
  8
MyLines
 10
5127.0
 20
0.0
 30
0.0
 11
5127.0
 21
51.5
 31
0.0
  0
LINE
  5
134
  8
MyLines
 10
5477.0
 20
0.0
 30
0.0
 11
5477.0
 21
51.5
 31
0.0
  0
TEXT
  5
135
  8
MyLines
 62
1
 10
5128.0
 20
52.5
 30
0.0
 40
1.0
  1
7523-B
 11
5128.0
 21
52.5
 31
0.0
  0
TEXT
  5
136
  8
MyLines
 62
1
 10
5128.0
 20
1.0
 30
0.0
 40
1.0
  1
7523-A
 11
5128.0
 21
1.0
 31
0.0
  0
LINE
  5
137
  8
MyLines
 10
5127.0
 20
51.5
 30
0.0
 11
5302.0
 21
51.5
 31
0.0
  0
LINE
  5
138
  8
MyLines
 10
5304.0
 20
36.5
 30
0.0
 11
5876.0
 21
36.5
 31
0.0
  0
LINE
  5
139
  8
MyLines
 10
5304.0
 20
0.0
 30
0.0
 11
5876.0
 21
0.0
 31
0.0
  0
LINE
  5
13A
  8
MyLines
 10
5304.0
 20
0.0
 30
0.0
 11
5304.0
 21
36.5
 31
0.0
  0
LINE
  5
13B
  8
MyLines
 10
5876.0
 20
0.0
 30
0.0
 11
5876.0
 21
36.5
 31
0.0
  0
TEXT
  5
13C
  8
MyLines
 62
1
 10
5305.0
 20
37.5
 30
0.0
 40
1.0
  1
7524-B
 11
5305.0
 21
37.5
 31
0.0
  0
TEXT
  5
13D
  8
MyLines
 62
1
 10
5305.0
 20
1.0
 30
0.0
 40
1.0
  1
7524-A
 11
5305.0
 21
1.0
 31
0.0
  0
LINE
  5
13E
  8
MyLines
 10
5304.0
 20
36.5
 30
0.0
 11
5590.0
 21
36.5
 31
0.0
  0
LINE
  5
13F
  8
MyLines
 10
5592.0
 20
90.0
 30
0.0
 11
6182.0
 21
90.0
 31
0.0
  0
LINE
  5
140
  8
MyLines
 10
5592.0
 20
0.0
 30
0.0
 11
6182.0
 21
0.0
 31
0.0
  0
LINE
  5
141
  8
MyLines
 10
5592.0
 20
0.0
 30
0.0
 11
5592.0
 21
90.0
 31
0.0
  0
LINE
  5
142
  8
MyLines
 10
6182.0
 20
0.0
 30
0.0
 11
6182.0
 21
90.0
 31
0.0
  0
TEXT
  5
143
  8
MyLines
 62
1
 10
5593.0
 20
91.0
 30
0.0
 40
1.0
  1
7525-B
 11
5593.0
 21
91.0
 31
0.0
  0
TEXT
  5
144
  8
MyLines
 62
1
 10
5593.0
 20
1.0
 30
0.0
 40
1.0
  1
7525-A
 11
5593.0
 21
1.0
 31
0.0
  0
LINE
  5
145
  8
MyLines
 10
5592.0
 20
90.0
 30
0.0
 11
5887.0
 21
90.0
 31
0.0
  0
LINE
  5
146
  8
MyLines
 10
5889.0
 20
61.5
 30
0.0
 11
6471.0
 21
61.5
 31
0.0
  0
LINE
  5
147
  8
MyLines
 10
5889.0
 20
0.0
 30
0.0
 11
6471.0
 21
0.0
 31
0.0
  0
LINE
  5
148
  8
MyLines
 10
5889.0
 20
0.0
 30
0.0
 11
5889.0
 21
61.5
 31
0.0
  0
LINE
  5
149
  8
MyLines
 10
6471.0
 20
0.0
 30
0.0
 11
6471.0
 21
61.5
 31
0.0
  0
TEXT
  5
14A
  8
MyLines
 62
1
 10
5890.0
 20
62.5
 30
0.0
 40
1.0
  1
7526-B
 11
5890.0
 21
62.5
 31
0.0
  0
TEXT
  5
14B
  8
MyLines
 62
1
 10
5890.0
 20
1.0
 30
0.0
 40
1.0
  1
7526-A
 11
5890.0
 21
1.0
 31
0.0
  0
LINE
  5
14C
  8
MyLines
 10
5889.0
 20
61.5
 30
0.0
 11
6180.0
 21
61.5
 31
0.0
  0
LINE
  5
14D
  8
MyLines
 10
6182.0
 20
67.5
 30
0.0
 11
6690.0
 21
67.5
 31
0.0
  0
LINE
  5
14E
  8
MyLines
 10
6182.0
 20
0.0
 30
0.0
 11
6690.0
 21
0.0
 31
0.0
  0
LINE
  5
14F
  8
MyLines
 10
6182.0
 20
0.0
 30
0.0
 11
6182.0
 21
67.5
 31
0.0
  0
LINE
  5
150
  8
MyLines
 10
6690.0
 20
0.0
 30
0.0
 11
6690.0
 21
67.5
 31
0.0
  0
TEXT
  5
151
  8
MyLines
 62
1
 10
6183.0
 20
68.5
 30
0.0
 40
1.0
  1
7527-B
 11
6183.0
 21
68.5
 31
0.0
  0
TEXT
  5
152
  8
MyLines
 62
1
 10
6183.0
 20
1.0
 30
0.0
 40
1.0
  1
7527-A
 11
6183.0
 21
1.0
 31
0.0
  0
LINE
  5
153
  8
MyLines
 10
6182.0
 20
67.5
 30
0.0
 11
6436.0
 21
67.5
 31
0.0
  0
LINE
  5
154
  8
MyLines
 10
6438.0
 20
41.5
 30
0.0
 11
6868.0
 21
41.5
 31
0.0
  0
LINE
  5
155
  8
MyLines
 10
6438.0
 20
0.0
 30
0.0
 11
6868.0
 21
0.0
 31
0.0
  0
LINE
  5
156
  8
MyLines
 10
6438.0
 20
0.0
 30
0.0
 11
6438.0
 21
41.5
 31
0.0
  0
LINE
  5
157
  8
MyLines
 10
6868.0
 20
0.0
 30
0.0
 11
6868.0
 21
41.5
 31
0.0
  0
TEXT
  5
158
  8
MyLines
 62
1
 10
6439.0
 20
42.5
 30
0.0
 40
1.0
  1
7528-B
 11
6439.0
 21
42.5
 31
0.0
  0
TEXT
  5
159
  8
MyLines
 62
1
 10
6439.0
 20
1.0
 30
0.0
 40
1.0
  1
7528-A
 11
6439.0
 21
1.0
 31
0.0
  0
LINE
  5
15A
  8
MyLines
 10
6438.0
 20
41.5
 30
0.0
 11
6653.0
 21
41.5
 31
0.0
  0
LINE
  5
15B
  8
MyLines
 10
6655.0
 20
69.0
 30
0.0
 11
7047.0
 21
69.0
 31
0.0
  0
LINE
  5
15C
  8
MyLines
 10
6655.0
 20
0.0
 30
0.0
 11
7047.0
 21
0.0
 31
0.0
  0
LINE
  5
15D
  8
MyLines
 10
6655.0
 20
0.0
 30
0.0
 11
6655.0
 21
69.0
 31
0.0
  0
LINE
  5
15E
  8
MyLines
 10
7047.0
 20
0.0
 30
0.0
 11
7047.0
 21
69.0
 31
0.0
  0
TEXT
  5
15F
  8
MyLines
 62
1
 10
6656.0
 20
70.0
 30
0.0
 40
1.0
  1
7529-B
 11
6656.0
 21
70.0
 31
0.0
  0
TEXT
  5
160
  8
MyLines
 62
1
 10
6656.0
 20
1.0
 30
0.0
 40
1.0
  1
7529-A
 11
6656.0
 21
1.0
 31
0.0
  0
LINE
  5
161
  8
MyLines
 10
6655.0
 20
69.0
 30
0.0
 11
6851.0
 21
69.0
 31
0.0
  0
LINE
  5
162
  8
MyLines
 10
6853.0
 20
82.0
 30
0.0
 11
7371.0
 21
82.0
 31
0.0
  0
LINE
  5
163
  8
MyLines
 10
6853.0
 20
0.0
 30
0.0
 11
7371.0
 21
0.0
 31
0.0
  0
LINE
  5
164
  8
MyLines
 10
6853.0
 20
0.0
 30
0.0
 11
6853.0
 21
82.0
 31
0.0
  0
LINE
  5
165
  8
MyLines
 10
7371.0
 20
0.0
 30
0.0
 11
7371.0
 21
82.0
 31
0.0
  0
TEXT
  5
166
  8
MyLines
 62
1
 10
6854.0
 20
83.0
 30
0.0
 40
1.0
  1
7530-B
 11
6854.0
 21
83.0
 31
0.0
  0
TEXT
  5
167
  8
MyLines
 62
1
 10
6854.0
 20
1.0
 30
0.0
 40
1.0
  1
7530-A
 11
6854.0
 21
1.0
 31
0.0
  0
LINE
  5
168
  8
MyLines
 10
6853.0
 20
82.0
 30
0.0
 11
7112.0
 21
82.0
 31
0.0
  0
LINE
  5
169
  8
MyLines
 10
7114.0
 20
71.5
 30
0.0
 11
7650.0
 21
71.5
 31
0.0
  0
LINE
  5
16A
  8
MyLines
 10
7114.0
 20
0.0
 30
0.0
 11
7650.0
 21
0.0
 31
0.0
  0
LINE
  5
16B
  8
MyLines
 10
7114.0
 20
0.0
 30
0.0
 11
7114.0
 21
71.5
 31
0.0
  0
LINE
  5
16C
  8
MyLines
 10
7650.0
 20
0.0
 30
0.0
 11
7650.0
 21
71.5
 31
0.0
  0
TEXT
  5
16D
  8
MyLines
 62
1
 10
7115.0
 20
72.5
 30
0.0
 40
1.0
  1
7531-B
 11
7115.0
 21
72.5
 31
0.0
  0
TEXT
  5
16E
  8
MyLines
 62
1
 10
7115.0
 20
1.0
 30
0.0
 40
1.0
  1
7531-A
 11
7115.0
 21
1.0
 31
0.0
  0
LINE
  5
16F
  8
MyLines
 10
7114.0
 20
71.5
 30
0.0
 11
7382.0
 21
71.5
 31
0.0
  0
LINE
  5
170
  8
MyLines
 10
7384.0
 20
86.5
 30
0.0
 11
7930.0
 21
86.5
 31
0.0
  0
LINE
  5
171
  8
MyLines
 10
7384.0
 20
0.0
 30
0.0
 11
7930.0
 21
0.0
 31
0.0
  0
LINE
  5
172
  8
MyLines
 10
7384.0
 20
0.0
 30
0.0
 11
7384.0
 21
86.5
 31
0.0
  0
LINE
  5
173
  8
MyLines
 10
7930.0
 20
0.0
 30
0.0
 11
7930.0
 21
86.5
 31
0.0
  0
TEXT
  5
174
  8
MyLines
 62
1
 10
7385.0
 20
87.5
 30
0.0
 40
1.0
  1
7532-B
 11
7385.0
 21
87.5
 31
0.0
  0
TEXT
  5
175
  8
MyLines
 62
1
 10
7385.0
 20
1.0
 30
0.0
 40
1.0
  1
7532-A
 11
7385.0
 21
1.0
 31
0.0
  0
LINE
  5
176
  8
MyLines
 10
7384.0
 20
86.5
 30
0.0
 11
7657.0
 21
86.5
 31
0.0
  0
LINE
  5
177
  8
MyLines
 10
7659.0
 20
76.5
 30
0.0
 11
8231.0
 21
76.5
 31
0.0
  0
LINE
  5
178
  8
MyLines
 10
7659.0
 20
0.0
 30
0.0
 11
8231.0
 21
0.0
 31
0.0
  0
LINE
  5
179
  8
MyLines
 10
7659.0
 20
0.0
 30
0.0
 11
7659.0
 21
76.5
 31
0.0
  0
LINE
  5
17A
  8
MyLines
 10
8231.0
 20
0.0
 30
0.0
 11
8231.0
 21
76.5
 31
0.0
  0
TEXT
  5
17B
  8
MyLines
 62
1
 10
7660.0
 20
77.5
 30
0.0
 40
1.0
  1
7533-B
 11
7660.0
 21
77.5
 31
0.0
  0
TEXT
  5
17C
  8
MyLines
 62
1
 10
7660.0
 20
1.0
 30
0.0
 40
1.0
  1
7533-A
 11
7660.0
 21
1.0
 31
0.0
  0
LINE
  5
17D
  8
MyLines
 10
7659.0
 20
76.5
 30
0.0
 11
7945.0
 21
76.5
 31
0.0
  0
LINE
  5
17E
  8
MyLines
 10
7947.0
 20
65.0
 30
0.0
 11
8341.0
 21
65.0
 31
0.0
  0
LINE
  5
17F
  8
MyLines
 10
7947.0
 20
0.0
 30
0.0
 11
8341.0
 21
0.0
 31
0.0
  0
LINE
  5
180
  8
MyLines
 10
7947.0
 20
0.0
 30
0.0
 11
7947.0
 21
65.0
 31
0.0
  0
LINE
  5
181
  8
MyLines
 10
8341.0
 20
0.0
 30
0.0
 11
8341.0
 21
65.0
 31
0.0
  0
TEXT
  5
182
  8
MyLines
 62
1
 10
7948.0
 20
66.0
 30
0.0
 40
1.0
  1
7534-B
 11
7948.0
 21
66.0
 31
0.0
  0
TEXT
  5
183
  8
MyLines
 62
1
 10
7948.0
 20
1.0
 30
0.0
 40
1.0
  1
7534-A
 11
7948.0
 21
1.0
 31
0.0
  0
LINE
  5
184
  8
MyLines
 10
7947.0
 20
65.0
 30
0.0
 11
8144.0
 21
65.0
 31
0.0
  0
LINE
  5
185
  8
MyLines
 10
8146.0
 20
81.0
 30
0.0
 11
8622.0
 21
81.0
 31
0.0
  0
LINE
  5
186
  8
MyLines
 10
8146.0
 20
0.0
 30
0.0
 11
8622.0
 21
0.0
 31
0.0
  0
LINE
  5
187
  8
MyLines
 10
8146.0
 20
0.0
 30
0.0
 11
8146.0
 21
81.0
 31
0.0
  0
LINE
  5
188
  8
MyLines
 10
8622.0
 20
0.0
 30
0.0
 11
8622.0
 21
81.0
 31
0.0
  0
TEXT
  5
189
  8
MyLines
 62
1
 10
8147.0
 20
82.0
 30
0.0
 40
1.0
  1
7535-B
 11
8147.0
 21
82.0
 31
0.0
  0
TEXT
  5
18A
  8
MyLines
 62
1
 10
8147.0
 20
1.0
 30
0.0
 40
1.0
  1
7535-A
 11
8147.0
 21
1.0
 31
0.0
  0
LINE
  5
18B
  8
MyLines
 10
8146.0
 20
81.0
 30
0.0
 11
8384.0
 21
81.0
 31
0.0
  0
LINE
  5
18C
  8
MyLines
 10
8386.0
 20
40.5
 30
0.0
 11
8778.0
 21
40.5
 31
0.0
  0
LINE
  5
18D
  8
MyLines
 10
8386.0
 20
0.0
 30
0.0
 11
8778.0
 21
0.0
 31
0.0
  0
LINE
  5
18E
  8
MyLines
 10
8386.0
 20
0.0
 30
0.0
 11
8386.0
 21
40.5
 31
0.0
  0
LINE
  5
18F
  8
MyLines
 10
8778.0
 20
0.0
 30
0.0
 11
8778.0
 21
40.5
 31
0.0
  0
TEXT
  5
190
  8
MyLines
 62
1
 10
8387.0
 20
41.5
 30
0.0
 40
1.0
  1
7536-B
 11
8387.0
 21
41.5
 31
0.0
  0
TEXT
  5
191
  8
MyLines
 62
1
 10
8387.0
 20
1.0
 30
0.0
 40
1.0
  1
7536-A
 11
8387.0
 21
1.0
 31
0.0
  0
LINE
  5
192
  8
MyLines
 10
8386.0
 20
40.5
 30
0.0
 11
8582.0
 21
40.5
 31
0.0
  0
LINE
  5
193
  8
MyLines
 10
8584.0
 20
44.0
 30
0.0
 11
9112.0
 21
44.0
 31
0.0
  0
LINE
  5
194
  8
MyLines
 10
8584.0
 20
0.0
 30
0.0
 11
9112.0
 21
0.0
 31
0.0
  0
LINE
  5
195
  8
MyLines
 10
8584.0
 20
0.0
 30
0.0
 11
8584.0
 21
44.0
 31
0.0
  0
LINE
  5
196
  8
MyLines
 10
9112.0
 20
0.0
 30
0.0
 11
9112.0
 21
44.0
 31
0.0
  0
TEXT
  5
197
  8
MyLines
 62
1
 10
8585.0
 20
45.0
 30
0.0
 40
1.0
  1
7537-B
 11
8585.0
 21
45.0
 31
0.0
  0
TEXT
  5
198
  8
MyLines
 62
1
 10
8585.0
 20
1.0
 30
0.0
 40
1.0
  1
7537-A
 11
8585.0
 21
1.0
 31
0.0
  0
LINE
  5
199
  8
MyLines
 10
8584.0
 20
44.0
 30
0.0
 11
8848.0
 21
44.0
 31
0.0
  0
LINE
  5
19A
  8
MyLines
 10
8850.0
 20
65.5
 30
0.0
 11
9250.0
 21
65.5
 31
0.0
  0
LINE
  5
19B
  8
MyLines
 10
8850.0
 20
0.0
 30
0.0
 11
9250.0
 21
0.0
 31
0.0
  0
LINE
  5
19C
  8
MyLines
 10
8850.0
 20
0.0
 30
0.0
 11
8850.0
 21
65.5
 31
0.0
  0
LINE
  5
19D
  8
MyLines
 10
9250.0
 20
0.0
 30
0.0
 11
9250.0
 21
65.5
 31
0.0
  0
TEXT
  5
19E
  8
MyLines
 62
1
 10
8851.0
 20
66.5
 30
0.0
 40
1.0
  1
7538-B
 11
8851.0
 21
66.5
 31
0.0
  0
TEXT
  5
19F
  8
MyLines
 62
1
 10
8851.0
 20
1.0
 30
0.0
 40
1.0
  1
7538-A
 11
8851.0
 21
1.0
 31
0.0
  0
LINE
  5
1A0
  8
MyLines
 10
8850.0
 20
65.5
 30
0.0
 11
9050.0
 21
65.5
 31
0.0
  0
LINE
  5
1A1
  8
MyLines
 10
9052.0
 20
41.0
 30
0.0
 11
9506.0
 21
41.0
 31
0.0
  0
LINE
  5
1A2
  8
MyLines
 10
9052.0
 20
0.0
 30
0.0
 11
9506.0
 21
0.0
 31
0.0
  0
LINE
  5
1A3
  8
MyLines
 10
9052.0
 20
0.0
 30
0.0
 11
9052.0
 21
41.0
 31
0.0
  0
LINE
  5
1A4
  8
MyLines
 10
9506.0
 20
0.0
 30
0.0
 11
9506.0
 21
41.0
 31
0.0
  0
TEXT
  5
1A5
  8
MyLines
 62
1
 10
9053.0
 20
42.0
 30
0.0
 40
1.0
  1
7539-B
 11
9053.0
 21
42.0
 31
0.0
  0
TEXT
  5
1A6
  8
MyLines
 62
1
 10
9053.0
 20
1.0
 30
0.0
 40
1.0
  1
7539-A
 11
9053.0
 21
1.0
 31
0.0
  0
LINE
  5
1A7
  8
MyLines
 10
9052.0
 20
41.0
 30
0.0
 11
9279.0
 21
41.0
 31
0.0
  0
LINE
  5
1A8
  8
MyLines
 10
9281.0
 20
60.0
 30
0.0
 11
9869.0
 21
60.0
 31
0.0
  0
LINE
  5
1A9
  8
MyLines
 10
9281.0
 20
0.0
 30
0.0
 11
9869.0
 21
0.0
 31
0.0
  0
LINE
  5
1AA
  8
MyLines
 10
9281.0
 20
0.0
 30
0.0
 11
9281.0
 21
60.0
 31
0.0
  0
LINE
  5
1AB
  8
MyLines
 10
9869.0
 20
0.0
 30
0.0
 11
9869.0
 21
60.0
 31
0.0
  0
TEXT
  5
1AC
  8
MyLines
 62
1
 10
9282.0
 20
61.0
 30
0.0
 40
1.0
  1
7540-B
 11
9282.0
 21
61.0
 31
0.0
  0
TEXT
  5
1AD
  8
MyLines
 62
1
 10
9282.0
 20
1.0
 30
0.0
 40
1.0
  1
7540-A
 11
9282.0
 21
1.0
 31
0.0
  0
LINE
  5
1AE
  8
MyLines
 10
9281.0
 20
60.0
 30
0.0
 11
9575.0
 21
60.0
 31
0.0
  0
LINE
  5
1AF
  8
MyLines
 10
9577.0
 20
85.5
 30
0.0
 11
10049.0
 21
85.5
 31
0.0
  0
LINE
  5
1B0
  8
MyLines
 10
9577.0
 20
0.0
 30
0.0
 11
10049.0
 21
0.0
 31
0.0
  0
LINE
  5
1B1
  8
MyLines
 10
9577.0
 20
0.0
 30
0.0
 11
9577.0
 21
85.5
 31
0.0
  0
LINE
  5
1B2
  8
MyLines
 10
10049.0
 20
0.0
 30
0.0
 11
10049.0
 21
85.5
 31
0.0
  0
TEXT
  5
1B3
  8
MyLines
 62
1
 10
9578.0
 20
86.5
 30
0.0
 40
1.0
  1
7541-B
 11
9578.0
 21
86.5
 31
0.0
  0
TEXT
  5
1B4
  8
MyLines
 62
1
 10
9578.0
 20
1.0
 30
0.0
 40
1.0
  1
7541-A
 11
9578.0
 21
1.0
 31
0.0
  0
LINE
  5
1B5
  8
MyLines
 10
9577.0
 20
85.5
 30
0.0
 11
9813.0
 21
85.5
 31
0.0
  0
LINE
  5
1B6
  8
MyLines
 10
9815.0
 20
65.5
 30
0.0
 11
10329.0
 21
65.5
 31
0.0
  0
LINE
  5
1B7
  8
MyLines
 10
9815.0
 20
0.0
 30
0.0
 11
10329.0
 21
0.0
 31
0.0
  0
LINE
  5
1B8
  8
MyLines
 10
9815.0
 20
0.0
 30
0.0
 11
9815.0
 21
65.5
 31
0.0
  0
LINE
  5
1B9
  8
MyLines
 10
10329.0
 20
0.0
 30
0.0
 11
10329.0
 21
65.5
 31
0.0
  0
TEXT
  5
1BA
  8
MyLines
 62
1
 10
9816.0
 20
66.5
 30
0.0
 40
1.0
  1
7542-B
 11
9816.0
 21
66.5
 31
0.0
  0
TEXT
  5
1BB
  8
MyLines
 62
1
 10
9816.0
 20
1.0
 30
0.0
 40
1.0
  1
7542-A
 11
9816.0
 21
1.0
 31
0.0
  0
LINE
  5
1BC
  8
MyLines
 10
9815.0
 20
65.5
 30
0.0
 11
10072.0
 21
65.5
 31
0.0
  0
LINE
  5
1BD
  8
MyLines
 10
10074.0
 20
43.5
 30
0.0
 11
10554.0
 21
43.5
 31
0.0
  0
LINE
  5
1BE
  8
MyLines
 10
10074.0
 20
0.0
 30
0.0
 11
10554.0
 21
0.0
 31
0.0
  0
LINE
  5
1BF
  8
MyLines
 10
10074.0
 20
0.0
 30
0.0
 11
10074.0
 21
43.5
 31
0.0
  0
LINE
  5
1C0
  8
MyLines
 10
10554.0
 20
0.0
 30
0.0
 11
10554.0
 21
43.5
 31
0.0
  0
TEXT
  5
1C1
  8
MyLines
 62
1
 10
10075.0
 20
44.5
 30
0.0
 40
1.0
  1
7543-B
 11
10075.0
 21
44.5
 31
0.0
  0
TEXT
  5
1C2
  8
MyLines
 62
1
 10
10075.0
 20
1.0
 30
0.0
 40
1.0
  1
7543-A
 11
10075.0
 21
1.0
 31
0.0
  0
LINE
  5
1C3
  8
MyLines
 10
10074.0
 20
43.5
 30
0.0
 11
10314.0
 21
43.5
 31
0.0
  0
LINE
  5
1C4
  8
MyLines
 10
10316.0
 20
75.0
 30
0.0
 11
10724.0
 21
75.0
 31
0.0
  0
LINE
  5
1C5
  8
MyLines
 10
10316.0
 20
0.0
 30
0.0
 11
10724.0
 21
0.0
 31
0.0
  0
LINE
  5
1C6
  8
MyLines
 10
10316.0
 20
0.0
 30
0.0
 11
10316.0
 21
75.0
 31
0.0
  0
LINE
  5
1C7
  8
MyLines
 10
10724.0
 20
0.0
 30
0.0
 11
10724.0
 21
75.0
 31
0.0
  0
TEXT
  5
1C8
  8
MyLines
 62
1
 10
10317.0
 20
76.0
 30
0.0
 40
1.0
  1
7544-B
 11
10317.0
 21
76.0
 31
0.0
  0
TEXT
  5
1C9
  8
MyLines
 62
1
 10
10317.0
 20
1.0
 30
0.0
 40
1.0
  1
7544-A
 11
10317.0
 21
1.0
 31
0.0
  0
LINE
  5
1CA
  8
MyLines
 10
10316.0
 20
75.0
 30
0.0
 11
10520.0
 21
75.0
 31
0.0
  0
LINE
  5
1CB
  8
MyLines
 10
10522.0
 20
62.0
 30
0.0
 11
10976.0
 21
62.0
 31
0.0
  0
LINE
  5
1CC
  8
MyLines
 10
10522.0
 20
0.0
 30
0.0
 11
10976.0
 21
0.0
 31
0.0
  0
LINE
  5
1CD
  8
MyLines
 10
10522.0
 20
0.0
 30
0.0
 11
10522.0
 21
62.0
 31
0.0
  0
LINE
  5
1CE
  8
MyLines
 10
10976.0
 20
0.0
 30
0.0
 11
10976.0
 21
62.0
 31
0.0
  0
TEXT
  5
1CF
  8
MyLines
 62
1
 10
10523.0
 20
63.0
 30
0.0
 40
1.0
  1
7545-B
 11
10523.0
 21
63.0
 31
0.0
  0
TEXT
  5
1D0
  8
MyLines
 62
1
 10
10523.0
 20
1.0
 30
0.0
 40
1.0
  1
7545-A
 11
10523.0
 21
1.0
 31
0.0
  0
LINE
  5
1D1
  8
MyLines
 10
10522.0
 20
62.0
 30
0.0
 11
10749.0
 21
62.0
 31
0.0
  0
LINE
  5
1D2
  8
MyLines
 10
10751.0
 20
39.0
 30
0.0
 11
11325.0
 21
39.0
 31
0.0
  0
LINE
  5
1D3
  8
MyLines
 10
10751.0
 20
0.0
 30
0.0
 11
11325.0
 21
0.0
 31
0.0
  0
LINE
  5
1D4
  8
MyLines
 10
10751.0
 20
0.0
 30
0.0
 11
10751.0
 21
39.0
 31
0.0
  0
LINE
  5
1D5
  8
MyLines
 10
11325.0
 20
0.0
 30
0.0
 11
11325.0
 21
39.0
 31
0.0
  0
TEXT
  5
1D6
  8
MyLines
 62
1
 10
10752.0
 20
40.0
 30
0.0
 40
1.0
  1
7546-B
 11
10752.0
 21
40.0
 31
0.0
  0
TEXT
  5
1D7
  8
MyLines
 62
1
 10
10752.0
 20
1.0
 30
0.0
 40
1.0
  1
7546-A
 11
10752.0
 21
1.0
 31
0.0
  0
LINE
  5
1D8
  8
MyLines
 10
10751.0
 20
39.0
 30
0.0
 11
11038.0
 21
39.0
 31
0.0
  0
LINE
  5
1D9
  8
MyLines
 10
11040.0
 20
46.0
 30
0.0
 11
11570.0
 21
46.0
 31
0.0
  0
LINE
  5
1DA
  8
MyLines
 10
11040.0
 20
0.0
 30
0.0
 11
11570.0
 21
0.0
 31
0.0
  0
LINE
  5
1DB
  8
MyLines
 10
11040.0
 20
0.0
 30
0.0
 11
11040.0
 21
46.0
 31
0.0
  0
LINE
  5
1DC
  8
MyLines
 10
11570.0
 20
0.0
 30
0.0
 11
11570.0
 21
46.0
 31
0.0
  0
TEXT
  5
1DD
  8
MyLines
 62
1
 10
11041.0
 20
47.0
 30
0.0
 40
1.0
  1
7547-B
 11
11041.0
 21
47.0
 31
0.0
  0
TEXT
  5
1DE
  8
MyLines
 62
1
 10
11041.0
 20
1.0
 30
0.0
 40
1.0
  1
7547-A
 11
11041.0
 21
1.0
 31
0.0
  0
LINE
  5
1DF
  8
MyLines
 10
11040.0
 20
46.0
 30
0.0
 11
11305.0
 21
46.0
 31
0.0
  0
LINE
  5
1E0
  8
MyLines
 10
11307.0
 20
78.5
 30
0.0
 11
11847.0
 21
78.5
 31
0.0
  0
LINE
  5
1E1
  8
MyLines
 10
11307.0
 20
0.0
 30
0.0
 11
11847.0
 21
0.0
 31
0.0
  0
LINE
  5
1E2
  8
MyLines
 10
11307.0
 20
0.0
 30
0.0
 11
11307.0
 21
78.5
 31
0.0
  0
LINE
  5
1E3
  8
MyLines
 10
11847.0
 20
0.0
 30
0.0
 11
11847.0
 21
78.5
 31
0.0
  0
TEXT
  5
1E4
  8
MyLines
 62
1
 10
11308.0
 20
79.5
 30
0.0
 40
1.0
  1
7548-B
 11
11308.0
 21
79.5
 31
0.0
  0
TEXT
  5
1E5
  8
MyLines
 62
1
 10
11308.0
 20
1.0
 30
0.0
 40
1.0
  1
7548-A
 11
11308.0
 21
1.0
 31
0.0
  0
LINE
  5
1E6
  8
MyLines
 10
11307.0
 20
78.5
 30
0.0
 11
11577.0
 21
78.5
 31
0.0
  0
LINE
  5
1E7
  8
MyLines
 10
11579.0
 20
37.0
 30
0.0
 11
12121.0
 21
37.0
 31
0.0
  0
LINE
  5
1E8
  8
MyLines
 10
11579.0
 20
0.0
 30
0.0
 11
12121.0
 21
0.0
 31
0.0
  0
LINE
  5
1E9
  8
MyLines
 10
11579.0
 20
0.0
 30
0.0
 11
11579.0
 21
37.0
 31
0.0
  0
LINE
  5
1EA
  8
MyLines
 10
12121.0
 20
0.0
 30
0.0
 11
12121.0
 21
37.0
 31
0.0
  0
TEXT
  5
1EB
  8
MyLines
 62
1
 10
11580.0
 20
38.0
 30
0.0
 40
1.0
  1
7549-B
 11
11580.0
 21
38.0
 31
0.0
  0
TEXT
  5
1EC
  8
MyLines
 62
1
 10
11580.0
 20
1.0
 30
0.0
 40
1.0
  1
7549-A
 11
11580.0
 21
1.0
 31
0.0
  0
LINE
  5
1ED
  8
MyLines
 10
11579.0
 20
37.0
 30
0.0
 11
11850.0
 21
37.0
 31
0.0
  0
LINE
  5
1EE
  8
MyLines
 10
11852.0
 20
35.5
 30
0.0
 11
12316.0
 21
35.5
 31
0.0
  0
LINE
  5
1EF
  8
MyLines
 10
11852.0
 20
0.0
 30
0.0
 11
12316.0
 21
0.0
 31
0.0
  0
LINE
  5
1F0
  8
MyLines
 10
11852.0
 20
0.0
 30
0.0
 11
11852.0
 21
35.5
 31
0.0
  0
LINE
  5
1F1
  8
MyLines
 10
12316.0
 20
0.0
 30
0.0
 11
12316.0
 21
35.5
 31
0.0
  0
TEXT
  5
1F2
  8
MyLines
 62
1
 10
11853.0
 20
36.5
 30
0.0
 40
1.0
  1
7550-B
 11
11853.0
 21
36.5
 31
0.0
  0
TEXT
  5
1F3
  8
MyLines
 62
1
 10
11853.0
 20
1.0
 30
0.0
 40
1.0
  1
7550-A
 11
11853.0
 21
1.0
 31
0.0
  0
LINE
  5
1F4
  8
MyLines
 10
11852.0
 20
35.5
 30
0.0
 11
12084.0
 21
35.5
 31
0.0
  0
LINE
  5
1F5
  8
MyLines
 10
12086.0
 20
88.5
 30
0.0
 11
12482.0
 21
88.5
 31
0.0
  0
LINE
  5
1F6
  8
MyLines
 10
12086.0
 20
0.0
 30
0.0
 11
12482.0
 21
0.0
 31
0.0
  0
LINE
  5
1F7
  8
MyLines
 10
12086.0
 20
0.0
 30
0.0
 11
12086.0
 21
88.5
 31
0.0
  0
LINE
  5
1F8
  8
MyLines
 10
12482.0
 20
0.0
 30
0.0
 11
12482.0
 21
88.5
 31
0.0
  0
TEXT
  5
1F9
  8
MyLines
 62
1
 10
12087.0
 20
89.5
 30
0.0
 40
1.0
  1
7551-B
 11
12087.0
 21
89.5
 31
0.0
  0
TEXT
  5
1FA
  8
MyLines
 62
1
 10
12087.0
 20
1.0
 30
0.0
 40
1.0
  1
7551-A
 11
12087.0
 21
1.0
 31
0.0
  0
LINE
  5
1FB
  8
MyLines
 10
12086.0
 20
88.5
 30
0.0
 11
12284.0
 21
88.5
 31
0.0
  0
LINE
  5
1FC
  8
MyLines
 10
12286.0
 20
38.5
 30
0.0
 11
12788.0
 21
38.5
 31
0.0
  0
LINE
  5
1FD
  8
MyLines
 10
12286.0
 20
0.0
 30
0.0
 11
12788.0
 21
0.0
 31
0.0
  0
LINE
  5
1FE
  8
MyLines
 10
12286.0
 20
0.0
 30
0.0
 11
12286.0
 21
38.5
 31
0.0
  0
LINE
  5
1FF
  8
MyLines
 10
12788.0
 20
0.0
 30
0.0
 11
12788.0
 21
38.5
 31
0.0
  0
TEXT
  5
200
  8
MyLines
 62
1
 10
12287.0
 20
39.5
 30
0.0
 40
1.0
  1
7552-B
 11
12287.0
 21
39.5
 31
0.0
  0
TEXT
  5
201
  8
MyLines
 62
1
 10
12287.0
 20
1.0
 30
0.0
 40
1.0
  1
7552-A
 11
12287.0
 21
1.0
 31
0.0
  0
LINE
  5
202
  8
MyLines
 10
12286.0
 20
38.5
 30
0.0
 11
12537.0
 21
38.5
 31
0.0
  0
LINE
  5
203
  8
MyLines
 10
12539.0
 20
50.0
 30
0.0
 11
12997.0
 21
50.0
 31
0.0
  0
LINE
  5
204
  8
MyLines
 10
12539.0
 20
0.0
 30
0.0
 11
12997.0
 21
0.0
 31
0.0
  0
LINE
  5
205
  8
MyLines
 10
12539.0
 20
0.0
 30
0.0
 11
12539.0
 21
50.0
 31
0.0
  0
LINE
  5
206
  8
MyLines
 10
12997.0
 20
0.0
 30
0.0
 11
12997.0
 21
50.0
 31
0.0
  0
TEXT
  5
207
  8
MyLines
 62
1
 10
12540.0
 20
51.0
 30
0.0
 40
1.0
  1
7553-B
 11
12540.0
 21
51.0
 31
0.0
  0
TEXT
  5
208
  8
MyLines
 62
1
 10
12540.0
 20
1.0
 30
0.0
 40
1.0
  1
7553-A
 11
12540.0
 21
1.0
 31
0.0
  0
LINE
  5
209
  8
MyLines
 10
12539.0
 20
50.0
 30
0.0
 11
12768.0
 21
50.0
 31
0.0
  0
LINE
  5
20A
  8
MyLines
 10
12770.0
 20
66.0
 30
0.0
 11
13364.0
 21
66.0
 31
0.0
  0
LINE
  5
20B
  8
MyLines
 10
12770.0
 20
0.0
 30
0.0
 11
13364.0
 21
0.0
 31
0.0
  0
LINE
  5
20C
  8
MyLines
 10
12770.0
 20
0.0
 30
0.0
 11
12770.0
 21
66.0
 31
0.0
  0
LINE
  5
20D
  8
MyLines
 10
13364.0
 20
0.0
 30
0.0
 11
13364.0
 21
66.0
 31
0.0
  0
TEXT
  5
20E
  8
MyLines
 62
1
 10
12771.0
 20
67.0
 30
0.0
 40
1.0
  1
7554-B
 11
12771.0
 21
67.0
 31
0.0
  0
TEXT
  5
20F
  8
MyLines
 62
1
 10
12771.0
 20
1.0
 30
0.0
 40
1.0
  1
7554-A
 11
12771.0
 21
1.0
 31
0.0
  0
LINE
  5
210
  8
MyLines
 10
12770.0
 20
66.0
 30
0.0
 11
13067.0
 21
66.0
 31
0.0
  0
LINE
  5
211
  8
MyLines
 10
13069.0
 20
35.0
 30
0.0
 11
13475.0
 21
35.0
 31
0.0
  0
LINE
  5
212
  8
MyLines
 10
13069.0
 20
0.0
 30
0.0
 11
13475.0
 21
0.0
 31
0.0
  0
LINE
  5
213
  8
MyLines
 10
13069.0
 20
0.0
 30
0.0
 11
13069.0
 21
35.0
 31
0.0
  0
LINE
  5
214
  8
MyLines
 10
13475.0
 20
0.0
 30
0.0
 11
13475.0
 21
35.0
 31
0.0
  0
TEXT
  5
215
  8
MyLines
 62
1
 10
13070.0
 20
36.0
 30
0.0
 40
1.0
  1
7555-B
 11
13070.0
 21
36.0
 31
0.0
  0
TEXT
  5
216
  8
MyLines
 62
1
 10
13070.0
 20
1.0
 30
0.0
 40
1.0
  1
7555-A
 11
13070.0
 21
1.0
 31
0.0
  0
LINE
  5
217
  8
MyLines
 10
13069.0
 20
35.0
 30
0.0
 11
13272.0
 21
35.0
 31
0.0
  0
LINE
  5
218
  8
MyLines
 10
13274.0
 20
77.5
 30
0.0
 11
13870.0
 21
77.5
 31
0.0
  0
LINE
  5
219
  8
MyLines
 10
13274.0
 20
0.0
 30
0.0
 11
13870.0
 21
0.0
 31
0.0
  0
LINE
  5
21A
  8
MyLines
 10
13274.0
 20
0.0
 30
0.0
 11
13274.0
 21
77.5
 31
0.0
  0
LINE
  5
21B
  8
MyLines
 10
13870.0
 20
0.0
 30
0.0
 11
13870.0
 21
77.5
 31
0.0
  0
TEXT
  5
21C
  8
MyLines
 62
1
 10
13275.0
 20
78.5
 30
0.0
 40
1.0
  1
7556-B
 11
13275.0
 21
78.5
 31
0.0
  0
TEXT
  5
21D
  8
MyLines
 62
1
 10
13275.0
 20
1.0
 30
0.0
 40
1.0
  1
7556-A
 11
13275.0
 21
1.0
 31
0.0
  0
LINE
  5
21E
  8
MyLines
 10
13274.0
 20
77.5
 30
0.0
 11
13572.0
 21
77.5
 31
0.0
  0
LINE
  5
21F
  8
MyLines
 10
13574.0
 20
89.5
 30
0.0
 11
13924.0
 21
89.5
 31
0.0
  0
LINE
  5
220
  8
MyLines
 10
13574.0
 20
0.0
 30
0.0
 11
13924.0
 21
0.0
 31
0.0
  0
LINE
  5
221
  8
MyLines
 10
13574.0
 20
0.0
 30
0.0
 11
13574.0
 21
89.5
 31
0.0
  0
LINE
  5
222
  8
MyLines
 10
13924.0
 20
0.0
 30
0.0
 11
13924.0
 21
89.5
 31
0.0
  0
TEXT
  5
223
  8
MyLines
 62
1
 10
13575.0
 20
90.5
 30
0.0
 40
1.0
  1
7557-B
 11
13575.0
 21
90.5
 31
0.0
  0
TEXT
  5
224
  8
MyLines
 62
1
 10
13575.0
 20
1.0
 30
0.0
 40
1.0
  1
7557-A
 11
13575.0
 21
1.0
 31
0.0
  0
LINE
  5
225
  8
MyLines
 10
13574.0
 20
89.5
 30
0.0
 11
13749.0
 21
89.5
 31
0.0
  0
LINE
  5
226
  8
MyLines
 10
13751.0
 20
68.0
 30
0.0
 11
14335.0
 21
68.0
 31
0.0
  0
LINE
  5
227
  8
MyLines
 10
13751.0
 20
0.0
 30
0.0
 11
14335.0
 21
0.0
 31
0.0
  0
LINE
  5
228
  8
MyLines
 10
13751.0
 20
0.0
 30
0.0
 11
13751.0
 21
68.0
 31
0.0
  0
LINE
  5
229
  8
MyLines
 10
14335.0
 20
0.0
 30
0.0
 11
14335.0
 21
68.0
 31
0.0
  0
TEXT
  5
22A
  8
MyLines
 62
1
 10
13752.0
 20
69.0
 30
0.0
 40
1.0
  1
7558-B
 11
13752.0
 21
69.0
 31
0.0
  0
TEXT
  5
22B
  8
MyLines
 62
1
 10
13752.0
 20
1.0
 30
0.0
 40
1.0
  1
7558-A
 11
13752.0
 21
1.0
 31
0.0
  0
LINE
  5
22C
  8
MyLines
 10
13751.0
 20
68.0
 30
0.0
 11
14043.0
 21
68.0
 31
0.0
  0
LINE
  5
22D
  8
MyLines
 10
14045.0
 20
55.5
 30
0.0
 11
14591.0
 21
55.5
 31
0.0
  0
LINE
  5
22E
  8
MyLines
 10
14045.0
 20
0.0
 30
0.0
 11
14591.0
 21
0.0
 31
0.0
  0
LINE
  5
22F
  8
MyLines
 10
14045.0
 20
0.0
 30
0.0
 11
14045.0
 21
55.5
 31
0.0
  0
LINE
  5
230
  8
MyLines
 10
14591.0
 20
0.0
 30
0.0
 11
14591.0
 21
55.5
 31
0.0
  0
TEXT
  5
231
  8
MyLines
 62
1
 10
14046.0
 20
56.5
 30
0.0
 40
1.0
  1
7559-B
 11
14046.0
 21
56.5
 31
0.0
  0
TEXT
  5
232
  8
MyLines
 62
1
 10
14046.0
 20
1.0
 30
0.0
 40
1.0
  1
7559-A
 11
14046.0
 21
1.0
 31
0.0
  0
LINE
  5
233
  8
MyLines
 10
14045.0
 20
55.5
 30
0.0
 11
14318.0
 21
55.5
 31
0.0
  0
LINE
  5
234
  8
MyLines
 10
14320.0
 20
61.5
 30
0.0
 11
14908.0
 21
61.5
 31
0.0
  0
LINE
  5
235
  8
MyLines
 10
14320.0
 20
0.0
 30
0.0
 11
14908.0
 21
0.0
 31
0.0
  0
LINE
  5
236
  8
MyLines
 10
14320.0
 20
0.0
 30
0.0
 11
14320.0
 21
61.5
 31
0.0
  0
LINE
  5
237
  8
MyLines
 10
14908.0
 20
0.0
 30
0.0
 11
14908.0
 21
61.5
 31
0.0
  0
TEXT
  5
238
  8
MyLines
 62
1
 10
14321.0
 20
62.5
 30
0.0
 40
1.0
  1
7560-B
 11
14321.0
 21
62.5
 31
0.0
  0
TEXT
  5
239
  8
MyLines
 62
1
 10
14321.0
 20
1.0
 30
0.0
 40
1.0
  1
7560-A
 11
14321.0
 21
1.0
 31
0.0
  0
LINE
  5
23A
  8
MyLines
 10
14320.0
 20
61.5
 30
0.0
 11
14614.0
 21
61.5
 31
0.0
  0
LINE
  5
23B
  8
MyLines
 10
14616.0
 20
37.5
 30
0.0
 11
14970.0
 21
37.5
 31
0.0
  0
LINE
  5
23C
  8
MyLines
 10
14616.0
 20
0.0
 30
0.0
 11
14970.0
 21
0.0
 31
0.0
  0
LINE
  5
23D
  8
MyLines
 10
14616.0
 20
0.0
 30
0.0
 11
14616.0
 21
37.5
 31
0.0
  0
LINE
  5
23E
  8
MyLines
 10
14970.0
 20
0.0
 30
0.0
 11
14970.0
 21
37.5
 31
0.0
  0
TEXT
  5
23F
  8
MyLines
 62
1
 10
14617.0
 20
38.5
 30
0.0
 40
1.0
  1
7561-B
 11
14617.0
 21
38.5
 31
0.0
  0
TEXT
  5
240
  8
MyLines
 62
1
 10
14617.0
 20
1.0
 30
0.0
 40
1.0
  1
7561-A
 11
14617.0
 21
1.0
 31
0.0
  0
LINE
  5
241
  8
MyLines
 10
14616.0
 20
37.5
 30
0.0
 11
14793.0
 21
37.5
 31
0.0
  0
LINE
  5
242
  8
MyLines
 10
14795.0
 20
67.5
 30
0.0
 11
15385.0
 21
67.5
 31
0.0
  0
LINE
  5
243
  8
MyLines
 10
14795.0
 20
0.0
 30
0.0
 11
15385.0
 21
0.0
 31
0.0
  0
LINE
  5
244
  8
MyLines
 10
14795.0
 20
0.0
 30
0.0
 11
14795.0
 21
67.5
 31
0.0
  0
LINE
  5
245
  8
MyLines
 10
15385.0
 20
0.0
 30
0.0
 11
15385.0
 21
67.5
 31
0.0
  0
TEXT
  5
246
  8
MyLines
 62
1
 10
14796.0
 20
68.5
 30
0.0
 40
1.0
  1
7562-B
 11
14796.0
 21
68.5
 31
0.0
  0
TEXT
  5
247
  8
MyLines
 62
1
 10
14796.0
 20
1.0
 30
0.0
 40
1.0
  1
7562-A
 11
14796.0
 21
1.0
 31
0.0
  0
LINE
  5
248
  8
MyLines
 10
14795.0
 20
67.5
 30
0.0
 11
15090.0
 21
67.5
 31
0.0
  0
LINE
  5
249
  8
MyLines
 10
15092.0
 20
50.5
 30
0.0
 11
15476.0
 21
50.5
 31
0.0
  0
LINE
  5
24A
  8
MyLines
 10
15092.0
 20
0.0
 30
0.0
 11
15476.0
 21
0.0
 31
0.0
  0
LINE
  5
24B
  8
MyLines
 10
15092.0
 20
0.0
 30
0.0
 11
15092.0
 21
50.5
 31
0.0
  0
LINE
  5
24C
  8
MyLines
 10
15476.0
 20
0.0
 30
0.0
 11
15476.0
 21
50.5
 31
0.0
  0
TEXT
  5
24D
  8
MyLines
 62
1
 10
15093.0
 20
51.5
 30
0.0
 40
1.0
  1
7563-B
 11
15093.0
 21
51.5
 31
0.0
  0
TEXT
  5
24E
  8
MyLines
 62
1
 10
15093.0
 20
1.0
 30
0.0
 40
1.0
  1
7563-A
 11
15093.0
 21
1.0
 31
0.0
  0
LINE
  5
24F
  8
MyLines
 10
15092.0
 20
50.5
 30
0.0
 11
15284.0
 21
50.5
 31
0.0
  0
LINE
  5
250
  8
MyLines
 10
15286.0
 20
82.5
 30
0.0
 11
15852.0
 21
82.5
 31
0.0
  0
LINE
  5
251
  8
MyLines
 10
15286.0
 20
0.0
 30
0.0
 11
15852.0
 21
0.0
 31
0.0
  0
LINE
  5
252
  8
MyLines
 10
15286.0
 20
0.0
 30
0.0
 11
15286.0
 21
82.5
 31
0.0
  0
LINE
  5
253
  8
MyLines
 10
15852.0
 20
0.0
 30
0.0
 11
15852.0
 21
82.5
 31
0.0
  0
TEXT
  5
254
  8
MyLines
 62
1
 10
15287.0
 20
83.5
 30
0.0
 40
1.0
  1
7564-B
 11
15287.0
 21
83.5
 31
0.0
  0
TEXT
  5
255
  8
MyLines
 62
1
 10
15287.0
 20
1.0
 30
0.0
 40
1.0
  1
7564-A
 11
15287.0
 21
1.0
 31
0.0
  0
LINE
  5
256
  8
MyLines
 10
15286.0
 20
82.5
 30
0.0
 11
15569.0
 21
82.5
 31
0.0
  0
LINE
  5
257
  8
MyLines
 10
15571.0
 20
78.0
 30
0.0
 11
16043.0
 21
78.0
 31
0.0
  0
LINE
  5
258
  8
MyLines
 10
15571.0
 20
0.0
 30
0.0
 11
16043.0
 21
0.0
 31
0.0
  0
LINE
  5
259
  8
MyLines
 10
15571.0
 20
0.0
 30
0.0
 11
15571.0
 21
78.0
 31
0.0
  0
LINE
  5
25A
  8
MyLines
 10
16043.0
 20
0.0
 30
0.0
 11
16043.0
 21
78.0
 31
0.0
  0
TEXT
  5
25B
  8
MyLines
 62
1
 10
15572.0
 20
79.0
 30
0.0
 40
1.0
  1
7565-B
 11
15572.0
 21
79.0
 31
0.0
  0
TEXT
  5
25C
  8
MyLines
 62
1
 10
15572.0
 20
1.0
 30
0.0
 40
1.0
  1
7565-A
 11
15572.0
 21
1.0
 31
0.0
  0
LINE
  5
25D
  8
MyLines
 10
15571.0
 20
78.0
 30
0.0
 11
15807.0
 21
78.0
 31
0.0
  0
LINE
  5
25E
  8
MyLines
 10
15809.0
 20
89.0
 30
0.0
 11
16159.0
 21
89.0
 31
0.0
  0
LINE
  5
25F
  8
MyLines
 10
15809.0
 20
0.0
 30
0.0
 11
16159.0
 21
0.0
 31
0.0
  0
LINE
  5
260
  8
MyLines
 10
15809.0
 20
0.0
 30
0.0
 11
15809.0
 21
89.0
 31
0.0
  0
LINE
  5
261
  8
MyLines
 10
16159.0
 20
0.0
 30
0.0
 11
16159.0
 21
89.0
 31
0.0
  0
TEXT
  5
262
  8
MyLines
 62
1
 10
15810.0
 20
90.0
 30
0.0
 40
1.0
  1
7566-B
 11
15810.0
 21
90.0
 31
0.0
  0
TEXT
  5
263
  8
MyLines
 62
1
 10
15810.0
 20
1.0
 30
0.0
 40
1.0
  1
7566-A
 11
15810.0
 21
1.0
 31
0.0
  0
LINE
  5
264
  8
MyLines
 10
15809.0
 20
89.0
 30
0.0
 11
15984.0
 21
89.0
 31
0.0
  0
LINE
  5
265
  8
MyLines
 10
15986.0
 20
43.0
 30
0.0
 11
16502.0
 21
43.0
 31
0.0
  0
LINE
  5
266
  8
MyLines
 10
15986.0
 20
0.0
 30
0.0
 11
16502.0
 21
0.0
 31
0.0
  0
LINE
  5
267
  8
MyLines
 10
15986.0
 20
0.0
 30
0.0
 11
15986.0
 21
43.0
 31
0.0
  0
LINE
  5
268
  8
MyLines
 10
16502.0
 20
0.0
 30
0.0
 11
16502.0
 21
43.0
 31
0.0
  0
TEXT
  5
269
  8
MyLines
 62
1
 10
15987.0
 20
44.0
 30
0.0
 40
1.0
  1
7567-B
 11
15987.0
 21
44.0
 31
0.0
  0
TEXT
  5
26A
  8
MyLines
 62
1
 10
15987.0
 20
1.0
 30
0.0
 40
1.0
  1
7567-A
 11
15987.0
 21
1.0
 31
0.0
  0
LINE
  5
26B
  8
MyLines
 10
15986.0
 20
43.0
 30
0.0
 11
16244.0
 21
43.0
 31
0.0
  0
LINE
  5
26C
  8
MyLines
 10
16246.0
 20
67.0
 30
0.0
 11
16648.0
 21
67.0
 31
0.0
  0
LINE
  5
26D
  8
MyLines
 10
16246.0
 20
0.0
 30
0.0
 11
16648.0
 21
0.0
 31
0.0
  0
LINE
  5
26E
  8
MyLines
 10
16246.0
 20
0.0
 30
0.0
 11
16246.0
 21
67.0
 31
0.0
  0
LINE
  5
26F
  8
MyLines
 10
16648.0
 20
0.0
 30
0.0
 11
16648.0
 21
67.0
 31
0.0
  0
TEXT
  5
270
  8
MyLines
 62
1
 10
16247.0
 20
68.0
 30
0.0
 40
1.0
  1
7568-B
 11
16247.0
 21
68.0
 31
0.0
  0
TEXT
  5
271
  8
MyLines
 62
1
 10
16247.0
 20
1.0
 30
0.0
 40
1.0
  1
7568-A
 11
16247.0
 21
1.0
 31
0.0
  0
LINE
  5
272
  8
MyLines
 10
16246.0
 20
67.0
 30
0.0
 11
16447.0
 21
67.0
 31
0.0
  0
LINE
  5
273
  8
MyLines
 10
16449.0
 20
49.0
 30
0.0
 11
17047.0
 21
49.0
 31
0.0
  0
LINE
  5
274
  8
MyLines
 10
16449.0
 20
0.0
 30
0.0
 11
17047.0
 21
0.0
 31
0.0
  0
LINE
  5
275
  8
MyLines
 10
16449.0
 20
0.0
 30
0.0
 11
16449.0
 21
49.0
 31
0.0
  0
LINE
  5
276
  8
MyLines
 10
17047.0
 20
0.0
 30
0.0
 11
17047.0
 21
49.0
 31
0.0
  0
TEXT
  5
277
  8
MyLines
 62
1
 10
16450.0
 20
50.0
 30
0.0
 40
1.0
  1
7569-B
 11
16450.0
 21
50.0
 31
0.0
  0
TEXT
  5
278
  8
MyLines
 62
1
 10
16450.0
 20
1.0
 30
0.0
 40
1.0
  1
7569-A
 11
16450.0
 21
1.0
 31
0.0
  0
LINE
  5
279
  8
MyLines
 10
16449.0
 20
49.0
 30
0.0
 11
16748.0
 21
49.0
 31
0.0
  0
LINE
  5
27A
  8
MyLines
 10
16750.0
 20
48.5
 30
0.0
 11
17150.0
 21
48.5
 31
0.0
  0
LINE
  5
27B
  8
MyLines
 10
16750.0
 20
0.0
 30
0.0
 11
17150.0
 21
0.0
 31
0.0
  0
LINE
  5
27C
  8
MyLines
 10
16750.0
 20
0.0
 30
0.0
 11
16750.0
 21
48.5
 31
0.0
  0
LINE
  5
27D
  8
MyLines
 10
17150.0
 20
0.0
 30
0.0
 11
17150.0
 21
48.5
 31
0.0
  0
TEXT
  5
27E
  8
MyLines
 62
1
 10
16751.0
 20
49.5
 30
0.0
 40
1.0
  1
7570-B
 11
16751.0
 21
49.5
 31
0.0
  0
TEXT
  5
27F
  8
MyLines
 62
1
 10
16751.0
 20
1.0
 30
0.0
 40
1.0
  1
7570-A
 11
16751.0
 21
1.0
 31
0.0
  0
LINE
  5
280
  8
MyLines
 10
16750.0
 20
48.5
 30
0.0
 11
16950.0
 21
48.5
 31
0.0
  0
LINE
  5
281
  8
MyLines
 10
16952.0
 20
62.5
 30
0.0
 11
17440.0
 21
62.5
 31
0.0
  0
LINE
  5
282
  8
MyLines
 10
16952.0
 20
0.0
 30
0.0
 11
17440.0
 21
0.0
 31
0.0
  0
LINE
  5
283
  8
MyLines
 10
16952.0
 20
0.0
 30
0.0
 11
16952.0
 21
62.5
 31
0.0
  0
LINE
  5
284
  8
MyLines
 10
17440.0
 20
0.0
 30
0.0
 11
17440.0
 21
62.5
 31
0.0
  0
TEXT
  5
285
  8
MyLines
 62
1
 10
16953.0
 20
63.5
 30
0.0
 40
1.0
  1
7571-B
 11
16953.0
 21
63.5
 31
0.0
  0
TEXT
  5
286
  8
MyLines
 62
1
 10
16953.0
 20
1.0
 30
0.0
 40
1.0
  1
7571-A
 11
16953.0
 21
1.0
 31
0.0
  0
LINE
  5
287
  8
MyLines
 10
16952.0
 20
62.5
 30
0.0
 11
17196.0
 21
62.5
 31
0.0
  0
LINE
  5
288
  8
MyLines
 10
17198.0
 20
79.0
 30
0.0
 11
17796.0
 21
79.0
 31
0.0
  0
LINE
  5
289
  8
MyLines
 10
17198.0
 20
0.0
 30
0.0
 11
17796.0
 21
0.0
 31
0.0
  0
LINE
  5
28A
  8
MyLines
 10
17198.0
 20
0.0
 30
0.0
 11
17198.0
 21
79.0
 31
0.0
  0
LINE
  5
28B
  8
MyLines
 10
17796.0
 20
0.0
 30
0.0
 11
17796.0
 21
79.0
 31
0.0
  0
TEXT
  5
28C
  8
MyLines
 62
1
 10
17199.0
 20
80.0
 30
0.0
 40
1.0
  1
7572-B
 11
17199.0
 21
80.0
 31
0.0
  0
TEXT
  5
28D
  8
MyLines
 62
1
 10
17199.0
 20
1.0
 30
0.0
 40
1.0
  1
7572-A
 11
17199.0
 21
1.0
 31
0.0
  0
LINE
  5
28E
  8
MyLines
 10
17198.0
 20
79.0
 30
0.0
 11
17497.0
 21
79.0
 31
0.0
  0
LINE
  5
28F
  8
MyLines
 10
17499.0
 20
58.5
 30
0.0
 11
18093.0
 21
58.5
 31
0.0
  0
LINE
  5
290
  8
MyLines
 10
17499.0
 20
0.0
 30
0.0
 11
18093.0
 21
0.0
 31
0.0
  0
LINE
  5
291
  8
MyLines
 10
17499.0
 20
0.0
 30
0.0
 11
17499.0
 21
58.5
 31
0.0
  0
LINE
  5
292
  8
MyLines
 10
18093.0
 20
0.0
 30
0.0
 11
18093.0
 21
58.5
 31
0.0
  0
TEXT
  5
293
  8
MyLines
 62
1
 10
17500.0
 20
59.5
 30
0.0
 40
1.0
  1
7573-B
 11
17500.0
 21
59.5
 31
0.0
  0
TEXT
  5
294
  8
MyLines
 62
1
 10
17500.0
 20
1.0
 30
0.0
 40
1.0
  1
7573-A
 11
17500.0
 21
1.0
 31
0.0
  0
LINE
  5
295
  8
MyLines
 10
17499.0
 20
58.5
 30
0.0
 11
17796.0
 21
58.5
 31
0.0
  0
LINE
  5
296
  8
MyLines
 10
17798.0
 20
71.0
 30
0.0
 11
18202.0
 21
71.0
 31
0.0
  0
LINE
  5
297
  8
MyLines
 10
17798.0
 20
0.0
 30
0.0
 11
18202.0
 21
0.0
 31
0.0
  0
LINE
  5
298
  8
MyLines
 10
17798.0
 20
0.0
 30
0.0
 11
17798.0
 21
71.0
 31
0.0
  0
LINE
  5
299
  8
MyLines
 10
18202.0
 20
0.0
 30
0.0
 11
18202.0
 21
71.0
 31
0.0
  0
TEXT
  5
29A
  8
MyLines
 62
1
 10
17799.0
 20
72.0
 30
0.0
 40
1.0
  1
7574-B
 11
17799.0
 21
72.0
 31
0.0
  0
TEXT
  5
29B
  8
MyLines
 62
1
 10
17799.0
 20
1.0
 30
0.0
 40
1.0
  1
7574-A
 11
17799.0
 21
1.0
 31
0.0
  0
LINE
  5
29C
  8
MyLines
 10
17798.0
 20
71.0
 30
0.0
 11
18000.0
 21
71.0
 31
0.0
  0
LINE
  5
29D
  8
MyLines
 10
18002.0
 20
42.0
 30
0.0
 11
18400.0
 21
42.0
 31
0.0
  0
LINE
  5
29E
  8
MyLines
 10
18002.0
 20
0.0
 30
0.0
 11
18400.0
 21
0.0
 31
0.0
  0
LINE
  5
29F
  8
MyLines
 10
18002.0
 20
0.0
 30
0.0
 11
18002.0
 21
42.0
 31
0.0
  0
LINE
  5
2A0
  8
MyLines
 10
18400.0
 20
0.0
 30
0.0
 11
18400.0
 21
42.0
 31
0.0
  0
TEXT
  5
2A1
  8
MyLines
 62
1
 10
18003.0
 20
43.0
 30
0.0
 40
1.0
  1
7575-B
 11
18003.0
 21
43.0
 31
0.0
  0
TEXT
  5
2A2
  8
MyLines
 62
1
 10
18003.0
 20
1.0
 30
0.0
 40
1.0
  1
7575-A
 11
18003.0
 21
1.0
 31
0.0
  0
LINE
  5
2A3
  8
MyLines
 10
18002.0
 20
42.0
 30
0.0
 11
18201.0
 21
42.0
 31
0.0
  0
LINE
  5
2A4
  8
MyLines
 10
18203.0
 20
83.5
 30
0.0
 11
18589.0
 21
83.5
 31
0.0
  0
LINE
  5
2A5
  8
MyLines
 10
18203.0
 20
0.0
 30
0.0
 11
18589.0
 21
0.0
 31
0.0
  0
LINE
  5
2A6
  8
MyLines
 10
18203.0
 20
0.0
 30
0.0
 11
18203.0
 21
83.5
 31
0.0
  0
LINE
  5
2A7
  8
MyLines
 10
18589.0
 20
0.0
 30
0.0
 11
18589.0
 21
83.5
 31
0.0
  0
TEXT
  5
2A8
  8
MyLines
 62
1
 10
18204.0
 20
84.5
 30
0.0
 40
1.0
  1
7576-B
 11
18204.0
 21
84.5
 31
0.0
  0
TEXT
  5
2A9
  8
MyLines
 62
1
 10
18204.0
 20
1.0
 30
0.0
 40
1.0
  1
7576-A
 11
18204.0
 21
1.0
 31
0.0
  0
LINE
  5
2AA
  8
MyLines
 10
18203.0
 20
83.5
 30
0.0
 11
18396.0
 21
83.5
 31
0.0
  0
LINE
  5
2AB
  8
MyLines
 10
18398.0
 20
41.0
 30
0.0
 11
18946.0
 21
41.0
 31
0.0
  0
LINE
  5
2AC
  8
MyLines
 10
18398.0
 20
0.0
 30
0.0
 11
18946.0
 21
0.0
 31
0.0
  0
LINE
  5
2AD
  8
MyLines
 10
18398.0
 20
0.0
 30
0.0
 11
18398.0
 21
41.0
 31
0.0
  0
LINE
  5
2AE
  8
MyLines
 10
18946.0
 20
0.0
 30
0.0
 11
18946.0
 21
41.0
 31
0.0
  0
TEXT
  5
2AF
  8
MyLines
 62
1
 10
18399.0
 20
42.0
 30
0.0
 40
1.0
  1
7577-B
 11
18399.0
 21
42.0
 31
0.0
  0
TEXT
  5
2B0
  8
MyLines
 62
1
 10
18399.0
 20
1.0
 30
0.0
 40
1.0
  1
7577-A
 11
18399.0
 21
1.0
 31
0.0
  0
LINE
  5
2B1
  8
MyLines
 10
18398.0
 20
41.0
 30
0.0
 11
18672.0
 21
41.0
 31
0.0
  0
LINE
  5
2B2
  8
MyLines
 10
18674.0
 20
73.5
 30
0.0
 11
19232.0
 21
73.5
 31
0.0
  0
LINE
  5
2B3
  8
MyLines
 10
18674.0
 20
0.0
 30
0.0
 11
19232.0
 21
0.0
 31
0.0
  0
LINE
  5
2B4
  8
MyLines
 10
18674.0
 20
0.0
 30
0.0
 11
18674.0
 21
73.5
 31
0.0
  0
LINE
  5
2B5
  8
MyLines
 10
19232.0
 20
0.0
 30
0.0
 11
19232.0
 21
73.5
 31
0.0
  0
TEXT
  5
2B6
  8
MyLines
 62
1
 10
18675.0
 20
74.5
 30
0.0
 40
1.0
  1
7578-B
 11
18675.0
 21
74.5
 31
0.0
  0
TEXT
  5
2B7
  8
MyLines
 62
1
 10
18675.0
 20
1.0
 30
0.0
 40
1.0
  1
7578-A
 11
18675.0
 21
1.0
 31
0.0
  0
LINE
  5
2B8
  8
MyLines
 10
18674.0
 20
73.5
 30
0.0
 11
18953.0
 21
73.5
 31
0.0
  0
LINE
  5
2B9
  8
MyLines
 10
18955.0
 20
40.0
 30
0.0
 11
19345.0
 21
40.0
 31
0.0
  0
LINE
  5
2BA
  8
MyLines
 10
18955.0
 20
0.0
 30
0.0
 11
19345.0
 21
0.0
 31
0.0
  0
LINE
  5
2BB
  8
MyLines
 10
18955.0
 20
0.0
 30
0.0
 11
18955.0
 21
40.0
 31
0.0
  0
LINE
  5
2BC
  8
MyLines
 10
19345.0
 20
0.0
 30
0.0
 11
19345.0
 21
40.0
 31
0.0
  0
TEXT
  5
2BD
  8
MyLines
 62
1
 10
18956.0
 20
41.0
 30
0.0
 40
1.0
  1
7579-B
 11
18956.0
 21
41.0
 31
0.0
  0
TEXT
  5
2BE
  8
MyLines
 62
1
 10
18956.0
 20
1.0
 30
0.0
 40
1.0
  1
7579-A
 11
18956.0
 21
1.0
 31
0.0
  0
LINE
  5
2BF
  8
MyLines
 10
18955.0
 20
40.0
 30
0.0
 11
19150.0
 21
40.0
 31
0.0
  0
LINE
  5
2C0
  8
MyLines
 10
19152.0
 20
69.5
 30
0.0
 11
19582.0
 21
69.5
 31
0.0
  0
LINE
  5
2C1
  8
MyLines
 10
19152.0
 20
0.0
 30
0.0
 11
19582.0
 21
0.0
 31
0.0
  0
LINE
  5
2C2
  8
MyLines
 10
19152.0
 20
0.0
 30
0.0
 11
19152.0
 21
69.5
 31
0.0
  0
LINE
  5
2C3
  8
MyLines
 10
19582.0
 20
0.0
 30
0.0
 11
19582.0
 21
69.5
 31
0.0
  0
TEXT
  5
2C4
  8
MyLines
 62
1
 10
19153.0
 20
70.5
 30
0.0
 40
1.0
  1
7580-B
 11
19153.0
 21
70.5
 31
0.0
  0
TEXT
  5
2C5
  8
MyLines
 62
1
 10
19153.0
 20
1.0
 30
0.0
 40
1.0
  1
7580-A
 11
19153.0
 21
1.0
 31
0.0
  0
LINE
  5
2C6
  8
MyLines
 10
19152.0
 20
69.5
 30
0.0
 11
19367.0
 21
69.5
 31
0.0
  0
LINE
  5
2C7
  8
MyLines
 10
19369.0
 20
59.0
 30
0.0
 11
19771.0
 21
59.0
 31
0.0
  0
LINE
  5
2C8
  8
MyLines
 10
19369.0
 20
0.0
 30
0.0
 11
19771.0
 21
0.0
 31
0.0
  0
LINE
  5
2C9
  8
MyLines
 10
19369.0
 20
0.0
 30
0.0
 11
19369.0
 21
59.0
 31
0.0
  0
LINE
  5
2CA
  8
MyLines
 10
19771.0
 20
0.0
 30
0.0
 11
19771.0
 21
59.0
 31
0.0
  0
TEXT
  5
2CB
  8
MyLines
 62
1
 10
19370.0
 20
60.0
 30
0.0
 40
1.0
  1
7581-B
 11
19370.0
 21
60.0
 31
0.0
  0
TEXT
  5
2CC
  8
MyLines
 62
1
 10
19370.0
 20
1.0
 30
0.0
 40
1.0
  1
7581-A
 11
19370.0
 21
1.0
 31
0.0
  0
LINE
  5
2CD
  8
MyLines
 10
19369.0
 20
59.0
 30
0.0
 11
19570.0
 21
59.0
 31
0.0
  0
LINE
  5
2CE
  8
MyLines
 10
19572.0
 20
81.5
 30
0.0
 11
19944.0
 21
81.5
 31
0.0
  0
LINE
  5
2CF
  8
MyLines
 10
19572.0
 20
0.0
 30
0.0
 11
19944.0
 21
0.0
 31
0.0
  0
LINE
  5
2D0
  8
MyLines
 10
19572.0
 20
0.0
 30
0.0
 11
19572.0
 21
81.5
 31
0.0
  0
LINE
  5
2D1
  8
MyLines
 10
19944.0
 20
0.0
 30
0.0
 11
19944.0
 21
81.5
 31
0.0
  0
TEXT
  5
2D2
  8
MyLines
 62
1
 10
19573.0
 20
82.5
 30
0.0
 40
1.0
  1
7582-B
 11
19573.0
 21
82.5
 31
0.0
  0
TEXT
  5
2D3
  8
MyLines
 62
1
 10
19573.0
 20
1.0
 30
0.0
 40
1.0
  1
7582-A
 11
19573.0
 21
1.0
 31
0.0
  0
LINE
  5
2D4
  8
MyLines
 10
19572.0
 20
81.5
 30
0.0
 11
19758.0
 21
81.5
 31
0.0
  0
LINE
  5
2D5
  8
MyLines
 10
19760.0
 20
57.0
 30
0.0
 11
20162.0
 21
57.0
 31
0.0
  0
LINE
  5
2D6
  8
MyLines
 10
19760.0
 20
0.0
 30
0.0
 11
20162.0
 21
0.0
 31
0.0
  0
LINE
  5
2D7
  8
MyLines
 10
19760.0
 20
0.0
 30
0.0
 11
19760.0
 21
57.0
 31
0.0
  0
LINE
  5
2D8
  8
MyLines
 10
20162.0
 20
0.0
 30
0.0
 11
20162.0
 21
57.0
 31
0.0
  0
TEXT
  5
2D9
  8
MyLines
 62
1
 10
19761.0
 20
58.0
 30
0.0
 40
1.0
  1
7583-B
 11
19761.0
 21
58.0
 31
0.0
  0
TEXT
  5
2DA
  8
MyLines
 62
1
 10
19761.0
 20
1.0
 30
0.0
 40
1.0
  1
7583-A
 11
19761.0
 21
1.0
 31
0.0
  0
LINE
  5
2DB
  8
MyLines
 10
19760.0
 20
57.0
 30
0.0
 11
19961.0
 21
57.0
 31
0.0
  0
LINE
  5
2DC
  8
MyLines
 10
19963.0
 20
40.0
 30
0.0
 11
20389.0
 21
40.0
 31
0.0
  0
LINE
  5
2DD
  8
MyLines
 10
19963.0
 20
0.0
 30
0.0
 11
20389.0
 21
0.0
 31
0.0
  0
LINE
  5
2DE
  8
MyLines
 10
19963.0
 20
0.0
 30
0.0
 11
19963.0
 21
40.0
 31
0.0
  0
LINE
  5
2DF
  8
MyLines
 10
20389.0
 20
0.0
 30
0.0
 11
20389.0
 21
40.0
 31
0.0
  0
TEXT
  5
2E0
  8
MyLines
 62
1
 10
19964.0
 20
41.0
 30
0.0
 40
1.0
  1
7584-B
 11
19964.0
 21
41.0
 31
0.0
  0
TEXT
  5
2E1
  8
MyLines
 62
1
 10
19964.0
 20
1.0
 30
0.0
 40
1.0
  1
7584-A
 11
19964.0
 21
1.0
 31
0.0
  0
LINE
  5
2E2
  8
MyLines
 10
19963.0
 20
40.0
 30
0.0
 11
20176.0
 21
40.0
 31
0.0
  0
LINE
  5
2E3
  8
MyLines
 10
20178.0
 20
44.0
 30
0.0
 11
20656.0
 21
44.0
 31
0.0
  0
LINE
  5
2E4
  8
MyLines
 10
20178.0
 20
0.0
 30
0.0
 11
20656.0
 21
0.0
 31
0.0
  0
LINE
  5
2E5
  8
MyLines
 10
20178.0
 20
0.0
 30
0.0
 11
20178.0
 21
44.0
 31
0.0
  0
LINE
  5
2E6
  8
MyLines
 10
20656.0
 20
0.0
 30
0.0
 11
20656.0
 21
44.0
 31
0.0
  0
TEXT
  5
2E7
  8
MyLines
 62
1
 10
20179.0
 20
45.0
 30
0.0
 40
1.0
  1
7585-B
 11
20179.0
 21
45.0
 31
0.0
  0
TEXT
  5
2E8
  8
MyLines
 62
1
 10
20179.0
 20
1.0
 30
0.0
 40
1.0
  1
7585-A
 11
20179.0
 21
1.0
 31
0.0
  0
LINE
  5
2E9
  8
MyLines
 10
20178.0
 20
44.0
 30
0.0
 11
20417.0
 21
44.0
 31
0.0
  0
LINE
  5
2EA
  8
MyLines
 10
20419.0
 20
87.0
 30
0.0
 11
20851.0
 21
87.0
 31
0.0
  0
LINE
  5
2EB
  8
MyLines
 10
20419.0
 20
0.0
 30
0.0
 11
20851.0
 21
0.0
 31
0.0
  0
LINE
  5
2EC
  8
MyLines
 10
20419.0
 20
0.0
 30
0.0
 11
20419.0
 21
87.0
 31
0.0
  0
LINE
  5
2ED
  8
MyLines
 10
20851.0
 20
0.0
 30
0.0
 11
20851.0
 21
87.0
 31
0.0
  0
TEXT
  5
2EE
  8
MyLines
 62
1
 10
20420.0
 20
88.0
 30
0.0
 40
1.0
  1
7586-B
 11
20420.0
 21
88.0
 31
0.0
  0
TEXT
  5
2EF
  8
MyLines
 62
1
 10
20420.0
 20
1.0
 30
0.0
 40
1.0
  1
7586-A
 11
20420.0
 21
1.0
 31
0.0
  0
LINE
  5
2F0
  8
MyLines
 10
20419.0
 20
87.0
 30
0.0
 11
20635.0
 21
87.0
 31
0.0
  0
LINE
  5
2F1
  8
MyLines
 10
20637.0
 20
41.0
 30
0.0
 11
21165.0
 21
41.0
 31
0.0
  0
LINE
  5
2F2
  8
MyLines
 10
20637.0
 20
0.0
 30
0.0
 11
21165.0
 21
0.0
 31
0.0
  0
LINE
  5
2F3
  8
MyLines
 10
20637.0
 20
0.0
 30
0.0
 11
20637.0
 21
41.0
 31
0.0
  0
LINE
  5
2F4
  8
MyLines
 10
21165.0
 20
0.0
 30
0.0
 11
21165.0
 21
41.0
 31
0.0
  0
TEXT
  5
2F5
  8
MyLines
 62
1
 10
20638.0
 20
42.0
 30
0.0
 40
1.0
  1
7587-B
 11
20638.0
 21
42.0
 31
0.0
  0
TEXT
  5
2F6
  8
MyLines
 62
1
 10
20638.0
 20
1.0
 30
0.0
 40
1.0
  1
7587-A
 11
20638.0
 21
1.0
 31
0.0
  0
LINE
  5
2F7
  8
MyLines
 10
20637.0
 20
41.0
 30
0.0
 11
20901.0
 21
41.0
 31
0.0
  0
LINE
  5
2F8
  8
MyLines
 10
20903.0
 20
42.5
 30
0.0
 11
21281.0
 21
42.5
 31
0.0
  0
LINE
  5
2F9
  8
MyLines
 10
20903.0
 20
0.0
 30
0.0
 11
21281.0
 21
0.0
 31
0.0
  0
LINE
  5
2FA
  8
MyLines
 10
20903.0
 20
0.0
 30
0.0
 11
20903.0
 21
42.5
 31
0.0
  0
LINE
  5
2FB
  8
MyLines
 10
21281.0
 20
0.0
 30
0.0
 11
21281.0
 21
42.5
 31
0.0
  0
TEXT
  5
2FC
  8
MyLines
 62
1
 10
20904.0
 20
43.5
 30
0.0
 40
1.0
  1
7588-B
 11
20904.0
 21
43.5
 31
0.0
  0
TEXT
  5
2FD
  8
MyLines
 62
1
 10
20904.0
 20
1.0
 30
0.0
 40
1.0
  1
7588-A
 11
20904.0
 21
1.0
 31
0.0
  0
LINE
  5
2FE
  8
MyLines
 10
20903.0
 20
42.5
 30
0.0
 11
21092.0
 21
42.5
 31
0.0
  0
LINE
  5
2FF
  8
MyLines
 10
21094.0
 20
69.0
 30
0.0
 11
21518.0
 21
69.0
 31
0.0
  0
LINE
  5
300
  8
MyLines
 10
21094.0
 20
0.0
 30
0.0
 11
21518.0
 21
0.0
 31
0.0
  0
LINE
  5
301
  8
MyLines
 10
21094.0
 20
0.0
 30
0.0
 11
21094.0
 21
69.0
 31
0.0
  0
LINE
  5
302
  8
MyLines
 10
21518.0
 20
0.0
 30
0.0
 11
21518.0
 21
69.0
 31
0.0
  0
TEXT
  5
303
  8
MyLines
 62
1
 10
21095.0
 20
70.0
 30
0.0
 40
1.0
  1
7589-B
 11
21095.0
 21
70.0
 31
0.0
  0
TEXT
  5
304
  8
MyLines
 62
1
 10
21095.0
 20
1.0
 30
0.0
 40
1.0
  1
7589-A
 11
21095.0
 21
1.0
 31
0.0
  0
LINE
  5
305
  8
MyLines
 10
21094.0
 20
69.0
 30
0.0
 11
21306.0
 21
69.0
 31
0.0
  0
LINE
  5
306
  8
MyLines
 10
21308.0
 20
59.0
 30
0.0
 11
21730.0
 21
59.0
 31
0.0
  0
LINE
  5
307
  8
MyLines
 10
21308.0
 20
0.0
 30
0.0
 11
21730.0
 21
0.0
 31
0.0
  0
LINE
  5
308
  8
MyLines
 10
21308.0
 20
0.0
 30
0.0
 11
21308.0
 21
59.0
 31
0.0
  0
LINE
  5
309
  8
MyLines
 10
21730.0
 20
0.0
 30
0.0
 11
21730.0
 21
59.0
 31
0.0
  0
TEXT
  5
30A
  8
MyLines
 62
1
 10
21309.0
 20
60.0
 30
0.0
 40
1.0
  1
7590-B
 11
21309.0
 21
60.0
 31
0.0
  0
TEXT
  5
30B
  8
MyLines
 62
1
 10
21309.0
 20
1.0
 30
0.0
 40
1.0
  1
7590-A
 11
21309.0
 21
1.0
 31
0.0
  0
LINE
  5
30C
  8
MyLines
 10
21308.0
 20
59.0
 30
0.0
 11
21519.0
 21
59.0
 31
0.0
  0
LINE
  5
30D
  8
MyLines
 10
21521.0
 20
68.5
 30
0.0
 11
21981.0
 21
68.5
 31
0.0
  0
LINE
  5
30E
  8
MyLines
 10
21521.0
 20
0.0
 30
0.0
 11
21981.0
 21
0.0
 31
0.0
  0
LINE
  5
30F
  8
MyLines
 10
21521.0
 20
0.0
 30
0.0
 11
21521.0
 21
68.5
 31
0.0
  0
LINE
  5
310
  8
MyLines
 10
21981.0
 20
0.0
 30
0.0
 11
21981.0
 21
68.5
 31
0.0
  0
TEXT
  5
311
  8
MyLines
 62
1
 10
21522.0
 20
69.5
 30
0.0
 40
1.0
  1
7591-B
 11
21522.0
 21
69.5
 31
0.0
  0
TEXT
  5
312
  8
MyLines
 62
1
 10
21522.0
 20
1.0
 30
0.0
 40
1.0
  1
7591-A
 11
21522.0
 21
1.0
 31
0.0
  0
LINE
  5
313
  8
MyLines
 10
21521.0
 20
68.5
 30
0.0
 11
21751.0
 21
68.5
 31
0.0
  0
LINE
  5
314
  8
MyLines
 10
21753.0
 20
52.0
 30
0.0
 11
22117.0
 21
52.0
 31
0.0
  0
LINE
  5
315
  8
MyLines
 10
21753.0
 20
0.0
 30
0.0
 11
22117.0
 21
0.0
 31
0.0
  0
LINE
  5
316
  8
MyLines
 10
21753.0
 20
0.0
 30
0.0
 11
21753.0
 21
52.0
 31
0.0
  0
LINE
  5
317
  8
MyLines
 10
22117.0
 20
0.0
 30
0.0
 11
22117.0
 21
52.0
 31
0.0
  0
TEXT
  5
318
  8
MyLines
 62
1
 10
21754.0
 20
53.0
 30
0.0
 40
1.0
  1
7592-B
 11
21754.0
 21
53.0
 31
0.0
  0
TEXT
  5
319
  8
MyLines
 62
1
 10
21754.0
 20
1.0
 30
0.0
 40
1.0
  1
7592-A
 11
21754.0
 21
1.0
 31
0.0
  0
LINE
  5
31A
  8
MyLines
 10
21753.0
 20
52.0
 30
0.0
 11
21935.0
 21
52.0
 31
0.0
  0
LINE
  5
31B
  8
MyLines
 10
21937.0
 20
74.5
 30
0.0
 11
22475.0
 21
74.5
 31
0.0
  0
LINE
  5
31C
  8
MyLines
 10
21937.0
 20
0.0
 30
0.0
 11
22475.0
 21
0.0
 31
0.0
  0
LINE
  5
31D
  8
MyLines
 10
21937.0
 20
0.0
 30
0.0
 11
21937.0
 21
74.5
 31
0.0
  0
LINE
  5
31E
  8
MyLines
 10
22475.0
 20
0.0
 30
0.0
 11
22475.0
 21
74.5
 31
0.0
  0
TEXT
  5
31F
  8
MyLines
 62
1
 10
21938.0
 20
75.5
 30
0.0
 40
1.0
  1
7593-B
 11
21938.0
 21
75.5
 31
0.0
  0
TEXT
  5
320
  8
MyLines
 62
1
 10
21938.0
 20
1.0
 30
0.0
 40
1.0
  1
7593-A
 11
21938.0
 21
1.0
 31
0.0
  0
LINE
  5
321
  8
MyLines
 10
21937.0
 20
74.5
 30
0.0
 11
22206.0
 21
74.5
 31
0.0
  0
LINE
  5
322
  8
MyLines
 10
22208.0
 20
39.0
 30
0.0
 11
22672.0
 21
39.0
 31
0.0
  0
LINE
  5
323
  8
MyLines
 10
22208.0
 20
0.0
 30
0.0
 11
22672.0
 21
0.0
 31
0.0
  0
LINE
  5
324
  8
MyLines
 10
22208.0
 20
0.0
 30
0.0
 11
22208.0
 21
39.0
 31
0.0
  0
LINE
  5
325
  8
MyLines
 10
22672.0
 20
0.0
 30
0.0
 11
22672.0
 21
39.0
 31
0.0
  0
TEXT
  5
326
  8
MyLines
 62
1
 10
22209.0
 20
40.0
 30
0.0
 40
1.0
  1
7594-B
 11
22209.0
 21
40.0
 31
0.0
  0
TEXT
  5
327
  8
MyLines
 62
1
 10
22209.0
 20
1.0
 30
0.0
 40
1.0
  1
7594-A
 11
22209.0
 21
1.0
 31
0.0
  0
LINE
  5
328
  8
MyLines
 10
22208.0
 20
39.0
 30
0.0
 11
22440.0
 21
39.0
 31
0.0
  0
LINE
  5
329
  8
MyLines
 10
22442.0
 20
39.5
 30
0.0
 11
22836.0
 21
39.5
 31
0.0
  0
LINE
  5
32A
  8
MyLines
 10
22442.0
 20
0.0
 30
0.0
 11
22836.0
 21
0.0
 31
0.0
  0
LINE
  5
32B
  8
MyLines
 10
22442.0
 20
0.0
 30
0.0
 11
22442.0
 21
39.5
 31
0.0
  0
LINE
  5
32C
  8
MyLines
 10
22836.0
 20
0.0
 30
0.0
 11
22836.0
 21
39.5
 31
0.0
  0
TEXT
  5
32D
  8
MyLines
 62
1
 10
22443.0
 20
40.5
 30
0.0
 40
1.0
  1
7595-B
 11
22443.0
 21
40.5
 31
0.0
  0
TEXT
  5
32E
  8
MyLines
 62
1
 10
22443.0
 20
1.0
 30
0.0
 40
1.0
  1
7595-A
 11
22443.0
 21
1.0
 31
0.0
  0
LINE
  5
32F
  8
MyLines
 10
22442.0
 20
39.5
 30
0.0
 11
22639.0
 21
39.5
 31
0.0
  0
LINE
  5
330
  8
MyLines
 10
22641.0
 20
74.0
 30
0.0
 11
23215.0
 21
74.0
 31
0.0
  0
LINE
  5
331
  8
MyLines
 10
22641.0
 20
0.0
 30
0.0
 11
23215.0
 21
0.0
 31
0.0
  0
LINE
  5
332
  8
MyLines
 10
22641.0
 20
0.0
 30
0.0
 11
22641.0
 21
74.0
 31
0.0
  0
LINE
  5
333
  8
MyLines
 10
23215.0
 20
0.0
 30
0.0
 11
23215.0
 21
74.0
 31
0.0
  0
TEXT
  5
334
  8
MyLines
 62
1
 10
22642.0
 20
75.0
 30
0.0
 40
1.0
  1
7596-B
 11
22642.0
 21
75.0
 31
0.0
  0
TEXT
  5
335
  8
MyLines
 62
1
 10
22642.0
 20
1.0
 30
0.0
 40
1.0
  1
7596-A
 11
22642.0
 21
1.0
 31
0.0
  0
LINE
  5
336
  8
MyLines
 10
22641.0
 20
74.0
 30
0.0
 11
22928.0
 21
74.0
 31
0.0
  0
LINE
  5
337
  8
MyLines
 10
22930.0
 20
86.5
 30
0.0
 11
23302.0
 21
86.5
 31
0.0
  0
LINE
  5
338
  8
MyLines
 10
22930.0
 20
0.0
 30
0.0
 11
23302.0
 21
0.0
 31
0.0
  0
LINE
  5
339
  8
MyLines
 10
22930.0
 20
0.0
 30
0.0
 11
22930.0
 21
86.5
 31
0.0
  0
LINE
  5
33A
  8
MyLines
 10
23302.0
 20
0.0
 30
0.0
 11
23302.0
 21
86.5
 31
0.0
  0
TEXT
  5
33B
  8
MyLines
 62
1
 10
22931.0
 20
87.5
 30
0.0
 40
1.0
  1
7597-B
 11
22931.0
 21
87.5
 31
0.0
  0
TEXT
  5
33C
  8
MyLines
 62
1
 10
22931.0
 20
1.0
 30
0.0
 40
1.0
  1
7597-A
 11
22931.0
 21
1.0
 31
0.0
  0
LINE
  5
33D
  8
MyLines
 10
22930.0
 20
86.5
 30
0.0
 11
23116.0
 21
86.5
 31
0.0
  0
LINE
  5
33E
  8
MyLines
 10
23118.0
 20
68.5
 30
0.0
 11
23710.0
 21
68.5
 31
0.0
  0
LINE
  5
33F
  8
MyLines
 10
23118.0
 20
0.0
 30
0.0
 11
23710.0
 21
0.0
 31
0.0
  0
LINE
  5
340
  8
MyLines
 10
23118.0
 20
0.0
 30
0.0
 11
23118.0
 21
68.5
 31
0.0
  0
LINE
  5
341
  8
MyLines
 10
23710.0
 20
0.0
 30
0.0
 11
23710.0
 21
68.5
 31
0.0
  0
TEXT
  5
342
  8
MyLines
 62
1
 10
23119.0
 20
69.5
 30
0.0
 40
1.0
  1
7598-B
 11
23119.0
 21
69.5
 31
0.0
  0
TEXT
  5
343
  8
MyLines
 62
1
 10
23119.0
 20
1.0
 30
0.0
 40
1.0
  1
7598-A
 11
23119.0
 21
1.0
 31
0.0
  0
LINE
  5
344
  8
MyLines
 10
23118.0
 20
68.5
 30
0.0
 11
23414.0
 21
68.5
 31
0.0
  0
LINE
  5
345
  8
MyLines
 10
23416.0
 20
81.5
 30
0.0
 11
23866.0
 21
81.5
 31
0.0
  0
LINE
  5
346
  8
MyLines
 10
23416.0
 20
0.0
 30
0.0
 11
23866.0
 21
0.0
 31
0.0
  0
LINE
  5
347
  8
MyLines
 10
23416.0
 20
0.0
 30
0.0
 11
23416.0
 21
81.5
 31
0.0
  0
LINE
  5
348
  8
MyLines
 10
23866.0
 20
0.0
 30
0.0
 11
23866.0
 21
81.5
 31
0.0
  0
TEXT
  5
349
  8
MyLines
 62
1
 10
23417.0
 20
82.5
 30
0.0
 40
1.0
  1
7599-B
 11
23417.0
 21
82.5
 31
0.0
  0
TEXT
  5
34A
  8
MyLines
 62
1
 10
23417.0
 20
1.0
 30
0.0
 40
1.0
  1
7599-A
 11
23417.0
 21
1.0
 31
0.0
  0
LINE
  5
34B
  8
MyLines
 10
23416.0
 20
81.5
 30
0.0
 11
23641.0
 21
81.5
 31
0.0
  0
LINE
  5
34C
  8
MyLines
 10
23643.0
 20
61.0
 30
0.0
 11
24121.0
 21
61.0
 31
0.0
  0
LINE
  5
34D
  8
MyLines
 10
23643.0
 20
0.0
 30
0.0
 11
24121.0
 21
0.0
 31
0.0
  0
LINE
  5
34E
  8
MyLines
 10
23643.0
 20
0.0
 30
0.0
 11
23643.0
 21
61.0
 31
0.0
  0
LINE
  5
34F
  8
MyLines
 10
24121.0
 20
0.0
 30
0.0
 11
24121.0
 21
61.0
 31
0.0
  0
TEXT
  5
350
  8
MyLines
 62
1
 10
23644.0
 20
62.0
 30
0.0
 40
1.0
  1
7600-B
 11
23644.0
 21
62.0
 31
0.0
  0
TEXT
  5
351
  8
MyLines
 62
1
 10
23644.0
 20
1.0
 30
0.0
 40
1.0
  1
7600-A
 11
23644.0
 21
1.0
 31
0.0
  0
LINE
  5
352
  8
MyLines
 10
23643.0
 20
61.0
 30
0.0
 11
23882.0
 21
61.0
 31
0.0
  0
LINE
  5
353
  8
MyLines
 10
23884.0
 20
89.0
 30
0.0
 11
24248.0
 21
89.0
 31
0.0
  0
LINE
  5
354
  8
MyLines
 10
23884.0
 20
0.0
 30
0.0
 11
24248.0
 21
0.0
 31
0.0
  0
LINE
  5
355
  8
MyLines
 10
23884.0
 20
0.0
 30
0.0
 11
23884.0
 21
89.0
 31
0.0
  0
LINE
  5
356
  8
MyLines
 10
24248.0
 20
0.0
 30
0.0
 11
24248.0
 21
89.0
 31
0.0
  0
TEXT
  5
357
  8
MyLines
 62
1
 10
23885.0
 20
90.0
 30
0.0
 40
1.0
  1
7601-B
 11
23885.0
 21
90.0
 31
0.0
  0
TEXT
  5
358
  8
MyLines
 62
1
 10
23885.0
 20
1.0
 30
0.0
 40
1.0
  1
7601-A
 11
23885.0
 21
1.0
 31
0.0
  0
LINE
  5
359
  8
MyLines
 10
23884.0
 20
89.0
 30
0.0
 11
24066.0
 21
89.0
 31
0.0
  0
LINE
  5
35A
  8
MyLines
 10
24068.0
 20
36.5
 30
0.0
 11
24452.0
 21
36.5
 31
0.0
  0
LINE
  5
35B
  8
MyLines
 10
24068.0
 20
0.0
 30
0.0
 11
24452.0
 21
0.0
 31
0.0
  0
LINE
  5
35C
  8
MyLines
 10
24068.0
 20
0.0
 30
0.0
 11
24068.0
 21
36.5
 31
0.0
  0
LINE
  5
35D
  8
MyLines
 10
24452.0
 20
0.0
 30
0.0
 11
24452.0
 21
36.5
 31
0.0
  0
TEXT
  5
35E
  8
MyLines
 62
1
 10
24069.0
 20
37.5
 30
0.0
 40
1.0
  1
7602-B
 11
24069.0
 21
37.5
 31
0.0
  0
TEXT
  5
35F
  8
MyLines
 62
1
 10
24069.0
 20
1.0
 30
0.0
 40
1.0
  1
7602-A
 11
24069.0
 21
1.0
 31
0.0
  0
LINE
  5
360
  8
MyLines
 10
24068.0
 20
36.5
 30
0.0
 11
24260.0
 21
36.5
 31
0.0
  0
LINE
  5
361
  8
MyLines
 10
24262.0
 20
62.5
 30
0.0
 11
24770.0
 21
62.5
 31
0.0
  0
LINE
  5
362
  8
MyLines
 10
24262.0
 20
0.0
 30
0.0
 11
24770.0
 21
0.0
 31
0.0
  0
LINE
  5
363
  8
MyLines
 10
24262.0
 20
0.0
 30
0.0
 11
24262.0
 21
62.5
 31
0.0
  0
LINE
  5
364
  8
MyLines
 10
24770.0
 20
0.0
 30
0.0
 11
24770.0
 21
62.5
 31
0.0
  0
TEXT
  5
365
  8
MyLines
 62
1
 10
24263.0
 20
63.5
 30
0.0
 40
1.0
  1
7603-B
 11
24263.0
 21
63.5
 31
0.0
  0
TEXT
  5
366
  8
MyLines
 62
1
 10
24263.0
 20
1.0
 30
0.0
 40
1.0
  1
7603-A
 11
24263.0
 21
1.0
 31
0.0
  0
LINE
  5
367
  8
MyLines
 10
24262.0
 20
62.5
 30
0.0
 11
24516.0
 21
62.5
 31
0.0
  0
LINE
  5
368
  8
MyLines
 10
24518.0
 20
89.5
 30
0.0
 11
24868.0
 21
89.5
 31
0.0
  0
LINE
  5
369
  8
MyLines
 10
24518.0
 20
0.0
 30
0.0
 11
24868.0
 21
0.0
 31
0.0
  0
LINE
  5
36A
  8
MyLines
 10
24518.0
 20
0.0
 30
0.0
 11
24518.0
 21
89.5
 31
0.0
  0
LINE
  5
36B
  8
MyLines
 10
24868.0
 20
0.0
 30
0.0
 11
24868.0
 21
89.5
 31
0.0
  0
TEXT
  5
36C
  8
MyLines
 62
1
 10
24519.0
 20
90.5
 30
0.0
 40
1.0
  1
7604-B
 11
24519.0
 21
90.5
 31
0.0
  0
TEXT
  5
36D
  8
MyLines
 62
1
 10
24519.0
 20
1.0
 30
0.0
 40
1.0
  1
7604-A
 11
24519.0
 21
1.0
 31
0.0
  0
LINE
  5
36E
  8
MyLines
 10
24518.0
 20
89.5
 30
0.0
 11
24693.0
 21
89.5
 31
0.0
  0
LINE
  5
36F
  8
MyLines
 10
24695.0
 20
57.5
 30
0.0
 11
25243.0
 21
57.5
 31
0.0
  0
LINE
  5
370
  8
MyLines
 10
24695.0
 20
0.0
 30
0.0
 11
25243.0
 21
0.0
 31
0.0
  0
LINE
  5
371
  8
MyLines
 10
24695.0
 20
0.0
 30
0.0
 11
24695.0
 21
57.5
 31
0.0
  0
LINE
  5
372
  8
MyLines
 10
25243.0
 20
0.0
 30
0.0
 11
25243.0
 21
57.5
 31
0.0
  0
TEXT
  5
373
  8
MyLines
 62
1
 10
24696.0
 20
58.5
 30
0.0
 40
1.0
  1
7605-B
 11
24696.0
 21
58.5
 31
0.0
  0
TEXT
  5
374
  8
MyLines
 62
1
 10
24696.0
 20
1.0
 30
0.0
 40
1.0
  1
7605-A
 11
24696.0
 21
1.0
 31
0.0
  0
LINE
  5
375
  8
MyLines
 10
24695.0
 20
57.5
 30
0.0
 11
24969.0
 21
57.5
 31
0.0
  0
LINE
  5
376
  8
MyLines
 10
24971.0
 20
41.5
 30
0.0
 11
25411.0
 21
41.5
 31
0.0
  0
LINE
  5
377
  8
MyLines
 10
24971.0
 20
0.0
 30
0.0
 11
25411.0
 21
0.0
 31
0.0
  0
LINE
  5
378
  8
MyLines
 10
24971.0
 20
0.0
 30
0.0
 11
24971.0
 21
41.5
 31
0.0
  0
LINE
  5
379
  8
MyLines
 10
25411.0
 20
0.0
 30
0.0
 11
25411.0
 21
41.5
 31
0.0
  0
TEXT
  5
37A
  8
MyLines
 62
1
 10
24972.0
 20
42.5
 30
0.0
 40
1.0
  1
7606-B
 11
24972.0
 21
42.5
 31
0.0
  0
TEXT
  5
37B
  8
MyLines
 62
1
 10
24972.0
 20
1.0
 30
0.0
 40
1.0
  1
7606-A
 11
24972.0
 21
1.0
 31
0.0
  0
LINE
  5
37C
  8
MyLines
 10
24971.0
 20
41.5
 30
0.0
 11
25191.0
 21
41.5
 31
0.0
  0
LINE
  5
37D
  8
MyLines
 10
25193.0
 20
48.5
 30
0.0
 11
25699.0
 21
48.5
 31
0.0
  0
LINE
  5
37E
  8
MyLines
 10
25193.0
 20
0.0
 30
0.0
 11
25699.0
 21
0.0
 31
0.0
  0
LINE
  5
37F
  8
MyLines
 10
25193.0
 20
0.0
 30
0.0
 11
25193.0
 21
48.5
 31
0.0
  0
LINE
  5
380
  8
MyLines
 10
25699.0
 20
0.0
 30
0.0
 11
25699.0
 21
48.5
 31
0.0
  0
TEXT
  5
381
  8
MyLines
 62
1
 10
25194.0
 20
49.5
 30
0.0
 40
1.0
  1
7607-B
 11
25194.0
 21
49.5
 31
0.0
  0
TEXT
  5
382
  8
MyLines
 62
1
 10
25194.0
 20
1.0
 30
0.0
 40
1.0
  1
7607-A
 11
25194.0
 21
1.0
 31
0.0
  0
LINE
  5
383
  8
MyLines
 10
25193.0
 20
48.5
 30
0.0
 11
25446.0
 21
48.5
 31
0.0
  0
LINE
  5
384
  8
MyLines
 10
25448.0
 20
39.0
 30
0.0
 11
25860.0
 21
39.0
 31
0.0
  0
LINE
  5
385
  8
MyLines
 10
25448.0
 20
0.0
 30
0.0
 11
25860.0
 21
0.0
 31
0.0
  0
LINE
  5
386
  8
MyLines
 10
25448.0
 20
0.0
 30
0.0
 11
25448.0
 21
39.0
 31
0.0
  0
LINE
  5
387
  8
MyLines
 10
25860.0
 20
0.0
 30
0.0
 11
25860.0
 21
39.0
 31
0.0
  0
TEXT
  5
388
  8
MyLines
 62
1
 10
25449.0
 20
40.0
 30
0.0
 40
1.0
  1
7608-B
 11
25449.0
 21
40.0
 31
0.0
  0
TEXT
  5
389
  8
MyLines
 62
1
 10
25449.0
 20
1.0
 30
0.0
 40
1.0
  1
7608-A
 11
25449.0
 21
1.0
 31
0.0
  0
LINE
  5
38A
  8
MyLines
 10
25448.0
 20
39.0
 30
0.0
 11
25654.0
 21
39.0
 31
0.0
  0
LINE
  5
38B
  8
MyLines
 10
25656.0
 20
39.0
 30
0.0
 11
26232.0
 21
39.0
 31
0.0
  0
LINE
  5
38C
  8
MyLines
 10
25656.0
 20
0.0
 30
0.0
 11
26232.0
 21
0.0
 31
0.0
  0
LINE
  5
38D
  8
MyLines
 10
25656.0
 20
0.0
 30
0.0
 11
25656.0
 21
39.0
 31
0.0
  0
LINE
  5
38E
  8
MyLines
 10
26232.0
 20
0.0
 30
0.0
 11
26232.0
 21
39.0
 31
0.0
  0
TEXT
  5
38F
  8
MyLines
 62
1
 10
25657.0
 20
40.0
 30
0.0
 40
1.0
  1
7609-B
 11
25657.0
 21
40.0
 31
0.0
  0
TEXT
  5
390
  8
MyLines
 62
1
 10
25657.0
 20
1.0
 30
0.0
 40
1.0
  1
7609-A
 11
25657.0
 21
1.0
 31
0.0
  0
LINE
  5
391
  8
MyLines
 10
25656.0
 20
39.0
 30
0.0
 11
25944.0
 21
39.0
 31
0.0
  0
LINE
  5
392
  8
MyLines
 10
25946.0
 20
89.5
 30
0.0
 11
26314.0
 21
89.5
 31
0.0
  0
LINE
  5
393
  8
MyLines
 10
25946.0
 20
0.0
 30
0.0
 11
26314.0
 21
0.0
 31
0.0
  0
LINE
  5
394
  8
MyLines
 10
25946.0
 20
0.0
 30
0.0
 11
25946.0
 21
89.5
 31
0.0
  0
LINE
  5
395
  8
MyLines
 10
26314.0
 20
0.0
 30
0.0
 11
26314.0
 21
89.5
 31
0.0
  0
TEXT
  5
396
  8
MyLines
 62
1
 10
25947.0
 20
90.5
 30
0.0
 40
1.0
  1
7610-B
 11
25947.0
 21
90.5
 31
0.0
  0
TEXT
  5
397
  8
MyLines
 62
1
 10
25947.0
 20
1.0
 30
0.0
 40
1.0
  1
7610-A
 11
25947.0
 21
1.0
 31
0.0
  0
LINE
  5
398
  8
MyLines
 10
25946.0
 20
89.5
 30
0.0
 11
26130.0
 21
89.5
 31
0.0
  0
LINE
  5
399
  8
MyLines
 10
26132.0
 20
41.5
 30
0.0
 11
26546.0
 21
41.5
 31
0.0
  0
LINE
  5
39A
  8
MyLines
 10
26132.0
 20
0.0
 30
0.0
 11
26546.0
 21
0.0
 31
0.0
  0
LINE
  5
39B
  8
MyLines
 10
26132.0
 20
0.0
 30
0.0
 11
26132.0
 21
41.5
 31
0.0
  0
LINE
  5
39C
  8
MyLines
 10
26546.0
 20
0.0
 30
0.0
 11
26546.0
 21
41.5
 31
0.0
  0
TEXT
  5
39D
  8
MyLines
 62
1
 10
26133.0
 20
42.5
 30
0.0
 40
1.0
  1
7611-B
 11
26133.0
 21
42.5
 31
0.0
  0
TEXT
  5
39E
  8
MyLines
 62
1
 10
26133.0
 20
1.0
 30
0.0
 40
1.0
  1
7611-A
 11
26133.0
 21
1.0
 31
0.0
  0
LINE
  5
39F
  8
MyLines
 10
26132.0
 20
41.5
 30
0.0
 11
26339.0
 21
41.5
 31
0.0
  0
LINE
  5
3A0
  8
MyLines
 10
26341.0
 20
66.5
 30
0.0
 11
26879.0
 21
66.5
 31
0.0
  0
LINE
  5
3A1
  8
MyLines
 10
26341.0
 20
0.0
 30
0.0
 11
26879.0
 21
0.0
 31
0.0
  0
LINE
  5
3A2
  8
MyLines
 10
26341.0
 20
0.0
 30
0.0
 11
26341.0
 21
66.5
 31
0.0
  0
LINE
  5
3A3
  8
MyLines
 10
26879.0
 20
0.0
 30
0.0
 11
26879.0
 21
66.5
 31
0.0
  0
TEXT
  5
3A4
  8
MyLines
 62
1
 10
26342.0
 20
67.5
 30
0.0
 40
1.0
  1
7612-B
 11
26342.0
 21
67.5
 31
0.0
  0
TEXT
  5
3A5
  8
MyLines
 62
1
 10
26342.0
 20
1.0
 30
0.0
 40
1.0
  1
7612-A
 11
26342.0
 21
1.0
 31
0.0
  0
LINE
  5
3A6
  8
MyLines
 10
26341.0
 20
66.5
 30
0.0
 11
26610.0
 21
66.5
 31
0.0
  0
LINE
  5
3A7
  8
MyLines
 10
26612.0
 20
87.0
 30
0.0
 11
27204.0
 21
87.0
 31
0.0
  0
LINE
  5
3A8
  8
MyLines
 10
26612.0
 20
0.0
 30
0.0
 11
27204.0
 21
0.0
 31
0.0
  0
LINE
  5
3A9
  8
MyLines
 10
26612.0
 20
0.0
 30
0.0
 11
26612.0
 21
87.0
 31
0.0
  0
LINE
  5
3AA
  8
MyLines
 10
27204.0
 20
0.0
 30
0.0
 11
27204.0
 21
87.0
 31
0.0
  0
TEXT
  5
3AB
  8
MyLines
 62
1
 10
26613.0
 20
88.0
 30
0.0
 40
1.0
  1
7613-B
 11
26613.0
 21
88.0
 31
0.0
  0
TEXT
  5
3AC
  8
MyLines
 62
1
 10
26613.0
 20
1.0
 30
0.0
 40
1.0
  1
7613-A
 11
26613.0
 21
1.0
 31
0.0
  0
LINE
  5
3AD
  8
MyLines
 10
26612.0
 20
87.0
 30
0.0
 11
26908.0
 21
87.0
 31
0.0
  0
LINE
  5
3AE
  8
MyLines
 10
26910.0
 20
58.0
 30
0.0
 11
27398.0
 21
58.0
 31
0.0
  0
LINE
  5
3AF
  8
MyLines
 10
26910.0
 20
0.0
 30
0.0
 11
27398.0
 21
0.0
 31
0.0
  0
LINE
  5
3B0
  8
MyLines
 10
26910.0
 20
0.0
 30
0.0
 11
26910.0
 21
58.0
 31
0.0
  0
LINE
  5
3B1
  8
MyLines
 10
27398.0
 20
0.0
 30
0.0
 11
27398.0
 21
58.0
 31
0.0
  0
TEXT
  5
3B2
  8
MyLines
 62
1
 10
26911.0
 20
59.0
 30
0.0
 40
1.0
  1
7614-B
 11
26911.0
 21
59.0
 31
0.0
  0
TEXT
  5
3B3
  8
MyLines
 62
1
 10
26911.0
 20
1.0
 30
0.0
 40
1.0
  1
7614-A
 11
26911.0
 21
1.0
 31
0.0
  0
LINE
  5
3B4
  8
MyLines
 10
26910.0
 20
58.0
 30
0.0
 11
27154.0
 21
58.0
 31
0.0
  0
LINE
  5
3B5
  8
MyLines
 10
27156.0
 20
41.5
 30
0.0
 11
27574.0
 21
41.5
 31
0.0
  0
LINE
  5
3B6
  8
MyLines
 10
27156.0
 20
0.0
 30
0.0
 11
27574.0
 21
0.0
 31
0.0
  0
LINE
  5
3B7
  8
MyLines
 10
27156.0
 20
0.0
 30
0.0
 11
27156.0
 21
41.5
 31
0.0
  0
LINE
  5
3B8
  8
MyLines
 10
27574.0
 20
0.0
 30
0.0
 11
27574.0
 21
41.5
 31
0.0
  0
TEXT
  5
3B9
  8
MyLines
 62
1
 10
27157.0
 20
42.5
 30
0.0
 40
1.0
  1
7615-B
 11
27157.0
 21
42.5
 31
0.0
  0
TEXT
  5
3BA
  8
MyLines
 62
1
 10
27157.0
 20
1.0
 30
0.0
 40
1.0
  1
7615-A
 11
27157.0
 21
1.0
 31
0.0
  0
LINE
  5
3BB
  8
MyLines
 10
27156.0
 20
41.5
 30
0.0
 11
27365.0
 21
41.5
 31
0.0
  0
LINE
  5
3BC
  8
MyLines
 10
27367.0
 20
89.0
 30
0.0
 11
27749.0
 21
89.0
 31
0.0
  0
LINE
  5
3BD
  8
MyLines
 10
27367.0
 20
0.0
 30
0.0
 11
27749.0
 21
0.0
 31
0.0
  0
LINE
  5
3BE
  8
MyLines
 10
27367.0
 20
0.0
 30
0.0
 11
27367.0
 21
89.0
 31
0.0
  0
LINE
  5
3BF
  8
MyLines
 10
27749.0
 20
0.0
 30
0.0
 11
27749.0
 21
89.0
 31
0.0
  0
TEXT
  5
3C0
  8
MyLines
 62
1
 10
27368.0
 20
90.0
 30
0.0
 40
1.0
  1
7616-B
 11
27368.0
 21
90.0
 31
0.0
  0
TEXT
  5
3C1
  8
MyLines
 62
1
 10
27368.0
 20
1.0
 30
0.0
 40
1.0
  1
7616-A
 11
27368.0
 21
1.0
 31
0.0
  0
LINE
  5
3C2
  8
MyLines
 10
27367.0
 20
89.0
 30
0.0
 11
27558.0
 21
89.0
 31
0.0
  0
LINE
  5
3C3
  8
MyLines
 10
27560.0
 20
69.0
 30
0.0
 11
28030.0
 21
69.0
 31
0.0
  0
LINE
  5
3C4
  8
MyLines
 10
27560.0
 20
0.0
 30
0.0
 11
28030.0
 21
0.0
 31
0.0
  0
LINE
  5
3C5
  8
MyLines
 10
27560.0
 20
0.0
 30
0.0
 11
27560.0
 21
69.0
 31
0.0
  0
LINE
  5
3C6
  8
MyLines
 10
28030.0
 20
0.0
 30
0.0
 11
28030.0
 21
69.0
 31
0.0
  0
TEXT
  5
3C7
  8
MyLines
 62
1
 10
27561.0
 20
70.0
 30
0.0
 40
1.0
  1
7617-B
 11
27561.0
 21
70.0
 31
0.0
  0
TEXT
  5
3C8
  8
MyLines
 62
1
 10
27561.0
 20
1.0
 30
0.0
 40
1.0
  1
7617-A
 11
27561.0
 21
1.0
 31
0.0
  0
LINE
  5
3C9
  8
MyLines
 10
27560.0
 20
69.0
 30
0.0
 11
27795.0
 21
69.0
 31
0.0
  0
LINE
  5
3CA
  8
MyLines
 10
27797.0
 20
49.5
 30
0.0
 11
28317.0
 21
49.5
 31
0.0
  0
LINE
  5
3CB
  8
MyLines
 10
27797.0
 20
0.0
 30
0.0
 11
28317.0
 21
0.0
 31
0.0
  0
LINE
  5
3CC
  8
MyLines
 10
27797.0
 20
0.0
 30
0.0
 11
27797.0
 21
49.5
 31
0.0
  0
LINE
  5
3CD
  8
MyLines
 10
28317.0
 20
0.0
 30
0.0
 11
28317.0
 21
49.5
 31
0.0
  0
TEXT
  5
3CE
  8
MyLines
 62
1
 10
27798.0
 20
50.5
 30
0.0
 40
1.0
  1
7618-B
 11
27798.0
 21
50.5
 31
0.0
  0
TEXT
  5
3CF
  8
MyLines
 62
1
 10
27798.0
 20
1.0
 30
0.0
 40
1.0
  1
7618-A
 11
27798.0
 21
1.0
 31
0.0
  0
LINE
  5
3D0
  8
MyLines
 10
27797.0
 20
49.5
 30
0.0
 11
28057.0
 21
49.5
 31
0.0
  0
LINE
  5
3D1
  8
MyLines
 10
28059.0
 20
38.0
 30
0.0
 11
28485.0
 21
38.0
 31
0.0
  0
LINE
  5
3D2
  8
MyLines
 10
28059.0
 20
0.0
 30
0.0
 11
28485.0
 21
0.0
 31
0.0
  0
LINE
  5
3D3
  8
MyLines
 10
28059.0
 20
0.0
 30
0.0
 11
28059.0
 21
38.0
 31
0.0
  0
LINE
  5
3D4
  8
MyLines
 10
28485.0
 20
0.0
 30
0.0
 11
28485.0
 21
38.0
 31
0.0
  0
TEXT
  5
3D5
  8
MyLines
 62
1
 10
28060.0
 20
39.0
 30
0.0
 40
1.0
  1
7619-B
 11
28060.0
 21
39.0
 31
0.0
  0
TEXT
  5
3D6
  8
MyLines
 62
1
 10
28060.0
 20
1.0
 30
0.0
 40
1.0
  1
7619-A
 11
28060.0
 21
1.0
 31
0.0
  0
LINE
  5
3D7
  8
MyLines
 10
28059.0
 20
38.0
 30
0.0
 11
28272.0
 21
38.0
 31
0.0
  0
LINE
  5
3D8
  8
MyLines
 10
28274.0
 20
47.5
 30
0.0
 11
28666.0
 21
47.5
 31
0.0
  0
LINE
  5
3D9
  8
MyLines
 10
28274.0
 20
0.0
 30
0.0
 11
28666.0
 21
0.0
 31
0.0
  0
LINE
  5
3DA
  8
MyLines
 10
28274.0
 20
0.0
 30
0.0
 11
28274.0
 21
47.5
 31
0.0
  0
LINE
  5
3DB
  8
MyLines
 10
28666.0
 20
0.0
 30
0.0
 11
28666.0
 21
47.5
 31
0.0
  0
TEXT
  5
3DC
  8
MyLines
 62
1
 10
28275.0
 20
48.5
 30
0.0
 40
1.0
  1
7620-B
 11
28275.0
 21
48.5
 31
0.0
  0
TEXT
  5
3DD
  8
MyLines
 62
1
 10
28275.0
 20
1.0
 30
0.0
 40
1.0
  1
7620-A
 11
28275.0
 21
1.0
 31
0.0
  0
LINE
  5
3DE
  8
MyLines
 10
28274.0
 20
47.5
 30
0.0
 11
28470.0
 21
47.5
 31
0.0
  0
LINE
  5
3DF
  8
MyLines
 10
28472.0
 20
87.5
 30
0.0
 11
28992.0
 21
87.5
 31
0.0
  0
LINE
  5
3E0
  8
MyLines
 10
28472.0
 20
0.0
 30
0.0
 11
28992.0
 21
0.0
 31
0.0
  0
LINE
  5
3E1
  8
MyLines
 10
28472.0
 20
0.0
 30
0.0
 11
28472.0
 21
87.5
 31
0.0
  0
LINE
  5
3E2
  8
MyLines
 10
28992.0
 20
0.0
 30
0.0
 11
28992.0
 21
87.5
 31
0.0
  0
TEXT
  5
3E3
  8
MyLines
 62
1
 10
28473.0
 20
88.5
 30
0.0
 40
1.0
  1
7621-B
 11
28473.0
 21
88.5
 31
0.0
  0
TEXT
  5
3E4
  8
MyLines
 62
1
 10
28473.0
 20
1.0
 30
0.0
 40
1.0
  1
7621-A
 11
28473.0
 21
1.0
 31
0.0
  0
LINE
  5
3E5
  8
MyLines
 10
28472.0
 20
87.5
 30
0.0
 11
28732.0
 21
87.5
 31
0.0
  0
LINE
  5
3E6
  8
MyLines
 10
28734.0
 20
68.0
 30
0.0
 11
29132.0
 21
68.0
 31
0.0
  0
LINE
  5
3E7
  8
MyLines
 10
28734.0
 20
0.0
 30
0.0
 11
29132.0
 21
0.0
 31
0.0
  0
LINE
  5
3E8
  8
MyLines
 10
28734.0
 20
0.0
 30
0.0
 11
28734.0
 21
68.0
 31
0.0
  0
LINE
  5
3E9
  8
MyLines
 10
29132.0
 20
0.0
 30
0.0
 11
29132.0
 21
68.0
 31
0.0
  0
TEXT
  5
3EA
  8
MyLines
 62
1
 10
28735.0
 20
69.0
 30
0.0
 40
1.0
  1
7622-B
 11
28735.0
 21
69.0
 31
0.0
  0
TEXT
  5
3EB
  8
MyLines
 62
1
 10
28735.0
 20
1.0
 30
0.0
 40
1.0
  1
7622-A
 11
28735.0
 21
1.0
 31
0.0
  0
LINE
  5
3EC
  8
MyLines
 10
28734.0
 20
68.0
 30
0.0
 11
28933.0
 21
68.0
 31
0.0
  0
LINE
  5
3ED
  8
MyLines
 10
28935.0
 20
59.0
 30
0.0
 11
29485.0
 21
59.0
 31
0.0
  0
LINE
  5
3EE
  8
MyLines
 10
28935.0
 20
0.0
 30
0.0
 11
29485.0
 21
0.0
 31
0.0
  0
LINE
  5
3EF
  8
MyLines
 10
28935.0
 20
0.0
 30
0.0
 11
28935.0
 21
59.0
 31
0.0
  0
LINE
  5
3F0
  8
MyLines
 10
29485.0
 20
0.0
 30
0.0
 11
29485.0
 21
59.0
 31
0.0
  0
TEXT
  5
3F1
  8
MyLines
 62
1
 10
28936.0
 20
60.0
 30
0.0
 40
1.0
  1
7623-B
 11
28936.0
 21
60.0
 31
0.0
  0
TEXT
  5
3F2
  8
MyLines
 62
1
 10
28936.0
 20
1.0
 30
0.0
 40
1.0
  1
7623-A
 11
28936.0
 21
1.0
 31
0.0
  0
LINE
  5
3F3
  8
MyLines
 10
28935.0
 20
59.0
 30
0.0
 11
29210.0
 21
59.0
 31
0.0
  0
LINE
  5
3F4
  8
MyLines
 10
29212.0
 20
35.0
 30
0.0
 11
29672.0
 21
35.0
 31
0.0
  0
LINE
  5
3F5
  8
MyLines
 10
29212.0
 20
0.0
 30
0.0
 11
29672.0
 21
0.0
 31
0.0
  0
LINE
  5
3F6
  8
MyLines
 10
29212.0
 20
0.0
 30
0.0
 11
29212.0
 21
35.0
 31
0.0
  0
LINE
  5
3F7
  8
MyLines
 10
29672.0
 20
0.0
 30
0.0
 11
29672.0
 21
35.0
 31
0.0
  0
TEXT
  5
3F8
  8
MyLines
 62
1
 10
29213.0
 20
36.0
 30
0.0
 40
1.0
  1
7624-B
 11
29213.0
 21
36.0
 31
0.0
  0
TEXT
  5
3F9
  8
MyLines
 62
1
 10
29213.0
 20
1.0
 30
0.0
 40
1.0
  1
7624-A
 11
29213.0
 21
1.0
 31
0.0
  0
LINE
  5
3FA
  8
MyLines
 10
29212.0
 20
35.0
 30
0.0
 11
29442.0
 21
35.0
 31
0.0
  0
LINE
  5
3FB
  8
MyLines
 10
29444.0
 20
59.5
 30
0.0
 11
29890.0
 21
59.5
 31
0.0
  0
LINE
  5
3FC
  8
MyLines
 10
29444.0
 20
0.0
 30
0.0
 11
29890.0
 21
0.0
 31
0.0
  0
LINE
  5
3FD
  8
MyLines
 10
29444.0
 20
0.0
 30
0.0
 11
29444.0
 21
59.5
 31
0.0
  0
LINE
  5
3FE
  8
MyLines
 10
29890.0
 20
0.0
 30
0.0
 11
29890.0
 21
59.5
 31
0.0
  0
TEXT
  5
3FF
  8
MyLines
 62
1
 10
29445.0
 20
60.5
 30
0.0
 40
1.0
  1
7625-B
 11
29445.0
 21
60.5
 31
0.0
  0
TEXT
  5
400
  8
MyLines
 62
1
 10
29445.0
 20
1.0
 30
0.0
 40
1.0
  1
7625-A
 11
29445.0
 21
1.0
 31
0.0
  0
LINE
  5
401
  8
MyLines
 10
29444.0
 20
59.5
 30
0.0
 11
29667.0
 21
59.5
 31
0.0
  0
LINE
  5
402
  8
MyLines
 10
29669.0
 20
71.5
 30
0.0
 11
30137.0
 21
71.5
 31
0.0
  0
LINE
  5
403
  8
MyLines
 10
29669.0
 20
0.0
 30
0.0
 11
30137.0
 21
0.0
 31
0.0
  0
LINE
  5
404
  8
MyLines
 10
29669.0
 20
0.0
 30
0.0
 11
29669.0
 21
71.5
 31
0.0
  0
LINE
  5
405
  8
MyLines
 10
30137.0
 20
0.0
 30
0.0
 11
30137.0
 21
71.5
 31
0.0
  0
TEXT
  5
406
  8
MyLines
 62
1
 10
29670.0
 20
72.5
 30
0.0
 40
1.0
  1
7626-B
 11
29670.0
 21
72.5
 31
0.0
  0
TEXT
  5
407
  8
MyLines
 62
1
 10
29670.0
 20
1.0
 30
0.0
 40
1.0
  1
7626-A
 11
29670.0
 21
1.0
 31
0.0
  0
LINE
  5
408
  8
MyLines
 10
29669.0
 20
71.5
 30
0.0
 11
29903.0
 21
71.5
 31
0.0
  0
LINE
  5
409
  8
MyLines
 10
29905.0
 20
54.5
 30
0.0
 11
30311.0
 21
54.5
 31
0.0
  0
LINE
  5
40A
  8
MyLines
 10
29905.0
 20
0.0
 30
0.0
 11
30311.0
 21
0.0
 31
0.0
  0
LINE
  5
40B
  8
MyLines
 10
29905.0
 20
0.0
 30
0.0
 11
29905.0
 21
54.5
 31
0.0
  0
LINE
  5
40C
  8
MyLines
 10
30311.0
 20
0.0
 30
0.0
 11
30311.0
 21
54.5
 31
0.0
  0
TEXT
  5
40D
  8
MyLines
 62
1
 10
29906.0
 20
55.5
 30
0.0
 40
1.0
  1
7627-B
 11
29906.0
 21
55.5
 31
0.0
  0
TEXT
  5
40E
  8
MyLines
 62
1
 10
29906.0
 20
1.0
 30
0.0
 40
1.0
  1
7627-A
 11
29906.0
 21
1.0
 31
0.0
  0
LINE
  5
40F
  8
MyLines
 10
29905.0
 20
54.5
 30
0.0
 11
30108.0
 21
54.5
 31
0.0
  0
LINE
  5
410
  8
MyLines
 10
30110.0
 20
71.0
 30
0.0
 11
30672.0
 21
71.0
 31
0.0
  0
LINE
  5
411
  8
MyLines
 10
30110.0
 20
0.0
 30
0.0
 11
30672.0
 21
0.0
 31
0.0
  0
LINE
  5
412
  8
MyLines
 10
30110.0
 20
0.0
 30
0.0
 11
30110.0
 21
71.0
 31
0.0
  0
LINE
  5
413
  8
MyLines
 10
30672.0
 20
0.0
 30
0.0
 11
30672.0
 21
71.0
 31
0.0
  0
TEXT
  5
414
  8
MyLines
 62
1
 10
30111.0
 20
72.0
 30
0.0
 40
1.0
  1
7628-B
 11
30111.0
 21
72.0
 31
0.0
  0
TEXT
  5
415
  8
MyLines
 62
1
 10
30111.0
 20
1.0
 30
0.0
 40
1.0
  1
7628-A
 11
30111.0
 21
1.0
 31
0.0
  0
LINE
  5
416
  8
MyLines
 10
30110.0
 20
71.0
 30
0.0
 11
30391.0
 21
71.0
 31
0.0
  0
LINE
  5
417
  8
MyLines
 10
30393.0
 20
37.5
 30
0.0
 11
30943.0
 21
37.5
 31
0.0
  0
LINE
  5
418
  8
MyLines
 10
30393.0
 20
0.0
 30
0.0
 11
30943.0
 21
0.0
 31
0.0
  0
LINE
  5
419
  8
MyLines
 10
30393.0
 20
0.0
 30
0.0
 11
30393.0
 21
37.5
 31
0.0
  0
LINE
  5
41A
  8
MyLines
 10
30943.0
 20
0.0
 30
0.0
 11
30943.0
 21
37.5
 31
0.0
  0
TEXT
  5
41B
  8
MyLines
 62
1
 10
30394.0
 20
38.5
 30
0.0
 40
1.0
  1
7629-B
 11
30394.0
 21
38.5
 31
0.0
  0
TEXT
  5
41C
  8
MyLines
 62
1
 10
30394.0
 20
1.0
 30
0.0
 40
1.0
  1
7629-A
 11
30394.0
 21
1.0
 31
0.0
  0
LINE
  5
41D
  8
MyLines
 10
30393.0
 20
37.5
 30
0.0
 11
30668.0
 21
37.5
 31
0.0
  0
LINE
  5
41E
  8
MyLines
 10
30670.0
 20
77.5
 30
0.0
 11
31104.0
 21
77.5
 31
0.0
  0
LINE
  5
41F
  8
MyLines
 10
30670.0
 20
0.0
 30
0.0
 11
31104.0
 21
0.0
 31
0.0
  0
LINE
  5
420
  8
MyLines
 10
30670.0
 20
0.0
 30
0.0
 11
30670.0
 21
77.5
 31
0.0
  0
LINE
  5
421
  8
MyLines
 10
31104.0
 20
0.0
 30
0.0
 11
31104.0
 21
77.5
 31
0.0
  0
TEXT
  5
422
  8
MyLines
 62
1
 10
30671.0
 20
78.5
 30
0.0
 40
1.0
  1
7630-B
 11
30671.0
 21
78.5
 31
0.0
  0
TEXT
  5
423
  8
MyLines
 62
1
 10
30671.0
 20
1.0
 30
0.0
 40
1.0
  1
7630-A
 11
30671.0
 21
1.0
 31
0.0
  0
LINE
  5
424
  8
MyLines
 10
30670.0
 20
77.5
 30
0.0
 11
30887.0
 21
77.5
 31
0.0
  0
LINE
  5
425
  8
MyLines
 10
30889.0
 20
48.5
 30
0.0
 11
31335.0
 21
48.5
 31
0.0
  0
LINE
  5
426
  8
MyLines
 10
30889.0
 20
0.0
 30
0.0
 11
31335.0
 21
0.0
 31
0.0
  0
LINE
  5
427
  8
MyLines
 10
30889.0
 20
0.0
 30
0.0
 11
30889.0
 21
48.5
 31
0.0
  0
LINE
  5
428
  8
MyLines
 10
31335.0
 20
0.0
 30
0.0
 11
31335.0
 21
48.5
 31
0.0
  0
TEXT
  5
429
  8
MyLines
 62
1
 10
30890.0
 20
49.5
 30
0.0
 40
1.0
  1
7631-B
 11
30890.0
 21
49.5
 31
0.0
  0
TEXT
  5
42A
  8
MyLines
 62
1
 10
30890.0
 20
1.0
 30
0.0
 40
1.0
  1
7631-A
 11
30890.0
 21
1.0
 31
0.0
  0
LINE
  5
42B
  8
MyLines
 10
30889.0
 20
48.5
 30
0.0
 11
31112.0
 21
48.5
 31
0.0
  0
LINE
  5
42C
  8
MyLines
 10
31114.0
 20
79.0
 30
0.0
 11
31632.0
 21
79.0
 31
0.0
  0
LINE
  5
42D
  8
MyLines
 10
31114.0
 20
0.0
 30
0.0
 11
31632.0
 21
0.0
 31
0.0
  0
LINE
  5
42E
  8
MyLines
 10
31114.0
 20
0.0
 30
0.0
 11
31114.0
 21
79.0
 31
0.0
  0
LINE
  5
42F
  8
MyLines
 10
31632.0
 20
0.0
 30
0.0
 11
31632.0
 21
79.0
 31
0.0
  0
TEXT
  5
430
  8
MyLines
 62
1
 10
31115.0
 20
80.0
 30
0.0
 40
1.0
  1
7632-B
 11
31115.0
 21
80.0
 31
0.0
  0
TEXT
  5
431
  8
MyLines
 62
1
 10
31115.0
 20
1.0
 30
0.0
 40
1.0
  1
7632-A
 11
31115.0
 21
1.0
 31
0.0
  0
LINE
  5
432
  8
MyLines
 10
31114.0
 20
79.0
 30
0.0
 11
31373.0
 21
79.0
 31
0.0
  0
LINE
  5
433
  8
MyLines
 10
31375.0
 20
51.5
 30
0.0
 11
31813.0
 21
51.5
 31
0.0
  0
LINE
  5
434
  8
MyLines
 10
31375.0
 20
0.0
 30
0.0
 11
31813.0
 21
0.0
 31
0.0
  0
LINE
  5
435
  8
MyLines
 10
31375.0
 20
0.0
 30
0.0
 11
31375.0
 21
51.5
 31
0.0
  0
LINE
  5
436
  8
MyLines
 10
31813.0
 20
0.0
 30
0.0
 11
31813.0
 21
51.5
 31
0.0
  0
TEXT
  5
437
  8
MyLines
 62
1
 10
31376.0
 20
52.5
 30
0.0
 40
1.0
  1
7633-B
 11
31376.0
 21
52.5
 31
0.0
  0
TEXT
  5
438
  8
MyLines
 62
1
 10
31376.0
 20
1.0
 30
0.0
 40
1.0
  1
7633-A
 11
31376.0
 21
1.0
 31
0.0
  0
LINE
  5
439
  8
MyLines
 10
31375.0
 20
51.5
 30
0.0
 11
31594.0
 21
51.5
 31
0.0
  0
LINE
  5
43A
  8
MyLines
 10
31596.0
 20
41.0
 30
0.0
 11
32128.0
 21
41.0
 31
0.0
  0
LINE
  5
43B
  8
MyLines
 10
31596.0
 20
0.0
 30
0.0
 11
32128.0
 21
0.0
 31
0.0
  0
LINE
  5
43C
  8
MyLines
 10
31596.0
 20
0.0
 30
0.0
 11
31596.0
 21
41.0
 31
0.0
  0
LINE
  5
43D
  8
MyLines
 10
32128.0
 20
0.0
 30
0.0
 11
32128.0
 21
41.0
 31
0.0
  0
TEXT
  5
43E
  8
MyLines
 62
1
 10
31597.0
 20
42.0
 30
0.0
 40
1.0
  1
7634-B
 11
31597.0
 21
42.0
 31
0.0
  0
TEXT
  5
43F
  8
MyLines
 62
1
 10
31597.0
 20
1.0
 30
0.0
 40
1.0
  1
7634-A
 11
31597.0
 21
1.0
 31
0.0
  0
LINE
  5
440
  8
MyLines
 10
31596.0
 20
41.0
 30
0.0
 11
31862.0
 21
41.0
 31
0.0
  0
LINE
  5
441
  8
MyLines
 10
31864.0
 20
57.0
 30
0.0
 11
32374.0
 21
57.0
 31
0.0
  0
LINE
  5
442
  8
MyLines
 10
31864.0
 20
0.0
 30
0.0
 11
32374.0
 21
0.0
 31
0.0
  0
LINE
  5
443
  8
MyLines
 10
31864.0
 20
0.0
 30
0.0
 11
31864.0
 21
57.0
 31
0.0
  0
LINE
  5
444
  8
MyLines
 10
32374.0
 20
0.0
 30
0.0
 11
32374.0
 21
57.0
 31
0.0
  0
TEXT
  5
445
  8
MyLines
 62
1
 10
31865.0
 20
58.0
 30
0.0
 40
1.0
  1
7635-B
 11
31865.0
 21
58.0
 31
0.0
  0
TEXT
  5
446
  8
MyLines
 62
1
 10
31865.0
 20
1.0
 30
0.0
 40
1.0
  1
7635-A
 11
31865.0
 21
1.0
 31
0.0
  0
LINE
  5
447
  8
MyLines
 10
31864.0
 20
57.0
 30
0.0
 11
32119.0
 21
57.0
 31
0.0
  0
LINE
  5
448
  8
MyLines
 10
32121.0
 20
39.5
 30
0.0
 11
32617.0
 21
39.5
 31
0.0
  0
LINE
  5
449
  8
MyLines
 10
32121.0
 20
0.0
 30
0.0
 11
32617.0
 21
0.0
 31
0.0
  0
LINE
  5
44A
  8
MyLines
 10
32121.0
 20
0.0
 30
0.0
 11
32121.0
 21
39.5
 31
0.0
  0
LINE
  5
44B
  8
MyLines
 10
32617.0
 20
0.0
 30
0.0
 11
32617.0
 21
39.5
 31
0.0
  0
TEXT
  5
44C
  8
MyLines
 62
1
 10
32122.0
 20
40.5
 30
0.0
 40
1.0
  1
7636-B
 11
32122.0
 21
40.5
 31
0.0
  0
TEXT
  5
44D
  8
MyLines
 62
1
 10
32122.0
 20
1.0
 30
0.0
 40
1.0
  1
7636-A
 11
32122.0
 21
1.0
 31
0.0
  0
LINE
  5
44E
  8
MyLines
 10
32121.0
 20
39.5
 30
0.0
 11
32369.0
 21
39.5
 31
0.0
  0
LINE
  5
44F
  8
MyLines
 10
32371.0
 20
59.0
 30
0.0
 11
32763.0
 21
59.0
 31
0.0
  0
LINE
  5
450
  8
MyLines
 10
32371.0
 20
0.0
 30
0.0
 11
32763.0
 21
0.0
 31
0.0
  0
LINE
  5
451
  8
MyLines
 10
32371.0
 20
0.0
 30
0.0
 11
32371.0
 21
59.0
 31
0.0
  0
LINE
  5
452
  8
MyLines
 10
32763.0
 20
0.0
 30
0.0
 11
32763.0
 21
59.0
 31
0.0
  0
TEXT
  5
453
  8
MyLines
 62
1
 10
32372.0
 20
60.0
 30
0.0
 40
1.0
  1
7637-B
 11
32372.0
 21
60.0
 31
0.0
  0
TEXT
  5
454
  8
MyLines
 62
1
 10
32372.0
 20
1.0
 30
0.0
 40
1.0
  1
7637-A
 11
32372.0
 21
1.0
 31
0.0
  0
LINE
  5
455
  8
MyLines
 10
32371.0
 20
59.0
 30
0.0
 11
32567.0
 21
59.0
 31
0.0
  0
LINE
  5
456
  8
MyLines
 10
32569.0
 20
70.5
 30
0.0
 11
33025.0
 21
70.5
 31
0.0
  0
LINE
  5
457
  8
MyLines
 10
32569.0
 20
0.0
 30
0.0
 11
33025.0
 21
0.0
 31
0.0
  0
LINE
  5
458
  8
MyLines
 10
32569.0
 20
0.0
 30
0.0
 11
32569.0
 21
70.5
 31
0.0
  0
LINE
  5
459
  8
MyLines
 10
33025.0
 20
0.0
 30
0.0
 11
33025.0
 21
70.5
 31
0.0
  0
TEXT
  5
45A
  8
MyLines
 62
1
 10
32570.0
 20
71.5
 30
0.0
 40
1.0
  1
7638-B
 11
32570.0
 21
71.5
 31
0.0
  0
TEXT
  5
45B
  8
MyLines
 62
1
 10
32570.0
 20
1.0
 30
0.0
 40
1.0
  1
7638-A
 11
32570.0
 21
1.0
 31
0.0
  0
LINE
  5
45C
  8
MyLines
 10
32569.0
 20
70.5
 30
0.0
 11
32797.0
 21
70.5
 31
0.0
  0
LINE
  5
45D
  8
MyLines
 10
32799.0
 20
82.0
 30
0.0
 11
33363.0
 21
82.0
 31
0.0
  0
LINE
  5
45E
  8
MyLines
 10
32799.0
 20
0.0
 30
0.0
 11
33363.0
 21
0.0
 31
0.0
  0
LINE
  5
45F
  8
MyLines
 10
32799.0
 20
0.0
 30
0.0
 11
32799.0
 21
82.0
 31
0.0
  0
LINE
  5
460
  8
MyLines
 10
33363.0
 20
0.0
 30
0.0
 11
33363.0
 21
82.0
 31
0.0
  0
TEXT
  5
461
  8
MyLines
 62
1
 10
32800.0
 20
83.0
 30
0.0
 40
1.0
  1
7639-B
 11
32800.0
 21
83.0
 31
0.0
  0
TEXT
  5
462
  8
MyLines
 62
1
 10
32800.0
 20
1.0
 30
0.0
 40
1.0
  1
7639-A
 11
32800.0
 21
1.0
 31
0.0
  0
LINE
  5
463
  8
MyLines
 10
32799.0
 20
82.0
 30
0.0
 11
33081.0
 21
82.0
 31
0.0
  0
LINE
  5
464
  8
MyLines
 10
33083.0
 20
57.5
 30
0.0
 11
33493.0
 21
57.5
 31
0.0
  0
LINE
  5
465
  8
MyLines
 10
33083.0
 20
0.0
 30
0.0
 11
33493.0
 21
0.0
 31
0.0
  0
LINE
  5
466
  8
MyLines
 10
33083.0
 20
0.0
 30
0.0
 11
33083.0
 21
57.5
 31
0.0
  0
LINE
  5
467
  8
MyLines
 10
33493.0
 20
0.0
 30
0.0
 11
33493.0
 21
57.5
 31
0.0
  0
TEXT
  5
468
  8
MyLines
 62
1
 10
33084.0
 20
58.5
 30
0.0
 40
1.0
  1
7640-B
 11
33084.0
 21
58.5
 31
0.0
  0
TEXT
  5
469
  8
MyLines
 62
1
 10
33084.0
 20
1.0
 30
0.0
 40
1.0
  1
7640-A
 11
33084.0
 21
1.0
 31
0.0
  0
LINE
  5
46A
  8
MyLines
 10
33083.0
 20
57.5
 30
0.0
 11
33288.0
 21
57.5
 31
0.0
  0
LINE
  5
46B
  8
MyLines
 10
33290.0
 20
62.5
 30
0.0
 11
33848.0
 21
62.5
 31
0.0
  0
LINE
  5
46C
  8
MyLines
 10
33290.0
 20
0.0
 30
0.0
 11
33848.0
 21
0.0
 31
0.0
  0
LINE
  5
46D
  8
MyLines
 10
33290.0
 20
0.0
 30
0.0
 11
33290.0
 21
62.5
 31
0.0
  0
LINE
  5
46E
  8
MyLines
 10
33848.0
 20
0.0
 30
0.0
 11
33848.0
 21
62.5
 31
0.0
  0
TEXT
  5
46F
  8
MyLines
 62
1
 10
33291.0
 20
63.5
 30
0.0
 40
1.0
  1
7641-B
 11
33291.0
 21
63.5
 31
0.0
  0
TEXT
  5
470
  8
MyLines
 62
1
 10
33291.0
 20
1.0
 30
0.0
 40
1.0
  1
7641-A
 11
33291.0
 21
1.0
 31
0.0
  0
LINE
  5
471
  8
MyLines
 10
33290.0
 20
62.5
 30
0.0
 11
33569.0
 21
62.5
 31
0.0
  0
LINE
  5
472
  8
MyLines
 10
33571.0
 20
36.0
 30
0.0
 11
33977.0
 21
36.0
 31
0.0
  0
LINE
  5
473
  8
MyLines
 10
33571.0
 20
0.0
 30
0.0
 11
33977.0
 21
0.0
 31
0.0
  0
LINE
  5
474
  8
MyLines
 10
33571.0
 20
0.0
 30
0.0
 11
33571.0
 21
36.0
 31
0.0
  0
LINE
  5
475
  8
MyLines
 10
33977.0
 20
0.0
 30
0.0
 11
33977.0
 21
36.0
 31
0.0
  0
TEXT
  5
476
  8
MyLines
 62
1
 10
33572.0
 20
37.0
 30
0.0
 40
1.0
  1
7642-B
 11
33572.0
 21
37.0
 31
0.0
  0
TEXT
  5
477
  8
MyLines
 62
1
 10
33572.0
 20
1.0
 30
0.0
 40
1.0
  1
7642-A
 11
33572.0
 21
1.0
 31
0.0
  0
LINE
  5
478
  8
MyLines
 10
33571.0
 20
36.0
 30
0.0
 11
33774.0
 21
36.0
 31
0.0
  0
LINE
  5
479
  8
MyLines
 10
33776.0
 20
40.5
 30
0.0
 11
34168.0
 21
40.5
 31
0.0
  0
LINE
  5
47A
  8
MyLines
 10
33776.0
 20
0.0
 30
0.0
 11
34168.0
 21
0.0
 31
0.0
  0
LINE
  5
47B
  8
MyLines
 10
33776.0
 20
0.0
 30
0.0
 11
33776.0
 21
40.5
 31
0.0
  0
LINE
  5
47C
  8
MyLines
 10
34168.0
 20
0.0
 30
0.0
 11
34168.0
 21
40.5
 31
0.0
  0
TEXT
  5
47D
  8
MyLines
 62
1
 10
33777.0
 20
41.5
 30
0.0
 40
1.0
  1
7643-B
 11
33777.0
 21
41.5
 31
0.0
  0
TEXT
  5
47E
  8
MyLines
 62
1
 10
33777.0
 20
1.0
 30
0.0
 40
1.0
  1
7643-A
 11
33777.0
 21
1.0
 31
0.0
  0
LINE
  5
47F
  8
MyLines
 10
33776.0
 20
40.5
 30
0.0
 11
33972.0
 21
40.5
 31
0.0
  0
LINE
  5
480
  8
MyLines
 10
33974.0
 20
51.0
 30
0.0
 11
34558.0
 21
51.0
 31
0.0
  0
LINE
  5
481
  8
MyLines
 10
33974.0
 20
0.0
 30
0.0
 11
34558.0
 21
0.0
 31
0.0
  0
LINE
  5
482
  8
MyLines
 10
33974.0
 20
0.0
 30
0.0
 11
33974.0
 21
51.0
 31
0.0
  0
LINE
  5
483
  8
MyLines
 10
34558.0
 20
0.0
 30
0.0
 11
34558.0
 21
51.0
 31
0.0
  0
TEXT
  5
484
  8
MyLines
 62
1
 10
33975.0
 20
52.0
 30
0.0
 40
1.0
  1
7644-B
 11
33975.0
 21
52.0
 31
0.0
  0
TEXT
  5
485
  8
MyLines
 62
1
 10
33975.0
 20
1.0
 30
0.0
 40
1.0
  1
7644-A
 11
33975.0
 21
1.0
 31
0.0
  0
LINE
  5
486
  8
MyLines
 10
33974.0
 20
51.0
 30
0.0
 11
34266.0
 21
51.0
 31
0.0
  0
LINE
  5
487
  8
MyLines
 10
34268.0
 20
70.0
 30
0.0
 11
34868.0
 21
70.0
 31
0.0
  0
LINE
  5
488
  8
MyLines
 10
34268.0
 20
0.0
 30
0.0
 11
34868.0
 21
0.0
 31
0.0
  0
LINE
  5
489
  8
MyLines
 10
34268.0
 20
0.0
 30
0.0
 11
34268.0
 21
70.0
 31
0.0
  0
LINE
  5
48A
  8
MyLines
 10
34868.0
 20
0.0
 30
0.0
 11
34868.0
 21
70.0
 31
0.0
  0
TEXT
  5
48B
  8
MyLines
 62
1
 10
34269.0
 20
71.0
 30
0.0
 40
1.0
  1
7645-B
 11
34269.0
 21
71.0
 31
0.0
  0
TEXT
  5
48C
  8
MyLines
 62
1
 10
34269.0
 20
1.0
 30
0.0
 40
1.0
  1
7645-A
 11
34269.0
 21
1.0
 31
0.0
  0
LINE
  5
48D
  8
MyLines
 10
34268.0
 20
70.0
 30
0.0
 11
34568.0
 21
70.0
 31
0.0
  0
LINE
  5
48E
  8
MyLines
 10
34570.0
 20
84.0
 30
0.0
 11
35150.0
 21
84.0
 31
0.0
  0
LINE
  5
48F
  8
MyLines
 10
34570.0
 20
0.0
 30
0.0
 11
35150.0
 21
0.0
 31
0.0
  0
LINE
  5
490
  8
MyLines
 10
34570.0
 20
0.0
 30
0.0
 11
34570.0
 21
84.0
 31
0.0
  0
LINE
  5
491
  8
MyLines
 10
35150.0
 20
0.0
 30
0.0
 11
35150.0
 21
84.0
 31
0.0
  0
TEXT
  5
492
  8
MyLines
 62
1
 10
34571.0
 20
85.0
 30
0.0
 40
1.0
  1
7646-B
 11
34571.0
 21
85.0
 31
0.0
  0
TEXT
  5
493
  8
MyLines
 62
1
 10
34571.0
 20
1.0
 30
0.0
 40
1.0
  1
7646-A
 11
34571.0
 21
1.0
 31
0.0
  0
LINE
  5
494
  8
MyLines
 10
34570.0
 20
84.0
 30
0.0
 11
34860.0
 21
84.0
 31
0.0
  0
LINE
  5
495
  8
MyLines
 10
34862.0
 20
39.5
 30
0.0
 11
35220.0
 21
39.5
 31
0.0
  0
LINE
  5
496
  8
MyLines
 10
34862.0
 20
0.0
 30
0.0
 11
35220.0
 21
0.0
 31
0.0
  0
LINE
  5
497
  8
MyLines
 10
34862.0
 20
0.0
 30
0.0
 11
34862.0
 21
39.5
 31
0.0
  0
LINE
  5
498
  8
MyLines
 10
35220.0
 20
0.0
 30
0.0
 11
35220.0
 21
39.5
 31
0.0
  0
TEXT
  5
499
  8
MyLines
 62
1
 10
34863.0
 20
40.5
 30
0.0
 40
1.0
  1
7647-B
 11
34863.0
 21
40.5
 31
0.0
  0
TEXT
  5
49A
  8
MyLines
 62
1
 10
34863.0
 20
1.0
 30
0.0
 40
1.0
  1
7647-A
 11
34863.0
 21
1.0
 31
0.0
  0
LINE
  5
49B
  8
MyLines
 10
34862.0
 20
39.5
 30
0.0
 11
35041.0
 21
39.5
 31
0.0
  0
LINE
  5
49C
  8
MyLines
 10
35043.0
 20
65.5
 30
0.0
 11
35439.0
 21
65.5
 31
0.0
  0
LINE
  5
49D
  8
MyLines
 10
35043.0
 20
0.0
 30
0.0
 11
35439.0
 21
0.0
 31
0.0
  0
LINE
  5
49E
  8
MyLines
 10
35043.0
 20
0.0
 30
0.0
 11
35043.0
 21
65.5
 31
0.0
  0
LINE
  5
49F
  8
MyLines
 10
35439.0
 20
0.0
 30
0.0
 11
35439.0
 21
65.5
 31
0.0
  0
TEXT
  5
4A0
  8
MyLines
 62
1
 10
35044.0
 20
66.5
 30
0.0
 40
1.0
  1
7648-B
 11
35044.0
 21
66.5
 31
0.0
  0
TEXT
  5
4A1
  8
MyLines
 62
1
 10
35044.0
 20
1.0
 30
0.0
 40
1.0
  1
7648-A
 11
35044.0
 21
1.0
 31
0.0
  0
LINE
  5
4A2
  8
MyLines
 10
35043.0
 20
65.5
 30
0.0
 11
35241.0
 21
65.5
 31
0.0
  0
LINE
  5
4A3
  8
MyLines
 10
35243.0
 20
73.0
 30
0.0
 11
35703.0
 21
73.0
 31
0.0
  0
LINE
  5
4A4
  8
MyLines
 10
35243.0
 20
0.0
 30
0.0
 11
35703.0
 21
0.0
 31
0.0
  0
LINE
  5
4A5
  8
MyLines
 10
35243.0
 20
0.0
 30
0.0
 11
35243.0
 21
73.0
 31
0.0
  0
LINE
  5
4A6
  8
MyLines
 10
35703.0
 20
0.0
 30
0.0
 11
35703.0
 21
73.0
 31
0.0
  0
TEXT
  5
4A7
  8
MyLines
 62
1
 10
35244.0
 20
74.0
 30
0.0
 40
1.0
  1
7649-B
 11
35244.0
 21
74.0
 31
0.0
  0
TEXT
  5
4A8
  8
MyLines
 62
1
 10
35244.0
 20
1.0
 30
0.0
 40
1.0
  1
7649-A
 11
35244.0
 21
1.0
 31
0.0
  0
LINE
  5
4A9
  8
MyLines
 10
35243.0
 20
73.0
 30
0.0
 11
35473.0
 21
73.0
 31
0.0
  0
LINE
  5
4AA
  8
MyLines
 10
35475.0
 20
39.0
 30
0.0
 11
35901.0
 21
39.0
 31
0.0
  0
LINE
  5
4AB
  8
MyLines
 10
35475.0
 20
0.0
 30
0.0
 11
35901.0
 21
0.0
 31
0.0
  0
LINE
  5
4AC
  8
MyLines
 10
35475.0
 20
0.0
 30
0.0
 11
35475.0
 21
39.0
 31
0.0
  0
LINE
  5
4AD
  8
MyLines
 10
35901.0
 20
0.0
 30
0.0
 11
35901.0
 21
39.0
 31
0.0
  0
TEXT
  5
4AE
  8
MyLines
 62
1
 10
35476.0
 20
40.0
 30
0.0
 40
1.0
  1
7650-B
 11
35476.0
 21
40.0
 31
0.0
  0
TEXT
  5
4AF
  8
MyLines
 62
1
 10
35476.0
 20
1.0
 30
0.0
 40
1.0
  1
7650-A
 11
35476.0
 21
1.0
 31
0.0
  0
LINE
  5
4B0
  8
MyLines
 10
35475.0
 20
39.0
 30
0.0
 11
35688.0
 21
39.0
 31
0.0
  0
LINE
  5
4B1
  8
MyLines
 10
35690.0
 20
70.5
 30
0.0
 11
36124.0
 21
70.5
 31
0.0
  0
LINE
  5
4B2
  8
MyLines
 10
35690.0
 20
0.0
 30
0.0
 11
36124.0
 21
0.0
 31
0.0
  0
LINE
  5
4B3
  8
MyLines
 10
35690.0
 20
0.0
 30
0.0
 11
35690.0
 21
70.5
 31
0.0
  0
LINE
  5
4B4
  8
MyLines
 10
36124.0
 20
0.0
 30
0.0
 11
36124.0
 21
70.5
 31
0.0
  0
TEXT
  5
4B5
  8
MyLines
 62
1
 10
35691.0
 20
71.5
 30
0.0
 40
1.0
  1
7651-B
 11
35691.0
 21
71.5
 31
0.0
  0
TEXT
  5
4B6
  8
MyLines
 62
1
 10
35691.0
 20
1.0
 30
0.0
 40
1.0
  1
7651-A
 11
35691.0
 21
1.0
 31
0.0
  0
LINE
  5
4B7
  8
MyLines
 10
35690.0
 20
70.5
 30
0.0
 11
35907.0
 21
70.5
 31
0.0
  0
LINE
  5
4B8
  8
MyLines
 10
35909.0
 20
69.5
 30
0.0
 11
36431.0
 21
69.5
 31
0.0
  0
LINE
  5
4B9
  8
MyLines
 10
35909.0
 20
0.0
 30
0.0
 11
36431.0
 21
0.0
 31
0.0
  0
LINE
  5
4BA
  8
MyLines
 10
35909.0
 20
0.0
 30
0.0
 11
35909.0
 21
69.5
 31
0.0
  0
LINE
  5
4BB
  8
MyLines
 10
36431.0
 20
0.0
 30
0.0
 11
36431.0
 21
69.5
 31
0.0
  0
TEXT
  5
4BC
  8
MyLines
 62
1
 10
35910.0
 20
70.5
 30
0.0
 40
1.0
  1
7652-B
 11
35910.0
 21
70.5
 31
0.0
  0
TEXT
  5
4BD
  8
MyLines
 62
1
 10
35910.0
 20
1.0
 30
0.0
 40
1.0
  1
7652-A
 11
35910.0
 21
1.0
 31
0.0
  0
LINE
  5
4BE
  8
MyLines
 10
35909.0
 20
69.5
 30
0.0
 11
36170.0
 21
69.5
 31
0.0
  0
LINE
  5
4BF
  8
MyLines
 10
36172.0
 20
90.0
 30
0.0
 11
36716.0
 21
90.0
 31
0.0
  0
LINE
  5
4C0
  8
MyLines
 10
36172.0
 20
0.0
 30
0.0
 11
36716.0
 21
0.0
 31
0.0
  0
LINE
  5
4C1
  8
MyLines
 10
36172.0
 20
0.0
 30
0.0
 11
36172.0
 21
90.0
 31
0.0
  0
LINE
  5
4C2
  8
MyLines
 10
36716.0
 20
0.0
 30
0.0
 11
36716.0
 21
90.0
 31
0.0
  0
TEXT
  5
4C3
  8
MyLines
 62
1
 10
36173.0
 20
91.0
 30
0.0
 40
1.0
  1
7653-B
 11
36173.0
 21
91.0
 31
0.0
  0
TEXT
  5
4C4
  8
MyLines
 62
1
 10
36173.0
 20
1.0
 30
0.0
 40
1.0
  1
7653-A
 11
36173.0
 21
1.0
 31
0.0
  0
LINE
  5
4C5
  8
MyLines
 10
36172.0
 20
90.0
 30
0.0
 11
36444.0
 21
90.0
 31
0.0
  0
LINE
  5
4C6
  8
MyLines
 10
36446.0
 20
80.5
 30
0.0
 11
36976.0
 21
80.5
 31
0.0
  0
LINE
  5
4C7
  8
MyLines
 10
36446.0
 20
0.0
 30
0.0
 11
36976.0
 21
0.0
 31
0.0
  0
LINE
  5
4C8
  8
MyLines
 10
36446.0
 20
0.0
 30
0.0
 11
36446.0
 21
80.5
 31
0.0
  0
LINE
  5
4C9
  8
MyLines
 10
36976.0
 20
0.0
 30
0.0
 11
36976.0
 21
80.5
 31
0.0
  0
TEXT
  5
4CA
  8
MyLines
 62
1
 10
36447.0
 20
81.5
 30
0.0
 40
1.0
  1
7654-B
 11
36447.0
 21
81.5
 31
0.0
  0
TEXT
  5
4CB
  8
MyLines
 62
1
 10
36447.0
 20
1.0
 30
0.0
 40
1.0
  1
7654-A
 11
36447.0
 21
1.0
 31
0.0
  0
LINE
  5
4CC
  8
MyLines
 10
36446.0
 20
80.5
 30
0.0
 11
36711.0
 21
80.5
 31
0.0
  0
LINE
  5
4CD
  8
MyLines
 10
36713.0
 20
41.0
 30
0.0
 11
37153.0
 21
41.0
 31
0.0
  0
LINE
  5
4CE
  8
MyLines
 10
36713.0
 20
0.0
 30
0.0
 11
37153.0
 21
0.0
 31
0.0
  0
LINE
  5
4CF
  8
MyLines
 10
36713.0
 20
0.0
 30
0.0
 11
36713.0
 21
41.0
 31
0.0
  0
LINE
  5
4D0
  8
MyLines
 10
37153.0
 20
0.0
 30
0.0
 11
37153.0
 21
41.0
 31
0.0
  0
TEXT
  5
4D1
  8
MyLines
 62
1
 10
36714.0
 20
42.0
 30
0.0
 40
1.0
  1
7655-B
 11
36714.0
 21
42.0
 31
0.0
  0
TEXT
  5
4D2
  8
MyLines
 62
1
 10
36714.0
 20
1.0
 30
0.0
 40
1.0
  1
7655-A
 11
36714.0
 21
1.0
 31
0.0
  0
LINE
  5
4D3
  8
MyLines
 10
36713.0
 20
41.0
 30
0.0
 11
36933.0
 21
41.0
 31
0.0
  0
LINE
  5
4D4
  8
MyLines
 10
36935.0
 20
39.5
 30
0.0
 11
37423.0
 21
39.5
 31
0.0
  0
LINE
  5
4D5
  8
MyLines
 10
36935.0
 20
0.0
 30
0.0
 11
37423.0
 21
0.0
 31
0.0
  0
LINE
  5
4D6
  8
MyLines
 10
36935.0
 20
0.0
 30
0.0
 11
36935.0
 21
39.5
 31
0.0
  0
LINE
  5
4D7
  8
MyLines
 10
37423.0
 20
0.0
 30
0.0
 11
37423.0
 21
39.5
 31
0.0
  0
TEXT
  5
4D8
  8
MyLines
 62
1
 10
36936.0
 20
40.5
 30
0.0
 40
1.0
  1
7656-B
 11
36936.0
 21
40.5
 31
0.0
  0
TEXT
  5
4D9
  8
MyLines
 62
1
 10
36936.0
 20
1.0
 30
0.0
 40
1.0
  1
7656-A
 11
36936.0
 21
1.0
 31
0.0
  0
LINE
  5
4DA
  8
MyLines
 10
36935.0
 20
39.5
 30
0.0
 11
37179.0
 21
39.5
 31
0.0
  0
LINE
  5
4DB
  8
MyLines
 10
37181.0
 20
60.5
 30
0.0
 11
37593.0
 21
60.5
 31
0.0
  0
LINE
  5
4DC
  8
MyLines
 10
37181.0
 20
0.0
 30
0.0
 11
37593.0
 21
0.0
 31
0.0
  0
LINE
  5
4DD
  8
MyLines
 10
37181.0
 20
0.0
 30
0.0
 11
37181.0
 21
60.5
 31
0.0
  0
LINE
  5
4DE
  8
MyLines
 10
37593.0
 20
0.0
 30
0.0
 11
37593.0
 21
60.5
 31
0.0
  0
TEXT
  5
4DF
  8
MyLines
 62
1
 10
37182.0
 20
61.5
 30
0.0
 40
1.0
  1
7657-B
 11
37182.0
 21
61.5
 31
0.0
  0
TEXT
  5
4E0
  8
MyLines
 62
1
 10
37182.0
 20
1.0
 30
0.0
 40
1.0
  1
7657-A
 11
37182.0
 21
1.0
 31
0.0
  0
LINE
  5
4E1
  8
MyLines
 10
37181.0
 20
60.5
 30
0.0
 11
37387.0
 21
60.5
 31
0.0
  0
LINE
  5
4E2
  8
MyLines
 10
37389.0
 20
36.5
 30
0.0
 11
37851.0
 21
36.5
 31
0.0
  0
LINE
  5
4E3
  8
MyLines
 10
37389.0
 20
0.0
 30
0.0
 11
37851.0
 21
0.0
 31
0.0
  0
LINE
  5
4E4
  8
MyLines
 10
37389.0
 20
0.0
 30
0.0
 11
37389.0
 21
36.5
 31
0.0
  0
LINE
  5
4E5
  8
MyLines
 10
37851.0
 20
0.0
 30
0.0
 11
37851.0
 21
36.5
 31
0.0
  0
TEXT
  5
4E6
  8
MyLines
 62
1
 10
37390.0
 20
37.5
 30
0.0
 40
1.0
  1
7658-B
 11
37390.0
 21
37.5
 31
0.0
  0
TEXT
  5
4E7
  8
MyLines
 62
1
 10
37390.0
 20
1.0
 30
0.0
 40
1.0
  1
7658-A
 11
37390.0
 21
1.0
 31
0.0
  0
LINE
  5
4E8
  8
MyLines
 10
37389.0
 20
36.5
 30
0.0
 11
37620.0
 21
36.5
 31
0.0
  0
LINE
  5
4E9
  8
MyLines
 10
37622.0
 20
58.0
 30
0.0
 11
37972.0
 21
58.0
 31
0.0
  0
LINE
  5
4EA
  8
MyLines
 10
37622.0
 20
0.0
 30
0.0
 11
37972.0
 21
0.0
 31
0.0
  0
LINE
  5
4EB
  8
MyLines
 10
37622.0
 20
0.0
 30
0.0
 11
37622.0
 21
58.0
 31
0.0
  0
LINE
  5
4EC
  8
MyLines
 10
37972.0
 20
0.0
 30
0.0
 11
37972.0
 21
58.0
 31
0.0
  0
TEXT
  5
4ED
  8
MyLines
 62
1
 10
37623.0
 20
59.0
 30
0.0
 40
1.0
  1
7659-B
 11
37623.0
 21
59.0
 31
0.0
  0
TEXT
  5
4EE
  8
MyLines
 62
1
 10
37623.0
 20
1.0
 30
0.0
 40
1.0
  1
7659-A
 11
37623.0
 21
1.0
 31
0.0
  0
LINE
  5
4EF
  8
MyLines
 10
37622.0
 20
58.0
 30
0.0
 11
37797.0
 21
58.0
 31
0.0
  0
LINE
  5
4F0
  8
MyLines
 10
37799.0
 20
85.5
 30
0.0
 11
38361.0
 21
85.5
 31
0.0
  0
LINE
  5
4F1
  8
MyLines
 10
37799.0
 20
0.0
 30
0.0
 11
38361.0
 21
0.0
 31
0.0
  0
LINE
  5
4F2
  8
MyLines
 10
37799.0
 20
0.0
 30
0.0
 11
37799.0
 21
85.5
 31
0.0
  0
LINE
  5
4F3
  8
MyLines
 10
38361.0
 20
0.0
 30
0.0
 11
38361.0
 21
85.5
 31
0.0
  0
TEXT
  5
4F4
  8
MyLines
 62
1
 10
37800.0
 20
86.5
 30
0.0
 40
1.0
  1
7660-B
 11
37800.0
 21
86.5
 31
0.0
  0
TEXT
  5
4F5
  8
MyLines
 62
1
 10
37800.0
 20
1.0
 30
0.0
 40
1.0
  1
7660-A
 11
37800.0
 21
1.0
 31
0.0
  0
LINE
  5
4F6
  8
MyLines
 10
37799.0
 20
85.5
 30
0.0
 11
38080.0
 21
85.5
 31
0.0
  0
LINE
  5
4F7
  8
MyLines
 10
38082.0
 20
77.5
 30
0.0
 11
38610.0
 21
77.5
 31
0.0
  0
LINE
  5
4F8
  8
MyLines
 10
38082.0
 20
0.0
 30
0.0
 11
38610.0
 21
0.0
 31
0.0
  0
LINE
  5
4F9
  8
MyLines
 10
38082.0
 20
0.0
 30
0.0
 11
38082.0
 21
77.5
 31
0.0
  0
LINE
  5
4FA
  8
MyLines
 10
38610.0
 20
0.0
 30
0.0
 11
38610.0
 21
77.5
 31
0.0
  0
TEXT
  5
4FB
  8
MyLines
 62
1
 10
38083.0
 20
78.5
 30
0.0
 40
1.0
  1
7661-B
 11
38083.0
 21
78.5
 31
0.0
  0
TEXT
  5
4FC
  8
MyLines
 62
1
 10
38083.0
 20
1.0
 30
0.0
 40
1.0
  1
7661-A
 11
38083.0
 21
1.0
 31
0.0
  0
LINE
  5
4FD
  8
MyLines
 10
38082.0
 20
77.5
 30
0.0
 11
38346.0
 21
77.5
 31
0.0
  0
LINE
  5
4FE
  8
MyLines
 10
38348.0
 20
85.0
 30
0.0
 11
38714.0
 21
85.0
 31
0.0
  0
LINE
  5
4FF
  8
MyLines
 10
38348.0
 20
0.0
 30
0.0
 11
38714.0
 21
0.0
 31
0.0
  0
LINE
  5
500
  8
MyLines
 10
38348.0
 20
0.0
 30
0.0
 11
38348.0
 21
85.0
 31
0.0
  0
LINE
  5
501
  8
MyLines
 10
38714.0
 20
0.0
 30
0.0
 11
38714.0
 21
85.0
 31
0.0
  0
TEXT
  5
502
  8
MyLines
 62
1
 10
38349.0
 20
86.0
 30
0.0
 40
1.0
  1
7662-B
 11
38349.0
 21
86.0
 31
0.0
  0
TEXT
  5
503
  8
MyLines
 62
1
 10
38349.0
 20
1.0
 30
0.0
 40
1.0
  1
7662-A
 11
38349.0
 21
1.0
 31
0.0
  0
LINE
  5
504
  8
MyLines
 10
38348.0
 20
85.0
 30
0.0
 11
38531.0
 21
85.0
 31
0.0
  0
LINE
  5
505
  8
MyLines
 10
38533.0
 20
70.0
 30
0.0
 11
38961.0
 21
70.0
 31
0.0
  0
LINE
  5
506
  8
MyLines
 10
38533.0
 20
0.0
 30
0.0
 11
38961.0
 21
0.0
 31
0.0
  0
LINE
  5
507
  8
MyLines
 10
38533.0
 20
0.0
 30
0.0
 11
38533.0
 21
70.0
 31
0.0
  0
LINE
  5
508
  8
MyLines
 10
38961.0
 20
0.0
 30
0.0
 11
38961.0
 21
70.0
 31
0.0
  0
TEXT
  5
509
  8
MyLines
 62
1
 10
38534.0
 20
71.0
 30
0.0
 40
1.0
  1
7663-B
 11
38534.0
 21
71.0
 31
0.0
  0
TEXT
  5
50A
  8
MyLines
 62
1
 10
38534.0
 20
1.0
 30
0.0
 40
1.0
  1
7663-A
 11
38534.0
 21
1.0
 31
0.0
  0
LINE
  5
50B
  8
MyLines
 10
38533.0
 20
70.0
 30
0.0
 11
38747.0
 21
70.0
 31
0.0
  0
LINE
  5
50C
  8
MyLines
 10
38749.0
 20
48.0
 30
0.0
 11
39213.0
 21
48.0
 31
0.0
  0
LINE
  5
50D
  8
MyLines
 10
38749.0
 20
0.0
 30
0.0
 11
39213.0
 21
0.0
 31
0.0
  0
LINE
  5
50E
  8
MyLines
 10
38749.0
 20
0.0
 30
0.0
 11
38749.0
 21
48.0
 31
0.0
  0
LINE
  5
50F
  8
MyLines
 10
39213.0
 20
0.0
 30
0.0
 11
39213.0
 21
48.0
 31
0.0
  0
TEXT
  5
510
  8
MyLines
 62
1
 10
38750.0
 20
49.0
 30
0.0
 40
1.0
  1
7664-B
 11
38750.0
 21
49.0
 31
0.0
  0
TEXT
  5
511
  8
MyLines
 62
1
 10
38750.0
 20
1.0
 30
0.0
 40
1.0
  1
7664-A
 11
38750.0
 21
1.0
 31
0.0
  0
LINE
  5
512
  8
MyLines
 10
38749.0
 20
48.0
 30
0.0
 11
38981.0
 21
48.0
 31
0.0
  0
LINE
  5
513
  8
MyLines
 10
38983.0
 20
50.0
 30
0.0
 11
39479.0
 21
50.0
 31
0.0
  0
LINE
  5
514
  8
MyLines
 10
38983.0
 20
0.0
 30
0.0
 11
39479.0
 21
0.0
 31
0.0
  0
LINE
  5
515
  8
MyLines
 10
38983.0
 20
0.0
 30
0.0
 11
38983.0
 21
50.0
 31
0.0
  0
LINE
  5
516
  8
MyLines
 10
39479.0
 20
0.0
 30
0.0
 11
39479.0
 21
50.0
 31
0.0
  0
TEXT
  5
517
  8
MyLines
 62
1
 10
38984.0
 20
51.0
 30
0.0
 40
1.0
  1
7665-B
 11
38984.0
 21
51.0
 31
0.0
  0
TEXT
  5
518
  8
MyLines
 62
1
 10
38984.0
 20
1.0
 30
0.0
 40
1.0
  1
7665-A
 11
38984.0
 21
1.0
 31
0.0
  0
LINE
  5
519
  8
MyLines
 10
38983.0
 20
50.0
 30
0.0
 11
39231.0
 21
50.0
 31
0.0
  0
LINE
  5
51A
  8
MyLines
 10
39233.0
 20
59.5
 30
0.0
 11
39649.0
 21
59.5
 31
0.0
  0
LINE
  5
51B
  8
MyLines
 10
39233.0
 20
0.0
 30
0.0
 11
39649.0
 21
0.0
 31
0.0
  0
LINE
  5
51C
  8
MyLines
 10
39233.0
 20
0.0
 30
0.0
 11
39233.0
 21
59.5
 31
0.0
  0
LINE
  5
51D
  8
MyLines
 10
39649.0
 20
0.0
 30
0.0
 11
39649.0
 21
59.5
 31
0.0
  0
TEXT
  5
51E
  8
MyLines
 62
1
 10
39234.0
 20
60.5
 30
0.0
 40
1.0
  1
7666-B
 11
39234.0
 21
60.5
 31
0.0
  0
TEXT
  5
51F
  8
MyLines
 62
1
 10
39234.0
 20
1.0
 30
0.0
 40
1.0
  1
7666-A
 11
39234.0
 21
1.0
 31
0.0
  0
LINE
  5
520
  8
MyLines
 10
39233.0
 20
59.5
 30
0.0
 11
39441.0
 21
59.5
 31
0.0
  0
LINE
  5
521
  8
MyLines
 10
39443.0
 20
69.0
 30
0.0
 11
39821.0
 21
69.0
 31
0.0
  0
LINE
  5
522
  8
MyLines
 10
39443.0
 20
0.0
 30
0.0
 11
39821.0
 21
0.0
 31
0.0
  0
LINE
  5
523
  8
MyLines
 10
39443.0
 20
0.0
 30
0.0
 11
39443.0
 21
69.0
 31
0.0
  0
LINE
  5
524
  8
MyLines
 10
39821.0
 20
0.0
 30
0.0
 11
39821.0
 21
69.0
 31
0.0
  0
TEXT
  5
525
  8
MyLines
 62
1
 10
39444.0
 20
70.0
 30
0.0
 40
1.0
  1
7667-B
 11
39444.0
 21
70.0
 31
0.0
  0
TEXT
  5
526
  8
MyLines
 62
1
 10
39444.0
 20
1.0
 30
0.0
 40
1.0
  1
7667-A
 11
39444.0
 21
1.0
 31
0.0
  0
LINE
  5
527
  8
MyLines
 10
39443.0
 20
69.0
 30
0.0
 11
39632.0
 21
69.0
 31
0.0
  0
LINE
  5
528
  8
MyLines
 10
39634.0
 20
89.5
 30
0.0
 11
40098.0
 21
89.5
 31
0.0
  0
LINE
  5
529
  8
MyLines
 10
39634.0
 20
0.0
 30
0.0
 11
40098.0
 21
0.0
 31
0.0
  0
LINE
  5
52A
  8
MyLines
 10
39634.0
 20
0.0
 30
0.0
 11
39634.0
 21
89.5
 31
0.0
  0
LINE
  5
52B
  8
MyLines
 10
40098.0
 20
0.0
 30
0.0
 11
40098.0
 21
89.5
 31
0.0
  0
TEXT
  5
52C
  8
MyLines
 62
1
 10
39635.0
 20
90.5
 30
0.0
 40
1.0
  1
7668-B
 11
39635.0
 21
90.5
 31
0.0
  0
TEXT
  5
52D
  8
MyLines
 62
1
 10
39635.0
 20
1.0
 30
0.0
 40
1.0
  1
7668-A
 11
39635.0
 21
1.0
 31
0.0
  0
LINE
  5
52E
  8
MyLines
 10
39634.0
 20
89.5
 30
0.0
 11
39866.0
 21
89.5
 31
0.0
  0
LINE
  5
52F
  8
MyLines
 10
39868.0
 20
58.5
 30
0.0
 11
40374.0
 21
58.5
 31
0.0
  0
LINE
  5
530
  8
MyLines
 10
39868.0
 20
0.0
 30
0.0
 11
40374.0
 21
0.0
 31
0.0
  0
LINE
  5
531
  8
MyLines
 10
39868.0
 20
0.0
 30
0.0
 11
39868.0
 21
58.5
 31
0.0
  0
LINE
  5
532
  8
MyLines
 10
40374.0
 20
0.0
 30
0.0
 11
40374.0
 21
58.5
 31
0.0
  0
TEXT
  5
533
  8
MyLines
 62
1
 10
39869.0
 20
59.5
 30
0.0
 40
1.0
  1
7669-B
 11
39869.0
 21
59.5
 31
0.0
  0
TEXT
  5
534
  8
MyLines
 62
1
 10
39869.0
 20
1.0
 30
0.0
 40
1.0
  1
7669-A
 11
39869.0
 21
1.0
 31
0.0
  0
LINE
  5
535
  8
MyLines
 10
39868.0
 20
58.5
 30
0.0
 11
40121.0
 21
58.5
 31
0.0
  0
LINE
  5
536
  8
MyLines
 10
40123.0
 20
89.0
 30
0.0
 11
40577.0
 21
89.0
 31
0.0
  0
LINE
  5
537
  8
MyLines
 10
40123.0
 20
0.0
 30
0.0
 11
40577.0
 21
0.0
 31
0.0
  0
LINE
  5
538
  8
MyLines
 10
40123.0
 20
0.0
 30
0.0
 11
40123.0
 21
89.0
 31
0.0
  0
LINE
  5
539
  8
MyLines
 10
40577.0
 20
0.0
 30
0.0
 11
40577.0
 21
89.0
 31
0.0
  0
TEXT
  5
53A
  8
MyLines
 62
1
 10
40124.0
 20
90.0
 30
0.0
 40
1.0
  1
7670-B
 11
40124.0
 21
90.0
 31
0.0
  0
TEXT
  5
53B
  8
MyLines
 62
1
 10
40124.0
 20
1.0
 30
0.0
 40
1.0
  1
7670-A
 11
40124.0
 21
1.0
 31
0.0
  0
LINE
  5
53C
  8
MyLines
 10
40123.0
 20
89.0
 30
0.0
 11
40350.0
 21
89.0
 31
0.0
  0
LINE
  5
53D
  8
MyLines
 10
40352.0
 20
54.0
 30
0.0
 11
40776.0
 21
54.0
 31
0.0
  0
LINE
  5
53E
  8
MyLines
 10
40352.0
 20
0.0
 30
0.0
 11
40776.0
 21
0.0
 31
0.0
  0
LINE
  5
53F
  8
MyLines
 10
40352.0
 20
0.0
 30
0.0
 11
40352.0
 21
54.0
 31
0.0
  0
LINE
  5
540
  8
MyLines
 10
40776.0
 20
0.0
 30
0.0
 11
40776.0
 21
54.0
 31
0.0
  0
TEXT
  5
541
  8
MyLines
 62
1
 10
40353.0
 20
55.0
 30
0.0
 40
1.0
  1
7671-B
 11
40353.0
 21
55.0
 31
0.0
  0
TEXT
  5
542
  8
MyLines
 62
1
 10
40353.0
 20
1.0
 30
0.0
 40
1.0
  1
7671-A
 11
40353.0
 21
1.0
 31
0.0
  0
LINE
  5
543
  8
MyLines
 10
40352.0
 20
54.0
 30
0.0
 11
40564.0
 21
54.0
 31
0.0
  0
LINE
  5
544
  8
MyLines
 10
40566.0
 20
75.5
 30
0.0
 11
41110.0
 21
75.5
 31
0.0
  0
LINE
  5
545
  8
MyLines
 10
40566.0
 20
0.0
 30
0.0
 11
41110.0
 21
0.0
 31
0.0
  0
LINE
  5
546
  8
MyLines
 10
40566.0
 20
0.0
 30
0.0
 11
40566.0
 21
75.5
 31
0.0
  0
LINE
  5
547
  8
MyLines
 10
41110.0
 20
0.0
 30
0.0
 11
41110.0
 21
75.5
 31
0.0
  0
TEXT
  5
548
  8
MyLines
 62
1
 10
40567.0
 20
76.5
 30
0.0
 40
1.0
  1
7672-B
 11
40567.0
 21
76.5
 31
0.0
  0
TEXT
  5
549
  8
MyLines
 62
1
 10
40567.0
 20
1.0
 30
0.0
 40
1.0
  1
7672-A
 11
40567.0
 21
1.0
 31
0.0
  0
LINE
  5
54A
  8
MyLines
 10
40566.0
 20
75.5
 30
0.0
 11
40838.0
 21
75.5
 31
0.0
  0
LINE
  5
54B
  8
MyLines
 10
40840.0
 20
48.0
 30
0.0
 11
41370.0
 21
48.0
 31
0.0
  0
LINE
  5
54C
  8
MyLines
 10
40840.0
 20
0.0
 30
0.0
 11
41370.0
 21
0.0
 31
0.0
  0
LINE
  5
54D
  8
MyLines
 10
40840.0
 20
0.0
 30
0.0
 11
40840.0
 21
48.0
 31
0.0
  0
LINE
  5
54E
  8
MyLines
 10
41370.0
 20
0.0
 30
0.0
 11
41370.0
 21
48.0
 31
0.0
  0
TEXT
  5
54F
  8
MyLines
 62
1
 10
40841.0
 20
49.0
 30
0.0
 40
1.0
  1
7673-B
 11
40841.0
 21
49.0
 31
0.0
  0
TEXT
  5
550
  8
MyLines
 62
1
 10
40841.0
 20
1.0
 30
0.0
 40
1.0
  1
7673-A
 11
40841.0
 21
1.0
 31
0.0
  0
LINE
  5
551
  8
MyLines
 10
40840.0
 20
48.0
 30
0.0
 11
41105.0
 21
48.0
 31
0.0
  0
LINE
  5
552
  8
MyLines
 10
41107.0
 20
57.0
 30
0.0
 11
41477.0
 21
57.0
 31
0.0
  0
LINE
  5
553
  8
MyLines
 10
41107.0
 20
0.0
 30
0.0
 11
41477.0
 21
0.0
 31
0.0
  0
LINE
  5
554
  8
MyLines
 10
41107.0
 20
0.0
 30
0.0
 11
41107.0
 21
57.0
 31
0.0
  0
LINE
  5
555
  8
MyLines
 10
41477.0
 20
0.0
 30
0.0
 11
41477.0
 21
57.0
 31
0.0
  0
TEXT
  5
556
  8
MyLines
 62
1
 10
41108.0
 20
58.0
 30
0.0
 40
1.0
  1
7674-B
 11
41108.0
 21
58.0
 31
0.0
  0
TEXT
  5
557
  8
MyLines
 62
1
 10
41108.0
 20
1.0
 30
0.0
 40
1.0
  1
7674-A
 11
41108.0
 21
1.0
 31
0.0
  0
LINE
  5
558
  8
MyLines
 10
41107.0
 20
57.0
 30
0.0
 11
41292.0
 21
57.0
 31
0.0
  0
LINE
  5
559
  8
MyLines
 10
41294.0
 20
84.0
 30
0.0
 11
41892.0
 21
84.0
 31
0.0
  0
LINE
  5
55A
  8
MyLines
 10
41294.0
 20
0.0
 30
0.0
 11
41892.0
 21
0.0
 31
0.0
  0
LINE
  5
55B
  8
MyLines
 10
41294.0
 20
0.0
 30
0.0
 11
41294.0
 21
84.0
 31
0.0
  0
LINE
  5
55C
  8
MyLines
 10
41892.0
 20
0.0
 30
0.0
 11
41892.0
 21
84.0
 31
0.0
  0
TEXT
  5
55D
  8
MyLines
 62
1
 10
41295.0
 20
85.0
 30
0.0
 40
1.0
  1
7675-B
 11
41295.0
 21
85.0
 31
0.0
  0
TEXT
  5
55E
  8
MyLines
 62
1
 10
41295.0
 20
1.0
 30
0.0
 40
1.0
  1
7675-A
 11
41295.0
 21
1.0
 31
0.0
  0
LINE
  5
55F
  8
MyLines
 10
41294.0
 20
84.0
 30
0.0
 11
41593.0
 21
84.0
 31
0.0
  0
LINE
  5
560
  8
MyLines
 10
41595.0
 20
60.5
 30
0.0
 11
42079.0
 21
60.5
 31
0.0
  0
LINE
  5
561
  8
MyLines
 10
41595.0
 20
0.0
 30
0.0
 11
42079.0
 21
0.0
 31
0.0
  0
LINE
  5
562
  8
MyLines
 10
41595.0
 20
0.0
 30
0.0
 11
41595.0
 21
60.5
 31
0.0
  0
LINE
  5
563
  8
MyLines
 10
42079.0
 20
0.0
 30
0.0
 11
42079.0
 21
60.5
 31
0.0
  0
TEXT
  5
564
  8
MyLines
 62
1
 10
41596.0
 20
61.5
 30
0.0
 40
1.0
  1
7676-B
 11
41596.0
 21
61.5
 31
0.0
  0
TEXT
  5
565
  8
MyLines
 62
1
 10
41596.0
 20
1.0
 30
0.0
 40
1.0
  1
7676-A
 11
41596.0
 21
1.0
 31
0.0
  0
LINE
  5
566
  8
MyLines
 10
41595.0
 20
60.5
 30
0.0
 11
41837.0
 21
60.5
 31
0.0
  0
LINE
  5
567
  8
MyLines
 10
41839.0
 20
63.5
 30
0.0
 11
42315.0
 21
63.5
 31
0.0
  0
LINE
  5
568
  8
MyLines
 10
41839.0
 20
0.0
 30
0.0
 11
42315.0
 21
0.0
 31
0.0
  0
LINE
  5
569
  8
MyLines
 10
41839.0
 20
0.0
 30
0.0
 11
41839.0
 21
63.5
 31
0.0
  0
LINE
  5
56A
  8
MyLines
 10
42315.0
 20
0.0
 30
0.0
 11
42315.0
 21
63.5
 31
0.0
  0
TEXT
  5
56B
  8
MyLines
 62
1
 10
41840.0
 20
64.5
 30
0.0
 40
1.0
  1
7677-B
 11
41840.0
 21
64.5
 31
0.0
  0
TEXT
  5
56C
  8
MyLines
 62
1
 10
41840.0
 20
1.0
 30
0.0
 40
1.0
  1
7677-A
 11
41840.0
 21
1.0
 31
0.0
  0
LINE
  5
56D
  8
MyLines
 10
41839.0
 20
63.5
 30
0.0
 11
42077.0
 21
63.5
 31
0.0
  0
LINE
  5
56E
  8
MyLines
 10
42079.0
 20
51.5
 30
0.0
 11
42447.0
 21
51.5
 31
0.0
  0
LINE
  5
56F
  8
MyLines
 10
42079.0
 20
0.0
 30
0.0
 11
42447.0
 21
0.0
 31
0.0
  0
LINE
  5
570
  8
MyLines
 10
42079.0
 20
0.0
 30
0.0
 11
42079.0
 21
51.5
 31
0.0
  0
LINE
  5
571
  8
MyLines
 10
42447.0
 20
0.0
 30
0.0
 11
42447.0
 21
51.5
 31
0.0
  0
TEXT
  5
572
  8
MyLines
 62
1
 10
42080.0
 20
52.5
 30
0.0
 40
1.0
  1
7678-B
 11
42080.0
 21
52.5
 31
0.0
  0
TEXT
  5
573
  8
MyLines
 62
1
 10
42080.0
 20
1.0
 30
0.0
 40
1.0
  1
7678-A
 11
42080.0
 21
1.0
 31
0.0
  0
LINE
  5
574
  8
MyLines
 10
42079.0
 20
51.5
 30
0.0
 11
42263.0
 21
51.5
 31
0.0
  0
LINE
  5
575
  8
MyLines
 10
42265.0
 20
82.5
 30
0.0
 11
42675.0
 21
82.5
 31
0.0
  0
LINE
  5
576
  8
MyLines
 10
42265.0
 20
0.0
 30
0.0
 11
42675.0
 21
0.0
 31
0.0
  0
LINE
  5
577
  8
MyLines
 10
42265.0
 20
0.0
 30
0.0
 11
42265.0
 21
82.5
 31
0.0
  0
LINE
  5
578
  8
MyLines
 10
42675.0
 20
0.0
 30
0.0
 11
42675.0
 21
82.5
 31
0.0
  0
TEXT
  5
579
  8
MyLines
 62
1
 10
42266.0
 20
83.5
 30
0.0
 40
1.0
  1
7679-B
 11
42266.0
 21
83.5
 31
0.0
  0
TEXT
  5
57A
  8
MyLines
 62
1
 10
42266.0
 20
1.0
 30
0.0
 40
1.0
  1
7679-A
 11
42266.0
 21
1.0
 31
0.0
  0
LINE
  5
57B
  8
MyLines
 10
42265.0
 20
82.5
 30
0.0
 11
42470.0
 21
82.5
 31
0.0
  0
LINE
  5
57C
  8
MyLines
 10
42472.0
 20
61.5
 30
0.0
 11
42830.0
 21
61.5
 31
0.0
  0
LINE
  5
57D
  8
MyLines
 10
42472.0
 20
0.0
 30
0.0
 11
42830.0
 21
0.0
 31
0.0
  0
LINE
  5
57E
  8
MyLines
 10
42472.0
 20
0.0
 30
0.0
 11
42472.0
 21
61.5
 31
0.0
  0
LINE
  5
57F
  8
MyLines
 10
42830.0
 20
0.0
 30
0.0
 11
42830.0
 21
61.5
 31
0.0
  0
TEXT
  5
580
  8
MyLines
 62
1
 10
42473.0
 20
62.5
 30
0.0
 40
1.0
  1
7680-B
 11
42473.0
 21
62.5
 31
0.0
  0
TEXT
  5
581
  8
MyLines
 62
1
 10
42473.0
 20
1.0
 30
0.0
 40
1.0
  1
7680-A
 11
42473.0
 21
1.0
 31
0.0
  0
LINE
  5
582
  8
MyLines
 10
42472.0
 20
61.5
 30
0.0
 11
42651.0
 21
61.5
 31
0.0
  0
LINE
  5
583
  8
MyLines
 10
42653.0
 20
65.0
 30
0.0
 11
43113.0
 21
65.0
 31
0.0
  0
LINE
  5
584
  8
MyLines
 10
42653.0
 20
0.0
 30
0.0
 11
43113.0
 21
0.0
 31
0.0
  0
LINE
  5
585
  8
MyLines
 10
42653.0
 20
0.0
 30
0.0
 11
42653.0
 21
65.0
 31
0.0
  0
LINE
  5
586
  8
MyLines
 10
43113.0
 20
0.0
 30
0.0
 11
43113.0
 21
65.0
 31
0.0
  0
TEXT
  5
587
  8
MyLines
 62
1
 10
42654.0
 20
66.0
 30
0.0
 40
1.0
  1
7681-B
 11
42654.0
 21
66.0
 31
0.0
  0
TEXT
  5
588
  8
MyLines
 62
1
 10
42654.0
 20
1.0
 30
0.0
 40
1.0
  1
7681-A
 11
42654.0
 21
1.0
 31
0.0
  0
LINE
  5
589
  8
MyLines
 10
42653.0
 20
65.0
 30
0.0
 11
42883.0
 21
65.0
 31
0.0
  0
LINE
  5
58A
  8
MyLines
 10
42885.0
 20
67.0
 30
0.0
 11
43369.0
 21
67.0
 31
0.0
  0
LINE
  5
58B
  8
MyLines
 10
42885.0
 20
0.0
 30
0.0
 11
43369.0
 21
0.0
 31
0.0
  0
LINE
  5
58C
  8
MyLines
 10
42885.0
 20
0.0
 30
0.0
 11
42885.0
 21
67.0
 31
0.0
  0
LINE
  5
58D
  8
MyLines
 10
43369.0
 20
0.0
 30
0.0
 11
43369.0
 21
67.0
 31
0.0
  0
TEXT
  5
58E
  8
MyLines
 62
1
 10
42886.0
 20
68.0
 30
0.0
 40
1.0
  1
7682-B
 11
42886.0
 21
68.0
 31
0.0
  0
TEXT
  5
58F
  8
MyLines
 62
1
 10
42886.0
 20
1.0
 30
0.0
 40
1.0
  1
7682-A
 11
42886.0
 21
1.0
 31
0.0
  0
LINE
  5
590
  8
MyLines
 10
42885.0
 20
67.0
 30
0.0
 11
43127.0
 21
67.0
 31
0.0
  0
LINE
  5
591
  8
MyLines
 10
43129.0
 20
64.5
 30
0.0
 11
43719.0
 21
64.5
 31
0.0
  0
LINE
  5
592
  8
MyLines
 10
43129.0
 20
0.0
 30
0.0
 11
43719.0
 21
0.0
 31
0.0
  0
LINE
  5
593
  8
MyLines
 10
43129.0
 20
0.0
 30
0.0
 11
43129.0
 21
64.5
 31
0.0
  0
LINE
  5
594
  8
MyLines
 10
43719.0
 20
0.0
 30
0.0
 11
43719.0
 21
64.5
 31
0.0
  0
TEXT
  5
595
  8
MyLines
 62
1
 10
43130.0
 20
65.5
 30
0.0
 40
1.0
  1
7683-B
 11
43130.0
 21
65.5
 31
0.0
  0
TEXT
  5
596
  8
MyLines
 62
1
 10
43130.0
 20
1.0
 30
0.0
 40
1.0
  1
7683-A
 11
43130.0
 21
1.0
 31
0.0
  0
LINE
  5
597
  8
MyLines
 10
43129.0
 20
64.5
 30
0.0
 11
43424.0
 21
64.5
 31
0.0
  0
LINE
  5
598
  8
MyLines
 10
43426.0
 20
49.5
 30
0.0
 11
43996.0
 21
49.5
 31
0.0
  0
LINE
  5
599
  8
MyLines
 10
43426.0
 20
0.0
 30
0.0
 11
43996.0
 21
0.0
 31
0.0
  0
LINE
  5
59A
  8
MyLines
 10
43426.0
 20
0.0
 30
0.0
 11
43426.0
 21
49.5
 31
0.0
  0
LINE
  5
59B
  8
MyLines
 10
43996.0
 20
0.0
 30
0.0
 11
43996.0
 21
49.5
 31
0.0
  0
TEXT
  5
59C
  8
MyLines
 62
1
 10
43427.0
 20
50.5
 30
0.0
 40
1.0
  1
7684-B
 11
43427.0
 21
50.5
 31
0.0
  0
TEXT
  5
59D
  8
MyLines
 62
1
 10
43427.0
 20
1.0
 30
0.0
 40
1.0
  1
7684-A
 11
43427.0
 21
1.0
 31
0.0
  0
LINE
  5
59E
  8
MyLines
 10
43426.0
 20
49.5
 30
0.0
 11
43711.0
 21
49.5
 31
0.0
  0
LINE
  5
59F
  8
MyLines
 10
43713.0
 20
63.5
 30
0.0
 11
44067.0
 21
63.5
 31
0.0
  0
LINE
  5
5A0
  8
MyLines
 10
43713.0
 20
0.0
 30
0.0
 11
44067.0
 21
0.0
 31
0.0
  0
LINE
  5
5A1
  8
MyLines
 10
43713.0
 20
0.0
 30
0.0
 11
43713.0
 21
63.5
 31
0.0
  0
LINE
  5
5A2
  8
MyLines
 10
44067.0
 20
0.0
 30
0.0
 11
44067.0
 21
63.5
 31
0.0
  0
TEXT
  5
5A3
  8
MyLines
 62
1
 10
43714.0
 20
64.5
 30
0.0
 40
1.0
  1
7685-B
 11
43714.0
 21
64.5
 31
0.0
  0
TEXT
  5
5A4
  8
MyLines
 62
1
 10
43714.0
 20
1.0
 30
0.0
 40
1.0
  1
7685-A
 11
43714.0
 21
1.0
 31
0.0
  0
LINE
  5
5A5
  8
MyLines
 10
43713.0
 20
63.5
 30
0.0
 11
43890.0
 21
63.5
 31
0.0
  0
LINE
  5
5A6
  8
MyLines
 10
43892.0
 20
36.5
 30
0.0
 11
44326.0
 21
36.5
 31
0.0
  0
LINE
  5
5A7
  8
MyLines
 10
43892.0
 20
0.0
 30
0.0
 11
44326.0
 21
0.0
 31
0.0
  0
LINE
  5
5A8
  8
MyLines
 10
43892.0
 20
0.0
 30
0.0
 11
43892.0
 21
36.5
 31
0.0
  0
LINE
  5
5A9
  8
MyLines
 10
44326.0
 20
0.0
 30
0.0
 11
44326.0
 21
36.5
 31
0.0
  0
TEXT
  5
5AA
  8
MyLines
 62
1
 10
43893.0
 20
37.5
 30
0.0
 40
1.0
  1
7686-B
 11
43893.0
 21
37.5
 31
0.0
  0
TEXT
  5
5AB
  8
MyLines
 62
1
 10
43893.0
 20
1.0
 30
0.0
 40
1.0
  1
7686-A
 11
43893.0
 21
1.0
 31
0.0
  0
LINE
  5
5AC
  8
MyLines
 10
43892.0
 20
36.5
 30
0.0
 11
44109.0
 21
36.5
 31
0.0
  0
LINE
  5
5AD
  8
MyLines
 10
44111.0
 20
40.5
 30
0.0
 11
44701.0
 21
40.5
 31
0.0
  0
LINE
  5
5AE
  8
MyLines
 10
44111.0
 20
0.0
 30
0.0
 11
44701.0
 21
0.0
 31
0.0
  0
LINE
  5
5AF
  8
MyLines
 10
44111.0
 20
0.0
 30
0.0
 11
44111.0
 21
40.5
 31
0.0
  0
LINE
  5
5B0
  8
MyLines
 10
44701.0
 20
0.0
 30
0.0
 11
44701.0
 21
40.5
 31
0.0
  0
TEXT
  5
5B1
  8
MyLines
 62
1
 10
44112.0
 20
41.5
 30
0.0
 40
1.0
  1
7687-B
 11
44112.0
 21
41.5
 31
0.0
  0
TEXT
  5
5B2
  8
MyLines
 62
1
 10
44112.0
 20
1.0
 30
0.0
 40
1.0
  1
7687-A
 11
44112.0
 21
1.0
 31
0.0
  0
LINE
  5
5B3
  8
MyLines
 10
44111.0
 20
40.5
 30
0.0
 11
44406.0
 21
40.5
 31
0.0
  0
LINE
  5
5B4
  8
MyLines
 10
44408.0
 20
36.5
 30
0.0
 11
44904.0
 21
36.5
 31
0.0
  0
LINE
  5
5B5
  8
MyLines
 10
44408.0
 20
0.0
 30
0.0
 11
44904.0
 21
0.0
 31
0.0
  0
LINE
  5
5B6
  8
MyLines
 10
44408.0
 20
0.0
 30
0.0
 11
44408.0
 21
36.5
 31
0.0
  0
LINE
  5
5B7
  8
MyLines
 10
44904.0
 20
0.0
 30
0.0
 11
44904.0
 21
36.5
 31
0.0
  0
TEXT
  5
5B8
  8
MyLines
 62
1
 10
44409.0
 20
37.5
 30
0.0
 40
1.0
  1
7688-B
 11
44409.0
 21
37.5
 31
0.0
  0
TEXT
  5
5B9
  8
MyLines
 62
1
 10
44409.0
 20
1.0
 30
0.0
 40
1.0
  1
7688-A
 11
44409.0
 21
1.0
 31
0.0
  0
LINE
  5
5BA
  8
MyLines
 10
44408.0
 20
36.5
 30
0.0
 11
44656.0
 21
36.5
 31
0.0
  0
LINE
  5
5BB
  8
MyLines
 10
44658.0
 20
67.0
 30
0.0
 11
45060.0
 21
67.0
 31
0.0
  0
LINE
  5
5BC
  8
MyLines
 10
44658.0
 20
0.0
 30
0.0
 11
45060.0
 21
0.0
 31
0.0
  0
LINE
  5
5BD
  8
MyLines
 10
44658.0
 20
0.0
 30
0.0
 11
44658.0
 21
67.0
 31
0.0
  0
LINE
  5
5BE
  8
MyLines
 10
45060.0
 20
0.0
 30
0.0
 11
45060.0
 21
67.0
 31
0.0
  0
TEXT
  5
5BF
  8
MyLines
 62
1
 10
44659.0
 20
68.0
 30
0.0
 40
1.0
  1
7689-B
 11
44659.0
 21
68.0
 31
0.0
  0
TEXT
  5
5C0
  8
MyLines
 62
1
 10
44659.0
 20
1.0
 30
0.0
 40
1.0
  1
7689-A
 11
44659.0
 21
1.0
 31
0.0
  0
LINE
  5
5C1
  8
MyLines
 10
44658.0
 20
67.0
 30
0.0
 11
44859.0
 21
67.0
 31
0.0
  0
LINE
  5
5C2
  8
MyLines
 10
44861.0
 20
46.5
 30
0.0
 11
45405.0
 21
46.5
 31
0.0
  0
LINE
  5
5C3
  8
MyLines
 10
44861.0
 20
0.0
 30
0.0
 11
45405.0
 21
0.0
 31
0.0
  0
LINE
  5
5C4
  8
MyLines
 10
44861.0
 20
0.0
 30
0.0
 11
44861.0
 21
46.5
 31
0.0
  0
LINE
  5
5C5
  8
MyLines
 10
45405.0
 20
0.0
 30
0.0
 11
45405.0
 21
46.5
 31
0.0
  0
TEXT
  5
5C6
  8
MyLines
 62
1
 10
44862.0
 20
47.5
 30
0.0
 40
1.0
  1
7690-B
 11
44862.0
 21
47.5
 31
0.0
  0
TEXT
  5
5C7
  8
MyLines
 62
1
 10
44862.0
 20
1.0
 30
0.0
 40
1.0
  1
7690-A
 11
44862.0
 21
1.0
 31
0.0
  0
LINE
  5
5C8
  8
MyLines
 10
44861.0
 20
46.5
 30
0.0
 11
45133.0
 21
46.5
 31
0.0
  0
LINE
  5
5C9
  8
MyLines
 10
45135.0
 20
48.5
 30
0.0
 11
45553.0
 21
48.5
 31
0.0
  0
LINE
  5
5CA
  8
MyLines
 10
45135.0
 20
0.0
 30
0.0
 11
45553.0
 21
0.0
 31
0.0
  0
LINE
  5
5CB
  8
MyLines
 10
45135.0
 20
0.0
 30
0.0
 11
45135.0
 21
48.5
 31
0.0
  0
LINE
  5
5CC
  8
MyLines
 10
45553.0
 20
0.0
 30
0.0
 11
45553.0
 21
48.5
 31
0.0
  0
TEXT
  5
5CD
  8
MyLines
 62
1
 10
45136.0
 20
49.5
 30
0.0
 40
1.0
  1
7691-B
 11
45136.0
 21
49.5
 31
0.0
  0
TEXT
  5
5CE
  8
MyLines
 62
1
 10
45136.0
 20
1.0
 30
0.0
 40
1.0
  1
7691-A
 11
45136.0
 21
1.0
 31
0.0
  0
LINE
  5
5CF
  8
MyLines
 10
45135.0
 20
48.5
 30
0.0
 11
45344.0
 21
48.5
 31
0.0
  0
LINE
  5
5D0
  8
MyLines
 10
45346.0
 20
39.0
 30
0.0
 11
45906.0
 21
39.0
 31
0.0
  0
LINE
  5
5D1
  8
MyLines
 10
45346.0
 20
0.0
 30
0.0
 11
45906.0
 21
0.0
 31
0.0
  0
LINE
  5
5D2
  8
MyLines
 10
45346.0
 20
0.0
 30
0.0
 11
45346.0
 21
39.0
 31
0.0
  0
LINE
  5
5D3
  8
MyLines
 10
45906.0
 20
0.0
 30
0.0
 11
45906.0
 21
39.0
 31
0.0
  0
TEXT
  5
5D4
  8
MyLines
 62
1
 10
45347.0
 20
40.0
 30
0.0
 40
1.0
  1
7692-B
 11
45347.0
 21
40.0
 31
0.0
  0
TEXT
  5
5D5
  8
MyLines
 62
1
 10
45347.0
 20
1.0
 30
0.0
 40
1.0
  1
7692-A
 11
45347.0
 21
1.0
 31
0.0
  0
LINE
  5
5D6
  8
MyLines
 10
45346.0
 20
39.0
 30
0.0
 11
45626.0
 21
39.0
 31
0.0
  0
LINE
  5
5D7
  8
MyLines
 10
45628.0
 20
43.0
 30
0.0
 11
46220.0
 21
43.0
 31
0.0
  0
LINE
  5
5D8
  8
MyLines
 10
45628.0
 20
0.0
 30
0.0
 11
46220.0
 21
0.0
 31
0.0
  0
LINE
  5
5D9
  8
MyLines
 10
45628.0
 20
0.0
 30
0.0
 11
45628.0
 21
43.0
 31
0.0
  0
LINE
  5
5DA
  8
MyLines
 10
46220.0
 20
0.0
 30
0.0
 11
46220.0
 21
43.0
 31
0.0
  0
TEXT
  5
5DB
  8
MyLines
 62
1
 10
45629.0
 20
44.0
 30
0.0
 40
1.0
  1
7693-B
 11
45629.0
 21
44.0
 31
0.0
  0
TEXT
  5
5DC
  8
MyLines
 62
1
 10
45629.0
 20
1.0
 30
0.0
 40
1.0
  1
7693-A
 11
45629.0
 21
1.0
 31
0.0
  0
LINE
  5
5DD
  8
MyLines
 10
45628.0
 20
43.0
 30
0.0
 11
45924.0
 21
43.0
 31
0.0
  0
LINE
  5
5DE
  8
MyLines
 10
45926.0
 20
60.5
 30
0.0
 11
46376.0
 21
60.5
 31
0.0
  0
LINE
  5
5DF
  8
MyLines
 10
45926.0
 20
0.0
 30
0.0
 11
46376.0
 21
0.0
 31
0.0
  0
LINE
  5
5E0
  8
MyLines
 10
45926.0
 20
0.0
 30
0.0
 11
45926.0
 21
60.5
 31
0.0
  0
LINE
  5
5E1
  8
MyLines
 10
46376.0
 20
0.0
 30
0.0
 11
46376.0
 21
60.5
 31
0.0
  0
TEXT
  5
5E2
  8
MyLines
 62
1
 10
45927.0
 20
61.5
 30
0.0
 40
1.0
  1
7694-B
 11
45927.0
 21
61.5
 31
0.0
  0
TEXT
  5
5E3
  8
MyLines
 62
1
 10
45927.0
 20
1.0
 30
0.0
 40
1.0
  1
7694-A
 11
45927.0
 21
1.0
 31
0.0
  0
LINE
  5
5E4
  8
MyLines
 10
45926.0
 20
60.5
 30
0.0
 11
46151.0
 21
60.5
 31
0.0
  0
LINE
  5
5E5
  8
MyLines
 10
46153.0
 20
85.5
 30
0.0
 11
46635.0
 21
85.5
 31
0.0
  0
LINE
  5
5E6
  8
MyLines
 10
46153.0
 20
0.0
 30
0.0
 11
46635.0
 21
0.0
 31
0.0
  0
LINE
  5
5E7
  8
MyLines
 10
46153.0
 20
0.0
 30
0.0
 11
46153.0
 21
85.5
 31
0.0
  0
LINE
  5
5E8
  8
MyLines
 10
46635.0
 20
0.0
 30
0.0
 11
46635.0
 21
85.5
 31
0.0
  0
TEXT
  5
5E9
  8
MyLines
 62
1
 10
46154.0
 20
86.5
 30
0.0
 40
1.0
  1
7695-B
 11
46154.0
 21
86.5
 31
0.0
  0
TEXT
  5
5EA
  8
MyLines
 62
1
 10
46154.0
 20
1.0
 30
0.0
 40
1.0
  1
7695-A
 11
46154.0
 21
1.0
 31
0.0
  0
LINE
  5
5EB
  8
MyLines
 10
46153.0
 20
85.5
 30
0.0
 11
46394.0
 21
85.5
 31
0.0
  0
LINE
  5
5EC
  8
MyLines
 10
46396.0
 20
78.0
 30
0.0
 11
46828.0
 21
78.0
 31
0.0
  0
LINE
  5
5ED
  8
MyLines
 10
46396.0
 20
0.0
 30
0.0
 11
46828.0
 21
0.0
 31
0.0
  0
LINE
  5
5EE
  8
MyLines
 10
46396.0
 20
0.0
 30
0.0
 11
46396.0
 21
78.0
 31
0.0
  0
LINE
  5
5EF
  8
MyLines
 10
46828.0
 20
0.0
 30
0.0
 11
46828.0
 21
78.0
 31
0.0
  0
TEXT
  5
5F0
  8
MyLines
 62
1
 10
46397.0
 20
79.0
 30
0.0
 40
1.0
  1
7696-B
 11
46397.0
 21
79.0
 31
0.0
  0
TEXT
  5
5F1
  8
MyLines
 62
1
 10
46397.0
 20
1.0
 30
0.0
 40
1.0
  1
7696-A
 11
46397.0
 21
1.0
 31
0.0
  0
LINE
  5
5F2
  8
MyLines
 10
46396.0
 20
78.0
 30
0.0
 11
46612.0
 21
78.0
 31
0.0
  0
LINE
  5
5F3
  8
MyLines
 10
46614.0
 20
37.0
 30
0.0
 11
47096.0
 21
37.0
 31
0.0
  0
LINE
  5
5F4
  8
MyLines
 10
46614.0
 20
0.0
 30
0.0
 11
47096.0
 21
0.0
 31
0.0
  0
LINE
  5
5F5
  8
MyLines
 10
46614.0
 20
0.0
 30
0.0
 11
46614.0
 21
37.0
 31
0.0
  0
LINE
  5
5F6
  8
MyLines
 10
47096.0
 20
0.0
 30
0.0
 11
47096.0
 21
37.0
 31
0.0
  0
TEXT
  5
5F7
  8
MyLines
 62
1
 10
46615.0
 20
38.0
 30
0.0
 40
1.0
  1
7697-B
 11
46615.0
 21
38.0
 31
0.0
  0
TEXT
  5
5F8
  8
MyLines
 62
1
 10
46615.0
 20
1.0
 30
0.0
 40
1.0
  1
7697-A
 11
46615.0
 21
1.0
 31
0.0
  0
LINE
  5
5F9
  8
MyLines
 10
46614.0
 20
37.0
 30
0.0
 11
46855.0
 21
37.0
 31
0.0
  0
LINE
  5
5FA
  8
MyLines
 10
46857.0
 20
53.5
 30
0.0
 11
47303.0
 21
53.5
 31
0.0
  0
LINE
  5
5FB
  8
MyLines
 10
46857.0
 20
0.0
 30
0.0
 11
47303.0
 21
0.0
 31
0.0
  0
LINE
  5
5FC
  8
MyLines
 10
46857.0
 20
0.0
 30
0.0
 11
46857.0
 21
53.5
 31
0.0
  0
LINE
  5
5FD
  8
MyLines
 10
47303.0
 20
0.0
 30
0.0
 11
47303.0
 21
53.5
 31
0.0
  0
TEXT
  5
5FE
  8
MyLines
 62
1
 10
46858.0
 20
54.5
 30
0.0
 40
1.0
  1
7698-B
 11
46858.0
 21
54.5
 31
0.0
  0
TEXT
  5
5FF
  8
MyLines
 62
1
 10
46858.0
 20
1.0
 30
0.0
 40
1.0
  1
7698-A
 11
46858.0
 21
1.0
 31
0.0
  0
LINE
  5
600
  8
MyLines
 10
46857.0
 20
53.5
 30
0.0
 11
47080.0
 21
53.5
 31
0.0
  0
LINE
  5
601
  8
MyLines
 10
47082.0
 20
79.5
 30
0.0
 11
47666.0
 21
79.5
 31
0.0
  0
LINE
  5
602
  8
MyLines
 10
47082.0
 20
0.0
 30
0.0
 11
47666.0
 21
0.0
 31
0.0
  0
LINE
  5
603
  8
MyLines
 10
47082.0
 20
0.0
 30
0.0
 11
47082.0
 21
79.5
 31
0.0
  0
LINE
  5
604
  8
MyLines
 10
47666.0
 20
0.0
 30
0.0
 11
47666.0
 21
79.5
 31
0.0
  0
TEXT
  5
605
  8
MyLines
 62
1
 10
47083.0
 20
80.5
 30
0.0
 40
1.0
  1
7699-B
 11
47083.0
 21
80.5
 31
0.0
  0
TEXT
  5
606
  8
MyLines
 62
1
 10
47083.0
 20
1.0
 30
0.0
 40
1.0
  1
7699-A
 11
47083.0
 21
1.0
 31
0.0
  0
LINE
  5
607
  8
MyLines
 10
47082.0
 20
79.5
 30
0.0
 11
47374.0
 21
79.5
 31
0.0
  0
ENDSEC
  0
EOF
