  0
SECTION
  2
HEADER
  9
$ACADVER
  1
AC1009
  9
$DWGCODEPAGE
  3
ANSI_1252
  9
$INSBASE
 10
0.0
 20
0.0
 30
0.0
  9
$EXTMIN
 10
-100
 20
-100
 30
-100
  9
$EXTMAX
 10
100
 20
100
 30
100
  9
$LIMMIN
 10
0.0
 20
0.0
  9
$LIMMAX
 10
420.0
 20
297.0
  9
$ORTHOMODE
 70
0
  9
$REGENMODE
 70
1
  9
$DRAGMODE
 70
2
  9
$FILLMODE
 70
1
  9
$QTEXTMODE
 70
0
  9
$MIRRTEXT
 70
1
  9
$OSMODE
 70
20583
  9
$LTSCALE
 40
1.0
  9
$ATTMODE
 70
1
  9
$TEXTSIZE
 40
2.5
  9
$TRACEWID
 40
1.0
  9
$TEXTSTYLE
  7
OpenSans
  9
$CLAYER
  8
0
  9
$CELTYPE
  6
ByLayer
  9
$CECOLOR
 62
256
  9
$DIMSCALE
 40
1.0
  9
$DIMASZ
 40
0.175
  9
$DIMEXO
 40
0.125
  9
$DIMDLI
 40
3.75
  9
$DIMRND
 40
0.0
  9
$DIMDLE
 40
0.0
  9
$DIMEXE
 40
0.375
  9
$DIMTP
 40
0.0
  9
$DIMTM
 40
0.0
  9
$DIMTXT
 40
0.25
  9
$DIMCEN
 40
2.5
  9
$DIMTSZ
 40
0.0
  9
$DIMTOL
 70
0
  9
$DIMLIM
 70
0
  9
$DIMTIH
 70
0
  9
$DIMTOH
 70
0
  9
$DIMSE1
 70
0
  9
$DIMSE2
 70
0
  9
$DIMTAD
 70
1
  9
$DIMZIN
 70
8
  9
$DIMBLK
  1
ARCHTICK
  9
$DIMASO
 70
1
  9
$DIMSHO
 70
1
  9
$DIMPOST
  1

  9
$DIMAPOST
  1

  9
$DIMALT
 70
0
  9
$DIMALTD
 70
3
  9
$DIMALTF
 40
0.03937007874
  9
$DIMLFAC
 40
100.0
  9
$DIMTOFL
 70
1
  9
$DIMTVP
 40
0.0
  9
$DIMTIX
 70
0
  9
$DIMSOXD
 70
0
  9
$DIMSAH
 70
0
  9
$DIMBLK1
  1

  9
$DIMBLK2
  1

  9
$DIMSTYLE
  2
EZDXF
  9
$DIMCLRD
 70
0
  9
$DIMCLRE
 70
0
  9
$DIMCLRT
 70
0
  9
$DIMTFAC
 40
1.0
  9
$DIMGAP
 40
0.1
  9
$COORDS
 70
1
  9
$ATTDIA
 70
0
  9
$ATTREQ
 70
1
  9
$HANDLING
 70
1
  9
$LUNITS
 70
2
  9
$LUPREC
 70
4
  9
$SKETCHINC
 40
1.0
  9
$FILLETRAD
 40
10.0
  9
$AUNITS
 70
0
  9
$AUPREC
 70
2
  9
$MENU
  1
.
  9
$ELEVATION
 40
0.0
  9
$PELEVATION
 40
0.0
  9
$THICKNESS
 40
0.0
  9
$LIMCHECK
 70
0
  9
$CHAMFERA
 40
0.0
  9
$CHAMFERB
 40
0.0
  9
$SKPOLY
 70
0
  9
$TDCREATE
 40
2458922.6569675924
  9
$TDUPDATE
 40
2458922.6569791664
  9
$TDINDWG
 40
0.0
  9
$TDUSRTIMER
 40
0.0
  9
$USRTIMER
 70
1
  9
$ANGBASE
 50
0.0
  9
$ANGDIR
 70
0
  9
$PDMODE
 70
0
  9
$PDSIZE
 40
0.0
  9
$PLINEWID
 40
0.0
  9
$SPLFRAME
 70
0
  9
$SPLINETYPE
 70
6
  9
$SPLINESEGS
 70
8
  9
$HANDSEED
  5
607
  9
$SURFTAB1
 70
6
  9
$SURFTAB2
 70
6
  9
$SURFTYPE
 70
6
  9
$SURFU
 70
6
  9
$SURFV
 70
6
  9
$UCSNAME
  2

  9
$UCSORG
 10
0.0
 20
0.0
 30
0.0
  9
$UCSXDIR
 10
1.0
 20
0.0
 30
0.0
  9
$UCSYDIR
 10
0.0
 20
1.0
 30
0.0
  9
$PUCSNAME
  2

  9
$PUCSORG
 10
0.0
 20
0.0
 30
0.0
  9
$PUCSXDIR
 10
1.0
 20
0.0
 30
0.0
  9
$PUCSYDIR
 10
0.0
 20
1.0
 30
0.0
  9
$USERI1
 70
0
  9
$USERI2
 70
0
  9
$USERI3
 70
0
  9
$USERI4
 70
0
  9
$USERI5
 70
0
  9
$USERR1
 40
0.0
  9
$USERR2
 40
0.0
  9
$USERR3
 40
0.0
  9
$USERR4
 40
0.0
  9
$USERR5
 40
0.0
  9
$WORLDVIEW
 70
1
  9
$SHADEDGE
 70
3
  9
$SHADEDIF
 70
70
  9
$TILEMODE
 70
1
  9
$MAXACTVP
 70
64
  9
$PLIMCHECK
 70
0
  9
$PEXTMIN
 10
1e+20
 20
1e+20
 30
1e+20
  9
$PEXTMAX
 10
-1e+20
 20
-1e+20
 30
-1e+20
  9
$PLIMMIN
 10
0.0
 20
0.0
  9
$PLIMMAX
 10
420.0
 20
297.0
  9
$UNITMODE
 70
0
  9
$VISRETAIN
 70
1
  9
$PLINEGEN
 70
0
  9
$PSLTSCALE
 70
1
  0
ENDSEC
  0
SECTION
  2
TABLES
  0
TABLE
  2
VPORT
 70
1
  0
VPORT
  5
23
  2
*Active
 70
0
 10
0.0
 20
0.0
 11
1.0
 21
1.0
 12
70.0
 22
50.0
 13
0.0
 23
0.0
 14
0.5
 24
0.5
 15
0.5
 25
0.5
 16
0.0
 26
0.0
 36
1.0
 17
0.0
 27
0.0
 37
0.0
 40
1.0
 41
1.34
 42
50.0
 43
0.0
 44
0.0
 50
0.0
 51
0.0
 71
0
 72
1000
 73
1
 74
3
 75
0
 76
0
 77
0
 78
0
  0
ENDTAB
  0
TABLE
  2
LTYPE
 70
21
  0
LTYPE
  5
24
  2
ByBlock
 70
0
  3

 72
65
 73
0
 40
0.0
  0
LTYPE
  5
25
  2
ByLayer
 70
0
  3

 72
65
 73
0
 40
0.0
  0
LTYPE
  5
26
  2
Continuous
 70
0
  3

 72
65
 73
0
 40
0.0
  0
LTYPE
  5
2D
  2
CENTER
 70
0
  3
Center ____ _ ____ _ ____ _ ____ _ ____ _ ____
 72
65
 73
4
 40
2.0
 49
1.25
 49
-0.25
 49
0.25
 49
-0.25
  0
LTYPE
  5
2E
  2
CENTERX2
 70
0
  3
Center (2x) ________  __  ________  __  ________
 72
65
 73
4
 40
3.5
 49
2.5
 49
-0.25
 49
0.5
 49
-0.25
  0
LTYPE
  5
2F
  2
CENTER2
 70
0
  3
Center (.5x) ____ _ ____ _ ____ _ ____ _ ____
 72
65
 73
4
 40
1.0
 49
0.625
 49
-0.125
 49
0.125
 49
-0.125
  0
LTYPE
  5
30
  2
DASHED
 70
0
  3
Dashed __ __ __ __ __ __ __ __ __ __ __ __ __ _
 72
65
 73
2
 40
0.6
 49
0.5
 49
-0.1
  0
LTYPE
  5
31
  2
DASHEDX2
 70
0
  3
Dashed (2x) ____  ____  ____  ____  ____  ____
 72
65
 73
2
 40
1.2
 49
1.0
 49
-0.2
  0
LTYPE
  5
32
  2
DASHED2
 70
0
  3
Dashed (.5x) _ _ _ _ _ _ _ _ _ _ _ _ _ _
 72
65
 73
2
 40
0.3
 49
0.25
 49
-0.05
  0
LTYPE
  5
33
  2
PHANTOM
 70
0
  3
Phantom ______  __  __  ______  __  __  ______
 72
65
 73
6
 40
2.5
 49
1.25
 49
-0.25
 49
0.25
 49
-0.25
 49
0.25
 49
-0.25
  0
LTYPE
  5
34
  2
PHANTOMX2
 70
0
  3
Phantom (2x)____________    ____    ____    ____________
 72
65
 73
6
 40
4.25
 49
2.5
 49
-0.25
 49
0.5
 49
-0.25
 49
0.5
 49
-0.25
  0
LTYPE
  5
35
  2
PHANTOM2
 70
0
  3
Phantom (.5x) ___ _ _ ___ _ _ ___ _ _ ___ _ _ ___
 72
65
 73
6
 40
1.25
 49
0.625
 49
-0.125
 49
0.125
 49
-0.125
 49
0.125
 49
-0.125
  0
LTYPE
  5
36
  2
DASHDOT
 70
0
  3
Dash dot __ . __ . __ . __ . __ . __ . __ . __
 72
65
 73
4
 40
1.4
 49
1.0
 49
-0.2
 49
0.0
 49
-0.2
  0
LTYPE
  5
37
  2
DASHDOTX2
 70
0
  3
Dash dot (2x) ____  .  ____  .  ____  .  ____
 72
65
 73
4
 40
2.4
 49
2.0
 49
-0.2
 49
0.0
 49
-0.2
  0
LTYPE
  5
38
  2
DASHDOT2
 70
0
  3
Dash dot (.5x) _ . _ . _ . _ . _ . _ . _ . _
 72
65
 73
4
 40
0.7
 49
0.5
 49
-0.1
 49
0.0
 49
-0.1
  0
LTYPE
  5
39
  2
DOT
 70
0
  3
Dot .  .  .  .  .  .  .  .  .  .  .  .  .  .  .  .
 72
65
 73
2
 40
0.2
 49
0.0
 49
-0.2
  0
LTYPE
  5
3A
  2
DOTX2
 70
0
  3
Dot (2x) .    .    .    .    .    .    .    . 
 72
65
 73
2
 40
0.4
 49
0.0
 49
-0.4
  0
LTYPE
  5
3B
  2
DOT2
 70
0
  3
Dot (.5) . . . . . . . . . . . . . . . . . . . 
 72
65
 73
2
 40
0.1
 49
0.0
 49
-0.1
  0
LTYPE
  5
3C
  2
DIVIDE
 70
0
  3
Divide __ . . __ . . __ . . __ . . __ . . __
 72
65
 73
6
 40
1.6
 49
1.0
 49
-0.2
 49
0.0
 49
-0.2
 49
0.0
 49
-0.2
  0
LTYPE
  5
3D
  2
DIVIDEX2
 70
0
  3
Divide (2x) ____  . .  ____  . .  ____  . .  ____
 72
65
 73
6
 40
2.6
 49
2.0
 49
-0.2
 49
0.0
 49
-0.2
 49
0.0
 49
-0.2
  0
LTYPE
  5
3E
  2
DIVIDE2
 70
0
  3
Divide(.5x) _ . _ . _ . _ . _ . _ . _ . _
 72
65
 73
6
 40
0.8
 49
0.5
 49
-0.1
 49
0.0
 49
-0.1
 49
0.0
 49
-0.1
  0
ENDTAB
  0
TABLE
  2
LAYER
 70
3
  0
LAYER
  5
27
  2
0
 70
0
 62
7
  6
Continuous
  0
LAYER
  5
28
  2
Defpoints
 70
0
 62
7
  6
Continuous
  0
LAYER
  5
8E
  2
MyLines
 70
0
 62
7
  6
Continuous
  0
ENDTAB
  0
TABLE
  2
STYLE
 70
26
  0
STYLE
  5
29
  2
Standard
 70
0
 40
0.0
 41
1.0
 50
0.0
 71
0
 42
2.5
  3
txt
  4

  0
STYLE
  5
3F
  2
OpenSans-Light
 70
0
 40
0.0
 41
1.0
 50
0.0
 71
0
 42
2.5
  3
OpenSans-Light.ttf
  4

  0
STYLE
  5
40
  2
OpenSans-Light-Italic
 70
0
 40
0.0
 41
1.0
 50
0.0
 71
0
 42
2.5
  3
OpenSans-LightItalic.ttf
  4

  0
STYLE
  5
41
  2
OpenSans
 70
0
 40
0.0
 41
1.0
 50
0.0
 71
0
 42
2.5
  3
OpenSans-Regular.ttf
  4

  0
STYLE
  5
42
  2
OpenSans-Italic
 70
0
 40
0.0
 41
1.0
 50
0.0
 71
0
 42
2.5
  3
OpenSans-Italic.ttf
  4

  0
STYLE
  5
43
  2
OpenSans-SemiBold
 70
0
 40
0.0
 41
1.0
 50
0.0
 71
0
 42
2.5
  3
OpenSans-SemiBold.ttf
  4

  0
STYLE
  5
44
  2
OpenSans-SemiBoldItalic
 70
0
 40
0.0
 41
1.0
 50
0.0
 71
0
 42
2.5
  3
OpenSans-SemiBoldItalic.ttf
  4

  0
STYLE
  5
45
  2
OpenSans-Bold
 70
0
 40
0.0
 41
1.0
 50
0.0
 71
0
 42
2.5
  3
OpenSans-Bold.ttf
  4

  0
STYLE
  5
46
  2
OpenSans-BoldItalic
 70
0
 40
0.0
 41
1.0
 50
0.0
 71
0
 42
2.5
  3
OpenSans-BoldItalic.ttf
  4

  0
STYLE
  5
47
  2
OpenSans-ExtraBold
 70
0
 40
0.0
 41
1.0
 50
0.0
 71
0
 42
2.5
  3
OpenSans-ExtraBold.ttf
  4

  0
STYLE
  5
48
  2
OpenSans-ExtraBoldItalic
 70
0
 40
0.0
 41
1.0
 50
0.0
 71
0
 42
2.5
  3
OpenSans-ExtraBoldItalic.ttf
  4

  0
STYLE
  5
49
  2
OpenSansCondensed-Bold
 70
0
 40
0.0
 41
1.0
 50
0.0
 71
0
 42
2.5
  3
OpenSansCondensed-Bold.ttf
  4

  0
STYLE
  5
4A
  2
OpenSansCondensed-Light
 70
0
 40
0.0
 41
1.0
 50
0.0
 71
0
 42
2.5
  3
OpenSansCondensed-Light.ttf
  4

  0
STYLE
  5
4B
  2
OpenSansCondensed-Italic
 70
0
 40
0.0
 41
1.0
 50
0.0
 71
0
 42
2.5
  3
OpenSansCondensed-LightItalic.ttf
  4

  0
STYLE
  5
4C
  2
LiberationSans
 70
0
 40
0.0
 41
1.0
 50
0.0
 71
0
 42
2.5
  3
LiberationSans-Regular.ttf
  4

  0
STYLE
  5
4D
  2
LiberationSans-Bold
 70
0
 40
0.0
 41
1.0
 50
0.0
 71
0
 42
2.5
  3
LiberationSans-Bold.ttf
  4

  0
STYLE
  5
4E
  2
LiberationSans-BoldItalic
 70
0
 40
0.0
 41
1.0
 50
0.0
 71
0
 42
2.5
  3
LiberationSans-BoldItalic.ttf
  4

  0
STYLE
  5
4F
  2
LiberationSans-Italic
 70
0
 40
0.0
 41
1.0
 50
0.0
 71
0
 42
2.5
  3
LiberationSans-Italic.ttf
  4

  0
STYLE
  5
50
  2
LiberationSerif
 70
0
 40
0.0
 41
1.0
 50
0.0
 71
0
 42
2.5
  3
LiberationSerif-Regular.ttf
  4

  0
STYLE
  5
51
  2
LiberationSerif-Bold
 70
0
 40
0.0
 41
1.0
 50
0.0
 71
0
 42
2.5
  3
LiberationSerif-Bold.ttf
  4

  0
STYLE
  5
52
  2
LiberationSerif-BoldItalic
 70
0
 40
0.0
 41
1.0
 50
0.0
 71
0
 42
2.5
  3
LiberationSerif-BoldItalic.ttf
  4

  0
STYLE
  5
53
  2
LiberationSerif-Italic
 70
0
 40
0.0
 41
1.0
 50
0.0
 71
0
 42
2.5
  3
LiberationSerif-Italic.ttf
  4

  0
STYLE
  5
54
  2
LiberationMono
 70
0
 40
0.0
 41
1.0
 50
0.0
 71
0
 42
2.5
  3
LiberationMono-Regular.ttf
  4

  0
STYLE
  5
55
  2
LiberationMono-Bold
 70
0
 40
0.0
 41
1.0
 50
0.0
 71
0
 42
2.5
  3
LiberationMono-Bold.ttf
  4

  0
STYLE
  5
56
  2
LiberationMono-BoldItalic
 70
0
 40
0.0
 41
1.0
 50
0.0
 71
0
 42
2.5
  3
LiberationMono-BoldItalic.ttf
  4

  0
STYLE
  5
57
  2
LiberationMono-Italic
 70
0
 40
0.0
 41
1.0
 50
0.0
 71
0
 42
2.5
  3
LiberationMono-Italic.ttf
  4

  0
ENDTAB
  0
TABLE
  2
VIEW
 70
0
  0
ENDTAB
  0
TABLE
  2
UCS
 70
0
  0
ENDTAB
  0
TABLE
  2
APPID
 70
1
  0
APPID
  5
2A
  2
ACAD
 70
0
  0
ENDTAB
  0
TABLE
  2
DIMSTYLE
 70
11
  0
DIMSTYLE
105
2B
  2
Standard
 70
0
  3

  4

  5

  6

  7

 40
1.0
 41
2.5
 42
0.625
 43
3.75
 44
1.25
 45
0.0
 46
0.0
 47
0.0
 48
0.0
140
2.5
141
2.5
142
0.0
143
0.03937007874
144
1.0
145
0.0
146
1.0
147
0.625
 71
0
 72
0
 73
0
 74
0
 75
0
 76
0
 77
1
 78
8
170
0
171
3
172
1
173
0
174
0
175
0
176
0
177
0
178
0
  0
DIMSTYLE
105
71
  2
EZDXF
 70
0
  3

  4

  5
ARCHTICK
  6

  7

 40
1.0
 41
0.175
 42
0.125
 43
3.75
 44
0.375
 45
0.0
 46
0.0
 47
0.0
 48
0.0
140
0.25
141
2.5
142
0.0
143
0.03937007874
144
100.0
145
0.0
146
1.0
147
0.1
 71
0
 72
0
 73
0
 74
0
 75
0
 76
0
 77
1
 78
8
170
0
171
3
172
1
173
0
174
0
175
0
176
0
177
0
178
0
  0
DIMSTYLE
105
7D
  2
EZ_M_100_H25_CM
 70
0
  3

  4

  5

  6

  7

 40
1.0
 41
0.25
 42
0.125
 43
3.75
 44
0.375
 45
0.0
 46
0.0
 47
0.0
 48
0.0
140
0.25
141
2.5
142
0.125
143
0.03937007874
144
100.0
145
0.0
146
1.0
147
0.1
 71
0
 72
0
 73
0
 74
0
 75
0
 76
0
 77
1
 78
8
170
0
171
3
172
1
173
0
174
0
175
0
176
0
177
0
178
0
  0
DIMSTYLE
105
7E
  2
EZ_M_50_H25_CM
 70
0
  3

  4

  5

  6

  7

 40
1.0
 41
0.125
 42
0.0625
 43
3.75
 44
0.1875
 45
0.0
 46
0.0
 47
0.0
 48
0.0
140
0.125
141
2.5
142
0.0625
143
0.03937007874
144
100.0
145
0.0
146
1.0
147
0.05
 71
0
 72
0
 73
0
 74
0
 75
0
 76
0
 77
1
 78
8
170
0
171
3
172
1
173
0
174
0
175
0
176
0
177
0
178
0
  0
DIMSTYLE
105
7F
  2
EZ_M_25_H25_CM
 70
0
  3

  4

  5

  6

  7

 40
1.0
 41
0.0625
 42
0.03125
 43
3.75
 44
0.09375
 45
0.0
 46
0.0
 47
0.0
 48
0.0
140
0.0625
141
2.5
142
0.03125
143
0.03937007874
144
100.0
145
0.0
146
1.0
147
0.025
 71
0
 72
0
 73
0
 74
0
 75
0
 76
0
 77
1
 78
8
170
0
171
3
172
1
173
0
174
0
175
0
176
0
177
0
178
0
  0
DIMSTYLE
105
80
  2
EZ_M_20_H25_CM
 70
0
  3

  4

  5

  6

  7

 40
1.0
 41
0.05
 42
0.025
 43
3.75
 44
0.07500000000000001
 45
0.0
 46
0.0
 47
0.0
 48
0.0
140
0.05
141
2.5
142
0.025
143
0.03937007874
144
100.0
145
0.0
146
1.0
147
0.020000000000000004
 71
0
 72
0
 73
0
 74
0
 75
0
 76
0
 77
1
 78
8
170
0
171
3
172
1
173
0
174
0
175
0
176
0
177
0
178
0
  0
DIMSTYLE
105
81
  2
EZ_M_10_H25_CM
 70
0
  3

  4

  5

  6

  7

 40
1.0
 41
0.025
 42
0.0125
 43
3.75
 44
0.037500000000000006
 45
0.0
 46
0.0
 47
0.0
 48
0.0
140
0.025
141
2.5
142
0.0125
143
0.03937007874
144
100.0
145
0.0
146
1.0
147
0.010000000000000002
 71
0
 72
0
 73
0
 74
0
 75
0
 76
0
 77
1
 78
8
170
0
171
3
172
1
173
0
174
0
175
0
176
0
177
0
178
0
  0
DIMSTYLE
105
82
  2
EZ_M_5_H25_CM
 70
0
  3

  4

  5

  6

  7

 40
1.0
 41
0.0125
 42
0.00625
 43
3.75
 44
0.018750000000000003
 45
0.0
 46
0.0
 47
0.0
 48
0.0
140
0.0125
141
2.5
142
0.00625
143
0.03937007874
144
100.0
145
0.0
146
1.0
147
0.005000000000000001
 71
0
 72
0
 73
0
 74
0
 75
0
 76
0
 77
1
 78
8
170
0
171
3
172
1
173
0
174
0
175
0
176
0
177
0
178
0
  0
DIMSTYLE
105
83
  2
EZ_M_1_H25_CM
 70
0
  3

  4

  5

  6

  7

 40
1.0
 41
0.0025
 42
0.00125
 43
3.75
 44
0.00375
 45
0.0
 46
0.0
 47
0.0
 48
0.0
140
0.0025
141
2.5
142
0.00125
143
0.03937007874
144
100.0
145
0.0
146
1.0
147
0.001
 71
0
 72
0
 73
0
 74
0
 75
0
 76
0
 77
1
 78
8
170
0
171
3
172
1
173
0
174
0
175
0
176
0
177
0
178
0
  0
DIMSTYLE
105
84
  2
EZ_RADIUS
 70
0
  3

  4

  5
CLOSEDBLANK
  6

  7

 40
1.0
 41
0.25
 42
0.125
 43
3.75
 44
0.375
 45
0.0
 46
0.0
 47
0.0
 48
0.0
140
0.25
141
0.0
142
0.0
143
0.03937007874
144
100.0
145
0.0
146
1.0
147
0.1
 71
0
 72
0
 73
0
 74
0
 75
0
 76
0
 77
1
 78
8
170
0
171
3
172
0
173
0
174
0
175
0
176
0
177
0
178
0
  0
DIMSTYLE
105
8D
  2
EZ_RADIUS_INSIDE
 70
0
  3

  4

  5
CLOSEDBLANK
  6

  7

 40
1.0
 41
0.25
 42
0.125
 43
3.75
 44
0.375
 45
0.0
 46
0.0
 47
0.0
 48
0.0
140
0.25
141
0.0
142
0.0
143
0.03937007874
144
100.0
145
0.0
146
1.0
147
0.1
 71
0
 72
0
 73
0
 74
0
 75
0
 76
0
 77
0
 78
8
170
0
171
3
172
0
173
0
174
1
175
0
176
0
177
0
178
0
  0
ENDTAB
  0
ENDSEC
  0
SECTION
  2
BLOCKS
  0
BLOCK
  5
18
  8
0
  2
$Model_Space
 70
0
 10
0.0
 20
0.0
 30
0.0
  3
$Model_Space
  1

  0
ENDBLK
  5
19
  8
0
  0
BLOCK
  5
1C
  8
0
  2
$Paper_Space
 70
0
 10
0.0
 20
0.0
 30
0.0
  3
$Paper_Space
  1

  0
ENDBLK
  5
1D
  8
0
  0
BLOCK
  5
73
  8
0
  2
_ARCHTICK
 70
0
 10
0.0
 20
0.0
 30
0.0
  3
_ARCHTICK
  1

  0
POLYLINE
  5
75
  8
0
  6
BYBLOCK
 62
0
 66
1
 70
0
 40
0.15
 41
0.15
  0
VERTEX
  5
77
  8
0
  6
BYBLOCK
 10
-0.5
 20
-0.5000000000000001
 30
0.0
 70
0
  0
VERTEX
  5
78
  8
0
  6
BYBLOCK
 10
0.5000000000000001
 20
0.5000000000000001
 30
0.0
 70
0
  0
SEQEND
  5
76
  8
0
  0
ENDBLK
  5
74
  8
0
  0
BLOCK
  5
7A
  8
0
  2
_CLOSEDFILLED
 70
0
 10
0.0
 20
0.0
 30
0.0
  3
_CLOSEDFILLED
  1

  0
SOLID
  5
7C
  8
0
  6
BYBLOCK
 62
0
 10
-1.0
 20
0.1643989837240255
 30
0.0
 11
0.0
 21
0.0
 31
0.0
 12
-1.0
 22
-0.1643989837240255
 32
0.0
 13
-1.0
 23
-0.1643989837240255
 33
0.0
  0
ENDBLK
  5
7B
  8
0
  0
BLOCK
  5
86
  8
0
  2
_CLOSEDBLANK
 70
0
 10
0.0
 20
0.0
 30
0.0
  3
_CLOSEDBLANK
  1

  0
POLYLINE
  5
88
  8
0
  6
BYBLOCK
 62
0
 66
1
 70
1
  0
VERTEX
  5
8A
  8
0
  6
BYBLOCK
 10
-1.0
 20
0.1643989837240255
 30
0.0
 70
0
  0
VERTEX
  5
8B
  8
0
  6
BYBLOCK
 10
0.0
 20
0.0
 30
0.0
 70
0
  0
VERTEX
  5
8C
  8
0
  6
BYBLOCK
 10
-1.0
 20
-0.1643989837240255
 30
0.0
 70
0
  0
SEQEND
  5
89
  8
0
  0
ENDBLK
  5
87
  8
0
  0
ENDSEC
  0
SECTION
  2
ENTITIES
  0
LINE
  5
8F
  8
MyLines
 10
0.0
 20
45.0
 30
0.0
 11
376.0
 21
45.0
 31
0.0
  0
LINE
  5
90
  8
MyLines
 10
0.0
 20
0.0
 30
0.0
 11
376.0
 21
0.0
 31
0.0
  0
LINE
  5
91
  8
MyLines
 10
0.0
 20
0.0
 30
0.0
 11
0.0
 21
45.0
 31
0.0
  0
LINE
  5
92
  8
MyLines
 10
376.0
 20
0.0
 30
0.0
 11
376.0
 21
45.0
 31
0.0
  0
TEXT
  5
93
  8
MyLines
 62
1
 10
189.0
 20
1.0
 30
0.0
 40
1.0
  1
7500-B
 11
189.0
 21
1.0
 31
0.0
  0
TEXT
  5
94
  8
MyLines
 62
1
 10
1.0
 20
1.0
 30
0.0
 40
1.0
  1
7500-A
 11
1.0
 21
1.0
 31
0.0
  0
LINE
  5
95
  8
MyLines
 10
188.0
 20
0.0
 30
0.0
 11
188.0
 21
45.0
 31
0.0
  0
LINE
  5
96
  8
MyLines
 10
378.0
 20
89.0
 30
0.0
 11
894.0
 21
89.0
 31
0.0
  0
LINE
  5
97
  8
MyLines
 10
378.0
 20
0.0
 30
0.0
 11
894.0
 21
0.0
 31
0.0
  0
LINE
  5
98
  8
MyLines
 10
378.0
 20
0.0
 30
0.0
 11
378.0
 21
89.0
 31
0.0
  0
LINE
  5
99
  8
MyLines
 10
894.0
 20
0.0
 30
0.0
 11
894.0
 21
89.0
 31
0.0
  0
TEXT
  5
9A
  8
MyLines
 62
1
 10
637.0
 20
1.0
 30
0.0
 40
1.0
  1
7501-B
 11
637.0
 21
1.0
 31
0.0
  0
TEXT
  5
9B
  8
MyLines
 62
1
 10
379.0
 20
1.0
 30
0.0
 40
1.0
  1
7501-A
 11
379.0
 21
1.0
 31
0.0
  0
LINE
  5
9C
  8
MyLines
 10
636.0
 20
0.0
 30
0.0
 11
636.0
 21
89.0
 31
0.0
  0
LINE
  5
9D
  8
MyLines
 10
896.0
 20
79.5
 30
0.0
 11
1376.0
 21
79.5
 31
0.0
  0
LINE
  5
9E
  8
MyLines
 10
896.0
 20
0.0
 30
0.0
 11
1376.0
 21
0.0
 31
0.0
  0
LINE
  5
9F
  8
MyLines
 10
896.0
 20
0.0
 30
0.0
 11
896.0
 21
79.5
 31
0.0
  0
LINE
  5
A0
  8
MyLines
 10
1376.0
 20
0.0
 30
0.0
 11
1376.0
 21
79.5
 31
0.0
  0
TEXT
  5
A1
  8
MyLines
 62
1
 10
1137.0
 20
1.0
 30
0.0
 40
1.0
  1
7502-B
 11
1137.0
 21
1.0
 31
0.0
  0
TEXT
  5
A2
  8
MyLines
 62
1
 10
897.0
 20
1.0
 30
0.0
 40
1.0
  1
7502-A
 11
897.0
 21
1.0
 31
0.0
  0
LINE
  5
A3
  8
MyLines
 10
1136.0
 20
0.0
 30
0.0
 11
1136.0
 21
79.5
 31
0.0
  0
LINE
  5
A4
  8
MyLines
 10
1378.0
 20
69.0
 30
0.0
 11
1798.0
 21
69.0
 31
0.0
  0
LINE
  5
A5
  8
MyLines
 10
1378.0
 20
0.0
 30
0.0
 11
1798.0
 21
0.0
 31
0.0
  0
LINE
  5
A6
  8
MyLines
 10
1378.0
 20
0.0
 30
0.0
 11
1378.0
 21
69.0
 31
0.0
  0
LINE
  5
A7
  8
MyLines
 10
1798.0
 20
0.0
 30
0.0
 11
1798.0
 21
69.0
 31
0.0
  0
TEXT
  5
A8
  8
MyLines
 62
1
 10
1589.0
 20
1.0
 30
0.0
 40
1.0
  1
7503-B
 11
1589.0
 21
1.0
 31
0.0
  0
TEXT
  5
A9
  8
MyLines
 62
1
 10
1379.0
 20
1.0
 30
0.0
 40
1.0
  1
7503-A
 11
1379.0
 21
1.0
 31
0.0
  0
LINE
  5
AA
  8
MyLines
 10
1588.0
 20
0.0
 30
0.0
 11
1588.0
 21
69.0
 31
0.0
  0
LINE
  5
AB
  8
MyLines
 10
1800.0
 20
70.5
 30
0.0
 11
2294.0
 21
70.5
 31
0.0
  0
LINE
  5
AC
  8
MyLines
 10
1800.0
 20
0.0
 30
0.0
 11
2294.0
 21
0.0
 31
0.0
  0
LINE
  5
AD
  8
MyLines
 10
1800.0
 20
0.0
 30
0.0
 11
1800.0
 21
70.5
 31
0.0
  0
LINE
  5
AE
  8
MyLines
 10
2294.0
 20
0.0
 30
0.0
 11
2294.0
 21
70.5
 31
0.0
  0
TEXT
  5
AF
  8
MyLines
 62
1
 10
2048.0
 20
1.0
 30
0.0
 40
1.0
  1
7504-B
 11
2048.0
 21
1.0
 31
0.0
  0
TEXT
  5
B0
  8
MyLines
 62
1
 10
1801.0
 20
1.0
 30
0.0
 40
1.0
  1
7504-A
 11
1801.0
 21
1.0
 31
0.0
  0
LINE
  5
B1
  8
MyLines
 10
2047.0
 20
0.0
 30
0.0
 11
2047.0
 21
70.5
 31
0.0
  0
LINE
  5
B2
  8
MyLines
 10
2296.0
 20
78.0
 30
0.0
 11
2866.0
 21
78.0
 31
0.0
  0
LINE
  5
B3
  8
MyLines
 10
2296.0
 20
0.0
 30
0.0
 11
2866.0
 21
0.0
 31
0.0
  0
LINE
  5
B4
  8
MyLines
 10
2296.0
 20
0.0
 30
0.0
 11
2296.0
 21
78.0
 31
0.0
  0
LINE
  5
B5
  8
MyLines
 10
2866.0
 20
0.0
 30
0.0
 11
2866.0
 21
78.0
 31
0.0
  0
TEXT
  5
B6
  8
MyLines
 62
1
 10
2582.0
 20
1.0
 30
0.0
 40
1.0
  1
7505-B
 11
2582.0
 21
1.0
 31
0.0
  0
TEXT
  5
B7
  8
MyLines
 62
1
 10
2297.0
 20
1.0
 30
0.0
 40
1.0
  1
7505-A
 11
2297.0
 21
1.0
 31
0.0
  0
LINE
  5
B8
  8
MyLines
 10
2581.0
 20
0.0
 30
0.0
 11
2581.0
 21
78.0
 31
0.0
  0
LINE
  5
B9
  8
MyLines
 10
2868.0
 20
53.0
 30
0.0
 11
3348.0
 21
53.0
 31
0.0
  0
LINE
  5
BA
  8
MyLines
 10
2868.0
 20
0.0
 30
0.0
 11
3348.0
 21
0.0
 31
0.0
  0
LINE
  5
BB
  8
MyLines
 10
2868.0
 20
0.0
 30
0.0
 11
2868.0
 21
53.0
 31
0.0
  0
LINE
  5
BC
  8
MyLines
 10
3348.0
 20
0.0
 30
0.0
 11
3348.0
 21
53.0
 31
0.0
  0
TEXT
  5
BD
  8
MyLines
 62
1
 10
3109.0
 20
1.0
 30
0.0
 40
1.0
  1
7506-B
 11
3109.0
 21
1.0
 31
0.0
  0
TEXT
  5
BE
  8
MyLines
 62
1
 10
2869.0
 20
1.0
 30
0.0
 40
1.0
  1
7506-A
 11
2869.0
 21
1.0
 31
0.0
  0
LINE
  5
BF
  8
MyLines
 10
3108.0
 20
0.0
 30
0.0
 11
3108.0
 21
53.0
 31
0.0
  0
LINE
  5
C0
  8
MyLines
 10
3350.0
 20
74.0
 30
0.0
 11
3776.0
 21
74.0
 31
0.0
  0
LINE
  5
C1
  8
MyLines
 10
3350.0
 20
0.0
 30
0.0
 11
3776.0
 21
0.0
 31
0.0
  0
LINE
  5
C2
  8
MyLines
 10
3350.0
 20
0.0
 30
0.0
 11
3350.0
 21
74.0
 31
0.0
  0
LINE
  5
C3
  8
MyLines
 10
3776.0
 20
0.0
 30
0.0
 11
3776.0
 21
74.0
 31
0.0
  0
TEXT
  5
C4
  8
MyLines
 62
1
 10
3564.0
 20
1.0
 30
0.0
 40
1.0
  1
7507-B
 11
3564.0
 21
1.0
 31
0.0
  0
TEXT
  5
C5
  8
MyLines
 62
1
 10
3351.0
 20
1.0
 30
0.0
 40
1.0
  1
7507-A
 11
3351.0
 21
1.0
 31
0.0
  0
LINE
  5
C6
  8
MyLines
 10
3563.0
 20
0.0
 30
0.0
 11
3563.0
 21
74.0
 31
0.0
  0
LINE
  5
C7
  8
MyLines
 10
3778.0
 20
63.0
 30
0.0
 11
4362.0
 21
63.0
 31
0.0
  0
LINE
  5
C8
  8
MyLines
 10
3778.0
 20
0.0
 30
0.0
 11
4362.0
 21
0.0
 31
0.0
  0
LINE
  5
C9
  8
MyLines
 10
3778.0
 20
0.0
 30
0.0
 11
3778.0
 21
63.0
 31
0.0
  0
LINE
  5
CA
  8
MyLines
 10
4362.0
 20
0.0
 30
0.0
 11
4362.0
 21
63.0
 31
0.0
  0
TEXT
  5
CB
  8
MyLines
 62
1
 10
4071.0
 20
1.0
 30
0.0
 40
1.0
  1
7508-B
 11
4071.0
 21
1.0
 31
0.0
  0
TEXT
  5
CC
  8
MyLines
 62
1
 10
3779.0
 20
1.0
 30
0.0
 40
1.0
  1
7508-A
 11
3779.0
 21
1.0
 31
0.0
  0
LINE
  5
CD
  8
MyLines
 10
4070.0
 20
0.0
 30
0.0
 11
4070.0
 21
63.0
 31
0.0
  0
LINE
  5
CE
  8
MyLines
 10
4364.0
 20
90.0
 30
0.0
 11
4736.0
 21
90.0
 31
0.0
  0
LINE
  5
CF
  8
MyLines
 10
4364.0
 20
0.0
 30
0.0
 11
4736.0
 21
0.0
 31
0.0
  0
LINE
  5
D0
  8
MyLines
 10
4364.0
 20
0.0
 30
0.0
 11
4364.0
 21
90.0
 31
0.0
  0
LINE
  5
D1
  8
MyLines
 10
4736.0
 20
0.0
 30
0.0
 11
4736.0
 21
90.0
 31
0.0
  0
TEXT
  5
D2
  8
MyLines
 62
1
 10
4551.0
 20
1.0
 30
0.0
 40
1.0
  1
7509-B
 11
4551.0
 21
1.0
 31
0.0
  0
TEXT
  5
D3
  8
MyLines
 62
1
 10
4365.0
 20
1.0
 30
0.0
 40
1.0
  1
7509-A
 11
4365.0
 21
1.0
 31
0.0
  0
LINE
  5
D4
  8
MyLines
 10
4550.0
 20
0.0
 30
0.0
 11
4550.0
 21
90.0
 31
0.0
  0
LINE
  5
D5
  8
MyLines
 10
4738.0
 20
75.0
 30
0.0
 11
5096.0
 21
75.0
 31
0.0
  0
LINE
  5
D6
  8
MyLines
 10
4738.0
 20
0.0
 30
0.0
 11
5096.0
 21
0.0
 31
0.0
  0
LINE
  5
D7
  8
MyLines
 10
4738.0
 20
0.0
 30
0.0
 11
4738.0
 21
75.0
 31
0.0
  0
LINE
  5
D8
  8
MyLines
 10
5096.0
 20
0.0
 30
0.0
 11
5096.0
 21
75.0
 31
0.0
  0
TEXT
  5
D9
  8
MyLines
 62
1
 10
4918.0
 20
1.0
 30
0.0
 40
1.0
  1
7510-B
 11
4918.0
 21
1.0
 31
0.0
  0
TEXT
  5
DA
  8
MyLines
 62
1
 10
4739.0
 20
1.0
 30
0.0
 40
1.0
  1
7510-A
 11
4739.0
 21
1.0
 31
0.0
  0
LINE
  5
DB
  8
MyLines
 10
4917.0
 20
0.0
 30
0.0
 11
4917.0
 21
75.0
 31
0.0
  0
LINE
  5
DC
  8
MyLines
 10
5098.0
 20
53.0
 30
0.0
 11
5624.0
 21
53.0
 31
0.0
  0
LINE
  5
DD
  8
MyLines
 10
5098.0
 20
0.0
 30
0.0
 11
5624.0
 21
0.0
 31
0.0
  0
LINE
  5
DE
  8
MyLines
 10
5098.0
 20
0.0
 30
0.0
 11
5098.0
 21
53.0
 31
0.0
  0
LINE
  5
DF
  8
MyLines
 10
5624.0
 20
0.0
 30
0.0
 11
5624.0
 21
53.0
 31
0.0
  0
TEXT
  5
E0
  8
MyLines
 62
1
 10
5362.0
 20
1.0
 30
0.0
 40
1.0
  1
7511-B
 11
5362.0
 21
1.0
 31
0.0
  0
TEXT
  5
E1
  8
MyLines
 62
1
 10
5099.0
 20
1.0
 30
0.0
 40
1.0
  1
7511-A
 11
5099.0
 21
1.0
 31
0.0
  0
LINE
  5
E2
  8
MyLines
 10
5361.0
 20
0.0
 30
0.0
 11
5361.0
 21
53.0
 31
0.0
  0
LINE
  5
E3
  8
MyLines
 10
5626.0
 20
74.5
 30
0.0
 11
6130.0
 21
74.5
 31
0.0
  0
LINE
  5
E4
  8
MyLines
 10
5626.0
 20
0.0
 30
0.0
 11
6130.0
 21
0.0
 31
0.0
  0
LINE
  5
E5
  8
MyLines
 10
5626.0
 20
0.0
 30
0.0
 11
5626.0
 21
74.5
 31
0.0
  0
LINE
  5
E6
  8
MyLines
 10
6130.0
 20
0.0
 30
0.0
 11
6130.0
 21
74.5
 31
0.0
  0
TEXT
  5
E7
  8
MyLines
 62
1
 10
5879.0
 20
1.0
 30
0.0
 40
1.0
  1
7512-B
 11
5879.0
 21
1.0
 31
0.0
  0
TEXT
  5
E8
  8
MyLines
 62
1
 10
5627.0
 20
1.0
 30
0.0
 40
1.0
  1
7512-A
 11
5627.0
 21
1.0
 31
0.0
  0
LINE
  5
E9
  8
MyLines
 10
5878.0
 20
0.0
 30
0.0
 11
5878.0
 21
74.5
 31
0.0
  0
LINE
  5
EA
  8
MyLines
 10
6132.0
 20
84.0
 30
0.0
 11
6616.0
 21
84.0
 31
0.0
  0
LINE
  5
EB
  8
MyLines
 10
6132.0
 20
0.0
 30
0.0
 11
6616.0
 21
0.0
 31
0.0
  0
LINE
  5
EC
  8
MyLines
 10
6132.0
 20
0.0
 30
0.0
 11
6132.0
 21
84.0
 31
0.0
  0
LINE
  5
ED
  8
MyLines
 10
6616.0
 20
0.0
 30
0.0
 11
6616.0
 21
84.0
 31
0.0
  0
TEXT
  5
EE
  8
MyLines
 62
1
 10
6375.0
 20
1.0
 30
0.0
 40
1.0
  1
7513-B
 11
6375.0
 21
1.0
 31
0.0
  0
TEXT
  5
EF
  8
MyLines
 62
1
 10
6133.0
 20
1.0
 30
0.0
 40
1.0
  1
7513-A
 11
6133.0
 21
1.0
 31
0.0
  0
LINE
  5
F0
  8
MyLines
 10
6374.0
 20
0.0
 30
0.0
 11
6374.0
 21
84.0
 31
0.0
  0
LINE
  5
F1
  8
MyLines
 10
6618.0
 20
38.5
 30
0.0
 11
7200.0
 21
38.5
 31
0.0
  0
LINE
  5
F2
  8
MyLines
 10
6618.0
 20
0.0
 30
0.0
 11
7200.0
 21
0.0
 31
0.0
  0
LINE
  5
F3
  8
MyLines
 10
6618.0
 20
0.0
 30
0.0
 11
6618.0
 21
38.5
 31
0.0
  0
LINE
  5
F4
  8
MyLines
 10
7200.0
 20
0.0
 30
0.0
 11
7200.0
 21
38.5
 31
0.0
  0
TEXT
  5
F5
  8
MyLines
 62
1
 10
6910.0
 20
1.0
 30
0.0
 40
1.0
  1
7514-B
 11
6910.0
 21
1.0
 31
0.0
  0
TEXT
  5
F6
  8
MyLines
 62
1
 10
6619.0
 20
1.0
 30
0.0
 40
1.0
  1
7514-A
 11
6619.0
 21
1.0
 31
0.0
  0
LINE
  5
F7
  8
MyLines
 10
6909.0
 20
0.0
 30
0.0
 11
6909.0
 21
38.5
 31
0.0
  0
LINE
  5
F8
  8
MyLines
 10
7202.0
 20
70.5
 30
0.0
 11
7582.0
 21
70.5
 31
0.0
  0
LINE
  5
F9
  8
MyLines
 10
7202.0
 20
0.0
 30
0.0
 11
7582.0
 21
0.0
 31
0.0
  0
LINE
  5
FA
  8
MyLines
 10
7202.0
 20
0.0
 30
0.0
 11
7202.0
 21
70.5
 31
0.0
  0
LINE
  5
FB
  8
MyLines
 10
7582.0
 20
0.0
 30
0.0
 11
7582.0
 21
70.5
 31
0.0
  0
TEXT
  5
FC
  8
MyLines
 62
1
 10
7393.0
 20
1.0
 30
0.0
 40
1.0
  1
7515-B
 11
7393.0
 21
1.0
 31
0.0
  0
TEXT
  5
FD
  8
MyLines
 62
1
 10
7203.0
 20
1.0
 30
0.0
 40
1.0
  1
7515-A
 11
7203.0
 21
1.0
 31
0.0
  0
LINE
  5
FE
  8
MyLines
 10
7392.0
 20
0.0
 30
0.0
 11
7392.0
 21
70.5
 31
0.0
  0
LINE
  5
FF
  8
MyLines
 10
7584.0
 20
40.0
 30
0.0
 11
7942.0
 21
40.0
 31
0.0
  0
LINE
  5
100
  8
MyLines
 10
7584.0
 20
0.0
 30
0.0
 11
7942.0
 21
0.0
 31
0.0
  0
LINE
  5
101
  8
MyLines
 10
7584.0
 20
0.0
 30
0.0
 11
7584.0
 21
40.0
 31
0.0
  0
LINE
  5
102
  8
MyLines
 10
7942.0
 20
0.0
 30
0.0
 11
7942.0
 21
40.0
 31
0.0
  0
TEXT
  5
103
  8
MyLines
 62
1
 10
7764.0
 20
1.0
 30
0.0
 40
1.0
  1
7516-B
 11
7764.0
 21
1.0
 31
0.0
  0
TEXT
  5
104
  8
MyLines
 62
1
 10
7585.0
 20
1.0
 30
0.0
 40
1.0
  1
7516-A
 11
7585.0
 21
1.0
 31
0.0
  0
LINE
  5
105
  8
MyLines
 10
7763.0
 20
0.0
 30
0.0
 11
7763.0
 21
40.0
 31
0.0
  0
LINE
  5
106
  8
MyLines
 10
7944.0
 20
66.0
 30
0.0
 11
8374.0
 21
66.0
 31
0.0
  0
LINE
  5
107
  8
MyLines
 10
7944.0
 20
0.0
 30
0.0
 11
8374.0
 21
0.0
 31
0.0
  0
LINE
  5
108
  8
MyLines
 10
7944.0
 20
0.0
 30
0.0
 11
7944.0
 21
66.0
 31
0.0
  0
LINE
  5
109
  8
MyLines
 10
8374.0
 20
0.0
 30
0.0
 11
8374.0
 21
66.0
 31
0.0
  0
TEXT
  5
10A
  8
MyLines
 62
1
 10
8160.0
 20
1.0
 30
0.0
 40
1.0
  1
7517-B
 11
8160.0
 21
1.0
 31
0.0
  0
TEXT
  5
10B
  8
MyLines
 62
1
 10
7945.0
 20
1.0
 30
0.0
 40
1.0
  1
7517-A
 11
7945.0
 21
1.0
 31
0.0
  0
LINE
  5
10C
  8
MyLines
 10
8159.0
 20
0.0
 30
0.0
 11
8159.0
 21
66.0
 31
0.0
  0
LINE
  5
10D
  8
MyLines
 10
8376.0
 20
36.5
 30
0.0
 11
8964.0
 21
36.5
 31
0.0
  0
LINE
  5
10E
  8
MyLines
 10
8376.0
 20
0.0
 30
0.0
 11
8964.0
 21
0.0
 31
0.0
  0
LINE
  5
10F
  8
MyLines
 10
8376.0
 20
0.0
 30
0.0
 11
8376.0
 21
36.5
 31
0.0
  0
LINE
  5
110
  8
MyLines
 10
8964.0
 20
0.0
 30
0.0
 11
8964.0
 21
36.5
 31
0.0
  0
TEXT
  5
111
  8
MyLines
 62
1
 10
8671.0
 20
1.0
 30
0.0
 40
1.0
  1
7518-B
 11
8671.0
 21
1.0
 31
0.0
  0
TEXT
  5
112
  8
MyLines
 62
1
 10
8377.0
 20
1.0
 30
0.0
 40
1.0
  1
7518-A
 11
8377.0
 21
1.0
 31
0.0
  0
LINE
  5
113
  8
MyLines
 10
8670.0
 20
0.0
 30
0.0
 11
8670.0
 21
36.5
 31
0.0
  0
LINE
  5
114
  8
MyLines
 10
8966.0
 20
77.0
 30
0.0
 11
9516.0
 21
77.0
 31
0.0
  0
LINE
  5
115
  8
MyLines
 10
8966.0
 20
0.0
 30
0.0
 11
9516.0
 21
0.0
 31
0.0
  0
LINE
  5
116
  8
MyLines
 10
8966.0
 20
0.0
 30
0.0
 11
8966.0
 21
77.0
 31
0.0
  0
LINE
  5
117
  8
MyLines
 10
9516.0
 20
0.0
 30
0.0
 11
9516.0
 21
77.0
 31
0.0
  0
TEXT
  5
118
  8
MyLines
 62
1
 10
9242.0
 20
1.0
 30
0.0
 40
1.0
  1
7519-B
 11
9242.0
 21
1.0
 31
0.0
  0
TEXT
  5
119
  8
MyLines
 62
1
 10
8967.0
 20
1.0
 30
0.0
 40
1.0
  1
7519-A
 11
8967.0
 21
1.0
 31
0.0
  0
LINE
  5
11A
  8
MyLines
 10
9241.0
 20
0.0
 30
0.0
 11
9241.0
 21
77.0
 31
0.0
  0
LINE
  5
11B
  8
MyLines
 10
9518.0
 20
71.5
 30
0.0
 11
10080.0
 21
71.5
 31
0.0
  0
LINE
  5
11C
  8
MyLines
 10
9518.0
 20
0.0
 30
0.0
 11
10080.0
 21
0.0
 31
0.0
  0
LINE
  5
11D
  8
MyLines
 10
9518.0
 20
0.0
 30
0.0
 11
9518.0
 21
71.5
 31
0.0
  0
LINE
  5
11E
  8
MyLines
 10
10080.0
 20
0.0
 30
0.0
 11
10080.0
 21
71.5
 31
0.0
  0
TEXT
  5
11F
  8
MyLines
 62
1
 10
9800.0
 20
1.0
 30
0.0
 40
1.0
  1
7520-B
 11
9800.0
 21
1.0
 31
0.0
  0
TEXT
  5
120
  8
MyLines
 62
1
 10
9519.0
 20
1.0
 30
0.0
 40
1.0
  1
7520-A
 11
9519.0
 21
1.0
 31
0.0
  0
LINE
  5
121
  8
MyLines
 10
9799.0
 20
0.0
 30
0.0
 11
9799.0
 21
71.5
 31
0.0
  0
LINE
  5
122
  8
MyLines
 10
10082.0
 20
74.0
 30
0.0
 11
10674.0
 21
74.0
 31
0.0
  0
LINE
  5
123
  8
MyLines
 10
10082.0
 20
0.0
 30
0.0
 11
10674.0
 21
0.0
 31
0.0
  0
LINE
  5
124
  8
MyLines
 10
10082.0
 20
0.0
 30
0.0
 11
10082.0
 21
74.0
 31
0.0
  0
LINE
  5
125
  8
MyLines
 10
10674.0
 20
0.0
 30
0.0
 11
10674.0
 21
74.0
 31
0.0
  0
TEXT
  5
126
  8
MyLines
 62
1
 10
10379.0
 20
1.0
 30
0.0
 40
1.0
  1
7521-B
 11
10379.0
 21
1.0
 31
0.0
  0
TEXT
  5
127
  8
MyLines
 62
1
 10
10083.0
 20
1.0
 30
0.0
 40
1.0
  1
7521-A
 11
10083.0
 21
1.0
 31
0.0
  0
LINE
  5
128
  8
MyLines
 10
10378.0
 20
0.0
 30
0.0
 11
10378.0
 21
74.0
 31
0.0
  0
LINE
  5
129
  8
MyLines
 10
10676.0
 20
79.5
 30
0.0
 11
11200.0
 21
79.5
 31
0.0
  0
LINE
  5
12A
  8
MyLines
 10
10676.0
 20
0.0
 30
0.0
 11
11200.0
 21
0.0
 31
0.0
  0
LINE
  5
12B
  8
MyLines
 10
10676.0
 20
0.0
 30
0.0
 11
10676.0
 21
79.5
 31
0.0
  0
LINE
  5
12C
  8
MyLines
 10
11200.0
 20
0.0
 30
0.0
 11
11200.0
 21
79.5
 31
0.0
  0
TEXT
  5
12D
  8
MyLines
 62
1
 10
10939.0
 20
1.0
 30
0.0
 40
1.0
  1
7522-B
 11
10939.0
 21
1.0
 31
0.0
  0
TEXT
  5
12E
  8
MyLines
 62
1
 10
10677.0
 20
1.0
 30
0.0
 40
1.0
  1
7522-A
 11
10677.0
 21
1.0
 31
0.0
  0
LINE
  5
12F
  8
MyLines
 10
10938.0
 20
0.0
 30
0.0
 11
10938.0
 21
79.5
 31
0.0
  0
LINE
  5
130
  8
MyLines
 10
11202.0
 20
66.0
 30
0.0
 11
11560.0
 21
66.0
 31
0.0
  0
LINE
  5
131
  8
MyLines
 10
11202.0
 20
0.0
 30
0.0
 11
11560.0
 21
0.0
 31
0.0
  0
LINE
  5
132
  8
MyLines
 10
11202.0
 20
0.0
 30
0.0
 11
11202.0
 21
66.0
 31
0.0
  0
LINE
  5
133
  8
MyLines
 10
11560.0
 20
0.0
 30
0.0
 11
11560.0
 21
66.0
 31
0.0
  0
TEXT
  5
134
  8
MyLines
 62
1
 10
11382.0
 20
1.0
 30
0.0
 40
1.0
  1
7523-B
 11
11382.0
 21
1.0
 31
0.0
  0
TEXT
  5
135
  8
MyLines
 62
1
 10
11203.0
 20
1.0
 30
0.0
 40
1.0
  1
7523-A
 11
11203.0
 21
1.0
 31
0.0
  0
LINE
  5
136
  8
MyLines
 10
11381.0
 20
0.0
 30
0.0
 11
11381.0
 21
66.0
 31
0.0
  0
LINE
  5
137
  8
MyLines
 10
11562.0
 20
84.0
 30
0.0
 11
11968.0
 21
84.0
 31
0.0
  0
LINE
  5
138
  8
MyLines
 10
11562.0
 20
0.0
 30
0.0
 11
11968.0
 21
0.0
 31
0.0
  0
LINE
  5
139
  8
MyLines
 10
11562.0
 20
0.0
 30
0.0
 11
11562.0
 21
84.0
 31
0.0
  0
LINE
  5
13A
  8
MyLines
 10
11968.0
 20
0.0
 30
0.0
 11
11968.0
 21
84.0
 31
0.0
  0
TEXT
  5
13B
  8
MyLines
 62
1
 10
11766.0
 20
1.0
 30
0.0
 40
1.0
  1
7524-B
 11
11766.0
 21
1.0
 31
0.0
  0
TEXT
  5
13C
  8
MyLines
 62
1
 10
11563.0
 20
1.0
 30
0.0
 40
1.0
  1
7524-A
 11
11563.0
 21
1.0
 31
0.0
  0
LINE
  5
13D
  8
MyLines
 10
11765.0
 20
0.0
 30
0.0
 11
11765.0
 21
84.0
 31
0.0
  0
LINE
  5
13E
  8
MyLines
 10
11970.0
 20
36.5
 30
0.0
 11
12442.0
 21
36.5
 31
0.0
  0
LINE
  5
13F
  8
MyLines
 10
11970.0
 20
0.0
 30
0.0
 11
12442.0
 21
0.0
 31
0.0
  0
LINE
  5
140
  8
MyLines
 10
11970.0
 20
0.0
 30
0.0
 11
11970.0
 21
36.5
 31
0.0
  0
LINE
  5
141
  8
MyLines
 10
12442.0
 20
0.0
 30
0.0
 11
12442.0
 21
36.5
 31
0.0
  0
TEXT
  5
142
  8
MyLines
 62
1
 10
12207.0
 20
1.0
 30
0.0
 40
1.0
  1
7525-B
 11
12207.0
 21
1.0
 31
0.0
  0
TEXT
  5
143
  8
MyLines
 62
1
 10
11971.0
 20
1.0
 30
0.0
 40
1.0
  1
7525-A
 11
11971.0
 21
1.0
 31
0.0
  0
LINE
  5
144
  8
MyLines
 10
12206.0
 20
0.0
 30
0.0
 11
12206.0
 21
36.5
 31
0.0
  0
LINE
  5
145
  8
MyLines
 10
12444.0
 20
85.5
 30
0.0
 11
12970.0
 21
85.5
 31
0.0
  0
LINE
  5
146
  8
MyLines
 10
12444.0
 20
0.0
 30
0.0
 11
12970.0
 21
0.0
 31
0.0
  0
LINE
  5
147
  8
MyLines
 10
12444.0
 20
0.0
 30
0.0
 11
12444.0
 21
85.5
 31
0.0
  0
LINE
  5
148
  8
MyLines
 10
12970.0
 20
0.0
 30
0.0
 11
12970.0
 21
85.5
 31
0.0
  0
TEXT
  5
149
  8
MyLines
 62
1
 10
12708.0
 20
1.0
 30
0.0
 40
1.0
  1
7526-B
 11
12708.0
 21
1.0
 31
0.0
  0
TEXT
  5
14A
  8
MyLines
 62
1
 10
12445.0
 20
1.0
 30
0.0
 40
1.0
  1
7526-A
 11
12445.0
 21
1.0
 31
0.0
  0
LINE
  5
14B
  8
MyLines
 10
12707.0
 20
0.0
 30
0.0
 11
12707.0
 21
85.5
 31
0.0
  0
LINE
  5
14C
  8
MyLines
 10
12972.0
 20
49.0
 30
0.0
 11
13504.0
 21
49.0
 31
0.0
  0
LINE
  5
14D
  8
MyLines
 10
12972.0
 20
0.0
 30
0.0
 11
13504.0
 21
0.0
 31
0.0
  0
LINE
  5
14E
  8
MyLines
 10
12972.0
 20
0.0
 30
0.0
 11
12972.0
 21
49.0
 31
0.0
  0
LINE
  5
14F
  8
MyLines
 10
13504.0
 20
0.0
 30
0.0
 11
13504.0
 21
49.0
 31
0.0
  0
TEXT
  5
150
  8
MyLines
 62
1
 10
13239.0
 20
1.0
 30
0.0
 40
1.0
  1
7527-B
 11
13239.0
 21
1.0
 31
0.0
  0
TEXT
  5
151
  8
MyLines
 62
1
 10
12973.0
 20
1.0
 30
0.0
 40
1.0
  1
7527-A
 11
12973.0
 21
1.0
 31
0.0
  0
LINE
  5
152
  8
MyLines
 10
13238.0
 20
0.0
 30
0.0
 11
13238.0
 21
49.0
 31
0.0
  0
LINE
  5
153
  8
MyLines
 10
13506.0
 20
69.0
 30
0.0
 11
14080.0
 21
69.0
 31
0.0
  0
LINE
  5
154
  8
MyLines
 10
13506.0
 20
0.0
 30
0.0
 11
14080.0
 21
0.0
 31
0.0
  0
LINE
  5
155
  8
MyLines
 10
13506.0
 20
0.0
 30
0.0
 11
13506.0
 21
69.0
 31
0.0
  0
LINE
  5
156
  8
MyLines
 10
14080.0
 20
0.0
 30
0.0
 11
14080.0
 21
69.0
 31
0.0
  0
TEXT
  5
157
  8
MyLines
 62
1
 10
13794.0
 20
1.0
 30
0.0
 40
1.0
  1
7528-B
 11
13794.0
 21
1.0
 31
0.0
  0
TEXT
  5
158
  8
MyLines
 62
1
 10
13507.0
 20
1.0
 30
0.0
 40
1.0
  1
7528-A
 11
13507.0
 21
1.0
 31
0.0
  0
LINE
  5
159
  8
MyLines
 10
13793.0
 20
0.0
 30
0.0
 11
13793.0
 21
69.0
 31
0.0
  0
LINE
  5
15A
  8
MyLines
 10
14082.0
 20
54.5
 30
0.0
 11
14630.0
 21
54.5
 31
0.0
  0
LINE
  5
15B
  8
MyLines
 10
14082.0
 20
0.0
 30
0.0
 11
14630.0
 21
0.0
 31
0.0
  0
LINE
  5
15C
  8
MyLines
 10
14082.0
 20
0.0
 30
0.0
 11
14082.0
 21
54.5
 31
0.0
  0
LINE
  5
15D
  8
MyLines
 10
14630.0
 20
0.0
 30
0.0
 11
14630.0
 21
54.5
 31
0.0
  0
TEXT
  5
15E
  8
MyLines
 62
1
 10
14357.0
 20
1.0
 30
0.0
 40
1.0
  1
7529-B
 11
14357.0
 21
1.0
 31
0.0
  0
TEXT
  5
15F
  8
MyLines
 62
1
 10
14083.0
 20
1.0
 30
0.0
 40
1.0
  1
7529-A
 11
14083.0
 21
1.0
 31
0.0
  0
LINE
  5
160
  8
MyLines
 10
14356.0
 20
0.0
 30
0.0
 11
14356.0
 21
54.5
 31
0.0
  0
LINE
  5
161
  8
MyLines
 10
14632.0
 20
82.5
 30
0.0
 11
15228.0
 21
82.5
 31
0.0
  0
LINE
  5
162
  8
MyLines
 10
14632.0
 20
0.0
 30
0.0
 11
15228.0
 21
0.0
 31
0.0
  0
LINE
  5
163
  8
MyLines
 10
14632.0
 20
0.0
 30
0.0
 11
14632.0
 21
82.5
 31
0.0
  0
LINE
  5
164
  8
MyLines
 10
15228.0
 20
0.0
 30
0.0
 11
15228.0
 21
82.5
 31
0.0
  0
TEXT
  5
165
  8
MyLines
 62
1
 10
14931.0
 20
1.0
 30
0.0
 40
1.0
  1
7530-B
 11
14931.0
 21
1.0
 31
0.0
  0
TEXT
  5
166
  8
MyLines
 62
1
 10
14633.0
 20
1.0
 30
0.0
 40
1.0
  1
7530-A
 11
14633.0
 21
1.0
 31
0.0
  0
LINE
  5
167
  8
MyLines
 10
14930.0
 20
0.0
 30
0.0
 11
14930.0
 21
82.5
 31
0.0
  0
LINE
  5
168
  8
MyLines
 10
15230.0
 20
81.5
 30
0.0
 11
15598.0
 21
81.5
 31
0.0
  0
LINE
  5
169
  8
MyLines
 10
15230.0
 20
0.0
 30
0.0
 11
15598.0
 21
0.0
 31
0.0
  0
LINE
  5
16A
  8
MyLines
 10
15230.0
 20
0.0
 30
0.0
 11
15230.0
 21
81.5
 31
0.0
  0
LINE
  5
16B
  8
MyLines
 10
15598.0
 20
0.0
 30
0.0
 11
15598.0
 21
81.5
 31
0.0
  0
TEXT
  5
16C
  8
MyLines
 62
1
 10
15415.0
 20
1.0
 30
0.0
 40
1.0
  1
7531-B
 11
15415.0
 21
1.0
 31
0.0
  0
TEXT
  5
16D
  8
MyLines
 62
1
 10
15231.0
 20
1.0
 30
0.0
 40
1.0
  1
7531-A
 11
15231.0
 21
1.0
 31
0.0
  0
LINE
  5
16E
  8
MyLines
 10
15414.0
 20
0.0
 30
0.0
 11
15414.0
 21
81.5
 31
0.0
  0
LINE
  5
16F
  8
MyLines
 10
15600.0
 20
50.5
 30
0.0
 11
16024.0
 21
50.5
 31
0.0
  0
LINE
  5
170
  8
MyLines
 10
15600.0
 20
0.0
 30
0.0
 11
16024.0
 21
0.0
 31
0.0
  0
LINE
  5
171
  8
MyLines
 10
15600.0
 20
0.0
 30
0.0
 11
15600.0
 21
50.5
 31
0.0
  0
LINE
  5
172
  8
MyLines
 10
16024.0
 20
0.0
 30
0.0
 11
16024.0
 21
50.5
 31
0.0
  0
TEXT
  5
173
  8
MyLines
 62
1
 10
15813.0
 20
1.0
 30
0.0
 40
1.0
  1
7532-B
 11
15813.0
 21
1.0
 31
0.0
  0
TEXT
  5
174
  8
MyLines
 62
1
 10
15601.0
 20
1.0
 30
0.0
 40
1.0
  1
7532-A
 11
15601.0
 21
1.0
 31
0.0
  0
LINE
  5
175
  8
MyLines
 10
15812.0
 20
0.0
 30
0.0
 11
15812.0
 21
50.5
 31
0.0
  0
LINE
  5
176
  8
MyLines
 10
16026.0
 20
36.5
 30
0.0
 11
16452.0
 21
36.5
 31
0.0
  0
LINE
  5
177
  8
MyLines
 10
16026.0
 20
0.0
 30
0.0
 11
16452.0
 21
0.0
 31
0.0
  0
LINE
  5
178
  8
MyLines
 10
16026.0
 20
0.0
 30
0.0
 11
16026.0
 21
36.5
 31
0.0
  0
LINE
  5
179
  8
MyLines
 10
16452.0
 20
0.0
 30
0.0
 11
16452.0
 21
36.5
 31
0.0
  0
TEXT
  5
17A
  8
MyLines
 62
1
 10
16240.0
 20
1.0
 30
0.0
 40
1.0
  1
7533-B
 11
16240.0
 21
1.0
 31
0.0
  0
TEXT
  5
17B
  8
MyLines
 62
1
 10
16027.0
 20
1.0
 30
0.0
 40
1.0
  1
7533-A
 11
16027.0
 21
1.0
 31
0.0
  0
LINE
  5
17C
  8
MyLines
 10
16239.0
 20
0.0
 30
0.0
 11
16239.0
 21
36.5
 31
0.0
  0
LINE
  5
17D
  8
MyLines
 10
16454.0
 20
77.5
 30
0.0
 11
16812.0
 21
77.5
 31
0.0
  0
LINE
  5
17E
  8
MyLines
 10
16454.0
 20
0.0
 30
0.0
 11
16812.0
 21
0.0
 31
0.0
  0
LINE
  5
17F
  8
MyLines
 10
16454.0
 20
0.0
 30
0.0
 11
16454.0
 21
77.5
 31
0.0
  0
LINE
  5
180
  8
MyLines
 10
16812.0
 20
0.0
 30
0.0
 11
16812.0
 21
77.5
 31
0.0
  0
TEXT
  5
181
  8
MyLines
 62
1
 10
16634.0
 20
1.0
 30
0.0
 40
1.0
  1
7534-B
 11
16634.0
 21
1.0
 31
0.0
  0
TEXT
  5
182
  8
MyLines
 62
1
 10
16455.0
 20
1.0
 30
0.0
 40
1.0
  1
7534-A
 11
16455.0
 21
1.0
 31
0.0
  0
LINE
  5
183
  8
MyLines
 10
16633.0
 20
0.0
 30
0.0
 11
16633.0
 21
77.5
 31
0.0
  0
LINE
  5
184
  8
MyLines
 10
16814.0
 20
49.5
 30
0.0
 11
17264.0
 21
49.5
 31
0.0
  0
LINE
  5
185
  8
MyLines
 10
16814.0
 20
0.0
 30
0.0
 11
17264.0
 21
0.0
 31
0.0
  0
LINE
  5
186
  8
MyLines
 10
16814.0
 20
0.0
 30
0.0
 11
16814.0
 21
49.5
 31
0.0
  0
LINE
  5
187
  8
MyLines
 10
17264.0
 20
0.0
 30
0.0
 11
17264.0
 21
49.5
 31
0.0
  0
TEXT
  5
188
  8
MyLines
 62
1
 10
17040.0
 20
1.0
 30
0.0
 40
1.0
  1
7535-B
 11
17040.0
 21
1.0
 31
0.0
  0
TEXT
  5
189
  8
MyLines
 62
1
 10
16815.0
 20
1.0
 30
0.0
 40
1.0
  1
7535-A
 11
16815.0
 21
1.0
 31
0.0
  0
LINE
  5
18A
  8
MyLines
 10
17039.0
 20
0.0
 30
0.0
 11
17039.0
 21
49.5
 31
0.0
  0
LINE
  5
18B
  8
MyLines
 10
17266.0
 20
71.5
 30
0.0
 11
17792.0
 21
71.5
 31
0.0
  0
LINE
  5
18C
  8
MyLines
 10
17266.0
 20
0.0
 30
0.0
 11
17792.0
 21
0.0
 31
0.0
  0
LINE
  5
18D
  8
MyLines
 10
17266.0
 20
0.0
 30
0.0
 11
17266.0
 21
71.5
 31
0.0
  0
LINE
  5
18E
  8
MyLines
 10
17792.0
 20
0.0
 30
0.0
 11
17792.0
 21
71.5
 31
0.0
  0
TEXT
  5
18F
  8
MyLines
 62
1
 10
17530.0
 20
1.0
 30
0.0
 40
1.0
  1
7536-B
 11
17530.0
 21
1.0
 31
0.0
  0
TEXT
  5
190
  8
MyLines
 62
1
 10
17267.0
 20
1.0
 30
0.0
 40
1.0
  1
7536-A
 11
17267.0
 21
1.0
 31
0.0
  0
LINE
  5
191
  8
MyLines
 10
17529.0
 20
0.0
 30
0.0
 11
17529.0
 21
71.5
 31
0.0
  0
LINE
  5
192
  8
MyLines
 10
17794.0
 20
62.5
 30
0.0
 11
18206.0
 21
62.5
 31
0.0
  0
LINE
  5
193
  8
MyLines
 10
17794.0
 20
0.0
 30
0.0
 11
18206.0
 21
0.0
 31
0.0
  0
LINE
  5
194
  8
MyLines
 10
17794.0
 20
0.0
 30
0.0
 11
17794.0
 21
62.5
 31
0.0
  0
LINE
  5
195
  8
MyLines
 10
18206.0
 20
0.0
 30
0.0
 11
18206.0
 21
62.5
 31
0.0
  0
TEXT
  5
196
  8
MyLines
 62
1
 10
18001.0
 20
1.0
 30
0.0
 40
1.0
  1
7537-B
 11
18001.0
 21
1.0
 31
0.0
  0
TEXT
  5
197
  8
MyLines
 62
1
 10
17795.0
 20
1.0
 30
0.0
 40
1.0
  1
7537-A
 11
17795.0
 21
1.0
 31
0.0
  0
LINE
  5
198
  8
MyLines
 10
18000.0
 20
0.0
 30
0.0
 11
18000.0
 21
62.5
 31
0.0
  0
LINE
  5
199
  8
MyLines
 10
18208.0
 20
75.0
 30
0.0
 11
18702.0
 21
75.0
 31
0.0
  0
LINE
  5
19A
  8
MyLines
 10
18208.0
 20
0.0
 30
0.0
 11
18702.0
 21
0.0
 31
0.0
  0
LINE
  5
19B
  8
MyLines
 10
18208.0
 20
0.0
 30
0.0
 11
18208.0
 21
75.0
 31
0.0
  0
LINE
  5
19C
  8
MyLines
 10
18702.0
 20
0.0
 30
0.0
 11
18702.0
 21
75.0
 31
0.0
  0
TEXT
  5
19D
  8
MyLines
 62
1
 10
18456.0
 20
1.0
 30
0.0
 40
1.0
  1
7538-B
 11
18456.0
 21
1.0
 31
0.0
  0
TEXT
  5
19E
  8
MyLines
 62
1
 10
18209.0
 20
1.0
 30
0.0
 40
1.0
  1
7538-A
 11
18209.0
 21
1.0
 31
0.0
  0
LINE
  5
19F
  8
MyLines
 10
18455.0
 20
0.0
 30
0.0
 11
18455.0
 21
75.0
 31
0.0
  0
LINE
  5
1A0
  8
MyLines
 10
18704.0
 20
53.0
 30
0.0
 11
19100.0
 21
53.0
 31
0.0
  0
LINE
  5
1A1
  8
MyLines
 10
18704.0
 20
0.0
 30
0.0
 11
19100.0
 21
0.0
 31
0.0
  0
LINE
  5
1A2
  8
MyLines
 10
18704.0
 20
0.0
 30
0.0
 11
18704.0
 21
53.0
 31
0.0
  0
LINE
  5
1A3
  8
MyLines
 10
19100.0
 20
0.0
 30
0.0
 11
19100.0
 21
53.0
 31
0.0
  0
TEXT
  5
1A4
  8
MyLines
 62
1
 10
18903.0
 20
1.0
 30
0.0
 40
1.0
  1
7539-B
 11
18903.0
 21
1.0
 31
0.0
  0
TEXT
  5
1A5
  8
MyLines
 62
1
 10
18705.0
 20
1.0
 30
0.0
 40
1.0
  1
7539-A
 11
18705.0
 21
1.0
 31
0.0
  0
LINE
  5
1A6
  8
MyLines
 10
18902.0
 20
0.0
 30
0.0
 11
18902.0
 21
53.0
 31
0.0
  0
LINE
  5
1A7
  8
MyLines
 10
19102.0
 20
70.0
 30
0.0
 11
19518.0
 21
70.0
 31
0.0
  0
LINE
  5
1A8
  8
MyLines
 10
19102.0
 20
0.0
 30
0.0
 11
19518.0
 21
0.0
 31
0.0
  0
LINE
  5
1A9
  8
MyLines
 10
19102.0
 20
0.0
 30
0.0
 11
19102.0
 21
70.0
 31
0.0
  0
LINE
  5
1AA
  8
MyLines
 10
19518.0
 20
0.0
 30
0.0
 11
19518.0
 21
70.0
 31
0.0
  0
TEXT
  5
1AB
  8
MyLines
 62
1
 10
19311.0
 20
1.0
 30
0.0
 40
1.0
  1
7540-B
 11
19311.0
 21
1.0
 31
0.0
  0
TEXT
  5
1AC
  8
MyLines
 62
1
 10
19103.0
 20
1.0
 30
0.0
 40
1.0
  1
7540-A
 11
19103.0
 21
1.0
 31
0.0
  0
LINE
  5
1AD
  8
MyLines
 10
19310.0
 20
0.0
 30
0.0
 11
19310.0
 21
70.0
 31
0.0
  0
LINE
  5
1AE
  8
MyLines
 10
19520.0
 20
58.0
 30
0.0
 11
19992.0
 21
58.0
 31
0.0
  0
LINE
  5
1AF
  8
MyLines
 10
19520.0
 20
0.0
 30
0.0
 11
19992.0
 21
0.0
 31
0.0
  0
LINE
  5
1B0
  8
MyLines
 10
19520.0
 20
0.0
 30
0.0
 11
19520.0
 21
58.0
 31
0.0
  0
LINE
  5
1B1
  8
MyLines
 10
19992.0
 20
0.0
 30
0.0
 11
19992.0
 21
58.0
 31
0.0
  0
TEXT
  5
1B2
  8
MyLines
 62
1
 10
19757.0
 20
1.0
 30
0.0
 40
1.0
  1
7541-B
 11
19757.0
 21
1.0
 31
0.0
  0
TEXT
  5
1B3
  8
MyLines
 62
1
 10
19521.0
 20
1.0
 30
0.0
 40
1.0
  1
7541-A
 11
19521.0
 21
1.0
 31
0.0
  0
LINE
  5
1B4
  8
MyLines
 10
19756.0
 20
0.0
 30
0.0
 11
19756.0
 21
58.0
 31
0.0
  0
LINE
  5
1B5
  8
MyLines
 10
19994.0
 20
69.0
 30
0.0
 11
20466.0
 21
69.0
 31
0.0
  0
LINE
  5
1B6
  8
MyLines
 10
19994.0
 20
0.0
 30
0.0
 11
20466.0
 21
0.0
 31
0.0
  0
LINE
  5
1B7
  8
MyLines
 10
19994.0
 20
0.0
 30
0.0
 11
19994.0
 21
69.0
 31
0.0
  0
LINE
  5
1B8
  8
MyLines
 10
20466.0
 20
0.0
 30
0.0
 11
20466.0
 21
69.0
 31
0.0
  0
TEXT
  5
1B9
  8
MyLines
 62
1
 10
20231.0
 20
1.0
 30
0.0
 40
1.0
  1
7542-B
 11
20231.0
 21
1.0
 31
0.0
  0
TEXT
  5
1BA
  8
MyLines
 62
1
 10
19995.0
 20
1.0
 30
0.0
 40
1.0
  1
7542-A
 11
19995.0
 21
1.0
 31
0.0
  0
LINE
  5
1BB
  8
MyLines
 10
20230.0
 20
0.0
 30
0.0
 11
20230.0
 21
69.0
 31
0.0
  0
LINE
  5
1BC
  8
MyLines
 10
20468.0
 20
70.0
 30
0.0
 11
20852.0
 21
70.0
 31
0.0
  0
LINE
  5
1BD
  8
MyLines
 10
20468.0
 20
0.0
 30
0.0
 11
20852.0
 21
0.0
 31
0.0
  0
LINE
  5
1BE
  8
MyLines
 10
20468.0
 20
0.0
 30
0.0
 11
20468.0
 21
70.0
 31
0.0
  0
LINE
  5
1BF
  8
MyLines
 10
20852.0
 20
0.0
 30
0.0
 11
20852.0
 21
70.0
 31
0.0
  0
TEXT
  5
1C0
  8
MyLines
 62
1
 10
20661.0
 20
1.0
 30
0.0
 40
1.0
  1
7543-B
 11
20661.0
 21
1.0
 31
0.0
  0
TEXT
  5
1C1
  8
MyLines
 62
1
 10
20469.0
 20
1.0
 30
0.0
 40
1.0
  1
7543-A
 11
20469.0
 21
1.0
 31
0.0
  0
LINE
  5
1C2
  8
MyLines
 10
20660.0
 20
0.0
 30
0.0
 11
20660.0
 21
70.0
 31
0.0
  0
LINE
  5
1C3
  8
MyLines
 10
20854.0
 20
57.5
 30
0.0
 11
21278.0
 21
57.5
 31
0.0
  0
LINE
  5
1C4
  8
MyLines
 10
20854.0
 20
0.0
 30
0.0
 11
21278.0
 21
0.0
 31
0.0
  0
LINE
  5
1C5
  8
MyLines
 10
20854.0
 20
0.0
 30
0.0
 11
20854.0
 21
57.5
 31
0.0
  0
LINE
  5
1C6
  8
MyLines
 10
21278.0
 20
0.0
 30
0.0
 11
21278.0
 21
57.5
 31
0.0
  0
TEXT
  5
1C7
  8
MyLines
 62
1
 10
21067.0
 20
1.0
 30
0.0
 40
1.0
  1
7544-B
 11
21067.0
 21
1.0
 31
0.0
  0
TEXT
  5
1C8
  8
MyLines
 62
1
 10
20855.0
 20
1.0
 30
0.0
 40
1.0
  1
7544-A
 11
20855.0
 21
1.0
 31
0.0
  0
LINE
  5
1C9
  8
MyLines
 10
21066.0
 20
0.0
 30
0.0
 11
21066.0
 21
57.5
 31
0.0
  0
LINE
  5
1CA
  8
MyLines
 10
21280.0
 20
61.0
 30
0.0
 11
21742.0
 21
61.0
 31
0.0
  0
LINE
  5
1CB
  8
MyLines
 10
21280.0
 20
0.0
 30
0.0
 11
21742.0
 21
0.0
 31
0.0
  0
LINE
  5
1CC
  8
MyLines
 10
21280.0
 20
0.0
 30
0.0
 11
21280.0
 21
61.0
 31
0.0
  0
LINE
  5
1CD
  8
MyLines
 10
21742.0
 20
0.0
 30
0.0
 11
21742.0
 21
61.0
 31
0.0
  0
TEXT
  5
1CE
  8
MyLines
 62
1
 10
21512.0
 20
1.0
 30
0.0
 40
1.0
  1
7545-B
 11
21512.0
 21
1.0
 31
0.0
  0
TEXT
  5
1CF
  8
MyLines
 62
1
 10
21281.0
 20
1.0
 30
0.0
 40
1.0
  1
7545-A
 11
21281.0
 21
1.0
 31
0.0
  0
LINE
  5
1D0
  8
MyLines
 10
21511.0
 20
0.0
 30
0.0
 11
21511.0
 21
61.0
 31
0.0
  0
LINE
  5
1D1
  8
MyLines
 10
21744.0
 20
71.0
 30
0.0
 11
22134.0
 21
71.0
 31
0.0
  0
LINE
  5
1D2
  8
MyLines
 10
21744.0
 20
0.0
 30
0.0
 11
22134.0
 21
0.0
 31
0.0
  0
LINE
  5
1D3
  8
MyLines
 10
21744.0
 20
0.0
 30
0.0
 11
21744.0
 21
71.0
 31
0.0
  0
LINE
  5
1D4
  8
MyLines
 10
22134.0
 20
0.0
 30
0.0
 11
22134.0
 21
71.0
 31
0.0
  0
TEXT
  5
1D5
  8
MyLines
 62
1
 10
21940.0
 20
1.0
 30
0.0
 40
1.0
  1
7546-B
 11
21940.0
 21
1.0
 31
0.0
  0
TEXT
  5
1D6
  8
MyLines
 62
1
 10
21745.0
 20
1.0
 30
0.0
 40
1.0
  1
7546-A
 11
21745.0
 21
1.0
 31
0.0
  0
LINE
  5
1D7
  8
MyLines
 10
21939.0
 20
0.0
 30
0.0
 11
21939.0
 21
71.0
 31
0.0
  0
LINE
  5
1D8
  8
MyLines
 10
22136.0
 20
77.5
 30
0.0
 11
22542.0
 21
77.5
 31
0.0
  0
LINE
  5
1D9
  8
MyLines
 10
22136.0
 20
0.0
 30
0.0
 11
22542.0
 21
0.0
 31
0.0
  0
LINE
  5
1DA
  8
MyLines
 10
22136.0
 20
0.0
 30
0.0
 11
22136.0
 21
77.5
 31
0.0
  0
LINE
  5
1DB
  8
MyLines
 10
22542.0
 20
0.0
 30
0.0
 11
22542.0
 21
77.5
 31
0.0
  0
TEXT
  5
1DC
  8
MyLines
 62
1
 10
22340.0
 20
1.0
 30
0.0
 40
1.0
  1
7547-B
 11
22340.0
 21
1.0
 31
0.0
  0
TEXT
  5
1DD
  8
MyLines
 62
1
 10
22137.0
 20
1.0
 30
0.0
 40
1.0
  1
7547-A
 11
22137.0
 21
1.0
 31
0.0
  0
LINE
  5
1DE
  8
MyLines
 10
22339.0
 20
0.0
 30
0.0
 11
22339.0
 21
77.5
 31
0.0
  0
LINE
  5
1DF
  8
MyLines
 10
22544.0
 20
81.5
 30
0.0
 11
23068.0
 21
81.5
 31
0.0
  0
LINE
  5
1E0
  8
MyLines
 10
22544.0
 20
0.0
 30
0.0
 11
23068.0
 21
0.0
 31
0.0
  0
LINE
  5
1E1
  8
MyLines
 10
22544.0
 20
0.0
 30
0.0
 11
22544.0
 21
81.5
 31
0.0
  0
LINE
  5
1E2
  8
MyLines
 10
23068.0
 20
0.0
 30
0.0
 11
23068.0
 21
81.5
 31
0.0
  0
TEXT
  5
1E3
  8
MyLines
 62
1
 10
22807.0
 20
1.0
 30
0.0
 40
1.0
  1
7548-B
 11
22807.0
 21
1.0
 31
0.0
  0
TEXT
  5
1E4
  8
MyLines
 62
1
 10
22545.0
 20
1.0
 30
0.0
 40
1.0
  1
7548-A
 11
22545.0
 21
1.0
 31
0.0
  0
LINE
  5
1E5
  8
MyLines
 10
22806.0
 20
0.0
 30
0.0
 11
22806.0
 21
81.5
 31
0.0
  0
LINE
  5
1E6
  8
MyLines
 10
23070.0
 20
81.5
 30
0.0
 11
23514.0
 21
81.5
 31
0.0
  0
LINE
  5
1E7
  8
MyLines
 10
23070.0
 20
0.0
 30
0.0
 11
23514.0
 21
0.0
 31
0.0
  0
LINE
  5
1E8
  8
MyLines
 10
23070.0
 20
0.0
 30
0.0
 11
23070.0
 21
81.5
 31
0.0
  0
LINE
  5
1E9
  8
MyLines
 10
23514.0
 20
0.0
 30
0.0
 11
23514.0
 21
81.5
 31
0.0
  0
TEXT
  5
1EA
  8
MyLines
 62
1
 10
23293.0
 20
1.0
 30
0.0
 40
1.0
  1
7549-B
 11
23293.0
 21
1.0
 31
0.0
  0
TEXT
  5
1EB
  8
MyLines
 62
1
 10
23071.0
 20
1.0
 30
0.0
 40
1.0
  1
7549-A
 11
23071.0
 21
1.0
 31
0.0
  0
LINE
  5
1EC
  8
MyLines
 10
23292.0
 20
0.0
 30
0.0
 11
23292.0
 21
81.5
 31
0.0
  0
LINE
  5
1ED
  8
MyLines
 10
23516.0
 20
43.5
 30
0.0
 11
23944.0
 21
43.5
 31
0.0
  0
LINE
  5
1EE
  8
MyLines
 10
23516.0
 20
0.0
 30
0.0
 11
23944.0
 21
0.0
 31
0.0
  0
LINE
  5
1EF
  8
MyLines
 10
23516.0
 20
0.0
 30
0.0
 11
23516.0
 21
43.5
 31
0.0
  0
LINE
  5
1F0
  8
MyLines
 10
23944.0
 20
0.0
 30
0.0
 11
23944.0
 21
43.5
 31
0.0
  0
TEXT
  5
1F1
  8
MyLines
 62
1
 10
23731.0
 20
1.0
 30
0.0
 40
1.0
  1
7550-B
 11
23731.0
 21
1.0
 31
0.0
  0
TEXT
  5
1F2
  8
MyLines
 62
1
 10
23517.0
 20
1.0
 30
0.0
 40
1.0
  1
7550-A
 11
23517.0
 21
1.0
 31
0.0
  0
LINE
  5
1F3
  8
MyLines
 10
23730.0
 20
0.0
 30
0.0
 11
23730.0
 21
43.5
 31
0.0
  0
LINE
  5
1F4
  8
MyLines
 10
23946.0
 20
51.0
 30
0.0
 11
24430.0
 21
51.0
 31
0.0
  0
LINE
  5
1F5
  8
MyLines
 10
23946.0
 20
0.0
 30
0.0
 11
24430.0
 21
0.0
 31
0.0
  0
LINE
  5
1F6
  8
MyLines
 10
23946.0
 20
0.0
 30
0.0
 11
23946.0
 21
51.0
 31
0.0
  0
LINE
  5
1F7
  8
MyLines
 10
24430.0
 20
0.0
 30
0.0
 11
24430.0
 21
51.0
 31
0.0
  0
TEXT
  5
1F8
  8
MyLines
 62
1
 10
24189.0
 20
1.0
 30
0.0
 40
1.0
  1
7551-B
 11
24189.0
 21
1.0
 31
0.0
  0
TEXT
  5
1F9
  8
MyLines
 62
1
 10
23947.0
 20
1.0
 30
0.0
 40
1.0
  1
7551-A
 11
23947.0
 21
1.0
 31
0.0
  0
LINE
  5
1FA
  8
MyLines
 10
24188.0
 20
0.0
 30
0.0
 11
24188.0
 21
51.0
 31
0.0
  0
LINE
  5
1FB
  8
MyLines
 10
24432.0
 20
84.5
 30
0.0
 11
24946.0
 21
84.5
 31
0.0
  0
LINE
  5
1FC
  8
MyLines
 10
24432.0
 20
0.0
 30
0.0
 11
24946.0
 21
0.0
 31
0.0
  0
LINE
  5
1FD
  8
MyLines
 10
24432.0
 20
0.0
 30
0.0
 11
24432.0
 21
84.5
 31
0.0
  0
LINE
  5
1FE
  8
MyLines
 10
24946.0
 20
0.0
 30
0.0
 11
24946.0
 21
84.5
 31
0.0
  0
TEXT
  5
1FF
  8
MyLines
 62
1
 10
24690.0
 20
1.0
 30
0.0
 40
1.0
  1
7552-B
 11
24690.0
 21
1.0
 31
0.0
  0
TEXT
  5
200
  8
MyLines
 62
1
 10
24433.0
 20
1.0
 30
0.0
 40
1.0
  1
7552-A
 11
24433.0
 21
1.0
 31
0.0
  0
LINE
  5
201
  8
MyLines
 10
24689.0
 20
0.0
 30
0.0
 11
24689.0
 21
84.5
 31
0.0
  0
LINE
  5
202
  8
MyLines
 10
24948.0
 20
70.0
 30
0.0
 11
25444.0
 21
70.0
 31
0.0
  0
LINE
  5
203
  8
MyLines
 10
24948.0
 20
0.0
 30
0.0
 11
25444.0
 21
0.0
 31
0.0
  0
LINE
  5
204
  8
MyLines
 10
24948.0
 20
0.0
 30
0.0
 11
24948.0
 21
70.0
 31
0.0
  0
LINE
  5
205
  8
MyLines
 10
25444.0
 20
0.0
 30
0.0
 11
25444.0
 21
70.0
 31
0.0
  0
TEXT
  5
206
  8
MyLines
 62
1
 10
25197.0
 20
1.0
 30
0.0
 40
1.0
  1
7553-B
 11
25197.0
 21
1.0
 31
0.0
  0
TEXT
  5
207
  8
MyLines
 62
1
 10
24949.0
 20
1.0
 30
0.0
 40
1.0
  1
7553-A
 11
24949.0
 21
1.0
 31
0.0
  0
LINE
  5
208
  8
MyLines
 10
25196.0
 20
0.0
 30
0.0
 11
25196.0
 21
70.0
 31
0.0
  0
LINE
  5
209
  8
MyLines
 10
25446.0
 20
77.5
 30
0.0
 11
25852.0
 21
77.5
 31
0.0
  0
LINE
  5
20A
  8
MyLines
 10
25446.0
 20
0.0
 30
0.0
 11
25852.0
 21
0.0
 31
0.0
  0
LINE
  5
20B
  8
MyLines
 10
25446.0
 20
0.0
 30
0.0
 11
25446.0
 21
77.5
 31
0.0
  0
LINE
  5
20C
  8
MyLines
 10
25852.0
 20
0.0
 30
0.0
 11
25852.0
 21
77.5
 31
0.0
  0
TEXT
  5
20D
  8
MyLines
 62
1
 10
25650.0
 20
1.0
 30
0.0
 40
1.0
  1
7554-B
 11
25650.0
 21
1.0
 31
0.0
  0
TEXT
  5
20E
  8
MyLines
 62
1
 10
25447.0
 20
1.0
 30
0.0
 40
1.0
  1
7554-A
 11
25447.0
 21
1.0
 31
0.0
  0
LINE
  5
20F
  8
MyLines
 10
25649.0
 20
0.0
 30
0.0
 11
25649.0
 21
77.5
 31
0.0
  0
LINE
  5
210
  8
MyLines
 10
25854.0
 20
39.5
 30
0.0
 11
26320.0
 21
39.5
 31
0.0
  0
LINE
  5
211
  8
MyLines
 10
25854.0
 20
0.0
 30
0.0
 11
26320.0
 21
0.0
 31
0.0
  0
LINE
  5
212
  8
MyLines
 10
25854.0
 20
0.0
 30
0.0
 11
25854.0
 21
39.5
 31
0.0
  0
LINE
  5
213
  8
MyLines
 10
26320.0
 20
0.0
 30
0.0
 11
26320.0
 21
39.5
 31
0.0
  0
TEXT
  5
214
  8
MyLines
 62
1
 10
26088.0
 20
1.0
 30
0.0
 40
1.0
  1
7555-B
 11
26088.0
 21
1.0
 31
0.0
  0
TEXT
  5
215
  8
MyLines
 62
1
 10
25855.0
 20
1.0
 30
0.0
 40
1.0
  1
7555-A
 11
25855.0
 21
1.0
 31
0.0
  0
LINE
  5
216
  8
MyLines
 10
26087.0
 20
0.0
 30
0.0
 11
26087.0
 21
39.5
 31
0.0
  0
LINE
  5
217
  8
MyLines
 10
26322.0
 20
86.0
 30
0.0
 11
26824.0
 21
86.0
 31
0.0
  0
LINE
  5
218
  8
MyLines
 10
26322.0
 20
0.0
 30
0.0
 11
26824.0
 21
0.0
 31
0.0
  0
LINE
  5
219
  8
MyLines
 10
26322.0
 20
0.0
 30
0.0
 11
26322.0
 21
86.0
 31
0.0
  0
LINE
  5
21A
  8
MyLines
 10
26824.0
 20
0.0
 30
0.0
 11
26824.0
 21
86.0
 31
0.0
  0
TEXT
  5
21B
  8
MyLines
 62
1
 10
26574.0
 20
1.0
 30
0.0
 40
1.0
  1
7556-B
 11
26574.0
 21
1.0
 31
0.0
  0
TEXT
  5
21C
  8
MyLines
 62
1
 10
26323.0
 20
1.0
 30
0.0
 40
1.0
  1
7556-A
 11
26323.0
 21
1.0
 31
0.0
  0
LINE
  5
21D
  8
MyLines
 10
26573.0
 20
0.0
 30
0.0
 11
26573.0
 21
86.0
 31
0.0
  0
LINE
  5
21E
  8
MyLines
 10
26826.0
 20
46.5
 30
0.0
 11
27232.0
 21
46.5
 31
0.0
  0
LINE
  5
21F
  8
MyLines
 10
26826.0
 20
0.0
 30
0.0
 11
27232.0
 21
0.0
 31
0.0
  0
LINE
  5
220
  8
MyLines
 10
26826.0
 20
0.0
 30
0.0
 11
26826.0
 21
46.5
 31
0.0
  0
LINE
  5
221
  8
MyLines
 10
27232.0
 20
0.0
 30
0.0
 11
27232.0
 21
46.5
 31
0.0
  0
TEXT
  5
222
  8
MyLines
 62
1
 10
27030.0
 20
1.0
 30
0.0
 40
1.0
  1
7557-B
 11
27030.0
 21
1.0
 31
0.0
  0
TEXT
  5
223
  8
MyLines
 62
1
 10
26827.0
 20
1.0
 30
0.0
 40
1.0
  1
7557-A
 11
26827.0
 21
1.0
 31
0.0
  0
LINE
  5
224
  8
MyLines
 10
27029.0
 20
0.0
 30
0.0
 11
27029.0
 21
46.5
 31
0.0
  0
LINE
  5
225
  8
MyLines
 10
27234.0
 20
63.5
 30
0.0
 11
27708.0
 21
63.5
 31
0.0
  0
LINE
  5
226
  8
MyLines
 10
27234.0
 20
0.0
 30
0.0
 11
27708.0
 21
0.0
 31
0.0
  0
LINE
  5
227
  8
MyLines
 10
27234.0
 20
0.0
 30
0.0
 11
27234.0
 21
63.5
 31
0.0
  0
LINE
  5
228
  8
MyLines
 10
27708.0
 20
0.0
 30
0.0
 11
27708.0
 21
63.5
 31
0.0
  0
TEXT
  5
229
  8
MyLines
 62
1
 10
27472.0
 20
1.0
 30
0.0
 40
1.0
  1
7558-B
 11
27472.0
 21
1.0
 31
0.0
  0
TEXT
  5
22A
  8
MyLines
 62
1
 10
27235.0
 20
1.0
 30
0.0
 40
1.0
  1
7558-A
 11
27235.0
 21
1.0
 31
0.0
  0
LINE
  5
22B
  8
MyLines
 10
27471.0
 20
0.0
 30
0.0
 11
27471.0
 21
63.5
 31
0.0
  0
LINE
  5
22C
  8
MyLines
 10
27710.0
 20
73.0
 30
0.0
 11
28228.0
 21
73.0
 31
0.0
  0
LINE
  5
22D
  8
MyLines
 10
27710.0
 20
0.0
 30
0.0
 11
28228.0
 21
0.0
 31
0.0
  0
LINE
  5
22E
  8
MyLines
 10
27710.0
 20
0.0
 30
0.0
 11
27710.0
 21
73.0
 31
0.0
  0
LINE
  5
22F
  8
MyLines
 10
28228.0
 20
0.0
 30
0.0
 11
28228.0
 21
73.0
 31
0.0
  0
TEXT
  5
230
  8
MyLines
 62
1
 10
27970.0
 20
1.0
 30
0.0
 40
1.0
  1
7559-B
 11
27970.0
 21
1.0
 31
0.0
  0
TEXT
  5
231
  8
MyLines
 62
1
 10
27711.0
 20
1.0
 30
0.0
 40
1.0
  1
7559-A
 11
27711.0
 21
1.0
 31
0.0
  0
LINE
  5
232
  8
MyLines
 10
27969.0
 20
0.0
 30
0.0
 11
27969.0
 21
73.0
 31
0.0
  0
LINE
  5
233
  8
MyLines
 10
28230.0
 20
48.0
 30
0.0
 11
28608.0
 21
48.0
 31
0.0
  0
LINE
  5
234
  8
MyLines
 10
28230.0
 20
0.0
 30
0.0
 11
28608.0
 21
0.0
 31
0.0
  0
LINE
  5
235
  8
MyLines
 10
28230.0
 20
0.0
 30
0.0
 11
28230.0
 21
48.0
 31
0.0
  0
LINE
  5
236
  8
MyLines
 10
28608.0
 20
0.0
 30
0.0
 11
28608.0
 21
48.0
 31
0.0
  0
TEXT
  5
237
  8
MyLines
 62
1
 10
28420.0
 20
1.0
 30
0.0
 40
1.0
  1
7560-B
 11
28420.0
 21
1.0
 31
0.0
  0
TEXT
  5
238
  8
MyLines
 62
1
 10
28231.0
 20
1.0
 30
0.0
 40
1.0
  1
7560-A
 11
28231.0
 21
1.0
 31
0.0
  0
LINE
  5
239
  8
MyLines
 10
28419.0
 20
0.0
 30
0.0
 11
28419.0
 21
48.0
 31
0.0
  0
LINE
  5
23A
  8
MyLines
 10
28610.0
 20
67.0
 30
0.0
 11
28978.0
 21
67.0
 31
0.0
  0
LINE
  5
23B
  8
MyLines
 10
28610.0
 20
0.0
 30
0.0
 11
28978.0
 21
0.0
 31
0.0
  0
LINE
  5
23C
  8
MyLines
 10
28610.0
 20
0.0
 30
0.0
 11
28610.0
 21
67.0
 31
0.0
  0
LINE
  5
23D
  8
MyLines
 10
28978.0
 20
0.0
 30
0.0
 11
28978.0
 21
67.0
 31
0.0
  0
TEXT
  5
23E
  8
MyLines
 62
1
 10
28795.0
 20
1.0
 30
0.0
 40
1.0
  1
7561-B
 11
28795.0
 21
1.0
 31
0.0
  0
TEXT
  5
23F
  8
MyLines
 62
1
 10
28611.0
 20
1.0
 30
0.0
 40
1.0
  1
7561-A
 11
28611.0
 21
1.0
 31
0.0
  0
LINE
  5
240
  8
MyLines
 10
28794.0
 20
0.0
 30
0.0
 11
28794.0
 21
67.0
 31
0.0
  0
LINE
  5
241
  8
MyLines
 10
28980.0
 20
62.0
 30
0.0
 11
29518.0
 21
62.0
 31
0.0
  0
LINE
  5
242
  8
MyLines
 10
28980.0
 20
0.0
 30
0.0
 11
29518.0
 21
0.0
 31
0.0
  0
LINE
  5
243
  8
MyLines
 10
28980.0
 20
0.0
 30
0.0
 11
28980.0
 21
62.0
 31
0.0
  0
LINE
  5
244
  8
MyLines
 10
29518.0
 20
0.0
 30
0.0
 11
29518.0
 21
62.0
 31
0.0
  0
TEXT
  5
245
  8
MyLines
 62
1
 10
29250.0
 20
1.0
 30
0.0
 40
1.0
  1
7562-B
 11
29250.0
 21
1.0
 31
0.0
  0
TEXT
  5
246
  8
MyLines
 62
1
 10
28981.0
 20
1.0
 30
0.0
 40
1.0
  1
7562-A
 11
28981.0
 21
1.0
 31
0.0
  0
LINE
  5
247
  8
MyLines
 10
29249.0
 20
0.0
 30
0.0
 11
29249.0
 21
62.0
 31
0.0
  0
LINE
  5
248
  8
MyLines
 10
29520.0
 20
50.0
 30
0.0
 11
29984.0
 21
50.0
 31
0.0
  0
LINE
  5
249
  8
MyLines
 10
29520.0
 20
0.0
 30
0.0
 11
29984.0
 21
0.0
 31
0.0
  0
LINE
  5
24A
  8
MyLines
 10
29520.0
 20
0.0
 30
0.0
 11
29520.0
 21
50.0
 31
0.0
  0
LINE
  5
24B
  8
MyLines
 10
29984.0
 20
0.0
 30
0.0
 11
29984.0
 21
50.0
 31
0.0
  0
TEXT
  5
24C
  8
MyLines
 62
1
 10
29753.0
 20
1.0
 30
0.0
 40
1.0
  1
7563-B
 11
29753.0
 21
1.0
 31
0.0
  0
TEXT
  5
24D
  8
MyLines
 62
1
 10
29521.0
 20
1.0
 30
0.0
 40
1.0
  1
7563-A
 11
29521.0
 21
1.0
 31
0.0
  0
LINE
  5
24E
  8
MyLines
 10
29752.0
 20
0.0
 30
0.0
 11
29752.0
 21
50.0
 31
0.0
  0
LINE
  5
24F
  8
MyLines
 10
29986.0
 20
53.0
 30
0.0
 11
30512.0
 21
53.0
 31
0.0
  0
LINE
  5
250
  8
MyLines
 10
29986.0
 20
0.0
 30
0.0
 11
30512.0
 21
0.0
 31
0.0
  0
LINE
  5
251
  8
MyLines
 10
29986.0
 20
0.0
 30
0.0
 11
29986.0
 21
53.0
 31
0.0
  0
LINE
  5
252
  8
MyLines
 10
30512.0
 20
0.0
 30
0.0
 11
30512.0
 21
53.0
 31
0.0
  0
TEXT
  5
253
  8
MyLines
 62
1
 10
30250.0
 20
1.0
 30
0.0
 40
1.0
  1
7564-B
 11
30250.0
 21
1.0
 31
0.0
  0
TEXT
  5
254
  8
MyLines
 62
1
 10
29987.0
 20
1.0
 30
0.0
 40
1.0
  1
7564-A
 11
29987.0
 21
1.0
 31
0.0
  0
LINE
  5
255
  8
MyLines
 10
30249.0
 20
0.0
 30
0.0
 11
30249.0
 21
53.0
 31
0.0
  0
LINE
  5
256
  8
MyLines
 10
30514.0
 20
65.0
 30
0.0
 11
30888.0
 21
65.0
 31
0.0
  0
LINE
  5
257
  8
MyLines
 10
30514.0
 20
0.0
 30
0.0
 11
30888.0
 21
0.0
 31
0.0
  0
LINE
  5
258
  8
MyLines
 10
30514.0
 20
0.0
 30
0.0
 11
30514.0
 21
65.0
 31
0.0
  0
LINE
  5
259
  8
MyLines
 10
30888.0
 20
0.0
 30
0.0
 11
30888.0
 21
65.0
 31
0.0
  0
TEXT
  5
25A
  8
MyLines
 62
1
 10
30702.0
 20
1.0
 30
0.0
 40
1.0
  1
7565-B
 11
30702.0
 21
1.0
 31
0.0
  0
TEXT
  5
25B
  8
MyLines
 62
1
 10
30515.0
 20
1.0
 30
0.0
 40
1.0
  1
7565-A
 11
30515.0
 21
1.0
 31
0.0
  0
LINE
  5
25C
  8
MyLines
 10
30701.0
 20
0.0
 30
0.0
 11
30701.0
 21
65.0
 31
0.0
  0
LINE
  5
25D
  8
MyLines
 10
30890.0
 20
66.5
 30
0.0
 11
31374.0
 21
66.5
 31
0.0
  0
LINE
  5
25E
  8
MyLines
 10
30890.0
 20
0.0
 30
0.0
 11
31374.0
 21
0.0
 31
0.0
  0
LINE
  5
25F
  8
MyLines
 10
30890.0
 20
0.0
 30
0.0
 11
30890.0
 21
66.5
 31
0.0
  0
LINE
  5
260
  8
MyLines
 10
31374.0
 20
0.0
 30
0.0
 11
31374.0
 21
66.5
 31
0.0
  0
TEXT
  5
261
  8
MyLines
 62
1
 10
31133.0
 20
1.0
 30
0.0
 40
1.0
  1
7566-B
 11
31133.0
 21
1.0
 31
0.0
  0
TEXT
  5
262
  8
MyLines
 62
1
 10
30891.0
 20
1.0
 30
0.0
 40
1.0
  1
7566-A
 11
30891.0
 21
1.0
 31
0.0
  0
LINE
  5
263
  8
MyLines
 10
31132.0
 20
0.0
 30
0.0
 11
31132.0
 21
66.5
 31
0.0
  0
LINE
  5
264
  8
MyLines
 10
31376.0
 20
38.5
 30
0.0
 11
31796.0
 21
38.5
 31
0.0
  0
LINE
  5
265
  8
MyLines
 10
31376.0
 20
0.0
 30
0.0
 11
31796.0
 21
0.0
 31
0.0
  0
LINE
  5
266
  8
MyLines
 10
31376.0
 20
0.0
 30
0.0
 11
31376.0
 21
38.5
 31
0.0
  0
LINE
  5
267
  8
MyLines
 10
31796.0
 20
0.0
 30
0.0
 11
31796.0
 21
38.5
 31
0.0
  0
TEXT
  5
268
  8
MyLines
 62
1
 10
31587.0
 20
1.0
 30
0.0
 40
1.0
  1
7567-B
 11
31587.0
 21
1.0
 31
0.0
  0
TEXT
  5
269
  8
MyLines
 62
1
 10
31377.0
 20
1.0
 30
0.0
 40
1.0
  1
7567-A
 11
31377.0
 21
1.0
 31
0.0
  0
LINE
  5
26A
  8
MyLines
 10
31586.0
 20
0.0
 30
0.0
 11
31586.0
 21
38.5
 31
0.0
  0
LINE
  5
26B
  8
MyLines
 10
31798.0
 20
64.0
 30
0.0
 11
32198.0
 21
64.0
 31
0.0
  0
LINE
  5
26C
  8
MyLines
 10
31798.0
 20
0.0
 30
0.0
 11
32198.0
 21
0.0
 31
0.0
  0
LINE
  5
26D
  8
MyLines
 10
31798.0
 20
0.0
 30
0.0
 11
31798.0
 21
64.0
 31
0.0
  0
LINE
  5
26E
  8
MyLines
 10
32198.0
 20
0.0
 30
0.0
 11
32198.0
 21
64.0
 31
0.0
  0
TEXT
  5
26F
  8
MyLines
 62
1
 10
31999.0
 20
1.0
 30
0.0
 40
1.0
  1
7568-B
 11
31999.0
 21
1.0
 31
0.0
  0
TEXT
  5
270
  8
MyLines
 62
1
 10
31799.0
 20
1.0
 30
0.0
 40
1.0
  1
7568-A
 11
31799.0
 21
1.0
 31
0.0
  0
LINE
  5
271
  8
MyLines
 10
31998.0
 20
0.0
 30
0.0
 11
31998.0
 21
64.0
 31
0.0
  0
LINE
  5
272
  8
MyLines
 10
32200.0
 20
45.5
 30
0.0
 11
32642.0
 21
45.5
 31
0.0
  0
LINE
  5
273
  8
MyLines
 10
32200.0
 20
0.0
 30
0.0
 11
32642.0
 21
0.0
 31
0.0
  0
LINE
  5
274
  8
MyLines
 10
32200.0
 20
0.0
 30
0.0
 11
32200.0
 21
45.5
 31
0.0
  0
LINE
  5
275
  8
MyLines
 10
32642.0
 20
0.0
 30
0.0
 11
32642.0
 21
45.5
 31
0.0
  0
TEXT
  5
276
  8
MyLines
 62
1
 10
32422.0
 20
1.0
 30
0.0
 40
1.0
  1
7569-B
 11
32422.0
 21
1.0
 31
0.0
  0
TEXT
  5
277
  8
MyLines
 62
1
 10
32201.0
 20
1.0
 30
0.0
 40
1.0
  1
7569-A
 11
32201.0
 21
1.0
 31
0.0
  0
LINE
  5
278
  8
MyLines
 10
32421.0
 20
0.0
 30
0.0
 11
32421.0
 21
45.5
 31
0.0
  0
LINE
  5
279
  8
MyLines
 10
32644.0
 20
89.0
 30
0.0
 11
33232.0
 21
89.0
 31
0.0
  0
LINE
  5
27A
  8
MyLines
 10
32644.0
 20
0.0
 30
0.0
 11
33232.0
 21
0.0
 31
0.0
  0
LINE
  5
27B
  8
MyLines
 10
32644.0
 20
0.0
 30
0.0
 11
32644.0
 21
89.0
 31
0.0
  0
LINE
  5
27C
  8
MyLines
 10
33232.0
 20
0.0
 30
0.0
 11
33232.0
 21
89.0
 31
0.0
  0
TEXT
  5
27D
  8
MyLines
 62
1
 10
32939.0
 20
1.0
 30
0.0
 40
1.0
  1
7570-B
 11
32939.0
 21
1.0
 31
0.0
  0
TEXT
  5
27E
  8
MyLines
 62
1
 10
32645.0
 20
1.0
 30
0.0
 40
1.0
  1
7570-A
 11
32645.0
 21
1.0
 31
0.0
  0
LINE
  5
27F
  8
MyLines
 10
32938.0
 20
0.0
 30
0.0
 11
32938.0
 21
89.0
 31
0.0
  0
LINE
  5
280
  8
MyLines
 10
33234.0
 20
75.0
 30
0.0
 11
33786.0
 21
75.0
 31
0.0
  0
LINE
  5
281
  8
MyLines
 10
33234.0
 20
0.0
 30
0.0
 11
33786.0
 21
0.0
 31
0.0
  0
LINE
  5
282
  8
MyLines
 10
33234.0
 20
0.0
 30
0.0
 11
33234.0
 21
75.0
 31
0.0
  0
LINE
  5
283
  8
MyLines
 10
33786.0
 20
0.0
 30
0.0
 11
33786.0
 21
75.0
 31
0.0
  0
TEXT
  5
284
  8
MyLines
 62
1
 10
33511.0
 20
1.0
 30
0.0
 40
1.0
  1
7571-B
 11
33511.0
 21
1.0
 31
0.0
  0
TEXT
  5
285
  8
MyLines
 62
1
 10
33235.0
 20
1.0
 30
0.0
 40
1.0
  1
7571-A
 11
33235.0
 21
1.0
 31
0.0
  0
LINE
  5
286
  8
MyLines
 10
33510.0
 20
0.0
 30
0.0
 11
33510.0
 21
75.0
 31
0.0
  0
LINE
  5
287
  8
MyLines
 10
33788.0
 20
74.5
 30
0.0
 11
34320.0
 21
74.5
 31
0.0
  0
LINE
  5
288
  8
MyLines
 10
33788.0
 20
0.0
 30
0.0
 11
34320.0
 21
0.0
 31
0.0
  0
LINE
  5
289
  8
MyLines
 10
33788.0
 20
0.0
 30
0.0
 11
33788.0
 21
74.5
 31
0.0
  0
LINE
  5
28A
  8
MyLines
 10
34320.0
 20
0.0
 30
0.0
 11
34320.0
 21
74.5
 31
0.0
  0
TEXT
  5
28B
  8
MyLines
 62
1
 10
34055.0
 20
1.0
 30
0.0
 40
1.0
  1
7572-B
 11
34055.0
 21
1.0
 31
0.0
  0
TEXT
  5
28C
  8
MyLines
 62
1
 10
33789.0
 20
1.0
 30
0.0
 40
1.0
  1
7572-A
 11
33789.0
 21
1.0
 31
0.0
  0
LINE
  5
28D
  8
MyLines
 10
34054.0
 20
0.0
 30
0.0
 11
34054.0
 21
74.5
 31
0.0
  0
LINE
  5
28E
  8
MyLines
 10
34322.0
 20
80.0
 30
0.0
 11
34776.0
 21
80.0
 31
0.0
  0
LINE
  5
28F
  8
MyLines
 10
34322.0
 20
0.0
 30
0.0
 11
34776.0
 21
0.0
 31
0.0
  0
LINE
  5
290
  8
MyLines
 10
34322.0
 20
0.0
 30
0.0
 11
34322.0
 21
80.0
 31
0.0
  0
LINE
  5
291
  8
MyLines
 10
34776.0
 20
0.0
 30
0.0
 11
34776.0
 21
80.0
 31
0.0
  0
TEXT
  5
292
  8
MyLines
 62
1
 10
34550.0
 20
1.0
 30
0.0
 40
1.0
  1
7573-B
 11
34550.0
 21
1.0
 31
0.0
  0
TEXT
  5
293
  8
MyLines
 62
1
 10
34323.0
 20
1.0
 30
0.0
 40
1.0
  1
7573-A
 11
34323.0
 21
1.0
 31
0.0
  0
LINE
  5
294
  8
MyLines
 10
34549.0
 20
0.0
 30
0.0
 11
34549.0
 21
80.0
 31
0.0
  0
LINE
  5
295
  8
MyLines
 10
34778.0
 20
72.5
 30
0.0
 11
35314.0
 21
72.5
 31
0.0
  0
LINE
  5
296
  8
MyLines
 10
34778.0
 20
0.0
 30
0.0
 11
35314.0
 21
0.0
 31
0.0
  0
LINE
  5
297
  8
MyLines
 10
34778.0
 20
0.0
 30
0.0
 11
34778.0
 21
72.5
 31
0.0
  0
LINE
  5
298
  8
MyLines
 10
35314.0
 20
0.0
 30
0.0
 11
35314.0
 21
72.5
 31
0.0
  0
TEXT
  5
299
  8
MyLines
 62
1
 10
35047.0
 20
1.0
 30
0.0
 40
1.0
  1
7574-B
 11
35047.0
 21
1.0
 31
0.0
  0
TEXT
  5
29A
  8
MyLines
 62
1
 10
34779.0
 20
1.0
 30
0.0
 40
1.0
  1
7574-A
 11
34779.0
 21
1.0
 31
0.0
  0
LINE
  5
29B
  8
MyLines
 10
35046.0
 20
0.0
 30
0.0
 11
35046.0
 21
72.5
 31
0.0
  0
LINE
  5
29C
  8
MyLines
 10
35316.0
 20
65.0
 30
0.0
 11
35784.0
 21
65.0
 31
0.0
  0
LINE
  5
29D
  8
MyLines
 10
35316.0
 20
0.0
 30
0.0
 11
35784.0
 21
0.0
 31
0.0
  0
LINE
  5
29E
  8
MyLines
 10
35316.0
 20
0.0
 30
0.0
 11
35316.0
 21
65.0
 31
0.0
  0
LINE
  5
29F
  8
MyLines
 10
35784.0
 20
0.0
 30
0.0
 11
35784.0
 21
65.0
 31
0.0
  0
TEXT
  5
2A0
  8
MyLines
 62
1
 10
35551.0
 20
1.0
 30
0.0
 40
1.0
  1
7575-B
 11
35551.0
 21
1.0
 31
0.0
  0
TEXT
  5
2A1
  8
MyLines
 62
1
 10
35317.0
 20
1.0
 30
0.0
 40
1.0
  1
7575-A
 11
35317.0
 21
1.0
 31
0.0
  0
LINE
  5
2A2
  8
MyLines
 10
35550.0
 20
0.0
 30
0.0
 11
35550.0
 21
65.0
 31
0.0
  0
LINE
  5
2A3
  8
MyLines
 10
35786.0
 20
72.0
 30
0.0
 11
36370.0
 21
72.0
 31
0.0
  0
LINE
  5
2A4
  8
MyLines
 10
35786.0
 20
0.0
 30
0.0
 11
36370.0
 21
0.0
 31
0.0
  0
LINE
  5
2A5
  8
MyLines
 10
35786.0
 20
0.0
 30
0.0
 11
35786.0
 21
72.0
 31
0.0
  0
LINE
  5
2A6
  8
MyLines
 10
36370.0
 20
0.0
 30
0.0
 11
36370.0
 21
72.0
 31
0.0
  0
TEXT
  5
2A7
  8
MyLines
 62
1
 10
36079.0
 20
1.0
 30
0.0
 40
1.0
  1
7576-B
 11
36079.0
 21
1.0
 31
0.0
  0
TEXT
  5
2A8
  8
MyLines
 62
1
 10
35787.0
 20
1.0
 30
0.0
 40
1.0
  1
7576-A
 11
35787.0
 21
1.0
 31
0.0
  0
LINE
  5
2A9
  8
MyLines
 10
36078.0
 20
0.0
 30
0.0
 11
36078.0
 21
72.0
 31
0.0
  0
LINE
  5
2AA
  8
MyLines
 10
36372.0
 20
76.0
 30
0.0
 11
36794.0
 21
76.0
 31
0.0
  0
LINE
  5
2AB
  8
MyLines
 10
36372.0
 20
0.0
 30
0.0
 11
36794.0
 21
0.0
 31
0.0
  0
LINE
  5
2AC
  8
MyLines
 10
36372.0
 20
0.0
 30
0.0
 11
36372.0
 21
76.0
 31
0.0
  0
LINE
  5
2AD
  8
MyLines
 10
36794.0
 20
0.0
 30
0.0
 11
36794.0
 21
76.0
 31
0.0
  0
TEXT
  5
2AE
  8
MyLines
 62
1
 10
36584.0
 20
1.0
 30
0.0
 40
1.0
  1
7577-B
 11
36584.0
 21
1.0
 31
0.0
  0
TEXT
  5
2AF
  8
MyLines
 62
1
 10
36373.0
 20
1.0
 30
0.0
 40
1.0
  1
7577-A
 11
36373.0
 21
1.0
 31
0.0
  0
LINE
  5
2B0
  8
MyLines
 10
36583.0
 20
0.0
 30
0.0
 11
36583.0
 21
76.0
 31
0.0
  0
LINE
  5
2B1
  8
MyLines
 10
36796.0
 20
69.0
 30
0.0
 11
37338.0
 21
69.0
 31
0.0
  0
LINE
  5
2B2
  8
MyLines
 10
36796.0
 20
0.0
 30
0.0
 11
37338.0
 21
0.0
 31
0.0
  0
LINE
  5
2B3
  8
MyLines
 10
36796.0
 20
0.0
 30
0.0
 11
36796.0
 21
69.0
 31
0.0
  0
LINE
  5
2B4
  8
MyLines
 10
37338.0
 20
0.0
 30
0.0
 11
37338.0
 21
69.0
 31
0.0
  0
TEXT
  5
2B5
  8
MyLines
 62
1
 10
37068.0
 20
1.0
 30
0.0
 40
1.0
  1
7578-B
 11
37068.0
 21
1.0
 31
0.0
  0
TEXT
  5
2B6
  8
MyLines
 62
1
 10
36797.0
 20
1.0
 30
0.0
 40
1.0
  1
7578-A
 11
36797.0
 21
1.0
 31
0.0
  0
LINE
  5
2B7
  8
MyLines
 10
37067.0
 20
0.0
 30
0.0
 11
37067.0
 21
69.0
 31
0.0
  0
LINE
  5
2B8
  8
MyLines
 10
37340.0
 20
58.5
 30
0.0
 11
37738.0
 21
58.5
 31
0.0
  0
LINE
  5
2B9
  8
MyLines
 10
37340.0
 20
0.0
 30
0.0
 11
37738.0
 21
0.0
 31
0.0
  0
LINE
  5
2BA
  8
MyLines
 10
37340.0
 20
0.0
 30
0.0
 11
37340.0
 21
58.5
 31
0.0
  0
LINE
  5
2BB
  8
MyLines
 10
37738.0
 20
0.0
 30
0.0
 11
37738.0
 21
58.5
 31
0.0
  0
TEXT
  5
2BC
  8
MyLines
 62
1
 10
37540.0
 20
1.0
 30
0.0
 40
1.0
  1
7579-B
 11
37540.0
 21
1.0
 31
0.0
  0
TEXT
  5
2BD
  8
MyLines
 62
1
 10
37341.0
 20
1.0
 30
0.0
 40
1.0
  1
7579-A
 11
37341.0
 21
1.0
 31
0.0
  0
LINE
  5
2BE
  8
MyLines
 10
37539.0
 20
0.0
 30
0.0
 11
37539.0
 21
58.5
 31
0.0
  0
LINE
  5
2BF
  8
MyLines
 10
37740.0
 20
68.0
 30
0.0
 11
38166.0
 21
68.0
 31
0.0
  0
LINE
  5
2C0
  8
MyLines
 10
37740.0
 20
0.0
 30
0.0
 11
38166.0
 21
0.0
 31
0.0
  0
LINE
  5
2C1
  8
MyLines
 10
37740.0
 20
0.0
 30
0.0
 11
37740.0
 21
68.0
 31
0.0
  0
LINE
  5
2C2
  8
MyLines
 10
38166.0
 20
0.0
 30
0.0
 11
38166.0
 21
68.0
 31
0.0
  0
TEXT
  5
2C3
  8
MyLines
 62
1
 10
37954.0
 20
1.0
 30
0.0
 40
1.0
  1
7580-B
 11
37954.0
 21
1.0
 31
0.0
  0
TEXT
  5
2C4
  8
MyLines
 62
1
 10
37741.0
 20
1.0
 30
0.0
 40
1.0
  1
7580-A
 11
37741.0
 21
1.0
 31
0.0
  0
LINE
  5
2C5
  8
MyLines
 10
37953.0
 20
0.0
 30
0.0
 11
37953.0
 21
68.0
 31
0.0
  0
LINE
  5
2C6
  8
MyLines
 10
38168.0
 20
74.0
 30
0.0
 11
38640.0
 21
74.0
 31
0.0
  0
LINE
  5
2C7
  8
MyLines
 10
38168.0
 20
0.0
 30
0.0
 11
38640.0
 21
0.0
 31
0.0
  0
LINE
  5
2C8
  8
MyLines
 10
38168.0
 20
0.0
 30
0.0
 11
38168.0
 21
74.0
 31
0.0
  0
LINE
  5
2C9
  8
MyLines
 10
38640.0
 20
0.0
 30
0.0
 11
38640.0
 21
74.0
 31
0.0
  0
TEXT
  5
2CA
  8
MyLines
 62
1
 10
38405.0
 20
1.0
 30
0.0
 40
1.0
  1
7581-B
 11
38405.0
 21
1.0
 31
0.0
  0
TEXT
  5
2CB
  8
MyLines
 62
1
 10
38169.0
 20
1.0
 30
0.0
 40
1.0
  1
7581-A
 11
38169.0
 21
1.0
 31
0.0
  0
LINE
  5
2CC
  8
MyLines
 10
38404.0
 20
0.0
 30
0.0
 11
38404.0
 21
74.0
 31
0.0
  0
LINE
  5
2CD
  8
MyLines
 10
38642.0
 20
85.0
 30
0.0
 11
39006.0
 21
85.0
 31
0.0
  0
LINE
  5
2CE
  8
MyLines
 10
38642.0
 20
0.0
 30
0.0
 11
39006.0
 21
0.0
 31
0.0
  0
LINE
  5
2CF
  8
MyLines
 10
38642.0
 20
0.0
 30
0.0
 11
38642.0
 21
85.0
 31
0.0
  0
LINE
  5
2D0
  8
MyLines
 10
39006.0
 20
0.0
 30
0.0
 11
39006.0
 21
85.0
 31
0.0
  0
TEXT
  5
2D1
  8
MyLines
 62
1
 10
38825.0
 20
1.0
 30
0.0
 40
1.0
  1
7582-B
 11
38825.0
 21
1.0
 31
0.0
  0
TEXT
  5
2D2
  8
MyLines
 62
1
 10
38643.0
 20
1.0
 30
0.0
 40
1.0
  1
7582-A
 11
38643.0
 21
1.0
 31
0.0
  0
LINE
  5
2D3
  8
MyLines
 10
38824.0
 20
0.0
 30
0.0
 11
38824.0
 21
85.0
 31
0.0
  0
LINE
  5
2D4
  8
MyLines
 10
39008.0
 20
66.5
 30
0.0
 11
39566.0
 21
66.5
 31
0.0
  0
LINE
  5
2D5
  8
MyLines
 10
39008.0
 20
0.0
 30
0.0
 11
39566.0
 21
0.0
 31
0.0
  0
LINE
  5
2D6
  8
MyLines
 10
39008.0
 20
0.0
 30
0.0
 11
39008.0
 21
66.5
 31
0.0
  0
LINE
  5
2D7
  8
MyLines
 10
39566.0
 20
0.0
 30
0.0
 11
39566.0
 21
66.5
 31
0.0
  0
TEXT
  5
2D8
  8
MyLines
 62
1
 10
39288.0
 20
1.0
 30
0.0
 40
1.0
  1
7583-B
 11
39288.0
 21
1.0
 31
0.0
  0
TEXT
  5
2D9
  8
MyLines
 62
1
 10
39009.0
 20
1.0
 30
0.0
 40
1.0
  1
7583-A
 11
39009.0
 21
1.0
 31
0.0
  0
LINE
  5
2DA
  8
MyLines
 10
39287.0
 20
0.0
 30
0.0
 11
39287.0
 21
66.5
 31
0.0
  0
LINE
  5
2DB
  8
MyLines
 10
39568.0
 20
66.5
 30
0.0
 11
40130.0
 21
66.5
 31
0.0
  0
LINE
  5
2DC
  8
MyLines
 10
39568.0
 20
0.0
 30
0.0
 11
40130.0
 21
0.0
 31
0.0
  0
LINE
  5
2DD
  8
MyLines
 10
39568.0
 20
0.0
 30
0.0
 11
39568.0
 21
66.5
 31
0.0
  0
LINE
  5
2DE
  8
MyLines
 10
40130.0
 20
0.0
 30
0.0
 11
40130.0
 21
66.5
 31
0.0
  0
TEXT
  5
2DF
  8
MyLines
 62
1
 10
39850.0
 20
1.0
 30
0.0
 40
1.0
  1
7584-B
 11
39850.0
 21
1.0
 31
0.0
  0
TEXT
  5
2E0
  8
MyLines
 62
1
 10
39569.0
 20
1.0
 30
0.0
 40
1.0
  1
7584-A
 11
39569.0
 21
1.0
 31
0.0
  0
LINE
  5
2E1
  8
MyLines
 10
39849.0
 20
0.0
 30
0.0
 11
39849.0
 21
66.5
 31
0.0
  0
LINE
  5
2E2
  8
MyLines
 10
40132.0
 20
86.5
 30
0.0
 11
40500.0
 21
86.5
 31
0.0
  0
LINE
  5
2E3
  8
MyLines
 10
40132.0
 20
0.0
 30
0.0
 11
40500.0
 21
0.0
 31
0.0
  0
LINE
  5
2E4
  8
MyLines
 10
40132.0
 20
0.0
 30
0.0
 11
40132.0
 21
86.5
 31
0.0
  0
LINE
  5
2E5
  8
MyLines
 10
40500.0
 20
0.0
 30
0.0
 11
40500.0
 21
86.5
 31
0.0
  0
TEXT
  5
2E6
  8
MyLines
 62
1
 10
40317.0
 20
1.0
 30
0.0
 40
1.0
  1
7585-B
 11
40317.0
 21
1.0
 31
0.0
  0
TEXT
  5
2E7
  8
MyLines
 62
1
 10
40133.0
 20
1.0
 30
0.0
 40
1.0
  1
7585-A
 11
40133.0
 21
1.0
 31
0.0
  0
LINE
  5
2E8
  8
MyLines
 10
40316.0
 20
0.0
 30
0.0
 11
40316.0
 21
86.5
 31
0.0
  0
LINE
  5
2E9
  8
MyLines
 10
40502.0
 20
69.0
 30
0.0
 11
40994.0
 21
69.0
 31
0.0
  0
LINE
  5
2EA
  8
MyLines
 10
40502.0
 20
0.0
 30
0.0
 11
40994.0
 21
0.0
 31
0.0
  0
LINE
  5
2EB
  8
MyLines
 10
40502.0
 20
0.0
 30
0.0
 11
40502.0
 21
69.0
 31
0.0
  0
LINE
  5
2EC
  8
MyLines
 10
40994.0
 20
0.0
 30
0.0
 11
40994.0
 21
69.0
 31
0.0
  0
TEXT
  5
2ED
  8
MyLines
 62
1
 10
40749.0
 20
1.0
 30
0.0
 40
1.0
  1
7586-B
 11
40749.0
 21
1.0
 31
0.0
  0
TEXT
  5
2EE
  8
MyLines
 62
1
 10
40503.0
 20
1.0
 30
0.0
 40
1.0
  1
7586-A
 11
40503.0
 21
1.0
 31
0.0
  0
LINE
  5
2EF
  8
MyLines
 10
40748.0
 20
0.0
 30
0.0
 11
40748.0
 21
69.0
 31
0.0
  0
LINE
  5
2F0
  8
MyLines
 10
40996.0
 20
56.0
 30
0.0
 11
41492.0
 21
56.0
 31
0.0
  0
LINE
  5
2F1
  8
MyLines
 10
40996.0
 20
0.0
 30
0.0
 11
41492.0
 21
0.0
 31
0.0
  0
LINE
  5
2F2
  8
MyLines
 10
40996.0
 20
0.0
 30
0.0
 11
40996.0
 21
56.0
 31
0.0
  0
LINE
  5
2F3
  8
MyLines
 10
41492.0
 20
0.0
 30
0.0
 11
41492.0
 21
56.0
 31
0.0
  0
TEXT
  5
2F4
  8
MyLines
 62
1
 10
41245.0
 20
1.0
 30
0.0
 40
1.0
  1
7587-B
 11
41245.0
 21
1.0
 31
0.0
  0
TEXT
  5
2F5
  8
MyLines
 62
1
 10
40997.0
 20
1.0
 30
0.0
 40
1.0
  1
7587-A
 11
40997.0
 21
1.0
 31
0.0
  0
LINE
  5
2F6
  8
MyLines
 10
41244.0
 20
0.0
 30
0.0
 11
41244.0
 21
56.0
 31
0.0
  0
LINE
  5
2F7
  8
MyLines
 10
41494.0
 20
70.5
 30
0.0
 11
41922.0
 21
70.5
 31
0.0
  0
LINE
  5
2F8
  8
MyLines
 10
41494.0
 20
0.0
 30
0.0
 11
41922.0
 21
0.0
 31
0.0
  0
LINE
  5
2F9
  8
MyLines
 10
41494.0
 20
0.0
 30
0.0
 11
41494.0
 21
70.5
 31
0.0
  0
LINE
  5
2FA
  8
MyLines
 10
41922.0
 20
0.0
 30
0.0
 11
41922.0
 21
70.5
 31
0.0
  0
TEXT
  5
2FB
  8
MyLines
 62
1
 10
41709.0
 20
1.0
 30
0.0
 40
1.0
  1
7588-B
 11
41709.0
 21
1.0
 31
0.0
  0
TEXT
  5
2FC
  8
MyLines
 62
1
 10
41495.0
 20
1.0
 30
0.0
 40
1.0
  1
7588-A
 11
41495.0
 21
1.0
 31
0.0
  0
LINE
  5
2FD
  8
MyLines
 10
41708.0
 20
0.0
 30
0.0
 11
41708.0
 21
70.5
 31
0.0
  0
LINE
  5
2FE
  8
MyLines
 10
41924.0
 20
62.0
 30
0.0
 11
42346.0
 21
62.0
 31
0.0
  0
LINE
  5
2FF
  8
MyLines
 10
41924.0
 20
0.0
 30
0.0
 11
42346.0
 21
0.0
 31
0.0
  0
LINE
  5
300
  8
MyLines
 10
41924.0
 20
0.0
 30
0.0
 11
41924.0
 21
62.0
 31
0.0
  0
LINE
  5
301
  8
MyLines
 10
42346.0
 20
0.0
 30
0.0
 11
42346.0
 21
62.0
 31
0.0
  0
TEXT
  5
302
  8
MyLines
 62
1
 10
42136.0
 20
1.0
 30
0.0
 40
1.0
  1
7589-B
 11
42136.0
 21
1.0
 31
0.0
  0
TEXT
  5
303
  8
MyLines
 62
1
 10
41925.0
 20
1.0
 30
0.0
 40
1.0
  1
7589-A
 11
41925.0
 21
1.0
 31
0.0
  0
LINE
  5
304
  8
MyLines
 10
42135.0
 20
0.0
 30
0.0
 11
42135.0
 21
62.0
 31
0.0
  0
LINE
  5
305
  8
MyLines
 10
42348.0
 20
56.0
 30
0.0
 11
42938.0
 21
56.0
 31
0.0
  0
LINE
  5
306
  8
MyLines
 10
42348.0
 20
0.0
 30
0.0
 11
42938.0
 21
0.0
 31
0.0
  0
LINE
  5
307
  8
MyLines
 10
42348.0
 20
0.0
 30
0.0
 11
42348.0
 21
56.0
 31
0.0
  0
LINE
  5
308
  8
MyLines
 10
42938.0
 20
0.0
 30
0.0
 11
42938.0
 21
56.0
 31
0.0
  0
TEXT
  5
309
  8
MyLines
 62
1
 10
42644.0
 20
1.0
 30
0.0
 40
1.0
  1
7590-B
 11
42644.0
 21
1.0
 31
0.0
  0
TEXT
  5
30A
  8
MyLines
 62
1
 10
42349.0
 20
1.0
 30
0.0
 40
1.0
  1
7590-A
 11
42349.0
 21
1.0
 31
0.0
  0
LINE
  5
30B
  8
MyLines
 10
42643.0
 20
0.0
 30
0.0
 11
42643.0
 21
56.0
 31
0.0
  0
LINE
  5
30C
  8
MyLines
 10
42940.0
 20
86.5
 30
0.0
 11
43534.0
 21
86.5
 31
0.0
  0
LINE
  5
30D
  8
MyLines
 10
42940.0
 20
0.0
 30
0.0
 11
43534.0
 21
0.0
 31
0.0
  0
LINE
  5
30E
  8
MyLines
 10
42940.0
 20
0.0
 30
0.0
 11
42940.0
 21
86.5
 31
0.0
  0
LINE
  5
30F
  8
MyLines
 10
43534.0
 20
0.0
 30
0.0
 11
43534.0
 21
86.5
 31
0.0
  0
TEXT
  5
310
  8
MyLines
 62
1
 10
43238.0
 20
1.0
 30
0.0
 40
1.0
  1
7591-B
 11
43238.0
 21
1.0
 31
0.0
  0
TEXT
  5
311
  8
MyLines
 62
1
 10
42941.0
 20
1.0
 30
0.0
 40
1.0
  1
7591-A
 11
42941.0
 21
1.0
 31
0.0
  0
LINE
  5
312
  8
MyLines
 10
43237.0
 20
0.0
 30
0.0
 11
43237.0
 21
86.5
 31
0.0
  0
LINE
  5
313
  8
MyLines
 10
43536.0
 20
43.5
 30
0.0
 11
43886.0
 21
43.5
 31
0.0
  0
LINE
  5
314
  8
MyLines
 10
43536.0
 20
0.0
 30
0.0
 11
43886.0
 21
0.0
 31
0.0
  0
LINE
  5
315
  8
MyLines
 10
43536.0
 20
0.0
 30
0.0
 11
43536.0
 21
43.5
 31
0.0
  0
LINE
  5
316
  8
MyLines
 10
43886.0
 20
0.0
 30
0.0
 11
43886.0
 21
43.5
 31
0.0
  0
TEXT
  5
317
  8
MyLines
 62
1
 10
43712.0
 20
1.0
 30
0.0
 40
1.0
  1
7592-B
 11
43712.0
 21
1.0
 31
0.0
  0
TEXT
  5
318
  8
MyLines
 62
1
 10
43537.0
 20
1.0
 30
0.0
 40
1.0
  1
7592-A
 11
43537.0
 21
1.0
 31
0.0
  0
LINE
  5
319
  8
MyLines
 10
43711.0
 20
0.0
 30
0.0
 11
43711.0
 21
43.5
 31
0.0
  0
LINE
  5
31A
  8
MyLines
 10
43888.0
 20
47.0
 30
0.0
 11
44420.0
 21
47.0
 31
0.0
  0
LINE
  5
31B
  8
MyLines
 10
43888.0
 20
0.0
 30
0.0
 11
44420.0
 21
0.0
 31
0.0
  0
LINE
  5
31C
  8
MyLines
 10
43888.0
 20
0.0
 30
0.0
 11
43888.0
 21
47.0
 31
0.0
  0
LINE
  5
31D
  8
MyLines
 10
44420.0
 20
0.0
 30
0.0
 11
44420.0
 21
47.0
 31
0.0
  0
TEXT
  5
31E
  8
MyLines
 62
1
 10
44155.0
 20
1.0
 30
0.0
 40
1.0
  1
7593-B
 11
44155.0
 21
1.0
 31
0.0
  0
TEXT
  5
31F
  8
MyLines
 62
1
 10
43889.0
 20
1.0
 30
0.0
 40
1.0
  1
7593-A
 11
43889.0
 21
1.0
 31
0.0
  0
LINE
  5
320
  8
MyLines
 10
44154.0
 20
0.0
 30
0.0
 11
44154.0
 21
47.0
 31
0.0
  0
LINE
  5
321
  8
MyLines
 10
44422.0
 20
70.0
 30
0.0
 11
44870.0
 21
70.0
 31
0.0
  0
LINE
  5
322
  8
MyLines
 10
44422.0
 20
0.0
 30
0.0
 11
44870.0
 21
0.0
 31
0.0
  0
LINE
  5
323
  8
MyLines
 10
44422.0
 20
0.0
 30
0.0
 11
44422.0
 21
70.0
 31
0.0
  0
LINE
  5
324
  8
MyLines
 10
44870.0
 20
0.0
 30
0.0
 11
44870.0
 21
70.0
 31
0.0
  0
TEXT
  5
325
  8
MyLines
 62
1
 10
44647.0
 20
1.0
 30
0.0
 40
1.0
  1
7594-B
 11
44647.0
 21
1.0
 31
0.0
  0
TEXT
  5
326
  8
MyLines
 62
1
 10
44423.0
 20
1.0
 30
0.0
 40
1.0
  1
7594-A
 11
44423.0
 21
1.0
 31
0.0
  0
LINE
  5
327
  8
MyLines
 10
44646.0
 20
0.0
 30
0.0
 11
44646.0
 21
70.0
 31
0.0
  0
LINE
  5
328
  8
MyLines
 10
44872.0
 20
49.0
 30
0.0
 11
45382.0
 21
49.0
 31
0.0
  0
LINE
  5
329
  8
MyLines
 10
44872.0
 20
0.0
 30
0.0
 11
45382.0
 21
0.0
 31
0.0
  0
LINE
  5
32A
  8
MyLines
 10
44872.0
 20
0.0
 30
0.0
 11
44872.0
 21
49.0
 31
0.0
  0
LINE
  5
32B
  8
MyLines
 10
45382.0
 20
0.0
 30
0.0
 11
45382.0
 21
49.0
 31
0.0
  0
TEXT
  5
32C
  8
MyLines
 62
1
 10
45128.0
 20
1.0
 30
0.0
 40
1.0
  1
7595-B
 11
45128.0
 21
1.0
 31
0.0
  0
TEXT
  5
32D
  8
MyLines
 62
1
 10
44873.0
 20
1.0
 30
0.0
 40
1.0
  1
7595-A
 11
44873.0
 21
1.0
 31
0.0
  0
LINE
  5
32E
  8
MyLines
 10
45127.0
 20
0.0
 30
0.0
 11
45127.0
 21
49.0
 31
0.0
  0
LINE
  5
32F
  8
MyLines
 10
45384.0
 20
58.5
 30
0.0
 11
45750.0
 21
58.5
 31
0.0
  0
LINE
  5
330
  8
MyLines
 10
45384.0
 20
0.0
 30
0.0
 11
45750.0
 21
0.0
 31
0.0
  0
LINE
  5
331
  8
MyLines
 10
45384.0
 20
0.0
 30
0.0
 11
45384.0
 21
58.5
 31
0.0
  0
LINE
  5
332
  8
MyLines
 10
45750.0
 20
0.0
 30
0.0
 11
45750.0
 21
58.5
 31
0.0
  0
TEXT
  5
333
  8
MyLines
 62
1
 10
45568.0
 20
1.0
 30
0.0
 40
1.0
  1
7596-B
 11
45568.0
 21
1.0
 31
0.0
  0
TEXT
  5
334
  8
MyLines
 62
1
 10
45385.0
 20
1.0
 30
0.0
 40
1.0
  1
7596-A
 11
45385.0
 21
1.0
 31
0.0
  0
LINE
  5
335
  8
MyLines
 10
45567.0
 20
0.0
 30
0.0
 11
45567.0
 21
58.5
 31
0.0
  0
LINE
  5
336
  8
MyLines
 10
45752.0
 20
72.5
 30
0.0
 11
46346.0
 21
72.5
 31
0.0
  0
LINE
  5
337
  8
MyLines
 10
45752.0
 20
0.0
 30
0.0
 11
46346.0
 21
0.0
 31
0.0
  0
LINE
  5
338
  8
MyLines
 10
45752.0
 20
0.0
 30
0.0
 11
45752.0
 21
72.5
 31
0.0
  0
LINE
  5
339
  8
MyLines
 10
46346.0
 20
0.0
 30
0.0
 11
46346.0
 21
72.5
 31
0.0
  0
TEXT
  5
33A
  8
MyLines
 62
1
 10
46050.0
 20
1.0
 30
0.0
 40
1.0
  1
7597-B
 11
46050.0
 21
1.0
 31
0.0
  0
TEXT
  5
33B
  8
MyLines
 62
1
 10
45753.0
 20
1.0
 30
0.0
 40
1.0
  1
7597-A
 11
45753.0
 21
1.0
 31
0.0
  0
LINE
  5
33C
  8
MyLines
 10
46049.0
 20
0.0
 30
0.0
 11
46049.0
 21
72.5
 31
0.0
  0
LINE
  5
33D
  8
MyLines
 10
46348.0
 20
72.0
 30
0.0
 11
46756.0
 21
72.0
 31
0.0
  0
LINE
  5
33E
  8
MyLines
 10
46348.0
 20
0.0
 30
0.0
 11
46756.0
 21
0.0
 31
0.0
  0
LINE
  5
33F
  8
MyLines
 10
46348.0
 20
0.0
 30
0.0
 11
46348.0
 21
72.0
 31
0.0
  0
LINE
  5
340
  8
MyLines
 10
46756.0
 20
0.0
 30
0.0
 11
46756.0
 21
72.0
 31
0.0
  0
TEXT
  5
341
  8
MyLines
 62
1
 10
46553.0
 20
1.0
 30
0.0
 40
1.0
  1
7598-B
 11
46553.0
 21
1.0
 31
0.0
  0
TEXT
  5
342
  8
MyLines
 62
1
 10
46349.0
 20
1.0
 30
0.0
 40
1.0
  1
7598-A
 11
46349.0
 21
1.0
 31
0.0
  0
LINE
  5
343
  8
MyLines
 10
46552.0
 20
0.0
 30
0.0
 11
46552.0
 21
72.0
 31
0.0
  0
LINE
  5
344
  8
MyLines
 10
46758.0
 20
37.0
 30
0.0
 11
47248.0
 21
37.0
 31
0.0
  0
LINE
  5
345
  8
MyLines
 10
46758.0
 20
0.0
 30
0.0
 11
47248.0
 21
0.0
 31
0.0
  0
LINE
  5
346
  8
MyLines
 10
46758.0
 20
0.0
 30
0.0
 11
46758.0
 21
37.0
 31
0.0
  0
LINE
  5
347
  8
MyLines
 10
47248.0
 20
0.0
 30
0.0
 11
47248.0
 21
37.0
 31
0.0
  0
TEXT
  5
348
  8
MyLines
 62
1
 10
47004.0
 20
1.0
 30
0.0
 40
1.0
  1
7599-B
 11
47004.0
 21
1.0
 31
0.0
  0
TEXT
  5
349
  8
MyLines
 62
1
 10
46759.0
 20
1.0
 30
0.0
 40
1.0
  1
7599-A
 11
46759.0
 21
1.0
 31
0.0
  0
LINE
  5
34A
  8
MyLines
 10
47003.0
 20
0.0
 30
0.0
 11
47003.0
 21
37.0
 31
0.0
  0
LINE
  5
34B
  8
MyLines
 10
47250.0
 20
86.5
 30
0.0
 11
47742.0
 21
86.5
 31
0.0
  0
LINE
  5
34C
  8
MyLines
 10
47250.0
 20
0.0
 30
0.0
 11
47742.0
 21
0.0
 31
0.0
  0
LINE
  5
34D
  8
MyLines
 10
47250.0
 20
0.0
 30
0.0
 11
47250.0
 21
86.5
 31
0.0
  0
LINE
  5
34E
  8
MyLines
 10
47742.0
 20
0.0
 30
0.0
 11
47742.0
 21
86.5
 31
0.0
  0
TEXT
  5
34F
  8
MyLines
 62
1
 10
47497.0
 20
1.0
 30
0.0
 40
1.0
  1
7600-B
 11
47497.0
 21
1.0
 31
0.0
  0
TEXT
  5
350
  8
MyLines
 62
1
 10
47251.0
 20
1.0
 30
0.0
 40
1.0
  1
7600-A
 11
47251.0
 21
1.0
 31
0.0
  0
LINE
  5
351
  8
MyLines
 10
47496.0
 20
0.0
 30
0.0
 11
47496.0
 21
86.5
 31
0.0
  0
LINE
  5
352
  8
MyLines
 10
47744.0
 20
50.5
 30
0.0
 11
48216.0
 21
50.5
 31
0.0
  0
LINE
  5
353
  8
MyLines
 10
47744.0
 20
0.0
 30
0.0
 11
48216.0
 21
0.0
 31
0.0
  0
LINE
  5
354
  8
MyLines
 10
47744.0
 20
0.0
 30
0.0
 11
47744.0
 21
50.5
 31
0.0
  0
LINE
  5
355
  8
MyLines
 10
48216.0
 20
0.0
 30
0.0
 11
48216.0
 21
50.5
 31
0.0
  0
TEXT
  5
356
  8
MyLines
 62
1
 10
47981.0
 20
1.0
 30
0.0
 40
1.0
  1
7601-B
 11
47981.0
 21
1.0
 31
0.0
  0
TEXT
  5
357
  8
MyLines
 62
1
 10
47745.0
 20
1.0
 30
0.0
 40
1.0
  1
7601-A
 11
47745.0
 21
1.0
 31
0.0
  0
LINE
  5
358
  8
MyLines
 10
47980.0
 20
0.0
 30
0.0
 11
47980.0
 21
50.5
 31
0.0
  0
LINE
  5
359
  8
MyLines
 10
48218.0
 20
56.0
 30
0.0
 11
48778.0
 21
56.0
 31
0.0
  0
LINE
  5
35A
  8
MyLines
 10
48218.0
 20
0.0
 30
0.0
 11
48778.0
 21
0.0
 31
0.0
  0
LINE
  5
35B
  8
MyLines
 10
48218.0
 20
0.0
 30
0.0
 11
48218.0
 21
56.0
 31
0.0
  0
LINE
  5
35C
  8
MyLines
 10
48778.0
 20
0.0
 30
0.0
 11
48778.0
 21
56.0
 31
0.0
  0
TEXT
  5
35D
  8
MyLines
 62
1
 10
48499.0
 20
1.0
 30
0.0
 40
1.0
  1
7602-B
 11
48499.0
 21
1.0
 31
0.0
  0
TEXT
  5
35E
  8
MyLines
 62
1
 10
48219.0
 20
1.0
 30
0.0
 40
1.0
  1
7602-A
 11
48219.0
 21
1.0
 31
0.0
  0
LINE
  5
35F
  8
MyLines
 10
48498.0
 20
0.0
 30
0.0
 11
48498.0
 21
56.0
 31
0.0
  0
LINE
  5
360
  8
MyLines
 10
48780.0
 20
43.5
 30
0.0
 11
49202.0
 21
43.5
 31
0.0
  0
LINE
  5
361
  8
MyLines
 10
48780.0
 20
0.0
 30
0.0
 11
49202.0
 21
0.0
 31
0.0
  0
LINE
  5
362
  8
MyLines
 10
48780.0
 20
0.0
 30
0.0
 11
48780.0
 21
43.5
 31
0.0
  0
LINE
  5
363
  8
MyLines
 10
49202.0
 20
0.0
 30
0.0
 11
49202.0
 21
43.5
 31
0.0
  0
TEXT
  5
364
  8
MyLines
 62
1
 10
48992.0
 20
1.0
 30
0.0
 40
1.0
  1
7603-B
 11
48992.0
 21
1.0
 31
0.0
  0
TEXT
  5
365
  8
MyLines
 62
1
 10
48781.0
 20
1.0
 30
0.0
 40
1.0
  1
7603-A
 11
48781.0
 21
1.0
 31
0.0
  0
LINE
  5
366
  8
MyLines
 10
48991.0
 20
0.0
 30
0.0
 11
48991.0
 21
43.5
 31
0.0
  0
LINE
  5
367
  8
MyLines
 10
49204.0
 20
35.0
 30
0.0
 11
49716.0
 21
35.0
 31
0.0
  0
LINE
  5
368
  8
MyLines
 10
49204.0
 20
0.0
 30
0.0
 11
49716.0
 21
0.0
 31
0.0
  0
LINE
  5
369
  8
MyLines
 10
49204.0
 20
0.0
 30
0.0
 11
49204.0
 21
35.0
 31
0.0
  0
LINE
  5
36A
  8
MyLines
 10
49716.0
 20
0.0
 30
0.0
 11
49716.0
 21
35.0
 31
0.0
  0
TEXT
  5
36B
  8
MyLines
 62
1
 10
49461.0
 20
1.0
 30
0.0
 40
1.0
  1
7604-B
 11
49461.0
 21
1.0
 31
0.0
  0
TEXT
  5
36C
  8
MyLines
 62
1
 10
49205.0
 20
1.0
 30
0.0
 40
1.0
  1
7604-A
 11
49205.0
 21
1.0
 31
0.0
  0
LINE
  5
36D
  8
MyLines
 10
49460.0
 20
0.0
 30
0.0
 11
49460.0
 21
35.0
 31
0.0
  0
LINE
  5
36E
  8
MyLines
 10
49718.0
 20
59.0
 30
0.0
 11
50124.0
 21
59.0
 31
0.0
  0
LINE
  5
36F
  8
MyLines
 10
49718.0
 20
0.0
 30
0.0
 11
50124.0
 21
0.0
 31
0.0
  0
LINE
  5
370
  8
MyLines
 10
49718.0
 20
0.0
 30
0.0
 11
49718.0
 21
59.0
 31
0.0
  0
LINE
  5
371
  8
MyLines
 10
50124.0
 20
0.0
 30
0.0
 11
50124.0
 21
59.0
 31
0.0
  0
TEXT
  5
372
  8
MyLines
 62
1
 10
49922.0
 20
1.0
 30
0.0
 40
1.0
  1
7605-B
 11
49922.0
 21
1.0
 31
0.0
  0
TEXT
  5
373
  8
MyLines
 62
1
 10
49719.0
 20
1.0
 30
0.0
 40
1.0
  1
7605-A
 11
49719.0
 21
1.0
 31
0.0
  0
LINE
  5
374
  8
MyLines
 10
49921.0
 20
0.0
 30
0.0
 11
49921.0
 21
59.0
 31
0.0
  0
LINE
  5
375
  8
MyLines
 10
50126.0
 20
48.5
 30
0.0
 11
50630.0
 21
48.5
 31
0.0
  0
LINE
  5
376
  8
MyLines
 10
50126.0
 20
0.0
 30
0.0
 11
50630.0
 21
0.0
 31
0.0
  0
LINE
  5
377
  8
MyLines
 10
50126.0
 20
0.0
 30
0.0
 11
50126.0
 21
48.5
 31
0.0
  0
LINE
  5
378
  8
MyLines
 10
50630.0
 20
0.0
 30
0.0
 11
50630.0
 21
48.5
 31
0.0
  0
TEXT
  5
379
  8
MyLines
 62
1
 10
50379.0
 20
1.0
 30
0.0
 40
1.0
  1
7606-B
 11
50379.0
 21
1.0
 31
0.0
  0
TEXT
  5
37A
  8
MyLines
 62
1
 10
50127.0
 20
1.0
 30
0.0
 40
1.0
  1
7606-A
 11
50127.0
 21
1.0
 31
0.0
  0
LINE
  5
37B
  8
MyLines
 10
50378.0
 20
0.0
 30
0.0
 11
50378.0
 21
48.5
 31
0.0
  0
LINE
  5
37C
  8
MyLines
 10
50632.0
 20
53.0
 30
0.0
 11
51102.0
 21
53.0
 31
0.0
  0
LINE
  5
37D
  8
MyLines
 10
50632.0
 20
0.0
 30
0.0
 11
51102.0
 21
0.0
 31
0.0
  0
LINE
  5
37E
  8
MyLines
 10
50632.0
 20
0.0
 30
0.0
 11
50632.0
 21
53.0
 31
0.0
  0
LINE
  5
37F
  8
MyLines
 10
51102.0
 20
0.0
 30
0.0
 11
51102.0
 21
53.0
 31
0.0
  0
TEXT
  5
380
  8
MyLines
 62
1
 10
50868.0
 20
1.0
 30
0.0
 40
1.0
  1
7607-B
 11
50868.0
 21
1.0
 31
0.0
  0
TEXT
  5
381
  8
MyLines
 62
1
 10
50633.0
 20
1.0
 30
0.0
 40
1.0
  1
7607-A
 11
50633.0
 21
1.0
 31
0.0
  0
LINE
  5
382
  8
MyLines
 10
50867.0
 20
0.0
 30
0.0
 11
50867.0
 21
53.0
 31
0.0
  0
LINE
  5
383
  8
MyLines
 10
51104.0
 20
64.5
 30
0.0
 11
51700.0
 21
64.5
 31
0.0
  0
LINE
  5
384
  8
MyLines
 10
51104.0
 20
0.0
 30
0.0
 11
51700.0
 21
0.0
 31
0.0
  0
LINE
  5
385
  8
MyLines
 10
51104.0
 20
0.0
 30
0.0
 11
51104.0
 21
64.5
 31
0.0
  0
LINE
  5
386
  8
MyLines
 10
51700.0
 20
0.0
 30
0.0
 11
51700.0
 21
64.5
 31
0.0
  0
TEXT
  5
387
  8
MyLines
 62
1
 10
51403.0
 20
1.0
 30
0.0
 40
1.0
  1
7608-B
 11
51403.0
 21
1.0
 31
0.0
  0
TEXT
  5
388
  8
MyLines
 62
1
 10
51105.0
 20
1.0
 30
0.0
 40
1.0
  1
7608-A
 11
51105.0
 21
1.0
 31
0.0
  0
LINE
  5
389
  8
MyLines
 10
51402.0
 20
0.0
 30
0.0
 11
51402.0
 21
64.5
 31
0.0
  0
LINE
  5
38A
  8
MyLines
 10
51702.0
 20
56.5
 30
0.0
 11
52142.0
 21
56.5
 31
0.0
  0
LINE
  5
38B
  8
MyLines
 10
51702.0
 20
0.0
 30
0.0
 11
52142.0
 21
0.0
 31
0.0
  0
LINE
  5
38C
  8
MyLines
 10
51702.0
 20
0.0
 30
0.0
 11
51702.0
 21
56.5
 31
0.0
  0
LINE
  5
38D
  8
MyLines
 10
52142.0
 20
0.0
 30
0.0
 11
52142.0
 21
56.5
 31
0.0
  0
TEXT
  5
38E
  8
MyLines
 62
1
 10
51923.0
 20
1.0
 30
0.0
 40
1.0
  1
7609-B
 11
51923.0
 21
1.0
 31
0.0
  0
TEXT
  5
38F
  8
MyLines
 62
1
 10
51703.0
 20
1.0
 30
0.0
 40
1.0
  1
7609-A
 11
51703.0
 21
1.0
 31
0.0
  0
LINE
  5
390
  8
MyLines
 10
51922.0
 20
0.0
 30
0.0
 11
51922.0
 21
56.5
 31
0.0
  0
LINE
  5
391
  8
MyLines
 10
52144.0
 20
77.0
 30
0.0
 11
52672.0
 21
77.0
 31
0.0
  0
LINE
  5
392
  8
MyLines
 10
52144.0
 20
0.0
 30
0.0
 11
52672.0
 21
0.0
 31
0.0
  0
LINE
  5
393
  8
MyLines
 10
52144.0
 20
0.0
 30
0.0
 11
52144.0
 21
77.0
 31
0.0
  0
LINE
  5
394
  8
MyLines
 10
52672.0
 20
0.0
 30
0.0
 11
52672.0
 21
77.0
 31
0.0
  0
TEXT
  5
395
  8
MyLines
 62
1
 10
52409.0
 20
1.0
 30
0.0
 40
1.0
  1
7610-B
 11
52409.0
 21
1.0
 31
0.0
  0
TEXT
  5
396
  8
MyLines
 62
1
 10
52145.0
 20
1.0
 30
0.0
 40
1.0
  1
7610-A
 11
52145.0
 21
1.0
 31
0.0
  0
LINE
  5
397
  8
MyLines
 10
52408.0
 20
0.0
 30
0.0
 11
52408.0
 21
77.0
 31
0.0
  0
LINE
  5
398
  8
MyLines
 10
52674.0
 20
60.5
 30
0.0
 11
53126.0
 21
60.5
 31
0.0
  0
LINE
  5
399
  8
MyLines
 10
52674.0
 20
0.0
 30
0.0
 11
53126.0
 21
0.0
 31
0.0
  0
LINE
  5
39A
  8
MyLines
 10
52674.0
 20
0.0
 30
0.0
 11
52674.0
 21
60.5
 31
0.0
  0
LINE
  5
39B
  8
MyLines
 10
53126.0
 20
0.0
 30
0.0
 11
53126.0
 21
60.5
 31
0.0
  0
TEXT
  5
39C
  8
MyLines
 62
1
 10
52901.0
 20
1.0
 30
0.0
 40
1.0
  1
7611-B
 11
52901.0
 21
1.0
 31
0.0
  0
TEXT
  5
39D
  8
MyLines
 62
1
 10
52675.0
 20
1.0
 30
0.0
 40
1.0
  1
7611-A
 11
52675.0
 21
1.0
 31
0.0
  0
LINE
  5
39E
  8
MyLines
 10
52900.0
 20
0.0
 30
0.0
 11
52900.0
 21
60.5
 31
0.0
  0
LINE
  5
39F
  8
MyLines
 10
53128.0
 20
82.5
 30
0.0
 11
53508.0
 21
82.5
 31
0.0
  0
LINE
  5
3A0
  8
MyLines
 10
53128.0
 20
0.0
 30
0.0
 11
53508.0
 21
0.0
 31
0.0
  0
LINE
  5
3A1
  8
MyLines
 10
53128.0
 20
0.0
 30
0.0
 11
53128.0
 21
82.5
 31
0.0
  0
LINE
  5
3A2
  8
MyLines
 10
53508.0
 20
0.0
 30
0.0
 11
53508.0
 21
82.5
 31
0.0
  0
TEXT
  5
3A3
  8
MyLines
 62
1
 10
53319.0
 20
1.0
 30
0.0
 40
1.0
  1
7612-B
 11
53319.0
 21
1.0
 31
0.0
  0
TEXT
  5
3A4
  8
MyLines
 62
1
 10
53129.0
 20
1.0
 30
0.0
 40
1.0
  1
7612-A
 11
53129.0
 21
1.0
 31
0.0
  0
LINE
  5
3A5
  8
MyLines
 10
53318.0
 20
0.0
 30
0.0
 11
53318.0
 21
82.5
 31
0.0
  0
LINE
  5
3A6
  8
MyLines
 10
53510.0
 20
54.5
 30
0.0
 11
54020.0
 21
54.5
 31
0.0
  0
LINE
  5
3A7
  8
MyLines
 10
53510.0
 20
0.0
 30
0.0
 11
54020.0
 21
0.0
 31
0.0
  0
LINE
  5
3A8
  8
MyLines
 10
53510.0
 20
0.0
 30
0.0
 11
53510.0
 21
54.5
 31
0.0
  0
LINE
  5
3A9
  8
MyLines
 10
54020.0
 20
0.0
 30
0.0
 11
54020.0
 21
54.5
 31
0.0
  0
TEXT
  5
3AA
  8
MyLines
 62
1
 10
53766.0
 20
1.0
 30
0.0
 40
1.0
  1
7613-B
 11
53766.0
 21
1.0
 31
0.0
  0
TEXT
  5
3AB
  8
MyLines
 62
1
 10
53511.0
 20
1.0
 30
0.0
 40
1.0
  1
7613-A
 11
53511.0
 21
1.0
 31
0.0
  0
LINE
  5
3AC
  8
MyLines
 10
53765.0
 20
0.0
 30
0.0
 11
53765.0
 21
54.5
 31
0.0
  0
LINE
  5
3AD
  8
MyLines
 10
54022.0
 20
77.5
 30
0.0
 11
54394.0
 21
77.5
 31
0.0
  0
LINE
  5
3AE
  8
MyLines
 10
54022.0
 20
0.0
 30
0.0
 11
54394.0
 21
0.0
 31
0.0
  0
LINE
  5
3AF
  8
MyLines
 10
54022.0
 20
0.0
 30
0.0
 11
54022.0
 21
77.5
 31
0.0
  0
LINE
  5
3B0
  8
MyLines
 10
54394.0
 20
0.0
 30
0.0
 11
54394.0
 21
77.5
 31
0.0
  0
TEXT
  5
3B1
  8
MyLines
 62
1
 10
54209.0
 20
1.0
 30
0.0
 40
1.0
  1
7614-B
 11
54209.0
 21
1.0
 31
0.0
  0
TEXT
  5
3B2
  8
MyLines
 62
1
 10
54023.0
 20
1.0
 30
0.0
 40
1.0
  1
7614-A
 11
54023.0
 21
1.0
 31
0.0
  0
LINE
  5
3B3
  8
MyLines
 10
54208.0
 20
0.0
 30
0.0
 11
54208.0
 21
77.5
 31
0.0
  0
LINE
  5
3B4
  8
MyLines
 10
54396.0
 20
85.5
 30
0.0
 11
54876.0
 21
85.5
 31
0.0
  0
LINE
  5
3B5
  8
MyLines
 10
54396.0
 20
0.0
 30
0.0
 11
54876.0
 21
0.0
 31
0.0
  0
LINE
  5
3B6
  8
MyLines
 10
54396.0
 20
0.0
 30
0.0
 11
54396.0
 21
85.5
 31
0.0
  0
LINE
  5
3B7
  8
MyLines
 10
54876.0
 20
0.0
 30
0.0
 11
54876.0
 21
85.5
 31
0.0
  0
TEXT
  5
3B8
  8
MyLines
 62
1
 10
54637.0
 20
1.0
 30
0.0
 40
1.0
  1
7615-B
 11
54637.0
 21
1.0
 31
0.0
  0
TEXT
  5
3B9
  8
MyLines
 62
1
 10
54397.0
 20
1.0
 30
0.0
 40
1.0
  1
7615-A
 11
54397.0
 21
1.0
 31
0.0
  0
LINE
  5
3BA
  8
MyLines
 10
54636.0
 20
0.0
 30
0.0
 11
54636.0
 21
85.5
 31
0.0
  0
LINE
  5
3BB
  8
MyLines
 10
54878.0
 20
45.0
 30
0.0
 11
55388.0
 21
45.0
 31
0.0
  0
LINE
  5
3BC
  8
MyLines
 10
54878.0
 20
0.0
 30
0.0
 11
55388.0
 21
0.0
 31
0.0
  0
LINE
  5
3BD
  8
MyLines
 10
54878.0
 20
0.0
 30
0.0
 11
54878.0
 21
45.0
 31
0.0
  0
LINE
  5
3BE
  8
MyLines
 10
55388.0
 20
0.0
 30
0.0
 11
55388.0
 21
45.0
 31
0.0
  0
TEXT
  5
3BF
  8
MyLines
 62
1
 10
55134.0
 20
1.0
 30
0.0
 40
1.0
  1
7616-B
 11
55134.0
 21
1.0
 31
0.0
  0
TEXT
  5
3C0
  8
MyLines
 62
1
 10
54879.0
 20
1.0
 30
0.0
 40
1.0
  1
7616-A
 11
54879.0
 21
1.0
 31
0.0
  0
LINE
  5
3C1
  8
MyLines
 10
55133.0
 20
0.0
 30
0.0
 11
55133.0
 21
45.0
 31
0.0
  0
LINE
  5
3C2
  8
MyLines
 10
55390.0
 20
35.0
 30
0.0
 11
55778.0
 21
35.0
 31
0.0
  0
LINE
  5
3C3
  8
MyLines
 10
55390.0
 20
0.0
 30
0.0
 11
55778.0
 21
0.0
 31
0.0
  0
LINE
  5
3C4
  8
MyLines
 10
55390.0
 20
0.0
 30
0.0
 11
55390.0
 21
35.0
 31
0.0
  0
LINE
  5
3C5
  8
MyLines
 10
55778.0
 20
0.0
 30
0.0
 11
55778.0
 21
35.0
 31
0.0
  0
TEXT
  5
3C6
  8
MyLines
 62
1
 10
55585.0
 20
1.0
 30
0.0
 40
1.0
  1
7617-B
 11
55585.0
 21
1.0
 31
0.0
  0
TEXT
  5
3C7
  8
MyLines
 62
1
 10
55391.0
 20
1.0
 30
0.0
 40
1.0
  1
7617-A
 11
55391.0
 21
1.0
 31
0.0
  0
LINE
  5
3C8
  8
MyLines
 10
55584.0
 20
0.0
 30
0.0
 11
55584.0
 21
35.0
 31
0.0
  0
LINE
  5
3C9
  8
MyLines
 10
55780.0
 20
51.0
 30
0.0
 11
56374.0
 21
51.0
 31
0.0
  0
LINE
  5
3CA
  8
MyLines
 10
55780.0
 20
0.0
 30
0.0
 11
56374.0
 21
0.0
 31
0.0
  0
LINE
  5
3CB
  8
MyLines
 10
55780.0
 20
0.0
 30
0.0
 11
55780.0
 21
51.0
 31
0.0
  0
LINE
  5
3CC
  8
MyLines
 10
56374.0
 20
0.0
 30
0.0
 11
56374.0
 21
51.0
 31
0.0
  0
TEXT
  5
3CD
  8
MyLines
 62
1
 10
56078.0
 20
1.0
 30
0.0
 40
1.0
  1
7618-B
 11
56078.0
 21
1.0
 31
0.0
  0
TEXT
  5
3CE
  8
MyLines
 62
1
 10
55781.0
 20
1.0
 30
0.0
 40
1.0
  1
7618-A
 11
55781.0
 21
1.0
 31
0.0
  0
LINE
  5
3CF
  8
MyLines
 10
56077.0
 20
0.0
 30
0.0
 11
56077.0
 21
51.0
 31
0.0
  0
LINE
  5
3D0
  8
MyLines
 10
56376.0
 20
50.5
 30
0.0
 11
56972.0
 21
50.5
 31
0.0
  0
LINE
  5
3D1
  8
MyLines
 10
56376.0
 20
0.0
 30
0.0
 11
56972.0
 21
0.0
 31
0.0
  0
LINE
  5
3D2
  8
MyLines
 10
56376.0
 20
0.0
 30
0.0
 11
56376.0
 21
50.5
 31
0.0
  0
LINE
  5
3D3
  8
MyLines
 10
56972.0
 20
0.0
 30
0.0
 11
56972.0
 21
50.5
 31
0.0
  0
TEXT
  5
3D4
  8
MyLines
 62
1
 10
56675.0
 20
1.0
 30
0.0
 40
1.0
  1
7619-B
 11
56675.0
 21
1.0
 31
0.0
  0
TEXT
  5
3D5
  8
MyLines
 62
1
 10
56377.0
 20
1.0
 30
0.0
 40
1.0
  1
7619-A
 11
56377.0
 21
1.0
 31
0.0
  0
LINE
  5
3D6
  8
MyLines
 10
56674.0
 20
0.0
 30
0.0
 11
56674.0
 21
50.5
 31
0.0
  0
LINE
  5
3D7
  8
MyLines
 10
56974.0
 20
83.0
 30
0.0
 11
57432.0
 21
83.0
 31
0.0
  0
LINE
  5
3D8
  8
MyLines
 10
56974.0
 20
0.0
 30
0.0
 11
57432.0
 21
0.0
 31
0.0
  0
LINE
  5
3D9
  8
MyLines
 10
56974.0
 20
0.0
 30
0.0
 11
56974.0
 21
83.0
 31
0.0
  0
LINE
  5
3DA
  8
MyLines
 10
57432.0
 20
0.0
 30
0.0
 11
57432.0
 21
83.0
 31
0.0
  0
TEXT
  5
3DB
  8
MyLines
 62
1
 10
57204.0
 20
1.0
 30
0.0
 40
1.0
  1
7620-B
 11
57204.0
 21
1.0
 31
0.0
  0
TEXT
  5
3DC
  8
MyLines
 62
1
 10
56975.0
 20
1.0
 30
0.0
 40
1.0
  1
7620-A
 11
56975.0
 21
1.0
 31
0.0
  0
LINE
  5
3DD
  8
MyLines
 10
57203.0
 20
0.0
 30
0.0
 11
57203.0
 21
83.0
 31
0.0
  0
LINE
  5
3DE
  8
MyLines
 10
57434.0
 20
54.0
 30
0.0
 11
57806.0
 21
54.0
 31
0.0
  0
LINE
  5
3DF
  8
MyLines
 10
57434.0
 20
0.0
 30
0.0
 11
57806.0
 21
0.0
 31
0.0
  0
LINE
  5
3E0
  8
MyLines
 10
57434.0
 20
0.0
 30
0.0
 11
57434.0
 21
54.0
 31
0.0
  0
LINE
  5
3E1
  8
MyLines
 10
57806.0
 20
0.0
 30
0.0
 11
57806.0
 21
54.0
 31
0.0
  0
TEXT
  5
3E2
  8
MyLines
 62
1
 10
57621.0
 20
1.0
 30
0.0
 40
1.0
  1
7621-B
 11
57621.0
 21
1.0
 31
0.0
  0
TEXT
  5
3E3
  8
MyLines
 62
1
 10
57435.0
 20
1.0
 30
0.0
 40
1.0
  1
7621-A
 11
57435.0
 21
1.0
 31
0.0
  0
LINE
  5
3E4
  8
MyLines
 10
57620.0
 20
0.0
 30
0.0
 11
57620.0
 21
54.0
 31
0.0
  0
LINE
  5
3E5
  8
MyLines
 10
57808.0
 20
81.5
 30
0.0
 11
58408.0
 21
81.5
 31
0.0
  0
LINE
  5
3E6
  8
MyLines
 10
57808.0
 20
0.0
 30
0.0
 11
58408.0
 21
0.0
 31
0.0
  0
LINE
  5
3E7
  8
MyLines
 10
57808.0
 20
0.0
 30
0.0
 11
57808.0
 21
81.5
 31
0.0
  0
LINE
  5
3E8
  8
MyLines
 10
58408.0
 20
0.0
 30
0.0
 11
58408.0
 21
81.5
 31
0.0
  0
TEXT
  5
3E9
  8
MyLines
 62
1
 10
58109.0
 20
1.0
 30
0.0
 40
1.0
  1
7622-B
 11
58109.0
 21
1.0
 31
0.0
  0
TEXT
  5
3EA
  8
MyLines
 62
1
 10
57809.0
 20
1.0
 30
0.0
 40
1.0
  1
7622-A
 11
57809.0
 21
1.0
 31
0.0
  0
LINE
  5
3EB
  8
MyLines
 10
58108.0
 20
0.0
 30
0.0
 11
58108.0
 21
81.5
 31
0.0
  0
LINE
  5
3EC
  8
MyLines
 10
58410.0
 20
35.5
 30
0.0
 11
58788.0
 21
35.5
 31
0.0
  0
LINE
  5
3ED
  8
MyLines
 10
58410.0
 20
0.0
 30
0.0
 11
58788.0
 21
0.0
 31
0.0
  0
LINE
  5
3EE
  8
MyLines
 10
58410.0
 20
0.0
 30
0.0
 11
58410.0
 21
35.5
 31
0.0
  0
LINE
  5
3EF
  8
MyLines
 10
58788.0
 20
0.0
 30
0.0
 11
58788.0
 21
35.5
 31
0.0
  0
TEXT
  5
3F0
  8
MyLines
 62
1
 10
58600.0
 20
1.0
 30
0.0
 40
1.0
  1
7623-B
 11
58600.0
 21
1.0
 31
0.0
  0
TEXT
  5
3F1
  8
MyLines
 62
1
 10
58411.0
 20
1.0
 30
0.0
 40
1.0
  1
7623-A
 11
58411.0
 21
1.0
 31
0.0
  0
LINE
  5
3F2
  8
MyLines
 10
58599.0
 20
0.0
 30
0.0
 11
58599.0
 21
35.5
 31
0.0
  0
LINE
  5
3F3
  8
MyLines
 10
58790.0
 20
67.0
 30
0.0
 11
59326.0
 21
67.0
 31
0.0
  0
LINE
  5
3F4
  8
MyLines
 10
58790.0
 20
0.0
 30
0.0
 11
59326.0
 21
0.0
 31
0.0
  0
LINE
  5
3F5
  8
MyLines
 10
58790.0
 20
0.0
 30
0.0
 11
58790.0
 21
67.0
 31
0.0
  0
LINE
  5
3F6
  8
MyLines
 10
59326.0
 20
0.0
 30
0.0
 11
59326.0
 21
67.0
 31
0.0
  0
TEXT
  5
3F7
  8
MyLines
 62
1
 10
59059.0
 20
1.0
 30
0.0
 40
1.0
  1
7624-B
 11
59059.0
 21
1.0
 31
0.0
  0
TEXT
  5
3F8
  8
MyLines
 62
1
 10
58791.0
 20
1.0
 30
0.0
 40
1.0
  1
7624-A
 11
58791.0
 21
1.0
 31
0.0
  0
LINE
  5
3F9
  8
MyLines
 10
59058.0
 20
0.0
 30
0.0
 11
59058.0
 21
67.0
 31
0.0
  0
LINE
  5
3FA
  8
MyLines
 10
59328.0
 20
57.0
 30
0.0
 11
59892.0
 21
57.0
 31
0.0
  0
LINE
  5
3FB
  8
MyLines
 10
59328.0
 20
0.0
 30
0.0
 11
59892.0
 21
0.0
 31
0.0
  0
LINE
  5
3FC
  8
MyLines
 10
59328.0
 20
0.0
 30
0.0
 11
59328.0
 21
57.0
 31
0.0
  0
LINE
  5
3FD
  8
MyLines
 10
59892.0
 20
0.0
 30
0.0
 11
59892.0
 21
57.0
 31
0.0
  0
TEXT
  5
3FE
  8
MyLines
 62
1
 10
59611.0
 20
1.0
 30
0.0
 40
1.0
  1
7625-B
 11
59611.0
 21
1.0
 31
0.0
  0
TEXT
  5
3FF
  8
MyLines
 62
1
 10
59329.0
 20
1.0
 30
0.0
 40
1.0
  1
7625-A
 11
59329.0
 21
1.0
 31
0.0
  0
LINE
  5
400
  8
MyLines
 10
59610.0
 20
0.0
 30
0.0
 11
59610.0
 21
57.0
 31
0.0
  0
LINE
  5
401
  8
MyLines
 10
59894.0
 20
86.5
 30
0.0
 11
60246.0
 21
86.5
 31
0.0
  0
LINE
  5
402
  8
MyLines
 10
59894.0
 20
0.0
 30
0.0
 11
60246.0
 21
0.0
 31
0.0
  0
LINE
  5
403
  8
MyLines
 10
59894.0
 20
0.0
 30
0.0
 11
59894.0
 21
86.5
 31
0.0
  0
LINE
  5
404
  8
MyLines
 10
60246.0
 20
0.0
 30
0.0
 11
60246.0
 21
86.5
 31
0.0
  0
TEXT
  5
405
  8
MyLines
 62
1
 10
60071.0
 20
1.0
 30
0.0
 40
1.0
  1
7626-B
 11
60071.0
 21
1.0
 31
0.0
  0
TEXT
  5
406
  8
MyLines
 62
1
 10
59895.0
 20
1.0
 30
0.0
 40
1.0
  1
7626-A
 11
59895.0
 21
1.0
 31
0.0
  0
LINE
  5
407
  8
MyLines
 10
60070.0
 20
0.0
 30
0.0
 11
60070.0
 21
86.5
 31
0.0
  0
LINE
  5
408
  8
MyLines
 10
60248.0
 20
89.0
 30
0.0
 11
60764.0
 21
89.0
 31
0.0
  0
LINE
  5
409
  8
MyLines
 10
60248.0
 20
0.0
 30
0.0
 11
60764.0
 21
0.0
 31
0.0
  0
LINE
  5
40A
  8
MyLines
 10
60248.0
 20
0.0
 30
0.0
 11
60248.0
 21
89.0
 31
0.0
  0
LINE
  5
40B
  8
MyLines
 10
60764.0
 20
0.0
 30
0.0
 11
60764.0
 21
89.0
 31
0.0
  0
TEXT
  5
40C
  8
MyLines
 62
1
 10
60507.0
 20
1.0
 30
0.0
 40
1.0
  1
7627-B
 11
60507.0
 21
1.0
 31
0.0
  0
TEXT
  5
40D
  8
MyLines
 62
1
 10
60249.0
 20
1.0
 30
0.0
 40
1.0
  1
7627-A
 11
60249.0
 21
1.0
 31
0.0
  0
LINE
  5
40E
  8
MyLines
 10
60506.0
 20
0.0
 30
0.0
 11
60506.0
 21
89.0
 31
0.0
  0
LINE
  5
40F
  8
MyLines
 10
60766.0
 20
38.0
 30
0.0
 11
61228.0
 21
38.0
 31
0.0
  0
LINE
  5
410
  8
MyLines
 10
60766.0
 20
0.0
 30
0.0
 11
61228.0
 21
0.0
 31
0.0
  0
LINE
  5
411
  8
MyLines
 10
60766.0
 20
0.0
 30
0.0
 11
60766.0
 21
38.0
 31
0.0
  0
LINE
  5
412
  8
MyLines
 10
61228.0
 20
0.0
 30
0.0
 11
61228.0
 21
38.0
 31
0.0
  0
TEXT
  5
413
  8
MyLines
 62
1
 10
60998.0
 20
1.0
 30
0.0
 40
1.0
  1
7628-B
 11
60998.0
 21
1.0
 31
0.0
  0
TEXT
  5
414
  8
MyLines
 62
1
 10
60767.0
 20
1.0
 30
0.0
 40
1.0
  1
7628-A
 11
60767.0
 21
1.0
 31
0.0
  0
LINE
  5
415
  8
MyLines
 10
60997.0
 20
0.0
 30
0.0
 11
60997.0
 21
38.0
 31
0.0
  0
LINE
  5
416
  8
MyLines
 10
61230.0
 20
75.5
 30
0.0
 11
61730.0
 21
75.5
 31
0.0
  0
LINE
  5
417
  8
MyLines
 10
61230.0
 20
0.0
 30
0.0
 11
61730.0
 21
0.0
 31
0.0
  0
LINE
  5
418
  8
MyLines
 10
61230.0
 20
0.0
 30
0.0
 11
61230.0
 21
75.5
 31
0.0
  0
LINE
  5
419
  8
MyLines
 10
61730.0
 20
0.0
 30
0.0
 11
61730.0
 21
75.5
 31
0.0
  0
TEXT
  5
41A
  8
MyLines
 62
1
 10
61481.0
 20
1.0
 30
0.0
 40
1.0
  1
7629-B
 11
61481.0
 21
1.0
 31
0.0
  0
TEXT
  5
41B
  8
MyLines
 62
1
 10
61231.0
 20
1.0
 30
0.0
 40
1.0
  1
7629-A
 11
61231.0
 21
1.0
 31
0.0
  0
LINE
  5
41C
  8
MyLines
 10
61480.0
 20
0.0
 30
0.0
 11
61480.0
 21
75.5
 31
0.0
  0
LINE
  5
41D
  8
MyLines
 10
61732.0
 20
81.5
 30
0.0
 11
62312.0
 21
81.5
 31
0.0
  0
LINE
  5
41E
  8
MyLines
 10
61732.0
 20
0.0
 30
0.0
 11
62312.0
 21
0.0
 31
0.0
  0
LINE
  5
41F
  8
MyLines
 10
61732.0
 20
0.0
 30
0.0
 11
61732.0
 21
81.5
 31
0.0
  0
LINE
  5
420
  8
MyLines
 10
62312.0
 20
0.0
 30
0.0
 11
62312.0
 21
81.5
 31
0.0
  0
TEXT
  5
421
  8
MyLines
 62
1
 10
62023.0
 20
1.0
 30
0.0
 40
1.0
  1
7630-B
 11
62023.0
 21
1.0
 31
0.0
  0
TEXT
  5
422
  8
MyLines
 62
1
 10
61733.0
 20
1.0
 30
0.0
 40
1.0
  1
7630-A
 11
61733.0
 21
1.0
 31
0.0
  0
LINE
  5
423
  8
MyLines
 10
62022.0
 20
0.0
 30
0.0
 11
62022.0
 21
81.5
 31
0.0
  0
LINE
  5
424
  8
MyLines
 10
62314.0
 20
53.0
 30
0.0
 11
62740.0
 21
53.0
 31
0.0
  0
LINE
  5
425
  8
MyLines
 10
62314.0
 20
0.0
 30
0.0
 11
62740.0
 21
0.0
 31
0.0
  0
LINE
  5
426
  8
MyLines
 10
62314.0
 20
0.0
 30
0.0
 11
62314.0
 21
53.0
 31
0.0
  0
LINE
  5
427
  8
MyLines
 10
62740.0
 20
0.0
 30
0.0
 11
62740.0
 21
53.0
 31
0.0
  0
TEXT
  5
428
  8
MyLines
 62
1
 10
62528.0
 20
1.0
 30
0.0
 40
1.0
  1
7631-B
 11
62528.0
 21
1.0
 31
0.0
  0
TEXT
  5
429
  8
MyLines
 62
1
 10
62315.0
 20
1.0
 30
0.0
 40
1.0
  1
7631-A
 11
62315.0
 21
1.0
 31
0.0
  0
LINE
  5
42A
  8
MyLines
 10
62527.0
 20
0.0
 30
0.0
 11
62527.0
 21
53.0
 31
0.0
  0
LINE
  5
42B
  8
MyLines
 10
62742.0
 20
56.5
 30
0.0
 11
63134.0
 21
56.5
 31
0.0
  0
LINE
  5
42C
  8
MyLines
 10
62742.0
 20
0.0
 30
0.0
 11
63134.0
 21
0.0
 31
0.0
  0
LINE
  5
42D
  8
MyLines
 10
62742.0
 20
0.0
 30
0.0
 11
62742.0
 21
56.5
 31
0.0
  0
LINE
  5
42E
  8
MyLines
 10
63134.0
 20
0.0
 30
0.0
 11
63134.0
 21
56.5
 31
0.0
  0
TEXT
  5
42F
  8
MyLines
 62
1
 10
62939.0
 20
1.0
 30
0.0
 40
1.0
  1
7632-B
 11
62939.0
 21
1.0
 31
0.0
  0
TEXT
  5
430
  8
MyLines
 62
1
 10
62743.0
 20
1.0
 30
0.0
 40
1.0
  1
7632-A
 11
62743.0
 21
1.0
 31
0.0
  0
LINE
  5
431
  8
MyLines
 10
62938.0
 20
0.0
 30
0.0
 11
62938.0
 21
56.5
 31
0.0
  0
LINE
  5
432
  8
MyLines
 10
63136.0
 20
36.0
 30
0.0
 11
63490.0
 21
36.0
 31
0.0
  0
LINE
  5
433
  8
MyLines
 10
63136.0
 20
0.0
 30
0.0
 11
63490.0
 21
0.0
 31
0.0
  0
LINE
  5
434
  8
MyLines
 10
63136.0
 20
0.0
 30
0.0
 11
63136.0
 21
36.0
 31
0.0
  0
LINE
  5
435
  8
MyLines
 10
63490.0
 20
0.0
 30
0.0
 11
63490.0
 21
36.0
 31
0.0
  0
TEXT
  5
436
  8
MyLines
 62
1
 10
63314.0
 20
1.0
 30
0.0
 40
1.0
  1
7633-B
 11
63314.0
 21
1.0
 31
0.0
  0
TEXT
  5
437
  8
MyLines
 62
1
 10
63137.0
 20
1.0
 30
0.0
 40
1.0
  1
7633-A
 11
63137.0
 21
1.0
 31
0.0
  0
LINE
  5
438
  8
MyLines
 10
63313.0
 20
0.0
 30
0.0
 11
63313.0
 21
36.0
 31
0.0
  0
LINE
  5
439
  8
MyLines
 10
63492.0
 20
61.0
 30
0.0
 11
63952.0
 21
61.0
 31
0.0
  0
LINE
  5
43A
  8
MyLines
 10
63492.0
 20
0.0
 30
0.0
 11
63952.0
 21
0.0
 31
0.0
  0
LINE
  5
43B
  8
MyLines
 10
63492.0
 20
0.0
 30
0.0
 11
63492.0
 21
61.0
 31
0.0
  0
LINE
  5
43C
  8
MyLines
 10
63952.0
 20
0.0
 30
0.0
 11
63952.0
 21
61.0
 31
0.0
  0
TEXT
  5
43D
  8
MyLines
 62
1
 10
63723.0
 20
1.0
 30
0.0
 40
1.0
  1
7634-B
 11
63723.0
 21
1.0
 31
0.0
  0
TEXT
  5
43E
  8
MyLines
 62
1
 10
63493.0
 20
1.0
 30
0.0
 40
1.0
  1
7634-A
 11
63493.0
 21
1.0
 31
0.0
  0
LINE
  5
43F
  8
MyLines
 10
63722.0
 20
0.0
 30
0.0
 11
63722.0
 21
61.0
 31
0.0
  0
LINE
  5
440
  8
MyLines
 10
63954.0
 20
64.0
 30
0.0
 11
64328.0
 21
64.0
 31
0.0
  0
LINE
  5
441
  8
MyLines
 10
63954.0
 20
0.0
 30
0.0
 11
64328.0
 21
0.0
 31
0.0
  0
LINE
  5
442
  8
MyLines
 10
63954.0
 20
0.0
 30
0.0
 11
63954.0
 21
64.0
 31
0.0
  0
LINE
  5
443
  8
MyLines
 10
64328.0
 20
0.0
 30
0.0
 11
64328.0
 21
64.0
 31
0.0
  0
TEXT
  5
444
  8
MyLines
 62
1
 10
64142.0
 20
1.0
 30
0.0
 40
1.0
  1
7635-B
 11
64142.0
 21
1.0
 31
0.0
  0
TEXT
  5
445
  8
MyLines
 62
1
 10
63955.0
 20
1.0
 30
0.0
 40
1.0
  1
7635-A
 11
63955.0
 21
1.0
 31
0.0
  0
LINE
  5
446
  8
MyLines
 10
64141.0
 20
0.0
 30
0.0
 11
64141.0
 21
64.0
 31
0.0
  0
LINE
  5
447
  8
MyLines
 10
64330.0
 20
67.5
 30
0.0
 11
64704.0
 21
67.5
 31
0.0
  0
LINE
  5
448
  8
MyLines
 10
64330.0
 20
0.0
 30
0.0
 11
64704.0
 21
0.0
 31
0.0
  0
LINE
  5
449
  8
MyLines
 10
64330.0
 20
0.0
 30
0.0
 11
64330.0
 21
67.5
 31
0.0
  0
LINE
  5
44A
  8
MyLines
 10
64704.0
 20
0.0
 30
0.0
 11
64704.0
 21
67.5
 31
0.0
  0
TEXT
  5
44B
  8
MyLines
 62
1
 10
64518.0
 20
1.0
 30
0.0
 40
1.0
  1
7636-B
 11
64518.0
 21
1.0
 31
0.0
  0
TEXT
  5
44C
  8
MyLines
 62
1
 10
64331.0
 20
1.0
 30
0.0
 40
1.0
  1
7636-A
 11
64331.0
 21
1.0
 31
0.0
  0
LINE
  5
44D
  8
MyLines
 10
64517.0
 20
0.0
 30
0.0
 11
64517.0
 21
67.5
 31
0.0
  0
LINE
  5
44E
  8
MyLines
 10
64706.0
 20
70.0
 30
0.0
 11
65168.0
 21
70.0
 31
0.0
  0
LINE
  5
44F
  8
MyLines
 10
64706.0
 20
0.0
 30
0.0
 11
65168.0
 21
0.0
 31
0.0
  0
LINE
  5
450
  8
MyLines
 10
64706.0
 20
0.0
 30
0.0
 11
64706.0
 21
70.0
 31
0.0
  0
LINE
  5
451
  8
MyLines
 10
65168.0
 20
0.0
 30
0.0
 11
65168.0
 21
70.0
 31
0.0
  0
TEXT
  5
452
  8
MyLines
 62
1
 10
64938.0
 20
1.0
 30
0.0
 40
1.0
  1
7637-B
 11
64938.0
 21
1.0
 31
0.0
  0
TEXT
  5
453
  8
MyLines
 62
1
 10
64707.0
 20
1.0
 30
0.0
 40
1.0
  1
7637-A
 11
64707.0
 21
1.0
 31
0.0
  0
LINE
  5
454
  8
MyLines
 10
64937.0
 20
0.0
 30
0.0
 11
64937.0
 21
70.0
 31
0.0
  0
LINE
  5
455
  8
MyLines
 10
65170.0
 20
39.5
 30
0.0
 11
65674.0
 21
39.5
 31
0.0
  0
LINE
  5
456
  8
MyLines
 10
65170.0
 20
0.0
 30
0.0
 11
65674.0
 21
0.0
 31
0.0
  0
LINE
  5
457
  8
MyLines
 10
65170.0
 20
0.0
 30
0.0
 11
65170.0
 21
39.5
 31
0.0
  0
LINE
  5
458
  8
MyLines
 10
65674.0
 20
0.0
 30
0.0
 11
65674.0
 21
39.5
 31
0.0
  0
TEXT
  5
459
  8
MyLines
 62
1
 10
65423.0
 20
1.0
 30
0.0
 40
1.0
  1
7638-B
 11
65423.0
 21
1.0
 31
0.0
  0
TEXT
  5
45A
  8
MyLines
 62
1
 10
65171.0
 20
1.0
 30
0.0
 40
1.0
  1
7638-A
 11
65171.0
 21
1.0
 31
0.0
  0
LINE
  5
45B
  8
MyLines
 10
65422.0
 20
0.0
 30
0.0
 11
65422.0
 21
39.5
 31
0.0
  0
LINE
  5
45C
  8
MyLines
 10
65676.0
 20
62.0
 30
0.0
 11
66062.0
 21
62.0
 31
0.0
  0
LINE
  5
45D
  8
MyLines
 10
65676.0
 20
0.0
 30
0.0
 11
66062.0
 21
0.0
 31
0.0
  0
LINE
  5
45E
  8
MyLines
 10
65676.0
 20
0.0
 30
0.0
 11
65676.0
 21
62.0
 31
0.0
  0
LINE
  5
45F
  8
MyLines
 10
66062.0
 20
0.0
 30
0.0
 11
66062.0
 21
62.0
 31
0.0
  0
TEXT
  5
460
  8
MyLines
 62
1
 10
65870.0
 20
1.0
 30
0.0
 40
1.0
  1
7639-B
 11
65870.0
 21
1.0
 31
0.0
  0
TEXT
  5
461
  8
MyLines
 62
1
 10
65677.0
 20
1.0
 30
0.0
 40
1.0
  1
7639-A
 11
65677.0
 21
1.0
 31
0.0
  0
LINE
  5
462
  8
MyLines
 10
65869.0
 20
0.0
 30
0.0
 11
65869.0
 21
62.0
 31
0.0
  0
LINE
  5
463
  8
MyLines
 10
66064.0
 20
55.5
 30
0.0
 11
66580.0
 21
55.5
 31
0.0
  0
LINE
  5
464
  8
MyLines
 10
66064.0
 20
0.0
 30
0.0
 11
66580.0
 21
0.0
 31
0.0
  0
LINE
  5
465
  8
MyLines
 10
66064.0
 20
0.0
 30
0.0
 11
66064.0
 21
55.5
 31
0.0
  0
LINE
  5
466
  8
MyLines
 10
66580.0
 20
0.0
 30
0.0
 11
66580.0
 21
55.5
 31
0.0
  0
TEXT
  5
467
  8
MyLines
 62
1
 10
66323.0
 20
1.0
 30
0.0
 40
1.0
  1
7640-B
 11
66323.0
 21
1.0
 31
0.0
  0
TEXT
  5
468
  8
MyLines
 62
1
 10
66065.0
 20
1.0
 30
0.0
 40
1.0
  1
7640-A
 11
66065.0
 21
1.0
 31
0.0
  0
LINE
  5
469
  8
MyLines
 10
66322.0
 20
0.0
 30
0.0
 11
66322.0
 21
55.5
 31
0.0
  0
LINE
  5
46A
  8
MyLines
 10
66582.0
 20
47.5
 30
0.0
 11
67002.0
 21
47.5
 31
0.0
  0
LINE
  5
46B
  8
MyLines
 10
66582.0
 20
0.0
 30
0.0
 11
67002.0
 21
0.0
 31
0.0
  0
LINE
  5
46C
  8
MyLines
 10
66582.0
 20
0.0
 30
0.0
 11
66582.0
 21
47.5
 31
0.0
  0
LINE
  5
46D
  8
MyLines
 10
67002.0
 20
0.0
 30
0.0
 11
67002.0
 21
47.5
 31
0.0
  0
TEXT
  5
46E
  8
MyLines
 62
1
 10
66793.0
 20
1.0
 30
0.0
 40
1.0
  1
7641-B
 11
66793.0
 21
1.0
 31
0.0
  0
TEXT
  5
46F
  8
MyLines
 62
1
 10
66583.0
 20
1.0
 30
0.0
 40
1.0
  1
7641-A
 11
66583.0
 21
1.0
 31
0.0
  0
LINE
  5
470
  8
MyLines
 10
66792.0
 20
0.0
 30
0.0
 11
66792.0
 21
47.5
 31
0.0
  0
LINE
  5
471
  8
MyLines
 10
67004.0
 20
50.0
 30
0.0
 11
67512.0
 21
50.0
 31
0.0
  0
LINE
  5
472
  8
MyLines
 10
67004.0
 20
0.0
 30
0.0
 11
67512.0
 21
0.0
 31
0.0
  0
LINE
  5
473
  8
MyLines
 10
67004.0
 20
0.0
 30
0.0
 11
67004.0
 21
50.0
 31
0.0
  0
LINE
  5
474
  8
MyLines
 10
67512.0
 20
0.0
 30
0.0
 11
67512.0
 21
50.0
 31
0.0
  0
TEXT
  5
475
  8
MyLines
 62
1
 10
67259.0
 20
1.0
 30
0.0
 40
1.0
  1
7642-B
 11
67259.0
 21
1.0
 31
0.0
  0
TEXT
  5
476
  8
MyLines
 62
1
 10
67005.0
 20
1.0
 30
0.0
 40
1.0
  1
7642-A
 11
67005.0
 21
1.0
 31
0.0
  0
LINE
  5
477
  8
MyLines
 10
67258.0
 20
0.0
 30
0.0
 11
67258.0
 21
50.0
 31
0.0
  0
LINE
  5
478
  8
MyLines
 10
67514.0
 20
69.5
 30
0.0
 11
68102.0
 21
69.5
 31
0.0
  0
LINE
  5
479
  8
MyLines
 10
67514.0
 20
0.0
 30
0.0
 11
68102.0
 21
0.0
 31
0.0
  0
LINE
  5
47A
  8
MyLines
 10
67514.0
 20
0.0
 30
0.0
 11
67514.0
 21
69.5
 31
0.0
  0
LINE
  5
47B
  8
MyLines
 10
68102.0
 20
0.0
 30
0.0
 11
68102.0
 21
69.5
 31
0.0
  0
TEXT
  5
47C
  8
MyLines
 62
1
 10
67809.0
 20
1.0
 30
0.0
 40
1.0
  1
7643-B
 11
67809.0
 21
1.0
 31
0.0
  0
TEXT
  5
47D
  8
MyLines
 62
1
 10
67515.0
 20
1.0
 30
0.0
 40
1.0
  1
7643-A
 11
67515.0
 21
1.0
 31
0.0
  0
LINE
  5
47E
  8
MyLines
 10
67808.0
 20
0.0
 30
0.0
 11
67808.0
 21
69.5
 31
0.0
  0
LINE
  5
47F
  8
MyLines
 10
68104.0
 20
36.0
 30
0.0
 11
68494.0
 21
36.0
 31
0.0
  0
LINE
  5
480
  8
MyLines
 10
68104.0
 20
0.0
 30
0.0
 11
68494.0
 21
0.0
 31
0.0
  0
LINE
  5
481
  8
MyLines
 10
68104.0
 20
0.0
 30
0.0
 11
68104.0
 21
36.0
 31
0.0
  0
LINE
  5
482
  8
MyLines
 10
68494.0
 20
0.0
 30
0.0
 11
68494.0
 21
36.0
 31
0.0
  0
TEXT
  5
483
  8
MyLines
 62
1
 10
68300.0
 20
1.0
 30
0.0
 40
1.0
  1
7644-B
 11
68300.0
 21
1.0
 31
0.0
  0
TEXT
  5
484
  8
MyLines
 62
1
 10
68105.0
 20
1.0
 30
0.0
 40
1.0
  1
7644-A
 11
68105.0
 21
1.0
 31
0.0
  0
LINE
  5
485
  8
MyLines
 10
68299.0
 20
0.0
 30
0.0
 11
68299.0
 21
36.0
 31
0.0
  0
LINE
  5
486
  8
MyLines
 10
68496.0
 20
67.5
 30
0.0
 11
68996.0
 21
67.5
 31
0.0
  0
LINE
  5
487
  8
MyLines
 10
68496.0
 20
0.0
 30
0.0
 11
68996.0
 21
0.0
 31
0.0
  0
LINE
  5
488
  8
MyLines
 10
68496.0
 20
0.0
 30
0.0
 11
68496.0
 21
67.5
 31
0.0
  0
LINE
  5
489
  8
MyLines
 10
68996.0
 20
0.0
 30
0.0
 11
68996.0
 21
67.5
 31
0.0
  0
TEXT
  5
48A
  8
MyLines
 62
1
 10
68747.0
 20
1.0
 30
0.0
 40
1.0
  1
7645-B
 11
68747.0
 21
1.0
 31
0.0
  0
TEXT
  5
48B
  8
MyLines
 62
1
 10
68497.0
 20
1.0
 30
0.0
 40
1.0
  1
7645-A
 11
68497.0
 21
1.0
 31
0.0
  0
LINE
  5
48C
  8
MyLines
 10
68746.0
 20
0.0
 30
0.0
 11
68746.0
 21
67.5
 31
0.0
  0
LINE
  5
48D
  8
MyLines
 10
68998.0
 20
63.5
 30
0.0
 11
69470.0
 21
63.5
 31
0.0
  0
LINE
  5
48E
  8
MyLines
 10
68998.0
 20
0.0
 30
0.0
 11
69470.0
 21
0.0
 31
0.0
  0
LINE
  5
48F
  8
MyLines
 10
68998.0
 20
0.0
 30
0.0
 11
68998.0
 21
63.5
 31
0.0
  0
LINE
  5
490
  8
MyLines
 10
69470.0
 20
0.0
 30
0.0
 11
69470.0
 21
63.5
 31
0.0
  0
TEXT
  5
491
  8
MyLines
 62
1
 10
69235.0
 20
1.0
 30
0.0
 40
1.0
  1
7646-B
 11
69235.0
 21
1.0
 31
0.0
  0
TEXT
  5
492
  8
MyLines
 62
1
 10
68999.0
 20
1.0
 30
0.0
 40
1.0
  1
7646-A
 11
68999.0
 21
1.0
 31
0.0
  0
LINE
  5
493
  8
MyLines
 10
69234.0
 20
0.0
 30
0.0
 11
69234.0
 21
63.5
 31
0.0
  0
LINE
  5
494
  8
MyLines
 10
69472.0
 20
75.0
 30
0.0
 11
69824.0
 21
75.0
 31
0.0
  0
LINE
  5
495
  8
MyLines
 10
69472.0
 20
0.0
 30
0.0
 11
69824.0
 21
0.0
 31
0.0
  0
LINE
  5
496
  8
MyLines
 10
69472.0
 20
0.0
 30
0.0
 11
69472.0
 21
75.0
 31
0.0
  0
LINE
  5
497
  8
MyLines
 10
69824.0
 20
0.0
 30
0.0
 11
69824.0
 21
75.0
 31
0.0
  0
TEXT
  5
498
  8
MyLines
 62
1
 10
69649.0
 20
1.0
 30
0.0
 40
1.0
  1
7647-B
 11
69649.0
 21
1.0
 31
0.0
  0
TEXT
  5
499
  8
MyLines
 62
1
 10
69473.0
 20
1.0
 30
0.0
 40
1.0
  1
7647-A
 11
69473.0
 21
1.0
 31
0.0
  0
LINE
  5
49A
  8
MyLines
 10
69648.0
 20
0.0
 30
0.0
 11
69648.0
 21
75.0
 31
0.0
  0
LINE
  5
49B
  8
MyLines
 10
69826.0
 20
71.0
 30
0.0
 11
70380.0
 21
71.0
 31
0.0
  0
LINE
  5
49C
  8
MyLines
 10
69826.0
 20
0.0
 30
0.0
 11
70380.0
 21
0.0
 31
0.0
  0
LINE
  5
49D
  8
MyLines
 10
69826.0
 20
0.0
 30
0.0
 11
69826.0
 21
71.0
 31
0.0
  0
LINE
  5
49E
  8
MyLines
 10
70380.0
 20
0.0
 30
0.0
 11
70380.0
 21
71.0
 31
0.0
  0
TEXT
  5
49F
  8
MyLines
 62
1
 10
70104.0
 20
1.0
 30
0.0
 40
1.0
  1
7648-B
 11
70104.0
 21
1.0
 31
0.0
  0
TEXT
  5
4A0
  8
MyLines
 62
1
 10
69827.0
 20
1.0
 30
0.0
 40
1.0
  1
7648-A
 11
69827.0
 21
1.0
 31
0.0
  0
LINE
  5
4A1
  8
MyLines
 10
70103.0
 20
0.0
 30
0.0
 11
70103.0
 21
71.0
 31
0.0
  0
LINE
  5
4A2
  8
MyLines
 10
70382.0
 20
42.5
 30
0.0
 11
70870.0
 21
42.5
 31
0.0
  0
LINE
  5
4A3
  8
MyLines
 10
70382.0
 20
0.0
 30
0.0
 11
70870.0
 21
0.0
 31
0.0
  0
LINE
  5
4A4
  8
MyLines
 10
70382.0
 20
0.0
 30
0.0
 11
70382.0
 21
42.5
 31
0.0
  0
LINE
  5
4A5
  8
MyLines
 10
70870.0
 20
0.0
 30
0.0
 11
70870.0
 21
42.5
 31
0.0
  0
TEXT
  5
4A6
  8
MyLines
 62
1
 10
70627.0
 20
1.0
 30
0.0
 40
1.0
  1
7649-B
 11
70627.0
 21
1.0
 31
0.0
  0
TEXT
  5
4A7
  8
MyLines
 62
1
 10
70383.0
 20
1.0
 30
0.0
 40
1.0
  1
7649-A
 11
70383.0
 21
1.0
 31
0.0
  0
LINE
  5
4A8
  8
MyLines
 10
70626.0
 20
0.0
 30
0.0
 11
70626.0
 21
42.5
 31
0.0
  0
LINE
  5
4A9
  8
MyLines
 10
70872.0
 20
66.5
 30
0.0
 11
71468.0
 21
66.5
 31
0.0
  0
LINE
  5
4AA
  8
MyLines
 10
70872.0
 20
0.0
 30
0.0
 11
71468.0
 21
0.0
 31
0.0
  0
LINE
  5
4AB
  8
MyLines
 10
70872.0
 20
0.0
 30
0.0
 11
70872.0
 21
66.5
 31
0.0
  0
LINE
  5
4AC
  8
MyLines
 10
71468.0
 20
0.0
 30
0.0
 11
71468.0
 21
66.5
 31
0.0
  0
TEXT
  5
4AD
  8
MyLines
 62
1
 10
71171.0
 20
1.0
 30
0.0
 40
1.0
  1
7650-B
 11
71171.0
 21
1.0
 31
0.0
  0
TEXT
  5
4AE
  8
MyLines
 62
1
 10
70873.0
 20
1.0
 30
0.0
 40
1.0
  1
7650-A
 11
70873.0
 21
1.0
 31
0.0
  0
LINE
  5
4AF
  8
MyLines
 10
71170.0
 20
0.0
 30
0.0
 11
71170.0
 21
66.5
 31
0.0
  0
LINE
  5
4B0
  8
MyLines
 10
71470.0
 20
85.0
 30
0.0
 11
71982.0
 21
85.0
 31
0.0
  0
LINE
  5
4B1
  8
MyLines
 10
71470.0
 20
0.0
 30
0.0
 11
71982.0
 21
0.0
 31
0.0
  0
LINE
  5
4B2
  8
MyLines
 10
71470.0
 20
0.0
 30
0.0
 11
71470.0
 21
85.0
 31
0.0
  0
LINE
  5
4B3
  8
MyLines
 10
71982.0
 20
0.0
 30
0.0
 11
71982.0
 21
85.0
 31
0.0
  0
TEXT
  5
4B4
  8
MyLines
 62
1
 10
71727.0
 20
1.0
 30
0.0
 40
1.0
  1
7651-B
 11
71727.0
 21
1.0
 31
0.0
  0
TEXT
  5
4B5
  8
MyLines
 62
1
 10
71471.0
 20
1.0
 30
0.0
 40
1.0
  1
7651-A
 11
71471.0
 21
1.0
 31
0.0
  0
LINE
  5
4B6
  8
MyLines
 10
71726.0
 20
0.0
 30
0.0
 11
71726.0
 21
85.0
 31
0.0
  0
LINE
  5
4B7
  8
MyLines
 10
71984.0
 20
90.0
 30
0.0
 11
72386.0
 21
90.0
 31
0.0
  0
LINE
  5
4B8
  8
MyLines
 10
71984.0
 20
0.0
 30
0.0
 11
72386.0
 21
0.0
 31
0.0
  0
LINE
  5
4B9
  8
MyLines
 10
71984.0
 20
0.0
 30
0.0
 11
71984.0
 21
90.0
 31
0.0
  0
LINE
  5
4BA
  8
MyLines
 10
72386.0
 20
0.0
 30
0.0
 11
72386.0
 21
90.0
 31
0.0
  0
TEXT
  5
4BB
  8
MyLines
 62
1
 10
72186.0
 20
1.0
 30
0.0
 40
1.0
  1
7652-B
 11
72186.0
 21
1.0
 31
0.0
  0
TEXT
  5
4BC
  8
MyLines
 62
1
 10
71985.0
 20
1.0
 30
0.0
 40
1.0
  1
7652-A
 11
71985.0
 21
1.0
 31
0.0
  0
LINE
  5
4BD
  8
MyLines
 10
72185.0
 20
0.0
 30
0.0
 11
72185.0
 21
90.0
 31
0.0
  0
LINE
  5
4BE
  8
MyLines
 10
72388.0
 20
50.5
 30
0.0
 11
72888.0
 21
50.5
 31
0.0
  0
LINE
  5
4BF
  8
MyLines
 10
72388.0
 20
0.0
 30
0.0
 11
72888.0
 21
0.0
 31
0.0
  0
LINE
  5
4C0
  8
MyLines
 10
72388.0
 20
0.0
 30
0.0
 11
72388.0
 21
50.5
 31
0.0
  0
LINE
  5
4C1
  8
MyLines
 10
72888.0
 20
0.0
 30
0.0
 11
72888.0
 21
50.5
 31
0.0
  0
TEXT
  5
4C2
  8
MyLines
 62
1
 10
72639.0
 20
1.0
 30
0.0
 40
1.0
  1
7653-B
 11
72639.0
 21
1.0
 31
0.0
  0
TEXT
  5
4C3
  8
MyLines
 62
1
 10
72389.0
 20
1.0
 30
0.0
 40
1.0
  1
7653-A
 11
72389.0
 21
1.0
 31
0.0
  0
LINE
  5
4C4
  8
MyLines
 10
72638.0
 20
0.0
 30
0.0
 11
72638.0
 21
50.5
 31
0.0
  0
LINE
  5
4C5
  8
MyLines
 10
72890.0
 20
63.5
 30
0.0
 11
73296.0
 21
63.5
 31
0.0
  0
LINE
  5
4C6
  8
MyLines
 10
72890.0
 20
0.0
 30
0.0
 11
73296.0
 21
0.0
 31
0.0
  0
LINE
  5
4C7
  8
MyLines
 10
72890.0
 20
0.0
 30
0.0
 11
72890.0
 21
63.5
 31
0.0
  0
LINE
  5
4C8
  8
MyLines
 10
73296.0
 20
0.0
 30
0.0
 11
73296.0
 21
63.5
 31
0.0
  0
TEXT
  5
4C9
  8
MyLines
 62
1
 10
73094.0
 20
1.0
 30
0.0
 40
1.0
  1
7654-B
 11
73094.0
 21
1.0
 31
0.0
  0
TEXT
  5
4CA
  8
MyLines
 62
1
 10
72891.0
 20
1.0
 30
0.0
 40
1.0
  1
7654-A
 11
72891.0
 21
1.0
 31
0.0
  0
LINE
  5
4CB
  8
MyLines
 10
73093.0
 20
0.0
 30
0.0
 11
73093.0
 21
63.5
 31
0.0
  0
LINE
  5
4CC
  8
MyLines
 10
73298.0
 20
83.5
 30
0.0
 11
73802.0
 21
83.5
 31
0.0
  0
LINE
  5
4CD
  8
MyLines
 10
73298.0
 20
0.0
 30
0.0
 11
73802.0
 21
0.0
 31
0.0
  0
LINE
  5
4CE
  8
MyLines
 10
73298.0
 20
0.0
 30
0.0
 11
73298.0
 21
83.5
 31
0.0
  0
LINE
  5
4CF
  8
MyLines
 10
73802.0
 20
0.0
 30
0.0
 11
73802.0
 21
83.5
 31
0.0
  0
TEXT
  5
4D0
  8
MyLines
 62
1
 10
73551.0
 20
1.0
 30
0.0
 40
1.0
  1
7655-B
 11
73551.0
 21
1.0
 31
0.0
  0
TEXT
  5
4D1
  8
MyLines
 62
1
 10
73299.0
 20
1.0
 30
0.0
 40
1.0
  1
7655-A
 11
73299.0
 21
1.0
 31
0.0
  0
LINE
  5
4D2
  8
MyLines
 10
73550.0
 20
0.0
 30
0.0
 11
73550.0
 21
83.5
 31
0.0
  0
LINE
  5
4D3
  8
MyLines
 10
73804.0
 20
70.0
 30
0.0
 11
74246.0
 21
70.0
 31
0.0
  0
LINE
  5
4D4
  8
MyLines
 10
73804.0
 20
0.0
 30
0.0
 11
74246.0
 21
0.0
 31
0.0
  0
LINE
  5
4D5
  8
MyLines
 10
73804.0
 20
0.0
 30
0.0
 11
73804.0
 21
70.0
 31
0.0
  0
LINE
  5
4D6
  8
MyLines
 10
74246.0
 20
0.0
 30
0.0
 11
74246.0
 21
70.0
 31
0.0
  0
TEXT
  5
4D7
  8
MyLines
 62
1
 10
74026.0
 20
1.0
 30
0.0
 40
1.0
  1
7656-B
 11
74026.0
 21
1.0
 31
0.0
  0
TEXT
  5
4D8
  8
MyLines
 62
1
 10
73805.0
 20
1.0
 30
0.0
 40
1.0
  1
7656-A
 11
73805.0
 21
1.0
 31
0.0
  0
LINE
  5
4D9
  8
MyLines
 10
74025.0
 20
0.0
 30
0.0
 11
74025.0
 21
70.0
 31
0.0
  0
LINE
  5
4DA
  8
MyLines
 10
74248.0
 20
67.0
 30
0.0
 11
74730.0
 21
67.0
 31
0.0
  0
LINE
  5
4DB
  8
MyLines
 10
74248.0
 20
0.0
 30
0.0
 11
74730.0
 21
0.0
 31
0.0
  0
LINE
  5
4DC
  8
MyLines
 10
74248.0
 20
0.0
 30
0.0
 11
74248.0
 21
67.0
 31
0.0
  0
LINE
  5
4DD
  8
MyLines
 10
74730.0
 20
0.0
 30
0.0
 11
74730.0
 21
67.0
 31
0.0
  0
TEXT
  5
4DE
  8
MyLines
 62
1
 10
74490.0
 20
1.0
 30
0.0
 40
1.0
  1
7657-B
 11
74490.0
 21
1.0
 31
0.0
  0
TEXT
  5
4DF
  8
MyLines
 62
1
 10
74249.0
 20
1.0
 30
0.0
 40
1.0
  1
7657-A
 11
74249.0
 21
1.0
 31
0.0
  0
LINE
  5
4E0
  8
MyLines
 10
74489.0
 20
0.0
 30
0.0
 11
74489.0
 21
67.0
 31
0.0
  0
LINE
  5
4E1
  8
MyLines
 10
74732.0
 20
74.5
 30
0.0
 11
75176.0
 21
74.5
 31
0.0
  0
LINE
  5
4E2
  8
MyLines
 10
74732.0
 20
0.0
 30
0.0
 11
75176.0
 21
0.0
 31
0.0
  0
LINE
  5
4E3
  8
MyLines
 10
74732.0
 20
0.0
 30
0.0
 11
74732.0
 21
74.5
 31
0.0
  0
LINE
  5
4E4
  8
MyLines
 10
75176.0
 20
0.0
 30
0.0
 11
75176.0
 21
74.5
 31
0.0
  0
TEXT
  5
4E5
  8
MyLines
 62
1
 10
74955.0
 20
1.0
 30
0.0
 40
1.0
  1
7658-B
 11
74955.0
 21
1.0
 31
0.0
  0
TEXT
  5
4E6
  8
MyLines
 62
1
 10
74733.0
 20
1.0
 30
0.0
 40
1.0
  1
7658-A
 11
74733.0
 21
1.0
 31
0.0
  0
LINE
  5
4E7
  8
MyLines
 10
74954.0
 20
0.0
 30
0.0
 11
74954.0
 21
74.5
 31
0.0
  0
LINE
  5
4E8
  8
MyLines
 10
75178.0
 20
88.5
 30
0.0
 11
75530.0
 21
88.5
 31
0.0
  0
LINE
  5
4E9
  8
MyLines
 10
75178.0
 20
0.0
 30
0.0
 11
75530.0
 21
0.0
 31
0.0
  0
LINE
  5
4EA
  8
MyLines
 10
75178.0
 20
0.0
 30
0.0
 11
75178.0
 21
88.5
 31
0.0
  0
LINE
  5
4EB
  8
MyLines
 10
75530.0
 20
0.0
 30
0.0
 11
75530.0
 21
88.5
 31
0.0
  0
TEXT
  5
4EC
  8
MyLines
 62
1
 10
75355.0
 20
1.0
 30
0.0
 40
1.0
  1
7659-B
 11
75355.0
 21
1.0
 31
0.0
  0
TEXT
  5
4ED
  8
MyLines
 62
1
 10
75179.0
 20
1.0
 30
0.0
 40
1.0
  1
7659-A
 11
75179.0
 21
1.0
 31
0.0
  0
LINE
  5
4EE
  8
MyLines
 10
75354.0
 20
0.0
 30
0.0
 11
75354.0
 21
88.5
 31
0.0
  0
LINE
  5
4EF
  8
MyLines
 10
75532.0
 20
71.5
 30
0.0
 11
76050.0
 21
71.5
 31
0.0
  0
LINE
  5
4F0
  8
MyLines
 10
75532.0
 20
0.0
 30
0.0
 11
76050.0
 21
0.0
 31
0.0
  0
LINE
  5
4F1
  8
MyLines
 10
75532.0
 20
0.0
 30
0.0
 11
75532.0
 21
71.5
 31
0.0
  0
LINE
  5
4F2
  8
MyLines
 10
76050.0
 20
0.0
 30
0.0
 11
76050.0
 21
71.5
 31
0.0
  0
TEXT
  5
4F3
  8
MyLines
 62
1
 10
75792.0
 20
1.0
 30
0.0
 40
1.0
  1
7660-B
 11
75792.0
 21
1.0
 31
0.0
  0
TEXT
  5
4F4
  8
MyLines
 62
1
 10
75533.0
 20
1.0
 30
0.0
 40
1.0
  1
7660-A
 11
75533.0
 21
1.0
 31
0.0
  0
LINE
  5
4F5
  8
MyLines
 10
75791.0
 20
0.0
 30
0.0
 11
75791.0
 21
71.5
 31
0.0
  0
LINE
  5
4F6
  8
MyLines
 10
76052.0
 20
68.0
 30
0.0
 11
76598.0
 21
68.0
 31
0.0
  0
LINE
  5
4F7
  8
MyLines
 10
76052.0
 20
0.0
 30
0.0
 11
76598.0
 21
0.0
 31
0.0
  0
LINE
  5
4F8
  8
MyLines
 10
76052.0
 20
0.0
 30
0.0
 11
76052.0
 21
68.0
 31
0.0
  0
LINE
  5
4F9
  8
MyLines
 10
76598.0
 20
0.0
 30
0.0
 11
76598.0
 21
68.0
 31
0.0
  0
TEXT
  5
4FA
  8
MyLines
 62
1
 10
76326.0
 20
1.0
 30
0.0
 40
1.0
  1
7661-B
 11
76326.0
 21
1.0
 31
0.0
  0
TEXT
  5
4FB
  8
MyLines
 62
1
 10
76053.0
 20
1.0
 30
0.0
 40
1.0
  1
7661-A
 11
76053.0
 21
1.0
 31
0.0
  0
LINE
  5
4FC
  8
MyLines
 10
76325.0
 20
0.0
 30
0.0
 11
76325.0
 21
68.0
 31
0.0
  0
LINE
  5
4FD
  8
MyLines
 10
76600.0
 20
89.5
 30
0.0
 11
77064.0
 21
89.5
 31
0.0
  0
LINE
  5
4FE
  8
MyLines
 10
76600.0
 20
0.0
 30
0.0
 11
77064.0
 21
0.0
 31
0.0
  0
LINE
  5
4FF
  8
MyLines
 10
76600.0
 20
0.0
 30
0.0
 11
76600.0
 21
89.5
 31
0.0
  0
LINE
  5
500
  8
MyLines
 10
77064.0
 20
0.0
 30
0.0
 11
77064.0
 21
89.5
 31
0.0
  0
TEXT
  5
501
  8
MyLines
 62
1
 10
76833.0
 20
1.0
 30
0.0
 40
1.0
  1
7662-B
 11
76833.0
 21
1.0
 31
0.0
  0
TEXT
  5
502
  8
MyLines
 62
1
 10
76601.0
 20
1.0
 30
0.0
 40
1.0
  1
7662-A
 11
76601.0
 21
1.0
 31
0.0
  0
LINE
  5
503
  8
MyLines
 10
76832.0
 20
0.0
 30
0.0
 11
76832.0
 21
89.5
 31
0.0
  0
LINE
  5
504
  8
MyLines
 10
77066.0
 20
56.5
 30
0.0
 11
77628.0
 21
56.5
 31
0.0
  0
LINE
  5
505
  8
MyLines
 10
77066.0
 20
0.0
 30
0.0
 11
77628.0
 21
0.0
 31
0.0
  0
LINE
  5
506
  8
MyLines
 10
77066.0
 20
0.0
 30
0.0
 11
77066.0
 21
56.5
 31
0.0
  0
LINE
  5
507
  8
MyLines
 10
77628.0
 20
0.0
 30
0.0
 11
77628.0
 21
56.5
 31
0.0
  0
TEXT
  5
508
  8
MyLines
 62
1
 10
77348.0
 20
1.0
 30
0.0
 40
1.0
  1
7663-B
 11
77348.0
 21
1.0
 31
0.0
  0
TEXT
  5
509
  8
MyLines
 62
1
 10
77067.0
 20
1.0
 30
0.0
 40
1.0
  1
7663-A
 11
77067.0
 21
1.0
 31
0.0
  0
LINE
  5
50A
  8
MyLines
 10
77347.0
 20
0.0
 30
0.0
 11
77347.0
 21
56.5
 31
0.0
  0
LINE
  5
50B
  8
MyLines
 10
77630.0
 20
80.0
 30
0.0
 11
78212.0
 21
80.0
 31
0.0
  0
LINE
  5
50C
  8
MyLines
 10
77630.0
 20
0.0
 30
0.0
 11
78212.0
 21
0.0
 31
0.0
  0
LINE
  5
50D
  8
MyLines
 10
77630.0
 20
0.0
 30
0.0
 11
77630.0
 21
80.0
 31
0.0
  0
LINE
  5
50E
  8
MyLines
 10
78212.0
 20
0.0
 30
0.0
 11
78212.0
 21
80.0
 31
0.0
  0
TEXT
  5
50F
  8
MyLines
 62
1
 10
77922.0
 20
1.0
 30
0.0
 40
1.0
  1
7664-B
 11
77922.0
 21
1.0
 31
0.0
  0
TEXT
  5
510
  8
MyLines
 62
1
 10
77631.0
 20
1.0
 30
0.0
 40
1.0
  1
7664-A
 11
77631.0
 21
1.0
 31
0.0
  0
LINE
  5
511
  8
MyLines
 10
77921.0
 20
0.0
 30
0.0
 11
77921.0
 21
80.0
 31
0.0
  0
LINE
  5
512
  8
MyLines
 10
78214.0
 20
74.0
 30
0.0
 11
78762.0
 21
74.0
 31
0.0
  0
LINE
  5
513
  8
MyLines
 10
78214.0
 20
0.0
 30
0.0
 11
78762.0
 21
0.0
 31
0.0
  0
LINE
  5
514
  8
MyLines
 10
78214.0
 20
0.0
 30
0.0
 11
78214.0
 21
74.0
 31
0.0
  0
LINE
  5
515
  8
MyLines
 10
78762.0
 20
0.0
 30
0.0
 11
78762.0
 21
74.0
 31
0.0
  0
TEXT
  5
516
  8
MyLines
 62
1
 10
78489.0
 20
1.0
 30
0.0
 40
1.0
  1
7665-B
 11
78489.0
 21
1.0
 31
0.0
  0
TEXT
  5
517
  8
MyLines
 62
1
 10
78215.0
 20
1.0
 30
0.0
 40
1.0
  1
7665-A
 11
78215.0
 21
1.0
 31
0.0
  0
LINE
  5
518
  8
MyLines
 10
78488.0
 20
0.0
 30
0.0
 11
78488.0
 21
74.0
 31
0.0
  0
LINE
  5
519
  8
MyLines
 10
78764.0
 20
39.5
 30
0.0
 11
79316.0
 21
39.5
 31
0.0
  0
LINE
  5
51A
  8
MyLines
 10
78764.0
 20
0.0
 30
0.0
 11
79316.0
 21
0.0
 31
0.0
  0
LINE
  5
51B
  8
MyLines
 10
78764.0
 20
0.0
 30
0.0
 11
78764.0
 21
39.5
 31
0.0
  0
LINE
  5
51C
  8
MyLines
 10
79316.0
 20
0.0
 30
0.0
 11
79316.0
 21
39.5
 31
0.0
  0
TEXT
  5
51D
  8
MyLines
 62
1
 10
79041.0
 20
1.0
 30
0.0
 40
1.0
  1
7666-B
 11
79041.0
 21
1.0
 31
0.0
  0
TEXT
  5
51E
  8
MyLines
 62
1
 10
78765.0
 20
1.0
 30
0.0
 40
1.0
  1
7666-A
 11
78765.0
 21
1.0
 31
0.0
  0
LINE
  5
51F
  8
MyLines
 10
79040.0
 20
0.0
 30
0.0
 11
79040.0
 21
39.5
 31
0.0
  0
LINE
  5
520
  8
MyLines
 10
79318.0
 20
70.5
 30
0.0
 11
79886.0
 21
70.5
 31
0.0
  0
LINE
  5
521
  8
MyLines
 10
79318.0
 20
0.0
 30
0.0
 11
79886.0
 21
0.0
 31
0.0
  0
LINE
  5
522
  8
MyLines
 10
79318.0
 20
0.0
 30
0.0
 11
79318.0
 21
70.5
 31
0.0
  0
LINE
  5
523
  8
MyLines
 10
79886.0
 20
0.0
 30
0.0
 11
79886.0
 21
70.5
 31
0.0
  0
TEXT
  5
524
  8
MyLines
 62
1
 10
79603.0
 20
1.0
 30
0.0
 40
1.0
  1
7667-B
 11
79603.0
 21
1.0
 31
0.0
  0
TEXT
  5
525
  8
MyLines
 62
1
 10
79319.0
 20
1.0
 30
0.0
 40
1.0
  1
7667-A
 11
79319.0
 21
1.0
 31
0.0
  0
LINE
  5
526
  8
MyLines
 10
79602.0
 20
0.0
 30
0.0
 11
79602.0
 21
70.5
 31
0.0
  0
LINE
  5
527
  8
MyLines
 10
79888.0
 20
67.5
 30
0.0
 11
80414.0
 21
67.5
 31
0.0
  0
LINE
  5
528
  8
MyLines
 10
79888.0
 20
0.0
 30
0.0
 11
80414.0
 21
0.0
 31
0.0
  0
LINE
  5
529
  8
MyLines
 10
79888.0
 20
0.0
 30
0.0
 11
79888.0
 21
67.5
 31
0.0
  0
LINE
  5
52A
  8
MyLines
 10
80414.0
 20
0.0
 30
0.0
 11
80414.0
 21
67.5
 31
0.0
  0
TEXT
  5
52B
  8
MyLines
 62
1
 10
80152.0
 20
1.0
 30
0.0
 40
1.0
  1
7668-B
 11
80152.0
 21
1.0
 31
0.0
  0
TEXT
  5
52C
  8
MyLines
 62
1
 10
79889.0
 20
1.0
 30
0.0
 40
1.0
  1
7668-A
 11
79889.0
 21
1.0
 31
0.0
  0
LINE
  5
52D
  8
MyLines
 10
80151.0
 20
0.0
 30
0.0
 11
80151.0
 21
67.5
 31
0.0
  0
LINE
  5
52E
  8
MyLines
 10
80416.0
 20
83.5
 30
0.0
 11
80886.0
 21
83.5
 31
0.0
  0
LINE
  5
52F
  8
MyLines
 10
80416.0
 20
0.0
 30
0.0
 11
80886.0
 21
0.0
 31
0.0
  0
LINE
  5
530
  8
MyLines
 10
80416.0
 20
0.0
 30
0.0
 11
80416.0
 21
83.5
 31
0.0
  0
LINE
  5
531
  8
MyLines
 10
80886.0
 20
0.0
 30
0.0
 11
80886.0
 21
83.5
 31
0.0
  0
TEXT
  5
532
  8
MyLines
 62
1
 10
80652.0
 20
1.0
 30
0.0
 40
1.0
  1
7669-B
 11
80652.0
 21
1.0
 31
0.0
  0
TEXT
  5
533
  8
MyLines
 62
1
 10
80417.0
 20
1.0
 30
0.0
 40
1.0
  1
7669-A
 11
80417.0
 21
1.0
 31
0.0
  0
LINE
  5
534
  8
MyLines
 10
80651.0
 20
0.0
 30
0.0
 11
80651.0
 21
83.5
 31
0.0
  0
LINE
  5
535
  8
MyLines
 10
80888.0
 20
35.0
 30
0.0
 11
81326.0
 21
35.0
 31
0.0
  0
LINE
  5
536
  8
MyLines
 10
80888.0
 20
0.0
 30
0.0
 11
81326.0
 21
0.0
 31
0.0
  0
LINE
  5
537
  8
MyLines
 10
80888.0
 20
0.0
 30
0.0
 11
80888.0
 21
35.0
 31
0.0
  0
LINE
  5
538
  8
MyLines
 10
81326.0
 20
0.0
 30
0.0
 11
81326.0
 21
35.0
 31
0.0
  0
TEXT
  5
539
  8
MyLines
 62
1
 10
81108.0
 20
1.0
 30
0.0
 40
1.0
  1
7670-B
 11
81108.0
 21
1.0
 31
0.0
  0
TEXT
  5
53A
  8
MyLines
 62
1
 10
80889.0
 20
1.0
 30
0.0
 40
1.0
  1
7670-A
 11
80889.0
 21
1.0
 31
0.0
  0
LINE
  5
53B
  8
MyLines
 10
81107.0
 20
0.0
 30
0.0
 11
81107.0
 21
35.0
 31
0.0
  0
LINE
  5
53C
  8
MyLines
 10
81328.0
 20
70.0
 30
0.0
 11
81906.0
 21
70.0
 31
0.0
  0
LINE
  5
53D
  8
MyLines
 10
81328.0
 20
0.0
 30
0.0
 11
81906.0
 21
0.0
 31
0.0
  0
LINE
  5
53E
  8
MyLines
 10
81328.0
 20
0.0
 30
0.0
 11
81328.0
 21
70.0
 31
0.0
  0
LINE
  5
53F
  8
MyLines
 10
81906.0
 20
0.0
 30
0.0
 11
81906.0
 21
70.0
 31
0.0
  0
TEXT
  5
540
  8
MyLines
 62
1
 10
81618.0
 20
1.0
 30
0.0
 40
1.0
  1
7671-B
 11
81618.0
 21
1.0
 31
0.0
  0
TEXT
  5
541
  8
MyLines
 62
1
 10
81329.0
 20
1.0
 30
0.0
 40
1.0
  1
7671-A
 11
81329.0
 21
1.0
 31
0.0
  0
LINE
  5
542
  8
MyLines
 10
81617.0
 20
0.0
 30
0.0
 11
81617.0
 21
70.0
 31
0.0
  0
LINE
  5
543
  8
MyLines
 10
81908.0
 20
69.0
 30
0.0
 11
82456.0
 21
69.0
 31
0.0
  0
LINE
  5
544
  8
MyLines
 10
81908.0
 20
0.0
 30
0.0
 11
82456.0
 21
0.0
 31
0.0
  0
LINE
  5
545
  8
MyLines
 10
81908.0
 20
0.0
 30
0.0
 11
81908.0
 21
69.0
 31
0.0
  0
LINE
  5
546
  8
MyLines
 10
82456.0
 20
0.0
 30
0.0
 11
82456.0
 21
69.0
 31
0.0
  0
TEXT
  5
547
  8
MyLines
 62
1
 10
82183.0
 20
1.0
 30
0.0
 40
1.0
  1
7672-B
 11
82183.0
 21
1.0
 31
0.0
  0
TEXT
  5
548
  8
MyLines
 62
1
 10
81909.0
 20
1.0
 30
0.0
 40
1.0
  1
7672-A
 11
81909.0
 21
1.0
 31
0.0
  0
LINE
  5
549
  8
MyLines
 10
82182.0
 20
0.0
 30
0.0
 11
82182.0
 21
69.0
 31
0.0
  0
LINE
  5
54A
  8
MyLines
 10
82458.0
 20
66.5
 30
0.0
 11
82832.0
 21
66.5
 31
0.0
  0
LINE
  5
54B
  8
MyLines
 10
82458.0
 20
0.0
 30
0.0
 11
82832.0
 21
0.0
 31
0.0
  0
LINE
  5
54C
  8
MyLines
 10
82458.0
 20
0.0
 30
0.0
 11
82458.0
 21
66.5
 31
0.0
  0
LINE
  5
54D
  8
MyLines
 10
82832.0
 20
0.0
 30
0.0
 11
82832.0
 21
66.5
 31
0.0
  0
TEXT
  5
54E
  8
MyLines
 62
1
 10
82646.0
 20
1.0
 30
0.0
 40
1.0
  1
7673-B
 11
82646.0
 21
1.0
 31
0.0
  0
TEXT
  5
54F
  8
MyLines
 62
1
 10
82459.0
 20
1.0
 30
0.0
 40
1.0
  1
7673-A
 11
82459.0
 21
1.0
 31
0.0
  0
LINE
  5
550
  8
MyLines
 10
82645.0
 20
0.0
 30
0.0
 11
82645.0
 21
66.5
 31
0.0
  0
LINE
  5
551
  8
MyLines
 10
82834.0
 20
51.0
 30
0.0
 11
83304.0
 21
51.0
 31
0.0
  0
LINE
  5
552
  8
MyLines
 10
82834.0
 20
0.0
 30
0.0
 11
83304.0
 21
0.0
 31
0.0
  0
LINE
  5
553
  8
MyLines
 10
82834.0
 20
0.0
 30
0.0
 11
82834.0
 21
51.0
 31
0.0
  0
LINE
  5
554
  8
MyLines
 10
83304.0
 20
0.0
 30
0.0
 11
83304.0
 21
51.0
 31
0.0
  0
TEXT
  5
555
  8
MyLines
 62
1
 10
83070.0
 20
1.0
 30
0.0
 40
1.0
  1
7674-B
 11
83070.0
 21
1.0
 31
0.0
  0
TEXT
  5
556
  8
MyLines
 62
1
 10
82835.0
 20
1.0
 30
0.0
 40
1.0
  1
7674-A
 11
82835.0
 21
1.0
 31
0.0
  0
LINE
  5
557
  8
MyLines
 10
83069.0
 20
0.0
 30
0.0
 11
83069.0
 21
51.0
 31
0.0
  0
LINE
  5
558
  8
MyLines
 10
83306.0
 20
48.5
 30
0.0
 11
83818.0
 21
48.5
 31
0.0
  0
LINE
  5
559
  8
MyLines
 10
83306.0
 20
0.0
 30
0.0
 11
83818.0
 21
0.0
 31
0.0
  0
LINE
  5
55A
  8
MyLines
 10
83306.0
 20
0.0
 30
0.0
 11
83306.0
 21
48.5
 31
0.0
  0
LINE
  5
55B
  8
MyLines
 10
83818.0
 20
0.0
 30
0.0
 11
83818.0
 21
48.5
 31
0.0
  0
TEXT
  5
55C
  8
MyLines
 62
1
 10
83563.0
 20
1.0
 30
0.0
 40
1.0
  1
7675-B
 11
83563.0
 21
1.0
 31
0.0
  0
TEXT
  5
55D
  8
MyLines
 62
1
 10
83307.0
 20
1.0
 30
0.0
 40
1.0
  1
7675-A
 11
83307.0
 21
1.0
 31
0.0
  0
LINE
  5
55E
  8
MyLines
 10
83562.0
 20
0.0
 30
0.0
 11
83562.0
 21
48.5
 31
0.0
  0
LINE
  5
55F
  8
MyLines
 10
83820.0
 20
51.0
 30
0.0
 11
84274.0
 21
51.0
 31
0.0
  0
LINE
  5
560
  8
MyLines
 10
83820.0
 20
0.0
 30
0.0
 11
84274.0
 21
0.0
 31
0.0
  0
LINE
  5
561
  8
MyLines
 10
83820.0
 20
0.0
 30
0.0
 11
83820.0
 21
51.0
 31
0.0
  0
LINE
  5
562
  8
MyLines
 10
84274.0
 20
0.0
 30
0.0
 11
84274.0
 21
51.0
 31
0.0
  0
TEXT
  5
563
  8
MyLines
 62
1
 10
84048.0
 20
1.0
 30
0.0
 40
1.0
  1
7676-B
 11
84048.0
 21
1.0
 31
0.0
  0
TEXT
  5
564
  8
MyLines
 62
1
 10
83821.0
 20
1.0
 30
0.0
 40
1.0
  1
7676-A
 11
83821.0
 21
1.0
 31
0.0
  0
LINE
  5
565
  8
MyLines
 10
84047.0
 20
0.0
 30
0.0
 11
84047.0
 21
51.0
 31
0.0
  0
LINE
  5
566
  8
MyLines
 10
84276.0
 20
46.5
 30
0.0
 11
84814.0
 21
46.5
 31
0.0
  0
LINE
  5
567
  8
MyLines
 10
84276.0
 20
0.0
 30
0.0
 11
84814.0
 21
0.0
 31
0.0
  0
LINE
  5
568
  8
MyLines
 10
84276.0
 20
0.0
 30
0.0
 11
84276.0
 21
46.5
 31
0.0
  0
LINE
  5
569
  8
MyLines
 10
84814.0
 20
0.0
 30
0.0
 11
84814.0
 21
46.5
 31
0.0
  0
TEXT
  5
56A
  8
MyLines
 62
1
 10
84546.0
 20
1.0
 30
0.0
 40
1.0
  1
7677-B
 11
84546.0
 21
1.0
 31
0.0
  0
TEXT
  5
56B
  8
MyLines
 62
1
 10
84277.0
 20
1.0
 30
0.0
 40
1.0
  1
7677-A
 11
84277.0
 21
1.0
 31
0.0
  0
LINE
  5
56C
  8
MyLines
 10
84545.0
 20
0.0
 30
0.0
 11
84545.0
 21
46.5
 31
0.0
  0
LINE
  5
56D
  8
MyLines
 10
84816.0
 20
48.0
 30
0.0
 11
85226.0
 21
48.0
 31
0.0
  0
LINE
  5
56E
  8
MyLines
 10
84816.0
 20
0.0
 30
0.0
 11
85226.0
 21
0.0
 31
0.0
  0
LINE
  5
56F
  8
MyLines
 10
84816.0
 20
0.0
 30
0.0
 11
84816.0
 21
48.0
 31
0.0
  0
LINE
  5
570
  8
MyLines
 10
85226.0
 20
0.0
 30
0.0
 11
85226.0
 21
48.0
 31
0.0
  0
TEXT
  5
571
  8
MyLines
 62
1
 10
85022.0
 20
1.0
 30
0.0
 40
1.0
  1
7678-B
 11
85022.0
 21
1.0
 31
0.0
  0
TEXT
  5
572
  8
MyLines
 62
1
 10
84817.0
 20
1.0
 30
0.0
 40
1.0
  1
7678-A
 11
84817.0
 21
1.0
 31
0.0
  0
LINE
  5
573
  8
MyLines
 10
85021.0
 20
0.0
 30
0.0
 11
85021.0
 21
48.0
 31
0.0
  0
LINE
  5
574
  8
MyLines
 10
85228.0
 20
52.5
 30
0.0
 11
85772.0
 21
52.5
 31
0.0
  0
LINE
  5
575
  8
MyLines
 10
85228.0
 20
0.0
 30
0.0
 11
85772.0
 21
0.0
 31
0.0
  0
LINE
  5
576
  8
MyLines
 10
85228.0
 20
0.0
 30
0.0
 11
85228.0
 21
52.5
 31
0.0
  0
LINE
  5
577
  8
MyLines
 10
85772.0
 20
0.0
 30
0.0
 11
85772.0
 21
52.5
 31
0.0
  0
TEXT
  5
578
  8
MyLines
 62
1
 10
85501.0
 20
1.0
 30
0.0
 40
1.0
  1
7679-B
 11
85501.0
 21
1.0
 31
0.0
  0
TEXT
  5
579
  8
MyLines
 62
1
 10
85229.0
 20
1.0
 30
0.0
 40
1.0
  1
7679-A
 11
85229.0
 21
1.0
 31
0.0
  0
LINE
  5
57A
  8
MyLines
 10
85500.0
 20
0.0
 30
0.0
 11
85500.0
 21
52.5
 31
0.0
  0
LINE
  5
57B
  8
MyLines
 10
85774.0
 20
56.5
 30
0.0
 11
86366.0
 21
56.5
 31
0.0
  0
LINE
  5
57C
  8
MyLines
 10
85774.0
 20
0.0
 30
0.0
 11
86366.0
 21
0.0
 31
0.0
  0
LINE
  5
57D
  8
MyLines
 10
85774.0
 20
0.0
 30
0.0
 11
85774.0
 21
56.5
 31
0.0
  0
LINE
  5
57E
  8
MyLines
 10
86366.0
 20
0.0
 30
0.0
 11
86366.0
 21
56.5
 31
0.0
  0
TEXT
  5
57F
  8
MyLines
 62
1
 10
86071.0
 20
1.0
 30
0.0
 40
1.0
  1
7680-B
 11
86071.0
 21
1.0
 31
0.0
  0
TEXT
  5
580
  8
MyLines
 62
1
 10
85775.0
 20
1.0
 30
0.0
 40
1.0
  1
7680-A
 11
85775.0
 21
1.0
 31
0.0
  0
LINE
  5
581
  8
MyLines
 10
86070.0
 20
0.0
 30
0.0
 11
86070.0
 21
56.5
 31
0.0
  0
LINE
  5
582
  8
MyLines
 10
86368.0
 20
69.5
 30
0.0
 11
86900.0
 21
69.5
 31
0.0
  0
LINE
  5
583
  8
MyLines
 10
86368.0
 20
0.0
 30
0.0
 11
86900.0
 21
0.0
 31
0.0
  0
LINE
  5
584
  8
MyLines
 10
86368.0
 20
0.0
 30
0.0
 11
86368.0
 21
69.5
 31
0.0
  0
LINE
  5
585
  8
MyLines
 10
86900.0
 20
0.0
 30
0.0
 11
86900.0
 21
69.5
 31
0.0
  0
TEXT
  5
586
  8
MyLines
 62
1
 10
86635.0
 20
1.0
 30
0.0
 40
1.0
  1
7681-B
 11
86635.0
 21
1.0
 31
0.0
  0
TEXT
  5
587
  8
MyLines
 62
1
 10
86369.0
 20
1.0
 30
0.0
 40
1.0
  1
7681-A
 11
86369.0
 21
1.0
 31
0.0
  0
LINE
  5
588
  8
MyLines
 10
86634.0
 20
0.0
 30
0.0
 11
86634.0
 21
69.5
 31
0.0
  0
LINE
  5
589
  8
MyLines
 10
86902.0
 20
75.5
 30
0.0
 11
87352.0
 21
75.5
 31
0.0
  0
LINE
  5
58A
  8
MyLines
 10
86902.0
 20
0.0
 30
0.0
 11
87352.0
 21
0.0
 31
0.0
  0
LINE
  5
58B
  8
MyLines
 10
86902.0
 20
0.0
 30
0.0
 11
86902.0
 21
75.5
 31
0.0
  0
LINE
  5
58C
  8
MyLines
 10
87352.0
 20
0.0
 30
0.0
 11
87352.0
 21
75.5
 31
0.0
  0
TEXT
  5
58D
  8
MyLines
 62
1
 10
87128.0
 20
1.0
 30
0.0
 40
1.0
  1
7682-B
 11
87128.0
 21
1.0
 31
0.0
  0
TEXT
  5
58E
  8
MyLines
 62
1
 10
86903.0
 20
1.0
 30
0.0
 40
1.0
  1
7682-A
 11
86903.0
 21
1.0
 31
0.0
  0
LINE
  5
58F
  8
MyLines
 10
87127.0
 20
0.0
 30
0.0
 11
87127.0
 21
75.5
 31
0.0
  0
LINE
  5
590
  8
MyLines
 10
87354.0
 20
61.0
 30
0.0
 11
87954.0
 21
61.0
 31
0.0
  0
LINE
  5
591
  8
MyLines
 10
87354.0
 20
0.0
 30
0.0
 11
87954.0
 21
0.0
 31
0.0
  0
LINE
  5
592
  8
MyLines
 10
87354.0
 20
0.0
 30
0.0
 11
87354.0
 21
61.0
 31
0.0
  0
LINE
  5
593
  8
MyLines
 10
87954.0
 20
0.0
 30
0.0
 11
87954.0
 21
61.0
 31
0.0
  0
TEXT
  5
594
  8
MyLines
 62
1
 10
87655.0
 20
1.0
 30
0.0
 40
1.0
  1
7683-B
 11
87655.0
 21
1.0
 31
0.0
  0
TEXT
  5
595
  8
MyLines
 62
1
 10
87355.0
 20
1.0
 30
0.0
 40
1.0
  1
7683-A
 11
87355.0
 21
1.0
 31
0.0
  0
LINE
  5
596
  8
MyLines
 10
87654.0
 20
0.0
 30
0.0
 11
87654.0
 21
61.0
 31
0.0
  0
LINE
  5
597
  8
MyLines
 10
87956.0
 20
41.5
 30
0.0
 11
88392.0
 21
41.5
 31
0.0
  0
LINE
  5
598
  8
MyLines
 10
87956.0
 20
0.0
 30
0.0
 11
88392.0
 21
0.0
 31
0.0
  0
LINE
  5
599
  8
MyLines
 10
87956.0
 20
0.0
 30
0.0
 11
87956.0
 21
41.5
 31
0.0
  0
LINE
  5
59A
  8
MyLines
 10
88392.0
 20
0.0
 30
0.0
 11
88392.0
 21
41.5
 31
0.0
  0
TEXT
  5
59B
  8
MyLines
 62
1
 10
88175.0
 20
1.0
 30
0.0
 40
1.0
  1
7684-B
 11
88175.0
 21
1.0
 31
0.0
  0
TEXT
  5
59C
  8
MyLines
 62
1
 10
87957.0
 20
1.0
 30
0.0
 40
1.0
  1
7684-A
 11
87957.0
 21
1.0
 31
0.0
  0
LINE
  5
59D
  8
MyLines
 10
88174.0
 20
0.0
 30
0.0
 11
88174.0
 21
41.5
 31
0.0
  0
LINE
  5
59E
  8
MyLines
 10
88394.0
 20
37.5
 30
0.0
 11
88864.0
 21
37.5
 31
0.0
  0
LINE
  5
59F
  8
MyLines
 10
88394.0
 20
0.0
 30
0.0
 11
88864.0
 21
0.0
 31
0.0
  0
LINE
  5
5A0
  8
MyLines
 10
88394.0
 20
0.0
 30
0.0
 11
88394.0
 21
37.5
 31
0.0
  0
LINE
  5
5A1
  8
MyLines
 10
88864.0
 20
0.0
 30
0.0
 11
88864.0
 21
37.5
 31
0.0
  0
TEXT
  5
5A2
  8
MyLines
 62
1
 10
88630.0
 20
1.0
 30
0.0
 40
1.0
  1
7685-B
 11
88630.0
 21
1.0
 31
0.0
  0
TEXT
  5
5A3
  8
MyLines
 62
1
 10
88395.0
 20
1.0
 30
0.0
 40
1.0
  1
7685-A
 11
88395.0
 21
1.0
 31
0.0
  0
LINE
  5
5A4
  8
MyLines
 10
88629.0
 20
0.0
 30
0.0
 11
88629.0
 21
37.5
 31
0.0
  0
LINE
  5
5A5
  8
MyLines
 10
88866.0
 20
62.0
 30
0.0
 11
89330.0
 21
62.0
 31
0.0
  0
LINE
  5
5A6
  8
MyLines
 10
88866.0
 20
0.0
 30
0.0
 11
89330.0
 21
0.0
 31
0.0
  0
LINE
  5
5A7
  8
MyLines
 10
88866.0
 20
0.0
 30
0.0
 11
88866.0
 21
62.0
 31
0.0
  0
LINE
  5
5A8
  8
MyLines
 10
89330.0
 20
0.0
 30
0.0
 11
89330.0
 21
62.0
 31
0.0
  0
TEXT
  5
5A9
  8
MyLines
 62
1
 10
89099.0
 20
1.0
 30
0.0
 40
1.0
  1
7686-B
 11
89099.0
 21
1.0
 31
0.0
  0
TEXT
  5
5AA
  8
MyLines
 62
1
 10
88867.0
 20
1.0
 30
0.0
 40
1.0
  1
7686-A
 11
88867.0
 21
1.0
 31
0.0
  0
LINE
  5
5AB
  8
MyLines
 10
89098.0
 20
0.0
 30
0.0
 11
89098.0
 21
62.0
 31
0.0
  0
LINE
  5
5AC
  8
MyLines
 10
89332.0
 20
39.5
 30
0.0
 11
89762.0
 21
39.5
 31
0.0
  0
LINE
  5
5AD
  8
MyLines
 10
89332.0
 20
0.0
 30
0.0
 11
89762.0
 21
0.0
 31
0.0
  0
LINE
  5
5AE
  8
MyLines
 10
89332.0
 20
0.0
 30
0.0
 11
89332.0
 21
39.5
 31
0.0
  0
LINE
  5
5AF
  8
MyLines
 10
89762.0
 20
0.0
 30
0.0
 11
89762.0
 21
39.5
 31
0.0
  0
TEXT
  5
5B0
  8
MyLines
 62
1
 10
89548.0
 20
1.0
 30
0.0
 40
1.0
  1
7687-B
 11
89548.0
 21
1.0
 31
0.0
  0
TEXT
  5
5B1
  8
MyLines
 62
1
 10
89333.0
 20
1.0
 30
0.0
 40
1.0
  1
7687-A
 11
89333.0
 21
1.0
 31
0.0
  0
LINE
  5
5B2
  8
MyLines
 10
89547.0
 20
0.0
 30
0.0
 11
89547.0
 21
39.5
 31
0.0
  0
LINE
  5
5B3
  8
MyLines
 10
89764.0
 20
60.5
 30
0.0
 11
90196.0
 21
60.5
 31
0.0
  0
LINE
  5
5B4
  8
MyLines
 10
89764.0
 20
0.0
 30
0.0
 11
90196.0
 21
0.0
 31
0.0
  0
LINE
  5
5B5
  8
MyLines
 10
89764.0
 20
0.0
 30
0.0
 11
89764.0
 21
60.5
 31
0.0
  0
LINE
  5
5B6
  8
MyLines
 10
90196.0
 20
0.0
 30
0.0
 11
90196.0
 21
60.5
 31
0.0
  0
TEXT
  5
5B7
  8
MyLines
 62
1
 10
89981.0
 20
1.0
 30
0.0
 40
1.0
  1
7688-B
 11
89981.0
 21
1.0
 31
0.0
  0
TEXT
  5
5B8
  8
MyLines
 62
1
 10
89765.0
 20
1.0
 30
0.0
 40
1.0
  1
7688-A
 11
89765.0
 21
1.0
 31
0.0
  0
LINE
  5
5B9
  8
MyLines
 10
89980.0
 20
0.0
 30
0.0
 11
89980.0
 21
60.5
 31
0.0
  0
LINE
  5
5BA
  8
MyLines
 10
90198.0
 20
89.5
 30
0.0
 11
90670.0
 21
89.5
 31
0.0
  0
LINE
  5
5BB
  8
MyLines
 10
90198.0
 20
0.0
 30
0.0
 11
90670.0
 21
0.0
 31
0.0
  0
LINE
  5
5BC
  8
MyLines
 10
90198.0
 20
0.0
 30
0.0
 11
90198.0
 21
89.5
 31
0.0
  0
LINE
  5
5BD
  8
MyLines
 10
90670.0
 20
0.0
 30
0.0
 11
90670.0
 21
89.5
 31
0.0
  0
TEXT
  5
5BE
  8
MyLines
 62
1
 10
90435.0
 20
1.0
 30
0.0
 40
1.0
  1
7689-B
 11
90435.0
 21
1.0
 31
0.0
  0
TEXT
  5
5BF
  8
MyLines
 62
1
 10
90199.0
 20
1.0
 30
0.0
 40
1.0
  1
7689-A
 11
90199.0
 21
1.0
 31
0.0
  0
LINE
  5
5C0
  8
MyLines
 10
90434.0
 20
0.0
 30
0.0
 11
90434.0
 21
89.5
 31
0.0
  0
LINE
  5
5C1
  8
MyLines
 10
90672.0
 20
76.0
 30
0.0
 11
91270.0
 21
76.0
 31
0.0
  0
LINE
  5
5C2
  8
MyLines
 10
90672.0
 20
0.0
 30
0.0
 11
91270.0
 21
0.0
 31
0.0
  0
LINE
  5
5C3
  8
MyLines
 10
90672.0
 20
0.0
 30
0.0
 11
90672.0
 21
76.0
 31
0.0
  0
LINE
  5
5C4
  8
MyLines
 10
91270.0
 20
0.0
 30
0.0
 11
91270.0
 21
76.0
 31
0.0
  0
TEXT
  5
5C5
  8
MyLines
 62
1
 10
90972.0
 20
1.0
 30
0.0
 40
1.0
  1
7690-B
 11
90972.0
 21
1.0
 31
0.0
  0
TEXT
  5
5C6
  8
MyLines
 62
1
 10
90673.0
 20
1.0
 30
0.0
 40
1.0
  1
7690-A
 11
90673.0
 21
1.0
 31
0.0
  0
LINE
  5
5C7
  8
MyLines
 10
90971.0
 20
0.0
 30
0.0
 11
90971.0
 21
76.0
 31
0.0
  0
LINE
  5
5C8
  8
MyLines
 10
91272.0
 20
80.5
 30
0.0
 11
91864.0
 21
80.5
 31
0.0
  0
LINE
  5
5C9
  8
MyLines
 10
91272.0
 20
0.0
 30
0.0
 11
91864.0
 21
0.0
 31
0.0
  0
LINE
  5
5CA
  8
MyLines
 10
91272.0
 20
0.0
 30
0.0
 11
91272.0
 21
80.5
 31
0.0
  0
LINE
  5
5CB
  8
MyLines
 10
91864.0
 20
0.0
 30
0.0
 11
91864.0
 21
80.5
 31
0.0
  0
TEXT
  5
5CC
  8
MyLines
 62
1
 10
91569.0
 20
1.0
 30
0.0
 40
1.0
  1
7691-B
 11
91569.0
 21
1.0
 31
0.0
  0
TEXT
  5
5CD
  8
MyLines
 62
1
 10
91273.0
 20
1.0
 30
0.0
 40
1.0
  1
7691-A
 11
91273.0
 21
1.0
 31
0.0
  0
LINE
  5
5CE
  8
MyLines
 10
91568.0
 20
0.0
 30
0.0
 11
91568.0
 21
80.5
 31
0.0
  0
LINE
  5
5CF
  8
MyLines
 10
91866.0
 20
50.5
 30
0.0
 11
92454.0
 21
50.5
 31
0.0
  0
LINE
  5
5D0
  8
MyLines
 10
91866.0
 20
0.0
 30
0.0
 11
92454.0
 21
0.0
 31
0.0
  0
LINE
  5
5D1
  8
MyLines
 10
91866.0
 20
0.0
 30
0.0
 11
91866.0
 21
50.5
 31
0.0
  0
LINE
  5
5D2
  8
MyLines
 10
92454.0
 20
0.0
 30
0.0
 11
92454.0
 21
50.5
 31
0.0
  0
TEXT
  5
5D3
  8
MyLines
 62
1
 10
92161.0
 20
1.0
 30
0.0
 40
1.0
  1
7692-B
 11
92161.0
 21
1.0
 31
0.0
  0
TEXT
  5
5D4
  8
MyLines
 62
1
 10
91867.0
 20
1.0
 30
0.0
 40
1.0
  1
7692-A
 11
91867.0
 21
1.0
 31
0.0
  0
LINE
  5
5D5
  8
MyLines
 10
92160.0
 20
0.0
 30
0.0
 11
92160.0
 21
50.5
 31
0.0
  0
LINE
  5
5D6
  8
MyLines
 10
92456.0
 20
73.5
 30
0.0
 11
92940.0
 21
73.5
 31
0.0
  0
LINE
  5
5D7
  8
MyLines
 10
92456.0
 20
0.0
 30
0.0
 11
92940.0
 21
0.0
 31
0.0
  0
LINE
  5
5D8
  8
MyLines
 10
92456.0
 20
0.0
 30
0.0
 11
92456.0
 21
73.5
 31
0.0
  0
LINE
  5
5D9
  8
MyLines
 10
92940.0
 20
0.0
 30
0.0
 11
92940.0
 21
73.5
 31
0.0
  0
TEXT
  5
5DA
  8
MyLines
 62
1
 10
92699.0
 20
1.0
 30
0.0
 40
1.0
  1
7693-B
 11
92699.0
 21
1.0
 31
0.0
  0
TEXT
  5
5DB
  8
MyLines
 62
1
 10
92457.0
 20
1.0
 30
0.0
 40
1.0
  1
7693-A
 11
92457.0
 21
1.0
 31
0.0
  0
LINE
  5
5DC
  8
MyLines
 10
92698.0
 20
0.0
 30
0.0
 11
92698.0
 21
73.5
 31
0.0
  0
LINE
  5
5DD
  8
MyLines
 10
92942.0
 20
48.0
 30
0.0
 11
93322.0
 21
48.0
 31
0.0
  0
LINE
  5
5DE
  8
MyLines
 10
92942.0
 20
0.0
 30
0.0
 11
93322.0
 21
0.0
 31
0.0
  0
LINE
  5
5DF
  8
MyLines
 10
92942.0
 20
0.0
 30
0.0
 11
92942.0
 21
48.0
 31
0.0
  0
LINE
  5
5E0
  8
MyLines
 10
93322.0
 20
0.0
 30
0.0
 11
93322.0
 21
48.0
 31
0.0
  0
TEXT
  5
5E1
  8
MyLines
 62
1
 10
93133.0
 20
1.0
 30
0.0
 40
1.0
  1
7694-B
 11
93133.0
 21
1.0
 31
0.0
  0
TEXT
  5
5E2
  8
MyLines
 62
1
 10
92943.0
 20
1.0
 30
0.0
 40
1.0
  1
7694-A
 11
92943.0
 21
1.0
 31
0.0
  0
LINE
  5
5E3
  8
MyLines
 10
93132.0
 20
0.0
 30
0.0
 11
93132.0
 21
48.0
 31
0.0
  0
LINE
  5
5E4
  8
MyLines
 10
93324.0
 20
70.5
 30
0.0
 11
93824.0
 21
70.5
 31
0.0
  0
LINE
  5
5E5
  8
MyLines
 10
93324.0
 20
0.0
 30
0.0
 11
93824.0
 21
0.0
 31
0.0
  0
LINE
  5
5E6
  8
MyLines
 10
93324.0
 20
0.0
 30
0.0
 11
93324.0
 21
70.5
 31
0.0
  0
LINE
  5
5E7
  8
MyLines
 10
93824.0
 20
0.0
 30
0.0
 11
93824.0
 21
70.5
 31
0.0
  0
TEXT
  5
5E8
  8
MyLines
 62
1
 10
93575.0
 20
1.0
 30
0.0
 40
1.0
  1
7695-B
 11
93575.0
 21
1.0
 31
0.0
  0
TEXT
  5
5E9
  8
MyLines
 62
1
 10
93325.0
 20
1.0
 30
0.0
 40
1.0
  1
7695-A
 11
93325.0
 21
1.0
 31
0.0
  0
LINE
  5
5EA
  8
MyLines
 10
93574.0
 20
0.0
 30
0.0
 11
93574.0
 21
70.5
 31
0.0
  0
LINE
  5
5EB
  8
MyLines
 10
93826.0
 20
62.5
 30
0.0
 11
94262.0
 21
62.5
 31
0.0
  0
LINE
  5
5EC
  8
MyLines
 10
93826.0
 20
0.0
 30
0.0
 11
94262.0
 21
0.0
 31
0.0
  0
LINE
  5
5ED
  8
MyLines
 10
93826.0
 20
0.0
 30
0.0
 11
93826.0
 21
62.5
 31
0.0
  0
LINE
  5
5EE
  8
MyLines
 10
94262.0
 20
0.0
 30
0.0
 11
94262.0
 21
62.5
 31
0.0
  0
TEXT
  5
5EF
  8
MyLines
 62
1
 10
94045.0
 20
1.0
 30
0.0
 40
1.0
  1
7696-B
 11
94045.0
 21
1.0
 31
0.0
  0
TEXT
  5
5F0
  8
MyLines
 62
1
 10
93827.0
 20
1.0
 30
0.0
 40
1.0
  1
7696-A
 11
93827.0
 21
1.0
 31
0.0
  0
LINE
  5
5F1
  8
MyLines
 10
94044.0
 20
0.0
 30
0.0
 11
94044.0
 21
62.5
 31
0.0
  0
LINE
  5
5F2
  8
MyLines
 10
94264.0
 20
55.0
 30
0.0
 11
94796.0
 21
55.0
 31
0.0
  0
LINE
  5
5F3
  8
MyLines
 10
94264.0
 20
0.0
 30
0.0
 11
94796.0
 21
0.0
 31
0.0
  0
LINE
  5
5F4
  8
MyLines
 10
94264.0
 20
0.0
 30
0.0
 11
94264.0
 21
55.0
 31
0.0
  0
LINE
  5
5F5
  8
MyLines
 10
94796.0
 20
0.0
 30
0.0
 11
94796.0
 21
55.0
 31
0.0
  0
TEXT
  5
5F6
  8
MyLines
 62
1
 10
94531.0
 20
1.0
 30
0.0
 40
1.0
  1
7697-B
 11
94531.0
 21
1.0
 31
0.0
  0
TEXT
  5
5F7
  8
MyLines
 62
1
 10
94265.0
 20
1.0
 30
0.0
 40
1.0
  1
7697-A
 11
94265.0
 21
1.0
 31
0.0
  0
LINE
  5
5F8
  8
MyLines
 10
94530.0
 20
0.0
 30
0.0
 11
94530.0
 21
55.0
 31
0.0
  0
LINE
  5
5F9
  8
MyLines
 10
94798.0
 20
48.5
 30
0.0
 11
95298.0
 21
48.5
 31
0.0
  0
LINE
  5
5FA
  8
MyLines
 10
94798.0
 20
0.0
 30
0.0
 11
95298.0
 21
0.0
 31
0.0
  0
LINE
  5
5FB
  8
MyLines
 10
94798.0
 20
0.0
 30
0.0
 11
94798.0
 21
48.5
 31
0.0
  0
LINE
  5
5FC
  8
MyLines
 10
95298.0
 20
0.0
 30
0.0
 11
95298.0
 21
48.5
 31
0.0
  0
TEXT
  5
5FD
  8
MyLines
 62
1
 10
95049.0
 20
1.0
 30
0.0
 40
1.0
  1
7698-B
 11
95049.0
 21
1.0
 31
0.0
  0
TEXT
  5
5FE
  8
MyLines
 62
1
 10
94799.0
 20
1.0
 30
0.0
 40
1.0
  1
7698-A
 11
94799.0
 21
1.0
 31
0.0
  0
LINE
  5
5FF
  8
MyLines
 10
95048.0
 20
0.0
 30
0.0
 11
95048.0
 21
48.5
 31
0.0
  0
LINE
  5
600
  8
MyLines
 10
95300.0
 20
77.0
 30
0.0
 11
95812.0
 21
77.0
 31
0.0
  0
LINE
  5
601
  8
MyLines
 10
95300.0
 20
0.0
 30
0.0
 11
95812.0
 21
0.0
 31
0.0
  0
LINE
  5
602
  8
MyLines
 10
95300.0
 20
0.0
 30
0.0
 11
95300.0
 21
77.0
 31
0.0
  0
LINE
  5
603
  8
MyLines
 10
95812.0
 20
0.0
 30
0.0
 11
95812.0
 21
77.0
 31
0.0
  0
TEXT
  5
604
  8
MyLines
 62
1
 10
95557.0
 20
1.0
 30
0.0
 40
1.0
  1
7699-B
 11
95557.0
 21
1.0
 31
0.0
  0
TEXT
  5
605
  8
MyLines
 62
1
 10
95301.0
 20
1.0
 30
0.0
 40
1.0
  1
7699-A
 11
95301.0
 21
1.0
 31
0.0
  0
LINE
  5
606
  8
MyLines
 10
95556.0
 20
0.0
 30
0.0
 11
95556.0
 21
77.0
 31
0.0
  0
ENDSEC
  0
EOF
