  0
SECTION
  2
HEADER
  9
$ACADVER
  1
AC1009
  9
$DWGCODEPAGE
  3
ANSI_1252
  9
$INSBASE
 10
0.0
 20
0.0
 30
0.0
  9
$EXTMIN
 10
-100
 20
-100
 30
-100
  9
$EXTMAX
 10
100
 20
100
 30
100
  9
$LIMMIN
 10
0.0
 20
0.0
  9
$LIMMAX
 10
420.0
 20
297.0
  9
$ORTHOMODE
 70
0
  9
$REGENMODE
 70
1
  9
$DRAGMODE
 70
2
  9
$FILLMODE
 70
1
  9
$QTEXTMODE
 70
0
  9
$MIRRTEXT
 70
1
  9
$OSMODE
 70
20583
  9
$LTSCALE
 40
1.0
  9
$ATTMODE
 70
1
  9
$TEXTSIZE
 40
2.5
  9
$TRACEWID
 40
1.0
  9
$TEXTSTYLE
  7
OpenSans
  9
$CLAYER
  8
0
  9
$CELTYPE
  6
ByLayer
  9
$CECOLOR
 62
256
  9
$DIMSCALE
 40
1.0
  9
$DIMASZ
 40
0.175
  9
$DIMEXO
 40
0.125
  9
$DIMDLI
 40
3.75
  9
$DIMRND
 40
0.0
  9
$DIMDLE
 40
0.0
  9
$DIMEXE
 40
0.375
  9
$DIMTP
 40
0.0
  9
$DIMTM
 40
0.0
  9
$DIMTXT
 40
0.25
  9
$DIMCEN
 40
2.5
  9
$DIMTSZ
 40
0.0
  9
$DIMTOL
 70
0
  9
$DIMLIM
 70
0
  9
$DIMTIH
 70
0
  9
$DIMTOH
 70
0
  9
$DIMSE1
 70
0
  9
$DIMSE2
 70
0
  9
$DIMTAD
 70
1
  9
$DIMZIN
 70
8
  9
$DIMBLK
  1
ARCHTICK
  9
$DIMASO
 70
1
  9
$DIMSHO
 70
1
  9
$DIMPOST
  1

  9
$DIMAPOST
  1

  9
$DIMALT
 70
0
  9
$DIMALTD
 70
3
  9
$DIMALTF
 40
0.03937007874
  9
$DIMLFAC
 40
100.0
  9
$DIMTOFL
 70
1
  9
$DIMTVP
 40
0.0
  9
$DIMTIX
 70
0
  9
$DIMSOXD
 70
0
  9
$DIMSAH
 70
0
  9
$DIMBLK1
  1

  9
$DIMBLK2
  1

  9
$DIMSTYLE
  2
EZDXF
  9
$DIMCLRD
 70
0
  9
$DIMCLRE
 70
0
  9
$DIMCLRT
 70
0
  9
$DIMTFAC
 40
1.0
  9
$DIMGAP
 40
0.1
  9
$COORDS
 70
1
  9
$ATTDIA
 70
0
  9
$ATTREQ
 70
1
  9
$HANDLING
 70
1
  9
$LUNITS
 70
2
  9
$LUPREC
 70
4
  9
$SKETCHINC
 40
1.0
  9
$FILLETRAD
 40
10.0
  9
$AUNITS
 70
0
  9
$AUPREC
 70
2
  9
$MENU
  1
.
  9
$ELEVATION
 40
0.0
  9
$PELEVATION
 40
0.0
  9
$THICKNESS
 40
0.0
  9
$LIMCHECK
 70
0
  9
$CHAMFERA
 40
0.0
  9
$CHAMFERB
 40
0.0
  9
$SKPOLY
 70
0
  9
$TDCREATE
 40
2458922.6586574074
  9
$TDUPDATE
 40
2458922.6586574074
  9
$TDINDWG
 40
0.0
  9
$TDUSRTIMER
 40
0.0
  9
$USRTIMER
 70
1
  9
$ANGBASE
 50
0.0
  9
$ANGDIR
 70
0
  9
$PDMODE
 70
0
  9
$PDSIZE
 40
0.0
  9
$PLINEWID
 40
0.0
  9
$SPLFRAME
 70
0
  9
$SPLINETYPE
 70
6
  9
$SPLINESEGS
 70
8
  9
$HANDSEED
  5
607
  9
$SURFTAB1
 70
6
  9
$SURFTAB2
 70
6
  9
$SURFTYPE
 70
6
  9
$SURFU
 70
6
  9
$SURFV
 70
6
  9
$UCSNAME
  2

  9
$UCSORG
 10
0.0
 20
0.0
 30
0.0
  9
$UCSXDIR
 10
1.0
 20
0.0
 30
0.0
  9
$UCSYDIR
 10
0.0
 20
1.0
 30
0.0
  9
$PUCSNAME
  2

  9
$PUCSORG
 10
0.0
 20
0.0
 30
0.0
  9
$PUCSXDIR
 10
1.0
 20
0.0
 30
0.0
  9
$PUCSYDIR
 10
0.0
 20
1.0
 30
0.0
  9
$USERI1
 70
0
  9
$USERI2
 70
0
  9
$USERI3
 70
0
  9
$USERI4
 70
0
  9
$USERI5
 70
0
  9
$USERR1
 40
0.0
  9
$USERR2
 40
0.0
  9
$USERR3
 40
0.0
  9
$USERR4
 40
0.0
  9
$USERR5
 40
0.0
  9
$WORLDVIEW
 70
1
  9
$SHADEDGE
 70
3
  9
$SHADEDIF
 70
70
  9
$TILEMODE
 70
1
  9
$MAXACTVP
 70
64
  9
$PLIMCHECK
 70
0
  9
$PEXTMIN
 10
1e+20
 20
1e+20
 30
1e+20
  9
$PEXTMAX
 10
-1e+20
 20
-1e+20
 30
-1e+20
  9
$PLIMMIN
 10
0.0
 20
0.0
  9
$PLIMMAX
 10
420.0
 20
297.0
  9
$UNITMODE
 70
0
  9
$VISRETAIN
 70
1
  9
$PLINEGEN
 70
0
  9
$PSLTSCALE
 70
1
  0
ENDSEC
  0
SECTION
  2
TABLES
  0
TABLE
  2
VPORT
 70
1
  0
VPORT
  5
23
  2
*Active
 70
0
 10
0.0
 20
0.0
 11
1.0
 21
1.0
 12
70.0
 22
50.0
 13
0.0
 23
0.0
 14
0.5
 24
0.5
 15
0.5
 25
0.5
 16
0.0
 26
0.0
 36
1.0
 17
0.0
 27
0.0
 37
0.0
 40
1.0
 41
1.34
 42
50.0
 43
0.0
 44
0.0
 50
0.0
 51
0.0
 71
0
 72
1000
 73
1
 74
3
 75
0
 76
0
 77
0
 78
0
  0
ENDTAB
  0
TABLE
  2
LTYPE
 70
21
  0
LTYPE
  5
24
  2
ByBlock
 70
0
  3

 72
65
 73
0
 40
0.0
  0
LTYPE
  5
25
  2
ByLayer
 70
0
  3

 72
65
 73
0
 40
0.0
  0
LTYPE
  5
26
  2
Continuous
 70
0
  3

 72
65
 73
0
 40
0.0
  0
LTYPE
  5
2D
  2
CENTER
 70
0
  3
Center ____ _ ____ _ ____ _ ____ _ ____ _ ____
 72
65
 73
4
 40
2.0
 49
1.25
 49
-0.25
 49
0.25
 49
-0.25
  0
LTYPE
  5
2E
  2
CENTERX2
 70
0
  3
Center (2x) ________  __  ________  __  ________
 72
65
 73
4
 40
3.5
 49
2.5
 49
-0.25
 49
0.5
 49
-0.25
  0
LTYPE
  5
2F
  2
CENTER2
 70
0
  3
Center (.5x) ____ _ ____ _ ____ _ ____ _ ____
 72
65
 73
4
 40
1.0
 49
0.625
 49
-0.125
 49
0.125
 49
-0.125
  0
LTYPE
  5
30
  2
DASHED
 70
0
  3
Dashed __ __ __ __ __ __ __ __ __ __ __ __ __ _
 72
65
 73
2
 40
0.6
 49
0.5
 49
-0.1
  0
LTYPE
  5
31
  2
DASHEDX2
 70
0
  3
Dashed (2x) ____  ____  ____  ____  ____  ____
 72
65
 73
2
 40
1.2
 49
1.0
 49
-0.2
  0
LTYPE
  5
32
  2
DASHED2
 70
0
  3
Dashed (.5x) _ _ _ _ _ _ _ _ _ _ _ _ _ _
 72
65
 73
2
 40
0.3
 49
0.25
 49
-0.05
  0
LTYPE
  5
33
  2
PHANTOM
 70
0
  3
Phantom ______  __  __  ______  __  __  ______
 72
65
 73
6
 40
2.5
 49
1.25
 49
-0.25
 49
0.25
 49
-0.25
 49
0.25
 49
-0.25
  0
LTYPE
  5
34
  2
PHANTOMX2
 70
0
  3
Phantom (2x)____________    ____    ____    ____________
 72
65
 73
6
 40
4.25
 49
2.5
 49
-0.25
 49
0.5
 49
-0.25
 49
0.5
 49
-0.25
  0
LTYPE
  5
35
  2
PHANTOM2
 70
0
  3
Phantom (.5x) ___ _ _ ___ _ _ ___ _ _ ___ _ _ ___
 72
65
 73
6
 40
1.25
 49
0.625
 49
-0.125
 49
0.125
 49
-0.125
 49
0.125
 49
-0.125
  0
LTYPE
  5
36
  2
DASHDOT
 70
0
  3
Dash dot __ . __ . __ . __ . __ . __ . __ . __
 72
65
 73
4
 40
1.4
 49
1.0
 49
-0.2
 49
0.0
 49
-0.2
  0
LTYPE
  5
37
  2
DASHDOTX2
 70
0
  3
Dash dot (2x) ____  .  ____  .  ____  .  ____
 72
65
 73
4
 40
2.4
 49
2.0
 49
-0.2
 49
0.0
 49
-0.2
  0
LTYPE
  5
38
  2
DASHDOT2
 70
0
  3
Dash dot (.5x) _ . _ . _ . _ . _ . _ . _ . _
 72
65
 73
4
 40
0.7
 49
0.5
 49
-0.1
 49
0.0
 49
-0.1
  0
LTYPE
  5
39
  2
DOT
 70
0
  3
Dot .  .  .  .  .  .  .  .  .  .  .  .  .  .  .  .
 72
65
 73
2
 40
0.2
 49
0.0
 49
-0.2
  0
LTYPE
  5
3A
  2
DOTX2
 70
0
  3
Dot (2x) .    .    .    .    .    .    .    . 
 72
65
 73
2
 40
0.4
 49
0.0
 49
-0.4
  0
LTYPE
  5
3B
  2
DOT2
 70
0
  3
Dot (.5) . . . . . . . . . . . . . . . . . . . 
 72
65
 73
2
 40
0.1
 49
0.0
 49
-0.1
  0
LTYPE
  5
3C
  2
DIVIDE
 70
0
  3
Divide __ . . __ . . __ . . __ . . __ . . __
 72
65
 73
6
 40
1.6
 49
1.0
 49
-0.2
 49
0.0
 49
-0.2
 49
0.0
 49
-0.2
  0
LTYPE
  5
3D
  2
DIVIDEX2
 70
0
  3
Divide (2x) ____  . .  ____  . .  ____  . .  ____
 72
65
 73
6
 40
2.6
 49
2.0
 49
-0.2
 49
0.0
 49
-0.2
 49
0.0
 49
-0.2
  0
LTYPE
  5
3E
  2
DIVIDE2
 70
0
  3
Divide(.5x) _ . _ . _ . _ . _ . _ . _ . _
 72
65
 73
6
 40
0.8
 49
0.5
 49
-0.1
 49
0.0
 49
-0.1
 49
0.0
 49
-0.1
  0
ENDTAB
  0
TABLE
  2
LAYER
 70
3
  0
LAYER
  5
27
  2
0
 70
0
 62
7
  6
Continuous
  0
LAYER
  5
28
  2
Defpoints
 70
0
 62
7
  6
Continuous
  0
LAYER
  5
8E
  2
MyLines
 70
0
 62
7
  6
Continuous
  0
ENDTAB
  0
TABLE
  2
STYLE
 70
26
  0
STYLE
  5
29
  2
Standard
 70
0
 40
0.0
 41
1.0
 50
0.0
 71
0
 42
2.5
  3
txt
  4

  0
STYLE
  5
3F
  2
OpenSans-Light
 70
0
 40
0.0
 41
1.0
 50
0.0
 71
0
 42
2.5
  3
OpenSans-Light.ttf
  4

  0
STYLE
  5
40
  2
OpenSans-Light-Italic
 70
0
 40
0.0
 41
1.0
 50
0.0
 71
0
 42
2.5
  3
OpenSans-LightItalic.ttf
  4

  0
STYLE
  5
41
  2
OpenSans
 70
0
 40
0.0
 41
1.0
 50
0.0
 71
0
 42
2.5
  3
OpenSans-Regular.ttf
  4

  0
STYLE
  5
42
  2
OpenSans-Italic
 70
0
 40
0.0
 41
1.0
 50
0.0
 71
0
 42
2.5
  3
OpenSans-Italic.ttf
  4

  0
STYLE
  5
43
  2
OpenSans-SemiBold
 70
0
 40
0.0
 41
1.0
 50
0.0
 71
0
 42
2.5
  3
OpenSans-SemiBold.ttf
  4

  0
STYLE
  5
44
  2
OpenSans-SemiBoldItalic
 70
0
 40
0.0
 41
1.0
 50
0.0
 71
0
 42
2.5
  3
OpenSans-SemiBoldItalic.ttf
  4

  0
STYLE
  5
45
  2
OpenSans-Bold
 70
0
 40
0.0
 41
1.0
 50
0.0
 71
0
 42
2.5
  3
OpenSans-Bold.ttf
  4

  0
STYLE
  5
46
  2
OpenSans-BoldItalic
 70
0
 40
0.0
 41
1.0
 50
0.0
 71
0
 42
2.5
  3
OpenSans-BoldItalic.ttf
  4

  0
STYLE
  5
47
  2
OpenSans-ExtraBold
 70
0
 40
0.0
 41
1.0
 50
0.0
 71
0
 42
2.5
  3
OpenSans-ExtraBold.ttf
  4

  0
STYLE
  5
48
  2
OpenSans-ExtraBoldItalic
 70
0
 40
0.0
 41
1.0
 50
0.0
 71
0
 42
2.5
  3
OpenSans-ExtraBoldItalic.ttf
  4

  0
STYLE
  5
49
  2
OpenSansCondensed-Bold
 70
0
 40
0.0
 41
1.0
 50
0.0
 71
0
 42
2.5
  3
OpenSansCondensed-Bold.ttf
  4

  0
STYLE
  5
4A
  2
OpenSansCondensed-Light
 70
0
 40
0.0
 41
1.0
 50
0.0
 71
0
 42
2.5
  3
OpenSansCondensed-Light.ttf
  4

  0
STYLE
  5
4B
  2
OpenSansCondensed-Italic
 70
0
 40
0.0
 41
1.0
 50
0.0
 71
0
 42
2.5
  3
OpenSansCondensed-LightItalic.ttf
  4

  0
STYLE
  5
4C
  2
LiberationSans
 70
0
 40
0.0
 41
1.0
 50
0.0
 71
0
 42
2.5
  3
LiberationSans-Regular.ttf
  4

  0
STYLE
  5
4D
  2
LiberationSans-Bold
 70
0
 40
0.0
 41
1.0
 50
0.0
 71
0
 42
2.5
  3
LiberationSans-Bold.ttf
  4

  0
STYLE
  5
4E
  2
LiberationSans-BoldItalic
 70
0
 40
0.0
 41
1.0
 50
0.0
 71
0
 42
2.5
  3
LiberationSans-BoldItalic.ttf
  4

  0
STYLE
  5
4F
  2
LiberationSans-Italic
 70
0
 40
0.0
 41
1.0
 50
0.0
 71
0
 42
2.5
  3
LiberationSans-Italic.ttf
  4

  0
STYLE
  5
50
  2
LiberationSerif
 70
0
 40
0.0
 41
1.0
 50
0.0
 71
0
 42
2.5
  3
LiberationSerif-Regular.ttf
  4

  0
STYLE
  5
51
  2
LiberationSerif-Bold
 70
0
 40
0.0
 41
1.0
 50
0.0
 71
0
 42
2.5
  3
LiberationSerif-Bold.ttf
  4

  0
STYLE
  5
52
  2
LiberationSerif-BoldItalic
 70
0
 40
0.0
 41
1.0
 50
0.0
 71
0
 42
2.5
  3
LiberationSerif-BoldItalic.ttf
  4

  0
STYLE
  5
53
  2
LiberationSerif-Italic
 70
0
 40
0.0
 41
1.0
 50
0.0
 71
0
 42
2.5
  3
LiberationSerif-Italic.ttf
  4

  0
STYLE
  5
54
  2
LiberationMono
 70
0
 40
0.0
 41
1.0
 50
0.0
 71
0
 42
2.5
  3
LiberationMono-Regular.ttf
  4

  0
STYLE
  5
55
  2
LiberationMono-Bold
 70
0
 40
0.0
 41
1.0
 50
0.0
 71
0
 42
2.5
  3
LiberationMono-Bold.ttf
  4

  0
STYLE
  5
56
  2
LiberationMono-BoldItalic
 70
0
 40
0.0
 41
1.0
 50
0.0
 71
0
 42
2.5
  3
LiberationMono-BoldItalic.ttf
  4

  0
STYLE
  5
57
  2
LiberationMono-Italic
 70
0
 40
0.0
 41
1.0
 50
0.0
 71
0
 42
2.5
  3
LiberationMono-Italic.ttf
  4

  0
ENDTAB
  0
TABLE
  2
VIEW
 70
0
  0
ENDTAB
  0
TABLE
  2
UCS
 70
0
  0
ENDTAB
  0
TABLE
  2
APPID
 70
1
  0
APPID
  5
2A
  2
ACAD
 70
0
  0
ENDTAB
  0
TABLE
  2
DIMSTYLE
 70
11
  0
DIMSTYLE
105
2B
  2
Standard
 70
0
  3

  4

  5

  6

  7

 40
1.0
 41
2.5
 42
0.625
 43
3.75
 44
1.25
 45
0.0
 46
0.0
 47
0.0
 48
0.0
140
2.5
141
2.5
142
0.0
143
0.03937007874
144
1.0
145
0.0
146
1.0
147
0.625
 71
0
 72
0
 73
0
 74
0
 75
0
 76
0
 77
1
 78
8
170
0
171
3
172
1
173
0
174
0
175
0
176
0
177
0
178
0
  0
DIMSTYLE
105
71
  2
EZDXF
 70
0
  3

  4

  5
ARCHTICK
  6

  7

 40
1.0
 41
0.175
 42
0.125
 43
3.75
 44
0.375
 45
0.0
 46
0.0
 47
0.0
 48
0.0
140
0.25
141
2.5
142
0.0
143
0.03937007874
144
100.0
145
0.0
146
1.0
147
0.1
 71
0
 72
0
 73
0
 74
0
 75
0
 76
0
 77
1
 78
8
170
0
171
3
172
1
173
0
174
0
175
0
176
0
177
0
178
0
  0
DIMSTYLE
105
7D
  2
EZ_M_100_H25_CM
 70
0
  3

  4

  5

  6

  7

 40
1.0
 41
0.25
 42
0.125
 43
3.75
 44
0.375
 45
0.0
 46
0.0
 47
0.0
 48
0.0
140
0.25
141
2.5
142
0.125
143
0.03937007874
144
100.0
145
0.0
146
1.0
147
0.1
 71
0
 72
0
 73
0
 74
0
 75
0
 76
0
 77
1
 78
8
170
0
171
3
172
1
173
0
174
0
175
0
176
0
177
0
178
0
  0
DIMSTYLE
105
7E
  2
EZ_M_50_H25_CM
 70
0
  3

  4

  5

  6

  7

 40
1.0
 41
0.125
 42
0.0625
 43
3.75
 44
0.1875
 45
0.0
 46
0.0
 47
0.0
 48
0.0
140
0.125
141
2.5
142
0.0625
143
0.03937007874
144
100.0
145
0.0
146
1.0
147
0.05
 71
0
 72
0
 73
0
 74
0
 75
0
 76
0
 77
1
 78
8
170
0
171
3
172
1
173
0
174
0
175
0
176
0
177
0
178
0
  0
DIMSTYLE
105
7F
  2
EZ_M_25_H25_CM
 70
0
  3

  4

  5

  6

  7

 40
1.0
 41
0.0625
 42
0.03125
 43
3.75
 44
0.09375
 45
0.0
 46
0.0
 47
0.0
 48
0.0
140
0.0625
141
2.5
142
0.03125
143
0.03937007874
144
100.0
145
0.0
146
1.0
147
0.025
 71
0
 72
0
 73
0
 74
0
 75
0
 76
0
 77
1
 78
8
170
0
171
3
172
1
173
0
174
0
175
0
176
0
177
0
178
0
  0
DIMSTYLE
105
80
  2
EZ_M_20_H25_CM
 70
0
  3

  4

  5

  6

  7

 40
1.0
 41
0.05
 42
0.025
 43
3.75
 44
0.07500000000000001
 45
0.0
 46
0.0
 47
0.0
 48
0.0
140
0.05
141
2.5
142
0.025
143
0.03937007874
144
100.0
145
0.0
146
1.0
147
0.020000000000000004
 71
0
 72
0
 73
0
 74
0
 75
0
 76
0
 77
1
 78
8
170
0
171
3
172
1
173
0
174
0
175
0
176
0
177
0
178
0
  0
DIMSTYLE
105
81
  2
EZ_M_10_H25_CM
 70
0
  3

  4

  5

  6

  7

 40
1.0
 41
0.025
 42
0.0125
 43
3.75
 44
0.037500000000000006
 45
0.0
 46
0.0
 47
0.0
 48
0.0
140
0.025
141
2.5
142
0.0125
143
0.03937007874
144
100.0
145
0.0
146
1.0
147
0.010000000000000002
 71
0
 72
0
 73
0
 74
0
 75
0
 76
0
 77
1
 78
8
170
0
171
3
172
1
173
0
174
0
175
0
176
0
177
0
178
0
  0
DIMSTYLE
105
82
  2
EZ_M_5_H25_CM
 70
0
  3

  4

  5

  6

  7

 40
1.0
 41
0.0125
 42
0.00625
 43
3.75
 44
0.018750000000000003
 45
0.0
 46
0.0
 47
0.0
 48
0.0
140
0.0125
141
2.5
142
0.00625
143
0.03937007874
144
100.0
145
0.0
146
1.0
147
0.005000000000000001
 71
0
 72
0
 73
0
 74
0
 75
0
 76
0
 77
1
 78
8
170
0
171
3
172
1
173
0
174
0
175
0
176
0
177
0
178
0
  0
DIMSTYLE
105
83
  2
EZ_M_1_H25_CM
 70
0
  3

  4

  5

  6

  7

 40
1.0
 41
0.0025
 42
0.00125
 43
3.75
 44
0.00375
 45
0.0
 46
0.0
 47
0.0
 48
0.0
140
0.0025
141
2.5
142
0.00125
143
0.03937007874
144
100.0
145
0.0
146
1.0
147
0.001
 71
0
 72
0
 73
0
 74
0
 75
0
 76
0
 77
1
 78
8
170
0
171
3
172
1
173
0
174
0
175
0
176
0
177
0
178
0
  0
DIMSTYLE
105
84
  2
EZ_RADIUS
 70
0
  3

  4

  5
CLOSEDBLANK
  6

  7

 40
1.0
 41
0.25
 42
0.125
 43
3.75
 44
0.375
 45
0.0
 46
0.0
 47
0.0
 48
0.0
140
0.25
141
0.0
142
0.0
143
0.03937007874
144
100.0
145
0.0
146
1.0
147
0.1
 71
0
 72
0
 73
0
 74
0
 75
0
 76
0
 77
1
 78
8
170
0
171
3
172
0
173
0
174
0
175
0
176
0
177
0
178
0
  0
DIMSTYLE
105
8D
  2
EZ_RADIUS_INSIDE
 70
0
  3

  4

  5
CLOSEDBLANK
  6

  7

 40
1.0
 41
0.25
 42
0.125
 43
3.75
 44
0.375
 45
0.0
 46
0.0
 47
0.0
 48
0.0
140
0.25
141
0.0
142
0.0
143
0.03937007874
144
100.0
145
0.0
146
1.0
147
0.1
 71
0
 72
0
 73
0
 74
0
 75
0
 76
0
 77
0
 78
8
170
0
171
3
172
0
173
0
174
1
175
0
176
0
177
0
178
0
  0
ENDTAB
  0
ENDSEC
  0
SECTION
  2
BLOCKS
  0
BLOCK
  5
18
  8
0
  2
$Model_Space
 70
0
 10
0.0
 20
0.0
 30
0.0
  3
$Model_Space
  1

  0
ENDBLK
  5
19
  8
0
  0
BLOCK
  5
1C
  8
0
  2
$Paper_Space
 70
0
 10
0.0
 20
0.0
 30
0.0
  3
$Paper_Space
  1

  0
ENDBLK
  5
1D
  8
0
  0
BLOCK
  5
73
  8
0
  2
_ARCHTICK
 70
0
 10
0.0
 20
0.0
 30
0.0
  3
_ARCHTICK
  1

  0
POLYLINE
  5
75
  8
0
  6
BYBLOCK
 62
0
 66
1
 70
0
 40
0.15
 41
0.15
  0
VERTEX
  5
77
  8
0
  6
BYBLOCK
 10
-0.5
 20
-0.5000000000000001
 30
0.0
 70
0
  0
VERTEX
  5
78
  8
0
  6
BYBLOCK
 10
0.5000000000000001
 20
0.5000000000000001
 30
0.0
 70
0
  0
SEQEND
  5
76
  8
0
  0
ENDBLK
  5
74
  8
0
  0
BLOCK
  5
7A
  8
0
  2
_CLOSEDFILLED
 70
0
 10
0.0
 20
0.0
 30
0.0
  3
_CLOSEDFILLED
  1

  0
SOLID
  5
7C
  8
0
  6
BYBLOCK
 62
0
 10
-1.0
 20
0.1643989837240255
 30
0.0
 11
0.0
 21
0.0
 31
0.0
 12
-1.0
 22
-0.1643989837240255
 32
0.0
 13
-1.0
 23
-0.1643989837240255
 33
0.0
  0
ENDBLK
  5
7B
  8
0
  0
BLOCK
  5
86
  8
0
  2
_CLOSEDBLANK
 70
0
 10
0.0
 20
0.0
 30
0.0
  3
_CLOSEDBLANK
  1

  0
POLYLINE
  5
88
  8
0
  6
BYBLOCK
 62
0
 66
1
 70
1
  0
VERTEX
  5
8A
  8
0
  6
BYBLOCK
 10
-1.0
 20
0.1643989837240255
 30
0.0
 70
0
  0
VERTEX
  5
8B
  8
0
  6
BYBLOCK
 10
0.0
 20
0.0
 30
0.0
 70
0
  0
VERTEX
  5
8C
  8
0
  6
BYBLOCK
 10
-1.0
 20
-0.1643989837240255
 30
0.0
 70
0
  0
SEQEND
  5
89
  8
0
  0
ENDBLK
  5
87
  8
0
  0
ENDSEC
  0
SECTION
  2
ENTITIES
  0
LINE
  5
8F
  8
MyLines
 10
0.0
 20
59.5
 30
0.0
 11
366.0
 21
59.5
 31
0.0
  0
LINE
  5
90
  8
MyLines
 10
0.0
 20
0.0
 30
0.0
 11
366.0
 21
0.0
 31
0.0
  0
LINE
  5
91
  8
MyLines
 10
0.0
 20
0.0
 30
0.0
 11
0.0
 21
59.5
 31
0.0
  0
LINE
  5
92
  8
MyLines
 10
366.0
 20
0.0
 30
0.0
 11
366.0
 21
59.5
 31
0.0
  0
TEXT
  5
93
  8
MyLines
 62
1
 10
184.0
 20
1.0
 30
0.0
 40
1.0
  1
7500-B
  7
LiberationSerif
 11
184.0
 21
1.0
 31
0.0
  0
TEXT
  5
94
  8
MyLines
 62
1
 10
1.0
 20
1.0
 30
0.0
 40
1.0
  1
7500-A
  7
LiberationSerif
 11
1.0
 21
1.0
 31
0.0
  0
LINE
  5
95
  8
MyLines
 10
183.0
 20
0.0
 30
0.0
 11
183.0
 21
59.5
 31
0.0
  0
LINE
  5
96
  8
MyLines
 10
368.0
 20
82.0
 30
0.0
 11
968.0
 21
82.0
 31
0.0
  0
LINE
  5
97
  8
MyLines
 10
368.0
 20
0.0
 30
0.0
 11
968.0
 21
0.0
 31
0.0
  0
LINE
  5
98
  8
MyLines
 10
368.0
 20
0.0
 30
0.0
 11
368.0
 21
82.0
 31
0.0
  0
LINE
  5
99
  8
MyLines
 10
968.0
 20
0.0
 30
0.0
 11
968.0
 21
82.0
 31
0.0
  0
TEXT
  5
9A
  8
MyLines
 62
1
 10
669.0
 20
1.0
 30
0.0
 40
1.0
  1
7501-B
  7
LiberationSerif
 11
669.0
 21
1.0
 31
0.0
  0
TEXT
  5
9B
  8
MyLines
 62
1
 10
369.0
 20
1.0
 30
0.0
 40
1.0
  1
7501-A
  7
LiberationSerif
 11
369.0
 21
1.0
 31
0.0
  0
LINE
  5
9C
  8
MyLines
 10
668.0
 20
0.0
 30
0.0
 11
668.0
 21
82.0
 31
0.0
  0
LINE
  5
9D
  8
MyLines
 10
970.0
 20
89.5
 30
0.0
 11
1412.0
 21
89.5
 31
0.0
  0
LINE
  5
9E
  8
MyLines
 10
970.0
 20
0.0
 30
0.0
 11
1412.0
 21
0.0
 31
0.0
  0
LINE
  5
9F
  8
MyLines
 10
970.0
 20
0.0
 30
0.0
 11
970.0
 21
89.5
 31
0.0
  0
LINE
  5
A0
  8
MyLines
 10
1412.0
 20
0.0
 30
0.0
 11
1412.0
 21
89.5
 31
0.0
  0
TEXT
  5
A1
  8
MyLines
 62
1
 10
1192.0
 20
1.0
 30
0.0
 40
1.0
  1
7502-B
  7
LiberationSerif
 11
1192.0
 21
1.0
 31
0.0
  0
TEXT
  5
A2
  8
MyLines
 62
1
 10
971.0
 20
1.0
 30
0.0
 40
1.0
  1
7502-A
  7
LiberationSerif
 11
971.0
 21
1.0
 31
0.0
  0
LINE
  5
A3
  8
MyLines
 10
1191.0
 20
0.0
 30
0.0
 11
1191.0
 21
89.5
 31
0.0
  0
LINE
  5
A4
  8
MyLines
 10
1414.0
 20
68.0
 30
0.0
 11
1776.0
 21
68.0
 31
0.0
  0
LINE
  5
A5
  8
MyLines
 10
1414.0
 20
0.0
 30
0.0
 11
1776.0
 21
0.0
 31
0.0
  0
LINE
  5
A6
  8
MyLines
 10
1414.0
 20
0.0
 30
0.0
 11
1414.0
 21
68.0
 31
0.0
  0
LINE
  5
A7
  8
MyLines
 10
1776.0
 20
0.0
 30
0.0
 11
1776.0
 21
68.0
 31
0.0
  0
TEXT
  5
A8
  8
MyLines
 62
1
 10
1596.0
 20
1.0
 30
0.0
 40
1.0
  1
7503-B
  7
LiberationSerif
 11
1596.0
 21
1.0
 31
0.0
  0
TEXT
  5
A9
  8
MyLines
 62
1
 10
1415.0
 20
1.0
 30
0.0
 40
1.0
  1
7503-A
  7
LiberationSerif
 11
1415.0
 21
1.0
 31
0.0
  0
LINE
  5
AA
  8
MyLines
 10
1595.0
 20
0.0
 30
0.0
 11
1595.0
 21
68.0
 31
0.0
  0
LINE
  5
AB
  8
MyLines
 10
1778.0
 20
58.0
 30
0.0
 11
2340.0
 21
58.0
 31
0.0
  0
LINE
  5
AC
  8
MyLines
 10
1778.0
 20
0.0
 30
0.0
 11
2340.0
 21
0.0
 31
0.0
  0
LINE
  5
AD
  8
MyLines
 10
1778.0
 20
0.0
 30
0.0
 11
1778.0
 21
58.0
 31
0.0
  0
LINE
  5
AE
  8
MyLines
 10
2340.0
 20
0.0
 30
0.0
 11
2340.0
 21
58.0
 31
0.0
  0
TEXT
  5
AF
  8
MyLines
 62
1
 10
2060.0
 20
1.0
 30
0.0
 40
1.0
  1
7504-B
  7
LiberationSerif
 11
2060.0
 21
1.0
 31
0.0
  0
TEXT
  5
B0
  8
MyLines
 62
1
 10
1779.0
 20
1.0
 30
0.0
 40
1.0
  1
7504-A
  7
LiberationSerif
 11
1779.0
 21
1.0
 31
0.0
  0
LINE
  5
B1
  8
MyLines
 10
2059.0
 20
0.0
 30
0.0
 11
2059.0
 21
58.0
 31
0.0
  0
LINE
  5
B2
  8
MyLines
 10
2342.0
 20
42.0
 30
0.0
 11
2938.0
 21
42.0
 31
0.0
  0
LINE
  5
B3
  8
MyLines
 10
2342.0
 20
0.0
 30
0.0
 11
2938.0
 21
0.0
 31
0.0
  0
LINE
  5
B4
  8
MyLines
 10
2342.0
 20
0.0
 30
0.0
 11
2342.0
 21
42.0
 31
0.0
  0
LINE
  5
B5
  8
MyLines
 10
2938.0
 20
0.0
 30
0.0
 11
2938.0
 21
42.0
 31
0.0
  0
TEXT
  5
B6
  8
MyLines
 62
1
 10
2641.0
 20
1.0
 30
0.0
 40
1.0
  1
7505-B
  7
LiberationSerif
 11
2641.0
 21
1.0
 31
0.0
  0
TEXT
  5
B7
  8
MyLines
 62
1
 10
2343.0
 20
1.0
 30
0.0
 40
1.0
  1
7505-A
  7
LiberationSerif
 11
2343.0
 21
1.0
 31
0.0
  0
LINE
  5
B8
  8
MyLines
 10
2640.0
 20
0.0
 30
0.0
 11
2640.0
 21
42.0
 31
0.0
  0
LINE
  5
B9
  8
MyLines
 10
2940.0
 20
62.0
 30
0.0
 11
3448.0
 21
62.0
 31
0.0
  0
LINE
  5
BA
  8
MyLines
 10
2940.0
 20
0.0
 30
0.0
 11
3448.0
 21
0.0
 31
0.0
  0
LINE
  5
BB
  8
MyLines
 10
2940.0
 20
0.0
 30
0.0
 11
2940.0
 21
62.0
 31
0.0
  0
LINE
  5
BC
  8
MyLines
 10
3448.0
 20
0.0
 30
0.0
 11
3448.0
 21
62.0
 31
0.0
  0
TEXT
  5
BD
  8
MyLines
 62
1
 10
3195.0
 20
1.0
 30
0.0
 40
1.0
  1
7506-B
  7
LiberationSerif
 11
3195.0
 21
1.0
 31
0.0
  0
TEXT
  5
BE
  8
MyLines
 62
1
 10
2941.0
 20
1.0
 30
0.0
 40
1.0
  1
7506-A
  7
LiberationSerif
 11
2941.0
 21
1.0
 31
0.0
  0
LINE
  5
BF
  8
MyLines
 10
3194.0
 20
0.0
 30
0.0
 11
3194.0
 21
62.0
 31
0.0
  0
LINE
  5
C0
  8
MyLines
 10
3450.0
 20
37.5
 30
0.0
 11
3882.0
 21
37.5
 31
0.0
  0
LINE
  5
C1
  8
MyLines
 10
3450.0
 20
0.0
 30
0.0
 11
3882.0
 21
0.0
 31
0.0
  0
LINE
  5
C2
  8
MyLines
 10
3450.0
 20
0.0
 30
0.0
 11
3450.0
 21
37.5
 31
0.0
  0
LINE
  5
C3
  8
MyLines
 10
3882.0
 20
0.0
 30
0.0
 11
3882.0
 21
37.5
 31
0.0
  0
TEXT
  5
C4
  8
MyLines
 62
1
 10
3667.0
 20
1.0
 30
0.0
 40
1.0
  1
7507-B
  7
LiberationSerif
 11
3667.0
 21
1.0
 31
0.0
  0
TEXT
  5
C5
  8
MyLines
 62
1
 10
3451.0
 20
1.0
 30
0.0
 40
1.0
  1
7507-A
  7
LiberationSerif
 11
3451.0
 21
1.0
 31
0.0
  0
LINE
  5
C6
  8
MyLines
 10
3666.0
 20
0.0
 30
0.0
 11
3666.0
 21
37.5
 31
0.0
  0
LINE
  5
C7
  8
MyLines
 10
3884.0
 20
85.5
 30
0.0
 11
4348.0
 21
85.5
 31
0.0
  0
LINE
  5
C8
  8
MyLines
 10
3884.0
 20
0.0
 30
0.0
 11
4348.0
 21
0.0
 31
0.0
  0
LINE
  5
C9
  8
MyLines
 10
3884.0
 20
0.0
 30
0.0
 11
3884.0
 21
85.5
 31
0.0
  0
LINE
  5
CA
  8
MyLines
 10
4348.0
 20
0.0
 30
0.0
 11
4348.0
 21
85.5
 31
0.0
  0
TEXT
  5
CB
  8
MyLines
 62
1
 10
4117.0
 20
1.0
 30
0.0
 40
1.0
  1
7508-B
  7
LiberationSerif
 11
4117.0
 21
1.0
 31
0.0
  0
TEXT
  5
CC
  8
MyLines
 62
1
 10
3885.0
 20
1.0
 30
0.0
 40
1.0
  1
7508-A
  7
LiberationSerif
 11
3885.0
 21
1.0
 31
0.0
  0
LINE
  5
CD
  8
MyLines
 10
4116.0
 20
0.0
 30
0.0
 11
4116.0
 21
85.5
 31
0.0
  0
LINE
  5
CE
  8
MyLines
 10
4350.0
 20
36.0
 30
0.0
 11
4922.0
 21
36.0
 31
0.0
  0
LINE
  5
CF
  8
MyLines
 10
4350.0
 20
0.0
 30
0.0
 11
4922.0
 21
0.0
 31
0.0
  0
LINE
  5
D0
  8
MyLines
 10
4350.0
 20
0.0
 30
0.0
 11
4350.0
 21
36.0
 31
0.0
  0
LINE
  5
D1
  8
MyLines
 10
4922.0
 20
0.0
 30
0.0
 11
4922.0
 21
36.0
 31
0.0
  0
TEXT
  5
D2
  8
MyLines
 62
1
 10
4637.0
 20
1.0
 30
0.0
 40
1.0
  1
7509-B
  7
LiberationSerif
 11
4637.0
 21
1.0
 31
0.0
  0
TEXT
  5
D3
  8
MyLines
 62
1
 10
4351.0
 20
1.0
 30
0.0
 40
1.0
  1
7509-A
  7
LiberationSerif
 11
4351.0
 21
1.0
 31
0.0
  0
LINE
  5
D4
  8
MyLines
 10
4636.0
 20
0.0
 30
0.0
 11
4636.0
 21
36.0
 31
0.0
  0
LINE
  5
D5
  8
MyLines
 10
4924.0
 20
65.0
 30
0.0
 11
5290.0
 21
65.0
 31
0.0
  0
LINE
  5
D6
  8
MyLines
 10
4924.0
 20
0.0
 30
0.0
 11
5290.0
 21
0.0
 31
0.0
  0
LINE
  5
D7
  8
MyLines
 10
4924.0
 20
0.0
 30
0.0
 11
4924.0
 21
65.0
 31
0.0
  0
LINE
  5
D8
  8
MyLines
 10
5290.0
 20
0.0
 30
0.0
 11
5290.0
 21
65.0
 31
0.0
  0
TEXT
  5
D9
  8
MyLines
 62
1
 10
5108.0
 20
1.0
 30
0.0
 40
1.0
  1
7510-B
  7
LiberationSerif
 11
5108.0
 21
1.0
 31
0.0
  0
TEXT
  5
DA
  8
MyLines
 62
1
 10
4925.0
 20
1.0
 30
0.0
 40
1.0
  1
7510-A
  7
LiberationSerif
 11
4925.0
 21
1.0
 31
0.0
  0
LINE
  5
DB
  8
MyLines
 10
5107.0
 20
0.0
 30
0.0
 11
5107.0
 21
65.0
 31
0.0
  0
LINE
  5
DC
  8
MyLines
 10
5292.0
 20
59.0
 30
0.0
 11
5850.0
 21
59.0
 31
0.0
  0
LINE
  5
DD
  8
MyLines
 10
5292.0
 20
0.0
 30
0.0
 11
5850.0
 21
0.0
 31
0.0
  0
LINE
  5
DE
  8
MyLines
 10
5292.0
 20
0.0
 30
0.0
 11
5292.0
 21
59.0
 31
0.0
  0
LINE
  5
DF
  8
MyLines
 10
5850.0
 20
0.0
 30
0.0
 11
5850.0
 21
59.0
 31
0.0
  0
TEXT
  5
E0
  8
MyLines
 62
1
 10
5572.0
 20
1.0
 30
0.0
 40
1.0
  1
7511-B
  7
LiberationSerif
 11
5572.0
 21
1.0
 31
0.0
  0
TEXT
  5
E1
  8
MyLines
 62
1
 10
5293.0
 20
1.0
 30
0.0
 40
1.0
  1
7511-A
  7
LiberationSerif
 11
5293.0
 21
1.0
 31
0.0
  0
LINE
  5
E2
  8
MyLines
 10
5571.0
 20
0.0
 30
0.0
 11
5571.0
 21
59.0
 31
0.0
  0
LINE
  5
E3
  8
MyLines
 10
5852.0
 20
81.5
 30
0.0
 11
6292.0
 21
81.5
 31
0.0
  0
LINE
  5
E4
  8
MyLines
 10
5852.0
 20
0.0
 30
0.0
 11
6292.0
 21
0.0
 31
0.0
  0
LINE
  5
E5
  8
MyLines
 10
5852.0
 20
0.0
 30
0.0
 11
5852.0
 21
81.5
 31
0.0
  0
LINE
  5
E6
  8
MyLines
 10
6292.0
 20
0.0
 30
0.0
 11
6292.0
 21
81.5
 31
0.0
  0
TEXT
  5
E7
  8
MyLines
 62
1
 10
6073.0
 20
1.0
 30
0.0
 40
1.0
  1
7512-B
  7
LiberationSerif
 11
6073.0
 21
1.0
 31
0.0
  0
TEXT
  5
E8
  8
MyLines
 62
1
 10
5853.0
 20
1.0
 30
0.0
 40
1.0
  1
7512-A
  7
LiberationSerif
 11
5853.0
 21
1.0
 31
0.0
  0
LINE
  5
E9
  8
MyLines
 10
6072.0
 20
0.0
 30
0.0
 11
6072.0
 21
81.5
 31
0.0
  0
LINE
  5
EA
  8
MyLines
 10
6294.0
 20
63.0
 30
0.0
 11
6734.0
 21
63.0
 31
0.0
  0
LINE
  5
EB
  8
MyLines
 10
6294.0
 20
0.0
 30
0.0
 11
6734.0
 21
0.0
 31
0.0
  0
LINE
  5
EC
  8
MyLines
 10
6294.0
 20
0.0
 30
0.0
 11
6294.0
 21
63.0
 31
0.0
  0
LINE
  5
ED
  8
MyLines
 10
6734.0
 20
0.0
 30
0.0
 11
6734.0
 21
63.0
 31
0.0
  0
TEXT
  5
EE
  8
MyLines
 62
1
 10
6515.0
 20
1.0
 30
0.0
 40
1.0
  1
7513-B
  7
LiberationSerif
 11
6515.0
 21
1.0
 31
0.0
  0
TEXT
  5
EF
  8
MyLines
 62
1
 10
6295.0
 20
1.0
 30
0.0
 40
1.0
  1
7513-A
  7
LiberationSerif
 11
6295.0
 21
1.0
 31
0.0
  0
LINE
  5
F0
  8
MyLines
 10
6514.0
 20
0.0
 30
0.0
 11
6514.0
 21
63.0
 31
0.0
  0
LINE
  5
F1
  8
MyLines
 10
6736.0
 20
43.0
 30
0.0
 11
7328.0
 21
43.0
 31
0.0
  0
LINE
  5
F2
  8
MyLines
 10
6736.0
 20
0.0
 30
0.0
 11
7328.0
 21
0.0
 31
0.0
  0
LINE
  5
F3
  8
MyLines
 10
6736.0
 20
0.0
 30
0.0
 11
6736.0
 21
43.0
 31
0.0
  0
LINE
  5
F4
  8
MyLines
 10
7328.0
 20
0.0
 30
0.0
 11
7328.0
 21
43.0
 31
0.0
  0
TEXT
  5
F5
  8
MyLines
 62
1
 10
7033.0
 20
1.0
 30
0.0
 40
1.0
  1
7514-B
  7
LiberationSerif
 11
7033.0
 21
1.0
 31
0.0
  0
TEXT
  5
F6
  8
MyLines
 62
1
 10
6737.0
 20
1.0
 30
0.0
 40
1.0
  1
7514-A
  7
LiberationSerif
 11
6737.0
 21
1.0
 31
0.0
  0
LINE
  5
F7
  8
MyLines
 10
7032.0
 20
0.0
 30
0.0
 11
7032.0
 21
43.0
 31
0.0
  0
LINE
  5
F8
  8
MyLines
 10
7330.0
 20
59.0
 30
0.0
 11
7776.0
 21
59.0
 31
0.0
  0
LINE
  5
F9
  8
MyLines
 10
7330.0
 20
0.0
 30
0.0
 11
7776.0
 21
0.0
 31
0.0
  0
LINE
  5
FA
  8
MyLines
 10
7330.0
 20
0.0
 30
0.0
 11
7330.0
 21
59.0
 31
0.0
  0
LINE
  5
FB
  8
MyLines
 10
7776.0
 20
0.0
 30
0.0
 11
7776.0
 21
59.0
 31
0.0
  0
TEXT
  5
FC
  8
MyLines
 62
1
 10
7554.0
 20
1.0
 30
0.0
 40
1.0
  1
7515-B
  7
LiberationSerif
 11
7554.0
 21
1.0
 31
0.0
  0
TEXT
  5
FD
  8
MyLines
 62
1
 10
7331.0
 20
1.0
 30
0.0
 40
1.0
  1
7515-A
  7
LiberationSerif
 11
7331.0
 21
1.0
 31
0.0
  0
LINE
  5
FE
  8
MyLines
 10
7553.0
 20
0.0
 30
0.0
 11
7553.0
 21
59.0
 31
0.0
  0
LINE
  5
FF
  8
MyLines
 10
7778.0
 20
75.0
 30
0.0
 11
8130.0
 21
75.0
 31
0.0
  0
LINE
  5
100
  8
MyLines
 10
7778.0
 20
0.0
 30
0.0
 11
8130.0
 21
0.0
 31
0.0
  0
LINE
  5
101
  8
MyLines
 10
7778.0
 20
0.0
 30
0.0
 11
7778.0
 21
75.0
 31
0.0
  0
LINE
  5
102
  8
MyLines
 10
8130.0
 20
0.0
 30
0.0
 11
8130.0
 21
75.0
 31
0.0
  0
TEXT
  5
103
  8
MyLines
 62
1
 10
7955.0
 20
1.0
 30
0.0
 40
1.0
  1
7516-B
  7
LiberationSerif
 11
7955.0
 21
1.0
 31
0.0
  0
TEXT
  5
104
  8
MyLines
 62
1
 10
7779.0
 20
1.0
 30
0.0
 40
1.0
  1
7516-A
  7
LiberationSerif
 11
7779.0
 21
1.0
 31
0.0
  0
LINE
  5
105
  8
MyLines
 10
7954.0
 20
0.0
 30
0.0
 11
7954.0
 21
75.0
 31
0.0
  0
LINE
  5
106
  8
MyLines
 10
8132.0
 20
82.5
 30
0.0
 11
8584.0
 21
82.5
 31
0.0
  0
LINE
  5
107
  8
MyLines
 10
8132.0
 20
0.0
 30
0.0
 11
8584.0
 21
0.0
 31
0.0
  0
LINE
  5
108
  8
MyLines
 10
8132.0
 20
0.0
 30
0.0
 11
8132.0
 21
82.5
 31
0.0
  0
LINE
  5
109
  8
MyLines
 10
8584.0
 20
0.0
 30
0.0
 11
8584.0
 21
82.5
 31
0.0
  0
TEXT
  5
10A
  8
MyLines
 62
1
 10
8359.0
 20
1.0
 30
0.0
 40
1.0
  1
7517-B
  7
LiberationSerif
 11
8359.0
 21
1.0
 31
0.0
  0
TEXT
  5
10B
  8
MyLines
 62
1
 10
8133.0
 20
1.0
 30
0.0
 40
1.0
  1
7517-A
  7
LiberationSerif
 11
8133.0
 21
1.0
 31
0.0
  0
LINE
  5
10C
  8
MyLines
 10
8358.0
 20
0.0
 30
0.0
 11
8358.0
 21
82.5
 31
0.0
  0
LINE
  5
10D
  8
MyLines
 10
8586.0
 20
81.5
 30
0.0
 11
9136.0
 21
81.5
 31
0.0
  0
LINE
  5
10E
  8
MyLines
 10
8586.0
 20
0.0
 30
0.0
 11
9136.0
 21
0.0
 31
0.0
  0
LINE
  5
10F
  8
MyLines
 10
8586.0
 20
0.0
 30
0.0
 11
8586.0
 21
81.5
 31
0.0
  0
LINE
  5
110
  8
MyLines
 10
9136.0
 20
0.0
 30
0.0
 11
9136.0
 21
81.5
 31
0.0
  0
TEXT
  5
111
  8
MyLines
 62
1
 10
8862.0
 20
1.0
 30
0.0
 40
1.0
  1
7518-B
  7
LiberationSerif
 11
8862.0
 21
1.0
 31
0.0
  0
TEXT
  5
112
  8
MyLines
 62
1
 10
8587.0
 20
1.0
 30
0.0
 40
1.0
  1
7518-A
  7
LiberationSerif
 11
8587.0
 21
1.0
 31
0.0
  0
LINE
  5
113
  8
MyLines
 10
8861.0
 20
0.0
 30
0.0
 11
8861.0
 21
81.5
 31
0.0
  0
LINE
  5
114
  8
MyLines
 10
9138.0
 20
64.5
 30
0.0
 11
9556.0
 21
64.5
 31
0.0
  0
LINE
  5
115
  8
MyLines
 10
9138.0
 20
0.0
 30
0.0
 11
9556.0
 21
0.0
 31
0.0
  0
LINE
  5
116
  8
MyLines
 10
9138.0
 20
0.0
 30
0.0
 11
9138.0
 21
64.5
 31
0.0
  0
LINE
  5
117
  8
MyLines
 10
9556.0
 20
0.0
 30
0.0
 11
9556.0
 21
64.5
 31
0.0
  0
TEXT
  5
118
  8
MyLines
 62
1
 10
9348.0
 20
1.0
 30
0.0
 40
1.0
  1
7519-B
  7
LiberationSerif
 11
9348.0
 21
1.0
 31
0.0
  0
TEXT
  5
119
  8
MyLines
 62
1
 10
9139.0
 20
1.0
 30
0.0
 40
1.0
  1
7519-A
  7
LiberationSerif
 11
9139.0
 21
1.0
 31
0.0
  0
LINE
  5
11A
  8
MyLines
 10
9347.0
 20
0.0
 30
0.0
 11
9347.0
 21
64.5
 31
0.0
  0
LINE
  5
11B
  8
MyLines
 10
9558.0
 20
40.0
 30
0.0
 11
9998.0
 21
40.0
 31
0.0
  0
LINE
  5
11C
  8
MyLines
 10
9558.0
 20
0.0
 30
0.0
 11
9998.0
 21
0.0
 31
0.0
  0
LINE
  5
11D
  8
MyLines
 10
9558.0
 20
0.0
 30
0.0
 11
9558.0
 21
40.0
 31
0.0
  0
LINE
  5
11E
  8
MyLines
 10
9998.0
 20
0.0
 30
0.0
 11
9998.0
 21
40.0
 31
0.0
  0
TEXT
  5
11F
  8
MyLines
 62
1
 10
9779.0
 20
1.0
 30
0.0
 40
1.0
  1
7520-B
  7
LiberationSerif
 11
9779.0
 21
1.0
 31
0.0
  0
TEXT
  5
120
  8
MyLines
 62
1
 10
9559.0
 20
1.0
 30
0.0
 40
1.0
  1
7520-A
  7
LiberationSerif
 11
9559.0
 21
1.0
 31
0.0
  0
LINE
  5
121
  8
MyLines
 10
9778.0
 20
0.0
 30
0.0
 11
9778.0
 21
40.0
 31
0.0
  0
LINE
  5
122
  8
MyLines
 10
10000.0
 20
40.0
 30
0.0
 11
10464.0
 21
40.0
 31
0.0
  0
LINE
  5
123
  8
MyLines
 10
10000.0
 20
0.0
 30
0.0
 11
10464.0
 21
0.0
 31
0.0
  0
LINE
  5
124
  8
MyLines
 10
10000.0
 20
0.0
 30
0.0
 11
10000.0
 21
40.0
 31
0.0
  0
LINE
  5
125
  8
MyLines
 10
10464.0
 20
0.0
 30
0.0
 11
10464.0
 21
40.0
 31
0.0
  0
TEXT
  5
126
  8
MyLines
 62
1
 10
10233.0
 20
1.0
 30
0.0
 40
1.0
  1
7521-B
  7
LiberationSerif
 11
10233.0
 21
1.0
 31
0.0
  0
TEXT
  5
127
  8
MyLines
 62
1
 10
10001.0
 20
1.0
 30
0.0
 40
1.0
  1
7521-A
  7
LiberationSerif
 11
10001.0
 21
1.0
 31
0.0
  0
LINE
  5
128
  8
MyLines
 10
10232.0
 20
0.0
 30
0.0
 11
10232.0
 21
40.0
 31
0.0
  0
LINE
  5
129
  8
MyLines
 10
10466.0
 20
48.0
 30
0.0
 11
10926.0
 21
48.0
 31
0.0
  0
LINE
  5
12A
  8
MyLines
 10
10466.0
 20
0.0
 30
0.0
 11
10926.0
 21
0.0
 31
0.0
  0
LINE
  5
12B
  8
MyLines
 10
10466.0
 20
0.0
 30
0.0
 11
10466.0
 21
48.0
 31
0.0
  0
LINE
  5
12C
  8
MyLines
 10
10926.0
 20
0.0
 30
0.0
 11
10926.0
 21
48.0
 31
0.0
  0
TEXT
  5
12D
  8
MyLines
 62
1
 10
10697.0
 20
1.0
 30
0.0
 40
1.0
  1
7522-B
  7
LiberationSerif
 11
10697.0
 21
1.0
 31
0.0
  0
TEXT
  5
12E
  8
MyLines
 62
1
 10
10467.0
 20
1.0
 30
0.0
 40
1.0
  1
7522-A
  7
LiberationSerif
 11
10467.0
 21
1.0
 31
0.0
  0
LINE
  5
12F
  8
MyLines
 10
10696.0
 20
0.0
 30
0.0
 11
10696.0
 21
48.0
 31
0.0
  0
LINE
  5
130
  8
MyLines
 10
10928.0
 20
73.5
 30
0.0
 11
11280.0
 21
73.5
 31
0.0
  0
LINE
  5
131
  8
MyLines
 10
10928.0
 20
0.0
 30
0.0
 11
11280.0
 21
0.0
 31
0.0
  0
LINE
  5
132
  8
MyLines
 10
10928.0
 20
0.0
 30
0.0
 11
10928.0
 21
73.5
 31
0.0
  0
LINE
  5
133
  8
MyLines
 10
11280.0
 20
0.0
 30
0.0
 11
11280.0
 21
73.5
 31
0.0
  0
TEXT
  5
134
  8
MyLines
 62
1
 10
11105.0
 20
1.0
 30
0.0
 40
1.0
  1
7523-B
  7
LiberationSerif
 11
11105.0
 21
1.0
 31
0.0
  0
TEXT
  5
135
  8
MyLines
 62
1
 10
10929.0
 20
1.0
 30
0.0
 40
1.0
  1
7523-A
  7
LiberationSerif
 11
10929.0
 21
1.0
 31
0.0
  0
LINE
  5
136
  8
MyLines
 10
11104.0
 20
0.0
 30
0.0
 11
11104.0
 21
73.5
 31
0.0
  0
LINE
  5
137
  8
MyLines
 10
11282.0
 20
40.5
 30
0.0
 11
11776.0
 21
40.5
 31
0.0
  0
LINE
  5
138
  8
MyLines
 10
11282.0
 20
0.0
 30
0.0
 11
11776.0
 21
0.0
 31
0.0
  0
LINE
  5
139
  8
MyLines
 10
11282.0
 20
0.0
 30
0.0
 11
11282.0
 21
40.5
 31
0.0
  0
LINE
  5
13A
  8
MyLines
 10
11776.0
 20
0.0
 30
0.0
 11
11776.0
 21
40.5
 31
0.0
  0
TEXT
  5
13B
  8
MyLines
 62
1
 10
11530.0
 20
1.0
 30
0.0
 40
1.0
  1
7524-B
  7
LiberationSerif
 11
11530.0
 21
1.0
 31
0.0
  0
TEXT
  5
13C
  8
MyLines
 62
1
 10
11283.0
 20
1.0
 30
0.0
 40
1.0
  1
7524-A
  7
LiberationSerif
 11
11283.0
 21
1.0
 31
0.0
  0
LINE
  5
13D
  8
MyLines
 10
11529.0
 20
0.0
 30
0.0
 11
11529.0
 21
40.5
 31
0.0
  0
LINE
  5
13E
  8
MyLines
 10
11778.0
 20
68.0
 30
0.0
 11
12276.0
 21
68.0
 31
0.0
  0
LINE
  5
13F
  8
MyLines
 10
11778.0
 20
0.0
 30
0.0
 11
12276.0
 21
0.0
 31
0.0
  0
LINE
  5
140
  8
MyLines
 10
11778.0
 20
0.0
 30
0.0
 11
11778.0
 21
68.0
 31
0.0
  0
LINE
  5
141
  8
MyLines
 10
12276.0
 20
0.0
 30
0.0
 11
12276.0
 21
68.0
 31
0.0
  0
TEXT
  5
142
  8
MyLines
 62
1
 10
12028.0
 20
1.0
 30
0.0
 40
1.0
  1
7525-B
  7
LiberationSerif
 11
12028.0
 21
1.0
 31
0.0
  0
TEXT
  5
143
  8
MyLines
 62
1
 10
11779.0
 20
1.0
 30
0.0
 40
1.0
  1
7525-A
  7
LiberationSerif
 11
11779.0
 21
1.0
 31
0.0
  0
LINE
  5
144
  8
MyLines
 10
12027.0
 20
0.0
 30
0.0
 11
12027.0
 21
68.0
 31
0.0
  0
LINE
  5
145
  8
MyLines
 10
12278.0
 20
35.0
 30
0.0
 11
12768.0
 21
35.0
 31
0.0
  0
LINE
  5
146
  8
MyLines
 10
12278.0
 20
0.0
 30
0.0
 11
12768.0
 21
0.0
 31
0.0
  0
LINE
  5
147
  8
MyLines
 10
12278.0
 20
0.0
 30
0.0
 11
12278.0
 21
35.0
 31
0.0
  0
LINE
  5
148
  8
MyLines
 10
12768.0
 20
0.0
 30
0.0
 11
12768.0
 21
35.0
 31
0.0
  0
TEXT
  5
149
  8
MyLines
 62
1
 10
12524.0
 20
1.0
 30
0.0
 40
1.0
  1
7526-B
  7
LiberationSerif
 11
12524.0
 21
1.0
 31
0.0
  0
TEXT
  5
14A
  8
MyLines
 62
1
 10
12279.0
 20
1.0
 30
0.0
 40
1.0
  1
7526-A
  7
LiberationSerif
 11
12279.0
 21
1.0
 31
0.0
  0
LINE
  5
14B
  8
MyLines
 10
12523.0
 20
0.0
 30
0.0
 11
12523.0
 21
35.0
 31
0.0
  0
LINE
  5
14C
  8
MyLines
 10
12770.0
 20
42.5
 30
0.0
 11
13284.0
 21
42.5
 31
0.0
  0
LINE
  5
14D
  8
MyLines
 10
12770.0
 20
0.0
 30
0.0
 11
13284.0
 21
0.0
 31
0.0
  0
LINE
  5
14E
  8
MyLines
 10
12770.0
 20
0.0
 30
0.0
 11
12770.0
 21
42.5
 31
0.0
  0
LINE
  5
14F
  8
MyLines
 10
13284.0
 20
0.0
 30
0.0
 11
13284.0
 21
42.5
 31
0.0
  0
TEXT
  5
150
  8
MyLines
 62
1
 10
13028.0
 20
1.0
 30
0.0
 40
1.0
  1
7527-B
  7
LiberationSerif
 11
13028.0
 21
1.0
 31
0.0
  0
TEXT
  5
151
  8
MyLines
 62
1
 10
12771.0
 20
1.0
 30
0.0
 40
1.0
  1
7527-A
  7
LiberationSerif
 11
12771.0
 21
1.0
 31
0.0
  0
LINE
  5
152
  8
MyLines
 10
13027.0
 20
0.0
 30
0.0
 11
13027.0
 21
42.5
 31
0.0
  0
LINE
  5
153
  8
MyLines
 10
13286.0
 20
59.0
 30
0.0
 11
13882.0
 21
59.0
 31
0.0
  0
LINE
  5
154
  8
MyLines
 10
13286.0
 20
0.0
 30
0.0
 11
13882.0
 21
0.0
 31
0.0
  0
LINE
  5
155
  8
MyLines
 10
13286.0
 20
0.0
 30
0.0
 11
13286.0
 21
59.0
 31
0.0
  0
LINE
  5
156
  8
MyLines
 10
13882.0
 20
0.0
 30
0.0
 11
13882.0
 21
59.0
 31
0.0
  0
TEXT
  5
157
  8
MyLines
 62
1
 10
13585.0
 20
1.0
 30
0.0
 40
1.0
  1
7528-B
  7
LiberationSerif
 11
13585.0
 21
1.0
 31
0.0
  0
TEXT
  5
158
  8
MyLines
 62
1
 10
13287.0
 20
1.0
 30
0.0
 40
1.0
  1
7528-A
  7
LiberationSerif
 11
13287.0
 21
1.0
 31
0.0
  0
LINE
  5
159
  8
MyLines
 10
13584.0
 20
0.0
 30
0.0
 11
13584.0
 21
59.0
 31
0.0
  0
LINE
  5
15A
  8
MyLines
 10
13884.0
 20
72.5
 30
0.0
 11
14420.0
 21
72.5
 31
0.0
  0
LINE
  5
15B
  8
MyLines
 10
13884.0
 20
0.0
 30
0.0
 11
14420.0
 21
0.0
 31
0.0
  0
LINE
  5
15C
  8
MyLines
 10
13884.0
 20
0.0
 30
0.0
 11
13884.0
 21
72.5
 31
0.0
  0
LINE
  5
15D
  8
MyLines
 10
14420.0
 20
0.0
 30
0.0
 11
14420.0
 21
72.5
 31
0.0
  0
TEXT
  5
15E
  8
MyLines
 62
1
 10
14153.0
 20
1.0
 30
0.0
 40
1.0
  1
7529-B
  7
LiberationSerif
 11
14153.0
 21
1.0
 31
0.0
  0
TEXT
  5
15F
  8
MyLines
 62
1
 10
13885.0
 20
1.0
 30
0.0
 40
1.0
  1
7529-A
  7
LiberationSerif
 11
13885.0
 21
1.0
 31
0.0
  0
LINE
  5
160
  8
MyLines
 10
14152.0
 20
0.0
 30
0.0
 11
14152.0
 21
72.5
 31
0.0
  0
LINE
  5
161
  8
MyLines
 10
14422.0
 20
88.5
 30
0.0
 11
14810.0
 21
88.5
 31
0.0
  0
LINE
  5
162
  8
MyLines
 10
14422.0
 20
0.0
 30
0.0
 11
14810.0
 21
0.0
 31
0.0
  0
LINE
  5
163
  8
MyLines
 10
14422.0
 20
0.0
 30
0.0
 11
14422.0
 21
88.5
 31
0.0
  0
LINE
  5
164
  8
MyLines
 10
14810.0
 20
0.0
 30
0.0
 11
14810.0
 21
88.5
 31
0.0
  0
TEXT
  5
165
  8
MyLines
 62
1
 10
14617.0
 20
1.0
 30
0.0
 40
1.0
  1
7530-B
  7
LiberationSerif
 11
14617.0
 21
1.0
 31
0.0
  0
TEXT
  5
166
  8
MyLines
 62
1
 10
14423.0
 20
1.0
 30
0.0
 40
1.0
  1
7530-A
  7
LiberationSerif
 11
14423.0
 21
1.0
 31
0.0
  0
LINE
  5
167
  8
MyLines
 10
14616.0
 20
0.0
 30
0.0
 11
14616.0
 21
88.5
 31
0.0
  0
LINE
  5
168
  8
MyLines
 10
14812.0
 20
56.0
 30
0.0
 11
15176.0
 21
56.0
 31
0.0
  0
LINE
  5
169
  8
MyLines
 10
14812.0
 20
0.0
 30
0.0
 11
15176.0
 21
0.0
 31
0.0
  0
LINE
  5
16A
  8
MyLines
 10
14812.0
 20
0.0
 30
0.0
 11
14812.0
 21
56.0
 31
0.0
  0
LINE
  5
16B
  8
MyLines
 10
15176.0
 20
0.0
 30
0.0
 11
15176.0
 21
56.0
 31
0.0
  0
TEXT
  5
16C
  8
MyLines
 62
1
 10
14995.0
 20
1.0
 30
0.0
 40
1.0
  1
7531-B
  7
LiberationSerif
 11
14995.0
 21
1.0
 31
0.0
  0
TEXT
  5
16D
  8
MyLines
 62
1
 10
14813.0
 20
1.0
 30
0.0
 40
1.0
  1
7531-A
  7
LiberationSerif
 11
14813.0
 21
1.0
 31
0.0
  0
LINE
  5
16E
  8
MyLines
 10
14994.0
 20
0.0
 30
0.0
 11
14994.0
 21
56.0
 31
0.0
  0
LINE
  5
16F
  8
MyLines
 10
15178.0
 20
50.5
 30
0.0
 11
15750.0
 21
50.5
 31
0.0
  0
LINE
  5
170
  8
MyLines
 10
15178.0
 20
0.0
 30
0.0
 11
15750.0
 21
0.0
 31
0.0
  0
LINE
  5
171
  8
MyLines
 10
15178.0
 20
0.0
 30
0.0
 11
15178.0
 21
50.5
 31
0.0
  0
LINE
  5
172
  8
MyLines
 10
15750.0
 20
0.0
 30
0.0
 11
15750.0
 21
50.5
 31
0.0
  0
TEXT
  5
173
  8
MyLines
 62
1
 10
15465.0
 20
1.0
 30
0.0
 40
1.0
  1
7532-B
  7
LiberationSerif
 11
15465.0
 21
1.0
 31
0.0
  0
TEXT
  5
174
  8
MyLines
 62
1
 10
15179.0
 20
1.0
 30
0.0
 40
1.0
  1
7532-A
  7
LiberationSerif
 11
15179.0
 21
1.0
 31
0.0
  0
LINE
  5
175
  8
MyLines
 10
15464.0
 20
0.0
 30
0.0
 11
15464.0
 21
50.5
 31
0.0
  0
LINE
  5
176
  8
MyLines
 10
15752.0
 20
52.0
 30
0.0
 11
16240.0
 21
52.0
 31
0.0
  0
LINE
  5
177
  8
MyLines
 10
15752.0
 20
0.0
 30
0.0
 11
16240.0
 21
0.0
 31
0.0
  0
LINE
  5
178
  8
MyLines
 10
15752.0
 20
0.0
 30
0.0
 11
15752.0
 21
52.0
 31
0.0
  0
LINE
  5
179
  8
MyLines
 10
16240.0
 20
0.0
 30
0.0
 11
16240.0
 21
52.0
 31
0.0
  0
TEXT
  5
17A
  8
MyLines
 62
1
 10
15997.0
 20
1.0
 30
0.0
 40
1.0
  1
7533-B
  7
LiberationSerif
 11
15997.0
 21
1.0
 31
0.0
  0
TEXT
  5
17B
  8
MyLines
 62
1
 10
15753.0
 20
1.0
 30
0.0
 40
1.0
  1
7533-A
  7
LiberationSerif
 11
15753.0
 21
1.0
 31
0.0
  0
LINE
  5
17C
  8
MyLines
 10
15996.0
 20
0.0
 30
0.0
 11
15996.0
 21
52.0
 31
0.0
  0
LINE
  5
17D
  8
MyLines
 10
16242.0
 20
77.5
 30
0.0
 11
16752.0
 21
77.5
 31
0.0
  0
LINE
  5
17E
  8
MyLines
 10
16242.0
 20
0.0
 30
0.0
 11
16752.0
 21
0.0
 31
0.0
  0
LINE
  5
17F
  8
MyLines
 10
16242.0
 20
0.0
 30
0.0
 11
16242.0
 21
77.5
 31
0.0
  0
LINE
  5
180
  8
MyLines
 10
16752.0
 20
0.0
 30
0.0
 11
16752.0
 21
77.5
 31
0.0
  0
TEXT
  5
181
  8
MyLines
 62
1
 10
16498.0
 20
1.0
 30
0.0
 40
1.0
  1
7534-B
  7
LiberationSerif
 11
16498.0
 21
1.0
 31
0.0
  0
TEXT
  5
182
  8
MyLines
 62
1
 10
16243.0
 20
1.0
 30
0.0
 40
1.0
  1
7534-A
  7
LiberationSerif
 11
16243.0
 21
1.0
 31
0.0
  0
LINE
  5
183
  8
MyLines
 10
16497.0
 20
0.0
 30
0.0
 11
16497.0
 21
77.5
 31
0.0
  0
LINE
  5
184
  8
MyLines
 10
16754.0
 20
43.0
 30
0.0
 11
17314.0
 21
43.0
 31
0.0
  0
LINE
  5
185
  8
MyLines
 10
16754.0
 20
0.0
 30
0.0
 11
17314.0
 21
0.0
 31
0.0
  0
LINE
  5
186
  8
MyLines
 10
16754.0
 20
0.0
 30
0.0
 11
16754.0
 21
43.0
 31
0.0
  0
LINE
  5
187
  8
MyLines
 10
17314.0
 20
0.0
 30
0.0
 11
17314.0
 21
43.0
 31
0.0
  0
TEXT
  5
188
  8
MyLines
 62
1
 10
17035.0
 20
1.0
 30
0.0
 40
1.0
  1
7535-B
  7
LiberationSerif
 11
17035.0
 21
1.0
 31
0.0
  0
TEXT
  5
189
  8
MyLines
 62
1
 10
16755.0
 20
1.0
 30
0.0
 40
1.0
  1
7535-A
  7
LiberationSerif
 11
16755.0
 21
1.0
 31
0.0
  0
LINE
  5
18A
  8
MyLines
 10
17034.0
 20
0.0
 30
0.0
 11
17034.0
 21
43.0
 31
0.0
  0
LINE
  5
18B
  8
MyLines
 10
17316.0
 20
57.5
 30
0.0
 11
17720.0
 21
57.5
 31
0.0
  0
LINE
  5
18C
  8
MyLines
 10
17316.0
 20
0.0
 30
0.0
 11
17720.0
 21
0.0
 31
0.0
  0
LINE
  5
18D
  8
MyLines
 10
17316.0
 20
0.0
 30
0.0
 11
17316.0
 21
57.5
 31
0.0
  0
LINE
  5
18E
  8
MyLines
 10
17720.0
 20
0.0
 30
0.0
 11
17720.0
 21
57.5
 31
0.0
  0
TEXT
  5
18F
  8
MyLines
 62
1
 10
17519.0
 20
1.0
 30
0.0
 40
1.0
  1
7536-B
  7
LiberationSerif
 11
17519.0
 21
1.0
 31
0.0
  0
TEXT
  5
190
  8
MyLines
 62
1
 10
17317.0
 20
1.0
 30
0.0
 40
1.0
  1
7536-A
  7
LiberationSerif
 11
17317.0
 21
1.0
 31
0.0
  0
LINE
  5
191
  8
MyLines
 10
17518.0
 20
0.0
 30
0.0
 11
17518.0
 21
57.5
 31
0.0
  0
LINE
  5
192
  8
MyLines
 10
17722.0
 20
86.5
 30
0.0
 11
18282.0
 21
86.5
 31
0.0
  0
LINE
  5
193
  8
MyLines
 10
17722.0
 20
0.0
 30
0.0
 11
18282.0
 21
0.0
 31
0.0
  0
LINE
  5
194
  8
MyLines
 10
17722.0
 20
0.0
 30
0.0
 11
17722.0
 21
86.5
 31
0.0
  0
LINE
  5
195
  8
MyLines
 10
18282.0
 20
0.0
 30
0.0
 11
18282.0
 21
86.5
 31
0.0
  0
TEXT
  5
196
  8
MyLines
 62
1
 10
18003.0
 20
1.0
 30
0.0
 40
1.0
  1
7537-B
  7
LiberationSerif
 11
18003.0
 21
1.0
 31
0.0
  0
TEXT
  5
197
  8
MyLines
 62
1
 10
17723.0
 20
1.0
 30
0.0
 40
1.0
  1
7537-A
  7
LiberationSerif
 11
17723.0
 21
1.0
 31
0.0
  0
LINE
  5
198
  8
MyLines
 10
18002.0
 20
0.0
 30
0.0
 11
18002.0
 21
86.5
 31
0.0
  0
LINE
  5
199
  8
MyLines
 10
18284.0
 20
35.0
 30
0.0
 11
18634.0
 21
35.0
 31
0.0
  0
LINE
  5
19A
  8
MyLines
 10
18284.0
 20
0.0
 30
0.0
 11
18634.0
 21
0.0
 31
0.0
  0
LINE
  5
19B
  8
MyLines
 10
18284.0
 20
0.0
 30
0.0
 11
18284.0
 21
35.0
 31
0.0
  0
LINE
  5
19C
  8
MyLines
 10
18634.0
 20
0.0
 30
0.0
 11
18634.0
 21
35.0
 31
0.0
  0
TEXT
  5
19D
  8
MyLines
 62
1
 10
18460.0
 20
1.0
 30
0.0
 40
1.0
  1
7538-B
  7
LiberationSerif
 11
18460.0
 21
1.0
 31
0.0
  0
TEXT
  5
19E
  8
MyLines
 62
1
 10
18285.0
 20
1.0
 30
0.0
 40
1.0
  1
7538-A
  7
LiberationSerif
 11
18285.0
 21
1.0
 31
0.0
  0
LINE
  5
19F
  8
MyLines
 10
18459.0
 20
0.0
 30
0.0
 11
18459.0
 21
35.0
 31
0.0
  0
LINE
  5
1A0
  8
MyLines
 10
18636.0
 20
59.0
 30
0.0
 11
19014.0
 21
59.0
 31
0.0
  0
LINE
  5
1A1
  8
MyLines
 10
18636.0
 20
0.0
 30
0.0
 11
19014.0
 21
0.0
 31
0.0
  0
LINE
  5
1A2
  8
MyLines
 10
18636.0
 20
0.0
 30
0.0
 11
18636.0
 21
59.0
 31
0.0
  0
LINE
  5
1A3
  8
MyLines
 10
19014.0
 20
0.0
 30
0.0
 11
19014.0
 21
59.0
 31
0.0
  0
TEXT
  5
1A4
  8
MyLines
 62
1
 10
18826.0
 20
1.0
 30
0.0
 40
1.0
  1
7539-B
  7
LiberationSerif
 11
18826.0
 21
1.0
 31
0.0
  0
TEXT
  5
1A5
  8
MyLines
 62
1
 10
18637.0
 20
1.0
 30
0.0
 40
1.0
  1
7539-A
  7
LiberationSerif
 11
18637.0
 21
1.0
 31
0.0
  0
LINE
  5
1A6
  8
MyLines
 10
18825.0
 20
0.0
 30
0.0
 11
18825.0
 21
59.0
 31
0.0
  0
LINE
  5
1A7
  8
MyLines
 10
19016.0
 20
51.0
 30
0.0
 11
19582.0
 21
51.0
 31
0.0
  0
LINE
  5
1A8
  8
MyLines
 10
19016.0
 20
0.0
 30
0.0
 11
19582.0
 21
0.0
 31
0.0
  0
LINE
  5
1A9
  8
MyLines
 10
19016.0
 20
0.0
 30
0.0
 11
19016.0
 21
51.0
 31
0.0
  0
LINE
  5
1AA
  8
MyLines
 10
19582.0
 20
0.0
 30
0.0
 11
19582.0
 21
51.0
 31
0.0
  0
TEXT
  5
1AB
  8
MyLines
 62
1
 10
19300.0
 20
1.0
 30
0.0
 40
1.0
  1
7540-B
  7
LiberationSerif
 11
19300.0
 21
1.0
 31
0.0
  0
TEXT
  5
1AC
  8
MyLines
 62
1
 10
19017.0
 20
1.0
 30
0.0
 40
1.0
  1
7540-A
  7
LiberationSerif
 11
19017.0
 21
1.0
 31
0.0
  0
LINE
  5
1AD
  8
MyLines
 10
19299.0
 20
0.0
 30
0.0
 11
19299.0
 21
51.0
 31
0.0
  0
LINE
  5
1AE
  8
MyLines
 10
19584.0
 20
41.0
 30
0.0
 11
20060.0
 21
41.0
 31
0.0
  0
LINE
  5
1AF
  8
MyLines
 10
19584.0
 20
0.0
 30
0.0
 11
20060.0
 21
0.0
 31
0.0
  0
LINE
  5
1B0
  8
MyLines
 10
19584.0
 20
0.0
 30
0.0
 11
19584.0
 21
41.0
 31
0.0
  0
LINE
  5
1B1
  8
MyLines
 10
20060.0
 20
0.0
 30
0.0
 11
20060.0
 21
41.0
 31
0.0
  0
TEXT
  5
1B2
  8
MyLines
 62
1
 10
19823.0
 20
1.0
 30
0.0
 40
1.0
  1
7541-B
  7
LiberationSerif
 11
19823.0
 21
1.0
 31
0.0
  0
TEXT
  5
1B3
  8
MyLines
 62
1
 10
19585.0
 20
1.0
 30
0.0
 40
1.0
  1
7541-A
  7
LiberationSerif
 11
19585.0
 21
1.0
 31
0.0
  0
LINE
  5
1B4
  8
MyLines
 10
19822.0
 20
0.0
 30
0.0
 11
19822.0
 21
41.0
 31
0.0
  0
LINE
  5
1B5
  8
MyLines
 10
20062.0
 20
35.0
 30
0.0
 11
20412.0
 21
35.0
 31
0.0
  0
LINE
  5
1B6
  8
MyLines
 10
20062.0
 20
0.0
 30
0.0
 11
20412.0
 21
0.0
 31
0.0
  0
LINE
  5
1B7
  8
MyLines
 10
20062.0
 20
0.0
 30
0.0
 11
20062.0
 21
35.0
 31
0.0
  0
LINE
  5
1B8
  8
MyLines
 10
20412.0
 20
0.0
 30
0.0
 11
20412.0
 21
35.0
 31
0.0
  0
TEXT
  5
1B9
  8
MyLines
 62
1
 10
20238.0
 20
1.0
 30
0.0
 40
1.0
  1
7542-B
  7
LiberationSerif
 11
20238.0
 21
1.0
 31
0.0
  0
TEXT
  5
1BA
  8
MyLines
 62
1
 10
20063.0
 20
1.0
 30
0.0
 40
1.0
  1
7542-A
  7
LiberationSerif
 11
20063.0
 21
1.0
 31
0.0
  0
LINE
  5
1BB
  8
MyLines
 10
20237.0
 20
0.0
 30
0.0
 11
20237.0
 21
35.0
 31
0.0
  0
LINE
  5
1BC
  8
MyLines
 10
20414.0
 20
62.5
 30
0.0
 11
20858.0
 21
62.5
 31
0.0
  0
LINE
  5
1BD
  8
MyLines
 10
20414.0
 20
0.0
 30
0.0
 11
20858.0
 21
0.0
 31
0.0
  0
LINE
  5
1BE
  8
MyLines
 10
20414.0
 20
0.0
 30
0.0
 11
20414.0
 21
62.5
 31
0.0
  0
LINE
  5
1BF
  8
MyLines
 10
20858.0
 20
0.0
 30
0.0
 11
20858.0
 21
62.5
 31
0.0
  0
TEXT
  5
1C0
  8
MyLines
 62
1
 10
20637.0
 20
1.0
 30
0.0
 40
1.0
  1
7543-B
  7
LiberationSerif
 11
20637.0
 21
1.0
 31
0.0
  0
TEXT
  5
1C1
  8
MyLines
 62
1
 10
20415.0
 20
1.0
 30
0.0
 40
1.0
  1
7543-A
  7
LiberationSerif
 11
20415.0
 21
1.0
 31
0.0
  0
LINE
  5
1C2
  8
MyLines
 10
20636.0
 20
0.0
 30
0.0
 11
20636.0
 21
62.5
 31
0.0
  0
LINE
  5
1C3
  8
MyLines
 10
20860.0
 20
73.5
 30
0.0
 11
21348.0
 21
73.5
 31
0.0
  0
LINE
  5
1C4
  8
MyLines
 10
20860.0
 20
0.0
 30
0.0
 11
21348.0
 21
0.0
 31
0.0
  0
LINE
  5
1C5
  8
MyLines
 10
20860.0
 20
0.0
 30
0.0
 11
20860.0
 21
73.5
 31
0.0
  0
LINE
  5
1C6
  8
MyLines
 10
21348.0
 20
0.0
 30
0.0
 11
21348.0
 21
73.5
 31
0.0
  0
TEXT
  5
1C7
  8
MyLines
 62
1
 10
21105.0
 20
1.0
 30
0.0
 40
1.0
  1
7544-B
  7
LiberationSerif
 11
21105.0
 21
1.0
 31
0.0
  0
TEXT
  5
1C8
  8
MyLines
 62
1
 10
20861.0
 20
1.0
 30
0.0
 40
1.0
  1
7544-A
  7
LiberationSerif
 11
20861.0
 21
1.0
 31
0.0
  0
LINE
  5
1C9
  8
MyLines
 10
21104.0
 20
0.0
 30
0.0
 11
21104.0
 21
73.5
 31
0.0
  0
LINE
  5
1CA
  8
MyLines
 10
21350.0
 20
54.0
 30
0.0
 11
21794.0
 21
54.0
 31
0.0
  0
LINE
  5
1CB
  8
MyLines
 10
21350.0
 20
0.0
 30
0.0
 11
21794.0
 21
0.0
 31
0.0
  0
LINE
  5
1CC
  8
MyLines
 10
21350.0
 20
0.0
 30
0.0
 11
21350.0
 21
54.0
 31
0.0
  0
LINE
  5
1CD
  8
MyLines
 10
21794.0
 20
0.0
 30
0.0
 11
21794.0
 21
54.0
 31
0.0
  0
TEXT
  5
1CE
  8
MyLines
 62
1
 10
21573.0
 20
1.0
 30
0.0
 40
1.0
  1
7545-B
  7
LiberationSerif
 11
21573.0
 21
1.0
 31
0.0
  0
TEXT
  5
1CF
  8
MyLines
 62
1
 10
21351.0
 20
1.0
 30
0.0
 40
1.0
  1
7545-A
  7
LiberationSerif
 11
21351.0
 21
1.0
 31
0.0
  0
LINE
  5
1D0
  8
MyLines
 10
21572.0
 20
0.0
 30
0.0
 11
21572.0
 21
54.0
 31
0.0
  0
LINE
  5
1D1
  8
MyLines
 10
21796.0
 20
60.0
 30
0.0
 11
22286.0
 21
60.0
 31
0.0
  0
LINE
  5
1D2
  8
MyLines
 10
21796.0
 20
0.0
 30
0.0
 11
22286.0
 21
0.0
 31
0.0
  0
LINE
  5
1D3
  8
MyLines
 10
21796.0
 20
0.0
 30
0.0
 11
21796.0
 21
60.0
 31
0.0
  0
LINE
  5
1D4
  8
MyLines
 10
22286.0
 20
0.0
 30
0.0
 11
22286.0
 21
60.0
 31
0.0
  0
TEXT
  5
1D5
  8
MyLines
 62
1
 10
22042.0
 20
1.0
 30
0.0
 40
1.0
  1
7546-B
  7
LiberationSerif
 11
22042.0
 21
1.0
 31
0.0
  0
TEXT
  5
1D6
  8
MyLines
 62
1
 10
21797.0
 20
1.0
 30
0.0
 40
1.0
  1
7546-A
  7
LiberationSerif
 11
21797.0
 21
1.0
 31
0.0
  0
LINE
  5
1D7
  8
MyLines
 10
22041.0
 20
0.0
 30
0.0
 11
22041.0
 21
60.0
 31
0.0
  0
LINE
  5
1D8
  8
MyLines
 10
22288.0
 20
72.5
 30
0.0
 11
22738.0
 21
72.5
 31
0.0
  0
LINE
  5
1D9
  8
MyLines
 10
22288.0
 20
0.0
 30
0.0
 11
22738.0
 21
0.0
 31
0.0
  0
LINE
  5
1DA
  8
MyLines
 10
22288.0
 20
0.0
 30
0.0
 11
22288.0
 21
72.5
 31
0.0
  0
LINE
  5
1DB
  8
MyLines
 10
22738.0
 20
0.0
 30
0.0
 11
22738.0
 21
72.5
 31
0.0
  0
TEXT
  5
1DC
  8
MyLines
 62
1
 10
22514.0
 20
1.0
 30
0.0
 40
1.0
  1
7547-B
  7
LiberationSerif
 11
22514.0
 21
1.0
 31
0.0
  0
TEXT
  5
1DD
  8
MyLines
 62
1
 10
22289.0
 20
1.0
 30
0.0
 40
1.0
  1
7547-A
  7
LiberationSerif
 11
22289.0
 21
1.0
 31
0.0
  0
LINE
  5
1DE
  8
MyLines
 10
22513.0
 20
0.0
 30
0.0
 11
22513.0
 21
72.5
 31
0.0
  0
LINE
  5
1DF
  8
MyLines
 10
22740.0
 20
78.0
 30
0.0
 11
23132.0
 21
78.0
 31
0.0
  0
LINE
  5
1E0
  8
MyLines
 10
22740.0
 20
0.0
 30
0.0
 11
23132.0
 21
0.0
 31
0.0
  0
LINE
  5
1E1
  8
MyLines
 10
22740.0
 20
0.0
 30
0.0
 11
22740.0
 21
78.0
 31
0.0
  0
LINE
  5
1E2
  8
MyLines
 10
23132.0
 20
0.0
 30
0.0
 11
23132.0
 21
78.0
 31
0.0
  0
TEXT
  5
1E3
  8
MyLines
 62
1
 10
22937.0
 20
1.0
 30
0.0
 40
1.0
  1
7548-B
  7
LiberationSerif
 11
22937.0
 21
1.0
 31
0.0
  0
TEXT
  5
1E4
  8
MyLines
 62
1
 10
22741.0
 20
1.0
 30
0.0
 40
1.0
  1
7548-A
  7
LiberationSerif
 11
22741.0
 21
1.0
 31
0.0
  0
LINE
  5
1E5
  8
MyLines
 10
22936.0
 20
0.0
 30
0.0
 11
22936.0
 21
78.0
 31
0.0
  0
LINE
  5
1E6
  8
MyLines
 10
23134.0
 20
45.5
 30
0.0
 11
23686.0
 21
45.5
 31
0.0
  0
LINE
  5
1E7
  8
MyLines
 10
23134.0
 20
0.0
 30
0.0
 11
23686.0
 21
0.0
 31
0.0
  0
LINE
  5
1E8
  8
MyLines
 10
23134.0
 20
0.0
 30
0.0
 11
23134.0
 21
45.5
 31
0.0
  0
LINE
  5
1E9
  8
MyLines
 10
23686.0
 20
0.0
 30
0.0
 11
23686.0
 21
45.5
 31
0.0
  0
TEXT
  5
1EA
  8
MyLines
 62
1
 10
23411.0
 20
1.0
 30
0.0
 40
1.0
  1
7549-B
  7
LiberationSerif
 11
23411.0
 21
1.0
 31
0.0
  0
TEXT
  5
1EB
  8
MyLines
 62
1
 10
23135.0
 20
1.0
 30
0.0
 40
1.0
  1
7549-A
  7
LiberationSerif
 11
23135.0
 21
1.0
 31
0.0
  0
LINE
  5
1EC
  8
MyLines
 10
23410.0
 20
0.0
 30
0.0
 11
23410.0
 21
45.5
 31
0.0
  0
LINE
  5
1ED
  8
MyLines
 10
23688.0
 20
72.0
 30
0.0
 11
24242.0
 21
72.0
 31
0.0
  0
LINE
  5
1EE
  8
MyLines
 10
23688.0
 20
0.0
 30
0.0
 11
24242.0
 21
0.0
 31
0.0
  0
LINE
  5
1EF
  8
MyLines
 10
23688.0
 20
0.0
 30
0.0
 11
23688.0
 21
72.0
 31
0.0
  0
LINE
  5
1F0
  8
MyLines
 10
24242.0
 20
0.0
 30
0.0
 11
24242.0
 21
72.0
 31
0.0
  0
TEXT
  5
1F1
  8
MyLines
 62
1
 10
23966.0
 20
1.0
 30
0.0
 40
1.0
  1
7550-B
  7
LiberationSerif
 11
23966.0
 21
1.0
 31
0.0
  0
TEXT
  5
1F2
  8
MyLines
 62
1
 10
23689.0
 20
1.0
 30
0.0
 40
1.0
  1
7550-A
  7
LiberationSerif
 11
23689.0
 21
1.0
 31
0.0
  0
LINE
  5
1F3
  8
MyLines
 10
23965.0
 20
0.0
 30
0.0
 11
23965.0
 21
72.0
 31
0.0
  0
LINE
  5
1F4
  8
MyLines
 10
24244.0
 20
56.0
 30
0.0
 11
24782.0
 21
56.0
 31
0.0
  0
LINE
  5
1F5
  8
MyLines
 10
24244.0
 20
0.0
 30
0.0
 11
24782.0
 21
0.0
 31
0.0
  0
LINE
  5
1F6
  8
MyLines
 10
24244.0
 20
0.0
 30
0.0
 11
24244.0
 21
56.0
 31
0.0
  0
LINE
  5
1F7
  8
MyLines
 10
24782.0
 20
0.0
 30
0.0
 11
24782.0
 21
56.0
 31
0.0
  0
TEXT
  5
1F8
  8
MyLines
 62
1
 10
24514.0
 20
1.0
 30
0.0
 40
1.0
  1
7551-B
  7
LiberationSerif
 11
24514.0
 21
1.0
 31
0.0
  0
TEXT
  5
1F9
  8
MyLines
 62
1
 10
24245.0
 20
1.0
 30
0.0
 40
1.0
  1
7551-A
  7
LiberationSerif
 11
24245.0
 21
1.0
 31
0.0
  0
LINE
  5
1FA
  8
MyLines
 10
24513.0
 20
0.0
 30
0.0
 11
24513.0
 21
56.0
 31
0.0
  0
LINE
  5
1FB
  8
MyLines
 10
24784.0
 20
43.5
 30
0.0
 11
25138.0
 21
43.5
 31
0.0
  0
LINE
  5
1FC
  8
MyLines
 10
24784.0
 20
0.0
 30
0.0
 11
25138.0
 21
0.0
 31
0.0
  0
LINE
  5
1FD
  8
MyLines
 10
24784.0
 20
0.0
 30
0.0
 11
24784.0
 21
43.5
 31
0.0
  0
LINE
  5
1FE
  8
MyLines
 10
25138.0
 20
0.0
 30
0.0
 11
25138.0
 21
43.5
 31
0.0
  0
TEXT
  5
1FF
  8
MyLines
 62
1
 10
24962.0
 20
1.0
 30
0.0
 40
1.0
  1
7552-B
  7
LiberationSerif
 11
24962.0
 21
1.0
 31
0.0
  0
TEXT
  5
200
  8
MyLines
 62
1
 10
24785.0
 20
1.0
 30
0.0
 40
1.0
  1
7552-A
  7
LiberationSerif
 11
24785.0
 21
1.0
 31
0.0
  0
LINE
  5
201
  8
MyLines
 10
24961.0
 20
0.0
 30
0.0
 11
24961.0
 21
43.5
 31
0.0
  0
LINE
  5
202
  8
MyLines
 10
25140.0
 20
42.5
 30
0.0
 11
25656.0
 21
42.5
 31
0.0
  0
LINE
  5
203
  8
MyLines
 10
25140.0
 20
0.0
 30
0.0
 11
25656.0
 21
0.0
 31
0.0
  0
LINE
  5
204
  8
MyLines
 10
25140.0
 20
0.0
 30
0.0
 11
25140.0
 21
42.5
 31
0.0
  0
LINE
  5
205
  8
MyLines
 10
25656.0
 20
0.0
 30
0.0
 11
25656.0
 21
42.5
 31
0.0
  0
TEXT
  5
206
  8
MyLines
 62
1
 10
25399.0
 20
1.0
 30
0.0
 40
1.0
  1
7553-B
  7
LiberationSerif
 11
25399.0
 21
1.0
 31
0.0
  0
TEXT
  5
207
  8
MyLines
 62
1
 10
25141.0
 20
1.0
 30
0.0
 40
1.0
  1
7553-A
  7
LiberationSerif
 11
25141.0
 21
1.0
 31
0.0
  0
LINE
  5
208
  8
MyLines
 10
25398.0
 20
0.0
 30
0.0
 11
25398.0
 21
42.5
 31
0.0
  0
LINE
  5
209
  8
MyLines
 10
25658.0
 20
75.5
 30
0.0
 11
26042.0
 21
75.5
 31
0.0
  0
LINE
  5
20A
  8
MyLines
 10
25658.0
 20
0.0
 30
0.0
 11
26042.0
 21
0.0
 31
0.0
  0
LINE
  5
20B
  8
MyLines
 10
25658.0
 20
0.0
 30
0.0
 11
25658.0
 21
75.5
 31
0.0
  0
LINE
  5
20C
  8
MyLines
 10
26042.0
 20
0.0
 30
0.0
 11
26042.0
 21
75.5
 31
0.0
  0
TEXT
  5
20D
  8
MyLines
 62
1
 10
25851.0
 20
1.0
 30
0.0
 40
1.0
  1
7554-B
  7
LiberationSerif
 11
25851.0
 21
1.0
 31
0.0
  0
TEXT
  5
20E
  8
MyLines
 62
1
 10
25659.0
 20
1.0
 30
0.0
 40
1.0
  1
7554-A
  7
LiberationSerif
 11
25659.0
 21
1.0
 31
0.0
  0
LINE
  5
20F
  8
MyLines
 10
25850.0
 20
0.0
 30
0.0
 11
25850.0
 21
75.5
 31
0.0
  0
LINE
  5
210
  8
MyLines
 10
26044.0
 20
79.5
 30
0.0
 11
26466.0
 21
79.5
 31
0.0
  0
LINE
  5
211
  8
MyLines
 10
26044.0
 20
0.0
 30
0.0
 11
26466.0
 21
0.0
 31
0.0
  0
LINE
  5
212
  8
MyLines
 10
26044.0
 20
0.0
 30
0.0
 11
26044.0
 21
79.5
 31
0.0
  0
LINE
  5
213
  8
MyLines
 10
26466.0
 20
0.0
 30
0.0
 11
26466.0
 21
79.5
 31
0.0
  0
TEXT
  5
214
  8
MyLines
 62
1
 10
26256.0
 20
1.0
 30
0.0
 40
1.0
  1
7555-B
  7
LiberationSerif
 11
26256.0
 21
1.0
 31
0.0
  0
TEXT
  5
215
  8
MyLines
 62
1
 10
26045.0
 20
1.0
 30
0.0
 40
1.0
  1
7555-A
  7
LiberationSerif
 11
26045.0
 21
1.0
 31
0.0
  0
LINE
  5
216
  8
MyLines
 10
26255.0
 20
0.0
 30
0.0
 11
26255.0
 21
79.5
 31
0.0
  0
LINE
  5
217
  8
MyLines
 10
26468.0
 20
89.0
 30
0.0
 11
26840.0
 21
89.0
 31
0.0
  0
LINE
  5
218
  8
MyLines
 10
26468.0
 20
0.0
 30
0.0
 11
26840.0
 21
0.0
 31
0.0
  0
LINE
  5
219
  8
MyLines
 10
26468.0
 20
0.0
 30
0.0
 11
26468.0
 21
89.0
 31
0.0
  0
LINE
  5
21A
  8
MyLines
 10
26840.0
 20
0.0
 30
0.0
 11
26840.0
 21
89.0
 31
0.0
  0
TEXT
  5
21B
  8
MyLines
 62
1
 10
26655.0
 20
1.0
 30
0.0
 40
1.0
  1
7556-B
  7
LiberationSerif
 11
26655.0
 21
1.0
 31
0.0
  0
TEXT
  5
21C
  8
MyLines
 62
1
 10
26469.0
 20
1.0
 30
0.0
 40
1.0
  1
7556-A
  7
LiberationSerif
 11
26469.0
 21
1.0
 31
0.0
  0
LINE
  5
21D
  8
MyLines
 10
26654.0
 20
0.0
 30
0.0
 11
26654.0
 21
89.0
 31
0.0
  0
LINE
  5
21E
  8
MyLines
 10
26842.0
 20
36.5
 30
0.0
 11
27214.0
 21
36.5
 31
0.0
  0
LINE
  5
21F
  8
MyLines
 10
26842.0
 20
0.0
 30
0.0
 11
27214.0
 21
0.0
 31
0.0
  0
LINE
  5
220
  8
MyLines
 10
26842.0
 20
0.0
 30
0.0
 11
26842.0
 21
36.5
 31
0.0
  0
LINE
  5
221
  8
MyLines
 10
27214.0
 20
0.0
 30
0.0
 11
27214.0
 21
36.5
 31
0.0
  0
TEXT
  5
222
  8
MyLines
 62
1
 10
27029.0
 20
1.0
 30
0.0
 40
1.0
  1
7557-B
  7
LiberationSerif
 11
27029.0
 21
1.0
 31
0.0
  0
TEXT
  5
223
  8
MyLines
 62
1
 10
26843.0
 20
1.0
 30
0.0
 40
1.0
  1
7557-A
  7
LiberationSerif
 11
26843.0
 21
1.0
 31
0.0
  0
LINE
  5
224
  8
MyLines
 10
27028.0
 20
0.0
 30
0.0
 11
27028.0
 21
36.5
 31
0.0
  0
LINE
  5
225
  8
MyLines
 10
27216.0
 20
75.5
 30
0.0
 11
27706.0
 21
75.5
 31
0.0
  0
LINE
  5
226
  8
MyLines
 10
27216.0
 20
0.0
 30
0.0
 11
27706.0
 21
0.0
 31
0.0
  0
LINE
  5
227
  8
MyLines
 10
27216.0
 20
0.0
 30
0.0
 11
27216.0
 21
75.5
 31
0.0
  0
LINE
  5
228
  8
MyLines
 10
27706.0
 20
0.0
 30
0.0
 11
27706.0
 21
75.5
 31
0.0
  0
TEXT
  5
229
  8
MyLines
 62
1
 10
27462.0
 20
1.0
 30
0.0
 40
1.0
  1
7558-B
  7
LiberationSerif
 11
27462.0
 21
1.0
 31
0.0
  0
TEXT
  5
22A
  8
MyLines
 62
1
 10
27217.0
 20
1.0
 30
0.0
 40
1.0
  1
7558-A
  7
LiberationSerif
 11
27217.0
 21
1.0
 31
0.0
  0
LINE
  5
22B
  8
MyLines
 10
27461.0
 20
0.0
 30
0.0
 11
27461.0
 21
75.5
 31
0.0
  0
LINE
  5
22C
  8
MyLines
 10
27708.0
 20
67.0
 30
0.0
 11
28148.0
 21
67.0
 31
0.0
  0
LINE
  5
22D
  8
MyLines
 10
27708.0
 20
0.0
 30
0.0
 11
28148.0
 21
0.0
 31
0.0
  0
LINE
  5
22E
  8
MyLines
 10
27708.0
 20
0.0
 30
0.0
 11
27708.0
 21
67.0
 31
0.0
  0
LINE
  5
22F
  8
MyLines
 10
28148.0
 20
0.0
 30
0.0
 11
28148.0
 21
67.0
 31
0.0
  0
TEXT
  5
230
  8
MyLines
 62
1
 10
27929.0
 20
1.0
 30
0.0
 40
1.0
  1
7559-B
  7
LiberationSerif
 11
27929.0
 21
1.0
 31
0.0
  0
TEXT
  5
231
  8
MyLines
 62
1
 10
27709.0
 20
1.0
 30
0.0
 40
1.0
  1
7559-A
  7
LiberationSerif
 11
27709.0
 21
1.0
 31
0.0
  0
LINE
  5
232
  8
MyLines
 10
27928.0
 20
0.0
 30
0.0
 11
27928.0
 21
67.0
 31
0.0
  0
LINE
  5
233
  8
MyLines
 10
28150.0
 20
70.5
 30
0.0
 11
28542.0
 21
70.5
 31
0.0
  0
LINE
  5
234
  8
MyLines
 10
28150.0
 20
0.0
 30
0.0
 11
28542.0
 21
0.0
 31
0.0
  0
LINE
  5
235
  8
MyLines
 10
28150.0
 20
0.0
 30
0.0
 11
28150.0
 21
70.5
 31
0.0
  0
LINE
  5
236
  8
MyLines
 10
28542.0
 20
0.0
 30
0.0
 11
28542.0
 21
70.5
 31
0.0
  0
TEXT
  5
237
  8
MyLines
 62
1
 10
28347.0
 20
1.0
 30
0.0
 40
1.0
  1
7560-B
  7
LiberationSerif
 11
28347.0
 21
1.0
 31
0.0
  0
TEXT
  5
238
  8
MyLines
 62
1
 10
28151.0
 20
1.0
 30
0.0
 40
1.0
  1
7560-A
  7
LiberationSerif
 11
28151.0
 21
1.0
 31
0.0
  0
LINE
  5
239
  8
MyLines
 10
28346.0
 20
0.0
 30
0.0
 11
28346.0
 21
70.5
 31
0.0
  0
LINE
  5
23A
  8
MyLines
 10
28544.0
 20
61.0
 30
0.0
 11
29132.0
 21
61.0
 31
0.0
  0
LINE
  5
23B
  8
MyLines
 10
28544.0
 20
0.0
 30
0.0
 11
29132.0
 21
0.0
 31
0.0
  0
LINE
  5
23C
  8
MyLines
 10
28544.0
 20
0.0
 30
0.0
 11
28544.0
 21
61.0
 31
0.0
  0
LINE
  5
23D
  8
MyLines
 10
29132.0
 20
0.0
 30
0.0
 11
29132.0
 21
61.0
 31
0.0
  0
TEXT
  5
23E
  8
MyLines
 62
1
 10
28839.0
 20
1.0
 30
0.0
 40
1.0
  1
7561-B
  7
LiberationSerif
 11
28839.0
 21
1.0
 31
0.0
  0
TEXT
  5
23F
  8
MyLines
 62
1
 10
28545.0
 20
1.0
 30
0.0
 40
1.0
  1
7561-A
  7
LiberationSerif
 11
28545.0
 21
1.0
 31
0.0
  0
LINE
  5
240
  8
MyLines
 10
28838.0
 20
0.0
 30
0.0
 11
28838.0
 21
61.0
 31
0.0
  0
LINE
  5
241
  8
MyLines
 10
29134.0
 20
55.0
 30
0.0
 11
29592.0
 21
55.0
 31
0.0
  0
LINE
  5
242
  8
MyLines
 10
29134.0
 20
0.0
 30
0.0
 11
29592.0
 21
0.0
 31
0.0
  0
LINE
  5
243
  8
MyLines
 10
29134.0
 20
0.0
 30
0.0
 11
29134.0
 21
55.0
 31
0.0
  0
LINE
  5
244
  8
MyLines
 10
29592.0
 20
0.0
 30
0.0
 11
29592.0
 21
55.0
 31
0.0
  0
TEXT
  5
245
  8
MyLines
 62
1
 10
29364.0
 20
1.0
 30
0.0
 40
1.0
  1
7562-B
  7
LiberationSerif
 11
29364.0
 21
1.0
 31
0.0
  0
TEXT
  5
246
  8
MyLines
 62
1
 10
29135.0
 20
1.0
 30
0.0
 40
1.0
  1
7562-A
  7
LiberationSerif
 11
29135.0
 21
1.0
 31
0.0
  0
LINE
  5
247
  8
MyLines
 10
29363.0
 20
0.0
 30
0.0
 11
29363.0
 21
55.0
 31
0.0
  0
LINE
  5
248
  8
MyLines
 10
29594.0
 20
64.0
 30
0.0
 11
30062.0
 21
64.0
 31
0.0
  0
LINE
  5
249
  8
MyLines
 10
29594.0
 20
0.0
 30
0.0
 11
30062.0
 21
0.0
 31
0.0
  0
LINE
  5
24A
  8
MyLines
 10
29594.0
 20
0.0
 30
0.0
 11
29594.0
 21
64.0
 31
0.0
  0
LINE
  5
24B
  8
MyLines
 10
30062.0
 20
0.0
 30
0.0
 11
30062.0
 21
64.0
 31
0.0
  0
TEXT
  5
24C
  8
MyLines
 62
1
 10
29829.0
 20
1.0
 30
0.0
 40
1.0
  1
7563-B
  7
LiberationSerif
 11
29829.0
 21
1.0
 31
0.0
  0
TEXT
  5
24D
  8
MyLines
 62
1
 10
29595.0
 20
1.0
 30
0.0
 40
1.0
  1
7563-A
  7
LiberationSerif
 11
29595.0
 21
1.0
 31
0.0
  0
LINE
  5
24E
  8
MyLines
 10
29828.0
 20
0.0
 30
0.0
 11
29828.0
 21
64.0
 31
0.0
  0
LINE
  5
24F
  8
MyLines
 10
30064.0
 20
48.5
 30
0.0
 11
30508.0
 21
48.5
 31
0.0
  0
LINE
  5
250
  8
MyLines
 10
30064.0
 20
0.0
 30
0.0
 11
30508.0
 21
0.0
 31
0.0
  0
LINE
  5
251
  8
MyLines
 10
30064.0
 20
0.0
 30
0.0
 11
30064.0
 21
48.5
 31
0.0
  0
LINE
  5
252
  8
MyLines
 10
30508.0
 20
0.0
 30
0.0
 11
30508.0
 21
48.5
 31
0.0
  0
TEXT
  5
253
  8
MyLines
 62
1
 10
30287.0
 20
1.0
 30
0.0
 40
1.0
  1
7564-B
  7
LiberationSerif
 11
30287.0
 21
1.0
 31
0.0
  0
TEXT
  5
254
  8
MyLines
 62
1
 10
30065.0
 20
1.0
 30
0.0
 40
1.0
  1
7564-A
  7
LiberationSerif
 11
30065.0
 21
1.0
 31
0.0
  0
LINE
  5
255
  8
MyLines
 10
30286.0
 20
0.0
 30
0.0
 11
30286.0
 21
48.5
 31
0.0
  0
LINE
  5
256
  8
MyLines
 10
30510.0
 20
60.0
 30
0.0
 11
30926.0
 21
60.0
 31
0.0
  0
LINE
  5
257
  8
MyLines
 10
30510.0
 20
0.0
 30
0.0
 11
30926.0
 21
0.0
 31
0.0
  0
LINE
  5
258
  8
MyLines
 10
30510.0
 20
0.0
 30
0.0
 11
30510.0
 21
60.0
 31
0.0
  0
LINE
  5
259
  8
MyLines
 10
30926.0
 20
0.0
 30
0.0
 11
30926.0
 21
60.0
 31
0.0
  0
TEXT
  5
25A
  8
MyLines
 62
1
 10
30719.0
 20
1.0
 30
0.0
 40
1.0
  1
7565-B
  7
LiberationSerif
 11
30719.0
 21
1.0
 31
0.0
  0
TEXT
  5
25B
  8
MyLines
 62
1
 10
30511.0
 20
1.0
 30
0.0
 40
1.0
  1
7565-A
  7
LiberationSerif
 11
30511.0
 21
1.0
 31
0.0
  0
LINE
  5
25C
  8
MyLines
 10
30718.0
 20
0.0
 30
0.0
 11
30718.0
 21
60.0
 31
0.0
  0
LINE
  5
25D
  8
MyLines
 10
30928.0
 20
48.0
 30
0.0
 11
31438.0
 21
48.0
 31
0.0
  0
LINE
  5
25E
  8
MyLines
 10
30928.0
 20
0.0
 30
0.0
 11
31438.0
 21
0.0
 31
0.0
  0
LINE
  5
25F
  8
MyLines
 10
30928.0
 20
0.0
 30
0.0
 11
30928.0
 21
48.0
 31
0.0
  0
LINE
  5
260
  8
MyLines
 10
31438.0
 20
0.0
 30
0.0
 11
31438.0
 21
48.0
 31
0.0
  0
TEXT
  5
261
  8
MyLines
 62
1
 10
31184.0
 20
1.0
 30
0.0
 40
1.0
  1
7566-B
  7
LiberationSerif
 11
31184.0
 21
1.0
 31
0.0
  0
TEXT
  5
262
  8
MyLines
 62
1
 10
30929.0
 20
1.0
 30
0.0
 40
1.0
  1
7566-A
  7
LiberationSerif
 11
30929.0
 21
1.0
 31
0.0
  0
LINE
  5
263
  8
MyLines
 10
31183.0
 20
0.0
 30
0.0
 11
31183.0
 21
48.0
 31
0.0
  0
LINE
  5
264
  8
MyLines
 10
31440.0
 20
78.5
 30
0.0
 11
31856.0
 21
78.5
 31
0.0
  0
LINE
  5
265
  8
MyLines
 10
31440.0
 20
0.0
 30
0.0
 11
31856.0
 21
0.0
 31
0.0
  0
LINE
  5
266
  8
MyLines
 10
31440.0
 20
0.0
 30
0.0
 11
31440.0
 21
78.5
 31
0.0
  0
LINE
  5
267
  8
MyLines
 10
31856.0
 20
0.0
 30
0.0
 11
31856.0
 21
78.5
 31
0.0
  0
TEXT
  5
268
  8
MyLines
 62
1
 10
31649.0
 20
1.0
 30
0.0
 40
1.0
  1
7567-B
  7
LiberationSerif
 11
31649.0
 21
1.0
 31
0.0
  0
TEXT
  5
269
  8
MyLines
 62
1
 10
31441.0
 20
1.0
 30
0.0
 40
1.0
  1
7567-A
  7
LiberationSerif
 11
31441.0
 21
1.0
 31
0.0
  0
LINE
  5
26A
  8
MyLines
 10
31648.0
 20
0.0
 30
0.0
 11
31648.0
 21
78.5
 31
0.0
  0
LINE
  5
26B
  8
MyLines
 10
31858.0
 20
67.0
 30
0.0
 11
32374.0
 21
67.0
 31
0.0
  0
LINE
  5
26C
  8
MyLines
 10
31858.0
 20
0.0
 30
0.0
 11
32374.0
 21
0.0
 31
0.0
  0
LINE
  5
26D
  8
MyLines
 10
31858.0
 20
0.0
 30
0.0
 11
31858.0
 21
67.0
 31
0.0
  0
LINE
  5
26E
  8
MyLines
 10
32374.0
 20
0.0
 30
0.0
 11
32374.0
 21
67.0
 31
0.0
  0
TEXT
  5
26F
  8
MyLines
 62
1
 10
32117.0
 20
1.0
 30
0.0
 40
1.0
  1
7568-B
  7
LiberationSerif
 11
32117.0
 21
1.0
 31
0.0
  0
TEXT
  5
270
  8
MyLines
 62
1
 10
31859.0
 20
1.0
 30
0.0
 40
1.0
  1
7568-A
  7
LiberationSerif
 11
31859.0
 21
1.0
 31
0.0
  0
LINE
  5
271
  8
MyLines
 10
32116.0
 20
0.0
 30
0.0
 11
32116.0
 21
67.0
 31
0.0
  0
LINE
  5
272
  8
MyLines
 10
32376.0
 20
45.0
 30
0.0
 11
32904.0
 21
45.0
 31
0.0
  0
LINE
  5
273
  8
MyLines
 10
32376.0
 20
0.0
 30
0.0
 11
32904.0
 21
0.0
 31
0.0
  0
LINE
  5
274
  8
MyLines
 10
32376.0
 20
0.0
 30
0.0
 11
32376.0
 21
45.0
 31
0.0
  0
LINE
  5
275
  8
MyLines
 10
32904.0
 20
0.0
 30
0.0
 11
32904.0
 21
45.0
 31
0.0
  0
TEXT
  5
276
  8
MyLines
 62
1
 10
32641.0
 20
1.0
 30
0.0
 40
1.0
  1
7569-B
  7
LiberationSerif
 11
32641.0
 21
1.0
 31
0.0
  0
TEXT
  5
277
  8
MyLines
 62
1
 10
32377.0
 20
1.0
 30
0.0
 40
1.0
  1
7569-A
  7
LiberationSerif
 11
32377.0
 21
1.0
 31
0.0
  0
LINE
  5
278
  8
MyLines
 10
32640.0
 20
0.0
 30
0.0
 11
32640.0
 21
45.0
 31
0.0
  0
LINE
  5
279
  8
MyLines
 10
32906.0
 20
62.0
 30
0.0
 11
33384.0
 21
62.0
 31
0.0
  0
LINE
  5
27A
  8
MyLines
 10
32906.0
 20
0.0
 30
0.0
 11
33384.0
 21
0.0
 31
0.0
  0
LINE
  5
27B
  8
MyLines
 10
32906.0
 20
0.0
 30
0.0
 11
32906.0
 21
62.0
 31
0.0
  0
LINE
  5
27C
  8
MyLines
 10
33384.0
 20
0.0
 30
0.0
 11
33384.0
 21
62.0
 31
0.0
  0
TEXT
  5
27D
  8
MyLines
 62
1
 10
33146.0
 20
1.0
 30
0.0
 40
1.0
  1
7570-B
  7
LiberationSerif
 11
33146.0
 21
1.0
 31
0.0
  0
TEXT
  5
27E
  8
MyLines
 62
1
 10
32907.0
 20
1.0
 30
0.0
 40
1.0
  1
7570-A
  7
LiberationSerif
 11
32907.0
 21
1.0
 31
0.0
  0
LINE
  5
27F
  8
MyLines
 10
33145.0
 20
0.0
 30
0.0
 11
33145.0
 21
62.0
 31
0.0
  0
LINE
  5
280
  8
MyLines
 10
33386.0
 20
80.5
 30
0.0
 11
33848.0
 21
80.5
 31
0.0
  0
LINE
  5
281
  8
MyLines
 10
33386.0
 20
0.0
 30
0.0
 11
33848.0
 21
0.0
 31
0.0
  0
LINE
  5
282
  8
MyLines
 10
33386.0
 20
0.0
 30
0.0
 11
33386.0
 21
80.5
 31
0.0
  0
LINE
  5
283
  8
MyLines
 10
33848.0
 20
0.0
 30
0.0
 11
33848.0
 21
80.5
 31
0.0
  0
TEXT
  5
284
  8
MyLines
 62
1
 10
33618.0
 20
1.0
 30
0.0
 40
1.0
  1
7571-B
  7
LiberationSerif
 11
33618.0
 21
1.0
 31
0.0
  0
TEXT
  5
285
  8
MyLines
 62
1
 10
33387.0
 20
1.0
 30
0.0
 40
1.0
  1
7571-A
  7
LiberationSerif
 11
33387.0
 21
1.0
 31
0.0
  0
LINE
  5
286
  8
MyLines
 10
33617.0
 20
0.0
 30
0.0
 11
33617.0
 21
80.5
 31
0.0
  0
LINE
  5
287
  8
MyLines
 10
33850.0
 20
61.0
 30
0.0
 11
34356.0
 21
61.0
 31
0.0
  0
LINE
  5
288
  8
MyLines
 10
33850.0
 20
0.0
 30
0.0
 11
34356.0
 21
0.0
 31
0.0
  0
LINE
  5
289
  8
MyLines
 10
33850.0
 20
0.0
 30
0.0
 11
33850.0
 21
61.0
 31
0.0
  0
LINE
  5
28A
  8
MyLines
 10
34356.0
 20
0.0
 30
0.0
 11
34356.0
 21
61.0
 31
0.0
  0
TEXT
  5
28B
  8
MyLines
 62
1
 10
34104.0
 20
1.0
 30
0.0
 40
1.0
  1
7572-B
  7
LiberationSerif
 11
34104.0
 21
1.0
 31
0.0
  0
TEXT
  5
28C
  8
MyLines
 62
1
 10
33851.0
 20
1.0
 30
0.0
 40
1.0
  1
7572-A
  7
LiberationSerif
 11
33851.0
 21
1.0
 31
0.0
  0
LINE
  5
28D
  8
MyLines
 10
34103.0
 20
0.0
 30
0.0
 11
34103.0
 21
61.0
 31
0.0
  0
LINE
  5
28E
  8
MyLines
 10
34358.0
 20
57.0
 30
0.0
 11
34770.0
 21
57.0
 31
0.0
  0
LINE
  5
28F
  8
MyLines
 10
34358.0
 20
0.0
 30
0.0
 11
34770.0
 21
0.0
 31
0.0
  0
LINE
  5
290
  8
MyLines
 10
34358.0
 20
0.0
 30
0.0
 11
34358.0
 21
57.0
 31
0.0
  0
LINE
  5
291
  8
MyLines
 10
34770.0
 20
0.0
 30
0.0
 11
34770.0
 21
57.0
 31
0.0
  0
TEXT
  5
292
  8
MyLines
 62
1
 10
34565.0
 20
1.0
 30
0.0
 40
1.0
  1
7573-B
  7
LiberationSerif
 11
34565.0
 21
1.0
 31
0.0
  0
TEXT
  5
293
  8
MyLines
 62
1
 10
34359.0
 20
1.0
 30
0.0
 40
1.0
  1
7573-A
  7
LiberationSerif
 11
34359.0
 21
1.0
 31
0.0
  0
LINE
  5
294
  8
MyLines
 10
34564.0
 20
0.0
 30
0.0
 11
34564.0
 21
57.0
 31
0.0
  0
LINE
  5
295
  8
MyLines
 10
34772.0
 20
50.0
 30
0.0
 11
35170.0
 21
50.0
 31
0.0
  0
LINE
  5
296
  8
MyLines
 10
34772.0
 20
0.0
 30
0.0
 11
35170.0
 21
0.0
 31
0.0
  0
LINE
  5
297
  8
MyLines
 10
34772.0
 20
0.0
 30
0.0
 11
34772.0
 21
50.0
 31
0.0
  0
LINE
  5
298
  8
MyLines
 10
35170.0
 20
0.0
 30
0.0
 11
35170.0
 21
50.0
 31
0.0
  0
TEXT
  5
299
  8
MyLines
 62
1
 10
34972.0
 20
1.0
 30
0.0
 40
1.0
  1
7574-B
  7
LiberationSerif
 11
34972.0
 21
1.0
 31
0.0
  0
TEXT
  5
29A
  8
MyLines
 62
1
 10
34773.0
 20
1.0
 30
0.0
 40
1.0
  1
7574-A
  7
LiberationSerif
 11
34773.0
 21
1.0
 31
0.0
  0
LINE
  5
29B
  8
MyLines
 10
34971.0
 20
0.0
 30
0.0
 11
34971.0
 21
50.0
 31
0.0
  0
LINE
  5
29C
  8
MyLines
 10
35172.0
 20
53.0
 30
0.0
 11
35660.0
 21
53.0
 31
0.0
  0
LINE
  5
29D
  8
MyLines
 10
35172.0
 20
0.0
 30
0.0
 11
35660.0
 21
0.0
 31
0.0
  0
LINE
  5
29E
  8
MyLines
 10
35172.0
 20
0.0
 30
0.0
 11
35172.0
 21
53.0
 31
0.0
  0
LINE
  5
29F
  8
MyLines
 10
35660.0
 20
0.0
 30
0.0
 11
35660.0
 21
53.0
 31
0.0
  0
TEXT
  5
2A0
  8
MyLines
 62
1
 10
35417.0
 20
1.0
 30
0.0
 40
1.0
  1
7575-B
  7
LiberationSerif
 11
35417.0
 21
1.0
 31
0.0
  0
TEXT
  5
2A1
  8
MyLines
 62
1
 10
35173.0
 20
1.0
 30
0.0
 40
1.0
  1
7575-A
  7
LiberationSerif
 11
35173.0
 21
1.0
 31
0.0
  0
LINE
  5
2A2
  8
MyLines
 10
35416.0
 20
0.0
 30
0.0
 11
35416.0
 21
53.0
 31
0.0
  0
LINE
  5
2A3
  8
MyLines
 10
35662.0
 20
49.0
 30
0.0
 11
36022.0
 21
49.0
 31
0.0
  0
LINE
  5
2A4
  8
MyLines
 10
35662.0
 20
0.0
 30
0.0
 11
36022.0
 21
0.0
 31
0.0
  0
LINE
  5
2A5
  8
MyLines
 10
35662.0
 20
0.0
 30
0.0
 11
35662.0
 21
49.0
 31
0.0
  0
LINE
  5
2A6
  8
MyLines
 10
36022.0
 20
0.0
 30
0.0
 11
36022.0
 21
49.0
 31
0.0
  0
TEXT
  5
2A7
  8
MyLines
 62
1
 10
35843.0
 20
1.0
 30
0.0
 40
1.0
  1
7576-B
  7
LiberationSerif
 11
35843.0
 21
1.0
 31
0.0
  0
TEXT
  5
2A8
  8
MyLines
 62
1
 10
35663.0
 20
1.0
 30
0.0
 40
1.0
  1
7576-A
  7
LiberationSerif
 11
35663.0
 21
1.0
 31
0.0
  0
LINE
  5
2A9
  8
MyLines
 10
35842.0
 20
0.0
 30
0.0
 11
35842.0
 21
49.0
 31
0.0
  0
LINE
  5
2AA
  8
MyLines
 10
36024.0
 20
37.0
 30
0.0
 11
36502.0
 21
37.0
 31
0.0
  0
LINE
  5
2AB
  8
MyLines
 10
36024.0
 20
0.0
 30
0.0
 11
36502.0
 21
0.0
 31
0.0
  0
LINE
  5
2AC
  8
MyLines
 10
36024.0
 20
0.0
 30
0.0
 11
36024.0
 21
37.0
 31
0.0
  0
LINE
  5
2AD
  8
MyLines
 10
36502.0
 20
0.0
 30
0.0
 11
36502.0
 21
37.0
 31
0.0
  0
TEXT
  5
2AE
  8
MyLines
 62
1
 10
36264.0
 20
1.0
 30
0.0
 40
1.0
  1
7577-B
  7
LiberationSerif
 11
36264.0
 21
1.0
 31
0.0
  0
TEXT
  5
2AF
  8
MyLines
 62
1
 10
36025.0
 20
1.0
 30
0.0
 40
1.0
  1
7577-A
  7
LiberationSerif
 11
36025.0
 21
1.0
 31
0.0
  0
LINE
  5
2B0
  8
MyLines
 10
36263.0
 20
0.0
 30
0.0
 11
36263.0
 21
37.0
 31
0.0
  0
LINE
  5
2B1
  8
MyLines
 10
36504.0
 20
90.0
 30
0.0
 11
36996.0
 21
90.0
 31
0.0
  0
LINE
  5
2B2
  8
MyLines
 10
36504.0
 20
0.0
 30
0.0
 11
36996.0
 21
0.0
 31
0.0
  0
LINE
  5
2B3
  8
MyLines
 10
36504.0
 20
0.0
 30
0.0
 11
36504.0
 21
90.0
 31
0.0
  0
LINE
  5
2B4
  8
MyLines
 10
36996.0
 20
0.0
 30
0.0
 11
36996.0
 21
90.0
 31
0.0
  0
TEXT
  5
2B5
  8
MyLines
 62
1
 10
36751.0
 20
1.0
 30
0.0
 40
1.0
  1
7578-B
  7
LiberationSerif
 11
36751.0
 21
1.0
 31
0.0
  0
TEXT
  5
2B6
  8
MyLines
 62
1
 10
36505.0
 20
1.0
 30
0.0
 40
1.0
  1
7578-A
  7
LiberationSerif
 11
36505.0
 21
1.0
 31
0.0
  0
LINE
  5
2B7
  8
MyLines
 10
36750.0
 20
0.0
 30
0.0
 11
36750.0
 21
90.0
 31
0.0
  0
LINE
  5
2B8
  8
MyLines
 10
36998.0
 20
44.0
 30
0.0
 11
37476.0
 21
44.0
 31
0.0
  0
LINE
  5
2B9
  8
MyLines
 10
36998.0
 20
0.0
 30
0.0
 11
37476.0
 21
0.0
 31
0.0
  0
LINE
  5
2BA
  8
MyLines
 10
36998.0
 20
0.0
 30
0.0
 11
36998.0
 21
44.0
 31
0.0
  0
LINE
  5
2BB
  8
MyLines
 10
37476.0
 20
0.0
 30
0.0
 11
37476.0
 21
44.0
 31
0.0
  0
TEXT
  5
2BC
  8
MyLines
 62
1
 10
37238.0
 20
1.0
 30
0.0
 40
1.0
  1
7579-B
  7
LiberationSerif
 11
37238.0
 21
1.0
 31
0.0
  0
TEXT
  5
2BD
  8
MyLines
 62
1
 10
36999.0
 20
1.0
 30
0.0
 40
1.0
  1
7579-A
  7
LiberationSerif
 11
36999.0
 21
1.0
 31
0.0
  0
LINE
  5
2BE
  8
MyLines
 10
37237.0
 20
0.0
 30
0.0
 11
37237.0
 21
44.0
 31
0.0
  0
LINE
  5
2BF
  8
MyLines
 10
37478.0
 20
66.0
 30
0.0
 11
37916.0
 21
66.0
 31
0.0
  0
LINE
  5
2C0
  8
MyLines
 10
37478.0
 20
0.0
 30
0.0
 11
37916.0
 21
0.0
 31
0.0
  0
LINE
  5
2C1
  8
MyLines
 10
37478.0
 20
0.0
 30
0.0
 11
37478.0
 21
66.0
 31
0.0
  0
LINE
  5
2C2
  8
MyLines
 10
37916.0
 20
0.0
 30
0.0
 11
37916.0
 21
66.0
 31
0.0
  0
TEXT
  5
2C3
  8
MyLines
 62
1
 10
37698.0
 20
1.0
 30
0.0
 40
1.0
  1
7580-B
  7
LiberationSerif
 11
37698.0
 21
1.0
 31
0.0
  0
TEXT
  5
2C4
  8
MyLines
 62
1
 10
37479.0
 20
1.0
 30
0.0
 40
1.0
  1
7580-A
  7
LiberationSerif
 11
37479.0
 21
1.0
 31
0.0
  0
LINE
  5
2C5
  8
MyLines
 10
37697.0
 20
0.0
 30
0.0
 11
37697.0
 21
66.0
 31
0.0
  0
LINE
  5
2C6
  8
MyLines
 10
37918.0
 20
60.0
 30
0.0
 11
38344.0
 21
60.0
 31
0.0
  0
LINE
  5
2C7
  8
MyLines
 10
37918.0
 20
0.0
 30
0.0
 11
38344.0
 21
0.0
 31
0.0
  0
LINE
  5
2C8
  8
MyLines
 10
37918.0
 20
0.0
 30
0.0
 11
37918.0
 21
60.0
 31
0.0
  0
LINE
  5
2C9
  8
MyLines
 10
38344.0
 20
0.0
 30
0.0
 11
38344.0
 21
60.0
 31
0.0
  0
TEXT
  5
2CA
  8
MyLines
 62
1
 10
38132.0
 20
1.0
 30
0.0
 40
1.0
  1
7581-B
  7
LiberationSerif
 11
38132.0
 21
1.0
 31
0.0
  0
TEXT
  5
2CB
  8
MyLines
 62
1
 10
37919.0
 20
1.0
 30
0.0
 40
1.0
  1
7581-A
  7
LiberationSerif
 11
37919.0
 21
1.0
 31
0.0
  0
LINE
  5
2CC
  8
MyLines
 10
38131.0
 20
0.0
 30
0.0
 11
38131.0
 21
60.0
 31
0.0
  0
LINE
  5
2CD
  8
MyLines
 10
38346.0
 20
44.0
 30
0.0
 11
38696.0
 21
44.0
 31
0.0
  0
LINE
  5
2CE
  8
MyLines
 10
38346.0
 20
0.0
 30
0.0
 11
38696.0
 21
0.0
 31
0.0
  0
LINE
  5
2CF
  8
MyLines
 10
38346.0
 20
0.0
 30
0.0
 11
38346.0
 21
44.0
 31
0.0
  0
LINE
  5
2D0
  8
MyLines
 10
38696.0
 20
0.0
 30
0.0
 11
38696.0
 21
44.0
 31
0.0
  0
TEXT
  5
2D1
  8
MyLines
 62
1
 10
38522.0
 20
1.0
 30
0.0
 40
1.0
  1
7582-B
  7
LiberationSerif
 11
38522.0
 21
1.0
 31
0.0
  0
TEXT
  5
2D2
  8
MyLines
 62
1
 10
38347.0
 20
1.0
 30
0.0
 40
1.0
  1
7582-A
  7
LiberationSerif
 11
38347.0
 21
1.0
 31
0.0
  0
LINE
  5
2D3
  8
MyLines
 10
38521.0
 20
0.0
 30
0.0
 11
38521.0
 21
44.0
 31
0.0
  0
LINE
  5
2D4
  8
MyLines
 10
38698.0
 20
84.5
 30
0.0
 11
39290.0
 21
84.5
 31
0.0
  0
LINE
  5
2D5
  8
MyLines
 10
38698.0
 20
0.0
 30
0.0
 11
39290.0
 21
0.0
 31
0.0
  0
LINE
  5
2D6
  8
MyLines
 10
38698.0
 20
0.0
 30
0.0
 11
38698.0
 21
84.5
 31
0.0
  0
LINE
  5
2D7
  8
MyLines
 10
39290.0
 20
0.0
 30
0.0
 11
39290.0
 21
84.5
 31
0.0
  0
TEXT
  5
2D8
  8
MyLines
 62
1
 10
38995.0
 20
1.0
 30
0.0
 40
1.0
  1
7583-B
  7
LiberationSerif
 11
38995.0
 21
1.0
 31
0.0
  0
TEXT
  5
2D9
  8
MyLines
 62
1
 10
38699.0
 20
1.0
 30
0.0
 40
1.0
  1
7583-A
  7
LiberationSerif
 11
38699.0
 21
1.0
 31
0.0
  0
LINE
  5
2DA
  8
MyLines
 10
38994.0
 20
0.0
 30
0.0
 11
38994.0
 21
84.5
 31
0.0
  0
LINE
  5
2DB
  8
MyLines
 10
39292.0
 20
73.5
 30
0.0
 11
39670.0
 21
73.5
 31
0.0
  0
LINE
  5
2DC
  8
MyLines
 10
39292.0
 20
0.0
 30
0.0
 11
39670.0
 21
0.0
 31
0.0
  0
LINE
  5
2DD
  8
MyLines
 10
39292.0
 20
0.0
 30
0.0
 11
39292.0
 21
73.5
 31
0.0
  0
LINE
  5
2DE
  8
MyLines
 10
39670.0
 20
0.0
 30
0.0
 11
39670.0
 21
73.5
 31
0.0
  0
TEXT
  5
2DF
  8
MyLines
 62
1
 10
39482.0
 20
1.0
 30
0.0
 40
1.0
  1
7584-B
  7
LiberationSerif
 11
39482.0
 21
1.0
 31
0.0
  0
TEXT
  5
2E0
  8
MyLines
 62
1
 10
39293.0
 20
1.0
 30
0.0
 40
1.0
  1
7584-A
  7
LiberationSerif
 11
39293.0
 21
1.0
 31
0.0
  0
LINE
  5
2E1
  8
MyLines
 10
39481.0
 20
0.0
 30
0.0
 11
39481.0
 21
73.5
 31
0.0
  0
LINE
  5
2E2
  8
MyLines
 10
39672.0
 20
84.0
 30
0.0
 11
40216.0
 21
84.0
 31
0.0
  0
LINE
  5
2E3
  8
MyLines
 10
39672.0
 20
0.0
 30
0.0
 11
40216.0
 21
0.0
 31
0.0
  0
LINE
  5
2E4
  8
MyLines
 10
39672.0
 20
0.0
 30
0.0
 11
39672.0
 21
84.0
 31
0.0
  0
LINE
  5
2E5
  8
MyLines
 10
40216.0
 20
0.0
 30
0.0
 11
40216.0
 21
84.0
 31
0.0
  0
TEXT
  5
2E6
  8
MyLines
 62
1
 10
39945.0
 20
1.0
 30
0.0
 40
1.0
  1
7585-B
  7
LiberationSerif
 11
39945.0
 21
1.0
 31
0.0
  0
TEXT
  5
2E7
  8
MyLines
 62
1
 10
39673.0
 20
1.0
 30
0.0
 40
1.0
  1
7585-A
  7
LiberationSerif
 11
39673.0
 21
1.0
 31
0.0
  0
LINE
  5
2E8
  8
MyLines
 10
39944.0
 20
0.0
 30
0.0
 11
39944.0
 21
84.0
 31
0.0
  0
LINE
  5
2E9
  8
MyLines
 10
40218.0
 20
64.5
 30
0.0
 11
40626.0
 21
64.5
 31
0.0
  0
LINE
  5
2EA
  8
MyLines
 10
40218.0
 20
0.0
 30
0.0
 11
40626.0
 21
0.0
 31
0.0
  0
LINE
  5
2EB
  8
MyLines
 10
40218.0
 20
0.0
 30
0.0
 11
40218.0
 21
64.5
 31
0.0
  0
LINE
  5
2EC
  8
MyLines
 10
40626.0
 20
0.0
 30
0.0
 11
40626.0
 21
64.5
 31
0.0
  0
TEXT
  5
2ED
  8
MyLines
 62
1
 10
40423.0
 20
1.0
 30
0.0
 40
1.0
  1
7586-B
  7
LiberationSerif
 11
40423.0
 21
1.0
 31
0.0
  0
TEXT
  5
2EE
  8
MyLines
 62
1
 10
40219.0
 20
1.0
 30
0.0
 40
1.0
  1
7586-A
  7
LiberationSerif
 11
40219.0
 21
1.0
 31
0.0
  0
LINE
  5
2EF
  8
MyLines
 10
40422.0
 20
0.0
 30
0.0
 11
40422.0
 21
64.5
 31
0.0
  0
LINE
  5
2F0
  8
MyLines
 10
40628.0
 20
48.0
 30
0.0
 11
41118.0
 21
48.0
 31
0.0
  0
LINE
  5
2F1
  8
MyLines
 10
40628.0
 20
0.0
 30
0.0
 11
41118.0
 21
0.0
 31
0.0
  0
LINE
  5
2F2
  8
MyLines
 10
40628.0
 20
0.0
 30
0.0
 11
40628.0
 21
48.0
 31
0.0
  0
LINE
  5
2F3
  8
MyLines
 10
41118.0
 20
0.0
 30
0.0
 11
41118.0
 21
48.0
 31
0.0
  0
TEXT
  5
2F4
  8
MyLines
 62
1
 10
40874.0
 20
1.0
 30
0.0
 40
1.0
  1
7587-B
  7
LiberationSerif
 11
40874.0
 21
1.0
 31
0.0
  0
TEXT
  5
2F5
  8
MyLines
 62
1
 10
40629.0
 20
1.0
 30
0.0
 40
1.0
  1
7587-A
  7
LiberationSerif
 11
40629.0
 21
1.0
 31
0.0
  0
LINE
  5
2F6
  8
MyLines
 10
40873.0
 20
0.0
 30
0.0
 11
40873.0
 21
48.0
 31
0.0
  0
LINE
  5
2F7
  8
MyLines
 10
41120.0
 20
68.0
 30
0.0
 11
41548.0
 21
68.0
 31
0.0
  0
LINE
  5
2F8
  8
MyLines
 10
41120.0
 20
0.0
 30
0.0
 11
41548.0
 21
0.0
 31
0.0
  0
LINE
  5
2F9
  8
MyLines
 10
41120.0
 20
0.0
 30
0.0
 11
41120.0
 21
68.0
 31
0.0
  0
LINE
  5
2FA
  8
MyLines
 10
41548.0
 20
0.0
 30
0.0
 11
41548.0
 21
68.0
 31
0.0
  0
TEXT
  5
2FB
  8
MyLines
 62
1
 10
41335.0
 20
1.0
 30
0.0
 40
1.0
  1
7588-B
  7
LiberationSerif
 11
41335.0
 21
1.0
 31
0.0
  0
TEXT
  5
2FC
  8
MyLines
 62
1
 10
41121.0
 20
1.0
 30
0.0
 40
1.0
  1
7588-A
  7
LiberationSerif
 11
41121.0
 21
1.0
 31
0.0
  0
LINE
  5
2FD
  8
MyLines
 10
41334.0
 20
0.0
 30
0.0
 11
41334.0
 21
68.0
 31
0.0
  0
LINE
  5
2FE
  8
MyLines
 10
41550.0
 20
54.0
 30
0.0
 11
41914.0
 21
54.0
 31
0.0
  0
LINE
  5
2FF
  8
MyLines
 10
41550.0
 20
0.0
 30
0.0
 11
41914.0
 21
0.0
 31
0.0
  0
LINE
  5
300
  8
MyLines
 10
41550.0
 20
0.0
 30
0.0
 11
41550.0
 21
54.0
 31
0.0
  0
LINE
  5
301
  8
MyLines
 10
41914.0
 20
0.0
 30
0.0
 11
41914.0
 21
54.0
 31
0.0
  0
TEXT
  5
302
  8
MyLines
 62
1
 10
41733.0
 20
1.0
 30
0.0
 40
1.0
  1
7589-B
  7
LiberationSerif
 11
41733.0
 21
1.0
 31
0.0
  0
TEXT
  5
303
  8
MyLines
 62
1
 10
41551.0
 20
1.0
 30
0.0
 40
1.0
  1
7589-A
  7
LiberationSerif
 11
41551.0
 21
1.0
 31
0.0
  0
LINE
  5
304
  8
MyLines
 10
41732.0
 20
0.0
 30
0.0
 11
41732.0
 21
54.0
 31
0.0
  0
LINE
  5
305
  8
MyLines
 10
41916.0
 20
49.0
 30
0.0
 11
42476.0
 21
49.0
 31
0.0
  0
LINE
  5
306
  8
MyLines
 10
41916.0
 20
0.0
 30
0.0
 11
42476.0
 21
0.0
 31
0.0
  0
LINE
  5
307
  8
MyLines
 10
41916.0
 20
0.0
 30
0.0
 11
41916.0
 21
49.0
 31
0.0
  0
LINE
  5
308
  8
MyLines
 10
42476.0
 20
0.0
 30
0.0
 11
42476.0
 21
49.0
 31
0.0
  0
TEXT
  5
309
  8
MyLines
 62
1
 10
42197.0
 20
1.0
 30
0.0
 40
1.0
  1
7590-B
  7
LiberationSerif
 11
42197.0
 21
1.0
 31
0.0
  0
TEXT
  5
30A
  8
MyLines
 62
1
 10
41917.0
 20
1.0
 30
0.0
 40
1.0
  1
7590-A
  7
LiberationSerif
 11
41917.0
 21
1.0
 31
0.0
  0
LINE
  5
30B
  8
MyLines
 10
42196.0
 20
0.0
 30
0.0
 11
42196.0
 21
49.0
 31
0.0
  0
LINE
  5
30C
  8
MyLines
 10
42478.0
 20
64.0
 30
0.0
 11
43040.0
 21
64.0
 31
0.0
  0
LINE
  5
30D
  8
MyLines
 10
42478.0
 20
0.0
 30
0.0
 11
43040.0
 21
0.0
 31
0.0
  0
LINE
  5
30E
  8
MyLines
 10
42478.0
 20
0.0
 30
0.0
 11
42478.0
 21
64.0
 31
0.0
  0
LINE
  5
30F
  8
MyLines
 10
43040.0
 20
0.0
 30
0.0
 11
43040.0
 21
64.0
 31
0.0
  0
TEXT
  5
310
  8
MyLines
 62
1
 10
42760.0
 20
1.0
 30
0.0
 40
1.0
  1
7591-B
  7
LiberationSerif
 11
42760.0
 21
1.0
 31
0.0
  0
TEXT
  5
311
  8
MyLines
 62
1
 10
42479.0
 20
1.0
 30
0.0
 40
1.0
  1
7591-A
  7
LiberationSerif
 11
42479.0
 21
1.0
 31
0.0
  0
LINE
  5
312
  8
MyLines
 10
42759.0
 20
0.0
 30
0.0
 11
42759.0
 21
64.0
 31
0.0
  0
LINE
  5
313
  8
MyLines
 10
43042.0
 20
76.0
 30
0.0
 11
43592.0
 21
76.0
 31
0.0
  0
LINE
  5
314
  8
MyLines
 10
43042.0
 20
0.0
 30
0.0
 11
43592.0
 21
0.0
 31
0.0
  0
LINE
  5
315
  8
MyLines
 10
43042.0
 20
0.0
 30
0.0
 11
43042.0
 21
76.0
 31
0.0
  0
LINE
  5
316
  8
MyLines
 10
43592.0
 20
0.0
 30
0.0
 11
43592.0
 21
76.0
 31
0.0
  0
TEXT
  5
317
  8
MyLines
 62
1
 10
43318.0
 20
1.0
 30
0.0
 40
1.0
  1
7592-B
  7
LiberationSerif
 11
43318.0
 21
1.0
 31
0.0
  0
TEXT
  5
318
  8
MyLines
 62
1
 10
43043.0
 20
1.0
 30
0.0
 40
1.0
  1
7592-A
  7
LiberationSerif
 11
43043.0
 21
1.0
 31
0.0
  0
LINE
  5
319
  8
MyLines
 10
43317.0
 20
0.0
 30
0.0
 11
43317.0
 21
76.0
 31
0.0
  0
LINE
  5
31A
  8
MyLines
 10
43594.0
 20
61.0
 30
0.0
 11
43970.0
 21
61.0
 31
0.0
  0
LINE
  5
31B
  8
MyLines
 10
43594.0
 20
0.0
 30
0.0
 11
43970.0
 21
0.0
 31
0.0
  0
LINE
  5
31C
  8
MyLines
 10
43594.0
 20
0.0
 30
0.0
 11
43594.0
 21
61.0
 31
0.0
  0
LINE
  5
31D
  8
MyLines
 10
43970.0
 20
0.0
 30
0.0
 11
43970.0
 21
61.0
 31
0.0
  0
TEXT
  5
31E
  8
MyLines
 62
1
 10
43783.0
 20
1.0
 30
0.0
 40
1.0
  1
7593-B
  7
LiberationSerif
 11
43783.0
 21
1.0
 31
0.0
  0
TEXT
  5
31F
  8
MyLines
 62
1
 10
43595.0
 20
1.0
 30
0.0
 40
1.0
  1
7593-A
  7
LiberationSerif
 11
43595.0
 21
1.0
 31
0.0
  0
LINE
  5
320
  8
MyLines
 10
43782.0
 20
0.0
 30
0.0
 11
43782.0
 21
61.0
 31
0.0
  0
LINE
  5
321
  8
MyLines
 10
43972.0
 20
49.5
 30
0.0
 11
44514.0
 21
49.5
 31
0.0
  0
LINE
  5
322
  8
MyLines
 10
43972.0
 20
0.0
 30
0.0
 11
44514.0
 21
0.0
 31
0.0
  0
LINE
  5
323
  8
MyLines
 10
43972.0
 20
0.0
 30
0.0
 11
43972.0
 21
49.5
 31
0.0
  0
LINE
  5
324
  8
MyLines
 10
44514.0
 20
0.0
 30
0.0
 11
44514.0
 21
49.5
 31
0.0
  0
TEXT
  5
325
  8
MyLines
 62
1
 10
44244.0
 20
1.0
 30
0.0
 40
1.0
  1
7594-B
  7
LiberationSerif
 11
44244.0
 21
1.0
 31
0.0
  0
TEXT
  5
326
  8
MyLines
 62
1
 10
43973.0
 20
1.0
 30
0.0
 40
1.0
  1
7594-A
  7
LiberationSerif
 11
43973.0
 21
1.0
 31
0.0
  0
LINE
  5
327
  8
MyLines
 10
44243.0
 20
0.0
 30
0.0
 11
44243.0
 21
49.5
 31
0.0
  0
LINE
  5
328
  8
MyLines
 10
44516.0
 20
48.5
 30
0.0
 11
45074.0
 21
48.5
 31
0.0
  0
LINE
  5
329
  8
MyLines
 10
44516.0
 20
0.0
 30
0.0
 11
45074.0
 21
0.0
 31
0.0
  0
LINE
  5
32A
  8
MyLines
 10
44516.0
 20
0.0
 30
0.0
 11
44516.0
 21
48.5
 31
0.0
  0
LINE
  5
32B
  8
MyLines
 10
45074.0
 20
0.0
 30
0.0
 11
45074.0
 21
48.5
 31
0.0
  0
TEXT
  5
32C
  8
MyLines
 62
1
 10
44796.0
 20
1.0
 30
0.0
 40
1.0
  1
7595-B
  7
LiberationSerif
 11
44796.0
 21
1.0
 31
0.0
  0
TEXT
  5
32D
  8
MyLines
 62
1
 10
44517.0
 20
1.0
 30
0.0
 40
1.0
  1
7595-A
  7
LiberationSerif
 11
44517.0
 21
1.0
 31
0.0
  0
LINE
  5
32E
  8
MyLines
 10
44795.0
 20
0.0
 30
0.0
 11
44795.0
 21
48.5
 31
0.0
  0
LINE
  5
32F
  8
MyLines
 10
45076.0
 20
90.0
 30
0.0
 11
45504.0
 21
90.0
 31
0.0
  0
LINE
  5
330
  8
MyLines
 10
45076.0
 20
0.0
 30
0.0
 11
45504.0
 21
0.0
 31
0.0
  0
LINE
  5
331
  8
MyLines
 10
45076.0
 20
0.0
 30
0.0
 11
45076.0
 21
90.0
 31
0.0
  0
LINE
  5
332
  8
MyLines
 10
45504.0
 20
0.0
 30
0.0
 11
45504.0
 21
90.0
 31
0.0
  0
TEXT
  5
333
  8
MyLines
 62
1
 10
45291.0
 20
1.0
 30
0.0
 40
1.0
  1
7596-B
  7
LiberationSerif
 11
45291.0
 21
1.0
 31
0.0
  0
TEXT
  5
334
  8
MyLines
 62
1
 10
45077.0
 20
1.0
 30
0.0
 40
1.0
  1
7596-A
  7
LiberationSerif
 11
45077.0
 21
1.0
 31
0.0
  0
LINE
  5
335
  8
MyLines
 10
45290.0
 20
0.0
 30
0.0
 11
45290.0
 21
90.0
 31
0.0
  0
LINE
  5
336
  8
MyLines
 10
45506.0
 20
80.5
 30
0.0
 11
45962.0
 21
80.5
 31
0.0
  0
LINE
  5
337
  8
MyLines
 10
45506.0
 20
0.0
 30
0.0
 11
45962.0
 21
0.0
 31
0.0
  0
LINE
  5
338
  8
MyLines
 10
45506.0
 20
0.0
 30
0.0
 11
45506.0
 21
80.5
 31
0.0
  0
LINE
  5
339
  8
MyLines
 10
45962.0
 20
0.0
 30
0.0
 11
45962.0
 21
80.5
 31
0.0
  0
TEXT
  5
33A
  8
MyLines
 62
1
 10
45735.0
 20
1.0
 30
0.0
 40
1.0
  1
7597-B
  7
LiberationSerif
 11
45735.0
 21
1.0
 31
0.0
  0
TEXT
  5
33B
  8
MyLines
 62
1
 10
45507.0
 20
1.0
 30
0.0
 40
1.0
  1
7597-A
  7
LiberationSerif
 11
45507.0
 21
1.0
 31
0.0
  0
LINE
  5
33C
  8
MyLines
 10
45734.0
 20
0.0
 30
0.0
 11
45734.0
 21
80.5
 31
0.0
  0
LINE
  5
33D
  8
MyLines
 10
45964.0
 20
55.0
 30
0.0
 11
46428.0
 21
55.0
 31
0.0
  0
LINE
  5
33E
  8
MyLines
 10
45964.0
 20
0.0
 30
0.0
 11
46428.0
 21
0.0
 31
0.0
  0
LINE
  5
33F
  8
MyLines
 10
45964.0
 20
0.0
 30
0.0
 11
45964.0
 21
55.0
 31
0.0
  0
LINE
  5
340
  8
MyLines
 10
46428.0
 20
0.0
 30
0.0
 11
46428.0
 21
55.0
 31
0.0
  0
TEXT
  5
341
  8
MyLines
 62
1
 10
46197.0
 20
1.0
 30
0.0
 40
1.0
  1
7598-B
  7
LiberationSerif
 11
46197.0
 21
1.0
 31
0.0
  0
TEXT
  5
342
  8
MyLines
 62
1
 10
45965.0
 20
1.0
 30
0.0
 40
1.0
  1
7598-A
  7
LiberationSerif
 11
45965.0
 21
1.0
 31
0.0
  0
LINE
  5
343
  8
MyLines
 10
46196.0
 20
0.0
 30
0.0
 11
46196.0
 21
55.0
 31
0.0
  0
LINE
  5
344
  8
MyLines
 10
46430.0
 20
81.0
 30
0.0
 11
46946.0
 21
81.0
 31
0.0
  0
LINE
  5
345
  8
MyLines
 10
46430.0
 20
0.0
 30
0.0
 11
46946.0
 21
0.0
 31
0.0
  0
LINE
  5
346
  8
MyLines
 10
46430.0
 20
0.0
 30
0.0
 11
46430.0
 21
81.0
 31
0.0
  0
LINE
  5
347
  8
MyLines
 10
46946.0
 20
0.0
 30
0.0
 11
46946.0
 21
81.0
 31
0.0
  0
TEXT
  5
348
  8
MyLines
 62
1
 10
46689.0
 20
1.0
 30
0.0
 40
1.0
  1
7599-B
  7
LiberationSerif
 11
46689.0
 21
1.0
 31
0.0
  0
TEXT
  5
349
  8
MyLines
 62
1
 10
46431.0
 20
1.0
 30
0.0
 40
1.0
  1
7599-A
  7
LiberationSerif
 11
46431.0
 21
1.0
 31
0.0
  0
LINE
  5
34A
  8
MyLines
 10
46688.0
 20
0.0
 30
0.0
 11
46688.0
 21
81.0
 31
0.0
  0
LINE
  5
34B
  8
MyLines
 10
46948.0
 20
40.0
 30
0.0
 11
47344.0
 21
40.0
 31
0.0
  0
LINE
  5
34C
  8
MyLines
 10
46948.0
 20
0.0
 30
0.0
 11
47344.0
 21
0.0
 31
0.0
  0
LINE
  5
34D
  8
MyLines
 10
46948.0
 20
0.0
 30
0.0
 11
46948.0
 21
40.0
 31
0.0
  0
LINE
  5
34E
  8
MyLines
 10
47344.0
 20
0.0
 30
0.0
 11
47344.0
 21
40.0
 31
0.0
  0
TEXT
  5
34F
  8
MyLines
 62
1
 10
47147.0
 20
1.0
 30
0.0
 40
1.0
  1
7600-B
  7
LiberationSerif
 11
47147.0
 21
1.0
 31
0.0
  0
TEXT
  5
350
  8
MyLines
 62
1
 10
46949.0
 20
1.0
 30
0.0
 40
1.0
  1
7600-A
  7
LiberationSerif
 11
46949.0
 21
1.0
 31
0.0
  0
LINE
  5
351
  8
MyLines
 10
47146.0
 20
0.0
 30
0.0
 11
47146.0
 21
40.0
 31
0.0
  0
LINE
  5
352
  8
MyLines
 10
47346.0
 20
36.0
 30
0.0
 11
47774.0
 21
36.0
 31
0.0
  0
LINE
  5
353
  8
MyLines
 10
47346.0
 20
0.0
 30
0.0
 11
47774.0
 21
0.0
 31
0.0
  0
LINE
  5
354
  8
MyLines
 10
47346.0
 20
0.0
 30
0.0
 11
47346.0
 21
36.0
 31
0.0
  0
LINE
  5
355
  8
MyLines
 10
47774.0
 20
0.0
 30
0.0
 11
47774.0
 21
36.0
 31
0.0
  0
TEXT
  5
356
  8
MyLines
 62
1
 10
47561.0
 20
1.0
 30
0.0
 40
1.0
  1
7601-B
  7
LiberationSerif
 11
47561.0
 21
1.0
 31
0.0
  0
TEXT
  5
357
  8
MyLines
 62
1
 10
47347.0
 20
1.0
 30
0.0
 40
1.0
  1
7601-A
  7
LiberationSerif
 11
47347.0
 21
1.0
 31
0.0
  0
LINE
  5
358
  8
MyLines
 10
47560.0
 20
0.0
 30
0.0
 11
47560.0
 21
36.0
 31
0.0
  0
LINE
  5
359
  8
MyLines
 10
47776.0
 20
44.5
 30
0.0
 11
48206.0
 21
44.5
 31
0.0
  0
LINE
  5
35A
  8
MyLines
 10
47776.0
 20
0.0
 30
0.0
 11
48206.0
 21
0.0
 31
0.0
  0
LINE
  5
35B
  8
MyLines
 10
47776.0
 20
0.0
 30
0.0
 11
47776.0
 21
44.5
 31
0.0
  0
LINE
  5
35C
  8
MyLines
 10
48206.0
 20
0.0
 30
0.0
 11
48206.0
 21
44.5
 31
0.0
  0
TEXT
  5
35D
  8
MyLines
 62
1
 10
47992.0
 20
1.0
 30
0.0
 40
1.0
  1
7602-B
  7
LiberationSerif
 11
47992.0
 21
1.0
 31
0.0
  0
TEXT
  5
35E
  8
MyLines
 62
1
 10
47777.0
 20
1.0
 30
0.0
 40
1.0
  1
7602-A
  7
LiberationSerif
 11
47777.0
 21
1.0
 31
0.0
  0
LINE
  5
35F
  8
MyLines
 10
47991.0
 20
0.0
 30
0.0
 11
47991.0
 21
44.5
 31
0.0
  0
LINE
  5
360
  8
MyLines
 10
48208.0
 20
68.5
 30
0.0
 11
48574.0
 21
68.5
 31
0.0
  0
LINE
  5
361
  8
MyLines
 10
48208.0
 20
0.0
 30
0.0
 11
48574.0
 21
0.0
 31
0.0
  0
LINE
  5
362
  8
MyLines
 10
48208.0
 20
0.0
 30
0.0
 11
48208.0
 21
68.5
 31
0.0
  0
LINE
  5
363
  8
MyLines
 10
48574.0
 20
0.0
 30
0.0
 11
48574.0
 21
68.5
 31
0.0
  0
TEXT
  5
364
  8
MyLines
 62
1
 10
48392.0
 20
1.0
 30
0.0
 40
1.0
  1
7603-B
  7
LiberationSerif
 11
48392.0
 21
1.0
 31
0.0
  0
TEXT
  5
365
  8
MyLines
 62
1
 10
48209.0
 20
1.0
 30
0.0
 40
1.0
  1
7603-A
  7
LiberationSerif
 11
48209.0
 21
1.0
 31
0.0
  0
LINE
  5
366
  8
MyLines
 10
48391.0
 20
0.0
 30
0.0
 11
48391.0
 21
68.5
 31
0.0
  0
LINE
  5
367
  8
MyLines
 10
48576.0
 20
41.5
 30
0.0
 11
48932.0
 21
41.5
 31
0.0
  0
LINE
  5
368
  8
MyLines
 10
48576.0
 20
0.0
 30
0.0
 11
48932.0
 21
0.0
 31
0.0
  0
LINE
  5
369
  8
MyLines
 10
48576.0
 20
0.0
 30
0.0
 11
48576.0
 21
41.5
 31
0.0
  0
LINE
  5
36A
  8
MyLines
 10
48932.0
 20
0.0
 30
0.0
 11
48932.0
 21
41.5
 31
0.0
  0
TEXT
  5
36B
  8
MyLines
 62
1
 10
48755.0
 20
1.0
 30
0.0
 40
1.0
  1
7604-B
  7
LiberationSerif
 11
48755.0
 21
1.0
 31
0.0
  0
TEXT
  5
36C
  8
MyLines
 62
1
 10
48577.0
 20
1.0
 30
0.0
 40
1.0
  1
7604-A
  7
LiberationSerif
 11
48577.0
 21
1.0
 31
0.0
  0
LINE
  5
36D
  8
MyLines
 10
48754.0
 20
0.0
 30
0.0
 11
48754.0
 21
41.5
 31
0.0
  0
LINE
  5
36E
  8
MyLines
 10
48934.0
 20
60.0
 30
0.0
 11
49452.0
 21
60.0
 31
0.0
  0
LINE
  5
36F
  8
MyLines
 10
48934.0
 20
0.0
 30
0.0
 11
49452.0
 21
0.0
 31
0.0
  0
LINE
  5
370
  8
MyLines
 10
48934.0
 20
0.0
 30
0.0
 11
48934.0
 21
60.0
 31
0.0
  0
LINE
  5
371
  8
MyLines
 10
49452.0
 20
0.0
 30
0.0
 11
49452.0
 21
60.0
 31
0.0
  0
TEXT
  5
372
  8
MyLines
 62
1
 10
49194.0
 20
1.0
 30
0.0
 40
1.0
  1
7605-B
  7
LiberationSerif
 11
49194.0
 21
1.0
 31
0.0
  0
TEXT
  5
373
  8
MyLines
 62
1
 10
48935.0
 20
1.0
 30
0.0
 40
1.0
  1
7605-A
  7
LiberationSerif
 11
48935.0
 21
1.0
 31
0.0
  0
LINE
  5
374
  8
MyLines
 10
49193.0
 20
0.0
 30
0.0
 11
49193.0
 21
60.0
 31
0.0
  0
LINE
  5
375
  8
MyLines
 10
49454.0
 20
72.0
 30
0.0
 11
49862.0
 21
72.0
 31
0.0
  0
LINE
  5
376
  8
MyLines
 10
49454.0
 20
0.0
 30
0.0
 11
49862.0
 21
0.0
 31
0.0
  0
LINE
  5
377
  8
MyLines
 10
49454.0
 20
0.0
 30
0.0
 11
49454.0
 21
72.0
 31
0.0
  0
LINE
  5
378
  8
MyLines
 10
49862.0
 20
0.0
 30
0.0
 11
49862.0
 21
72.0
 31
0.0
  0
TEXT
  5
379
  8
MyLines
 62
1
 10
49659.0
 20
1.0
 30
0.0
 40
1.0
  1
7606-B
  7
LiberationSerif
 11
49659.0
 21
1.0
 31
0.0
  0
TEXT
  5
37A
  8
MyLines
 62
1
 10
49455.0
 20
1.0
 30
0.0
 40
1.0
  1
7606-A
  7
LiberationSerif
 11
49455.0
 21
1.0
 31
0.0
  0
LINE
  5
37B
  8
MyLines
 10
49658.0
 20
0.0
 30
0.0
 11
49658.0
 21
72.0
 31
0.0
  0
LINE
  5
37C
  8
MyLines
 10
49864.0
 20
69.0
 30
0.0
 11
50282.0
 21
69.0
 31
0.0
  0
LINE
  5
37D
  8
MyLines
 10
49864.0
 20
0.0
 30
0.0
 11
50282.0
 21
0.0
 31
0.0
  0
LINE
  5
37E
  8
MyLines
 10
49864.0
 20
0.0
 30
0.0
 11
49864.0
 21
69.0
 31
0.0
  0
LINE
  5
37F
  8
MyLines
 10
50282.0
 20
0.0
 30
0.0
 11
50282.0
 21
69.0
 31
0.0
  0
TEXT
  5
380
  8
MyLines
 62
1
 10
50074.0
 20
1.0
 30
0.0
 40
1.0
  1
7607-B
  7
LiberationSerif
 11
50074.0
 21
1.0
 31
0.0
  0
TEXT
  5
381
  8
MyLines
 62
1
 10
49865.0
 20
1.0
 30
0.0
 40
1.0
  1
7607-A
  7
LiberationSerif
 11
49865.0
 21
1.0
 31
0.0
  0
LINE
  5
382
  8
MyLines
 10
50073.0
 20
0.0
 30
0.0
 11
50073.0
 21
69.0
 31
0.0
  0
LINE
  5
383
  8
MyLines
 10
50284.0
 20
64.5
 30
0.0
 11
50668.0
 21
64.5
 31
0.0
  0
LINE
  5
384
  8
MyLines
 10
50284.0
 20
0.0
 30
0.0
 11
50668.0
 21
0.0
 31
0.0
  0
LINE
  5
385
  8
MyLines
 10
50284.0
 20
0.0
 30
0.0
 11
50284.0
 21
64.5
 31
0.0
  0
LINE
  5
386
  8
MyLines
 10
50668.0
 20
0.0
 30
0.0
 11
50668.0
 21
64.5
 31
0.0
  0
TEXT
  5
387
  8
MyLines
 62
1
 10
50477.0
 20
1.0
 30
0.0
 40
1.0
  1
7608-B
  7
LiberationSerif
 11
50477.0
 21
1.0
 31
0.0
  0
TEXT
  5
388
  8
MyLines
 62
1
 10
50285.0
 20
1.0
 30
0.0
 40
1.0
  1
7608-A
  7
LiberationSerif
 11
50285.0
 21
1.0
 31
0.0
  0
LINE
  5
389
  8
MyLines
 10
50476.0
 20
0.0
 30
0.0
 11
50476.0
 21
64.5
 31
0.0
  0
LINE
  5
38A
  8
MyLines
 10
50670.0
 20
84.5
 30
0.0
 11
51184.0
 21
84.5
 31
0.0
  0
LINE
  5
38B
  8
MyLines
 10
50670.0
 20
0.0
 30
0.0
 11
51184.0
 21
0.0
 31
0.0
  0
LINE
  5
38C
  8
MyLines
 10
50670.0
 20
0.0
 30
0.0
 11
50670.0
 21
84.5
 31
0.0
  0
LINE
  5
38D
  8
MyLines
 10
51184.0
 20
0.0
 30
0.0
 11
51184.0
 21
84.5
 31
0.0
  0
TEXT
  5
38E
  8
MyLines
 62
1
 10
50928.0
 20
1.0
 30
0.0
 40
1.0
  1
7609-B
  7
LiberationSerif
 11
50928.0
 21
1.0
 31
0.0
  0
TEXT
  5
38F
  8
MyLines
 62
1
 10
50671.0
 20
1.0
 30
0.0
 40
1.0
  1
7609-A
  7
LiberationSerif
 11
50671.0
 21
1.0
 31
0.0
  0
LINE
  5
390
  8
MyLines
 10
50927.0
 20
0.0
 30
0.0
 11
50927.0
 21
84.5
 31
0.0
  0
LINE
  5
391
  8
MyLines
 10
51186.0
 20
71.0
 30
0.0
 11
51606.0
 21
71.0
 31
0.0
  0
LINE
  5
392
  8
MyLines
 10
51186.0
 20
0.0
 30
0.0
 11
51606.0
 21
0.0
 31
0.0
  0
LINE
  5
393
  8
MyLines
 10
51186.0
 20
0.0
 30
0.0
 11
51186.0
 21
71.0
 31
0.0
  0
LINE
  5
394
  8
MyLines
 10
51606.0
 20
0.0
 30
0.0
 11
51606.0
 21
71.0
 31
0.0
  0
TEXT
  5
395
  8
MyLines
 62
1
 10
51397.0
 20
1.0
 30
0.0
 40
1.0
  1
7610-B
  7
LiberationSerif
 11
51397.0
 21
1.0
 31
0.0
  0
TEXT
  5
396
  8
MyLines
 62
1
 10
51187.0
 20
1.0
 30
0.0
 40
1.0
  1
7610-A
  7
LiberationSerif
 11
51187.0
 21
1.0
 31
0.0
  0
LINE
  5
397
  8
MyLines
 10
51396.0
 20
0.0
 30
0.0
 11
51396.0
 21
71.0
 31
0.0
  0
LINE
  5
398
  8
MyLines
 10
51608.0
 20
48.5
 30
0.0
 11
52110.0
 21
48.5
 31
0.0
  0
LINE
  5
399
  8
MyLines
 10
51608.0
 20
0.0
 30
0.0
 11
52110.0
 21
0.0
 31
0.0
  0
LINE
  5
39A
  8
MyLines
 10
51608.0
 20
0.0
 30
0.0
 11
51608.0
 21
48.5
 31
0.0
  0
LINE
  5
39B
  8
MyLines
 10
52110.0
 20
0.0
 30
0.0
 11
52110.0
 21
48.5
 31
0.0
  0
TEXT
  5
39C
  8
MyLines
 62
1
 10
51860.0
 20
1.0
 30
0.0
 40
1.0
  1
7611-B
  7
LiberationSerif
 11
51860.0
 21
1.0
 31
0.0
  0
TEXT
  5
39D
  8
MyLines
 62
1
 10
51609.0
 20
1.0
 30
0.0
 40
1.0
  1
7611-A
  7
LiberationSerif
 11
51609.0
 21
1.0
 31
0.0
  0
LINE
  5
39E
  8
MyLines
 10
51859.0
 20
0.0
 30
0.0
 11
51859.0
 21
48.5
 31
0.0
  0
LINE
  5
39F
  8
MyLines
 10
52112.0
 20
45.0
 30
0.0
 11
52620.0
 21
45.0
 31
0.0
  0
LINE
  5
3A0
  8
MyLines
 10
52112.0
 20
0.0
 30
0.0
 11
52620.0
 21
0.0
 31
0.0
  0
LINE
  5
3A1
  8
MyLines
 10
52112.0
 20
0.0
 30
0.0
 11
52112.0
 21
45.0
 31
0.0
  0
LINE
  5
3A2
  8
MyLines
 10
52620.0
 20
0.0
 30
0.0
 11
52620.0
 21
45.0
 31
0.0
  0
TEXT
  5
3A3
  8
MyLines
 62
1
 10
52367.0
 20
1.0
 30
0.0
 40
1.0
  1
7612-B
  7
LiberationSerif
 11
52367.0
 21
1.0
 31
0.0
  0
TEXT
  5
3A4
  8
MyLines
 62
1
 10
52113.0
 20
1.0
 30
0.0
 40
1.0
  1
7612-A
  7
LiberationSerif
 11
52113.0
 21
1.0
 31
0.0
  0
LINE
  5
3A5
  8
MyLines
 10
52366.0
 20
0.0
 30
0.0
 11
52366.0
 21
45.0
 31
0.0
  0
LINE
  5
3A6
  8
MyLines
 10
52622.0
 20
67.0
 30
0.0
 11
53132.0
 21
67.0
 31
0.0
  0
LINE
  5
3A7
  8
MyLines
 10
52622.0
 20
0.0
 30
0.0
 11
53132.0
 21
0.0
 31
0.0
  0
LINE
  5
3A8
  8
MyLines
 10
52622.0
 20
0.0
 30
0.0
 11
52622.0
 21
67.0
 31
0.0
  0
LINE
  5
3A9
  8
MyLines
 10
53132.0
 20
0.0
 30
0.0
 11
53132.0
 21
67.0
 31
0.0
  0
TEXT
  5
3AA
  8
MyLines
 62
1
 10
52878.0
 20
1.0
 30
0.0
 40
1.0
  1
7613-B
  7
LiberationSerif
 11
52878.0
 21
1.0
 31
0.0
  0
TEXT
  5
3AB
  8
MyLines
 62
1
 10
52623.0
 20
1.0
 30
0.0
 40
1.0
  1
7613-A
  7
LiberationSerif
 11
52623.0
 21
1.0
 31
0.0
  0
LINE
  5
3AC
  8
MyLines
 10
52877.0
 20
0.0
 30
0.0
 11
52877.0
 21
67.0
 31
0.0
  0
LINE
  5
3AD
  8
MyLines
 10
53134.0
 20
76.5
 30
0.0
 11
53506.0
 21
76.5
 31
0.0
  0
LINE
  5
3AE
  8
MyLines
 10
53134.0
 20
0.0
 30
0.0
 11
53506.0
 21
0.0
 31
0.0
  0
LINE
  5
3AF
  8
MyLines
 10
53134.0
 20
0.0
 30
0.0
 11
53134.0
 21
76.5
 31
0.0
  0
LINE
  5
3B0
  8
MyLines
 10
53506.0
 20
0.0
 30
0.0
 11
53506.0
 21
76.5
 31
0.0
  0
TEXT
  5
3B1
  8
MyLines
 62
1
 10
53321.0
 20
1.0
 30
0.0
 40
1.0
  1
7614-B
  7
LiberationSerif
 11
53321.0
 21
1.0
 31
0.0
  0
TEXT
  5
3B2
  8
MyLines
 62
1
 10
53135.0
 20
1.0
 30
0.0
 40
1.0
  1
7614-A
  7
LiberationSerif
 11
53135.0
 21
1.0
 31
0.0
  0
LINE
  5
3B3
  8
MyLines
 10
53320.0
 20
0.0
 30
0.0
 11
53320.0
 21
76.5
 31
0.0
  0
LINE
  5
3B4
  8
MyLines
 10
53508.0
 20
45.5
 30
0.0
 11
53962.0
 21
45.5
 31
0.0
  0
LINE
  5
3B5
  8
MyLines
 10
53508.0
 20
0.0
 30
0.0
 11
53962.0
 21
0.0
 31
0.0
  0
LINE
  5
3B6
  8
MyLines
 10
53508.0
 20
0.0
 30
0.0
 11
53508.0
 21
45.5
 31
0.0
  0
LINE
  5
3B7
  8
MyLines
 10
53962.0
 20
0.0
 30
0.0
 11
53962.0
 21
45.5
 31
0.0
  0
TEXT
  5
3B8
  8
MyLines
 62
1
 10
53736.0
 20
1.0
 30
0.0
 40
1.0
  1
7615-B
  7
LiberationSerif
 11
53736.0
 21
1.0
 31
0.0
  0
TEXT
  5
3B9
  8
MyLines
 62
1
 10
53509.0
 20
1.0
 30
0.0
 40
1.0
  1
7615-A
  7
LiberationSerif
 11
53509.0
 21
1.0
 31
0.0
  0
LINE
  5
3BA
  8
MyLines
 10
53735.0
 20
0.0
 30
0.0
 11
53735.0
 21
45.5
 31
0.0
  0
LINE
  5
3BB
  8
MyLines
 10
53964.0
 20
60.0
 30
0.0
 11
54388.0
 21
60.0
 31
0.0
  0
LINE
  5
3BC
  8
MyLines
 10
53964.0
 20
0.0
 30
0.0
 11
54388.0
 21
0.0
 31
0.0
  0
LINE
  5
3BD
  8
MyLines
 10
53964.0
 20
0.0
 30
0.0
 11
53964.0
 21
60.0
 31
0.0
  0
LINE
  5
3BE
  8
MyLines
 10
54388.0
 20
0.0
 30
0.0
 11
54388.0
 21
60.0
 31
0.0
  0
TEXT
  5
3BF
  8
MyLines
 62
1
 10
54177.0
 20
1.0
 30
0.0
 40
1.0
  1
7616-B
  7
LiberationSerif
 11
54177.0
 21
1.0
 31
0.0
  0
TEXT
  5
3C0
  8
MyLines
 62
1
 10
53965.0
 20
1.0
 30
0.0
 40
1.0
  1
7616-A
  7
LiberationSerif
 11
53965.0
 21
1.0
 31
0.0
  0
LINE
  5
3C1
  8
MyLines
 10
54176.0
 20
0.0
 30
0.0
 11
54176.0
 21
60.0
 31
0.0
  0
LINE
  5
3C2
  8
MyLines
 10
54390.0
 20
62.5
 30
0.0
 11
54778.0
 21
62.5
 31
0.0
  0
LINE
  5
3C3
  8
MyLines
 10
54390.0
 20
0.0
 30
0.0
 11
54778.0
 21
0.0
 31
0.0
  0
LINE
  5
3C4
  8
MyLines
 10
54390.0
 20
0.0
 30
0.0
 11
54390.0
 21
62.5
 31
0.0
  0
LINE
  5
3C5
  8
MyLines
 10
54778.0
 20
0.0
 30
0.0
 11
54778.0
 21
62.5
 31
0.0
  0
TEXT
  5
3C6
  8
MyLines
 62
1
 10
54585.0
 20
1.0
 30
0.0
 40
1.0
  1
7617-B
  7
LiberationSerif
 11
54585.0
 21
1.0
 31
0.0
  0
TEXT
  5
3C7
  8
MyLines
 62
1
 10
54391.0
 20
1.0
 30
0.0
 40
1.0
  1
7617-A
  7
LiberationSerif
 11
54391.0
 21
1.0
 31
0.0
  0
LINE
  5
3C8
  8
MyLines
 10
54584.0
 20
0.0
 30
0.0
 11
54584.0
 21
62.5
 31
0.0
  0
LINE
  5
3C9
  8
MyLines
 10
54780.0
 20
56.0
 30
0.0
 11
55352.0
 21
56.0
 31
0.0
  0
LINE
  5
3CA
  8
MyLines
 10
54780.0
 20
0.0
 30
0.0
 11
55352.0
 21
0.0
 31
0.0
  0
LINE
  5
3CB
  8
MyLines
 10
54780.0
 20
0.0
 30
0.0
 11
54780.0
 21
56.0
 31
0.0
  0
LINE
  5
3CC
  8
MyLines
 10
55352.0
 20
0.0
 30
0.0
 11
55352.0
 21
56.0
 31
0.0
  0
TEXT
  5
3CD
  8
MyLines
 62
1
 10
55067.0
 20
1.0
 30
0.0
 40
1.0
  1
7618-B
  7
LiberationSerif
 11
55067.0
 21
1.0
 31
0.0
  0
TEXT
  5
3CE
  8
MyLines
 62
1
 10
54781.0
 20
1.0
 30
0.0
 40
1.0
  1
7618-A
  7
LiberationSerif
 11
54781.0
 21
1.0
 31
0.0
  0
LINE
  5
3CF
  8
MyLines
 10
55066.0
 20
0.0
 30
0.0
 11
55066.0
 21
56.0
 31
0.0
  0
LINE
  5
3D0
  8
MyLines
 10
55354.0
 20
38.0
 30
0.0
 11
55830.0
 21
38.0
 31
0.0
  0
LINE
  5
3D1
  8
MyLines
 10
55354.0
 20
0.0
 30
0.0
 11
55830.0
 21
0.0
 31
0.0
  0
LINE
  5
3D2
  8
MyLines
 10
55354.0
 20
0.0
 30
0.0
 11
55354.0
 21
38.0
 31
0.0
  0
LINE
  5
3D3
  8
MyLines
 10
55830.0
 20
0.0
 30
0.0
 11
55830.0
 21
38.0
 31
0.0
  0
TEXT
  5
3D4
  8
MyLines
 62
1
 10
55593.0
 20
1.0
 30
0.0
 40
1.0
  1
7619-B
  7
LiberationSerif
 11
55593.0
 21
1.0
 31
0.0
  0
TEXT
  5
3D5
  8
MyLines
 62
1
 10
55355.0
 20
1.0
 30
0.0
 40
1.0
  1
7619-A
  7
LiberationSerif
 11
55355.0
 21
1.0
 31
0.0
  0
LINE
  5
3D6
  8
MyLines
 10
55592.0
 20
0.0
 30
0.0
 11
55592.0
 21
38.0
 31
0.0
  0
LINE
  5
3D7
  8
MyLines
 10
55832.0
 20
69.5
 30
0.0
 11
56272.0
 21
69.5
 31
0.0
  0
LINE
  5
3D8
  8
MyLines
 10
55832.0
 20
0.0
 30
0.0
 11
56272.0
 21
0.0
 31
0.0
  0
LINE
  5
3D9
  8
MyLines
 10
55832.0
 20
0.0
 30
0.0
 11
55832.0
 21
69.5
 31
0.0
  0
LINE
  5
3DA
  8
MyLines
 10
56272.0
 20
0.0
 30
0.0
 11
56272.0
 21
69.5
 31
0.0
  0
TEXT
  5
3DB
  8
MyLines
 62
1
 10
56053.0
 20
1.0
 30
0.0
 40
1.0
  1
7620-B
  7
LiberationSerif
 11
56053.0
 21
1.0
 31
0.0
  0
TEXT
  5
3DC
  8
MyLines
 62
1
 10
55833.0
 20
1.0
 30
0.0
 40
1.0
  1
7620-A
  7
LiberationSerif
 11
55833.0
 21
1.0
 31
0.0
  0
LINE
  5
3DD
  8
MyLines
 10
56052.0
 20
0.0
 30
0.0
 11
56052.0
 21
69.5
 31
0.0
  0
LINE
  5
3DE
  8
MyLines
 10
56274.0
 20
72.5
 30
0.0
 11
56728.0
 21
72.5
 31
0.0
  0
LINE
  5
3DF
  8
MyLines
 10
56274.0
 20
0.0
 30
0.0
 11
56728.0
 21
0.0
 31
0.0
  0
LINE
  5
3E0
  8
MyLines
 10
56274.0
 20
0.0
 30
0.0
 11
56274.0
 21
72.5
 31
0.0
  0
LINE
  5
3E1
  8
MyLines
 10
56728.0
 20
0.0
 30
0.0
 11
56728.0
 21
72.5
 31
0.0
  0
TEXT
  5
3E2
  8
MyLines
 62
1
 10
56502.0
 20
1.0
 30
0.0
 40
1.0
  1
7621-B
  7
LiberationSerif
 11
56502.0
 21
1.0
 31
0.0
  0
TEXT
  5
3E3
  8
MyLines
 62
1
 10
56275.0
 20
1.0
 30
0.0
 40
1.0
  1
7621-A
  7
LiberationSerif
 11
56275.0
 21
1.0
 31
0.0
  0
LINE
  5
3E4
  8
MyLines
 10
56501.0
 20
0.0
 30
0.0
 11
56501.0
 21
72.5
 31
0.0
  0
LINE
  5
3E5
  8
MyLines
 10
56730.0
 20
58.0
 30
0.0
 11
57154.0
 21
58.0
 31
0.0
  0
LINE
  5
3E6
  8
MyLines
 10
56730.0
 20
0.0
 30
0.0
 11
57154.0
 21
0.0
 31
0.0
  0
LINE
  5
3E7
  8
MyLines
 10
56730.0
 20
0.0
 30
0.0
 11
56730.0
 21
58.0
 31
0.0
  0
LINE
  5
3E8
  8
MyLines
 10
57154.0
 20
0.0
 30
0.0
 11
57154.0
 21
58.0
 31
0.0
  0
TEXT
  5
3E9
  8
MyLines
 62
1
 10
56943.0
 20
1.0
 30
0.0
 40
1.0
  1
7622-B
  7
LiberationSerif
 11
56943.0
 21
1.0
 31
0.0
  0
TEXT
  5
3EA
  8
MyLines
 62
1
 10
56731.0
 20
1.0
 30
0.0
 40
1.0
  1
7622-A
  7
LiberationSerif
 11
56731.0
 21
1.0
 31
0.0
  0
LINE
  5
3EB
  8
MyLines
 10
56942.0
 20
0.0
 30
0.0
 11
56942.0
 21
58.0
 31
0.0
  0
LINE
  5
3EC
  8
MyLines
 10
57156.0
 20
65.0
 30
0.0
 11
57632.0
 21
65.0
 31
0.0
  0
LINE
  5
3ED
  8
MyLines
 10
57156.0
 20
0.0
 30
0.0
 11
57632.0
 21
0.0
 31
0.0
  0
LINE
  5
3EE
  8
MyLines
 10
57156.0
 20
0.0
 30
0.0
 11
57156.0
 21
65.0
 31
0.0
  0
LINE
  5
3EF
  8
MyLines
 10
57632.0
 20
0.0
 30
0.0
 11
57632.0
 21
65.0
 31
0.0
  0
TEXT
  5
3F0
  8
MyLines
 62
1
 10
57395.0
 20
1.0
 30
0.0
 40
1.0
  1
7623-B
  7
LiberationSerif
 11
57395.0
 21
1.0
 31
0.0
  0
TEXT
  5
3F1
  8
MyLines
 62
1
 10
57157.0
 20
1.0
 30
0.0
 40
1.0
  1
7623-A
  7
LiberationSerif
 11
57157.0
 21
1.0
 31
0.0
  0
LINE
  5
3F2
  8
MyLines
 10
57394.0
 20
0.0
 30
0.0
 11
57394.0
 21
65.0
 31
0.0
  0
LINE
  5
3F3
  8
MyLines
 10
57634.0
 20
49.0
 30
0.0
 11
58226.0
 21
49.0
 31
0.0
  0
LINE
  5
3F4
  8
MyLines
 10
57634.0
 20
0.0
 30
0.0
 11
58226.0
 21
0.0
 31
0.0
  0
LINE
  5
3F5
  8
MyLines
 10
57634.0
 20
0.0
 30
0.0
 11
57634.0
 21
49.0
 31
0.0
  0
LINE
  5
3F6
  8
MyLines
 10
58226.0
 20
0.0
 30
0.0
 11
58226.0
 21
49.0
 31
0.0
  0
TEXT
  5
3F7
  8
MyLines
 62
1
 10
57931.0
 20
1.0
 30
0.0
 40
1.0
  1
7624-B
  7
LiberationSerif
 11
57931.0
 21
1.0
 31
0.0
  0
TEXT
  5
3F8
  8
MyLines
 62
1
 10
57635.0
 20
1.0
 30
0.0
 40
1.0
  1
7624-A
  7
LiberationSerif
 11
57635.0
 21
1.0
 31
0.0
  0
LINE
  5
3F9
  8
MyLines
 10
57930.0
 20
0.0
 30
0.0
 11
57930.0
 21
49.0
 31
0.0
  0
LINE
  5
3FA
  8
MyLines
 10
58228.0
 20
48.5
 30
0.0
 11
58596.0
 21
48.5
 31
0.0
  0
LINE
  5
3FB
  8
MyLines
 10
58228.0
 20
0.0
 30
0.0
 11
58596.0
 21
0.0
 31
0.0
  0
LINE
  5
3FC
  8
MyLines
 10
58228.0
 20
0.0
 30
0.0
 11
58228.0
 21
48.5
 31
0.0
  0
LINE
  5
3FD
  8
MyLines
 10
58596.0
 20
0.0
 30
0.0
 11
58596.0
 21
48.5
 31
0.0
  0
TEXT
  5
3FE
  8
MyLines
 62
1
 10
58413.0
 20
1.0
 30
0.0
 40
1.0
  1
7625-B
  7
LiberationSerif
 11
58413.0
 21
1.0
 31
0.0
  0
TEXT
  5
3FF
  8
MyLines
 62
1
 10
58229.0
 20
1.0
 30
0.0
 40
1.0
  1
7625-A
  7
LiberationSerif
 11
58229.0
 21
1.0
 31
0.0
  0
LINE
  5
400
  8
MyLines
 10
58412.0
 20
0.0
 30
0.0
 11
58412.0
 21
48.5
 31
0.0
  0
LINE
  5
401
  8
MyLines
 10
58598.0
 20
81.0
 30
0.0
 11
59110.0
 21
81.0
 31
0.0
  0
LINE
  5
402
  8
MyLines
 10
58598.0
 20
0.0
 30
0.0
 11
59110.0
 21
0.0
 31
0.0
  0
LINE
  5
403
  8
MyLines
 10
58598.0
 20
0.0
 30
0.0
 11
58598.0
 21
81.0
 31
0.0
  0
LINE
  5
404
  8
MyLines
 10
59110.0
 20
0.0
 30
0.0
 11
59110.0
 21
81.0
 31
0.0
  0
TEXT
  5
405
  8
MyLines
 62
1
 10
58855.0
 20
1.0
 30
0.0
 40
1.0
  1
7626-B
  7
LiberationSerif
 11
58855.0
 21
1.0
 31
0.0
  0
TEXT
  5
406
  8
MyLines
 62
1
 10
58599.0
 20
1.0
 30
0.0
 40
1.0
  1
7626-A
  7
LiberationSerif
 11
58599.0
 21
1.0
 31
0.0
  0
LINE
  5
407
  8
MyLines
 10
58854.0
 20
0.0
 30
0.0
 11
58854.0
 21
81.0
 31
0.0
  0
LINE
  5
408
  8
MyLines
 10
59112.0
 20
81.0
 30
0.0
 11
59508.0
 21
81.0
 31
0.0
  0
LINE
  5
409
  8
MyLines
 10
59112.0
 20
0.0
 30
0.0
 11
59508.0
 21
0.0
 31
0.0
  0
LINE
  5
40A
  8
MyLines
 10
59112.0
 20
0.0
 30
0.0
 11
59112.0
 21
81.0
 31
0.0
  0
LINE
  5
40B
  8
MyLines
 10
59508.0
 20
0.0
 30
0.0
 11
59508.0
 21
81.0
 31
0.0
  0
TEXT
  5
40C
  8
MyLines
 62
1
 10
59311.0
 20
1.0
 30
0.0
 40
1.0
  1
7627-B
  7
LiberationSerif
 11
59311.0
 21
1.0
 31
0.0
  0
TEXT
  5
40D
  8
MyLines
 62
1
 10
59113.0
 20
1.0
 30
0.0
 40
1.0
  1
7627-A
  7
LiberationSerif
 11
59113.0
 21
1.0
 31
0.0
  0
LINE
  5
40E
  8
MyLines
 10
59310.0
 20
0.0
 30
0.0
 11
59310.0
 21
81.0
 31
0.0
  0
LINE
  5
40F
  8
MyLines
 10
59510.0
 20
50.5
 30
0.0
 11
60052.0
 21
50.5
 31
0.0
  0
LINE
  5
410
  8
MyLines
 10
59510.0
 20
0.0
 30
0.0
 11
60052.0
 21
0.0
 31
0.0
  0
LINE
  5
411
  8
MyLines
 10
59510.0
 20
0.0
 30
0.0
 11
59510.0
 21
50.5
 31
0.0
  0
LINE
  5
412
  8
MyLines
 10
60052.0
 20
0.0
 30
0.0
 11
60052.0
 21
50.5
 31
0.0
  0
TEXT
  5
413
  8
MyLines
 62
1
 10
59782.0
 20
1.0
 30
0.0
 40
1.0
  1
7628-B
  7
LiberationSerif
 11
59782.0
 21
1.0
 31
0.0
  0
TEXT
  5
414
  8
MyLines
 62
1
 10
59511.0
 20
1.0
 30
0.0
 40
1.0
  1
7628-A
  7
LiberationSerif
 11
59511.0
 21
1.0
 31
0.0
  0
LINE
  5
415
  8
MyLines
 10
59781.0
 20
0.0
 30
0.0
 11
59781.0
 21
50.5
 31
0.0
  0
LINE
  5
416
  8
MyLines
 10
60054.0
 20
52.5
 30
0.0
 11
60502.0
 21
52.5
 31
0.0
  0
LINE
  5
417
  8
MyLines
 10
60054.0
 20
0.0
 30
0.0
 11
60502.0
 21
0.0
 31
0.0
  0
LINE
  5
418
  8
MyLines
 10
60054.0
 20
0.0
 30
0.0
 11
60054.0
 21
52.5
 31
0.0
  0
LINE
  5
419
  8
MyLines
 10
60502.0
 20
0.0
 30
0.0
 11
60502.0
 21
52.5
 31
0.0
  0
TEXT
  5
41A
  8
MyLines
 62
1
 10
60279.0
 20
1.0
 30
0.0
 40
1.0
  1
7629-B
  7
LiberationSerif
 11
60279.0
 21
1.0
 31
0.0
  0
TEXT
  5
41B
  8
MyLines
 62
1
 10
60055.0
 20
1.0
 30
0.0
 40
1.0
  1
7629-A
  7
LiberationSerif
 11
60055.0
 21
1.0
 31
0.0
  0
LINE
  5
41C
  8
MyLines
 10
60278.0
 20
0.0
 30
0.0
 11
60278.0
 21
52.5
 31
0.0
  0
LINE
  5
41D
  8
MyLines
 10
60504.0
 20
52.0
 30
0.0
 11
60962.0
 21
52.0
 31
0.0
  0
LINE
  5
41E
  8
MyLines
 10
60504.0
 20
0.0
 30
0.0
 11
60962.0
 21
0.0
 31
0.0
  0
LINE
  5
41F
  8
MyLines
 10
60504.0
 20
0.0
 30
0.0
 11
60504.0
 21
52.0
 31
0.0
  0
LINE
  5
420
  8
MyLines
 10
60962.0
 20
0.0
 30
0.0
 11
60962.0
 21
52.0
 31
0.0
  0
TEXT
  5
421
  8
MyLines
 62
1
 10
60734.0
 20
1.0
 30
0.0
 40
1.0
  1
7630-B
  7
LiberationSerif
 11
60734.0
 21
1.0
 31
0.0
  0
TEXT
  5
422
  8
MyLines
 62
1
 10
60505.0
 20
1.0
 30
0.0
 40
1.0
  1
7630-A
  7
LiberationSerif
 11
60505.0
 21
1.0
 31
0.0
  0
LINE
  5
423
  8
MyLines
 10
60733.0
 20
0.0
 30
0.0
 11
60733.0
 21
52.0
 31
0.0
  0
LINE
  5
424
  8
MyLines
 10
60964.0
 20
88.5
 30
0.0
 11
61322.0
 21
88.5
 31
0.0
  0
LINE
  5
425
  8
MyLines
 10
60964.0
 20
0.0
 30
0.0
 11
61322.0
 21
0.0
 31
0.0
  0
LINE
  5
426
  8
MyLines
 10
60964.0
 20
0.0
 30
0.0
 11
60964.0
 21
88.5
 31
0.0
  0
LINE
  5
427
  8
MyLines
 10
61322.0
 20
0.0
 30
0.0
 11
61322.0
 21
88.5
 31
0.0
  0
TEXT
  5
428
  8
MyLines
 62
1
 10
61144.0
 20
1.0
 30
0.0
 40
1.0
  1
7631-B
  7
LiberationSerif
 11
61144.0
 21
1.0
 31
0.0
  0
TEXT
  5
429
  8
MyLines
 62
1
 10
60965.0
 20
1.0
 30
0.0
 40
1.0
  1
7631-A
  7
LiberationSerif
 11
60965.0
 21
1.0
 31
0.0
  0
LINE
  5
42A
  8
MyLines
 10
61143.0
 20
0.0
 30
0.0
 11
61143.0
 21
88.5
 31
0.0
  0
LINE
  5
42B
  8
MyLines
 10
61324.0
 20
45.0
 30
0.0
 11
61680.0
 21
45.0
 31
0.0
  0
LINE
  5
42C
  8
MyLines
 10
61324.0
 20
0.0
 30
0.0
 11
61680.0
 21
0.0
 31
0.0
  0
LINE
  5
42D
  8
MyLines
 10
61324.0
 20
0.0
 30
0.0
 11
61324.0
 21
45.0
 31
0.0
  0
LINE
  5
42E
  8
MyLines
 10
61680.0
 20
0.0
 30
0.0
 11
61680.0
 21
45.0
 31
0.0
  0
TEXT
  5
42F
  8
MyLines
 62
1
 10
61503.0
 20
1.0
 30
0.0
 40
1.0
  1
7632-B
  7
LiberationSerif
 11
61503.0
 21
1.0
 31
0.0
  0
TEXT
  5
430
  8
MyLines
 62
1
 10
61325.0
 20
1.0
 30
0.0
 40
1.0
  1
7632-A
  7
LiberationSerif
 11
61325.0
 21
1.0
 31
0.0
  0
LINE
  5
431
  8
MyLines
 10
61502.0
 20
0.0
 30
0.0
 11
61502.0
 21
45.0
 31
0.0
  0
LINE
  5
432
  8
MyLines
 10
61682.0
 20
66.5
 30
0.0
 11
62210.0
 21
66.5
 31
0.0
  0
LINE
  5
433
  8
MyLines
 10
61682.0
 20
0.0
 30
0.0
 11
62210.0
 21
0.0
 31
0.0
  0
LINE
  5
434
  8
MyLines
 10
61682.0
 20
0.0
 30
0.0
 11
61682.0
 21
66.5
 31
0.0
  0
LINE
  5
435
  8
MyLines
 10
62210.0
 20
0.0
 30
0.0
 11
62210.0
 21
66.5
 31
0.0
  0
TEXT
  5
436
  8
MyLines
 62
1
 10
61947.0
 20
1.0
 30
0.0
 40
1.0
  1
7633-B
  7
LiberationSerif
 11
61947.0
 21
1.0
 31
0.0
  0
TEXT
  5
437
  8
MyLines
 62
1
 10
61683.0
 20
1.0
 30
0.0
 40
1.0
  1
7633-A
  7
LiberationSerif
 11
61683.0
 21
1.0
 31
0.0
  0
LINE
  5
438
  8
MyLines
 10
61946.0
 20
0.0
 30
0.0
 11
61946.0
 21
66.5
 31
0.0
  0
LINE
  5
439
  8
MyLines
 10
62212.0
 20
67.5
 30
0.0
 11
62800.0
 21
67.5
 31
0.0
  0
LINE
  5
43A
  8
MyLines
 10
62212.0
 20
0.0
 30
0.0
 11
62800.0
 21
0.0
 31
0.0
  0
LINE
  5
43B
  8
MyLines
 10
62212.0
 20
0.0
 30
0.0
 11
62212.0
 21
67.5
 31
0.0
  0
LINE
  5
43C
  8
MyLines
 10
62800.0
 20
0.0
 30
0.0
 11
62800.0
 21
67.5
 31
0.0
  0
TEXT
  5
43D
  8
MyLines
 62
1
 10
62507.0
 20
1.0
 30
0.0
 40
1.0
  1
7634-B
  7
LiberationSerif
 11
62507.0
 21
1.0
 31
0.0
  0
TEXT
  5
43E
  8
MyLines
 62
1
 10
62213.0
 20
1.0
 30
0.0
 40
1.0
  1
7634-A
  7
LiberationSerif
 11
62213.0
 21
1.0
 31
0.0
  0
LINE
  5
43F
  8
MyLines
 10
62506.0
 20
0.0
 30
0.0
 11
62506.0
 21
67.5
 31
0.0
  0
LINE
  5
440
  8
MyLines
 10
62802.0
 20
68.0
 30
0.0
 11
63394.0
 21
68.0
 31
0.0
  0
LINE
  5
441
  8
MyLines
 10
62802.0
 20
0.0
 30
0.0
 11
63394.0
 21
0.0
 31
0.0
  0
LINE
  5
442
  8
MyLines
 10
62802.0
 20
0.0
 30
0.0
 11
62802.0
 21
68.0
 31
0.0
  0
LINE
  5
443
  8
MyLines
 10
63394.0
 20
0.0
 30
0.0
 11
63394.0
 21
68.0
 31
0.0
  0
TEXT
  5
444
  8
MyLines
 62
1
 10
63099.0
 20
1.0
 30
0.0
 40
1.0
  1
7635-B
  7
LiberationSerif
 11
63099.0
 21
1.0
 31
0.0
  0
TEXT
  5
445
  8
MyLines
 62
1
 10
62803.0
 20
1.0
 30
0.0
 40
1.0
  1
7635-A
  7
LiberationSerif
 11
62803.0
 21
1.0
 31
0.0
  0
LINE
  5
446
  8
MyLines
 10
63098.0
 20
0.0
 30
0.0
 11
63098.0
 21
68.0
 31
0.0
  0
LINE
  5
447
  8
MyLines
 10
63396.0
 20
55.5
 30
0.0
 11
63904.0
 21
55.5
 31
0.0
  0
LINE
  5
448
  8
MyLines
 10
63396.0
 20
0.0
 30
0.0
 11
63904.0
 21
0.0
 31
0.0
  0
LINE
  5
449
  8
MyLines
 10
63396.0
 20
0.0
 30
0.0
 11
63396.0
 21
55.5
 31
0.0
  0
LINE
  5
44A
  8
MyLines
 10
63904.0
 20
0.0
 30
0.0
 11
63904.0
 21
55.5
 31
0.0
  0
TEXT
  5
44B
  8
MyLines
 62
1
 10
63651.0
 20
1.0
 30
0.0
 40
1.0
  1
7636-B
  7
LiberationSerif
 11
63651.0
 21
1.0
 31
0.0
  0
TEXT
  5
44C
  8
MyLines
 62
1
 10
63397.0
 20
1.0
 30
0.0
 40
1.0
  1
7636-A
  7
LiberationSerif
 11
63397.0
 21
1.0
 31
0.0
  0
LINE
  5
44D
  8
MyLines
 10
63650.0
 20
0.0
 30
0.0
 11
63650.0
 21
55.5
 31
0.0
  0
LINE
  5
44E
  8
MyLines
 10
63906.0
 20
70.5
 30
0.0
 11
64268.0
 21
70.5
 31
0.0
  0
LINE
  5
44F
  8
MyLines
 10
63906.0
 20
0.0
 30
0.0
 11
64268.0
 21
0.0
 31
0.0
  0
LINE
  5
450
  8
MyLines
 10
63906.0
 20
0.0
 30
0.0
 11
63906.0
 21
70.5
 31
0.0
  0
LINE
  5
451
  8
MyLines
 10
64268.0
 20
0.0
 30
0.0
 11
64268.0
 21
70.5
 31
0.0
  0
TEXT
  5
452
  8
MyLines
 62
1
 10
64088.0
 20
1.0
 30
0.0
 40
1.0
  1
7637-B
  7
LiberationSerif
 11
64088.0
 21
1.0
 31
0.0
  0
TEXT
  5
453
  8
MyLines
 62
1
 10
63907.0
 20
1.0
 30
0.0
 40
1.0
  1
7637-A
  7
LiberationSerif
 11
63907.0
 21
1.0
 31
0.0
  0
LINE
  5
454
  8
MyLines
 10
64087.0
 20
0.0
 30
0.0
 11
64087.0
 21
70.5
 31
0.0
  0
LINE
  5
455
  8
MyLines
 10
64270.0
 20
37.5
 30
0.0
 11
64794.0
 21
37.5
 31
0.0
  0
LINE
  5
456
  8
MyLines
 10
64270.0
 20
0.0
 30
0.0
 11
64794.0
 21
0.0
 31
0.0
  0
LINE
  5
457
  8
MyLines
 10
64270.0
 20
0.0
 30
0.0
 11
64270.0
 21
37.5
 31
0.0
  0
LINE
  5
458
  8
MyLines
 10
64794.0
 20
0.0
 30
0.0
 11
64794.0
 21
37.5
 31
0.0
  0
TEXT
  5
459
  8
MyLines
 62
1
 10
64533.0
 20
1.0
 30
0.0
 40
1.0
  1
7638-B
  7
LiberationSerif
 11
64533.0
 21
1.0
 31
0.0
  0
TEXT
  5
45A
  8
MyLines
 62
1
 10
64271.0
 20
1.0
 30
0.0
 40
1.0
  1
7638-A
  7
LiberationSerif
 11
64271.0
 21
1.0
 31
0.0
  0
LINE
  5
45B
  8
MyLines
 10
64532.0
 20
0.0
 30
0.0
 11
64532.0
 21
37.5
 31
0.0
  0
LINE
  5
45C
  8
MyLines
 10
64796.0
 20
60.0
 30
0.0
 11
65226.0
 21
60.0
 31
0.0
  0
LINE
  5
45D
  8
MyLines
 10
64796.0
 20
0.0
 30
0.0
 11
65226.0
 21
0.0
 31
0.0
  0
LINE
  5
45E
  8
MyLines
 10
64796.0
 20
0.0
 30
0.0
 11
64796.0
 21
60.0
 31
0.0
  0
LINE
  5
45F
  8
MyLines
 10
65226.0
 20
0.0
 30
0.0
 11
65226.0
 21
60.0
 31
0.0
  0
TEXT
  5
460
  8
MyLines
 62
1
 10
65012.0
 20
1.0
 30
0.0
 40
1.0
  1
7639-B
  7
LiberationSerif
 11
65012.0
 21
1.0
 31
0.0
  0
TEXT
  5
461
  8
MyLines
 62
1
 10
64797.0
 20
1.0
 30
0.0
 40
1.0
  1
7639-A
  7
LiberationSerif
 11
64797.0
 21
1.0
 31
0.0
  0
LINE
  5
462
  8
MyLines
 10
65011.0
 20
0.0
 30
0.0
 11
65011.0
 21
60.0
 31
0.0
  0
LINE
  5
463
  8
MyLines
 10
65228.0
 20
59.5
 30
0.0
 11
65824.0
 21
59.5
 31
0.0
  0
LINE
  5
464
  8
MyLines
 10
65228.0
 20
0.0
 30
0.0
 11
65824.0
 21
0.0
 31
0.0
  0
LINE
  5
465
  8
MyLines
 10
65228.0
 20
0.0
 30
0.0
 11
65228.0
 21
59.5
 31
0.0
  0
LINE
  5
466
  8
MyLines
 10
65824.0
 20
0.0
 30
0.0
 11
65824.0
 21
59.5
 31
0.0
  0
TEXT
  5
467
  8
MyLines
 62
1
 10
65527.0
 20
1.0
 30
0.0
 40
1.0
  1
7640-B
  7
LiberationSerif
 11
65527.0
 21
1.0
 31
0.0
  0
TEXT
  5
468
  8
MyLines
 62
1
 10
65229.0
 20
1.0
 30
0.0
 40
1.0
  1
7640-A
  7
LiberationSerif
 11
65229.0
 21
1.0
 31
0.0
  0
LINE
  5
469
  8
MyLines
 10
65526.0
 20
0.0
 30
0.0
 11
65526.0
 21
59.5
 31
0.0
  0
LINE
  5
46A
  8
MyLines
 10
65826.0
 20
57.5
 30
0.0
 11
66190.0
 21
57.5
 31
0.0
  0
LINE
  5
46B
  8
MyLines
 10
65826.0
 20
0.0
 30
0.0
 11
66190.0
 21
0.0
 31
0.0
  0
LINE
  5
46C
  8
MyLines
 10
65826.0
 20
0.0
 30
0.0
 11
65826.0
 21
57.5
 31
0.0
  0
LINE
  5
46D
  8
MyLines
 10
66190.0
 20
0.0
 30
0.0
 11
66190.0
 21
57.5
 31
0.0
  0
TEXT
  5
46E
  8
MyLines
 62
1
 10
66009.0
 20
1.0
 30
0.0
 40
1.0
  1
7641-B
  7
LiberationSerif
 11
66009.0
 21
1.0
 31
0.0
  0
TEXT
  5
46F
  8
MyLines
 62
1
 10
65827.0
 20
1.0
 30
0.0
 40
1.0
  1
7641-A
  7
LiberationSerif
 11
65827.0
 21
1.0
 31
0.0
  0
LINE
  5
470
  8
MyLines
 10
66008.0
 20
0.0
 30
0.0
 11
66008.0
 21
57.5
 31
0.0
  0
LINE
  5
471
  8
MyLines
 10
66192.0
 20
75.5
 30
0.0
 11
66640.0
 21
75.5
 31
0.0
  0
LINE
  5
472
  8
MyLines
 10
66192.0
 20
0.0
 30
0.0
 11
66640.0
 21
0.0
 31
0.0
  0
LINE
  5
473
  8
MyLines
 10
66192.0
 20
0.0
 30
0.0
 11
66192.0
 21
75.5
 31
0.0
  0
LINE
  5
474
  8
MyLines
 10
66640.0
 20
0.0
 30
0.0
 11
66640.0
 21
75.5
 31
0.0
  0
TEXT
  5
475
  8
MyLines
 62
1
 10
66417.0
 20
1.0
 30
0.0
 40
1.0
  1
7642-B
  7
LiberationSerif
 11
66417.0
 21
1.0
 31
0.0
  0
TEXT
  5
476
  8
MyLines
 62
1
 10
66193.0
 20
1.0
 30
0.0
 40
1.0
  1
7642-A
  7
LiberationSerif
 11
66193.0
 21
1.0
 31
0.0
  0
LINE
  5
477
  8
MyLines
 10
66416.0
 20
0.0
 30
0.0
 11
66416.0
 21
75.5
 31
0.0
  0
LINE
  5
478
  8
MyLines
 10
66642.0
 20
49.5
 30
0.0
 11
67180.0
 21
49.5
 31
0.0
  0
LINE
  5
479
  8
MyLines
 10
66642.0
 20
0.0
 30
0.0
 11
67180.0
 21
0.0
 31
0.0
  0
LINE
  5
47A
  8
MyLines
 10
66642.0
 20
0.0
 30
0.0
 11
66642.0
 21
49.5
 31
0.0
  0
LINE
  5
47B
  8
MyLines
 10
67180.0
 20
0.0
 30
0.0
 11
67180.0
 21
49.5
 31
0.0
  0
TEXT
  5
47C
  8
MyLines
 62
1
 10
66912.0
 20
1.0
 30
0.0
 40
1.0
  1
7643-B
  7
LiberationSerif
 11
66912.0
 21
1.0
 31
0.0
  0
TEXT
  5
47D
  8
MyLines
 62
1
 10
66643.0
 20
1.0
 30
0.0
 40
1.0
  1
7643-A
  7
LiberationSerif
 11
66643.0
 21
1.0
 31
0.0
  0
LINE
  5
47E
  8
MyLines
 10
66911.0
 20
0.0
 30
0.0
 11
66911.0
 21
49.5
 31
0.0
  0
LINE
  5
47F
  8
MyLines
 10
67182.0
 20
67.5
 30
0.0
 11
67750.0
 21
67.5
 31
0.0
  0
LINE
  5
480
  8
MyLines
 10
67182.0
 20
0.0
 30
0.0
 11
67750.0
 21
0.0
 31
0.0
  0
LINE
  5
481
  8
MyLines
 10
67182.0
 20
0.0
 30
0.0
 11
67182.0
 21
67.5
 31
0.0
  0
LINE
  5
482
  8
MyLines
 10
67750.0
 20
0.0
 30
0.0
 11
67750.0
 21
67.5
 31
0.0
  0
TEXT
  5
483
  8
MyLines
 62
1
 10
67467.0
 20
1.0
 30
0.0
 40
1.0
  1
7644-B
  7
LiberationSerif
 11
67467.0
 21
1.0
 31
0.0
  0
TEXT
  5
484
  8
MyLines
 62
1
 10
67183.0
 20
1.0
 30
0.0
 40
1.0
  1
7644-A
  7
LiberationSerif
 11
67183.0
 21
1.0
 31
0.0
  0
LINE
  5
485
  8
MyLines
 10
67466.0
 20
0.0
 30
0.0
 11
67466.0
 21
67.5
 31
0.0
  0
LINE
  5
486
  8
MyLines
 10
67752.0
 20
43.5
 30
0.0
 11
68236.0
 21
43.5
 31
0.0
  0
LINE
  5
487
  8
MyLines
 10
67752.0
 20
0.0
 30
0.0
 11
68236.0
 21
0.0
 31
0.0
  0
LINE
  5
488
  8
MyLines
 10
67752.0
 20
0.0
 30
0.0
 11
67752.0
 21
43.5
 31
0.0
  0
LINE
  5
489
  8
MyLines
 10
68236.0
 20
0.0
 30
0.0
 11
68236.0
 21
43.5
 31
0.0
  0
TEXT
  5
48A
  8
MyLines
 62
1
 10
67995.0
 20
1.0
 30
0.0
 40
1.0
  1
7645-B
  7
LiberationSerif
 11
67995.0
 21
1.0
 31
0.0
  0
TEXT
  5
48B
  8
MyLines
 62
1
 10
67753.0
 20
1.0
 30
0.0
 40
1.0
  1
7645-A
  7
LiberationSerif
 11
67753.0
 21
1.0
 31
0.0
  0
LINE
  5
48C
  8
MyLines
 10
67994.0
 20
0.0
 30
0.0
 11
67994.0
 21
43.5
 31
0.0
  0
LINE
  5
48D
  8
MyLines
 10
68238.0
 20
65.5
 30
0.0
 11
68778.0
 21
65.5
 31
0.0
  0
LINE
  5
48E
  8
MyLines
 10
68238.0
 20
0.0
 30
0.0
 11
68778.0
 21
0.0
 31
0.0
  0
LINE
  5
48F
  8
MyLines
 10
68238.0
 20
0.0
 30
0.0
 11
68238.0
 21
65.5
 31
0.0
  0
LINE
  5
490
  8
MyLines
 10
68778.0
 20
0.0
 30
0.0
 11
68778.0
 21
65.5
 31
0.0
  0
TEXT
  5
491
  8
MyLines
 62
1
 10
68509.0
 20
1.0
 30
0.0
 40
1.0
  1
7646-B
  7
LiberationSerif
 11
68509.0
 21
1.0
 31
0.0
  0
TEXT
  5
492
  8
MyLines
 62
1
 10
68239.0
 20
1.0
 30
0.0
 40
1.0
  1
7646-A
  7
LiberationSerif
 11
68239.0
 21
1.0
 31
0.0
  0
LINE
  5
493
  8
MyLines
 10
68508.0
 20
0.0
 30
0.0
 11
68508.0
 21
65.5
 31
0.0
  0
LINE
  5
494
  8
MyLines
 10
68780.0
 20
88.5
 30
0.0
 11
69380.0
 21
88.5
 31
0.0
  0
LINE
  5
495
  8
MyLines
 10
68780.0
 20
0.0
 30
0.0
 11
69380.0
 21
0.0
 31
0.0
  0
LINE
  5
496
  8
MyLines
 10
68780.0
 20
0.0
 30
0.0
 11
68780.0
 21
88.5
 31
0.0
  0
LINE
  5
497
  8
MyLines
 10
69380.0
 20
0.0
 30
0.0
 11
69380.0
 21
88.5
 31
0.0
  0
TEXT
  5
498
  8
MyLines
 62
1
 10
69081.0
 20
1.0
 30
0.0
 40
1.0
  1
7647-B
  7
LiberationSerif
 11
69081.0
 21
1.0
 31
0.0
  0
TEXT
  5
499
  8
MyLines
 62
1
 10
68781.0
 20
1.0
 30
0.0
 40
1.0
  1
7647-A
  7
LiberationSerif
 11
68781.0
 21
1.0
 31
0.0
  0
LINE
  5
49A
  8
MyLines
 10
69080.0
 20
0.0
 30
0.0
 11
69080.0
 21
88.5
 31
0.0
  0
LINE
  5
49B
  8
MyLines
 10
69382.0
 20
41.0
 30
0.0
 11
69898.0
 21
41.0
 31
0.0
  0
LINE
  5
49C
  8
MyLines
 10
69382.0
 20
0.0
 30
0.0
 11
69898.0
 21
0.0
 31
0.0
  0
LINE
  5
49D
  8
MyLines
 10
69382.0
 20
0.0
 30
0.0
 11
69382.0
 21
41.0
 31
0.0
  0
LINE
  5
49E
  8
MyLines
 10
69898.0
 20
0.0
 30
0.0
 11
69898.0
 21
41.0
 31
0.0
  0
TEXT
  5
49F
  8
MyLines
 62
1
 10
69641.0
 20
1.0
 30
0.0
 40
1.0
  1
7648-B
  7
LiberationSerif
 11
69641.0
 21
1.0
 31
0.0
  0
TEXT
  5
4A0
  8
MyLines
 62
1
 10
69383.0
 20
1.0
 30
0.0
 40
1.0
  1
7648-A
  7
LiberationSerif
 11
69383.0
 21
1.0
 31
0.0
  0
LINE
  5
4A1
  8
MyLines
 10
69640.0
 20
0.0
 30
0.0
 11
69640.0
 21
41.0
 31
0.0
  0
LINE
  5
4A2
  8
MyLines
 10
69900.0
 20
41.0
 30
0.0
 11
70438.0
 21
41.0
 31
0.0
  0
LINE
  5
4A3
  8
MyLines
 10
69900.0
 20
0.0
 30
0.0
 11
70438.0
 21
0.0
 31
0.0
  0
LINE
  5
4A4
  8
MyLines
 10
69900.0
 20
0.0
 30
0.0
 11
69900.0
 21
41.0
 31
0.0
  0
LINE
  5
4A5
  8
MyLines
 10
70438.0
 20
0.0
 30
0.0
 11
70438.0
 21
41.0
 31
0.0
  0
TEXT
  5
4A6
  8
MyLines
 62
1
 10
70170.0
 20
1.0
 30
0.0
 40
1.0
  1
7649-B
  7
LiberationSerif
 11
70170.0
 21
1.0
 31
0.0
  0
TEXT
  5
4A7
  8
MyLines
 62
1
 10
69901.0
 20
1.0
 30
0.0
 40
1.0
  1
7649-A
  7
LiberationSerif
 11
69901.0
 21
1.0
 31
0.0
  0
LINE
  5
4A8
  8
MyLines
 10
70169.0
 20
0.0
 30
0.0
 11
70169.0
 21
41.0
 31
0.0
  0
LINE
  5
4A9
  8
MyLines
 10
70440.0
 20
73.0
 30
0.0
 11
70812.0
 21
73.0
 31
0.0
  0
LINE
  5
4AA
  8
MyLines
 10
70440.0
 20
0.0
 30
0.0
 11
70812.0
 21
0.0
 31
0.0
  0
LINE
  5
4AB
  8
MyLines
 10
70440.0
 20
0.0
 30
0.0
 11
70440.0
 21
73.0
 31
0.0
  0
LINE
  5
4AC
  8
MyLines
 10
70812.0
 20
0.0
 30
0.0
 11
70812.0
 21
73.0
 31
0.0
  0
TEXT
  5
4AD
  8
MyLines
 62
1
 10
70627.0
 20
1.0
 30
0.0
 40
1.0
  1
7650-B
  7
LiberationSerif
 11
70627.0
 21
1.0
 31
0.0
  0
TEXT
  5
4AE
  8
MyLines
 62
1
 10
70441.0
 20
1.0
 30
0.0
 40
1.0
  1
7650-A
  7
LiberationSerif
 11
70441.0
 21
1.0
 31
0.0
  0
LINE
  5
4AF
  8
MyLines
 10
70626.0
 20
0.0
 30
0.0
 11
70626.0
 21
73.0
 31
0.0
  0
LINE
  5
4B0
  8
MyLines
 10
70814.0
 20
80.0
 30
0.0
 11
71228.0
 21
80.0
 31
0.0
  0
LINE
  5
4B1
  8
MyLines
 10
70814.0
 20
0.0
 30
0.0
 11
71228.0
 21
0.0
 31
0.0
  0
LINE
  5
4B2
  8
MyLines
 10
70814.0
 20
0.0
 30
0.0
 11
70814.0
 21
80.0
 31
0.0
  0
LINE
  5
4B3
  8
MyLines
 10
71228.0
 20
0.0
 30
0.0
 11
71228.0
 21
80.0
 31
0.0
  0
TEXT
  5
4B4
  8
MyLines
 62
1
 10
71022.0
 20
1.0
 30
0.0
 40
1.0
  1
7651-B
  7
LiberationSerif
 11
71022.0
 21
1.0
 31
0.0
  0
TEXT
  5
4B5
  8
MyLines
 62
1
 10
70815.0
 20
1.0
 30
0.0
 40
1.0
  1
7651-A
  7
LiberationSerif
 11
70815.0
 21
1.0
 31
0.0
  0
LINE
  5
4B6
  8
MyLines
 10
71021.0
 20
0.0
 30
0.0
 11
71021.0
 21
80.0
 31
0.0
  0
LINE
  5
4B7
  8
MyLines
 10
71230.0
 20
88.0
 30
0.0
 11
71648.0
 21
88.0
 31
0.0
  0
LINE
  5
4B8
  8
MyLines
 10
71230.0
 20
0.0
 30
0.0
 11
71648.0
 21
0.0
 31
0.0
  0
LINE
  5
4B9
  8
MyLines
 10
71230.0
 20
0.0
 30
0.0
 11
71230.0
 21
88.0
 31
0.0
  0
LINE
  5
4BA
  8
MyLines
 10
71648.0
 20
0.0
 30
0.0
 11
71648.0
 21
88.0
 31
0.0
  0
TEXT
  5
4BB
  8
MyLines
 62
1
 10
71440.0
 20
1.0
 30
0.0
 40
1.0
  1
7652-B
  7
LiberationSerif
 11
71440.0
 21
1.0
 31
0.0
  0
TEXT
  5
4BC
  8
MyLines
 62
1
 10
71231.0
 20
1.0
 30
0.0
 40
1.0
  1
7652-A
  7
LiberationSerif
 11
71231.0
 21
1.0
 31
0.0
  0
LINE
  5
4BD
  8
MyLines
 10
71439.0
 20
0.0
 30
0.0
 11
71439.0
 21
88.0
 31
0.0
  0
LINE
  5
4BE
  8
MyLines
 10
71650.0
 20
87.0
 30
0.0
 11
72002.0
 21
87.0
 31
0.0
  0
LINE
  5
4BF
  8
MyLines
 10
71650.0
 20
0.0
 30
0.0
 11
72002.0
 21
0.0
 31
0.0
  0
LINE
  5
4C0
  8
MyLines
 10
71650.0
 20
0.0
 30
0.0
 11
71650.0
 21
87.0
 31
0.0
  0
LINE
  5
4C1
  8
MyLines
 10
72002.0
 20
0.0
 30
0.0
 11
72002.0
 21
87.0
 31
0.0
  0
TEXT
  5
4C2
  8
MyLines
 62
1
 10
71827.0
 20
1.0
 30
0.0
 40
1.0
  1
7653-B
  7
LiberationSerif
 11
71827.0
 21
1.0
 31
0.0
  0
TEXT
  5
4C3
  8
MyLines
 62
1
 10
71651.0
 20
1.0
 30
0.0
 40
1.0
  1
7653-A
  7
LiberationSerif
 11
71651.0
 21
1.0
 31
0.0
  0
LINE
  5
4C4
  8
MyLines
 10
71826.0
 20
0.0
 30
0.0
 11
71826.0
 21
87.0
 31
0.0
  0
LINE
  5
4C5
  8
MyLines
 10
72004.0
 20
46.5
 30
0.0
 11
72528.0
 21
46.5
 31
0.0
  0
LINE
  5
4C6
  8
MyLines
 10
72004.0
 20
0.0
 30
0.0
 11
72528.0
 21
0.0
 31
0.0
  0
LINE
  5
4C7
  8
MyLines
 10
72004.0
 20
0.0
 30
0.0
 11
72004.0
 21
46.5
 31
0.0
  0
LINE
  5
4C8
  8
MyLines
 10
72528.0
 20
0.0
 30
0.0
 11
72528.0
 21
46.5
 31
0.0
  0
TEXT
  5
4C9
  8
MyLines
 62
1
 10
72267.0
 20
1.0
 30
0.0
 40
1.0
  1
7654-B
  7
LiberationSerif
 11
72267.0
 21
1.0
 31
0.0
  0
TEXT
  5
4CA
  8
MyLines
 62
1
 10
72005.0
 20
1.0
 30
0.0
 40
1.0
  1
7654-A
  7
LiberationSerif
 11
72005.0
 21
1.0
 31
0.0
  0
LINE
  5
4CB
  8
MyLines
 10
72266.0
 20
0.0
 30
0.0
 11
72266.0
 21
46.5
 31
0.0
  0
LINE
  5
4CC
  8
MyLines
 10
72530.0
 20
70.0
 30
0.0
 11
73042.0
 21
70.0
 31
0.0
  0
LINE
  5
4CD
  8
MyLines
 10
72530.0
 20
0.0
 30
0.0
 11
73042.0
 21
0.0
 31
0.0
  0
LINE
  5
4CE
  8
MyLines
 10
72530.0
 20
0.0
 30
0.0
 11
72530.0
 21
70.0
 31
0.0
  0
LINE
  5
4CF
  8
MyLines
 10
73042.0
 20
0.0
 30
0.0
 11
73042.0
 21
70.0
 31
0.0
  0
TEXT
  5
4D0
  8
MyLines
 62
1
 10
72787.0
 20
1.0
 30
0.0
 40
1.0
  1
7655-B
  7
LiberationSerif
 11
72787.0
 21
1.0
 31
0.0
  0
TEXT
  5
4D1
  8
MyLines
 62
1
 10
72531.0
 20
1.0
 30
0.0
 40
1.0
  1
7655-A
  7
LiberationSerif
 11
72531.0
 21
1.0
 31
0.0
  0
LINE
  5
4D2
  8
MyLines
 10
72786.0
 20
0.0
 30
0.0
 11
72786.0
 21
70.0
 31
0.0
  0
LINE
  5
4D3
  8
MyLines
 10
73044.0
 20
39.5
 30
0.0
 11
73482.0
 21
39.5
 31
0.0
  0
LINE
  5
4D4
  8
MyLines
 10
73044.0
 20
0.0
 30
0.0
 11
73482.0
 21
0.0
 31
0.0
  0
LINE
  5
4D5
  8
MyLines
 10
73044.0
 20
0.0
 30
0.0
 11
73044.0
 21
39.5
 31
0.0
  0
LINE
  5
4D6
  8
MyLines
 10
73482.0
 20
0.0
 30
0.0
 11
73482.0
 21
39.5
 31
0.0
  0
TEXT
  5
4D7
  8
MyLines
 62
1
 10
73264.0
 20
1.0
 30
0.0
 40
1.0
  1
7656-B
  7
LiberationSerif
 11
73264.0
 21
1.0
 31
0.0
  0
TEXT
  5
4D8
  8
MyLines
 62
1
 10
73045.0
 20
1.0
 30
0.0
 40
1.0
  1
7656-A
  7
LiberationSerif
 11
73045.0
 21
1.0
 31
0.0
  0
LINE
  5
4D9
  8
MyLines
 10
73263.0
 20
0.0
 30
0.0
 11
73263.0
 21
39.5
 31
0.0
  0
LINE
  5
4DA
  8
MyLines
 10
73484.0
 20
75.0
 30
0.0
 11
73976.0
 21
75.0
 31
0.0
  0
LINE
  5
4DB
  8
MyLines
 10
73484.0
 20
0.0
 30
0.0
 11
73976.0
 21
0.0
 31
0.0
  0
LINE
  5
4DC
  8
MyLines
 10
73484.0
 20
0.0
 30
0.0
 11
73484.0
 21
75.0
 31
0.0
  0
LINE
  5
4DD
  8
MyLines
 10
73976.0
 20
0.0
 30
0.0
 11
73976.0
 21
75.0
 31
0.0
  0
TEXT
  5
4DE
  8
MyLines
 62
1
 10
73731.0
 20
1.0
 30
0.0
 40
1.0
  1
7657-B
  7
LiberationSerif
 11
73731.0
 21
1.0
 31
0.0
  0
TEXT
  5
4DF
  8
MyLines
 62
1
 10
73485.0
 20
1.0
 30
0.0
 40
1.0
  1
7657-A
  7
LiberationSerif
 11
73485.0
 21
1.0
 31
0.0
  0
LINE
  5
4E0
  8
MyLines
 10
73730.0
 20
0.0
 30
0.0
 11
73730.0
 21
75.0
 31
0.0
  0
LINE
  5
4E1
  8
MyLines
 10
73978.0
 20
65.5
 30
0.0
 11
74568.0
 21
65.5
 31
0.0
  0
LINE
  5
4E2
  8
MyLines
 10
73978.0
 20
0.0
 30
0.0
 11
74568.0
 21
0.0
 31
0.0
  0
LINE
  5
4E3
  8
MyLines
 10
73978.0
 20
0.0
 30
0.0
 11
73978.0
 21
65.5
 31
0.0
  0
LINE
  5
4E4
  8
MyLines
 10
74568.0
 20
0.0
 30
0.0
 11
74568.0
 21
65.5
 31
0.0
  0
TEXT
  5
4E5
  8
MyLines
 62
1
 10
74274.0
 20
1.0
 30
0.0
 40
1.0
  1
7658-B
  7
LiberationSerif
 11
74274.0
 21
1.0
 31
0.0
  0
TEXT
  5
4E6
  8
MyLines
 62
1
 10
73979.0
 20
1.0
 30
0.0
 40
1.0
  1
7658-A
  7
LiberationSerif
 11
73979.0
 21
1.0
 31
0.0
  0
LINE
  5
4E7
  8
MyLines
 10
74273.0
 20
0.0
 30
0.0
 11
74273.0
 21
65.5
 31
0.0
  0
LINE
  5
4E8
  8
MyLines
 10
74570.0
 20
61.5
 30
0.0
 11
74942.0
 21
61.5
 31
0.0
  0
LINE
  5
4E9
  8
MyLines
 10
74570.0
 20
0.0
 30
0.0
 11
74942.0
 21
0.0
 31
0.0
  0
LINE
  5
4EA
  8
MyLines
 10
74570.0
 20
0.0
 30
0.0
 11
74570.0
 21
61.5
 31
0.0
  0
LINE
  5
4EB
  8
MyLines
 10
74942.0
 20
0.0
 30
0.0
 11
74942.0
 21
61.5
 31
0.0
  0
TEXT
  5
4EC
  8
MyLines
 62
1
 10
74757.0
 20
1.0
 30
0.0
 40
1.0
  1
7659-B
  7
LiberationSerif
 11
74757.0
 21
1.0
 31
0.0
  0
TEXT
  5
4ED
  8
MyLines
 62
1
 10
74571.0
 20
1.0
 30
0.0
 40
1.0
  1
7659-A
  7
LiberationSerif
 11
74571.0
 21
1.0
 31
0.0
  0
LINE
  5
4EE
  8
MyLines
 10
74756.0
 20
0.0
 30
0.0
 11
74756.0
 21
61.5
 31
0.0
  0
LINE
  5
4EF
  8
MyLines
 10
74944.0
 20
50.0
 30
0.0
 11
75518.0
 21
50.0
 31
0.0
  0
LINE
  5
4F0
  8
MyLines
 10
74944.0
 20
0.0
 30
0.0
 11
75518.0
 21
0.0
 31
0.0
  0
LINE
  5
4F1
  8
MyLines
 10
74944.0
 20
0.0
 30
0.0
 11
74944.0
 21
50.0
 31
0.0
  0
LINE
  5
4F2
  8
MyLines
 10
75518.0
 20
0.0
 30
0.0
 11
75518.0
 21
50.0
 31
0.0
  0
TEXT
  5
4F3
  8
MyLines
 62
1
 10
75232.0
 20
1.0
 30
0.0
 40
1.0
  1
7660-B
  7
LiberationSerif
 11
75232.0
 21
1.0
 31
0.0
  0
TEXT
  5
4F4
  8
MyLines
 62
1
 10
74945.0
 20
1.0
 30
0.0
 40
1.0
  1
7660-A
  7
LiberationSerif
 11
74945.0
 21
1.0
 31
0.0
  0
LINE
  5
4F5
  8
MyLines
 10
75231.0
 20
0.0
 30
0.0
 11
75231.0
 21
50.0
 31
0.0
  0
LINE
  5
4F6
  8
MyLines
 10
75520.0
 20
73.5
 30
0.0
 11
75904.0
 21
73.5
 31
0.0
  0
LINE
  5
4F7
  8
MyLines
 10
75520.0
 20
0.0
 30
0.0
 11
75904.0
 21
0.0
 31
0.0
  0
LINE
  5
4F8
  8
MyLines
 10
75520.0
 20
0.0
 30
0.0
 11
75520.0
 21
73.5
 31
0.0
  0
LINE
  5
4F9
  8
MyLines
 10
75904.0
 20
0.0
 30
0.0
 11
75904.0
 21
73.5
 31
0.0
  0
TEXT
  5
4FA
  8
MyLines
 62
1
 10
75713.0
 20
1.0
 30
0.0
 40
1.0
  1
7661-B
  7
LiberationSerif
 11
75713.0
 21
1.0
 31
0.0
  0
TEXT
  5
4FB
  8
MyLines
 62
1
 10
75521.0
 20
1.0
 30
0.0
 40
1.0
  1
7661-A
  7
LiberationSerif
 11
75521.0
 21
1.0
 31
0.0
  0
LINE
  5
4FC
  8
MyLines
 10
75712.0
 20
0.0
 30
0.0
 11
75712.0
 21
73.5
 31
0.0
  0
LINE
  5
4FD
  8
MyLines
 10
75906.0
 20
61.5
 30
0.0
 11
76334.0
 21
61.5
 31
0.0
  0
LINE
  5
4FE
  8
MyLines
 10
75906.0
 20
0.0
 30
0.0
 11
76334.0
 21
0.0
 31
0.0
  0
LINE
  5
4FF
  8
MyLines
 10
75906.0
 20
0.0
 30
0.0
 11
75906.0
 21
61.5
 31
0.0
  0
LINE
  5
500
  8
MyLines
 10
76334.0
 20
0.0
 30
0.0
 11
76334.0
 21
61.5
 31
0.0
  0
TEXT
  5
501
  8
MyLines
 62
1
 10
76121.0
 20
1.0
 30
0.0
 40
1.0
  1
7662-B
  7
LiberationSerif
 11
76121.0
 21
1.0
 31
0.0
  0
TEXT
  5
502
  8
MyLines
 62
1
 10
75907.0
 20
1.0
 30
0.0
 40
1.0
  1
7662-A
  7
LiberationSerif
 11
75907.0
 21
1.0
 31
0.0
  0
LINE
  5
503
  8
MyLines
 10
76120.0
 20
0.0
 30
0.0
 11
76120.0
 21
61.5
 31
0.0
  0
LINE
  5
504
  8
MyLines
 10
76336.0
 20
44.0
 30
0.0
 11
76872.0
 21
44.0
 31
0.0
  0
LINE
  5
505
  8
MyLines
 10
76336.0
 20
0.0
 30
0.0
 11
76872.0
 21
0.0
 31
0.0
  0
LINE
  5
506
  8
MyLines
 10
76336.0
 20
0.0
 30
0.0
 11
76336.0
 21
44.0
 31
0.0
  0
LINE
  5
507
  8
MyLines
 10
76872.0
 20
0.0
 30
0.0
 11
76872.0
 21
44.0
 31
0.0
  0
TEXT
  5
508
  8
MyLines
 62
1
 10
76605.0
 20
1.0
 30
0.0
 40
1.0
  1
7663-B
  7
LiberationSerif
 11
76605.0
 21
1.0
 31
0.0
  0
TEXT
  5
509
  8
MyLines
 62
1
 10
76337.0
 20
1.0
 30
0.0
 40
1.0
  1
7663-A
  7
LiberationSerif
 11
76337.0
 21
1.0
 31
0.0
  0
LINE
  5
50A
  8
MyLines
 10
76604.0
 20
0.0
 30
0.0
 11
76604.0
 21
44.0
 31
0.0
  0
LINE
  5
50B
  8
MyLines
 10
76874.0
 20
41.0
 30
0.0
 11
77468.0
 21
41.0
 31
0.0
  0
LINE
  5
50C
  8
MyLines
 10
76874.0
 20
0.0
 30
0.0
 11
77468.0
 21
0.0
 31
0.0
  0
LINE
  5
50D
  8
MyLines
 10
76874.0
 20
0.0
 30
0.0
 11
76874.0
 21
41.0
 31
0.0
  0
LINE
  5
50E
  8
MyLines
 10
77468.0
 20
0.0
 30
0.0
 11
77468.0
 21
41.0
 31
0.0
  0
TEXT
  5
50F
  8
MyLines
 62
1
 10
77172.0
 20
1.0
 30
0.0
 40
1.0
  1
7664-B
  7
LiberationSerif
 11
77172.0
 21
1.0
 31
0.0
  0
TEXT
  5
510
  8
MyLines
 62
1
 10
76875.0
 20
1.0
 30
0.0
 40
1.0
  1
7664-A
  7
LiberationSerif
 11
76875.0
 21
1.0
 31
0.0
  0
LINE
  5
511
  8
MyLines
 10
77171.0
 20
0.0
 30
0.0
 11
77171.0
 21
41.0
 31
0.0
  0
LINE
  5
512
  8
MyLines
 10
77470.0
 20
84.5
 30
0.0
 11
77972.0
 21
84.5
 31
0.0
  0
LINE
  5
513
  8
MyLines
 10
77470.0
 20
0.0
 30
0.0
 11
77972.0
 21
0.0
 31
0.0
  0
LINE
  5
514
  8
MyLines
 10
77470.0
 20
0.0
 30
0.0
 11
77470.0
 21
84.5
 31
0.0
  0
LINE
  5
515
  8
MyLines
 10
77972.0
 20
0.0
 30
0.0
 11
77972.0
 21
84.5
 31
0.0
  0
TEXT
  5
516
  8
MyLines
 62
1
 10
77722.0
 20
1.0
 30
0.0
 40
1.0
  1
7665-B
  7
LiberationSerif
 11
77722.0
 21
1.0
 31
0.0
  0
TEXT
  5
517
  8
MyLines
 62
1
 10
77471.0
 20
1.0
 30
0.0
 40
1.0
  1
7665-A
  7
LiberationSerif
 11
77471.0
 21
1.0
 31
0.0
  0
LINE
  5
518
  8
MyLines
 10
77721.0
 20
0.0
 30
0.0
 11
77721.0
 21
84.5
 31
0.0
  0
LINE
  5
519
  8
MyLines
 10
77974.0
 20
52.5
 30
0.0
 11
78392.0
 21
52.5
 31
0.0
  0
LINE
  5
51A
  8
MyLines
 10
77974.0
 20
0.0
 30
0.0
 11
78392.0
 21
0.0
 31
0.0
  0
LINE
  5
51B
  8
MyLines
 10
77974.0
 20
0.0
 30
0.0
 11
77974.0
 21
52.5
 31
0.0
  0
LINE
  5
51C
  8
MyLines
 10
78392.0
 20
0.0
 30
0.0
 11
78392.0
 21
52.5
 31
0.0
  0
TEXT
  5
51D
  8
MyLines
 62
1
 10
78184.0
 20
1.0
 30
0.0
 40
1.0
  1
7666-B
  7
LiberationSerif
 11
78184.0
 21
1.0
 31
0.0
  0
TEXT
  5
51E
  8
MyLines
 62
1
 10
77975.0
 20
1.0
 30
0.0
 40
1.0
  1
7666-A
  7
LiberationSerif
 11
77975.0
 21
1.0
 31
0.0
  0
LINE
  5
51F
  8
MyLines
 10
78183.0
 20
0.0
 30
0.0
 11
78183.0
 21
52.5
 31
0.0
  0
LINE
  5
520
  8
MyLines
 10
78394.0
 20
38.5
 30
0.0
 11
78786.0
 21
38.5
 31
0.0
  0
LINE
  5
521
  8
MyLines
 10
78394.0
 20
0.0
 30
0.0
 11
78786.0
 21
0.0
 31
0.0
  0
LINE
  5
522
  8
MyLines
 10
78394.0
 20
0.0
 30
0.0
 11
78394.0
 21
38.5
 31
0.0
  0
LINE
  5
523
  8
MyLines
 10
78786.0
 20
0.0
 30
0.0
 11
78786.0
 21
38.5
 31
0.0
  0
TEXT
  5
524
  8
MyLines
 62
1
 10
78591.0
 20
1.0
 30
0.0
 40
1.0
  1
7667-B
  7
LiberationSerif
 11
78591.0
 21
1.0
 31
0.0
  0
TEXT
  5
525
  8
MyLines
 62
1
 10
78395.0
 20
1.0
 30
0.0
 40
1.0
  1
7667-A
  7
LiberationSerif
 11
78395.0
 21
1.0
 31
0.0
  0
LINE
  5
526
  8
MyLines
 10
78590.0
 20
0.0
 30
0.0
 11
78590.0
 21
38.5
 31
0.0
  0
LINE
  5
527
  8
MyLines
 10
78788.0
 20
59.5
 30
0.0
 11
79360.0
 21
59.5
 31
0.0
  0
LINE
  5
528
  8
MyLines
 10
78788.0
 20
0.0
 30
0.0
 11
79360.0
 21
0.0
 31
0.0
  0
LINE
  5
529
  8
MyLines
 10
78788.0
 20
0.0
 30
0.0
 11
78788.0
 21
59.5
 31
0.0
  0
LINE
  5
52A
  8
MyLines
 10
79360.0
 20
0.0
 30
0.0
 11
79360.0
 21
59.5
 31
0.0
  0
TEXT
  5
52B
  8
MyLines
 62
1
 10
79075.0
 20
1.0
 30
0.0
 40
1.0
  1
7668-B
  7
LiberationSerif
 11
79075.0
 21
1.0
 31
0.0
  0
TEXT
  5
52C
  8
MyLines
 62
1
 10
78789.0
 20
1.0
 30
0.0
 40
1.0
  1
7668-A
  7
LiberationSerif
 11
78789.0
 21
1.0
 31
0.0
  0
LINE
  5
52D
  8
MyLines
 10
79074.0
 20
0.0
 30
0.0
 11
79074.0
 21
59.5
 31
0.0
  0
LINE
  5
52E
  8
MyLines
 10
79362.0
 20
55.0
 30
0.0
 11
79756.0
 21
55.0
 31
0.0
  0
LINE
  5
52F
  8
MyLines
 10
79362.0
 20
0.0
 30
0.0
 11
79756.0
 21
0.0
 31
0.0
  0
LINE
  5
530
  8
MyLines
 10
79362.0
 20
0.0
 30
0.0
 11
79362.0
 21
55.0
 31
0.0
  0
LINE
  5
531
  8
MyLines
 10
79756.0
 20
0.0
 30
0.0
 11
79756.0
 21
55.0
 31
0.0
  0
TEXT
  5
532
  8
MyLines
 62
1
 10
79560.0
 20
1.0
 30
0.0
 40
1.0
  1
7669-B
  7
LiberationSerif
 11
79560.0
 21
1.0
 31
0.0
  0
TEXT
  5
533
  8
MyLines
 62
1
 10
79363.0
 20
1.0
 30
0.0
 40
1.0
  1
7669-A
  7
LiberationSerif
 11
79363.0
 21
1.0
 31
0.0
  0
LINE
  5
534
  8
MyLines
 10
79559.0
 20
0.0
 30
0.0
 11
79559.0
 21
55.0
 31
0.0
  0
LINE
  5
535
  8
MyLines
 10
79758.0
 20
81.5
 30
0.0
 11
80310.0
 21
81.5
 31
0.0
  0
LINE
  5
536
  8
MyLines
 10
79758.0
 20
0.0
 30
0.0
 11
80310.0
 21
0.0
 31
0.0
  0
LINE
  5
537
  8
MyLines
 10
79758.0
 20
0.0
 30
0.0
 11
79758.0
 21
81.5
 31
0.0
  0
LINE
  5
538
  8
MyLines
 10
80310.0
 20
0.0
 30
0.0
 11
80310.0
 21
81.5
 31
0.0
  0
TEXT
  5
539
  8
MyLines
 62
1
 10
80035.0
 20
1.0
 30
0.0
 40
1.0
  1
7670-B
  7
LiberationSerif
 11
80035.0
 21
1.0
 31
0.0
  0
TEXT
  5
53A
  8
MyLines
 62
1
 10
79759.0
 20
1.0
 30
0.0
 40
1.0
  1
7670-A
  7
LiberationSerif
 11
79759.0
 21
1.0
 31
0.0
  0
LINE
  5
53B
  8
MyLines
 10
80034.0
 20
0.0
 30
0.0
 11
80034.0
 21
81.5
 31
0.0
  0
LINE
  5
53C
  8
MyLines
 10
80312.0
 20
43.5
 30
0.0
 11
80880.0
 21
43.5
 31
0.0
  0
LINE
  5
53D
  8
MyLines
 10
80312.0
 20
0.0
 30
0.0
 11
80880.0
 21
0.0
 31
0.0
  0
LINE
  5
53E
  8
MyLines
 10
80312.0
 20
0.0
 30
0.0
 11
80312.0
 21
43.5
 31
0.0
  0
LINE
  5
53F
  8
MyLines
 10
80880.0
 20
0.0
 30
0.0
 11
80880.0
 21
43.5
 31
0.0
  0
TEXT
  5
540
  8
MyLines
 62
1
 10
80597.0
 20
1.0
 30
0.0
 40
1.0
  1
7671-B
  7
LiberationSerif
 11
80597.0
 21
1.0
 31
0.0
  0
TEXT
  5
541
  8
MyLines
 62
1
 10
80313.0
 20
1.0
 30
0.0
 40
1.0
  1
7671-A
  7
LiberationSerif
 11
80313.0
 21
1.0
 31
0.0
  0
LINE
  5
542
  8
MyLines
 10
80596.0
 20
0.0
 30
0.0
 11
80596.0
 21
43.5
 31
0.0
  0
LINE
  5
543
  8
MyLines
 10
80882.0
 20
45.0
 30
0.0
 11
81264.0
 21
45.0
 31
0.0
  0
LINE
  5
544
  8
MyLines
 10
80882.0
 20
0.0
 30
0.0
 11
81264.0
 21
0.0
 31
0.0
  0
LINE
  5
545
  8
MyLines
 10
80882.0
 20
0.0
 30
0.0
 11
80882.0
 21
45.0
 31
0.0
  0
LINE
  5
546
  8
MyLines
 10
81264.0
 20
0.0
 30
0.0
 11
81264.0
 21
45.0
 31
0.0
  0
TEXT
  5
547
  8
MyLines
 62
1
 10
81074.0
 20
1.0
 30
0.0
 40
1.0
  1
7672-B
  7
LiberationSerif
 11
81074.0
 21
1.0
 31
0.0
  0
TEXT
  5
548
  8
MyLines
 62
1
 10
80883.0
 20
1.0
 30
0.0
 40
1.0
  1
7672-A
  7
LiberationSerif
 11
80883.0
 21
1.0
 31
0.0
  0
LINE
  5
549
  8
MyLines
 10
81073.0
 20
0.0
 30
0.0
 11
81073.0
 21
45.0
 31
0.0
  0
LINE
  5
54A
  8
MyLines
 10
81266.0
 20
88.5
 30
0.0
 11
81646.0
 21
88.5
 31
0.0
  0
LINE
  5
54B
  8
MyLines
 10
81266.0
 20
0.0
 30
0.0
 11
81646.0
 21
0.0
 31
0.0
  0
LINE
  5
54C
  8
MyLines
 10
81266.0
 20
0.0
 30
0.0
 11
81266.0
 21
88.5
 31
0.0
  0
LINE
  5
54D
  8
MyLines
 10
81646.0
 20
0.0
 30
0.0
 11
81646.0
 21
88.5
 31
0.0
  0
TEXT
  5
54E
  8
MyLines
 62
1
 10
81457.0
 20
1.0
 30
0.0
 40
1.0
  1
7673-B
  7
LiberationSerif
 11
81457.0
 21
1.0
 31
0.0
  0
TEXT
  5
54F
  8
MyLines
 62
1
 10
81267.0
 20
1.0
 30
0.0
 40
1.0
  1
7673-A
  7
LiberationSerif
 11
81267.0
 21
1.0
 31
0.0
  0
LINE
  5
550
  8
MyLines
 10
81456.0
 20
0.0
 30
0.0
 11
81456.0
 21
88.5
 31
0.0
  0
LINE
  5
551
  8
MyLines
 10
81648.0
 20
49.5
 30
0.0
 11
82080.0
 21
49.5
 31
0.0
  0
LINE
  5
552
  8
MyLines
 10
81648.0
 20
0.0
 30
0.0
 11
82080.0
 21
0.0
 31
0.0
  0
LINE
  5
553
  8
MyLines
 10
81648.0
 20
0.0
 30
0.0
 11
81648.0
 21
49.5
 31
0.0
  0
LINE
  5
554
  8
MyLines
 10
82080.0
 20
0.0
 30
0.0
 11
82080.0
 21
49.5
 31
0.0
  0
TEXT
  5
555
  8
MyLines
 62
1
 10
81865.0
 20
1.0
 30
0.0
 40
1.0
  1
7674-B
  7
LiberationSerif
 11
81865.0
 21
1.0
 31
0.0
  0
TEXT
  5
556
  8
MyLines
 62
1
 10
81649.0
 20
1.0
 30
0.0
 40
1.0
  1
7674-A
  7
LiberationSerif
 11
81649.0
 21
1.0
 31
0.0
  0
LINE
  5
557
  8
MyLines
 10
81864.0
 20
0.0
 30
0.0
 11
81864.0
 21
49.5
 31
0.0
  0
LINE
  5
558
  8
MyLines
 10
82082.0
 20
83.5
 30
0.0
 11
82592.0
 21
83.5
 31
0.0
  0
LINE
  5
559
  8
MyLines
 10
82082.0
 20
0.0
 30
0.0
 11
82592.0
 21
0.0
 31
0.0
  0
LINE
  5
55A
  8
MyLines
 10
82082.0
 20
0.0
 30
0.0
 11
82082.0
 21
83.5
 31
0.0
  0
LINE
  5
55B
  8
MyLines
 10
82592.0
 20
0.0
 30
0.0
 11
82592.0
 21
83.5
 31
0.0
  0
TEXT
  5
55C
  8
MyLines
 62
1
 10
82338.0
 20
1.0
 30
0.0
 40
1.0
  1
7675-B
  7
LiberationSerif
 11
82338.0
 21
1.0
 31
0.0
  0
TEXT
  5
55D
  8
MyLines
 62
1
 10
82083.0
 20
1.0
 30
0.0
 40
1.0
  1
7675-A
  7
LiberationSerif
 11
82083.0
 21
1.0
 31
0.0
  0
LINE
  5
55E
  8
MyLines
 10
82337.0
 20
0.0
 30
0.0
 11
82337.0
 21
83.5
 31
0.0
  0
LINE
  5
55F
  8
MyLines
 10
82594.0
 20
67.0
 30
0.0
 11
83062.0
 21
67.0
 31
0.0
  0
LINE
  5
560
  8
MyLines
 10
82594.0
 20
0.0
 30
0.0
 11
83062.0
 21
0.0
 31
0.0
  0
LINE
  5
561
  8
MyLines
 10
82594.0
 20
0.0
 30
0.0
 11
82594.0
 21
67.0
 31
0.0
  0
LINE
  5
562
  8
MyLines
 10
83062.0
 20
0.0
 30
0.0
 11
83062.0
 21
67.0
 31
0.0
  0
TEXT
  5
563
  8
MyLines
 62
1
 10
82829.0
 20
1.0
 30
0.0
 40
1.0
  1
7676-B
  7
LiberationSerif
 11
82829.0
 21
1.0
 31
0.0
  0
TEXT
  5
564
  8
MyLines
 62
1
 10
82595.0
 20
1.0
 30
0.0
 40
1.0
  1
7676-A
  7
LiberationSerif
 11
82595.0
 21
1.0
 31
0.0
  0
LINE
  5
565
  8
MyLines
 10
82828.0
 20
0.0
 30
0.0
 11
82828.0
 21
67.0
 31
0.0
  0
LINE
  5
566
  8
MyLines
 10
83064.0
 20
65.5
 30
0.0
 11
83550.0
 21
65.5
 31
0.0
  0
LINE
  5
567
  8
MyLines
 10
83064.0
 20
0.0
 30
0.0
 11
83550.0
 21
0.0
 31
0.0
  0
LINE
  5
568
  8
MyLines
 10
83064.0
 20
0.0
 30
0.0
 11
83064.0
 21
65.5
 31
0.0
  0
LINE
  5
569
  8
MyLines
 10
83550.0
 20
0.0
 30
0.0
 11
83550.0
 21
65.5
 31
0.0
  0
TEXT
  5
56A
  8
MyLines
 62
1
 10
83308.0
 20
1.0
 30
0.0
 40
1.0
  1
7677-B
  7
LiberationSerif
 11
83308.0
 21
1.0
 31
0.0
  0
TEXT
  5
56B
  8
MyLines
 62
1
 10
83065.0
 20
1.0
 30
0.0
 40
1.0
  1
7677-A
  7
LiberationSerif
 11
83065.0
 21
1.0
 31
0.0
  0
LINE
  5
56C
  8
MyLines
 10
83307.0
 20
0.0
 30
0.0
 11
83307.0
 21
65.5
 31
0.0
  0
LINE
  5
56D
  8
MyLines
 10
83552.0
 20
70.0
 30
0.0
 11
84008.0
 21
70.0
 31
0.0
  0
LINE
  5
56E
  8
MyLines
 10
83552.0
 20
0.0
 30
0.0
 11
84008.0
 21
0.0
 31
0.0
  0
LINE
  5
56F
  8
MyLines
 10
83552.0
 20
0.0
 30
0.0
 11
83552.0
 21
70.0
 31
0.0
  0
LINE
  5
570
  8
MyLines
 10
84008.0
 20
0.0
 30
0.0
 11
84008.0
 21
70.0
 31
0.0
  0
TEXT
  5
571
  8
MyLines
 62
1
 10
83781.0
 20
1.0
 30
0.0
 40
1.0
  1
7678-B
  7
LiberationSerif
 11
83781.0
 21
1.0
 31
0.0
  0
TEXT
  5
572
  8
MyLines
 62
1
 10
83553.0
 20
1.0
 30
0.0
 40
1.0
  1
7678-A
  7
LiberationSerif
 11
83553.0
 21
1.0
 31
0.0
  0
LINE
  5
573
  8
MyLines
 10
83780.0
 20
0.0
 30
0.0
 11
83780.0
 21
70.0
 31
0.0
  0
LINE
  5
574
  8
MyLines
 10
84010.0
 20
78.5
 30
0.0
 11
84578.0
 21
78.5
 31
0.0
  0
LINE
  5
575
  8
MyLines
 10
84010.0
 20
0.0
 30
0.0
 11
84578.0
 21
0.0
 31
0.0
  0
LINE
  5
576
  8
MyLines
 10
84010.0
 20
0.0
 30
0.0
 11
84010.0
 21
78.5
 31
0.0
  0
LINE
  5
577
  8
MyLines
 10
84578.0
 20
0.0
 30
0.0
 11
84578.0
 21
78.5
 31
0.0
  0
TEXT
  5
578
  8
MyLines
 62
1
 10
84295.0
 20
1.0
 30
0.0
 40
1.0
  1
7679-B
  7
LiberationSerif
 11
84295.0
 21
1.0
 31
0.0
  0
TEXT
  5
579
  8
MyLines
 62
1
 10
84011.0
 20
1.0
 30
0.0
 40
1.0
  1
7679-A
  7
LiberationSerif
 11
84011.0
 21
1.0
 31
0.0
  0
LINE
  5
57A
  8
MyLines
 10
84294.0
 20
0.0
 30
0.0
 11
84294.0
 21
78.5
 31
0.0
  0
LINE
  5
57B
  8
MyLines
 10
84580.0
 20
42.5
 30
0.0
 11
84966.0
 21
42.5
 31
0.0
  0
LINE
  5
57C
  8
MyLines
 10
84580.0
 20
0.0
 30
0.0
 11
84966.0
 21
0.0
 31
0.0
  0
LINE
  5
57D
  8
MyLines
 10
84580.0
 20
0.0
 30
0.0
 11
84580.0
 21
42.5
 31
0.0
  0
LINE
  5
57E
  8
MyLines
 10
84966.0
 20
0.0
 30
0.0
 11
84966.0
 21
42.5
 31
0.0
  0
TEXT
  5
57F
  8
MyLines
 62
1
 10
84774.0
 20
1.0
 30
0.0
 40
1.0
  1
7680-B
  7
LiberationSerif
 11
84774.0
 21
1.0
 31
0.0
  0
TEXT
  5
580
  8
MyLines
 62
1
 10
84581.0
 20
1.0
 30
0.0
 40
1.0
  1
7680-A
  7
LiberationSerif
 11
84581.0
 21
1.0
 31
0.0
  0
LINE
  5
581
  8
MyLines
 10
84773.0
 20
0.0
 30
0.0
 11
84773.0
 21
42.5
 31
0.0
  0
LINE
  5
582
  8
MyLines
 10
84968.0
 20
61.5
 30
0.0
 11
85396.0
 21
61.5
 31
0.0
  0
LINE
  5
583
  8
MyLines
 10
84968.0
 20
0.0
 30
0.0
 11
85396.0
 21
0.0
 31
0.0
  0
LINE
  5
584
  8
MyLines
 10
84968.0
 20
0.0
 30
0.0
 11
84968.0
 21
61.5
 31
0.0
  0
LINE
  5
585
  8
MyLines
 10
85396.0
 20
0.0
 30
0.0
 11
85396.0
 21
61.5
 31
0.0
  0
TEXT
  5
586
  8
MyLines
 62
1
 10
85183.0
 20
1.0
 30
0.0
 40
1.0
  1
7681-B
  7
LiberationSerif
 11
85183.0
 21
1.0
 31
0.0
  0
TEXT
  5
587
  8
MyLines
 62
1
 10
84969.0
 20
1.0
 30
0.0
 40
1.0
  1
7681-A
  7
LiberationSerif
 11
84969.0
 21
1.0
 31
0.0
  0
LINE
  5
588
  8
MyLines
 10
85182.0
 20
0.0
 30
0.0
 11
85182.0
 21
61.5
 31
0.0
  0
LINE
  5
589
  8
MyLines
 10
85398.0
 20
53.5
 30
0.0
 11
85904.0
 21
53.5
 31
0.0
  0
LINE
  5
58A
  8
MyLines
 10
85398.0
 20
0.0
 30
0.0
 11
85904.0
 21
0.0
 31
0.0
  0
LINE
  5
58B
  8
MyLines
 10
85398.0
 20
0.0
 30
0.0
 11
85398.0
 21
53.5
 31
0.0
  0
LINE
  5
58C
  8
MyLines
 10
85904.0
 20
0.0
 30
0.0
 11
85904.0
 21
53.5
 31
0.0
  0
TEXT
  5
58D
  8
MyLines
 62
1
 10
85652.0
 20
1.0
 30
0.0
 40
1.0
  1
7682-B
  7
LiberationSerif
 11
85652.0
 21
1.0
 31
0.0
  0
TEXT
  5
58E
  8
MyLines
 62
1
 10
85399.0
 20
1.0
 30
0.0
 40
1.0
  1
7682-A
  7
LiberationSerif
 11
85399.0
 21
1.0
 31
0.0
  0
LINE
  5
58F
  8
MyLines
 10
85651.0
 20
0.0
 30
0.0
 11
85651.0
 21
53.5
 31
0.0
  0
LINE
  5
590
  8
MyLines
 10
85906.0
 20
37.5
 30
0.0
 11
86372.0
 21
37.5
 31
0.0
  0
LINE
  5
591
  8
MyLines
 10
85906.0
 20
0.0
 30
0.0
 11
86372.0
 21
0.0
 31
0.0
  0
LINE
  5
592
  8
MyLines
 10
85906.0
 20
0.0
 30
0.0
 11
85906.0
 21
37.5
 31
0.0
  0
LINE
  5
593
  8
MyLines
 10
86372.0
 20
0.0
 30
0.0
 11
86372.0
 21
37.5
 31
0.0
  0
TEXT
  5
594
  8
MyLines
 62
1
 10
86140.0
 20
1.0
 30
0.0
 40
1.0
  1
7683-B
  7
LiberationSerif
 11
86140.0
 21
1.0
 31
0.0
  0
TEXT
  5
595
  8
MyLines
 62
1
 10
85907.0
 20
1.0
 30
0.0
 40
1.0
  1
7683-A
  7
LiberationSerif
 11
85907.0
 21
1.0
 31
0.0
  0
LINE
  5
596
  8
MyLines
 10
86139.0
 20
0.0
 30
0.0
 11
86139.0
 21
37.5
 31
0.0
  0
LINE
  5
597
  8
MyLines
 10
86374.0
 20
52.0
 30
0.0
 11
86814.0
 21
52.0
 31
0.0
  0
LINE
  5
598
  8
MyLines
 10
86374.0
 20
0.0
 30
0.0
 11
86814.0
 21
0.0
 31
0.0
  0
LINE
  5
599
  8
MyLines
 10
86374.0
 20
0.0
 30
0.0
 11
86374.0
 21
52.0
 31
0.0
  0
LINE
  5
59A
  8
MyLines
 10
86814.0
 20
0.0
 30
0.0
 11
86814.0
 21
52.0
 31
0.0
  0
TEXT
  5
59B
  8
MyLines
 62
1
 10
86595.0
 20
1.0
 30
0.0
 40
1.0
  1
7684-B
  7
LiberationSerif
 11
86595.0
 21
1.0
 31
0.0
  0
TEXT
  5
59C
  8
MyLines
 62
1
 10
86375.0
 20
1.0
 30
0.0
 40
1.0
  1
7684-A
  7
LiberationSerif
 11
86375.0
 21
1.0
 31
0.0
  0
LINE
  5
59D
  8
MyLines
 10
86594.0
 20
0.0
 30
0.0
 11
86594.0
 21
52.0
 31
0.0
  0
LINE
  5
59E
  8
MyLines
 10
86816.0
 20
74.0
 30
0.0
 11
87284.0
 21
74.0
 31
0.0
  0
LINE
  5
59F
  8
MyLines
 10
86816.0
 20
0.0
 30
0.0
 11
87284.0
 21
0.0
 31
0.0
  0
LINE
  5
5A0
  8
MyLines
 10
86816.0
 20
0.0
 30
0.0
 11
86816.0
 21
74.0
 31
0.0
  0
LINE
  5
5A1
  8
MyLines
 10
87284.0
 20
0.0
 30
0.0
 11
87284.0
 21
74.0
 31
0.0
  0
TEXT
  5
5A2
  8
MyLines
 62
1
 10
87051.0
 20
1.0
 30
0.0
 40
1.0
  1
7685-B
  7
LiberationSerif
 11
87051.0
 21
1.0
 31
0.0
  0
TEXT
  5
5A3
  8
MyLines
 62
1
 10
86817.0
 20
1.0
 30
0.0
 40
1.0
  1
7685-A
  7
LiberationSerif
 11
86817.0
 21
1.0
 31
0.0
  0
LINE
  5
5A4
  8
MyLines
 10
87050.0
 20
0.0
 30
0.0
 11
87050.0
 21
74.0
 31
0.0
  0
LINE
  5
5A5
  8
MyLines
 10
87286.0
 20
64.0
 30
0.0
 11
87850.0
 21
64.0
 31
0.0
  0
LINE
  5
5A6
  8
MyLines
 10
87286.0
 20
0.0
 30
0.0
 11
87850.0
 21
0.0
 31
0.0
  0
LINE
  5
5A7
  8
MyLines
 10
87286.0
 20
0.0
 30
0.0
 11
87286.0
 21
64.0
 31
0.0
  0
LINE
  5
5A8
  8
MyLines
 10
87850.0
 20
0.0
 30
0.0
 11
87850.0
 21
64.0
 31
0.0
  0
TEXT
  5
5A9
  8
MyLines
 62
1
 10
87569.0
 20
1.0
 30
0.0
 40
1.0
  1
7686-B
  7
LiberationSerif
 11
87569.0
 21
1.0
 31
0.0
  0
TEXT
  5
5AA
  8
MyLines
 62
1
 10
87287.0
 20
1.0
 30
0.0
 40
1.0
  1
7686-A
  7
LiberationSerif
 11
87287.0
 21
1.0
 31
0.0
  0
LINE
  5
5AB
  8
MyLines
 10
87568.0
 20
0.0
 30
0.0
 11
87568.0
 21
64.0
 31
0.0
  0
LINE
  5
5AC
  8
MyLines
 10
87852.0
 20
45.5
 30
0.0
 11
88412.0
 21
45.5
 31
0.0
  0
LINE
  5
5AD
  8
MyLines
 10
87852.0
 20
0.0
 30
0.0
 11
88412.0
 21
0.0
 31
0.0
  0
LINE
  5
5AE
  8
MyLines
 10
87852.0
 20
0.0
 30
0.0
 11
87852.0
 21
45.5
 31
0.0
  0
LINE
  5
5AF
  8
MyLines
 10
88412.0
 20
0.0
 30
0.0
 11
88412.0
 21
45.5
 31
0.0
  0
TEXT
  5
5B0
  8
MyLines
 62
1
 10
88133.0
 20
1.0
 30
0.0
 40
1.0
  1
7687-B
  7
LiberationSerif
 11
88133.0
 21
1.0
 31
0.0
  0
TEXT
  5
5B1
  8
MyLines
 62
1
 10
87853.0
 20
1.0
 30
0.0
 40
1.0
  1
7687-A
  7
LiberationSerif
 11
87853.0
 21
1.0
 31
0.0
  0
LINE
  5
5B2
  8
MyLines
 10
88132.0
 20
0.0
 30
0.0
 11
88132.0
 21
45.5
 31
0.0
  0
LINE
  5
5B3
  8
MyLines
 10
88414.0
 20
69.0
 30
0.0
 11
88814.0
 21
69.0
 31
0.0
  0
LINE
  5
5B4
  8
MyLines
 10
88414.0
 20
0.0
 30
0.0
 11
88814.0
 21
0.0
 31
0.0
  0
LINE
  5
5B5
  8
MyLines
 10
88414.0
 20
0.0
 30
0.0
 11
88414.0
 21
69.0
 31
0.0
  0
LINE
  5
5B6
  8
MyLines
 10
88814.0
 20
0.0
 30
0.0
 11
88814.0
 21
69.0
 31
0.0
  0
TEXT
  5
5B7
  8
MyLines
 62
1
 10
88615.0
 20
1.0
 30
0.0
 40
1.0
  1
7688-B
  7
LiberationSerif
 11
88615.0
 21
1.0
 31
0.0
  0
TEXT
  5
5B8
  8
MyLines
 62
1
 10
88415.0
 20
1.0
 30
0.0
 40
1.0
  1
7688-A
  7
LiberationSerif
 11
88415.0
 21
1.0
 31
0.0
  0
LINE
  5
5B9
  8
MyLines
 10
88614.0
 20
0.0
 30
0.0
 11
88614.0
 21
69.0
 31
0.0
  0
LINE
  5
5BA
  8
MyLines
 10
88816.0
 20
69.5
 30
0.0
 11
89354.0
 21
69.5
 31
0.0
  0
LINE
  5
5BB
  8
MyLines
 10
88816.0
 20
0.0
 30
0.0
 11
89354.0
 21
0.0
 31
0.0
  0
LINE
  5
5BC
  8
MyLines
 10
88816.0
 20
0.0
 30
0.0
 11
88816.0
 21
69.5
 31
0.0
  0
LINE
  5
5BD
  8
MyLines
 10
89354.0
 20
0.0
 30
0.0
 11
89354.0
 21
69.5
 31
0.0
  0
TEXT
  5
5BE
  8
MyLines
 62
1
 10
89086.0
 20
1.0
 30
0.0
 40
1.0
  1
7689-B
  7
LiberationSerif
 11
89086.0
 21
1.0
 31
0.0
  0
TEXT
  5
5BF
  8
MyLines
 62
1
 10
88817.0
 20
1.0
 30
0.0
 40
1.0
  1
7689-A
  7
LiberationSerif
 11
88817.0
 21
1.0
 31
0.0
  0
LINE
  5
5C0
  8
MyLines
 10
89085.0
 20
0.0
 30
0.0
 11
89085.0
 21
69.5
 31
0.0
  0
LINE
  5
5C1
  8
MyLines
 10
89356.0
 20
42.5
 30
0.0
 11
89818.0
 21
42.5
 31
0.0
  0
LINE
  5
5C2
  8
MyLines
 10
89356.0
 20
0.0
 30
0.0
 11
89818.0
 21
0.0
 31
0.0
  0
LINE
  5
5C3
  8
MyLines
 10
89356.0
 20
0.0
 30
0.0
 11
89356.0
 21
42.5
 31
0.0
  0
LINE
  5
5C4
  8
MyLines
 10
89818.0
 20
0.0
 30
0.0
 11
89818.0
 21
42.5
 31
0.0
  0
TEXT
  5
5C5
  8
MyLines
 62
1
 10
89588.0
 20
1.0
 30
0.0
 40
1.0
  1
7690-B
  7
LiberationSerif
 11
89588.0
 21
1.0
 31
0.0
  0
TEXT
  5
5C6
  8
MyLines
 62
1
 10
89357.0
 20
1.0
 30
0.0
 40
1.0
  1
7690-A
  7
LiberationSerif
 11
89357.0
 21
1.0
 31
0.0
  0
LINE
  5
5C7
  8
MyLines
 10
89587.0
 20
0.0
 30
0.0
 11
89587.0
 21
42.5
 31
0.0
  0
LINE
  5
5C8
  8
MyLines
 10
89820.0
 20
87.5
 30
0.0
 11
90400.0
 21
87.5
 31
0.0
  0
LINE
  5
5C9
  8
MyLines
 10
89820.0
 20
0.0
 30
0.0
 11
90400.0
 21
0.0
 31
0.0
  0
LINE
  5
5CA
  8
MyLines
 10
89820.0
 20
0.0
 30
0.0
 11
89820.0
 21
87.5
 31
0.0
  0
LINE
  5
5CB
  8
MyLines
 10
90400.0
 20
0.0
 30
0.0
 11
90400.0
 21
87.5
 31
0.0
  0
TEXT
  5
5CC
  8
MyLines
 62
1
 10
90111.0
 20
1.0
 30
0.0
 40
1.0
  1
7691-B
  7
LiberationSerif
 11
90111.0
 21
1.0
 31
0.0
  0
TEXT
  5
5CD
  8
MyLines
 62
1
 10
89821.0
 20
1.0
 30
0.0
 40
1.0
  1
7691-A
  7
LiberationSerif
 11
89821.0
 21
1.0
 31
0.0
  0
LINE
  5
5CE
  8
MyLines
 10
90110.0
 20
0.0
 30
0.0
 11
90110.0
 21
87.5
 31
0.0
  0
LINE
  5
5CF
  8
MyLines
 10
90402.0
 20
56.5
 30
0.0
 11
90866.0
 21
56.5
 31
0.0
  0
LINE
  5
5D0
  8
MyLines
 10
90402.0
 20
0.0
 30
0.0
 11
90866.0
 21
0.0
 31
0.0
  0
LINE
  5
5D1
  8
MyLines
 10
90402.0
 20
0.0
 30
0.0
 11
90402.0
 21
56.5
 31
0.0
  0
LINE
  5
5D2
  8
MyLines
 10
90866.0
 20
0.0
 30
0.0
 11
90866.0
 21
56.5
 31
0.0
  0
TEXT
  5
5D3
  8
MyLines
 62
1
 10
90635.0
 20
1.0
 30
0.0
 40
1.0
  1
7692-B
  7
LiberationSerif
 11
90635.0
 21
1.0
 31
0.0
  0
TEXT
  5
5D4
  8
MyLines
 62
1
 10
90403.0
 20
1.0
 30
0.0
 40
1.0
  1
7692-A
  7
LiberationSerif
 11
90403.0
 21
1.0
 31
0.0
  0
LINE
  5
5D5
  8
MyLines
 10
90634.0
 20
0.0
 30
0.0
 11
90634.0
 21
56.5
 31
0.0
  0
LINE
  5
5D6
  8
MyLines
 10
90868.0
 20
78.5
 30
0.0
 11
91448.0
 21
78.5
 31
0.0
  0
LINE
  5
5D7
  8
MyLines
 10
90868.0
 20
0.0
 30
0.0
 11
91448.0
 21
0.0
 31
0.0
  0
LINE
  5
5D8
  8
MyLines
 10
90868.0
 20
0.0
 30
0.0
 11
90868.0
 21
78.5
 31
0.0
  0
LINE
  5
5D9
  8
MyLines
 10
91448.0
 20
0.0
 30
0.0
 11
91448.0
 21
78.5
 31
0.0
  0
TEXT
  5
5DA
  8
MyLines
 62
1
 10
91159.0
 20
1.0
 30
0.0
 40
1.0
  1
7693-B
  7
LiberationSerif
 11
91159.0
 21
1.0
 31
0.0
  0
TEXT
  5
5DB
  8
MyLines
 62
1
 10
90869.0
 20
1.0
 30
0.0
 40
1.0
  1
7693-A
  7
LiberationSerif
 11
90869.0
 21
1.0
 31
0.0
  0
LINE
  5
5DC
  8
MyLines
 10
91158.0
 20
0.0
 30
0.0
 11
91158.0
 21
78.5
 31
0.0
  0
LINE
  5
5DD
  8
MyLines
 10
91450.0
 20
54.0
 30
0.0
 11
91830.0
 21
54.0
 31
0.0
  0
LINE
  5
5DE
  8
MyLines
 10
91450.0
 20
0.0
 30
0.0
 11
91830.0
 21
0.0
 31
0.0
  0
LINE
  5
5DF
  8
MyLines
 10
91450.0
 20
0.0
 30
0.0
 11
91450.0
 21
54.0
 31
0.0
  0
LINE
  5
5E0
  8
MyLines
 10
91830.0
 20
0.0
 30
0.0
 11
91830.0
 21
54.0
 31
0.0
  0
TEXT
  5
5E1
  8
MyLines
 62
1
 10
91641.0
 20
1.0
 30
0.0
 40
1.0
  1
7694-B
  7
LiberationSerif
 11
91641.0
 21
1.0
 31
0.0
  0
TEXT
  5
5E2
  8
MyLines
 62
1
 10
91451.0
 20
1.0
 30
0.0
 40
1.0
  1
7694-A
  7
LiberationSerif
 11
91451.0
 21
1.0
 31
0.0
  0
LINE
  5
5E3
  8
MyLines
 10
91640.0
 20
0.0
 30
0.0
 11
91640.0
 21
54.0
 31
0.0
  0
LINE
  5
5E4
  8
MyLines
 10
91832.0
 20
87.0
 30
0.0
 11
92224.0
 21
87.0
 31
0.0
  0
LINE
  5
5E5
  8
MyLines
 10
91832.0
 20
0.0
 30
0.0
 11
92224.0
 21
0.0
 31
0.0
  0
LINE
  5
5E6
  8
MyLines
 10
91832.0
 20
0.0
 30
0.0
 11
91832.0
 21
87.0
 31
0.0
  0
LINE
  5
5E7
  8
MyLines
 10
92224.0
 20
0.0
 30
0.0
 11
92224.0
 21
87.0
 31
0.0
  0
TEXT
  5
5E8
  8
MyLines
 62
1
 10
92029.0
 20
1.0
 30
0.0
 40
1.0
  1
7695-B
  7
LiberationSerif
 11
92029.0
 21
1.0
 31
0.0
  0
TEXT
  5
5E9
  8
MyLines
 62
1
 10
91833.0
 20
1.0
 30
0.0
 40
1.0
  1
7695-A
  7
LiberationSerif
 11
91833.0
 21
1.0
 31
0.0
  0
LINE
  5
5EA
  8
MyLines
 10
92028.0
 20
0.0
 30
0.0
 11
92028.0
 21
87.0
 31
0.0
  0
LINE
  5
5EB
  8
MyLines
 10
92226.0
 20
78.5
 30
0.0
 11
92756.0
 21
78.5
 31
0.0
  0
LINE
  5
5EC
  8
MyLines
 10
92226.0
 20
0.0
 30
0.0
 11
92756.0
 21
0.0
 31
0.0
  0
LINE
  5
5ED
  8
MyLines
 10
92226.0
 20
0.0
 30
0.0
 11
92226.0
 21
78.5
 31
0.0
  0
LINE
  5
5EE
  8
MyLines
 10
92756.0
 20
0.0
 30
0.0
 11
92756.0
 21
78.5
 31
0.0
  0
TEXT
  5
5EF
  8
MyLines
 62
1
 10
92492.0
 20
1.0
 30
0.0
 40
1.0
  1
7696-B
  7
LiberationSerif
 11
92492.0
 21
1.0
 31
0.0
  0
TEXT
  5
5F0
  8
MyLines
 62
1
 10
92227.0
 20
1.0
 30
0.0
 40
1.0
  1
7696-A
  7
LiberationSerif
 11
92227.0
 21
1.0
 31
0.0
  0
LINE
  5
5F1
  8
MyLines
 10
92491.0
 20
0.0
 30
0.0
 11
92491.0
 21
78.5
 31
0.0
  0
LINE
  5
5F2
  8
MyLines
 10
92758.0
 20
36.0
 30
0.0
 11
93116.0
 21
36.0
 31
0.0
  0
LINE
  5
5F3
  8
MyLines
 10
92758.0
 20
0.0
 30
0.0
 11
93116.0
 21
0.0
 31
0.0
  0
LINE
  5
5F4
  8
MyLines
 10
92758.0
 20
0.0
 30
0.0
 11
92758.0
 21
36.0
 31
0.0
  0
LINE
  5
5F5
  8
MyLines
 10
93116.0
 20
0.0
 30
0.0
 11
93116.0
 21
36.0
 31
0.0
  0
TEXT
  5
5F6
  8
MyLines
 62
1
 10
92938.0
 20
1.0
 30
0.0
 40
1.0
  1
7697-B
  7
LiberationSerif
 11
92938.0
 21
1.0
 31
0.0
  0
TEXT
  5
5F7
  8
MyLines
 62
1
 10
92759.0
 20
1.0
 30
0.0
 40
1.0
  1
7697-A
  7
LiberationSerif
 11
92759.0
 21
1.0
 31
0.0
  0
LINE
  5
5F8
  8
MyLines
 10
92937.0
 20
0.0
 30
0.0
 11
92937.0
 21
36.0
 31
0.0
  0
LINE
  5
5F9
  8
MyLines
 10
93118.0
 20
47.0
 30
0.0
 11
93614.0
 21
47.0
 31
0.0
  0
LINE
  5
5FA
  8
MyLines
 10
93118.0
 20
0.0
 30
0.0
 11
93614.0
 21
0.0
 31
0.0
  0
LINE
  5
5FB
  8
MyLines
 10
93118.0
 20
0.0
 30
0.0
 11
93118.0
 21
47.0
 31
0.0
  0
LINE
  5
5FC
  8
MyLines
 10
93614.0
 20
0.0
 30
0.0
 11
93614.0
 21
47.0
 31
0.0
  0
TEXT
  5
5FD
  8
MyLines
 62
1
 10
93367.0
 20
1.0
 30
0.0
 40
1.0
  1
7698-B
  7
LiberationSerif
 11
93367.0
 21
1.0
 31
0.0
  0
TEXT
  5
5FE
  8
MyLines
 62
1
 10
93119.0
 20
1.0
 30
0.0
 40
1.0
  1
7698-A
  7
LiberationSerif
 11
93119.0
 21
1.0
 31
0.0
  0
LINE
  5
5FF
  8
MyLines
 10
93366.0
 20
0.0
 30
0.0
 11
93366.0
 21
47.0
 31
0.0
  0
LINE
  5
600
  8
MyLines
 10
93616.0
 20
48.0
 30
0.0
 11
94012.0
 21
48.0
 31
0.0
  0
LINE
  5
601
  8
MyLines
 10
93616.0
 20
0.0
 30
0.0
 11
94012.0
 21
0.0
 31
0.0
  0
LINE
  5
602
  8
MyLines
 10
93616.0
 20
0.0
 30
0.0
 11
93616.0
 21
48.0
 31
0.0
  0
LINE
  5
603
  8
MyLines
 10
94012.0
 20
0.0
 30
0.0
 11
94012.0
 21
48.0
 31
0.0
  0
TEXT
  5
604
  8
MyLines
 62
1
 10
93815.0
 20
1.0
 30
0.0
 40
1.0
  1
7699-B
  7
LiberationSerif
 11
93815.0
 21
1.0
 31
0.0
  0
TEXT
  5
605
  8
MyLines
 62
1
 10
93617.0
 20
1.0
 30
0.0
 40
1.0
  1
7699-A
  7
LiberationSerif
 11
93617.0
 21
1.0
 31
0.0
  0
LINE
  5
606
  8
MyLines
 10
93814.0
 20
0.0
 30
0.0
 11
93814.0
 21
48.0
 31
0.0
  0
ENDSEC
  0
EOF
