  0
SECTION
  2
HEADER
  9
$ACADVER
  1
AC1009
  9
$DWGCODEPAGE
  3
ANSI_1252
  9
$INSBASE
 10
0.0
 20
0.0
 30
0.0
  9
$EXTMIN
 10
-100
 20
-100
 30
-100
  9
$EXTMAX
 10
100
 20
100
 30
100
  9
$LIMMIN
 10
0.0
 20
0.0
  9
$LIMMAX
 10
420.0
 20
297.0
  9
$ORTHOMODE
 70
0
  9
$REGENMODE
 70
1
  9
$DRAGMODE
 70
2
  9
$FILLMODE
 70
1
  9
$QTEXTMODE
 70
0
  9
$MIRRTEXT
 70
1
  9
$OSMODE
 70
20583
  9
$LTSCALE
 40
1.0
  9
$ATTMODE
 70
1
  9
$TEXTSIZE
 40
2.5
  9
$TRACEWID
 40
1.0
  9
$TEXTSTYLE
  7
OpenSans
  9
$CLAYER
  8
0
  9
$CELTYPE
  6
ByLayer
  9
$CECOLOR
 62
256
  9
$DIMSCALE
 40
1.0
  9
$DIMASZ
 40
0.175
  9
$DIMEXO
 40
0.125
  9
$DIMDLI
 40
3.75
  9
$DIMRND
 40
0.0
  9
$DIMDLE
 40
0.0
  9
$DIMEXE
 40
0.375
  9
$DIMTP
 40
0.0
  9
$DIMTM
 40
0.0
  9
$DIMTXT
 40
0.25
  9
$DIMCEN
 40
2.5
  9
$DIMTSZ
 40
0.0
  9
$DIMTOL
 70
0
  9
$DIMLIM
 70
0
  9
$DIMTIH
 70
0
  9
$DIMTOH
 70
0
  9
$DIMSE1
 70
0
  9
$DIMSE2
 70
0
  9
$DIMTAD
 70
1
  9
$DIMZIN
 70
8
  9
$DIMBLK
  1
ARCHTICK
  9
$DIMASO
 70
1
  9
$DIMSHO
 70
1
  9
$DIMPOST
  1

  9
$DIMAPOST
  1

  9
$DIMALT
 70
0
  9
$DIMALTD
 70
3
  9
$DIMALTF
 40
0.03937007874
  9
$DIMLFAC
 40
100.0
  9
$DIMTOFL
 70
1
  9
$DIMTVP
 40
0.0
  9
$DIMTIX
 70
0
  9
$DIMSOXD
 70
0
  9
$DIMSAH
 70
0
  9
$DIMBLK1
  1

  9
$DIMBLK2
  1

  9
$DIMSTYLE
  2
EZDXF
  9
$DIMCLRD
 70
0
  9
$DIMCLRE
 70
0
  9
$DIMCLRT
 70
0
  9
$DIMTFAC
 40
1.0
  9
$DIMGAP
 40
0.1
  9
$COORDS
 70
1
  9
$ATTDIA
 70
0
  9
$ATTREQ
 70
1
  9
$HANDLING
 70
1
  9
$LUNITS
 70
2
  9
$LUPREC
 70
4
  9
$SKETCHINC
 40
1.0
  9
$FILLETRAD
 40
10.0
  9
$AUNITS
 70
0
  9
$AUPREC
 70
2
  9
$MENU
  1
.
  9
$ELEVATION
 40
0.0
  9
$PELEVATION
 40
0.0
  9
$THICKNESS
 40
0.0
  9
$LIMCHECK
 70
0
  9
$CHAMFERA
 40
0.0
  9
$CHAMFERB
 40
0.0
  9
$SKPOLY
 70
0
  9
$TDCREATE
 40
2458923.661747685
  9
$TDUPDATE
 40
2458923.661747685
  9
$TDINDWG
 40
0.0
  9
$TDUSRTIMER
 40
0.0
  9
$USRTIMER
 70
1
  9
$ANGBASE
 50
0.0
  9
$ANGDIR
 70
0
  9
$PDMODE
 70
0
  9
$PDSIZE
 40
0.0
  9
$PLINEWID
 40
0.0
  9
$SPLFRAME
 70
0
  9
$SPLINETYPE
 70
6
  9
$SPLINESEGS
 70
8
  9
$HANDSEED
  5
608
  9
$SURFTAB1
 70
6
  9
$SURFTAB2
 70
6
  9
$SURFTYPE
 70
6
  9
$SURFU
 70
6
  9
$SURFV
 70
6
  9
$UCSNAME
  2

  9
$UCSORG
 10
0.0
 20
0.0
 30
0.0
  9
$UCSXDIR
 10
1.0
 20
0.0
 30
0.0
  9
$UCSYDIR
 10
0.0
 20
1.0
 30
0.0
  9
$PUCSNAME
  2

  9
$PUCSORG
 10
0.0
 20
0.0
 30
0.0
  9
$PUCSXDIR
 10
1.0
 20
0.0
 30
0.0
  9
$PUCSYDIR
 10
0.0
 20
1.0
 30
0.0
  9
$USERI1
 70
0
  9
$USERI2
 70
0
  9
$USERI3
 70
0
  9
$USERI4
 70
0
  9
$USERI5
 70
0
  9
$USERR1
 40
0.0
  9
$USERR2
 40
0.0
  9
$USERR3
 40
0.0
  9
$USERR4
 40
0.0
  9
$USERR5
 40
0.0
  9
$WORLDVIEW
 70
1
  9
$SHADEDGE
 70
3
  9
$SHADEDIF
 70
70
  9
$TILEMODE
 70
1
  9
$MAXACTVP
 70
64
  9
$PLIMCHECK
 70
0
  9
$PEXTMIN
 10
1e+20
 20
1e+20
 30
1e+20
  9
$PEXTMAX
 10
-1e+20
 20
-1e+20
 30
-1e+20
  9
$PLIMMIN
 10
0.0
 20
0.0
  9
$PLIMMAX
 10
420.0
 20
297.0
  9
$UNITMODE
 70
0
  9
$VISRETAIN
 70
1
  9
$PLINEGEN
 70
0
  9
$PSLTSCALE
 70
1
  0
ENDSEC
  0
SECTION
  2
TABLES
  0
TABLE
  2
VPORT
 70
1
  0
VPORT
  5
23
  2
*Active
 70
0
 10
0.0
 20
0.0
 11
1.0
 21
1.0
 12
70.0
 22
50.0
 13
0.0
 23
0.0
 14
0.5
 24
0.5
 15
0.5
 25
0.5
 16
0.0
 26
0.0
 36
1.0
 17
0.0
 27
0.0
 37
0.0
 40
1.0
 41
1.34
 42
50.0
 43
0.0
 44
0.0
 50
0.0
 51
0.0
 71
0
 72
1000
 73
1
 74
3
 75
0
 76
0
 77
0
 78
0
  0
ENDTAB
  0
TABLE
  2
LTYPE
 70
21
  0
LTYPE
  5
24
  2
ByBlock
 70
0
  3

 72
65
 73
0
 40
0.0
  0
LTYPE
  5
25
  2
ByLayer
 70
0
  3

 72
65
 73
0
 40
0.0
  0
LTYPE
  5
26
  2
Continuous
 70
0
  3

 72
65
 73
0
 40
0.0
  0
LTYPE
  5
2D
  2
CENTER
 70
0
  3
Center ____ _ ____ _ ____ _ ____ _ ____ _ ____
 72
65
 73
4
 40
2.0
 49
1.25
 49
-0.25
 49
0.25
 49
-0.25
  0
LTYPE
  5
2E
  2
CENTERX2
 70
0
  3
Center (2x) ________  __  ________  __  ________
 72
65
 73
4
 40
3.5
 49
2.5
 49
-0.25
 49
0.5
 49
-0.25
  0
LTYPE
  5
2F
  2
CENTER2
 70
0
  3
Center (.5x) ____ _ ____ _ ____ _ ____ _ ____
 72
65
 73
4
 40
1.0
 49
0.625
 49
-0.125
 49
0.125
 49
-0.125
  0
LTYPE
  5
30
  2
DASHED
 70
0
  3
Dashed __ __ __ __ __ __ __ __ __ __ __ __ __ _
 72
65
 73
2
 40
0.6
 49
0.5
 49
-0.1
  0
LTYPE
  5
31
  2
DASHEDX2
 70
0
  3
Dashed (2x) ____  ____  ____  ____  ____  ____
 72
65
 73
2
 40
1.2
 49
1.0
 49
-0.2
  0
LTYPE
  5
32
  2
DASHED2
 70
0
  3
Dashed (.5x) _ _ _ _ _ _ _ _ _ _ _ _ _ _
 72
65
 73
2
 40
0.3
 49
0.25
 49
-0.05
  0
LTYPE
  5
33
  2
PHANTOM
 70
0
  3
Phantom ______  __  __  ______  __  __  ______
 72
65
 73
6
 40
2.5
 49
1.25
 49
-0.25
 49
0.25
 49
-0.25
 49
0.25
 49
-0.25
  0
LTYPE
  5
34
  2
PHANTOMX2
 70
0
  3
Phantom (2x)____________    ____    ____    ____________
 72
65
 73
6
 40
4.25
 49
2.5
 49
-0.25
 49
0.5
 49
-0.25
 49
0.5
 49
-0.25
  0
LTYPE
  5
35
  2
PHANTOM2
 70
0
  3
Phantom (.5x) ___ _ _ ___ _ _ ___ _ _ ___ _ _ ___
 72
65
 73
6
 40
1.25
 49
0.625
 49
-0.125
 49
0.125
 49
-0.125
 49
0.125
 49
-0.125
  0
LTYPE
  5
36
  2
DASHDOT
 70
0
  3
Dash dot __ . __ . __ . __ . __ . __ . __ . __
 72
65
 73
4
 40
1.4
 49
1.0
 49
-0.2
 49
0.0
 49
-0.2
  0
LTYPE
  5
37
  2
DASHDOTX2
 70
0
  3
Dash dot (2x) ____  .  ____  .  ____  .  ____
 72
65
 73
4
 40
2.4
 49
2.0
 49
-0.2
 49
0.0
 49
-0.2
  0
LTYPE
  5
38
  2
DASHDOT2
 70
0
  3
Dash dot (.5x) _ . _ . _ . _ . _ . _ . _ . _
 72
65
 73
4
 40
0.7
 49
0.5
 49
-0.1
 49
0.0
 49
-0.1
  0
LTYPE
  5
39
  2
DOT
 70
0
  3
Dot .  .  .  .  .  .  .  .  .  .  .  .  .  .  .  .
 72
65
 73
2
 40
0.2
 49
0.0
 49
-0.2
  0
LTYPE
  5
3A
  2
DOTX2
 70
0
  3
Dot (2x) .    .    .    .    .    .    .    . 
 72
65
 73
2
 40
0.4
 49
0.0
 49
-0.4
  0
LTYPE
  5
3B
  2
DOT2
 70
0
  3
Dot (.5) . . . . . . . . . . . . . . . . . . . 
 72
65
 73
2
 40
0.1
 49
0.0
 49
-0.1
  0
LTYPE
  5
3C
  2
DIVIDE
 70
0
  3
Divide __ . . __ . . __ . . __ . . __ . . __
 72
65
 73
6
 40
1.6
 49
1.0
 49
-0.2
 49
0.0
 49
-0.2
 49
0.0
 49
-0.2
  0
LTYPE
  5
3D
  2
DIVIDEX2
 70
0
  3
Divide (2x) ____  . .  ____  . .  ____  . .  ____
 72
65
 73
6
 40
2.6
 49
2.0
 49
-0.2
 49
0.0
 49
-0.2
 49
0.0
 49
-0.2
  0
LTYPE
  5
3E
  2
DIVIDE2
 70
0
  3
Divide(.5x) _ . _ . _ . _ . _ . _ . _ . _
 72
65
 73
6
 40
0.8
 49
0.5
 49
-0.1
 49
0.0
 49
-0.1
 49
0.0
 49
-0.1
  0
ENDTAB
  0
TABLE
  2
LAYER
 70
3
  0
LAYER
  5
27
  2
0
 70
0
 62
7
  6
Continuous
  0
LAYER
  5
28
  2
Defpoints
 70
0
 62
7
  6
Continuous
  0
LAYER
  5
8E
  2
MyLines
 70
0
 62
7
  6
Continuous
  0
ENDTAB
  0
TABLE
  2
STYLE
 70
27
  0
STYLE
  5
29
  2
Standard
 70
0
 40
0.0
 41
1.0
 50
0.0
 71
0
 42
2.5
  3
txt
  4

  0
STYLE
  5
3F
  2
OpenSans-Light
 70
0
 40
0.0
 41
1.0
 50
0.0
 71
0
 42
2.5
  3
OpenSans-Light.ttf
  4

  0
STYLE
  5
40
  2
OpenSans-Light-Italic
 70
0
 40
0.0
 41
1.0
 50
0.0
 71
0
 42
2.5
  3
OpenSans-LightItalic.ttf
  4

  0
STYLE
  5
41
  2
OpenSans
 70
0
 40
0.0
 41
1.0
 50
0.0
 71
0
 42
2.5
  3
OpenSans-Regular.ttf
  4

  0
STYLE
  5
42
  2
OpenSans-Italic
 70
0
 40
0.0
 41
1.0
 50
0.0
 71
0
 42
2.5
  3
OpenSans-Italic.ttf
  4

  0
STYLE
  5
43
  2
OpenSans-SemiBold
 70
0
 40
0.0
 41
1.0
 50
0.0
 71
0
 42
2.5
  3
OpenSans-SemiBold.ttf
  4

  0
STYLE
  5
44
  2
OpenSans-SemiBoldItalic
 70
0
 40
0.0
 41
1.0
 50
0.0
 71
0
 42
2.5
  3
OpenSans-SemiBoldItalic.ttf
  4

  0
STYLE
  5
45
  2
OpenSans-Bold
 70
0
 40
0.0
 41
1.0
 50
0.0
 71
0
 42
2.5
  3
OpenSans-Bold.ttf
  4

  0
STYLE
  5
46
  2
OpenSans-BoldItalic
 70
0
 40
0.0
 41
1.0
 50
0.0
 71
0
 42
2.5
  3
OpenSans-BoldItalic.ttf
  4

  0
STYLE
  5
47
  2
OpenSans-ExtraBold
 70
0
 40
0.0
 41
1.0
 50
0.0
 71
0
 42
2.5
  3
OpenSans-ExtraBold.ttf
  4

  0
STYLE
  5
48
  2
OpenSans-ExtraBoldItalic
 70
0
 40
0.0
 41
1.0
 50
0.0
 71
0
 42
2.5
  3
OpenSans-ExtraBoldItalic.ttf
  4

  0
STYLE
  5
49
  2
OpenSansCondensed-Bold
 70
0
 40
0.0
 41
1.0
 50
0.0
 71
0
 42
2.5
  3
OpenSansCondensed-Bold.ttf
  4

  0
STYLE
  5
4A
  2
OpenSansCondensed-Light
 70
0
 40
0.0
 41
1.0
 50
0.0
 71
0
 42
2.5
  3
OpenSansCondensed-Light.ttf
  4

  0
STYLE
  5
4B
  2
OpenSansCondensed-Italic
 70
0
 40
0.0
 41
1.0
 50
0.0
 71
0
 42
2.5
  3
OpenSansCondensed-LightItalic.ttf
  4

  0
STYLE
  5
4C
  2
LiberationSans
 70
0
 40
0.0
 41
1.0
 50
0.0
 71
0
 42
2.5
  3
LiberationSans-Regular.ttf
  4

  0
STYLE
  5
4D
  2
LiberationSans-Bold
 70
0
 40
0.0
 41
1.0
 50
0.0
 71
0
 42
2.5
  3
LiberationSans-Bold.ttf
  4

  0
STYLE
  5
4E
  2
LiberationSans-BoldItalic
 70
0
 40
0.0
 41
1.0
 50
0.0
 71
0
 42
2.5
  3
LiberationSans-BoldItalic.ttf
  4

  0
STYLE
  5
4F
  2
LiberationSans-Italic
 70
0
 40
0.0
 41
1.0
 50
0.0
 71
0
 42
2.5
  3
LiberationSans-Italic.ttf
  4

  0
STYLE
  5
50
  2
LiberationSerif
 70
0
 40
0.0
 41
1.0
 50
0.0
 71
0
 42
2.5
  3
LiberationSerif-Regular.ttf
  4

  0
STYLE
  5
51
  2
LiberationSerif-Bold
 70
0
 40
0.0
 41
1.0
 50
0.0
 71
0
 42
2.5
  3
LiberationSerif-Bold.ttf
  4

  0
STYLE
  5
52
  2
LiberationSerif-BoldItalic
 70
0
 40
0.0
 41
1.0
 50
0.0
 71
0
 42
2.5
  3
LiberationSerif-BoldItalic.ttf
  4

  0
STYLE
  5
53
  2
LiberationSerif-Italic
 70
0
 40
0.0
 41
1.0
 50
0.0
 71
0
 42
2.5
  3
LiberationSerif-Italic.ttf
  4

  0
STYLE
  5
54
  2
LiberationMono
 70
0
 40
0.0
 41
1.0
 50
0.0
 71
0
 42
2.5
  3
LiberationMono-Regular.ttf
  4

  0
STYLE
  5
55
  2
LiberationMono-Bold
 70
0
 40
0.0
 41
1.0
 50
0.0
 71
0
 42
2.5
  3
LiberationMono-Bold.ttf
  4

  0
STYLE
  5
56
  2
LiberationMono-BoldItalic
 70
0
 40
0.0
 41
1.0
 50
0.0
 71
0
 42
2.5
  3
LiberationMono-BoldItalic.ttf
  4

  0
STYLE
  5
57
  2
LiberationMono-Italic
 70
0
 40
0.0
 41
1.0
 50
0.0
 71
0
 42
2.5
  3
LiberationMono-Italic.ttf
  4

  0
STYLE
  5
8F
  2
myStandard2
 70
0
 40
0.0
 41
1.0
 50
0.0
 71
0
 42
2.5
  3
C:\Windows\Fonts\OpenSans-Italic.ttf
  4

  0
ENDTAB
  0
TABLE
  2
VIEW
 70
0
  0
ENDTAB
  0
TABLE
  2
UCS
 70
0
  0
ENDTAB
  0
TABLE
  2
APPID
 70
1
  0
APPID
  5
2A
  2
ACAD
 70
0
  0
ENDTAB
  0
TABLE
  2
DIMSTYLE
 70
11
  0
DIMSTYLE
105
2B
  2
Standard
 70
0
  3

  4

  5

  6

  7

 40
1.0
 41
2.5
 42
0.625
 43
3.75
 44
1.25
 45
0.0
 46
0.0
 47
0.0
 48
0.0
140
2.5
141
2.5
142
0.0
143
0.03937007874
144
1.0
145
0.0
146
1.0
147
0.625
 71
0
 72
0
 73
0
 74
0
 75
0
 76
0
 77
1
 78
8
170
0
171
3
172
1
173
0
174
0
175
0
176
0
177
0
178
0
  0
DIMSTYLE
105
71
  2
EZDXF
 70
0
  3

  4

  5
ARCHTICK
  6

  7

 40
1.0
 41
0.175
 42
0.125
 43
3.75
 44
0.375
 45
0.0
 46
0.0
 47
0.0
 48
0.0
140
0.25
141
2.5
142
0.0
143
0.03937007874
144
100.0
145
0.0
146
1.0
147
0.1
 71
0
 72
0
 73
0
 74
0
 75
0
 76
0
 77
1
 78
8
170
0
171
3
172
1
173
0
174
0
175
0
176
0
177
0
178
0
  0
DIMSTYLE
105
7D
  2
EZ_M_100_H25_CM
 70
0
  3

  4

  5

  6

  7

 40
1.0
 41
0.25
 42
0.125
 43
3.75
 44
0.375
 45
0.0
 46
0.0
 47
0.0
 48
0.0
140
0.25
141
2.5
142
0.125
143
0.03937007874
144
100.0
145
0.0
146
1.0
147
0.1
 71
0
 72
0
 73
0
 74
0
 75
0
 76
0
 77
1
 78
8
170
0
171
3
172
1
173
0
174
0
175
0
176
0
177
0
178
0
  0
DIMSTYLE
105
7E
  2
EZ_M_50_H25_CM
 70
0
  3

  4

  5

  6

  7

 40
1.0
 41
0.125
 42
0.0625
 43
3.75
 44
0.1875
 45
0.0
 46
0.0
 47
0.0
 48
0.0
140
0.125
141
2.5
142
0.0625
143
0.03937007874
144
100.0
145
0.0
146
1.0
147
0.05
 71
0
 72
0
 73
0
 74
0
 75
0
 76
0
 77
1
 78
8
170
0
171
3
172
1
173
0
174
0
175
0
176
0
177
0
178
0
  0
DIMSTYLE
105
7F
  2
EZ_M_25_H25_CM
 70
0
  3

  4

  5

  6

  7

 40
1.0
 41
0.0625
 42
0.03125
 43
3.75
 44
0.09375
 45
0.0
 46
0.0
 47
0.0
 48
0.0
140
0.0625
141
2.5
142
0.03125
143
0.03937007874
144
100.0
145
0.0
146
1.0
147
0.025
 71
0
 72
0
 73
0
 74
0
 75
0
 76
0
 77
1
 78
8
170
0
171
3
172
1
173
0
174
0
175
0
176
0
177
0
178
0
  0
DIMSTYLE
105
80
  2
EZ_M_20_H25_CM
 70
0
  3

  4

  5

  6

  7

 40
1.0
 41
0.05
 42
0.025
 43
3.75
 44
0.07500000000000001
 45
0.0
 46
0.0
 47
0.0
 48
0.0
140
0.05
141
2.5
142
0.025
143
0.03937007874
144
100.0
145
0.0
146
1.0
147
0.020000000000000004
 71
0
 72
0
 73
0
 74
0
 75
0
 76
0
 77
1
 78
8
170
0
171
3
172
1
173
0
174
0
175
0
176
0
177
0
178
0
  0
DIMSTYLE
105
81
  2
EZ_M_10_H25_CM
 70
0
  3

  4

  5

  6

  7

 40
1.0
 41
0.025
 42
0.0125
 43
3.75
 44
0.037500000000000006
 45
0.0
 46
0.0
 47
0.0
 48
0.0
140
0.025
141
2.5
142
0.0125
143
0.03937007874
144
100.0
145
0.0
146
1.0
147
0.010000000000000002
 71
0
 72
0
 73
0
 74
0
 75
0
 76
0
 77
1
 78
8
170
0
171
3
172
1
173
0
174
0
175
0
176
0
177
0
178
0
  0
DIMSTYLE
105
82
  2
EZ_M_5_H25_CM
 70
0
  3

  4

  5

  6

  7

 40
1.0
 41
0.0125
 42
0.00625
 43
3.75
 44
0.018750000000000003
 45
0.0
 46
0.0
 47
0.0
 48
0.0
140
0.0125
141
2.5
142
0.00625
143
0.03937007874
144
100.0
145
0.0
146
1.0
147
0.005000000000000001
 71
0
 72
0
 73
0
 74
0
 75
0
 76
0
 77
1
 78
8
170
0
171
3
172
1
173
0
174
0
175
0
176
0
177
0
178
0
  0
DIMSTYLE
105
83
  2
EZ_M_1_H25_CM
 70
0
  3

  4

  5

  6

  7

 40
1.0
 41
0.0025
 42
0.00125
 43
3.75
 44
0.00375
 45
0.0
 46
0.0
 47
0.0
 48
0.0
140
0.0025
141
2.5
142
0.00125
143
0.03937007874
144
100.0
145
0.0
146
1.0
147
0.001
 71
0
 72
0
 73
0
 74
0
 75
0
 76
0
 77
1
 78
8
170
0
171
3
172
1
173
0
174
0
175
0
176
0
177
0
178
0
  0
DIMSTYLE
105
84
  2
EZ_RADIUS
 70
0
  3

  4

  5
CLOSEDBLANK
  6

  7

 40
1.0
 41
0.25
 42
0.125
 43
3.75
 44
0.375
 45
0.0
 46
0.0
 47
0.0
 48
0.0
140
0.25
141
0.0
142
0.0
143
0.03937007874
144
100.0
145
0.0
146
1.0
147
0.1
 71
0
 72
0
 73
0
 74
0
 75
0
 76
0
 77
1
 78
8
170
0
171
3
172
0
173
0
174
0
175
0
176
0
177
0
178
0
  0
DIMSTYLE
105
8D
  2
EZ_RADIUS_INSIDE
 70
0
  3

  4

  5
CLOSEDBLANK
  6

  7

 40
1.0
 41
0.25
 42
0.125
 43
3.75
 44
0.375
 45
0.0
 46
0.0
 47
0.0
 48
0.0
140
0.25
141
0.0
142
0.0
143
0.03937007874
144
100.0
145
0.0
146
1.0
147
0.1
 71
0
 72
0
 73
0
 74
0
 75
0
 76
0
 77
0
 78
8
170
0
171
3
172
0
173
0
174
1
175
0
176
0
177
0
178
0
  0
ENDTAB
  0
ENDSEC
  0
SECTION
  2
BLOCKS
  0
BLOCK
  5
18
  8
0
  2
$Model_Space
 70
0
 10
0.0
 20
0.0
 30
0.0
  3
$Model_Space
  1

  0
ENDBLK
  5
19
  8
0
  0
BLOCK
  5
1C
  8
0
  2
$Paper_Space
 70
0
 10
0.0
 20
0.0
 30
0.0
  3
$Paper_Space
  1

  0
ENDBLK
  5
1D
  8
0
  0
BLOCK
  5
73
  8
0
  2
_ARCHTICK
 70
0
 10
0.0
 20
0.0
 30
0.0
  3
_ARCHTICK
  1

  0
POLYLINE
  5
75
  8
0
  6
BYBLOCK
 62
0
 66
1
 70
0
 40
0.15
 41
0.15
  0
VERTEX
  5
77
  8
0
  6
BYBLOCK
 10
-0.5
 20
-0.5000000000000001
 30
0.0
 70
0
  0
VERTEX
  5
78
  8
0
  6
BYBLOCK
 10
0.5000000000000001
 20
0.5000000000000001
 30
0.0
 70
0
  0
SEQEND
  5
76
  8
0
  0
ENDBLK
  5
74
  8
0
  0
BLOCK
  5
7A
  8
0
  2
_CLOSEDFILLED
 70
0
 10
0.0
 20
0.0
 30
0.0
  3
_CLOSEDFILLED
  1

  0
SOLID
  5
7C
  8
0
  6
BYBLOCK
 62
0
 10
-1.0
 20
0.1643989837240255
 30
0.0
 11
0.0
 21
0.0
 31
0.0
 12
-1.0
 22
-0.1643989837240255
 32
0.0
 13
-1.0
 23
-0.1643989837240255
 33
0.0
  0
ENDBLK
  5
7B
  8
0
  0
BLOCK
  5
86
  8
0
  2
_CLOSEDBLANK
 70
0
 10
0.0
 20
0.0
 30
0.0
  3
_CLOSEDBLANK
  1

  0
POLYLINE
  5
88
  8
0
  6
BYBLOCK
 62
0
 66
1
 70
1
  0
VERTEX
  5
8A
  8
0
  6
BYBLOCK
 10
-1.0
 20
0.1643989837240255
 30
0.0
 70
0
  0
VERTEX
  5
8B
  8
0
  6
BYBLOCK
 10
0.0
 20
0.0
 30
0.0
 70
0
  0
VERTEX
  5
8C
  8
0
  6
BYBLOCK
 10
-1.0
 20
-0.1643989837240255
 30
0.0
 70
0
  0
SEQEND
  5
89
  8
0
  0
ENDBLK
  5
87
  8
0
  0
ENDSEC
  0
SECTION
  2
ENTITIES
  0
LINE
  5
90
  8
MyLines
 10
0.0
 20
46.5
 30
0.0
 11
406.0
 21
46.5
 31
0.0
  0
LINE
  5
91
  8
MyLines
 10
0.0
 20
0.0
 30
0.0
 11
406.0
 21
0.0
 31
0.0
  0
LINE
  5
92
  8
MyLines
 10
0.0
 20
0.0
 30
0.0
 11
0.0
 21
46.5
 31
0.0
  0
LINE
  5
93
  8
MyLines
 10
406.0
 20
0.0
 30
0.0
 11
406.0
 21
46.5
 31
0.0
  0
TEXT
  5
94
  8
MyLines
 62
1
 10
204.0
 20
1.0
 30
0.0
 40
1.0
  1
7500-B
 11
204.0
 21
1.0
 31
0.0
  0
TEXT
  5
95
  8
MyLines
 62
1
 10
1.0
 20
1.0
 30
0.0
 40
1.0
  1
7500-A
 11
1.0
 21
1.0
 31
0.0
  0
LINE
  5
96
  8
MyLines
 10
203.0
 20
0.0
 30
0.0
 11
203.0
 21
46.5
 31
0.0
  0
LINE
  5
97
  8
MyLines
 10
408.0
 20
83.0
 30
0.0
 11
810.0
 21
83.0
 31
0.0
  0
LINE
  5
98
  8
MyLines
 10
408.0
 20
0.0
 30
0.0
 11
810.0
 21
0.0
 31
0.0
  0
LINE
  5
99
  8
MyLines
 10
408.0
 20
0.0
 30
0.0
 11
408.0
 21
83.0
 31
0.0
  0
LINE
  5
9A
  8
MyLines
 10
810.0
 20
0.0
 30
0.0
 11
810.0
 21
83.0
 31
0.0
  0
TEXT
  5
9B
  8
MyLines
 62
1
 10
610.0
 20
1.0
 30
0.0
 40
1.0
  1
7501-B
 11
610.0
 21
1.0
 31
0.0
  0
TEXT
  5
9C
  8
MyLines
 62
1
 10
409.0
 20
1.0
 30
0.0
 40
1.0
  1
7501-A
 11
409.0
 21
1.0
 31
0.0
  0
LINE
  5
9D
  8
MyLines
 10
609.0
 20
0.0
 30
0.0
 11
609.0
 21
83.0
 31
0.0
  0
LINE
  5
9E
  8
MyLines
 10
812.0
 20
38.5
 30
0.0
 11
1274.0
 21
38.5
 31
0.0
  0
LINE
  5
9F
  8
MyLines
 10
812.0
 20
0.0
 30
0.0
 11
1274.0
 21
0.0
 31
0.0
  0
LINE
  5
A0
  8
MyLines
 10
812.0
 20
0.0
 30
0.0
 11
812.0
 21
38.5
 31
0.0
  0
LINE
  5
A1
  8
MyLines
 10
1274.0
 20
0.0
 30
0.0
 11
1274.0
 21
38.5
 31
0.0
  0
TEXT
  5
A2
  8
MyLines
 62
1
 10
1044.0
 20
1.0
 30
0.0
 40
1.0
  1
7502-B
 11
1044.0
 21
1.0
 31
0.0
  0
TEXT
  5
A3
  8
MyLines
 62
1
 10
813.0
 20
1.0
 30
0.0
 40
1.0
  1
7502-A
 11
813.0
 21
1.0
 31
0.0
  0
LINE
  5
A4
  8
MyLines
 10
1043.0
 20
0.0
 30
0.0
 11
1043.0
 21
38.5
 31
0.0
  0
LINE
  5
A5
  8
MyLines
 10
1276.0
 20
39.5
 30
0.0
 11
1634.0
 21
39.5
 31
0.0
  0
LINE
  5
A6
  8
MyLines
 10
1276.0
 20
0.0
 30
0.0
 11
1634.0
 21
0.0
 31
0.0
  0
LINE
  5
A7
  8
MyLines
 10
1276.0
 20
0.0
 30
0.0
 11
1276.0
 21
39.5
 31
0.0
  0
LINE
  5
A8
  8
MyLines
 10
1634.0
 20
0.0
 30
0.0
 11
1634.0
 21
39.5
 31
0.0
  0
TEXT
  5
A9
  8
MyLines
 62
1
 10
1456.0
 20
1.0
 30
0.0
 40
1.0
  1
7503-B
 11
1456.0
 21
1.0
 31
0.0
  0
TEXT
  5
AA
  8
MyLines
 62
1
 10
1277.0
 20
1.0
 30
0.0
 40
1.0
  1
7503-A
 11
1277.0
 21
1.0
 31
0.0
  0
LINE
  5
AB
  8
MyLines
 10
1455.0
 20
0.0
 30
0.0
 11
1455.0
 21
39.5
 31
0.0
  0
LINE
  5
AC
  8
MyLines
 10
1636.0
 20
37.5
 30
0.0
 11
2016.0
 21
37.5
 31
0.0
  0
LINE
  5
AD
  8
MyLines
 10
1636.0
 20
0.0
 30
0.0
 11
2016.0
 21
0.0
 31
0.0
  0
LINE
  5
AE
  8
MyLines
 10
1636.0
 20
0.0
 30
0.0
 11
1636.0
 21
37.5
 31
0.0
  0
LINE
  5
AF
  8
MyLines
 10
2016.0
 20
0.0
 30
0.0
 11
2016.0
 21
37.5
 31
0.0
  0
TEXT
  5
B0
  8
MyLines
 62
1
 10
1827.0
 20
1.0
 30
0.0
 40
1.0
  1
7504-B
 11
1827.0
 21
1.0
 31
0.0
  0
TEXT
  5
B1
  8
MyLines
 62
1
 10
1637.0
 20
1.0
 30
0.0
 40
1.0
  1
7504-A
 11
1637.0
 21
1.0
 31
0.0
  0
LINE
  5
B2
  8
MyLines
 10
1826.0
 20
0.0
 30
0.0
 11
1826.0
 21
37.5
 31
0.0
  0
LINE
  5
B3
  8
MyLines
 10
2018.0
 20
51.5
 30
0.0
 11
2476.0
 21
51.5
 31
0.0
  0
LINE
  5
B4
  8
MyLines
 10
2018.0
 20
0.0
 30
0.0
 11
2476.0
 21
0.0
 31
0.0
  0
LINE
  5
B5
  8
MyLines
 10
2018.0
 20
0.0
 30
0.0
 11
2018.0
 21
51.5
 31
0.0
  0
LINE
  5
B6
  8
MyLines
 10
2476.0
 20
0.0
 30
0.0
 11
2476.0
 21
51.5
 31
0.0
  0
TEXT
  5
B7
  8
MyLines
 62
1
 10
2248.0
 20
1.0
 30
0.0
 40
1.0
  1
7505-B
 11
2248.0
 21
1.0
 31
0.0
  0
TEXT
  5
B8
  8
MyLines
 62
1
 10
2019.0
 20
1.0
 30
0.0
 40
1.0
  1
7505-A
 11
2019.0
 21
1.0
 31
0.0
  0
LINE
  5
B9
  8
MyLines
 10
2247.0
 20
0.0
 30
0.0
 11
2247.0
 21
51.5
 31
0.0
  0
LINE
  5
BA
  8
MyLines
 10
2478.0
 20
76.0
 30
0.0
 11
3016.0
 21
76.0
 31
0.0
  0
LINE
  5
BB
  8
MyLines
 10
2478.0
 20
0.0
 30
0.0
 11
3016.0
 21
0.0
 31
0.0
  0
LINE
  5
BC
  8
MyLines
 10
2478.0
 20
0.0
 30
0.0
 11
2478.0
 21
76.0
 31
0.0
  0
LINE
  5
BD
  8
MyLines
 10
3016.0
 20
0.0
 30
0.0
 11
3016.0
 21
76.0
 31
0.0
  0
TEXT
  5
BE
  8
MyLines
 62
1
 10
2748.0
 20
1.0
 30
0.0
 40
1.0
  1
7506-B
 11
2748.0
 21
1.0
 31
0.0
  0
TEXT
  5
BF
  8
MyLines
 62
1
 10
2479.0
 20
1.0
 30
0.0
 40
1.0
  1
7506-A
 11
2479.0
 21
1.0
 31
0.0
  0
LINE
  5
C0
  8
MyLines
 10
2747.0
 20
0.0
 30
0.0
 11
2747.0
 21
76.0
 31
0.0
  0
LINE
  5
C1
  8
MyLines
 10
3018.0
 20
83.0
 30
0.0
 11
3450.0
 21
83.0
 31
0.0
  0
LINE
  5
C2
  8
MyLines
 10
3018.0
 20
0.0
 30
0.0
 11
3450.0
 21
0.0
 31
0.0
  0
LINE
  5
C3
  8
MyLines
 10
3018.0
 20
0.0
 30
0.0
 11
3018.0
 21
83.0
 31
0.0
  0
LINE
  5
C4
  8
MyLines
 10
3450.0
 20
0.0
 30
0.0
 11
3450.0
 21
83.0
 31
0.0
  0
TEXT
  5
C5
  8
MyLines
 62
1
 10
3235.0
 20
1.0
 30
0.0
 40
1.0
  1
7507-B
 11
3235.0
 21
1.0
 31
0.0
  0
TEXT
  5
C6
  8
MyLines
 62
1
 10
3019.0
 20
1.0
 30
0.0
 40
1.0
  1
7507-A
 11
3019.0
 21
1.0
 31
0.0
  0
LINE
  5
C7
  8
MyLines
 10
3234.0
 20
0.0
 30
0.0
 11
3234.0
 21
83.0
 31
0.0
  0
LINE
  5
C8
  8
MyLines
 10
3452.0
 20
67.5
 30
0.0
 11
4050.0
 21
67.5
 31
0.0
  0
LINE
  5
C9
  8
MyLines
 10
3452.0
 20
0.0
 30
0.0
 11
4050.0
 21
0.0
 31
0.0
  0
LINE
  5
CA
  8
MyLines
 10
3452.0
 20
0.0
 30
0.0
 11
3452.0
 21
67.5
 31
0.0
  0
LINE
  5
CB
  8
MyLines
 10
4050.0
 20
0.0
 30
0.0
 11
4050.0
 21
67.5
 31
0.0
  0
TEXT
  5
CC
  8
MyLines
 62
1
 10
3752.0
 20
1.0
 30
0.0
 40
1.0
  1
7508-B
 11
3752.0
 21
1.0
 31
0.0
  0
TEXT
  5
CD
  8
MyLines
 62
1
 10
3453.0
 20
1.0
 30
0.0
 40
1.0
  1
7508-A
 11
3453.0
 21
1.0
 31
0.0
  0
LINE
  5
CE
  8
MyLines
 10
3751.0
 20
0.0
 30
0.0
 11
3751.0
 21
67.5
 31
0.0
  0
LINE
  5
CF
  8
MyLines
 10
4052.0
 20
79.5
 30
0.0
 11
4630.0
 21
79.5
 31
0.0
  0
LINE
  5
D0
  8
MyLines
 10
4052.0
 20
0.0
 30
0.0
 11
4630.0
 21
0.0
 31
0.0
  0
LINE
  5
D1
  8
MyLines
 10
4052.0
 20
0.0
 30
0.0
 11
4052.0
 21
79.5
 31
0.0
  0
LINE
  5
D2
  8
MyLines
 10
4630.0
 20
0.0
 30
0.0
 11
4630.0
 21
79.5
 31
0.0
  0
TEXT
  5
D3
  8
MyLines
 62
1
 10
4342.0
 20
1.0
 30
0.0
 40
1.0
  1
7509-B
 11
4342.0
 21
1.0
 31
0.0
  0
TEXT
  5
D4
  8
MyLines
 62
1
 10
4053.0
 20
1.0
 30
0.0
 40
1.0
  1
7509-A
 11
4053.0
 21
1.0
 31
0.0
  0
LINE
  5
D5
  8
MyLines
 10
4341.0
 20
0.0
 30
0.0
 11
4341.0
 21
79.5
 31
0.0
  0
LINE
  5
D6
  8
MyLines
 10
4632.0
 20
67.5
 30
0.0
 11
5208.0
 21
67.5
 31
0.0
  0
LINE
  5
D7
  8
MyLines
 10
4632.0
 20
0.0
 30
0.0
 11
5208.0
 21
0.0
 31
0.0
  0
LINE
  5
D8
  8
MyLines
 10
4632.0
 20
0.0
 30
0.0
 11
4632.0
 21
67.5
 31
0.0
  0
LINE
  5
D9
  8
MyLines
 10
5208.0
 20
0.0
 30
0.0
 11
5208.0
 21
67.5
 31
0.0
  0
TEXT
  5
DA
  8
MyLines
 62
1
 10
4921.0
 20
1.0
 30
0.0
 40
1.0
  1
7510-B
 11
4921.0
 21
1.0
 31
0.0
  0
TEXT
  5
DB
  8
MyLines
 62
1
 10
4633.0
 20
1.0
 30
0.0
 40
1.0
  1
7510-A
 11
4633.0
 21
1.0
 31
0.0
  0
LINE
  5
DC
  8
MyLines
 10
4920.0
 20
0.0
 30
0.0
 11
4920.0
 21
67.5
 31
0.0
  0
LINE
  5
DD
  8
MyLines
 10
5210.0
 20
78.0
 30
0.0
 11
5594.0
 21
78.0
 31
0.0
  0
LINE
  5
DE
  8
MyLines
 10
5210.0
 20
0.0
 30
0.0
 11
5594.0
 21
0.0
 31
0.0
  0
LINE
  5
DF
  8
MyLines
 10
5210.0
 20
0.0
 30
0.0
 11
5210.0
 21
78.0
 31
0.0
  0
LINE
  5
E0
  8
MyLines
 10
5594.0
 20
0.0
 30
0.0
 11
5594.0
 21
78.0
 31
0.0
  0
TEXT
  5
E1
  8
MyLines
 62
1
 10
5403.0
 20
1.0
 30
0.0
 40
1.0
  1
7511-B
 11
5403.0
 21
1.0
 31
0.0
  0
TEXT
  5
E2
  8
MyLines
 62
1
 10
5211.0
 20
1.0
 30
0.0
 40
1.0
  1
7511-A
 11
5211.0
 21
1.0
 31
0.0
  0
LINE
  5
E3
  8
MyLines
 10
5402.0
 20
0.0
 30
0.0
 11
5402.0
 21
78.0
 31
0.0
  0
LINE
  5
E4
  8
MyLines
 10
5596.0
 20
62.5
 30
0.0
 11
5974.0
 21
62.5
 31
0.0
  0
LINE
  5
E5
  8
MyLines
 10
5596.0
 20
0.0
 30
0.0
 11
5974.0
 21
0.0
 31
0.0
  0
LINE
  5
E6
  8
MyLines
 10
5596.0
 20
0.0
 30
0.0
 11
5596.0
 21
62.5
 31
0.0
  0
LINE
  5
E7
  8
MyLines
 10
5974.0
 20
0.0
 30
0.0
 11
5974.0
 21
62.5
 31
0.0
  0
TEXT
  5
E8
  8
MyLines
 62
1
 10
5786.0
 20
1.0
 30
0.0
 40
1.0
  1
7512-B
 11
5786.0
 21
1.0
 31
0.0
  0
TEXT
  5
E9
  8
MyLines
 62
1
 10
5597.0
 20
1.0
 30
0.0
 40
1.0
  1
7512-A
 11
5597.0
 21
1.0
 31
0.0
  0
LINE
  5
EA
  8
MyLines
 10
5785.0
 20
0.0
 30
0.0
 11
5785.0
 21
62.5
 31
0.0
  0
LINE
  5
EB
  8
MyLines
 10
5976.0
 20
48.0
 30
0.0
 11
6438.0
 21
48.0
 31
0.0
  0
LINE
  5
EC
  8
MyLines
 10
5976.0
 20
0.0
 30
0.0
 11
6438.0
 21
0.0
 31
0.0
  0
LINE
  5
ED
  8
MyLines
 10
5976.0
 20
0.0
 30
0.0
 11
5976.0
 21
48.0
 31
0.0
  0
LINE
  5
EE
  8
MyLines
 10
6438.0
 20
0.0
 30
0.0
 11
6438.0
 21
48.0
 31
0.0
  0
TEXT
  5
EF
  8
MyLines
 62
1
 10
6208.0
 20
1.0
 30
0.0
 40
1.0
  1
7513-B
 11
6208.0
 21
1.0
 31
0.0
  0
TEXT
  5
F0
  8
MyLines
 62
1
 10
5977.0
 20
1.0
 30
0.0
 40
1.0
  1
7513-A
 11
5977.0
 21
1.0
 31
0.0
  0
LINE
  5
F1
  8
MyLines
 10
6207.0
 20
0.0
 30
0.0
 11
6207.0
 21
48.0
 31
0.0
  0
LINE
  5
F2
  8
MyLines
 10
6440.0
 20
90.0
 30
0.0
 11
6916.0
 21
90.0
 31
0.0
  0
LINE
  5
F3
  8
MyLines
 10
6440.0
 20
0.0
 30
0.0
 11
6916.0
 21
0.0
 31
0.0
  0
LINE
  5
F4
  8
MyLines
 10
6440.0
 20
0.0
 30
0.0
 11
6440.0
 21
90.0
 31
0.0
  0
LINE
  5
F5
  8
MyLines
 10
6916.0
 20
0.0
 30
0.0
 11
6916.0
 21
90.0
 31
0.0
  0
TEXT
  5
F6
  8
MyLines
 62
1
 10
6679.0
 20
1.0
 30
0.0
 40
1.0
  1
7514-B
 11
6679.0
 21
1.0
 31
0.0
  0
TEXT
  5
F7
  8
MyLines
 62
1
 10
6441.0
 20
1.0
 30
0.0
 40
1.0
  1
7514-A
 11
6441.0
 21
1.0
 31
0.0
  0
LINE
  5
F8
  8
MyLines
 10
6678.0
 20
0.0
 30
0.0
 11
6678.0
 21
90.0
 31
0.0
  0
LINE
  5
F9
  8
MyLines
 10
6918.0
 20
87.5
 30
0.0
 11
7480.0
 21
87.5
 31
0.0
  0
LINE
  5
FA
  8
MyLines
 10
6918.0
 20
0.0
 30
0.0
 11
7480.0
 21
0.0
 31
0.0
  0
LINE
  5
FB
  8
MyLines
 10
6918.0
 20
0.0
 30
0.0
 11
6918.0
 21
87.5
 31
0.0
  0
LINE
  5
FC
  8
MyLines
 10
7480.0
 20
0.0
 30
0.0
 11
7480.0
 21
87.5
 31
0.0
  0
TEXT
  5
FD
  8
MyLines
 62
1
 10
7200.0
 20
1.0
 30
0.0
 40
1.0
  1
7515-B
 11
7200.0
 21
1.0
 31
0.0
  0
TEXT
  5
FE
  8
MyLines
 62
1
 10
6919.0
 20
1.0
 30
0.0
 40
1.0
  1
7515-A
 11
6919.0
 21
1.0
 31
0.0
  0
LINE
  5
FF
  8
MyLines
 10
7199.0
 20
0.0
 30
0.0
 11
7199.0
 21
87.5
 31
0.0
  0
LINE
  5
100
  8
MyLines
 10
7482.0
 20
72.5
 30
0.0
 11
7900.0
 21
72.5
 31
0.0
  0
LINE
  5
101
  8
MyLines
 10
7482.0
 20
0.0
 30
0.0
 11
7900.0
 21
0.0
 31
0.0
  0
LINE
  5
102
  8
MyLines
 10
7482.0
 20
0.0
 30
0.0
 11
7482.0
 21
72.5
 31
0.0
  0
LINE
  5
103
  8
MyLines
 10
7900.0
 20
0.0
 30
0.0
 11
7900.0
 21
72.5
 31
0.0
  0
TEXT
  5
104
  8
MyLines
 62
1
 10
7692.0
 20
1.0
 30
0.0
 40
1.0
  1
7516-B
 11
7692.0
 21
1.0
 31
0.0
  0
TEXT
  5
105
  8
MyLines
 62
1
 10
7483.0
 20
1.0
 30
0.0
 40
1.0
  1
7516-A
 11
7483.0
 21
1.0
 31
0.0
  0
LINE
  5
106
  8
MyLines
 10
7691.0
 20
0.0
 30
0.0
 11
7691.0
 21
72.5
 31
0.0
  0
LINE
  5
107
  8
MyLines
 10
7902.0
 20
59.5
 30
0.0
 11
8466.0
 21
59.5
 31
0.0
  0
LINE
  5
108
  8
MyLines
 10
7902.0
 20
0.0
 30
0.0
 11
8466.0
 21
0.0
 31
0.0
  0
LINE
  5
109
  8
MyLines
 10
7902.0
 20
0.0
 30
0.0
 11
7902.0
 21
59.5
 31
0.0
  0
LINE
  5
10A
  8
MyLines
 10
8466.0
 20
0.0
 30
0.0
 11
8466.0
 21
59.5
 31
0.0
  0
TEXT
  5
10B
  8
MyLines
 62
1
 10
8185.0
 20
1.0
 30
0.0
 40
1.0
  1
7517-B
 11
8185.0
 21
1.0
 31
0.0
  0
TEXT
  5
10C
  8
MyLines
 62
1
 10
7903.0
 20
1.0
 30
0.0
 40
1.0
  1
7517-A
 11
7903.0
 21
1.0
 31
0.0
  0
LINE
  5
10D
  8
MyLines
 10
8184.0
 20
0.0
 30
0.0
 11
8184.0
 21
59.5
 31
0.0
  0
LINE
  5
10E
  8
MyLines
 10
8468.0
 20
39.5
 30
0.0
 11
8888.0
 21
39.5
 31
0.0
  0
LINE
  5
10F
  8
MyLines
 10
8468.0
 20
0.0
 30
0.0
 11
8888.0
 21
0.0
 31
0.0
  0
LINE
  5
110
  8
MyLines
 10
8468.0
 20
0.0
 30
0.0
 11
8468.0
 21
39.5
 31
0.0
  0
LINE
  5
111
  8
MyLines
 10
8888.0
 20
0.0
 30
0.0
 11
8888.0
 21
39.5
 31
0.0
  0
TEXT
  5
112
  8
MyLines
 62
1
 10
8679.0
 20
1.0
 30
0.0
 40
1.0
  1
7518-B
 11
8679.0
 21
1.0
 31
0.0
  0
TEXT
  5
113
  8
MyLines
 62
1
 10
8469.0
 20
1.0
 30
0.0
 40
1.0
  1
7518-A
 11
8469.0
 21
1.0
 31
0.0
  0
LINE
  5
114
  8
MyLines
 10
8678.0
 20
0.0
 30
0.0
 11
8678.0
 21
39.5
 31
0.0
  0
LINE
  5
115
  8
MyLines
 10
8890.0
 20
44.5
 30
0.0
 11
9306.0
 21
44.5
 31
0.0
  0
LINE
  5
116
  8
MyLines
 10
8890.0
 20
0.0
 30
0.0
 11
9306.0
 21
0.0
 31
0.0
  0
LINE
  5
117
  8
MyLines
 10
8890.0
 20
0.0
 30
0.0
 11
8890.0
 21
44.5
 31
0.0
  0
LINE
  5
118
  8
MyLines
 10
9306.0
 20
0.0
 30
0.0
 11
9306.0
 21
44.5
 31
0.0
  0
TEXT
  5
119
  8
MyLines
 62
1
 10
9099.0
 20
1.0
 30
0.0
 40
1.0
  1
7519-B
 11
9099.0
 21
1.0
 31
0.0
  0
TEXT
  5
11A
  8
MyLines
 62
1
 10
8891.0
 20
1.0
 30
0.0
 40
1.0
  1
7519-A
 11
8891.0
 21
1.0
 31
0.0
  0
LINE
  5
11B
  8
MyLines
 10
9098.0
 20
0.0
 30
0.0
 11
9098.0
 21
44.5
 31
0.0
  0
LINE
  5
11C
  8
MyLines
 10
9308.0
 20
71.5
 30
0.0
 11
9886.0
 21
71.5
 31
0.0
  0
LINE
  5
11D
  8
MyLines
 10
9308.0
 20
0.0
 30
0.0
 11
9886.0
 21
0.0
 31
0.0
  0
LINE
  5
11E
  8
MyLines
 10
9308.0
 20
0.0
 30
0.0
 11
9308.0
 21
71.5
 31
0.0
  0
LINE
  5
11F
  8
MyLines
 10
9886.0
 20
0.0
 30
0.0
 11
9886.0
 21
71.5
 31
0.0
  0
TEXT
  5
120
  8
MyLines
 62
1
 10
9598.0
 20
1.0
 30
0.0
 40
1.0
  1
7520-B
 11
9598.0
 21
1.0
 31
0.0
  0
TEXT
  5
121
  8
MyLines
 62
1
 10
9309.0
 20
1.0
 30
0.0
 40
1.0
  1
7520-A
 11
9309.0
 21
1.0
 31
0.0
  0
LINE
  5
122
  8
MyLines
 10
9597.0
 20
0.0
 30
0.0
 11
9597.0
 21
71.5
 31
0.0
  0
LINE
  5
123
  8
MyLines
 10
9888.0
 20
62.0
 30
0.0
 11
10244.0
 21
62.0
 31
0.0
  0
LINE
  5
124
  8
MyLines
 10
9888.0
 20
0.0
 30
0.0
 11
10244.0
 21
0.0
 31
0.0
  0
LINE
  5
125
  8
MyLines
 10
9888.0
 20
0.0
 30
0.0
 11
9888.0
 21
62.0
 31
0.0
  0
LINE
  5
126
  8
MyLines
 10
10244.0
 20
0.0
 30
0.0
 11
10244.0
 21
62.0
 31
0.0
  0
TEXT
  5
127
  8
MyLines
 62
1
 10
10067.0
 20
1.0
 30
0.0
 40
1.0
  1
7521-B
 11
10067.0
 21
1.0
 31
0.0
  0
TEXT
  5
128
  8
MyLines
 62
1
 10
9889.0
 20
1.0
 30
0.0
 40
1.0
  1
7521-A
 11
9889.0
 21
1.0
 31
0.0
  0
LINE
  5
129
  8
MyLines
 10
10066.0
 20
0.0
 30
0.0
 11
10066.0
 21
62.0
 31
0.0
  0
LINE
  5
12A
  8
MyLines
 10
10246.0
 20
75.0
 30
0.0
 11
10814.0
 21
75.0
 31
0.0
  0
LINE
  5
12B
  8
MyLines
 10
10246.0
 20
0.0
 30
0.0
 11
10814.0
 21
0.0
 31
0.0
  0
LINE
  5
12C
  8
MyLines
 10
10246.0
 20
0.0
 30
0.0
 11
10246.0
 21
75.0
 31
0.0
  0
LINE
  5
12D
  8
MyLines
 10
10814.0
 20
0.0
 30
0.0
 11
10814.0
 21
75.0
 31
0.0
  0
TEXT
  5
12E
  8
MyLines
 62
1
 10
10531.0
 20
1.0
 30
0.0
 40
1.0
  1
7522-B
 11
10531.0
 21
1.0
 31
0.0
  0
TEXT
  5
12F
  8
MyLines
 62
1
 10
10247.0
 20
1.0
 30
0.0
 40
1.0
  1
7522-A
 11
10247.0
 21
1.0
 31
0.0
  0
LINE
  5
130
  8
MyLines
 10
10530.0
 20
0.0
 30
0.0
 11
10530.0
 21
75.0
 31
0.0
  0
LINE
  5
131
  8
MyLines
 10
10816.0
 20
68.0
 30
0.0
 11
11350.0
 21
68.0
 31
0.0
  0
LINE
  5
132
  8
MyLines
 10
10816.0
 20
0.0
 30
0.0
 11
11350.0
 21
0.0
 31
0.0
  0
LINE
  5
133
  8
MyLines
 10
10816.0
 20
0.0
 30
0.0
 11
10816.0
 21
68.0
 31
0.0
  0
LINE
  5
134
  8
MyLines
 10
11350.0
 20
0.0
 30
0.0
 11
11350.0
 21
68.0
 31
0.0
  0
TEXT
  5
135
  8
MyLines
 62
1
 10
11084.0
 20
1.0
 30
0.0
 40
1.0
  1
7523-B
 11
11084.0
 21
1.0
 31
0.0
  0
TEXT
  5
136
  8
MyLines
 62
1
 10
10817.0
 20
1.0
 30
0.0
 40
1.0
  1
7523-A
 11
10817.0
 21
1.0
 31
0.0
  0
LINE
  5
137
  8
MyLines
 10
11083.0
 20
0.0
 30
0.0
 11
11083.0
 21
68.0
 31
0.0
  0
LINE
  5
138
  8
MyLines
 10
11352.0
 20
53.5
 30
0.0
 11
11916.0
 21
53.5
 31
0.0
  0
LINE
  5
139
  8
MyLines
 10
11352.0
 20
0.0
 30
0.0
 11
11916.0
 21
0.0
 31
0.0
  0
LINE
  5
13A
  8
MyLines
 10
11352.0
 20
0.0
 30
0.0
 11
11352.0
 21
53.5
 31
0.0
  0
LINE
  5
13B
  8
MyLines
 10
11916.0
 20
0.0
 30
0.0
 11
11916.0
 21
53.5
 31
0.0
  0
TEXT
  5
13C
  8
MyLines
 62
1
 10
11635.0
 20
1.0
 30
0.0
 40
1.0
  1
7524-B
 11
11635.0
 21
1.0
 31
0.0
  0
TEXT
  5
13D
  8
MyLines
 62
1
 10
11353.0
 20
1.0
 30
0.0
 40
1.0
  1
7524-A
 11
11353.0
 21
1.0
 31
0.0
  0
LINE
  5
13E
  8
MyLines
 10
11634.0
 20
0.0
 30
0.0
 11
11634.0
 21
53.5
 31
0.0
  0
LINE
  5
13F
  8
MyLines
 10
11918.0
 20
35.0
 30
0.0
 11
12396.0
 21
35.0
 31
0.0
  0
LINE
  5
140
  8
MyLines
 10
11918.0
 20
0.0
 30
0.0
 11
12396.0
 21
0.0
 31
0.0
  0
LINE
  5
141
  8
MyLines
 10
11918.0
 20
0.0
 30
0.0
 11
11918.0
 21
35.0
 31
0.0
  0
LINE
  5
142
  8
MyLines
 10
12396.0
 20
0.0
 30
0.0
 11
12396.0
 21
35.0
 31
0.0
  0
TEXT
  5
143
  8
MyLines
 62
1
 10
12158.0
 20
1.0
 30
0.0
 40
1.0
  1
7525-B
 11
12158.0
 21
1.0
 31
0.0
  0
TEXT
  5
144
  8
MyLines
 62
1
 10
11919.0
 20
1.0
 30
0.0
 40
1.0
  1
7525-A
 11
11919.0
 21
1.0
 31
0.0
  0
LINE
  5
145
  8
MyLines
 10
12157.0
 20
0.0
 30
0.0
 11
12157.0
 21
35.0
 31
0.0
  0
LINE
  5
146
  8
MyLines
 10
12398.0
 20
78.0
 30
0.0
 11
12984.0
 21
78.0
 31
0.0
  0
LINE
  5
147
  8
MyLines
 10
12398.0
 20
0.0
 30
0.0
 11
12984.0
 21
0.0
 31
0.0
  0
LINE
  5
148
  8
MyLines
 10
12398.0
 20
0.0
 30
0.0
 11
12398.0
 21
78.0
 31
0.0
  0
LINE
  5
149
  8
MyLines
 10
12984.0
 20
0.0
 30
0.0
 11
12984.0
 21
78.0
 31
0.0
  0
TEXT
  5
14A
  8
MyLines
 62
1
 10
12692.0
 20
1.0
 30
0.0
 40
1.0
  1
7526-B
 11
12692.0
 21
1.0
 31
0.0
  0
TEXT
  5
14B
  8
MyLines
 62
1
 10
12399.0
 20
1.0
 30
0.0
 40
1.0
  1
7526-A
 11
12399.0
 21
1.0
 31
0.0
  0
LINE
  5
14C
  8
MyLines
 10
12691.0
 20
0.0
 30
0.0
 11
12691.0
 21
78.0
 31
0.0
  0
LINE
  5
14D
  8
MyLines
 10
12986.0
 20
69.5
 30
0.0
 11
13356.0
 21
69.5
 31
0.0
  0
LINE
  5
14E
  8
MyLines
 10
12986.0
 20
0.0
 30
0.0
 11
13356.0
 21
0.0
 31
0.0
  0
LINE
  5
14F
  8
MyLines
 10
12986.0
 20
0.0
 30
0.0
 11
12986.0
 21
69.5
 31
0.0
  0
LINE
  5
150
  8
MyLines
 10
13356.0
 20
0.0
 30
0.0
 11
13356.0
 21
69.5
 31
0.0
  0
TEXT
  5
151
  8
MyLines
 62
1
 10
13172.0
 20
1.0
 30
0.0
 40
1.0
  1
7527-B
 11
13172.0
 21
1.0
 31
0.0
  0
TEXT
  5
152
  8
MyLines
 62
1
 10
12987.0
 20
1.0
 30
0.0
 40
1.0
  1
7527-A
 11
12987.0
 21
1.0
 31
0.0
  0
LINE
  5
153
  8
MyLines
 10
13171.0
 20
0.0
 30
0.0
 11
13171.0
 21
69.5
 31
0.0
  0
LINE
  5
154
  8
MyLines
 10
13358.0
 20
71.5
 30
0.0
 11
13830.0
 21
71.5
 31
0.0
  0
LINE
  5
155
  8
MyLines
 10
13358.0
 20
0.0
 30
0.0
 11
13830.0
 21
0.0
 31
0.0
  0
LINE
  5
156
  8
MyLines
 10
13358.0
 20
0.0
 30
0.0
 11
13358.0
 21
71.5
 31
0.0
  0
LINE
  5
157
  8
MyLines
 10
13830.0
 20
0.0
 30
0.0
 11
13830.0
 21
71.5
 31
0.0
  0
TEXT
  5
158
  8
MyLines
 62
1
 10
13595.0
 20
1.0
 30
0.0
 40
1.0
  1
7528-B
 11
13595.0
 21
1.0
 31
0.0
  0
TEXT
  5
159
  8
MyLines
 62
1
 10
13359.0
 20
1.0
 30
0.0
 40
1.0
  1
7528-A
 11
13359.0
 21
1.0
 31
0.0
  0
LINE
  5
15A
  8
MyLines
 10
13594.0
 20
0.0
 30
0.0
 11
13594.0
 21
71.5
 31
0.0
  0
LINE
  5
15B
  8
MyLines
 10
13832.0
 20
35.0
 30
0.0
 11
14200.0
 21
35.0
 31
0.0
  0
LINE
  5
15C
  8
MyLines
 10
13832.0
 20
0.0
 30
0.0
 11
14200.0
 21
0.0
 31
0.0
  0
LINE
  5
15D
  8
MyLines
 10
13832.0
 20
0.0
 30
0.0
 11
13832.0
 21
35.0
 31
0.0
  0
LINE
  5
15E
  8
MyLines
 10
14200.0
 20
0.0
 30
0.0
 11
14200.0
 21
35.0
 31
0.0
  0
TEXT
  5
15F
  8
MyLines
 62
1
 10
14017.0
 20
1.0
 30
0.0
 40
1.0
  1
7529-B
 11
14017.0
 21
1.0
 31
0.0
  0
TEXT
  5
160
  8
MyLines
 62
1
 10
13833.0
 20
1.0
 30
0.0
 40
1.0
  1
7529-A
 11
13833.0
 21
1.0
 31
0.0
  0
LINE
  5
161
  8
MyLines
 10
14016.0
 20
0.0
 30
0.0
 11
14016.0
 21
35.0
 31
0.0
  0
LINE
  5
162
  8
MyLines
 10
14202.0
 20
89.0
 30
0.0
 11
14754.0
 21
89.0
 31
0.0
  0
LINE
  5
163
  8
MyLines
 10
14202.0
 20
0.0
 30
0.0
 11
14754.0
 21
0.0
 31
0.0
  0
LINE
  5
164
  8
MyLines
 10
14202.0
 20
0.0
 30
0.0
 11
14202.0
 21
89.0
 31
0.0
  0
LINE
  5
165
  8
MyLines
 10
14754.0
 20
0.0
 30
0.0
 11
14754.0
 21
89.0
 31
0.0
  0
TEXT
  5
166
  8
MyLines
 62
1
 10
14479.0
 20
1.0
 30
0.0
 40
1.0
  1
7530-B
 11
14479.0
 21
1.0
 31
0.0
  0
TEXT
  5
167
  8
MyLines
 62
1
 10
14203.0
 20
1.0
 30
0.0
 40
1.0
  1
7530-A
 11
14203.0
 21
1.0
 31
0.0
  0
LINE
  5
168
  8
MyLines
 10
14478.0
 20
0.0
 30
0.0
 11
14478.0
 21
89.0
 31
0.0
  0
LINE
  5
169
  8
MyLines
 10
14756.0
 20
59.5
 30
0.0
 11
15336.0
 21
59.5
 31
0.0
  0
LINE
  5
16A
  8
MyLines
 10
14756.0
 20
0.0
 30
0.0
 11
15336.0
 21
0.0
 31
0.0
  0
LINE
  5
16B
  8
MyLines
 10
14756.0
 20
0.0
 30
0.0
 11
14756.0
 21
59.5
 31
0.0
  0
LINE
  5
16C
  8
MyLines
 10
15336.0
 20
0.0
 30
0.0
 11
15336.0
 21
59.5
 31
0.0
  0
TEXT
  5
16D
  8
MyLines
 62
1
 10
15047.0
 20
1.0
 30
0.0
 40
1.0
  1
7531-B
 11
15047.0
 21
1.0
 31
0.0
  0
TEXT
  5
16E
  8
MyLines
 62
1
 10
14757.0
 20
1.0
 30
0.0
 40
1.0
  1
7531-A
 11
14757.0
 21
1.0
 31
0.0
  0
LINE
  5
16F
  8
MyLines
 10
15046.0
 20
0.0
 30
0.0
 11
15046.0
 21
59.5
 31
0.0
  0
LINE
  5
170
  8
MyLines
 10
15338.0
 20
35.0
 30
0.0
 11
15926.0
 21
35.0
 31
0.0
  0
LINE
  5
171
  8
MyLines
 10
15338.0
 20
0.0
 30
0.0
 11
15926.0
 21
0.0
 31
0.0
  0
LINE
  5
172
  8
MyLines
 10
15338.0
 20
0.0
 30
0.0
 11
15338.0
 21
35.0
 31
0.0
  0
LINE
  5
173
  8
MyLines
 10
15926.0
 20
0.0
 30
0.0
 11
15926.0
 21
35.0
 31
0.0
  0
TEXT
  5
174
  8
MyLines
 62
1
 10
15633.0
 20
1.0
 30
0.0
 40
1.0
  1
7532-B
 11
15633.0
 21
1.0
 31
0.0
  0
TEXT
  5
175
  8
MyLines
 62
1
 10
15339.0
 20
1.0
 30
0.0
 40
1.0
  1
7532-A
 11
15339.0
 21
1.0
 31
0.0
  0
LINE
  5
176
  8
MyLines
 10
15632.0
 20
0.0
 30
0.0
 11
15632.0
 21
35.0
 31
0.0
  0
LINE
  5
177
  8
MyLines
 10
15928.0
 20
83.0
 30
0.0
 11
16346.0
 21
83.0
 31
0.0
  0
LINE
  5
178
  8
MyLines
 10
15928.0
 20
0.0
 30
0.0
 11
16346.0
 21
0.0
 31
0.0
  0
LINE
  5
179
  8
MyLines
 10
15928.0
 20
0.0
 30
0.0
 11
15928.0
 21
83.0
 31
0.0
  0
LINE
  5
17A
  8
MyLines
 10
16346.0
 20
0.0
 30
0.0
 11
16346.0
 21
83.0
 31
0.0
  0
TEXT
  5
17B
  8
MyLines
 62
1
 10
16138.0
 20
1.0
 30
0.0
 40
1.0
  1
7533-B
 11
16138.0
 21
1.0
 31
0.0
  0
TEXT
  5
17C
  8
MyLines
 62
1
 10
15929.0
 20
1.0
 30
0.0
 40
1.0
  1
7533-A
 11
15929.0
 21
1.0
 31
0.0
  0
LINE
  5
17D
  8
MyLines
 10
16137.0
 20
0.0
 30
0.0
 11
16137.0
 21
83.0
 31
0.0
  0
LINE
  5
17E
  8
MyLines
 10
16348.0
 20
51.0
 30
0.0
 11
16880.0
 21
51.0
 31
0.0
  0
LINE
  5
17F
  8
MyLines
 10
16348.0
 20
0.0
 30
0.0
 11
16880.0
 21
0.0
 31
0.0
  0
LINE
  5
180
  8
MyLines
 10
16348.0
 20
0.0
 30
0.0
 11
16348.0
 21
51.0
 31
0.0
  0
LINE
  5
181
  8
MyLines
 10
16880.0
 20
0.0
 30
0.0
 11
16880.0
 21
51.0
 31
0.0
  0
TEXT
  5
182
  8
MyLines
 62
1
 10
16615.0
 20
1.0
 30
0.0
 40
1.0
  1
7534-B
 11
16615.0
 21
1.0
 31
0.0
  0
TEXT
  5
183
  8
MyLines
 62
1
 10
16349.0
 20
1.0
 30
0.0
 40
1.0
  1
7534-A
 11
16349.0
 21
1.0
 31
0.0
  0
LINE
  5
184
  8
MyLines
 10
16614.0
 20
0.0
 30
0.0
 11
16614.0
 21
51.0
 31
0.0
  0
LINE
  5
185
  8
MyLines
 10
16882.0
 20
36.5
 30
0.0
 11
17250.0
 21
36.5
 31
0.0
  0
LINE
  5
186
  8
MyLines
 10
16882.0
 20
0.0
 30
0.0
 11
17250.0
 21
0.0
 31
0.0
  0
LINE
  5
187
  8
MyLines
 10
16882.0
 20
0.0
 30
0.0
 11
16882.0
 21
36.5
 31
0.0
  0
LINE
  5
188
  8
MyLines
 10
17250.0
 20
0.0
 30
0.0
 11
17250.0
 21
36.5
 31
0.0
  0
TEXT
  5
189
  8
MyLines
 62
1
 10
17067.0
 20
1.0
 30
0.0
 40
1.0
  1
7535-B
 11
17067.0
 21
1.0
 31
0.0
  0
TEXT
  5
18A
  8
MyLines
 62
1
 10
16883.0
 20
1.0
 30
0.0
 40
1.0
  1
7535-A
 11
16883.0
 21
1.0
 31
0.0
  0
LINE
  5
18B
  8
MyLines
 10
17066.0
 20
0.0
 30
0.0
 11
17066.0
 21
36.5
 31
0.0
  0
LINE
  5
18C
  8
MyLines
 10
17252.0
 20
49.5
 30
0.0
 11
17688.0
 21
49.5
 31
0.0
  0
LINE
  5
18D
  8
MyLines
 10
17252.0
 20
0.0
 30
0.0
 11
17688.0
 21
0.0
 31
0.0
  0
LINE
  5
18E
  8
MyLines
 10
17252.0
 20
0.0
 30
0.0
 11
17252.0
 21
49.5
 31
0.0
  0
LINE
  5
18F
  8
MyLines
 10
17688.0
 20
0.0
 30
0.0
 11
17688.0
 21
49.5
 31
0.0
  0
TEXT
  5
190
  8
MyLines
 62
1
 10
17471.0
 20
1.0
 30
0.0
 40
1.0
  1
7536-B
 11
17471.0
 21
1.0
 31
0.0
  0
TEXT
  5
191
  8
MyLines
 62
1
 10
17253.0
 20
1.0
 30
0.0
 40
1.0
  1
7536-A
 11
17253.0
 21
1.0
 31
0.0
  0
LINE
  5
192
  8
MyLines
 10
17470.0
 20
0.0
 30
0.0
 11
17470.0
 21
49.5
 31
0.0
  0
LINE
  5
193
  8
MyLines
 10
17690.0
 20
42.5
 30
0.0
 11
18142.0
 21
42.5
 31
0.0
  0
LINE
  5
194
  8
MyLines
 10
17690.0
 20
0.0
 30
0.0
 11
18142.0
 21
0.0
 31
0.0
  0
LINE
  5
195
  8
MyLines
 10
17690.0
 20
0.0
 30
0.0
 11
17690.0
 21
42.5
 31
0.0
  0
LINE
  5
196
  8
MyLines
 10
18142.0
 20
0.0
 30
0.0
 11
18142.0
 21
42.5
 31
0.0
  0
TEXT
  5
197
  8
MyLines
 62
1
 10
17917.0
 20
1.0
 30
0.0
 40
1.0
  1
7537-B
 11
17917.0
 21
1.0
 31
0.0
  0
TEXT
  5
198
  8
MyLines
 62
1
 10
17691.0
 20
1.0
 30
0.0
 40
1.0
  1
7537-A
 11
17691.0
 21
1.0
 31
0.0
  0
LINE
  5
199
  8
MyLines
 10
17916.0
 20
0.0
 30
0.0
 11
17916.0
 21
42.5
 31
0.0
  0
LINE
  5
19A
  8
MyLines
 10
18144.0
 20
44.0
 30
0.0
 11
18546.0
 21
44.0
 31
0.0
  0
LINE
  5
19B
  8
MyLines
 10
18144.0
 20
0.0
 30
0.0
 11
18546.0
 21
0.0
 31
0.0
  0
LINE
  5
19C
  8
MyLines
 10
18144.0
 20
0.0
 30
0.0
 11
18144.0
 21
44.0
 31
0.0
  0
LINE
  5
19D
  8
MyLines
 10
18546.0
 20
0.0
 30
0.0
 11
18546.0
 21
44.0
 31
0.0
  0
TEXT
  5
19E
  8
MyLines
 62
1
 10
18346.0
 20
1.0
 30
0.0
 40
1.0
  1
7538-B
 11
18346.0
 21
1.0
 31
0.0
  0
TEXT
  5
19F
  8
MyLines
 62
1
 10
18145.0
 20
1.0
 30
0.0
 40
1.0
  1
7538-A
 11
18145.0
 21
1.0
 31
0.0
  0
LINE
  5
1A0
  8
MyLines
 10
18345.0
 20
0.0
 30
0.0
 11
18345.0
 21
44.0
 31
0.0
  0
LINE
  5
1A1
  8
MyLines
 10
18548.0
 20
43.5
 30
0.0
 11
19002.0
 21
43.5
 31
0.0
  0
LINE
  5
1A2
  8
MyLines
 10
18548.0
 20
0.0
 30
0.0
 11
19002.0
 21
0.0
 31
0.0
  0
LINE
  5
1A3
  8
MyLines
 10
18548.0
 20
0.0
 30
0.0
 11
18548.0
 21
43.5
 31
0.0
  0
LINE
  5
1A4
  8
MyLines
 10
19002.0
 20
0.0
 30
0.0
 11
19002.0
 21
43.5
 31
0.0
  0
TEXT
  5
1A5
  8
MyLines
 62
1
 10
18776.0
 20
1.0
 30
0.0
 40
1.0
  1
7539-B
 11
18776.0
 21
1.0
 31
0.0
  0
TEXT
  5
1A6
  8
MyLines
 62
1
 10
18549.0
 20
1.0
 30
0.0
 40
1.0
  1
7539-A
 11
18549.0
 21
1.0
 31
0.0
  0
LINE
  5
1A7
  8
MyLines
 10
18775.0
 20
0.0
 30
0.0
 11
18775.0
 21
43.5
 31
0.0
  0
LINE
  5
1A8
  8
MyLines
 10
19004.0
 20
49.0
 30
0.0
 11
19368.0
 21
49.0
 31
0.0
  0
LINE
  5
1A9
  8
MyLines
 10
19004.0
 20
0.0
 30
0.0
 11
19368.0
 21
0.0
 31
0.0
  0
LINE
  5
1AA
  8
MyLines
 10
19004.0
 20
0.0
 30
0.0
 11
19004.0
 21
49.0
 31
0.0
  0
LINE
  5
1AB
  8
MyLines
 10
19368.0
 20
0.0
 30
0.0
 11
19368.0
 21
49.0
 31
0.0
  0
TEXT
  5
1AC
  8
MyLines
 62
1
 10
19187.0
 20
1.0
 30
0.0
 40
1.0
  1
7540-B
 11
19187.0
 21
1.0
 31
0.0
  0
TEXT
  5
1AD
  8
MyLines
 62
1
 10
19005.0
 20
1.0
 30
0.0
 40
1.0
  1
7540-A
 11
19005.0
 21
1.0
 31
0.0
  0
LINE
  5
1AE
  8
MyLines
 10
19186.0
 20
0.0
 30
0.0
 11
19186.0
 21
49.0
 31
0.0
  0
LINE
  5
1AF
  8
MyLines
 10
19370.0
 20
79.0
 30
0.0
 11
19842.0
 21
79.0
 31
0.0
  0
LINE
  5
1B0
  8
MyLines
 10
19370.0
 20
0.0
 30
0.0
 11
19842.0
 21
0.0
 31
0.0
  0
LINE
  5
1B1
  8
MyLines
 10
19370.0
 20
0.0
 30
0.0
 11
19370.0
 21
79.0
 31
0.0
  0
LINE
  5
1B2
  8
MyLines
 10
19842.0
 20
0.0
 30
0.0
 11
19842.0
 21
79.0
 31
0.0
  0
TEXT
  5
1B3
  8
MyLines
 62
1
 10
19607.0
 20
1.0
 30
0.0
 40
1.0
  1
7541-B
 11
19607.0
 21
1.0
 31
0.0
  0
TEXT
  5
1B4
  8
MyLines
 62
1
 10
19371.0
 20
1.0
 30
0.0
 40
1.0
  1
7541-A
 11
19371.0
 21
1.0
 31
0.0
  0
LINE
  5
1B5
  8
MyLines
 10
19606.0
 20
0.0
 30
0.0
 11
19606.0
 21
79.0
 31
0.0
  0
LINE
  5
1B6
  8
MyLines
 10
19844.0
 20
84.0
 30
0.0
 11
20280.0
 21
84.0
 31
0.0
  0
LINE
  5
1B7
  8
MyLines
 10
19844.0
 20
0.0
 30
0.0
 11
20280.0
 21
0.0
 31
0.0
  0
LINE
  5
1B8
  8
MyLines
 10
19844.0
 20
0.0
 30
0.0
 11
19844.0
 21
84.0
 31
0.0
  0
LINE
  5
1B9
  8
MyLines
 10
20280.0
 20
0.0
 30
0.0
 11
20280.0
 21
84.0
 31
0.0
  0
TEXT
  5
1BA
  8
MyLines
 62
1
 10
20063.0
 20
1.0
 30
0.0
 40
1.0
  1
7542-B
 11
20063.0
 21
1.0
 31
0.0
  0
TEXT
  5
1BB
  8
MyLines
 62
1
 10
19845.0
 20
1.0
 30
0.0
 40
1.0
  1
7542-A
 11
19845.0
 21
1.0
 31
0.0
  0
LINE
  5
1BC
  8
MyLines
 10
20062.0
 20
0.0
 30
0.0
 11
20062.0
 21
84.0
 31
0.0
  0
LINE
  5
1BD
  8
MyLines
 10
20282.0
 20
60.0
 30
0.0
 11
20748.0
 21
60.0
 31
0.0
  0
LINE
  5
1BE
  8
MyLines
 10
20282.0
 20
0.0
 30
0.0
 11
20748.0
 21
0.0
 31
0.0
  0
LINE
  5
1BF
  8
MyLines
 10
20282.0
 20
0.0
 30
0.0
 11
20282.0
 21
60.0
 31
0.0
  0
LINE
  5
1C0
  8
MyLines
 10
20748.0
 20
0.0
 30
0.0
 11
20748.0
 21
60.0
 31
0.0
  0
TEXT
  5
1C1
  8
MyLines
 62
1
 10
20516.0
 20
1.0
 30
0.0
 40
1.0
  1
7543-B
 11
20516.0
 21
1.0
 31
0.0
  0
TEXT
  5
1C2
  8
MyLines
 62
1
 10
20283.0
 20
1.0
 30
0.0
 40
1.0
  1
7543-A
 11
20283.0
 21
1.0
 31
0.0
  0
LINE
  5
1C3
  8
MyLines
 10
20515.0
 20
0.0
 30
0.0
 11
20515.0
 21
60.0
 31
0.0
  0
LINE
  5
1C4
  8
MyLines
 10
20750.0
 20
89.0
 30
0.0
 11
21326.0
 21
89.0
 31
0.0
  0
LINE
  5
1C5
  8
MyLines
 10
20750.0
 20
0.0
 30
0.0
 11
21326.0
 21
0.0
 31
0.0
  0
LINE
  5
1C6
  8
MyLines
 10
20750.0
 20
0.0
 30
0.0
 11
20750.0
 21
89.0
 31
0.0
  0
LINE
  5
1C7
  8
MyLines
 10
21326.0
 20
0.0
 30
0.0
 11
21326.0
 21
89.0
 31
0.0
  0
TEXT
  5
1C8
  8
MyLines
 62
1
 10
21039.0
 20
1.0
 30
0.0
 40
1.0
  1
7544-B
 11
21039.0
 21
1.0
 31
0.0
  0
TEXT
  5
1C9
  8
MyLines
 62
1
 10
20751.0
 20
1.0
 30
0.0
 40
1.0
  1
7544-A
 11
20751.0
 21
1.0
 31
0.0
  0
LINE
  5
1CA
  8
MyLines
 10
21038.0
 20
0.0
 30
0.0
 11
21038.0
 21
89.0
 31
0.0
  0
LINE
  5
1CB
  8
MyLines
 10
21328.0
 20
82.5
 30
0.0
 11
21686.0
 21
82.5
 31
0.0
  0
LINE
  5
1CC
  8
MyLines
 10
21328.0
 20
0.0
 30
0.0
 11
21686.0
 21
0.0
 31
0.0
  0
LINE
  5
1CD
  8
MyLines
 10
21328.0
 20
0.0
 30
0.0
 11
21328.0
 21
82.5
 31
0.0
  0
LINE
  5
1CE
  8
MyLines
 10
21686.0
 20
0.0
 30
0.0
 11
21686.0
 21
82.5
 31
0.0
  0
TEXT
  5
1CF
  8
MyLines
 62
1
 10
21508.0
 20
1.0
 30
0.0
 40
1.0
  1
7545-B
 11
21508.0
 21
1.0
 31
0.0
  0
TEXT
  5
1D0
  8
MyLines
 62
1
 10
21329.0
 20
1.0
 30
0.0
 40
1.0
  1
7545-A
 11
21329.0
 21
1.0
 31
0.0
  0
LINE
  5
1D1
  8
MyLines
 10
21507.0
 20
0.0
 30
0.0
 11
21507.0
 21
82.5
 31
0.0
  0
LINE
  5
1D2
  8
MyLines
 10
21688.0
 20
36.5
 30
0.0
 11
22236.0
 21
36.5
 31
0.0
  0
LINE
  5
1D3
  8
MyLines
 10
21688.0
 20
0.0
 30
0.0
 11
22236.0
 21
0.0
 31
0.0
  0
LINE
  5
1D4
  8
MyLines
 10
21688.0
 20
0.0
 30
0.0
 11
21688.0
 21
36.5
 31
0.0
  0
LINE
  5
1D5
  8
MyLines
 10
22236.0
 20
0.0
 30
0.0
 11
22236.0
 21
36.5
 31
0.0
  0
TEXT
  5
1D6
  8
MyLines
 62
1
 10
21963.0
 20
1.0
 30
0.0
 40
1.0
  1
7546-B
 11
21963.0
 21
1.0
 31
0.0
  0
TEXT
  5
1D7
  8
MyLines
 62
1
 10
21689.0
 20
1.0
 30
0.0
 40
1.0
  1
7546-A
 11
21689.0
 21
1.0
 31
0.0
  0
LINE
  5
1D8
  8
MyLines
 10
21962.0
 20
0.0
 30
0.0
 11
21962.0
 21
36.5
 31
0.0
  0
LINE
  5
1D9
  8
MyLines
 10
22238.0
 20
69.0
 30
0.0
 11
22594.0
 21
69.0
 31
0.0
  0
LINE
  5
1DA
  8
MyLines
 10
22238.0
 20
0.0
 30
0.0
 11
22594.0
 21
0.0
 31
0.0
  0
LINE
  5
1DB
  8
MyLines
 10
22238.0
 20
0.0
 30
0.0
 11
22238.0
 21
69.0
 31
0.0
  0
LINE
  5
1DC
  8
MyLines
 10
22594.0
 20
0.0
 30
0.0
 11
22594.0
 21
69.0
 31
0.0
  0
TEXT
  5
1DD
  8
MyLines
 62
1
 10
22417.0
 20
1.0
 30
0.0
 40
1.0
  1
7547-B
 11
22417.0
 21
1.0
 31
0.0
  0
TEXT
  5
1DE
  8
MyLines
 62
1
 10
22239.0
 20
1.0
 30
0.0
 40
1.0
  1
7547-A
 11
22239.0
 21
1.0
 31
0.0
  0
LINE
  5
1DF
  8
MyLines
 10
22416.0
 20
0.0
 30
0.0
 11
22416.0
 21
69.0
 31
0.0
  0
LINE
  5
1E0
  8
MyLines
 10
22596.0
 20
63.0
 30
0.0
 11
23002.0
 21
63.0
 31
0.0
  0
LINE
  5
1E1
  8
MyLines
 10
22596.0
 20
0.0
 30
0.0
 11
23002.0
 21
0.0
 31
0.0
  0
LINE
  5
1E2
  8
MyLines
 10
22596.0
 20
0.0
 30
0.0
 11
22596.0
 21
63.0
 31
0.0
  0
LINE
  5
1E3
  8
MyLines
 10
23002.0
 20
0.0
 30
0.0
 11
23002.0
 21
63.0
 31
0.0
  0
TEXT
  5
1E4
  8
MyLines
 62
1
 10
22800.0
 20
1.0
 30
0.0
 40
1.0
  1
7548-B
 11
22800.0
 21
1.0
 31
0.0
  0
TEXT
  5
1E5
  8
MyLines
 62
1
 10
22597.0
 20
1.0
 30
0.0
 40
1.0
  1
7548-A
 11
22597.0
 21
1.0
 31
0.0
  0
LINE
  5
1E6
  8
MyLines
 10
22799.0
 20
0.0
 30
0.0
 11
22799.0
 21
63.0
 31
0.0
  0
LINE
  5
1E7
  8
MyLines
 10
23004.0
 20
37.0
 30
0.0
 11
23588.0
 21
37.0
 31
0.0
  0
LINE
  5
1E8
  8
MyLines
 10
23004.0
 20
0.0
 30
0.0
 11
23588.0
 21
0.0
 31
0.0
  0
LINE
  5
1E9
  8
MyLines
 10
23004.0
 20
0.0
 30
0.0
 11
23004.0
 21
37.0
 31
0.0
  0
LINE
  5
1EA
  8
MyLines
 10
23588.0
 20
0.0
 30
0.0
 11
23588.0
 21
37.0
 31
0.0
  0
TEXT
  5
1EB
  8
MyLines
 62
1
 10
23297.0
 20
1.0
 30
0.0
 40
1.0
  1
7549-B
 11
23297.0
 21
1.0
 31
0.0
  0
TEXT
  5
1EC
  8
MyLines
 62
1
 10
23005.0
 20
1.0
 30
0.0
 40
1.0
  1
7549-A
 11
23005.0
 21
1.0
 31
0.0
  0
LINE
  5
1ED
  8
MyLines
 10
23296.0
 20
0.0
 30
0.0
 11
23296.0
 21
37.0
 31
0.0
  0
LINE
  5
1EE
  8
MyLines
 10
23590.0
 20
67.0
 30
0.0
 11
24036.0
 21
67.0
 31
0.0
  0
LINE
  5
1EF
  8
MyLines
 10
23590.0
 20
0.0
 30
0.0
 11
24036.0
 21
0.0
 31
0.0
  0
LINE
  5
1F0
  8
MyLines
 10
23590.0
 20
0.0
 30
0.0
 11
23590.0
 21
67.0
 31
0.0
  0
LINE
  5
1F1
  8
MyLines
 10
24036.0
 20
0.0
 30
0.0
 11
24036.0
 21
67.0
 31
0.0
  0
TEXT
  5
1F2
  8
MyLines
 62
1
 10
23814.0
 20
1.0
 30
0.0
 40
1.0
  1
7550-B
 11
23814.0
 21
1.0
 31
0.0
  0
TEXT
  5
1F3
  8
MyLines
 62
1
 10
23591.0
 20
1.0
 30
0.0
 40
1.0
  1
7550-A
 11
23591.0
 21
1.0
 31
0.0
  0
LINE
  5
1F4
  8
MyLines
 10
23813.0
 20
0.0
 30
0.0
 11
23813.0
 21
67.0
 31
0.0
  0
LINE
  5
1F5
  8
MyLines
 10
24038.0
 20
81.5
 30
0.0
 11
24508.0
 21
81.5
 31
0.0
  0
LINE
  5
1F6
  8
MyLines
 10
24038.0
 20
0.0
 30
0.0
 11
24508.0
 21
0.0
 31
0.0
  0
LINE
  5
1F7
  8
MyLines
 10
24038.0
 20
0.0
 30
0.0
 11
24038.0
 21
81.5
 31
0.0
  0
LINE
  5
1F8
  8
MyLines
 10
24508.0
 20
0.0
 30
0.0
 11
24508.0
 21
81.5
 31
0.0
  0
TEXT
  5
1F9
  8
MyLines
 62
1
 10
24274.0
 20
1.0
 30
0.0
 40
1.0
  1
7551-B
 11
24274.0
 21
1.0
 31
0.0
  0
TEXT
  5
1FA
  8
MyLines
 62
1
 10
24039.0
 20
1.0
 30
0.0
 40
1.0
  1
7551-A
 11
24039.0
 21
1.0
 31
0.0
  0
LINE
  5
1FB
  8
MyLines
 10
24273.0
 20
0.0
 30
0.0
 11
24273.0
 21
81.5
 31
0.0
  0
LINE
  5
1FC
  8
MyLines
 10
24510.0
 20
52.5
 30
0.0
 11
24958.0
 21
52.5
 31
0.0
  0
LINE
  5
1FD
  8
MyLines
 10
24510.0
 20
0.0
 30
0.0
 11
24958.0
 21
0.0
 31
0.0
  0
LINE
  5
1FE
  8
MyLines
 10
24510.0
 20
0.0
 30
0.0
 11
24510.0
 21
52.5
 31
0.0
  0
LINE
  5
1FF
  8
MyLines
 10
24958.0
 20
0.0
 30
0.0
 11
24958.0
 21
52.5
 31
0.0
  0
TEXT
  5
200
  8
MyLines
 62
1
 10
24735.0
 20
1.0
 30
0.0
 40
1.0
  1
7552-B
 11
24735.0
 21
1.0
 31
0.0
  0
TEXT
  5
201
  8
MyLines
 62
1
 10
24511.0
 20
1.0
 30
0.0
 40
1.0
  1
7552-A
 11
24511.0
 21
1.0
 31
0.0
  0
LINE
  5
202
  8
MyLines
 10
24734.0
 20
0.0
 30
0.0
 11
24734.0
 21
52.5
 31
0.0
  0
LINE
  5
203
  8
MyLines
 10
24960.0
 20
85.5
 30
0.0
 11
25310.0
 21
85.5
 31
0.0
  0
LINE
  5
204
  8
MyLines
 10
24960.0
 20
0.0
 30
0.0
 11
25310.0
 21
0.0
 31
0.0
  0
LINE
  5
205
  8
MyLines
 10
24960.0
 20
0.0
 30
0.0
 11
24960.0
 21
85.5
 31
0.0
  0
LINE
  5
206
  8
MyLines
 10
25310.0
 20
0.0
 30
0.0
 11
25310.0
 21
85.5
 31
0.0
  0
TEXT
  5
207
  8
MyLines
 62
1
 10
25136.0
 20
1.0
 30
0.0
 40
1.0
  1
7553-B
 11
25136.0
 21
1.0
 31
0.0
  0
TEXT
  5
208
  8
MyLines
 62
1
 10
24961.0
 20
1.0
 30
0.0
 40
1.0
  1
7553-A
 11
24961.0
 21
1.0
 31
0.0
  0
LINE
  5
209
  8
MyLines
 10
25135.0
 20
0.0
 30
0.0
 11
25135.0
 21
85.5
 31
0.0
  0
LINE
  5
20A
  8
MyLines
 10
25312.0
 20
80.5
 30
0.0
 11
25788.0
 21
80.5
 31
0.0
  0
LINE
  5
20B
  8
MyLines
 10
25312.0
 20
0.0
 30
0.0
 11
25788.0
 21
0.0
 31
0.0
  0
LINE
  5
20C
  8
MyLines
 10
25312.0
 20
0.0
 30
0.0
 11
25312.0
 21
80.5
 31
0.0
  0
LINE
  5
20D
  8
MyLines
 10
25788.0
 20
0.0
 30
0.0
 11
25788.0
 21
80.5
 31
0.0
  0
TEXT
  5
20E
  8
MyLines
 62
1
 10
25551.0
 20
1.0
 30
0.0
 40
1.0
  1
7554-B
 11
25551.0
 21
1.0
 31
0.0
  0
TEXT
  5
20F
  8
MyLines
 62
1
 10
25313.0
 20
1.0
 30
0.0
 40
1.0
  1
7554-A
 11
25313.0
 21
1.0
 31
0.0
  0
LINE
  5
210
  8
MyLines
 10
25550.0
 20
0.0
 30
0.0
 11
25550.0
 21
80.5
 31
0.0
  0
LINE
  5
211
  8
MyLines
 10
25790.0
 20
69.0
 30
0.0
 11
26266.0
 21
69.0
 31
0.0
  0
LINE
  5
212
  8
MyLines
 10
25790.0
 20
0.0
 30
0.0
 11
26266.0
 21
0.0
 31
0.0
  0
LINE
  5
213
  8
MyLines
 10
25790.0
 20
0.0
 30
0.0
 11
25790.0
 21
69.0
 31
0.0
  0
LINE
  5
214
  8
MyLines
 10
26266.0
 20
0.0
 30
0.0
 11
26266.0
 21
69.0
 31
0.0
  0
TEXT
  5
215
  8
MyLines
 62
1
 10
26029.0
 20
1.0
 30
0.0
 40
1.0
  1
7555-B
 11
26029.0
 21
1.0
 31
0.0
  0
TEXT
  5
216
  8
MyLines
 62
1
 10
25791.0
 20
1.0
 30
0.0
 40
1.0
  1
7555-A
 11
25791.0
 21
1.0
 31
0.0
  0
LINE
  5
217
  8
MyLines
 10
26028.0
 20
0.0
 30
0.0
 11
26028.0
 21
69.0
 31
0.0
  0
LINE
  5
218
  8
MyLines
 10
26268.0
 20
74.5
 30
0.0
 11
26674.0
 21
74.5
 31
0.0
  0
LINE
  5
219
  8
MyLines
 10
26268.0
 20
0.0
 30
0.0
 11
26674.0
 21
0.0
 31
0.0
  0
LINE
  5
21A
  8
MyLines
 10
26268.0
 20
0.0
 30
0.0
 11
26268.0
 21
74.5
 31
0.0
  0
LINE
  5
21B
  8
MyLines
 10
26674.0
 20
0.0
 30
0.0
 11
26674.0
 21
74.5
 31
0.0
  0
TEXT
  5
21C
  8
MyLines
 62
1
 10
26472.0
 20
1.0
 30
0.0
 40
1.0
  1
7556-B
 11
26472.0
 21
1.0
 31
0.0
  0
TEXT
  5
21D
  8
MyLines
 62
1
 10
26269.0
 20
1.0
 30
0.0
 40
1.0
  1
7556-A
 11
26269.0
 21
1.0
 31
0.0
  0
LINE
  5
21E
  8
MyLines
 10
26471.0
 20
0.0
 30
0.0
 11
26471.0
 21
74.5
 31
0.0
  0
LINE
  5
21F
  8
MyLines
 10
26676.0
 20
43.5
 30
0.0
 11
27274.0
 21
43.5
 31
0.0
  0
LINE
  5
220
  8
MyLines
 10
26676.0
 20
0.0
 30
0.0
 11
27274.0
 21
0.0
 31
0.0
  0
LINE
  5
221
  8
MyLines
 10
26676.0
 20
0.0
 30
0.0
 11
26676.0
 21
43.5
 31
0.0
  0
LINE
  5
222
  8
MyLines
 10
27274.0
 20
0.0
 30
0.0
 11
27274.0
 21
43.5
 31
0.0
  0
TEXT
  5
223
  8
MyLines
 62
1
 10
26976.0
 20
1.0
 30
0.0
 40
1.0
  1
7557-B
 11
26976.0
 21
1.0
 31
0.0
  0
TEXT
  5
224
  8
MyLines
 62
1
 10
26677.0
 20
1.0
 30
0.0
 40
1.0
  1
7557-A
 11
26677.0
 21
1.0
 31
0.0
  0
LINE
  5
225
  8
MyLines
 10
26975.0
 20
0.0
 30
0.0
 11
26975.0
 21
43.5
 31
0.0
  0
LINE
  5
226
  8
MyLines
 10
27276.0
 20
59.0
 30
0.0
 11
27704.0
 21
59.0
 31
0.0
  0
LINE
  5
227
  8
MyLines
 10
27276.0
 20
0.0
 30
0.0
 11
27704.0
 21
0.0
 31
0.0
  0
LINE
  5
228
  8
MyLines
 10
27276.0
 20
0.0
 30
0.0
 11
27276.0
 21
59.0
 31
0.0
  0
LINE
  5
229
  8
MyLines
 10
27704.0
 20
0.0
 30
0.0
 11
27704.0
 21
59.0
 31
0.0
  0
TEXT
  5
22A
  8
MyLines
 62
1
 10
27491.0
 20
1.0
 30
0.0
 40
1.0
  1
7558-B
 11
27491.0
 21
1.0
 31
0.0
  0
TEXT
  5
22B
  8
MyLines
 62
1
 10
27277.0
 20
1.0
 30
0.0
 40
1.0
  1
7558-A
 11
27277.0
 21
1.0
 31
0.0
  0
LINE
  5
22C
  8
MyLines
 10
27490.0
 20
0.0
 30
0.0
 11
27490.0
 21
59.0
 31
0.0
  0
LINE
  5
22D
  8
MyLines
 10
27706.0
 20
35.0
 30
0.0
 11
28270.0
 21
35.0
 31
0.0
  0
LINE
  5
22E
  8
MyLines
 10
27706.0
 20
0.0
 30
0.0
 11
28270.0
 21
0.0
 31
0.0
  0
LINE
  5
22F
  8
MyLines
 10
27706.0
 20
0.0
 30
0.0
 11
27706.0
 21
35.0
 31
0.0
  0
LINE
  5
230
  8
MyLines
 10
28270.0
 20
0.0
 30
0.0
 11
28270.0
 21
35.0
 31
0.0
  0
TEXT
  5
231
  8
MyLines
 62
1
 10
27989.0
 20
1.0
 30
0.0
 40
1.0
  1
7559-B
 11
27989.0
 21
1.0
 31
0.0
  0
TEXT
  5
232
  8
MyLines
 62
1
 10
27707.0
 20
1.0
 30
0.0
 40
1.0
  1
7559-A
 11
27707.0
 21
1.0
 31
0.0
  0
LINE
  5
233
  8
MyLines
 10
27988.0
 20
0.0
 30
0.0
 11
27988.0
 21
35.0
 31
0.0
  0
LINE
  5
234
  8
MyLines
 10
28272.0
 20
44.5
 30
0.0
 11
28784.0
 21
44.5
 31
0.0
  0
LINE
  5
235
  8
MyLines
 10
28272.0
 20
0.0
 30
0.0
 11
28784.0
 21
0.0
 31
0.0
  0
LINE
  5
236
  8
MyLines
 10
28272.0
 20
0.0
 30
0.0
 11
28272.0
 21
44.5
 31
0.0
  0
LINE
  5
237
  8
MyLines
 10
28784.0
 20
0.0
 30
0.0
 11
28784.0
 21
44.5
 31
0.0
  0
TEXT
  5
238
  8
MyLines
 62
1
 10
28529.0
 20
1.0
 30
0.0
 40
1.0
  1
7560-B
 11
28529.0
 21
1.0
 31
0.0
  0
TEXT
  5
239
  8
MyLines
 62
1
 10
28273.0
 20
1.0
 30
0.0
 40
1.0
  1
7560-A
 11
28273.0
 21
1.0
 31
0.0
  0
LINE
  5
23A
  8
MyLines
 10
28528.0
 20
0.0
 30
0.0
 11
28528.0
 21
44.5
 31
0.0
  0
LINE
  5
23B
  8
MyLines
 10
28786.0
 20
53.5
 30
0.0
 11
29334.0
 21
53.5
 31
0.0
  0
LINE
  5
23C
  8
MyLines
 10
28786.0
 20
0.0
 30
0.0
 11
29334.0
 21
0.0
 31
0.0
  0
LINE
  5
23D
  8
MyLines
 10
28786.0
 20
0.0
 30
0.0
 11
28786.0
 21
53.5
 31
0.0
  0
LINE
  5
23E
  8
MyLines
 10
29334.0
 20
0.0
 30
0.0
 11
29334.0
 21
53.5
 31
0.0
  0
TEXT
  5
23F
  8
MyLines
 62
1
 10
29061.0
 20
1.0
 30
0.0
 40
1.0
  1
7561-B
 11
29061.0
 21
1.0
 31
0.0
  0
TEXT
  5
240
  8
MyLines
 62
1
 10
28787.0
 20
1.0
 30
0.0
 40
1.0
  1
7561-A
 11
28787.0
 21
1.0
 31
0.0
  0
LINE
  5
241
  8
MyLines
 10
29060.0
 20
0.0
 30
0.0
 11
29060.0
 21
53.5
 31
0.0
  0
LINE
  5
242
  8
MyLines
 10
29336.0
 20
48.5
 30
0.0
 11
29730.0
 21
48.5
 31
0.0
  0
LINE
  5
243
  8
MyLines
 10
29336.0
 20
0.0
 30
0.0
 11
29730.0
 21
0.0
 31
0.0
  0
LINE
  5
244
  8
MyLines
 10
29336.0
 20
0.0
 30
0.0
 11
29336.0
 21
48.5
 31
0.0
  0
LINE
  5
245
  8
MyLines
 10
29730.0
 20
0.0
 30
0.0
 11
29730.0
 21
48.5
 31
0.0
  0
TEXT
  5
246
  8
MyLines
 62
1
 10
29534.0
 20
1.0
 30
0.0
 40
1.0
  1
7562-B
 11
29534.0
 21
1.0
 31
0.0
  0
TEXT
  5
247
  8
MyLines
 62
1
 10
29337.0
 20
1.0
 30
0.0
 40
1.0
  1
7562-A
 11
29337.0
 21
1.0
 31
0.0
  0
LINE
  5
248
  8
MyLines
 10
29533.0
 20
0.0
 30
0.0
 11
29533.0
 21
48.5
 31
0.0
  0
LINE
  5
249
  8
MyLines
 10
29732.0
 20
58.0
 30
0.0
 11
30086.0
 21
58.0
 31
0.0
  0
LINE
  5
24A
  8
MyLines
 10
29732.0
 20
0.0
 30
0.0
 11
30086.0
 21
0.0
 31
0.0
  0
LINE
  5
24B
  8
MyLines
 10
29732.0
 20
0.0
 30
0.0
 11
29732.0
 21
58.0
 31
0.0
  0
LINE
  5
24C
  8
MyLines
 10
30086.0
 20
0.0
 30
0.0
 11
30086.0
 21
58.0
 31
0.0
  0
TEXT
  5
24D
  8
MyLines
 62
1
 10
29910.0
 20
1.0
 30
0.0
 40
1.0
  1
7563-B
 11
29910.0
 21
1.0
 31
0.0
  0
TEXT
  5
24E
  8
MyLines
 62
1
 10
29733.0
 20
1.0
 30
0.0
 40
1.0
  1
7563-A
 11
29733.0
 21
1.0
 31
0.0
  0
LINE
  5
24F
  8
MyLines
 10
29909.0
 20
0.0
 30
0.0
 11
29909.0
 21
58.0
 31
0.0
  0
LINE
  5
250
  8
MyLines
 10
30088.0
 20
78.5
 30
0.0
 11
30652.0
 21
78.5
 31
0.0
  0
LINE
  5
251
  8
MyLines
 10
30088.0
 20
0.0
 30
0.0
 11
30652.0
 21
0.0
 31
0.0
  0
LINE
  5
252
  8
MyLines
 10
30088.0
 20
0.0
 30
0.0
 11
30088.0
 21
78.5
 31
0.0
  0
LINE
  5
253
  8
MyLines
 10
30652.0
 20
0.0
 30
0.0
 11
30652.0
 21
78.5
 31
0.0
  0
TEXT
  5
254
  8
MyLines
 62
1
 10
30371.0
 20
1.0
 30
0.0
 40
1.0
  1
7564-B
 11
30371.0
 21
1.0
 31
0.0
  0
TEXT
  5
255
  8
MyLines
 62
1
 10
30089.0
 20
1.0
 30
0.0
 40
1.0
  1
7564-A
 11
30089.0
 21
1.0
 31
0.0
  0
LINE
  5
256
  8
MyLines
 10
30370.0
 20
0.0
 30
0.0
 11
30370.0
 21
78.5
 31
0.0
  0
LINE
  5
257
  8
MyLines
 10
30654.0
 20
78.5
 30
0.0
 11
31106.0
 21
78.5
 31
0.0
  0
LINE
  5
258
  8
MyLines
 10
30654.0
 20
0.0
 30
0.0
 11
31106.0
 21
0.0
 31
0.0
  0
LINE
  5
259
  8
MyLines
 10
30654.0
 20
0.0
 30
0.0
 11
30654.0
 21
78.5
 31
0.0
  0
LINE
  5
25A
  8
MyLines
 10
31106.0
 20
0.0
 30
0.0
 11
31106.0
 21
78.5
 31
0.0
  0
TEXT
  5
25B
  8
MyLines
 62
1
 10
30881.0
 20
1.0
 30
0.0
 40
1.0
  1
7565-B
 11
30881.0
 21
1.0
 31
0.0
  0
TEXT
  5
25C
  8
MyLines
 62
1
 10
30655.0
 20
1.0
 30
0.0
 40
1.0
  1
7565-A
 11
30655.0
 21
1.0
 31
0.0
  0
LINE
  5
25D
  8
MyLines
 10
30880.0
 20
0.0
 30
0.0
 11
30880.0
 21
78.5
 31
0.0
  0
LINE
  5
25E
  8
MyLines
 10
31108.0
 20
38.0
 30
0.0
 11
31536.0
 21
38.0
 31
0.0
  0
LINE
  5
25F
  8
MyLines
 10
31108.0
 20
0.0
 30
0.0
 11
31536.0
 21
0.0
 31
0.0
  0
LINE
  5
260
  8
MyLines
 10
31108.0
 20
0.0
 30
0.0
 11
31108.0
 21
38.0
 31
0.0
  0
LINE
  5
261
  8
MyLines
 10
31536.0
 20
0.0
 30
0.0
 11
31536.0
 21
38.0
 31
0.0
  0
TEXT
  5
262
  8
MyLines
 62
1
 10
31323.0
 20
1.0
 30
0.0
 40
1.0
  1
7566-B
 11
31323.0
 21
1.0
 31
0.0
  0
TEXT
  5
263
  8
MyLines
 62
1
 10
31109.0
 20
1.0
 30
0.0
 40
1.0
  1
7566-A
 11
31109.0
 21
1.0
 31
0.0
  0
LINE
  5
264
  8
MyLines
 10
31322.0
 20
0.0
 30
0.0
 11
31322.0
 21
38.0
 31
0.0
  0
LINE
  5
265
  8
MyLines
 10
31538.0
 20
43.0
 30
0.0
 11
32106.0
 21
43.0
 31
0.0
  0
LINE
  5
266
  8
MyLines
 10
31538.0
 20
0.0
 30
0.0
 11
32106.0
 21
0.0
 31
0.0
  0
LINE
  5
267
  8
MyLines
 10
31538.0
 20
0.0
 30
0.0
 11
31538.0
 21
43.0
 31
0.0
  0
LINE
  5
268
  8
MyLines
 10
32106.0
 20
0.0
 30
0.0
 11
32106.0
 21
43.0
 31
0.0
  0
TEXT
  5
269
  8
MyLines
 62
1
 10
31823.0
 20
1.0
 30
0.0
 40
1.0
  1
7567-B
 11
31823.0
 21
1.0
 31
0.0
  0
TEXT
  5
26A
  8
MyLines
 62
1
 10
31539.0
 20
1.0
 30
0.0
 40
1.0
  1
7567-A
 11
31539.0
 21
1.0
 31
0.0
  0
LINE
  5
26B
  8
MyLines
 10
31822.0
 20
0.0
 30
0.0
 11
31822.0
 21
43.0
 31
0.0
  0
LINE
  5
26C
  8
MyLines
 10
32108.0
 20
70.5
 30
0.0
 11
32494.0
 21
70.5
 31
0.0
  0
LINE
  5
26D
  8
MyLines
 10
32108.0
 20
0.0
 30
0.0
 11
32494.0
 21
0.0
 31
0.0
  0
LINE
  5
26E
  8
MyLines
 10
32108.0
 20
0.0
 30
0.0
 11
32108.0
 21
70.5
 31
0.0
  0
LINE
  5
26F
  8
MyLines
 10
32494.0
 20
0.0
 30
0.0
 11
32494.0
 21
70.5
 31
0.0
  0
TEXT
  5
270
  8
MyLines
 62
1
 10
32302.0
 20
1.0
 30
0.0
 40
1.0
  1
7568-B
 11
32302.0
 21
1.0
 31
0.0
  0
TEXT
  5
271
  8
MyLines
 62
1
 10
32109.0
 20
1.0
 30
0.0
 40
1.0
  1
7568-A
 11
32109.0
 21
1.0
 31
0.0
  0
LINE
  5
272
  8
MyLines
 10
32301.0
 20
0.0
 30
0.0
 11
32301.0
 21
70.5
 31
0.0
  0
LINE
  5
273
  8
MyLines
 10
32496.0
 20
50.0
 30
0.0
 11
32860.0
 21
50.0
 31
0.0
  0
LINE
  5
274
  8
MyLines
 10
32496.0
 20
0.0
 30
0.0
 11
32860.0
 21
0.0
 31
0.0
  0
LINE
  5
275
  8
MyLines
 10
32496.0
 20
0.0
 30
0.0
 11
32496.0
 21
50.0
 31
0.0
  0
LINE
  5
276
  8
MyLines
 10
32860.0
 20
0.0
 30
0.0
 11
32860.0
 21
50.0
 31
0.0
  0
TEXT
  5
277
  8
MyLines
 62
1
 10
32679.0
 20
1.0
 30
0.0
 40
1.0
  1
7569-B
 11
32679.0
 21
1.0
 31
0.0
  0
TEXT
  5
278
  8
MyLines
 62
1
 10
32497.0
 20
1.0
 30
0.0
 40
1.0
  1
7569-A
 11
32497.0
 21
1.0
 31
0.0
  0
LINE
  5
279
  8
MyLines
 10
32678.0
 20
0.0
 30
0.0
 11
32678.0
 21
50.0
 31
0.0
  0
LINE
  5
27A
  8
MyLines
 10
32862.0
 20
89.0
 30
0.0
 11
33334.0
 21
89.0
 31
0.0
  0
LINE
  5
27B
  8
MyLines
 10
32862.0
 20
0.0
 30
0.0
 11
33334.0
 21
0.0
 31
0.0
  0
LINE
  5
27C
  8
MyLines
 10
32862.0
 20
0.0
 30
0.0
 11
32862.0
 21
89.0
 31
0.0
  0
LINE
  5
27D
  8
MyLines
 10
33334.0
 20
0.0
 30
0.0
 11
33334.0
 21
89.0
 31
0.0
  0
TEXT
  5
27E
  8
MyLines
 62
1
 10
33099.0
 20
1.0
 30
0.0
 40
1.0
  1
7570-B
 11
33099.0
 21
1.0
 31
0.0
  0
TEXT
  5
27F
  8
MyLines
 62
1
 10
32863.0
 20
1.0
 30
0.0
 40
1.0
  1
7570-A
 11
32863.0
 21
1.0
 31
0.0
  0
LINE
  5
280
  8
MyLines
 10
33098.0
 20
0.0
 30
0.0
 11
33098.0
 21
89.0
 31
0.0
  0
LINE
  5
281
  8
MyLines
 10
33336.0
 20
73.0
 30
0.0
 11
33846.0
 21
73.0
 31
0.0
  0
LINE
  5
282
  8
MyLines
 10
33336.0
 20
0.0
 30
0.0
 11
33846.0
 21
0.0
 31
0.0
  0
LINE
  5
283
  8
MyLines
 10
33336.0
 20
0.0
 30
0.0
 11
33336.0
 21
73.0
 31
0.0
  0
LINE
  5
284
  8
MyLines
 10
33846.0
 20
0.0
 30
0.0
 11
33846.0
 21
73.0
 31
0.0
  0
TEXT
  5
285
  8
MyLines
 62
1
 10
33592.0
 20
1.0
 30
0.0
 40
1.0
  1
7571-B
 11
33592.0
 21
1.0
 31
0.0
  0
TEXT
  5
286
  8
MyLines
 62
1
 10
33337.0
 20
1.0
 30
0.0
 40
1.0
  1
7571-A
 11
33337.0
 21
1.0
 31
0.0
  0
LINE
  5
287
  8
MyLines
 10
33591.0
 20
0.0
 30
0.0
 11
33591.0
 21
73.0
 31
0.0
  0
LINE
  5
288
  8
MyLines
 10
33848.0
 20
58.5
 30
0.0
 11
34228.0
 21
58.5
 31
0.0
  0
LINE
  5
289
  8
MyLines
 10
33848.0
 20
0.0
 30
0.0
 11
34228.0
 21
0.0
 31
0.0
  0
LINE
  5
28A
  8
MyLines
 10
33848.0
 20
0.0
 30
0.0
 11
33848.0
 21
58.5
 31
0.0
  0
LINE
  5
28B
  8
MyLines
 10
34228.0
 20
0.0
 30
0.0
 11
34228.0
 21
58.5
 31
0.0
  0
TEXT
  5
28C
  8
MyLines
 62
1
 10
34039.0
 20
1.0
 30
0.0
 40
1.0
  1
7572-B
 11
34039.0
 21
1.0
 31
0.0
  0
TEXT
  5
28D
  8
MyLines
 62
1
 10
33849.0
 20
1.0
 30
0.0
 40
1.0
  1
7572-A
 11
33849.0
 21
1.0
 31
0.0
  0
LINE
  5
28E
  8
MyLines
 10
34038.0
 20
0.0
 30
0.0
 11
34038.0
 21
58.5
 31
0.0
  0
LINE
  5
28F
  8
MyLines
 10
34230.0
 20
84.0
 30
0.0
 11
34744.0
 21
84.0
 31
0.0
  0
LINE
  5
290
  8
MyLines
 10
34230.0
 20
0.0
 30
0.0
 11
34744.0
 21
0.0
 31
0.0
  0
LINE
  5
291
  8
MyLines
 10
34230.0
 20
0.0
 30
0.0
 11
34230.0
 21
84.0
 31
0.0
  0
LINE
  5
292
  8
MyLines
 10
34744.0
 20
0.0
 30
0.0
 11
34744.0
 21
84.0
 31
0.0
  0
TEXT
  5
293
  8
MyLines
 62
1
 10
34488.0
 20
1.0
 30
0.0
 40
1.0
  1
7573-B
 11
34488.0
 21
1.0
 31
0.0
  0
TEXT
  5
294
  8
MyLines
 62
1
 10
34231.0
 20
1.0
 30
0.0
 40
1.0
  1
7573-A
 11
34231.0
 21
1.0
 31
0.0
  0
LINE
  5
295
  8
MyLines
 10
34487.0
 20
0.0
 30
0.0
 11
34487.0
 21
84.0
 31
0.0
  0
LINE
  5
296
  8
MyLines
 10
34746.0
 20
56.0
 30
0.0
 11
35234.0
 21
56.0
 31
0.0
  0
LINE
  5
297
  8
MyLines
 10
34746.0
 20
0.0
 30
0.0
 11
35234.0
 21
0.0
 31
0.0
  0
LINE
  5
298
  8
MyLines
 10
34746.0
 20
0.0
 30
0.0
 11
34746.0
 21
56.0
 31
0.0
  0
LINE
  5
299
  8
MyLines
 10
35234.0
 20
0.0
 30
0.0
 11
35234.0
 21
56.0
 31
0.0
  0
TEXT
  5
29A
  8
MyLines
 62
1
 10
34991.0
 20
1.0
 30
0.0
 40
1.0
  1
7574-B
 11
34991.0
 21
1.0
 31
0.0
  0
TEXT
  5
29B
  8
MyLines
 62
1
 10
34747.0
 20
1.0
 30
0.0
 40
1.0
  1
7574-A
 11
34747.0
 21
1.0
 31
0.0
  0
LINE
  5
29C
  8
MyLines
 10
34990.0
 20
0.0
 30
0.0
 11
34990.0
 21
56.0
 31
0.0
  0
LINE
  5
29D
  8
MyLines
 10
35236.0
 20
65.5
 30
0.0
 11
35800.0
 21
65.5
 31
0.0
  0
LINE
  5
29E
  8
MyLines
 10
35236.0
 20
0.0
 30
0.0
 11
35800.0
 21
0.0
 31
0.0
  0
LINE
  5
29F
  8
MyLines
 10
35236.0
 20
0.0
 30
0.0
 11
35236.0
 21
65.5
 31
0.0
  0
LINE
  5
2A0
  8
MyLines
 10
35800.0
 20
0.0
 30
0.0
 11
35800.0
 21
65.5
 31
0.0
  0
TEXT
  5
2A1
  8
MyLines
 62
1
 10
35519.0
 20
1.0
 30
0.0
 40
1.0
  1
7575-B
 11
35519.0
 21
1.0
 31
0.0
  0
TEXT
  5
2A2
  8
MyLines
 62
1
 10
35237.0
 20
1.0
 30
0.0
 40
1.0
  1
7575-A
 11
35237.0
 21
1.0
 31
0.0
  0
LINE
  5
2A3
  8
MyLines
 10
35518.0
 20
0.0
 30
0.0
 11
35518.0
 21
65.5
 31
0.0
  0
LINE
  5
2A4
  8
MyLines
 10
35802.0
 20
74.0
 30
0.0
 11
36222.0
 21
74.0
 31
0.0
  0
LINE
  5
2A5
  8
MyLines
 10
35802.0
 20
0.0
 30
0.0
 11
36222.0
 21
0.0
 31
0.0
  0
LINE
  5
2A6
  8
MyLines
 10
35802.0
 20
0.0
 30
0.0
 11
35802.0
 21
74.0
 31
0.0
  0
LINE
  5
2A7
  8
MyLines
 10
36222.0
 20
0.0
 30
0.0
 11
36222.0
 21
74.0
 31
0.0
  0
TEXT
  5
2A8
  8
MyLines
 62
1
 10
36013.0
 20
1.0
 30
0.0
 40
1.0
  1
7576-B
 11
36013.0
 21
1.0
 31
0.0
  0
TEXT
  5
2A9
  8
MyLines
 62
1
 10
35803.0
 20
1.0
 30
0.0
 40
1.0
  1
7576-A
 11
35803.0
 21
1.0
 31
0.0
  0
LINE
  5
2AA
  8
MyLines
 10
36012.0
 20
0.0
 30
0.0
 11
36012.0
 21
74.0
 31
0.0
  0
LINE
  5
2AB
  8
MyLines
 10
36224.0
 20
47.0
 30
0.0
 11
36680.0
 21
47.0
 31
0.0
  0
LINE
  5
2AC
  8
MyLines
 10
36224.0
 20
0.0
 30
0.0
 11
36680.0
 21
0.0
 31
0.0
  0
LINE
  5
2AD
  8
MyLines
 10
36224.0
 20
0.0
 30
0.0
 11
36224.0
 21
47.0
 31
0.0
  0
LINE
  5
2AE
  8
MyLines
 10
36680.0
 20
0.0
 30
0.0
 11
36680.0
 21
47.0
 31
0.0
  0
TEXT
  5
2AF
  8
MyLines
 62
1
 10
36453.0
 20
1.0
 30
0.0
 40
1.0
  1
7577-B
 11
36453.0
 21
1.0
 31
0.0
  0
TEXT
  5
2B0
  8
MyLines
 62
1
 10
36225.0
 20
1.0
 30
0.0
 40
1.0
  1
7577-A
 11
36225.0
 21
1.0
 31
0.0
  0
LINE
  5
2B1
  8
MyLines
 10
36452.0
 20
0.0
 30
0.0
 11
36452.0
 21
47.0
 31
0.0
  0
LINE
  5
2B2
  8
MyLines
 10
36682.0
 20
42.5
 30
0.0
 11
37166.0
 21
42.5
 31
0.0
  0
LINE
  5
2B3
  8
MyLines
 10
36682.0
 20
0.0
 30
0.0
 11
37166.0
 21
0.0
 31
0.0
  0
LINE
  5
2B4
  8
MyLines
 10
36682.0
 20
0.0
 30
0.0
 11
36682.0
 21
42.5
 31
0.0
  0
LINE
  5
2B5
  8
MyLines
 10
37166.0
 20
0.0
 30
0.0
 11
37166.0
 21
42.5
 31
0.0
  0
TEXT
  5
2B6
  8
MyLines
 62
1
 10
36925.0
 20
1.0
 30
0.0
 40
1.0
  1
7578-B
 11
36925.0
 21
1.0
 31
0.0
  0
TEXT
  5
2B7
  8
MyLines
 62
1
 10
36683.0
 20
1.0
 30
0.0
 40
1.0
  1
7578-A
 11
36683.0
 21
1.0
 31
0.0
  0
LINE
  5
2B8
  8
MyLines
 10
36924.0
 20
0.0
 30
0.0
 11
36924.0
 21
42.5
 31
0.0
  0
LINE
  5
2B9
  8
MyLines
 10
37168.0
 20
85.0
 30
0.0
 11
37586.0
 21
85.0
 31
0.0
  0
LINE
  5
2BA
  8
MyLines
 10
37168.0
 20
0.0
 30
0.0
 11
37586.0
 21
0.0
 31
0.0
  0
LINE
  5
2BB
  8
MyLines
 10
37168.0
 20
0.0
 30
0.0
 11
37168.0
 21
85.0
 31
0.0
  0
LINE
  5
2BC
  8
MyLines
 10
37586.0
 20
0.0
 30
0.0
 11
37586.0
 21
85.0
 31
0.0
  0
TEXT
  5
2BD
  8
MyLines
 62
1
 10
37378.0
 20
1.0
 30
0.0
 40
1.0
  1
7579-B
 11
37378.0
 21
1.0
 31
0.0
  0
TEXT
  5
2BE
  8
MyLines
 62
1
 10
37169.0
 20
1.0
 30
0.0
 40
1.0
  1
7579-A
 11
37169.0
 21
1.0
 31
0.0
  0
LINE
  5
2BF
  8
MyLines
 10
37377.0
 20
0.0
 30
0.0
 11
37377.0
 21
85.0
 31
0.0
  0
LINE
  5
2C0
  8
MyLines
 10
37588.0
 20
72.5
 30
0.0
 11
38050.0
 21
72.5
 31
0.0
  0
LINE
  5
2C1
  8
MyLines
 10
37588.0
 20
0.0
 30
0.0
 11
38050.0
 21
0.0
 31
0.0
  0
LINE
  5
2C2
  8
MyLines
 10
37588.0
 20
0.0
 30
0.0
 11
37588.0
 21
72.5
 31
0.0
  0
LINE
  5
2C3
  8
MyLines
 10
38050.0
 20
0.0
 30
0.0
 11
38050.0
 21
72.5
 31
0.0
  0
TEXT
  5
2C4
  8
MyLines
 62
1
 10
37820.0
 20
1.0
 30
0.0
 40
1.0
  1
7580-B
 11
37820.0
 21
1.0
 31
0.0
  0
TEXT
  5
2C5
  8
MyLines
 62
1
 10
37589.0
 20
1.0
 30
0.0
 40
1.0
  1
7580-A
 11
37589.0
 21
1.0
 31
0.0
  0
LINE
  5
2C6
  8
MyLines
 10
37819.0
 20
0.0
 30
0.0
 11
37819.0
 21
72.5
 31
0.0
  0
LINE
  5
2C7
  8
MyLines
 10
38052.0
 20
89.5
 30
0.0
 11
38474.0
 21
89.5
 31
0.0
  0
LINE
  5
2C8
  8
MyLines
 10
38052.0
 20
0.0
 30
0.0
 11
38474.0
 21
0.0
 31
0.0
  0
LINE
  5
2C9
  8
MyLines
 10
38052.0
 20
0.0
 30
0.0
 11
38052.0
 21
89.5
 31
0.0
  0
LINE
  5
2CA
  8
MyLines
 10
38474.0
 20
0.0
 30
0.0
 11
38474.0
 21
89.5
 31
0.0
  0
TEXT
  5
2CB
  8
MyLines
 62
1
 10
38264.0
 20
1.0
 30
0.0
 40
1.0
  1
7581-B
 11
38264.0
 21
1.0
 31
0.0
  0
TEXT
  5
2CC
  8
MyLines
 62
1
 10
38053.0
 20
1.0
 30
0.0
 40
1.0
  1
7581-A
 11
38053.0
 21
1.0
 31
0.0
  0
LINE
  5
2CD
  8
MyLines
 10
38263.0
 20
0.0
 30
0.0
 11
38263.0
 21
89.5
 31
0.0
  0
LINE
  5
2CE
  8
MyLines
 10
38476.0
 20
66.0
 30
0.0
 11
38972.0
 21
66.0
 31
0.0
  0
LINE
  5
2CF
  8
MyLines
 10
38476.0
 20
0.0
 30
0.0
 11
38972.0
 21
0.0
 31
0.0
  0
LINE
  5
2D0
  8
MyLines
 10
38476.0
 20
0.0
 30
0.0
 11
38476.0
 21
66.0
 31
0.0
  0
LINE
  5
2D1
  8
MyLines
 10
38972.0
 20
0.0
 30
0.0
 11
38972.0
 21
66.0
 31
0.0
  0
TEXT
  5
2D2
  8
MyLines
 62
1
 10
38725.0
 20
1.0
 30
0.0
 40
1.0
  1
7582-B
 11
38725.0
 21
1.0
 31
0.0
  0
TEXT
  5
2D3
  8
MyLines
 62
1
 10
38477.0
 20
1.0
 30
0.0
 40
1.0
  1
7582-A
 11
38477.0
 21
1.0
 31
0.0
  0
LINE
  5
2D4
  8
MyLines
 10
38724.0
 20
0.0
 30
0.0
 11
38724.0
 21
66.0
 31
0.0
  0
LINE
  5
2D5
  8
MyLines
 10
38974.0
 20
67.0
 30
0.0
 11
39500.0
 21
67.0
 31
0.0
  0
LINE
  5
2D6
  8
MyLines
 10
38974.0
 20
0.0
 30
0.0
 11
39500.0
 21
0.0
 31
0.0
  0
LINE
  5
2D7
  8
MyLines
 10
38974.0
 20
0.0
 30
0.0
 11
38974.0
 21
67.0
 31
0.0
  0
LINE
  5
2D8
  8
MyLines
 10
39500.0
 20
0.0
 30
0.0
 11
39500.0
 21
67.0
 31
0.0
  0
TEXT
  5
2D9
  8
MyLines
 62
1
 10
39238.0
 20
1.0
 30
0.0
 40
1.0
  1
7583-B
 11
39238.0
 21
1.0
 31
0.0
  0
TEXT
  5
2DA
  8
MyLines
 62
1
 10
38975.0
 20
1.0
 30
0.0
 40
1.0
  1
7583-A
 11
38975.0
 21
1.0
 31
0.0
  0
LINE
  5
2DB
  8
MyLines
 10
39237.0
 20
0.0
 30
0.0
 11
39237.0
 21
67.0
 31
0.0
  0
LINE
  5
2DC
  8
MyLines
 10
39502.0
 20
41.0
 30
0.0
 11
40000.0
 21
41.0
 31
0.0
  0
LINE
  5
2DD
  8
MyLines
 10
39502.0
 20
0.0
 30
0.0
 11
40000.0
 21
0.0
 31
0.0
  0
LINE
  5
2DE
  8
MyLines
 10
39502.0
 20
0.0
 30
0.0
 11
39502.0
 21
41.0
 31
0.0
  0
LINE
  5
2DF
  8
MyLines
 10
40000.0
 20
0.0
 30
0.0
 11
40000.0
 21
41.0
 31
0.0
  0
TEXT
  5
2E0
  8
MyLines
 62
1
 10
39752.0
 20
1.0
 30
0.0
 40
1.0
  1
7584-B
 11
39752.0
 21
1.0
 31
0.0
  0
TEXT
  5
2E1
  8
MyLines
 62
1
 10
39503.0
 20
1.0
 30
0.0
 40
1.0
  1
7584-A
 11
39503.0
 21
1.0
 31
0.0
  0
LINE
  5
2E2
  8
MyLines
 10
39751.0
 20
0.0
 30
0.0
 11
39751.0
 21
41.0
 31
0.0
  0
LINE
  5
2E3
  8
MyLines
 10
40002.0
 20
40.0
 30
0.0
 11
40378.0
 21
40.0
 31
0.0
  0
LINE
  5
2E4
  8
MyLines
 10
40002.0
 20
0.0
 30
0.0
 11
40378.0
 21
0.0
 31
0.0
  0
LINE
  5
2E5
  8
MyLines
 10
40002.0
 20
0.0
 30
0.0
 11
40002.0
 21
40.0
 31
0.0
  0
LINE
  5
2E6
  8
MyLines
 10
40378.0
 20
0.0
 30
0.0
 11
40378.0
 21
40.0
 31
0.0
  0
TEXT
  5
2E7
  8
MyLines
 62
1
 10
40191.0
 20
1.0
 30
0.0
 40
1.0
  1
7585-B
 11
40191.0
 21
1.0
 31
0.0
  0
TEXT
  5
2E8
  8
MyLines
 62
1
 10
40003.0
 20
1.0
 30
0.0
 40
1.0
  1
7585-A
 11
40003.0
 21
1.0
 31
0.0
  0
LINE
  5
2E9
  8
MyLines
 10
40190.0
 20
0.0
 30
0.0
 11
40190.0
 21
40.0
 31
0.0
  0
LINE
  5
2EA
  8
MyLines
 10
40380.0
 20
60.5
 30
0.0
 11
40952.0
 21
60.5
 31
0.0
  0
LINE
  5
2EB
  8
MyLines
 10
40380.0
 20
0.0
 30
0.0
 11
40952.0
 21
0.0
 31
0.0
  0
LINE
  5
2EC
  8
MyLines
 10
40380.0
 20
0.0
 30
0.0
 11
40380.0
 21
60.5
 31
0.0
  0
LINE
  5
2ED
  8
MyLines
 10
40952.0
 20
0.0
 30
0.0
 11
40952.0
 21
60.5
 31
0.0
  0
TEXT
  5
2EE
  8
MyLines
 62
1
 10
40667.0
 20
1.0
 30
0.0
 40
1.0
  1
7586-B
 11
40667.0
 21
1.0
 31
0.0
  0
TEXT
  5
2EF
  8
MyLines
 62
1
 10
40381.0
 20
1.0
 30
0.0
 40
1.0
  1
7586-A
 11
40381.0
 21
1.0
 31
0.0
  0
LINE
  5
2F0
  8
MyLines
 10
40666.0
 20
0.0
 30
0.0
 11
40666.0
 21
60.5
 31
0.0
  0
LINE
  5
2F1
  8
MyLines
 10
40954.0
 20
59.5
 30
0.0
 11
41554.0
 21
59.5
 31
0.0
  0
LINE
  5
2F2
  8
MyLines
 10
40954.0
 20
0.0
 30
0.0
 11
41554.0
 21
0.0
 31
0.0
  0
LINE
  5
2F3
  8
MyLines
 10
40954.0
 20
0.0
 30
0.0
 11
40954.0
 21
59.5
 31
0.0
  0
LINE
  5
2F4
  8
MyLines
 10
41554.0
 20
0.0
 30
0.0
 11
41554.0
 21
59.5
 31
0.0
  0
TEXT
  5
2F5
  8
MyLines
 62
1
 10
41255.0
 20
1.0
 30
0.0
 40
1.0
  1
7587-B
 11
41255.0
 21
1.0
 31
0.0
  0
TEXT
  5
2F6
  8
MyLines
 62
1
 10
40955.0
 20
1.0
 30
0.0
 40
1.0
  1
7587-A
 11
40955.0
 21
1.0
 31
0.0
  0
LINE
  5
2F7
  8
MyLines
 10
41254.0
 20
0.0
 30
0.0
 11
41254.0
 21
59.5
 31
0.0
  0
LINE
  5
2F8
  8
MyLines
 10
41556.0
 20
48.5
 30
0.0
 11
41942.0
 21
48.5
 31
0.0
  0
LINE
  5
2F9
  8
MyLines
 10
41556.0
 20
0.0
 30
0.0
 11
41942.0
 21
0.0
 31
0.0
  0
LINE
  5
2FA
  8
MyLines
 10
41556.0
 20
0.0
 30
0.0
 11
41556.0
 21
48.5
 31
0.0
  0
LINE
  5
2FB
  8
MyLines
 10
41942.0
 20
0.0
 30
0.0
 11
41942.0
 21
48.5
 31
0.0
  0
TEXT
  5
2FC
  8
MyLines
 62
1
 10
41750.0
 20
1.0
 30
0.0
 40
1.0
  1
7588-B
 11
41750.0
 21
1.0
 31
0.0
  0
TEXT
  5
2FD
  8
MyLines
 62
1
 10
41557.0
 20
1.0
 30
0.0
 40
1.0
  1
7588-A
 11
41557.0
 21
1.0
 31
0.0
  0
LINE
  5
2FE
  8
MyLines
 10
41749.0
 20
0.0
 30
0.0
 11
41749.0
 21
48.5
 31
0.0
  0
LINE
  5
2FF
  8
MyLines
 10
41944.0
 20
66.0
 30
0.0
 11
42352.0
 21
66.0
 31
0.0
  0
LINE
  5
300
  8
MyLines
 10
41944.0
 20
0.0
 30
0.0
 11
42352.0
 21
0.0
 31
0.0
  0
LINE
  5
301
  8
MyLines
 10
41944.0
 20
0.0
 30
0.0
 11
41944.0
 21
66.0
 31
0.0
  0
LINE
  5
302
  8
MyLines
 10
42352.0
 20
0.0
 30
0.0
 11
42352.0
 21
66.0
 31
0.0
  0
TEXT
  5
303
  8
MyLines
 62
1
 10
42149.0
 20
1.0
 30
0.0
 40
1.0
  1
7589-B
 11
42149.0
 21
1.0
 31
0.0
  0
TEXT
  5
304
  8
MyLines
 62
1
 10
41945.0
 20
1.0
 30
0.0
 40
1.0
  1
7589-A
 11
41945.0
 21
1.0
 31
0.0
  0
LINE
  5
305
  8
MyLines
 10
42148.0
 20
0.0
 30
0.0
 11
42148.0
 21
66.0
 31
0.0
  0
LINE
  5
306
  8
MyLines
 10
42354.0
 20
49.0
 30
0.0
 11
42850.0
 21
49.0
 31
0.0
  0
LINE
  5
307
  8
MyLines
 10
42354.0
 20
0.0
 30
0.0
 11
42850.0
 21
0.0
 31
0.0
  0
LINE
  5
308
  8
MyLines
 10
42354.0
 20
0.0
 30
0.0
 11
42354.0
 21
49.0
 31
0.0
  0
LINE
  5
309
  8
MyLines
 10
42850.0
 20
0.0
 30
0.0
 11
42850.0
 21
49.0
 31
0.0
  0
TEXT
  5
30A
  8
MyLines
 62
1
 10
42603.0
 20
1.0
 30
0.0
 40
1.0
  1
7590-B
 11
42603.0
 21
1.0
 31
0.0
  0
TEXT
  5
30B
  8
MyLines
 62
1
 10
42355.0
 20
1.0
 30
0.0
 40
1.0
  1
7590-A
 11
42355.0
 21
1.0
 31
0.0
  0
LINE
  5
30C
  8
MyLines
 10
42602.0
 20
0.0
 30
0.0
 11
42602.0
 21
49.0
 31
0.0
  0
LINE
  5
30D
  8
MyLines
 10
42852.0
 20
67.5
 30
0.0
 11
43272.0
 21
67.5
 31
0.0
  0
LINE
  5
30E
  8
MyLines
 10
42852.0
 20
0.0
 30
0.0
 11
43272.0
 21
0.0
 31
0.0
  0
LINE
  5
30F
  8
MyLines
 10
42852.0
 20
0.0
 30
0.0
 11
42852.0
 21
67.5
 31
0.0
  0
LINE
  5
310
  8
MyLines
 10
43272.0
 20
0.0
 30
0.0
 11
43272.0
 21
67.5
 31
0.0
  0
TEXT
  5
311
  8
MyLines
 62
1
 10
43063.0
 20
1.0
 30
0.0
 40
1.0
  1
7591-B
 11
43063.0
 21
1.0
 31
0.0
  0
TEXT
  5
312
  8
MyLines
 62
1
 10
42853.0
 20
1.0
 30
0.0
 40
1.0
  1
7591-A
 11
42853.0
 21
1.0
 31
0.0
  0
LINE
  5
313
  8
MyLines
 10
43062.0
 20
0.0
 30
0.0
 11
43062.0
 21
67.5
 31
0.0
  0
LINE
  5
314
  8
MyLines
 10
43274.0
 20
53.0
 30
0.0
 11
43632.0
 21
53.0
 31
0.0
  0
LINE
  5
315
  8
MyLines
 10
43274.0
 20
0.0
 30
0.0
 11
43632.0
 21
0.0
 31
0.0
  0
LINE
  5
316
  8
MyLines
 10
43274.0
 20
0.0
 30
0.0
 11
43274.0
 21
53.0
 31
0.0
  0
LINE
  5
317
  8
MyLines
 10
43632.0
 20
0.0
 30
0.0
 11
43632.0
 21
53.0
 31
0.0
  0
TEXT
  5
318
  8
MyLines
 62
1
 10
43454.0
 20
1.0
 30
0.0
 40
1.0
  1
7592-B
 11
43454.0
 21
1.0
 31
0.0
  0
TEXT
  5
319
  8
MyLines
 62
1
 10
43275.0
 20
1.0
 30
0.0
 40
1.0
  1
7592-A
 11
43275.0
 21
1.0
 31
0.0
  0
LINE
  5
31A
  8
MyLines
 10
43453.0
 20
0.0
 30
0.0
 11
43453.0
 21
53.0
 31
0.0
  0
LINE
  5
31B
  8
MyLines
 10
43634.0
 20
57.0
 30
0.0
 11
44216.0
 21
57.0
 31
0.0
  0
LINE
  5
31C
  8
MyLines
 10
43634.0
 20
0.0
 30
0.0
 11
44216.0
 21
0.0
 31
0.0
  0
LINE
  5
31D
  8
MyLines
 10
43634.0
 20
0.0
 30
0.0
 11
43634.0
 21
57.0
 31
0.0
  0
LINE
  5
31E
  8
MyLines
 10
44216.0
 20
0.0
 30
0.0
 11
44216.0
 21
57.0
 31
0.0
  0
TEXT
  5
31F
  8
MyLines
 62
1
 10
43926.0
 20
1.0
 30
0.0
 40
1.0
  1
7593-B
 11
43926.0
 21
1.0
 31
0.0
  0
TEXT
  5
320
  8
MyLines
 62
1
 10
43635.0
 20
1.0
 30
0.0
 40
1.0
  1
7593-A
 11
43635.0
 21
1.0
 31
0.0
  0
LINE
  5
321
  8
MyLines
 10
43925.0
 20
0.0
 30
0.0
 11
43925.0
 21
57.0
 31
0.0
  0
LINE
  5
322
  8
MyLines
 10
44218.0
 20
83.5
 30
0.0
 11
44684.0
 21
83.5
 31
0.0
  0
LINE
  5
323
  8
MyLines
 10
44218.0
 20
0.0
 30
0.0
 11
44684.0
 21
0.0
 31
0.0
  0
LINE
  5
324
  8
MyLines
 10
44218.0
 20
0.0
 30
0.0
 11
44218.0
 21
83.5
 31
0.0
  0
LINE
  5
325
  8
MyLines
 10
44684.0
 20
0.0
 30
0.0
 11
44684.0
 21
83.5
 31
0.0
  0
TEXT
  5
326
  8
MyLines
 62
1
 10
44452.0
 20
1.0
 30
0.0
 40
1.0
  1
7594-B
 11
44452.0
 21
1.0
 31
0.0
  0
TEXT
  5
327
  8
MyLines
 62
1
 10
44219.0
 20
1.0
 30
0.0
 40
1.0
  1
7594-A
 11
44219.0
 21
1.0
 31
0.0
  0
LINE
  5
328
  8
MyLines
 10
44451.0
 20
0.0
 30
0.0
 11
44451.0
 21
83.5
 31
0.0
  0
LINE
  5
329
  8
MyLines
 10
44686.0
 20
80.0
 30
0.0
 11
45232.0
 21
80.0
 31
0.0
  0
LINE
  5
32A
  8
MyLines
 10
44686.0
 20
0.0
 30
0.0
 11
45232.0
 21
0.0
 31
0.0
  0
LINE
  5
32B
  8
MyLines
 10
44686.0
 20
0.0
 30
0.0
 11
44686.0
 21
80.0
 31
0.0
  0
LINE
  5
32C
  8
MyLines
 10
45232.0
 20
0.0
 30
0.0
 11
45232.0
 21
80.0
 31
0.0
  0
TEXT
  5
32D
  8
MyLines
 62
1
 10
44960.0
 20
1.0
 30
0.0
 40
1.0
  1
7595-B
 11
44960.0
 21
1.0
 31
0.0
  0
TEXT
  5
32E
  8
MyLines
 62
1
 10
44687.0
 20
1.0
 30
0.0
 40
1.0
  1
7595-A
 11
44687.0
 21
1.0
 31
0.0
  0
LINE
  5
32F
  8
MyLines
 10
44959.0
 20
0.0
 30
0.0
 11
44959.0
 21
80.0
 31
0.0
  0
LINE
  5
330
  8
MyLines
 10
45234.0
 20
82.0
 30
0.0
 11
45700.0
 21
82.0
 31
0.0
  0
LINE
  5
331
  8
MyLines
 10
45234.0
 20
0.0
 30
0.0
 11
45700.0
 21
0.0
 31
0.0
  0
LINE
  5
332
  8
MyLines
 10
45234.0
 20
0.0
 30
0.0
 11
45234.0
 21
82.0
 31
0.0
  0
LINE
  5
333
  8
MyLines
 10
45700.0
 20
0.0
 30
0.0
 11
45700.0
 21
82.0
 31
0.0
  0
TEXT
  5
334
  8
MyLines
 62
1
 10
45468.0
 20
1.0
 30
0.0
 40
1.0
  1
7596-B
 11
45468.0
 21
1.0
 31
0.0
  0
TEXT
  5
335
  8
MyLines
 62
1
 10
45235.0
 20
1.0
 30
0.0
 40
1.0
  1
7596-A
 11
45235.0
 21
1.0
 31
0.0
  0
LINE
  5
336
  8
MyLines
 10
45467.0
 20
0.0
 30
0.0
 11
45467.0
 21
82.0
 31
0.0
  0
LINE
  5
337
  8
MyLines
 10
45702.0
 20
49.0
 30
0.0
 11
46274.0
 21
49.0
 31
0.0
  0
LINE
  5
338
  8
MyLines
 10
45702.0
 20
0.0
 30
0.0
 11
46274.0
 21
0.0
 31
0.0
  0
LINE
  5
339
  8
MyLines
 10
45702.0
 20
0.0
 30
0.0
 11
45702.0
 21
49.0
 31
0.0
  0
LINE
  5
33A
  8
MyLines
 10
46274.0
 20
0.0
 30
0.0
 11
46274.0
 21
49.0
 31
0.0
  0
TEXT
  5
33B
  8
MyLines
 62
1
 10
45989.0
 20
1.0
 30
0.0
 40
1.0
  1
7597-B
 11
45989.0
 21
1.0
 31
0.0
  0
TEXT
  5
33C
  8
MyLines
 62
1
 10
45703.0
 20
1.0
 30
0.0
 40
1.0
  1
7597-A
 11
45703.0
 21
1.0
 31
0.0
  0
LINE
  5
33D
  8
MyLines
 10
45988.0
 20
0.0
 30
0.0
 11
45988.0
 21
49.0
 31
0.0
  0
LINE
  5
33E
  8
MyLines
 10
46276.0
 20
63.5
 30
0.0
 11
46840.0
 21
63.5
 31
0.0
  0
LINE
  5
33F
  8
MyLines
 10
46276.0
 20
0.0
 30
0.0
 11
46840.0
 21
0.0
 31
0.0
  0
LINE
  5
340
  8
MyLines
 10
46276.0
 20
0.0
 30
0.0
 11
46276.0
 21
63.5
 31
0.0
  0
LINE
  5
341
  8
MyLines
 10
46840.0
 20
0.0
 30
0.0
 11
46840.0
 21
63.5
 31
0.0
  0
TEXT
  5
342
  8
MyLines
 62
1
 10
46559.0
 20
1.0
 30
0.0
 40
1.0
  1
7598-B
 11
46559.0
 21
1.0
 31
0.0
  0
TEXT
  5
343
  8
MyLines
 62
1
 10
46277.0
 20
1.0
 30
0.0
 40
1.0
  1
7598-A
 11
46277.0
 21
1.0
 31
0.0
  0
LINE
  5
344
  8
MyLines
 10
46558.0
 20
0.0
 30
0.0
 11
46558.0
 21
63.5
 31
0.0
  0
LINE
  5
345
  8
MyLines
 10
46842.0
 20
52.0
 30
0.0
 11
47336.0
 21
52.0
 31
0.0
  0
LINE
  5
346
  8
MyLines
 10
46842.0
 20
0.0
 30
0.0
 11
47336.0
 21
0.0
 31
0.0
  0
LINE
  5
347
  8
MyLines
 10
46842.0
 20
0.0
 30
0.0
 11
46842.0
 21
52.0
 31
0.0
  0
LINE
  5
348
  8
MyLines
 10
47336.0
 20
0.0
 30
0.0
 11
47336.0
 21
52.0
 31
0.0
  0
TEXT
  5
349
  8
MyLines
 62
1
 10
47090.0
 20
1.0
 30
0.0
 40
1.0
  1
7599-B
 11
47090.0
 21
1.0
 31
0.0
  0
TEXT
  5
34A
  8
MyLines
 62
1
 10
46843.0
 20
1.0
 30
0.0
 40
1.0
  1
7599-A
 11
46843.0
 21
1.0
 31
0.0
  0
LINE
  5
34B
  8
MyLines
 10
47089.0
 20
0.0
 30
0.0
 11
47089.0
 21
52.0
 31
0.0
  0
LINE
  5
34C
  8
MyLines
 10
47338.0
 20
58.0
 30
0.0
 11
47758.0
 21
58.0
 31
0.0
  0
LINE
  5
34D
  8
MyLines
 10
47338.0
 20
0.0
 30
0.0
 11
47758.0
 21
0.0
 31
0.0
  0
LINE
  5
34E
  8
MyLines
 10
47338.0
 20
0.0
 30
0.0
 11
47338.0
 21
58.0
 31
0.0
  0
LINE
  5
34F
  8
MyLines
 10
47758.0
 20
0.0
 30
0.0
 11
47758.0
 21
58.0
 31
0.0
  0
TEXT
  5
350
  8
MyLines
 62
1
 10
47549.0
 20
1.0
 30
0.0
 40
1.0
  1
7600-B
 11
47549.0
 21
1.0
 31
0.0
  0
TEXT
  5
351
  8
MyLines
 62
1
 10
47339.0
 20
1.0
 30
0.0
 40
1.0
  1
7600-A
 11
47339.0
 21
1.0
 31
0.0
  0
LINE
  5
352
  8
MyLines
 10
47548.0
 20
0.0
 30
0.0
 11
47548.0
 21
58.0
 31
0.0
  0
LINE
  5
353
  8
MyLines
 10
47760.0
 20
56.0
 30
0.0
 11
48298.0
 21
56.0
 31
0.0
  0
LINE
  5
354
  8
MyLines
 10
47760.0
 20
0.0
 30
0.0
 11
48298.0
 21
0.0
 31
0.0
  0
LINE
  5
355
  8
MyLines
 10
47760.0
 20
0.0
 30
0.0
 11
47760.0
 21
56.0
 31
0.0
  0
LINE
  5
356
  8
MyLines
 10
48298.0
 20
0.0
 30
0.0
 11
48298.0
 21
56.0
 31
0.0
  0
TEXT
  5
357
  8
MyLines
 62
1
 10
48030.0
 20
1.0
 30
0.0
 40
1.0
  1
7601-B
 11
48030.0
 21
1.0
 31
0.0
  0
TEXT
  5
358
  8
MyLines
 62
1
 10
47761.0
 20
1.0
 30
0.0
 40
1.0
  1
7601-A
 11
47761.0
 21
1.0
 31
0.0
  0
LINE
  5
359
  8
MyLines
 10
48029.0
 20
0.0
 30
0.0
 11
48029.0
 21
56.0
 31
0.0
  0
LINE
  5
35A
  8
MyLines
 10
48300.0
 20
83.0
 30
0.0
 11
48746.0
 21
83.0
 31
0.0
  0
LINE
  5
35B
  8
MyLines
 10
48300.0
 20
0.0
 30
0.0
 11
48746.0
 21
0.0
 31
0.0
  0
LINE
  5
35C
  8
MyLines
 10
48300.0
 20
0.0
 30
0.0
 11
48300.0
 21
83.0
 31
0.0
  0
LINE
  5
35D
  8
MyLines
 10
48746.0
 20
0.0
 30
0.0
 11
48746.0
 21
83.0
 31
0.0
  0
TEXT
  5
35E
  8
MyLines
 62
1
 10
48524.0
 20
1.0
 30
0.0
 40
1.0
  1
7602-B
 11
48524.0
 21
1.0
 31
0.0
  0
TEXT
  5
35F
  8
MyLines
 62
1
 10
48301.0
 20
1.0
 30
0.0
 40
1.0
  1
7602-A
 11
48301.0
 21
1.0
 31
0.0
  0
LINE
  5
360
  8
MyLines
 10
48523.0
 20
0.0
 30
0.0
 11
48523.0
 21
83.0
 31
0.0
  0
LINE
  5
361
  8
MyLines
 10
48748.0
 20
89.5
 30
0.0
 11
49160.0
 21
89.5
 31
0.0
  0
LINE
  5
362
  8
MyLines
 10
48748.0
 20
0.0
 30
0.0
 11
49160.0
 21
0.0
 31
0.0
  0
LINE
  5
363
  8
MyLines
 10
48748.0
 20
0.0
 30
0.0
 11
48748.0
 21
89.5
 31
0.0
  0
LINE
  5
364
  8
MyLines
 10
49160.0
 20
0.0
 30
0.0
 11
49160.0
 21
89.5
 31
0.0
  0
TEXT
  5
365
  8
MyLines
 62
1
 10
48955.0
 20
1.0
 30
0.0
 40
1.0
  1
7603-B
 11
48955.0
 21
1.0
 31
0.0
  0
TEXT
  5
366
  8
MyLines
 62
1
 10
48749.0
 20
1.0
 30
0.0
 40
1.0
  1
7603-A
 11
48749.0
 21
1.0
 31
0.0
  0
LINE
  5
367
  8
MyLines
 10
48954.0
 20
0.0
 30
0.0
 11
48954.0
 21
89.5
 31
0.0
  0
LINE
  5
368
  8
MyLines
 10
49162.0
 20
85.0
 30
0.0
 11
49720.0
 21
85.0
 31
0.0
  0
LINE
  5
369
  8
MyLines
 10
49162.0
 20
0.0
 30
0.0
 11
49720.0
 21
0.0
 31
0.0
  0
LINE
  5
36A
  8
MyLines
 10
49162.0
 20
0.0
 30
0.0
 11
49162.0
 21
85.0
 31
0.0
  0
LINE
  5
36B
  8
MyLines
 10
49720.0
 20
0.0
 30
0.0
 11
49720.0
 21
85.0
 31
0.0
  0
TEXT
  5
36C
  8
MyLines
 62
1
 10
49442.0
 20
1.0
 30
0.0
 40
1.0
  1
7604-B
 11
49442.0
 21
1.0
 31
0.0
  0
TEXT
  5
36D
  8
MyLines
 62
1
 10
49163.0
 20
1.0
 30
0.0
 40
1.0
  1
7604-A
 11
49163.0
 21
1.0
 31
0.0
  0
LINE
  5
36E
  8
MyLines
 10
49441.0
 20
0.0
 30
0.0
 11
49441.0
 21
85.0
 31
0.0
  0
LINE
  5
36F
  8
MyLines
 10
49722.0
 20
86.0
 30
0.0
 11
50116.0
 21
86.0
 31
0.0
  0
LINE
  5
370
  8
MyLines
 10
49722.0
 20
0.0
 30
0.0
 11
50116.0
 21
0.0
 31
0.0
  0
LINE
  5
371
  8
MyLines
 10
49722.0
 20
0.0
 30
0.0
 11
49722.0
 21
86.0
 31
0.0
  0
LINE
  5
372
  8
MyLines
 10
50116.0
 20
0.0
 30
0.0
 11
50116.0
 21
86.0
 31
0.0
  0
TEXT
  5
373
  8
MyLines
 62
1
 10
49920.0
 20
1.0
 30
0.0
 40
1.0
  1
7605-B
 11
49920.0
 21
1.0
 31
0.0
  0
TEXT
  5
374
  8
MyLines
 62
1
 10
49723.0
 20
1.0
 30
0.0
 40
1.0
  1
7605-A
 11
49723.0
 21
1.0
 31
0.0
  0
LINE
  5
375
  8
MyLines
 10
49919.0
 20
0.0
 30
0.0
 11
49919.0
 21
86.0
 31
0.0
  0
LINE
  5
376
  8
MyLines
 10
50118.0
 20
88.5
 30
0.0
 11
50532.0
 21
88.5
 31
0.0
  0
LINE
  5
377
  8
MyLines
 10
50118.0
 20
0.0
 30
0.0
 11
50532.0
 21
0.0
 31
0.0
  0
LINE
  5
378
  8
MyLines
 10
50118.0
 20
0.0
 30
0.0
 11
50118.0
 21
88.5
 31
0.0
  0
LINE
  5
379
  8
MyLines
 10
50532.0
 20
0.0
 30
0.0
 11
50532.0
 21
88.5
 31
0.0
  0
TEXT
  5
37A
  8
MyLines
 62
1
 10
50326.0
 20
1.0
 30
0.0
 40
1.0
  1
7606-B
 11
50326.0
 21
1.0
 31
0.0
  0
TEXT
  5
37B
  8
MyLines
 62
1
 10
50119.0
 20
1.0
 30
0.0
 40
1.0
  1
7606-A
 11
50119.0
 21
1.0
 31
0.0
  0
LINE
  5
37C
  8
MyLines
 10
50325.0
 20
0.0
 30
0.0
 11
50325.0
 21
88.5
 31
0.0
  0
LINE
  5
37D
  8
MyLines
 10
50534.0
 20
53.0
 30
0.0
 11
51024.0
 21
53.0
 31
0.0
  0
LINE
  5
37E
  8
MyLines
 10
50534.0
 20
0.0
 30
0.0
 11
51024.0
 21
0.0
 31
0.0
  0
LINE
  5
37F
  8
MyLines
 10
50534.0
 20
0.0
 30
0.0
 11
50534.0
 21
53.0
 31
0.0
  0
LINE
  5
380
  8
MyLines
 10
51024.0
 20
0.0
 30
0.0
 11
51024.0
 21
53.0
 31
0.0
  0
TEXT
  5
381
  8
MyLines
 62
1
 10
50780.0
 20
1.0
 30
0.0
 40
1.0
  1
7607-B
 11
50780.0
 21
1.0
 31
0.0
  0
TEXT
  5
382
  8
MyLines
 62
1
 10
50535.0
 20
1.0
 30
0.0
 40
1.0
  1
7607-A
 11
50535.0
 21
1.0
 31
0.0
  0
LINE
  5
383
  8
MyLines
 10
50779.0
 20
0.0
 30
0.0
 11
50779.0
 21
53.0
 31
0.0
  0
LINE
  5
384
  8
MyLines
 10
51026.0
 20
70.0
 30
0.0
 11
51388.0
 21
70.0
 31
0.0
  0
LINE
  5
385
  8
MyLines
 10
51026.0
 20
0.0
 30
0.0
 11
51388.0
 21
0.0
 31
0.0
  0
LINE
  5
386
  8
MyLines
 10
51026.0
 20
0.0
 30
0.0
 11
51026.0
 21
70.0
 31
0.0
  0
LINE
  5
387
  8
MyLines
 10
51388.0
 20
0.0
 30
0.0
 11
51388.0
 21
70.0
 31
0.0
  0
TEXT
  5
388
  8
MyLines
 62
1
 10
51208.0
 20
1.0
 30
0.0
 40
1.0
  1
7608-B
 11
51208.0
 21
1.0
 31
0.0
  0
TEXT
  5
389
  8
MyLines
 62
1
 10
51027.0
 20
1.0
 30
0.0
 40
1.0
  1
7608-A
 11
51027.0
 21
1.0
 31
0.0
  0
LINE
  5
38A
  8
MyLines
 10
51207.0
 20
0.0
 30
0.0
 11
51207.0
 21
70.0
 31
0.0
  0
LINE
  5
38B
  8
MyLines
 10
51390.0
 20
62.0
 30
0.0
 11
51964.0
 21
62.0
 31
0.0
  0
LINE
  5
38C
  8
MyLines
 10
51390.0
 20
0.0
 30
0.0
 11
51964.0
 21
0.0
 31
0.0
  0
LINE
  5
38D
  8
MyLines
 10
51390.0
 20
0.0
 30
0.0
 11
51390.0
 21
62.0
 31
0.0
  0
LINE
  5
38E
  8
MyLines
 10
51964.0
 20
0.0
 30
0.0
 11
51964.0
 21
62.0
 31
0.0
  0
TEXT
  5
38F
  8
MyLines
 62
1
 10
51678.0
 20
1.0
 30
0.0
 40
1.0
  1
7609-B
 11
51678.0
 21
1.0
 31
0.0
  0
TEXT
  5
390
  8
MyLines
 62
1
 10
51391.0
 20
1.0
 30
0.0
 40
1.0
  1
7609-A
 11
51391.0
 21
1.0
 31
0.0
  0
LINE
  5
391
  8
MyLines
 10
51677.0
 20
0.0
 30
0.0
 11
51677.0
 21
62.0
 31
0.0
  0
LINE
  5
392
  8
MyLines
 10
51966.0
 20
76.0
 30
0.0
 11
52346.0
 21
76.0
 31
0.0
  0
LINE
  5
393
  8
MyLines
 10
51966.0
 20
0.0
 30
0.0
 11
52346.0
 21
0.0
 31
0.0
  0
LINE
  5
394
  8
MyLines
 10
51966.0
 20
0.0
 30
0.0
 11
51966.0
 21
76.0
 31
0.0
  0
LINE
  5
395
  8
MyLines
 10
52346.0
 20
0.0
 30
0.0
 11
52346.0
 21
76.0
 31
0.0
  0
TEXT
  5
396
  8
MyLines
 62
1
 10
52157.0
 20
1.0
 30
0.0
 40
1.0
  1
7610-B
 11
52157.0
 21
1.0
 31
0.0
  0
TEXT
  5
397
  8
MyLines
 62
1
 10
51967.0
 20
1.0
 30
0.0
 40
1.0
  1
7610-A
 11
51967.0
 21
1.0
 31
0.0
  0
LINE
  5
398
  8
MyLines
 10
52156.0
 20
0.0
 30
0.0
 11
52156.0
 21
76.0
 31
0.0
  0
LINE
  5
399
  8
MyLines
 10
52348.0
 20
88.0
 30
0.0
 11
52702.0
 21
88.0
 31
0.0
  0
LINE
  5
39A
  8
MyLines
 10
52348.0
 20
0.0
 30
0.0
 11
52702.0
 21
0.0
 31
0.0
  0
LINE
  5
39B
  8
MyLines
 10
52348.0
 20
0.0
 30
0.0
 11
52348.0
 21
88.0
 31
0.0
  0
LINE
  5
39C
  8
MyLines
 10
52702.0
 20
0.0
 30
0.0
 11
52702.0
 21
88.0
 31
0.0
  0
TEXT
  5
39D
  8
MyLines
 62
1
 10
52526.0
 20
1.0
 30
0.0
 40
1.0
  1
7611-B
 11
52526.0
 21
1.0
 31
0.0
  0
TEXT
  5
39E
  8
MyLines
 62
1
 10
52349.0
 20
1.0
 30
0.0
 40
1.0
  1
7611-A
 11
52349.0
 21
1.0
 31
0.0
  0
LINE
  5
39F
  8
MyLines
 10
52525.0
 20
0.0
 30
0.0
 11
52525.0
 21
88.0
 31
0.0
  0
LINE
  5
3A0
  8
MyLines
 10
52704.0
 20
61.0
 30
0.0
 11
53126.0
 21
61.0
 31
0.0
  0
LINE
  5
3A1
  8
MyLines
 10
52704.0
 20
0.0
 30
0.0
 11
53126.0
 21
0.0
 31
0.0
  0
LINE
  5
3A2
  8
MyLines
 10
52704.0
 20
0.0
 30
0.0
 11
52704.0
 21
61.0
 31
0.0
  0
LINE
  5
3A3
  8
MyLines
 10
53126.0
 20
0.0
 30
0.0
 11
53126.0
 21
61.0
 31
0.0
  0
TEXT
  5
3A4
  8
MyLines
 62
1
 10
52916.0
 20
1.0
 30
0.0
 40
1.0
  1
7612-B
 11
52916.0
 21
1.0
 31
0.0
  0
TEXT
  5
3A5
  8
MyLines
 62
1
 10
52705.0
 20
1.0
 30
0.0
 40
1.0
  1
7612-A
 11
52705.0
 21
1.0
 31
0.0
  0
LINE
  5
3A6
  8
MyLines
 10
52915.0
 20
0.0
 30
0.0
 11
52915.0
 21
61.0
 31
0.0
  0
LINE
  5
3A7
  8
MyLines
 10
53128.0
 20
76.5
 30
0.0
 11
53672.0
 21
76.5
 31
0.0
  0
LINE
  5
3A8
  8
MyLines
 10
53128.0
 20
0.0
 30
0.0
 11
53672.0
 21
0.0
 31
0.0
  0
LINE
  5
3A9
  8
MyLines
 10
53128.0
 20
0.0
 30
0.0
 11
53128.0
 21
76.5
 31
0.0
  0
LINE
  5
3AA
  8
MyLines
 10
53672.0
 20
0.0
 30
0.0
 11
53672.0
 21
76.5
 31
0.0
  0
TEXT
  5
3AB
  8
MyLines
 62
1
 10
53401.0
 20
1.0
 30
0.0
 40
1.0
  1
7613-B
 11
53401.0
 21
1.0
 31
0.0
  0
TEXT
  5
3AC
  8
MyLines
 62
1
 10
53129.0
 20
1.0
 30
0.0
 40
1.0
  1
7613-A
 11
53129.0
 21
1.0
 31
0.0
  0
LINE
  5
3AD
  8
MyLines
 10
53400.0
 20
0.0
 30
0.0
 11
53400.0
 21
76.5
 31
0.0
  0
LINE
  5
3AE
  8
MyLines
 10
53674.0
 20
85.5
 30
0.0
 11
54074.0
 21
85.5
 31
0.0
  0
LINE
  5
3AF
  8
MyLines
 10
53674.0
 20
0.0
 30
0.0
 11
54074.0
 21
0.0
 31
0.0
  0
LINE
  5
3B0
  8
MyLines
 10
53674.0
 20
0.0
 30
0.0
 11
53674.0
 21
85.5
 31
0.0
  0
LINE
  5
3B1
  8
MyLines
 10
54074.0
 20
0.0
 30
0.0
 11
54074.0
 21
85.5
 31
0.0
  0
TEXT
  5
3B2
  8
MyLines
 62
1
 10
53875.0
 20
1.0
 30
0.0
 40
1.0
  1
7614-B
 11
53875.0
 21
1.0
 31
0.0
  0
TEXT
  5
3B3
  8
MyLines
 62
1
 10
53675.0
 20
1.0
 30
0.0
 40
1.0
  1
7614-A
 11
53675.0
 21
1.0
 31
0.0
  0
LINE
  5
3B4
  8
MyLines
 10
53874.0
 20
0.0
 30
0.0
 11
53874.0
 21
85.5
 31
0.0
  0
LINE
  5
3B5
  8
MyLines
 10
54076.0
 20
73.5
 30
0.0
 11
54598.0
 21
73.5
 31
0.0
  0
LINE
  5
3B6
  8
MyLines
 10
54076.0
 20
0.0
 30
0.0
 11
54598.0
 21
0.0
 31
0.0
  0
LINE
  5
3B7
  8
MyLines
 10
54076.0
 20
0.0
 30
0.0
 11
54076.0
 21
73.5
 31
0.0
  0
LINE
  5
3B8
  8
MyLines
 10
54598.0
 20
0.0
 30
0.0
 11
54598.0
 21
73.5
 31
0.0
  0
TEXT
  5
3B9
  8
MyLines
 62
1
 10
54338.0
 20
1.0
 30
0.0
 40
1.0
  1
7615-B
 11
54338.0
 21
1.0
 31
0.0
  0
TEXT
  5
3BA
  8
MyLines
 62
1
 10
54077.0
 20
1.0
 30
0.0
 40
1.0
  1
7615-A
 11
54077.0
 21
1.0
 31
0.0
  0
LINE
  5
3BB
  8
MyLines
 10
54337.0
 20
0.0
 30
0.0
 11
54337.0
 21
73.5
 31
0.0
  0
LINE
  5
3BC
  8
MyLines
 10
54600.0
 20
83.0
 30
0.0
 11
55044.0
 21
83.0
 31
0.0
  0
LINE
  5
3BD
  8
MyLines
 10
54600.0
 20
0.0
 30
0.0
 11
55044.0
 21
0.0
 31
0.0
  0
LINE
  5
3BE
  8
MyLines
 10
54600.0
 20
0.0
 30
0.0
 11
54600.0
 21
83.0
 31
0.0
  0
LINE
  5
3BF
  8
MyLines
 10
55044.0
 20
0.0
 30
0.0
 11
55044.0
 21
83.0
 31
0.0
  0
TEXT
  5
3C0
  8
MyLines
 62
1
 10
54823.0
 20
1.0
 30
0.0
 40
1.0
  1
7616-B
 11
54823.0
 21
1.0
 31
0.0
  0
TEXT
  5
3C1
  8
MyLines
 62
1
 10
54601.0
 20
1.0
 30
0.0
 40
1.0
  1
7616-A
 11
54601.0
 21
1.0
 31
0.0
  0
LINE
  5
3C2
  8
MyLines
 10
54822.0
 20
0.0
 30
0.0
 11
54822.0
 21
83.0
 31
0.0
  0
LINE
  5
3C3
  8
MyLines
 10
55046.0
 20
49.5
 30
0.0
 11
55620.0
 21
49.5
 31
0.0
  0
LINE
  5
3C4
  8
MyLines
 10
55046.0
 20
0.0
 30
0.0
 11
55620.0
 21
0.0
 31
0.0
  0
LINE
  5
3C5
  8
MyLines
 10
55046.0
 20
0.0
 30
0.0
 11
55046.0
 21
49.5
 31
0.0
  0
LINE
  5
3C6
  8
MyLines
 10
55620.0
 20
0.0
 30
0.0
 11
55620.0
 21
49.5
 31
0.0
  0
TEXT
  5
3C7
  8
MyLines
 62
1
 10
55334.0
 20
1.0
 30
0.0
 40
1.0
  1
7617-B
 11
55334.0
 21
1.0
 31
0.0
  0
TEXT
  5
3C8
  8
MyLines
 62
1
 10
55047.0
 20
1.0
 30
0.0
 40
1.0
  1
7617-A
 11
55047.0
 21
1.0
 31
0.0
  0
LINE
  5
3C9
  8
MyLines
 10
55333.0
 20
0.0
 30
0.0
 11
55333.0
 21
49.5
 31
0.0
  0
LINE
  5
3CA
  8
MyLines
 10
55622.0
 20
59.5
 30
0.0
 11
56050.0
 21
59.5
 31
0.0
  0
LINE
  5
3CB
  8
MyLines
 10
55622.0
 20
0.0
 30
0.0
 11
56050.0
 21
0.0
 31
0.0
  0
LINE
  5
3CC
  8
MyLines
 10
55622.0
 20
0.0
 30
0.0
 11
55622.0
 21
59.5
 31
0.0
  0
LINE
  5
3CD
  8
MyLines
 10
56050.0
 20
0.0
 30
0.0
 11
56050.0
 21
59.5
 31
0.0
  0
TEXT
  5
3CE
  8
MyLines
 62
1
 10
55837.0
 20
1.0
 30
0.0
 40
1.0
  1
7618-B
 11
55837.0
 21
1.0
 31
0.0
  0
TEXT
  5
3CF
  8
MyLines
 62
1
 10
55623.0
 20
1.0
 30
0.0
 40
1.0
  1
7618-A
 11
55623.0
 21
1.0
 31
0.0
  0
LINE
  5
3D0
  8
MyLines
 10
55836.0
 20
0.0
 30
0.0
 11
55836.0
 21
59.5
 31
0.0
  0
LINE
  5
3D1
  8
MyLines
 10
56052.0
 20
82.5
 30
0.0
 11
56628.0
 21
82.5
 31
0.0
  0
LINE
  5
3D2
  8
MyLines
 10
56052.0
 20
0.0
 30
0.0
 11
56628.0
 21
0.0
 31
0.0
  0
LINE
  5
3D3
  8
MyLines
 10
56052.0
 20
0.0
 30
0.0
 11
56052.0
 21
82.5
 31
0.0
  0
LINE
  5
3D4
  8
MyLines
 10
56628.0
 20
0.0
 30
0.0
 11
56628.0
 21
82.5
 31
0.0
  0
TEXT
  5
3D5
  8
MyLines
 62
1
 10
56341.0
 20
1.0
 30
0.0
 40
1.0
  1
7619-B
 11
56341.0
 21
1.0
 31
0.0
  0
TEXT
  5
3D6
  8
MyLines
 62
1
 10
56053.0
 20
1.0
 30
0.0
 40
1.0
  1
7619-A
 11
56053.0
 21
1.0
 31
0.0
  0
LINE
  5
3D7
  8
MyLines
 10
56340.0
 20
0.0
 30
0.0
 11
56340.0
 21
82.5
 31
0.0
  0
LINE
  5
3D8
  8
MyLines
 10
56630.0
 20
85.5
 30
0.0
 11
57078.0
 21
85.5
 31
0.0
  0
LINE
  5
3D9
  8
MyLines
 10
56630.0
 20
0.0
 30
0.0
 11
57078.0
 21
0.0
 31
0.0
  0
LINE
  5
3DA
  8
MyLines
 10
56630.0
 20
0.0
 30
0.0
 11
56630.0
 21
85.5
 31
0.0
  0
LINE
  5
3DB
  8
MyLines
 10
57078.0
 20
0.0
 30
0.0
 11
57078.0
 21
85.5
 31
0.0
  0
TEXT
  5
3DC
  8
MyLines
 62
1
 10
56855.0
 20
1.0
 30
0.0
 40
1.0
  1
7620-B
 11
56855.0
 21
1.0
 31
0.0
  0
TEXT
  5
3DD
  8
MyLines
 62
1
 10
56631.0
 20
1.0
 30
0.0
 40
1.0
  1
7620-A
 11
56631.0
 21
1.0
 31
0.0
  0
LINE
  5
3DE
  8
MyLines
 10
56854.0
 20
0.0
 30
0.0
 11
56854.0
 21
85.5
 31
0.0
  0
LINE
  5
3DF
  8
MyLines
 10
57080.0
 20
36.5
 30
0.0
 11
57520.0
 21
36.5
 31
0.0
  0
LINE
  5
3E0
  8
MyLines
 10
57080.0
 20
0.0
 30
0.0
 11
57520.0
 21
0.0
 31
0.0
  0
LINE
  5
3E1
  8
MyLines
 10
57080.0
 20
0.0
 30
0.0
 11
57080.0
 21
36.5
 31
0.0
  0
LINE
  5
3E2
  8
MyLines
 10
57520.0
 20
0.0
 30
0.0
 11
57520.0
 21
36.5
 31
0.0
  0
TEXT
  5
3E3
  8
MyLines
 62
1
 10
57301.0
 20
1.0
 30
0.0
 40
1.0
  1
7621-B
 11
57301.0
 21
1.0
 31
0.0
  0
TEXT
  5
3E4
  8
MyLines
 62
1
 10
57081.0
 20
1.0
 30
0.0
 40
1.0
  1
7621-A
 11
57081.0
 21
1.0
 31
0.0
  0
LINE
  5
3E5
  8
MyLines
 10
57300.0
 20
0.0
 30
0.0
 11
57300.0
 21
36.5
 31
0.0
  0
LINE
  5
3E6
  8
MyLines
 10
57522.0
 20
72.5
 30
0.0
 11
57954.0
 21
72.5
 31
0.0
  0
LINE
  5
3E7
  8
MyLines
 10
57522.0
 20
0.0
 30
0.0
 11
57954.0
 21
0.0
 31
0.0
  0
LINE
  5
3E8
  8
MyLines
 10
57522.0
 20
0.0
 30
0.0
 11
57522.0
 21
72.5
 31
0.0
  0
LINE
  5
3E9
  8
MyLines
 10
57954.0
 20
0.0
 30
0.0
 11
57954.0
 21
72.5
 31
0.0
  0
TEXT
  5
3EA
  8
MyLines
 62
1
 10
57739.0
 20
1.0
 30
0.0
 40
1.0
  1
7622-B
 11
57739.0
 21
1.0
 31
0.0
  0
TEXT
  5
3EB
  8
MyLines
 62
1
 10
57523.0
 20
1.0
 30
0.0
 40
1.0
  1
7622-A
 11
57523.0
 21
1.0
 31
0.0
  0
LINE
  5
3EC
  8
MyLines
 10
57738.0
 20
0.0
 30
0.0
 11
57738.0
 21
72.5
 31
0.0
  0
LINE
  5
3ED
  8
MyLines
 10
57956.0
 20
55.5
 30
0.0
 11
58422.0
 21
55.5
 31
0.0
  0
LINE
  5
3EE
  8
MyLines
 10
57956.0
 20
0.0
 30
0.0
 11
58422.0
 21
0.0
 31
0.0
  0
LINE
  5
3EF
  8
MyLines
 10
57956.0
 20
0.0
 30
0.0
 11
57956.0
 21
55.5
 31
0.0
  0
LINE
  5
3F0
  8
MyLines
 10
58422.0
 20
0.0
 30
0.0
 11
58422.0
 21
55.5
 31
0.0
  0
TEXT
  5
3F1
  8
MyLines
 62
1
 10
58190.0
 20
1.0
 30
0.0
 40
1.0
  1
7623-B
 11
58190.0
 21
1.0
 31
0.0
  0
TEXT
  5
3F2
  8
MyLines
 62
1
 10
57957.0
 20
1.0
 30
0.0
 40
1.0
  1
7623-A
 11
57957.0
 21
1.0
 31
0.0
  0
LINE
  5
3F3
  8
MyLines
 10
58189.0
 20
0.0
 30
0.0
 11
58189.0
 21
55.5
 31
0.0
  0
LINE
  5
3F4
  8
MyLines
 10
58424.0
 20
68.0
 30
0.0
 11
58974.0
 21
68.0
 31
0.0
  0
LINE
  5
3F5
  8
MyLines
 10
58424.0
 20
0.0
 30
0.0
 11
58974.0
 21
0.0
 31
0.0
  0
LINE
  5
3F6
  8
MyLines
 10
58424.0
 20
0.0
 30
0.0
 11
58424.0
 21
68.0
 31
0.0
  0
LINE
  5
3F7
  8
MyLines
 10
58974.0
 20
0.0
 30
0.0
 11
58974.0
 21
68.0
 31
0.0
  0
TEXT
  5
3F8
  8
MyLines
 62
1
 10
58700.0
 20
1.0
 30
0.0
 40
1.0
  1
7624-B
 11
58700.0
 21
1.0
 31
0.0
  0
TEXT
  5
3F9
  8
MyLines
 62
1
 10
58425.0
 20
1.0
 30
0.0
 40
1.0
  1
7624-A
 11
58425.0
 21
1.0
 31
0.0
  0
LINE
  5
3FA
  8
MyLines
 10
58699.0
 20
0.0
 30
0.0
 11
58699.0
 21
68.0
 31
0.0
  0
LINE
  5
3FB
  8
MyLines
 10
58976.0
 20
82.5
 30
0.0
 11
59558.0
 21
82.5
 31
0.0
  0
LINE
  5
3FC
  8
MyLines
 10
58976.0
 20
0.0
 30
0.0
 11
59558.0
 21
0.0
 31
0.0
  0
LINE
  5
3FD
  8
MyLines
 10
58976.0
 20
0.0
 30
0.0
 11
58976.0
 21
82.5
 31
0.0
  0
LINE
  5
3FE
  8
MyLines
 10
59558.0
 20
0.0
 30
0.0
 11
59558.0
 21
82.5
 31
0.0
  0
TEXT
  5
3FF
  8
MyLines
 62
1
 10
59268.0
 20
1.0
 30
0.0
 40
1.0
  1
7625-B
 11
59268.0
 21
1.0
 31
0.0
  0
TEXT
  5
400
  8
MyLines
 62
1
 10
58977.0
 20
1.0
 30
0.0
 40
1.0
  1
7625-A
 11
58977.0
 21
1.0
 31
0.0
  0
LINE
  5
401
  8
MyLines
 10
59267.0
 20
0.0
 30
0.0
 11
59267.0
 21
82.5
 31
0.0
  0
LINE
  5
402
  8
MyLines
 10
59560.0
 20
74.0
 30
0.0
 11
60000.0
 21
74.0
 31
0.0
  0
LINE
  5
403
  8
MyLines
 10
59560.0
 20
0.0
 30
0.0
 11
60000.0
 21
0.0
 31
0.0
  0
LINE
  5
404
  8
MyLines
 10
59560.0
 20
0.0
 30
0.0
 11
59560.0
 21
74.0
 31
0.0
  0
LINE
  5
405
  8
MyLines
 10
60000.0
 20
0.0
 30
0.0
 11
60000.0
 21
74.0
 31
0.0
  0
TEXT
  5
406
  8
MyLines
 62
1
 10
59781.0
 20
1.0
 30
0.0
 40
1.0
  1
7626-B
 11
59781.0
 21
1.0
 31
0.0
  0
TEXT
  5
407
  8
MyLines
 62
1
 10
59561.0
 20
1.0
 30
0.0
 40
1.0
  1
7626-A
 11
59561.0
 21
1.0
 31
0.0
  0
LINE
  5
408
  8
MyLines
 10
59780.0
 20
0.0
 30
0.0
 11
59780.0
 21
74.0
 31
0.0
  0
LINE
  5
409
  8
MyLines
 10
60002.0
 20
41.0
 30
0.0
 11
60380.0
 21
41.0
 31
0.0
  0
LINE
  5
40A
  8
MyLines
 10
60002.0
 20
0.0
 30
0.0
 11
60380.0
 21
0.0
 31
0.0
  0
LINE
  5
40B
  8
MyLines
 10
60002.0
 20
0.0
 30
0.0
 11
60002.0
 21
41.0
 31
0.0
  0
LINE
  5
40C
  8
MyLines
 10
60380.0
 20
0.0
 30
0.0
 11
60380.0
 21
41.0
 31
0.0
  0
TEXT
  5
40D
  8
MyLines
 62
1
 10
60192.0
 20
1.0
 30
0.0
 40
1.0
  1
7627-B
 11
60192.0
 21
1.0
 31
0.0
  0
TEXT
  5
40E
  8
MyLines
 62
1
 10
60003.0
 20
1.0
 30
0.0
 40
1.0
  1
7627-A
 11
60003.0
 21
1.0
 31
0.0
  0
LINE
  5
40F
  8
MyLines
 10
60191.0
 20
0.0
 30
0.0
 11
60191.0
 21
41.0
 31
0.0
  0
LINE
  5
410
  8
MyLines
 10
60382.0
 20
69.5
 30
0.0
 11
60804.0
 21
69.5
 31
0.0
  0
LINE
  5
411
  8
MyLines
 10
60382.0
 20
0.0
 30
0.0
 11
60804.0
 21
0.0
 31
0.0
  0
LINE
  5
412
  8
MyLines
 10
60382.0
 20
0.0
 30
0.0
 11
60382.0
 21
69.5
 31
0.0
  0
LINE
  5
413
  8
MyLines
 10
60804.0
 20
0.0
 30
0.0
 11
60804.0
 21
69.5
 31
0.0
  0
TEXT
  5
414
  8
MyLines
 62
1
 10
60594.0
 20
1.0
 30
0.0
 40
1.0
  1
7628-B
 11
60594.0
 21
1.0
 31
0.0
  0
TEXT
  5
415
  8
MyLines
 62
1
 10
60383.0
 20
1.0
 30
0.0
 40
1.0
  1
7628-A
 11
60383.0
 21
1.0
 31
0.0
  0
LINE
  5
416
  8
MyLines
 10
60593.0
 20
0.0
 30
0.0
 11
60593.0
 21
69.5
 31
0.0
  0
LINE
  5
417
  8
MyLines
 10
60806.0
 20
60.5
 30
0.0
 11
61348.0
 21
60.5
 31
0.0
  0
LINE
  5
418
  8
MyLines
 10
60806.0
 20
0.0
 30
0.0
 11
61348.0
 21
0.0
 31
0.0
  0
LINE
  5
419
  8
MyLines
 10
60806.0
 20
0.0
 30
0.0
 11
60806.0
 21
60.5
 31
0.0
  0
LINE
  5
41A
  8
MyLines
 10
61348.0
 20
0.0
 30
0.0
 11
61348.0
 21
60.5
 31
0.0
  0
TEXT
  5
41B
  8
MyLines
 62
1
 10
61078.0
 20
1.0
 30
0.0
 40
1.0
  1
7629-B
 11
61078.0
 21
1.0
 31
0.0
  0
TEXT
  5
41C
  8
MyLines
 62
1
 10
60807.0
 20
1.0
 30
0.0
 40
1.0
  1
7629-A
 11
60807.0
 21
1.0
 31
0.0
  0
LINE
  5
41D
  8
MyLines
 10
61077.0
 20
0.0
 30
0.0
 11
61077.0
 21
60.5
 31
0.0
  0
LINE
  5
41E
  8
MyLines
 10
61350.0
 20
44.5
 30
0.0
 11
61708.0
 21
44.5
 31
0.0
  0
LINE
  5
41F
  8
MyLines
 10
61350.0
 20
0.0
 30
0.0
 11
61708.0
 21
0.0
 31
0.0
  0
LINE
  5
420
  8
MyLines
 10
61350.0
 20
0.0
 30
0.0
 11
61350.0
 21
44.5
 31
0.0
  0
LINE
  5
421
  8
MyLines
 10
61708.0
 20
0.0
 30
0.0
 11
61708.0
 21
44.5
 31
0.0
  0
TEXT
  5
422
  8
MyLines
 62
1
 10
61530.0
 20
1.0
 30
0.0
 40
1.0
  1
7630-B
 11
61530.0
 21
1.0
 31
0.0
  0
TEXT
  5
423
  8
MyLines
 62
1
 10
61351.0
 20
1.0
 30
0.0
 40
1.0
  1
7630-A
 11
61351.0
 21
1.0
 31
0.0
  0
LINE
  5
424
  8
MyLines
 10
61529.0
 20
0.0
 30
0.0
 11
61529.0
 21
44.5
 31
0.0
  0
LINE
  5
425
  8
MyLines
 10
61710.0
 20
72.5
 30
0.0
 11
62196.0
 21
72.5
 31
0.0
  0
LINE
  5
426
  8
MyLines
 10
61710.0
 20
0.0
 30
0.0
 11
62196.0
 21
0.0
 31
0.0
  0
LINE
  5
427
  8
MyLines
 10
61710.0
 20
0.0
 30
0.0
 11
61710.0
 21
72.5
 31
0.0
  0
LINE
  5
428
  8
MyLines
 10
62196.0
 20
0.0
 30
0.0
 11
62196.0
 21
72.5
 31
0.0
  0
TEXT
  5
429
  8
MyLines
 62
1
 10
61954.0
 20
1.0
 30
0.0
 40
1.0
  1
7631-B
 11
61954.0
 21
1.0
 31
0.0
  0
TEXT
  5
42A
  8
MyLines
 62
1
 10
61711.0
 20
1.0
 30
0.0
 40
1.0
  1
7631-A
 11
61711.0
 21
1.0
 31
0.0
  0
LINE
  5
42B
  8
MyLines
 10
61953.0
 20
0.0
 30
0.0
 11
61953.0
 21
72.5
 31
0.0
  0
LINE
  5
42C
  8
MyLines
 10
62198.0
 20
82.5
 30
0.0
 11
62774.0
 21
82.5
 31
0.0
  0
LINE
  5
42D
  8
MyLines
 10
62198.0
 20
0.0
 30
0.0
 11
62774.0
 21
0.0
 31
0.0
  0
LINE
  5
42E
  8
MyLines
 10
62198.0
 20
0.0
 30
0.0
 11
62198.0
 21
82.5
 31
0.0
  0
LINE
  5
42F
  8
MyLines
 10
62774.0
 20
0.0
 30
0.0
 11
62774.0
 21
82.5
 31
0.0
  0
TEXT
  5
430
  8
MyLines
 62
1
 10
62487.0
 20
1.0
 30
0.0
 40
1.0
  1
7632-B
 11
62487.0
 21
1.0
 31
0.0
  0
TEXT
  5
431
  8
MyLines
 62
1
 10
62199.0
 20
1.0
 30
0.0
 40
1.0
  1
7632-A
 11
62199.0
 21
1.0
 31
0.0
  0
LINE
  5
432
  8
MyLines
 10
62486.0
 20
0.0
 30
0.0
 11
62486.0
 21
82.5
 31
0.0
  0
LINE
  5
433
  8
MyLines
 10
62776.0
 20
57.5
 30
0.0
 11
63362.0
 21
57.5
 31
0.0
  0
LINE
  5
434
  8
MyLines
 10
62776.0
 20
0.0
 30
0.0
 11
63362.0
 21
0.0
 31
0.0
  0
LINE
  5
435
  8
MyLines
 10
62776.0
 20
0.0
 30
0.0
 11
62776.0
 21
57.5
 31
0.0
  0
LINE
  5
436
  8
MyLines
 10
63362.0
 20
0.0
 30
0.0
 11
63362.0
 21
57.5
 31
0.0
  0
TEXT
  5
437
  8
MyLines
 62
1
 10
63070.0
 20
1.0
 30
0.0
 40
1.0
  1
7633-B
 11
63070.0
 21
1.0
 31
0.0
  0
TEXT
  5
438
  8
MyLines
 62
1
 10
62777.0
 20
1.0
 30
0.0
 40
1.0
  1
7633-A
 11
62777.0
 21
1.0
 31
0.0
  0
LINE
  5
439
  8
MyLines
 10
63069.0
 20
0.0
 30
0.0
 11
63069.0
 21
57.5
 31
0.0
  0
LINE
  5
43A
  8
MyLines
 10
63364.0
 20
49.0
 30
0.0
 11
63800.0
 21
49.0
 31
0.0
  0
LINE
  5
43B
  8
MyLines
 10
63364.0
 20
0.0
 30
0.0
 11
63800.0
 21
0.0
 31
0.0
  0
LINE
  5
43C
  8
MyLines
 10
63364.0
 20
0.0
 30
0.0
 11
63364.0
 21
49.0
 31
0.0
  0
LINE
  5
43D
  8
MyLines
 10
63800.0
 20
0.0
 30
0.0
 11
63800.0
 21
49.0
 31
0.0
  0
TEXT
  5
43E
  8
MyLines
 62
1
 10
63583.0
 20
1.0
 30
0.0
 40
1.0
  1
7634-B
 11
63583.0
 21
1.0
 31
0.0
  0
TEXT
  5
43F
  8
MyLines
 62
1
 10
63365.0
 20
1.0
 30
0.0
 40
1.0
  1
7634-A
 11
63365.0
 21
1.0
 31
0.0
  0
LINE
  5
440
  8
MyLines
 10
63582.0
 20
0.0
 30
0.0
 11
63582.0
 21
49.0
 31
0.0
  0
LINE
  5
441
  8
MyLines
 10
63802.0
 20
52.0
 30
0.0
 11
64356.0
 21
52.0
 31
0.0
  0
LINE
  5
442
  8
MyLines
 10
63802.0
 20
0.0
 30
0.0
 11
64356.0
 21
0.0
 31
0.0
  0
LINE
  5
443
  8
MyLines
 10
63802.0
 20
0.0
 30
0.0
 11
63802.0
 21
52.0
 31
0.0
  0
LINE
  5
444
  8
MyLines
 10
64356.0
 20
0.0
 30
0.0
 11
64356.0
 21
52.0
 31
0.0
  0
TEXT
  5
445
  8
MyLines
 62
1
 10
64080.0
 20
1.0
 30
0.0
 40
1.0
  1
7635-B
 11
64080.0
 21
1.0
 31
0.0
  0
TEXT
  5
446
  8
MyLines
 62
1
 10
63803.0
 20
1.0
 30
0.0
 40
1.0
  1
7635-A
 11
63803.0
 21
1.0
 31
0.0
  0
LINE
  5
447
  8
MyLines
 10
64079.0
 20
0.0
 30
0.0
 11
64079.0
 21
52.0
 31
0.0
  0
LINE
  5
448
  8
MyLines
 10
64358.0
 20
89.0
 30
0.0
 11
64774.0
 21
89.0
 31
0.0
  0
LINE
  5
449
  8
MyLines
 10
64358.0
 20
0.0
 30
0.0
 11
64774.0
 21
0.0
 31
0.0
  0
LINE
  5
44A
  8
MyLines
 10
64358.0
 20
0.0
 30
0.0
 11
64358.0
 21
89.0
 31
0.0
  0
LINE
  5
44B
  8
MyLines
 10
64774.0
 20
0.0
 30
0.0
 11
64774.0
 21
89.0
 31
0.0
  0
TEXT
  5
44C
  8
MyLines
 62
1
 10
64567.0
 20
1.0
 30
0.0
 40
1.0
  1
7636-B
 11
64567.0
 21
1.0
 31
0.0
  0
TEXT
  5
44D
  8
MyLines
 62
1
 10
64359.0
 20
1.0
 30
0.0
 40
1.0
  1
7636-A
 11
64359.0
 21
1.0
 31
0.0
  0
LINE
  5
44E
  8
MyLines
 10
64566.0
 20
0.0
 30
0.0
 11
64566.0
 21
89.0
 31
0.0
  0
LINE
  5
44F
  8
MyLines
 10
64776.0
 20
61.0
 30
0.0
 11
65236.0
 21
61.0
 31
0.0
  0
LINE
  5
450
  8
MyLines
 10
64776.0
 20
0.0
 30
0.0
 11
65236.0
 21
0.0
 31
0.0
  0
LINE
  5
451
  8
MyLines
 10
64776.0
 20
0.0
 30
0.0
 11
64776.0
 21
61.0
 31
0.0
  0
LINE
  5
452
  8
MyLines
 10
65236.0
 20
0.0
 30
0.0
 11
65236.0
 21
61.0
 31
0.0
  0
TEXT
  5
453
  8
MyLines
 62
1
 10
65007.0
 20
1.0
 30
0.0
 40
1.0
  1
7637-B
 11
65007.0
 21
1.0
 31
0.0
  0
TEXT
  5
454
  8
MyLines
 62
1
 10
64777.0
 20
1.0
 30
0.0
 40
1.0
  1
7637-A
 11
64777.0
 21
1.0
 31
0.0
  0
LINE
  5
455
  8
MyLines
 10
65006.0
 20
0.0
 30
0.0
 11
65006.0
 21
61.0
 31
0.0
  0
LINE
  5
456
  8
MyLines
 10
65238.0
 20
90.0
 30
0.0
 11
65834.0
 21
90.0
 31
0.0
  0
LINE
  5
457
  8
MyLines
 10
65238.0
 20
0.0
 30
0.0
 11
65834.0
 21
0.0
 31
0.0
  0
LINE
  5
458
  8
MyLines
 10
65238.0
 20
0.0
 30
0.0
 11
65238.0
 21
90.0
 31
0.0
  0
LINE
  5
459
  8
MyLines
 10
65834.0
 20
0.0
 30
0.0
 11
65834.0
 21
90.0
 31
0.0
  0
TEXT
  5
45A
  8
MyLines
 62
1
 10
65537.0
 20
1.0
 30
0.0
 40
1.0
  1
7638-B
 11
65537.0
 21
1.0
 31
0.0
  0
TEXT
  5
45B
  8
MyLines
 62
1
 10
65239.0
 20
1.0
 30
0.0
 40
1.0
  1
7638-A
 11
65239.0
 21
1.0
 31
0.0
  0
LINE
  5
45C
  8
MyLines
 10
65536.0
 20
0.0
 30
0.0
 11
65536.0
 21
90.0
 31
0.0
  0
LINE
  5
45D
  8
MyLines
 10
65836.0
 20
87.0
 30
0.0
 11
66224.0
 21
87.0
 31
0.0
  0
LINE
  5
45E
  8
MyLines
 10
65836.0
 20
0.0
 30
0.0
 11
66224.0
 21
0.0
 31
0.0
  0
LINE
  5
45F
  8
MyLines
 10
65836.0
 20
0.0
 30
0.0
 11
65836.0
 21
87.0
 31
0.0
  0
LINE
  5
460
  8
MyLines
 10
66224.0
 20
0.0
 30
0.0
 11
66224.0
 21
87.0
 31
0.0
  0
TEXT
  5
461
  8
MyLines
 62
1
 10
66031.0
 20
1.0
 30
0.0
 40
1.0
  1
7639-B
 11
66031.0
 21
1.0
 31
0.0
  0
TEXT
  5
462
  8
MyLines
 62
1
 10
65837.0
 20
1.0
 30
0.0
 40
1.0
  1
7639-A
 11
65837.0
 21
1.0
 31
0.0
  0
LINE
  5
463
  8
MyLines
 10
66030.0
 20
0.0
 30
0.0
 11
66030.0
 21
87.0
 31
0.0
  0
LINE
  5
464
  8
MyLines
 10
66226.0
 20
47.5
 30
0.0
 11
66618.0
 21
47.5
 31
0.0
  0
LINE
  5
465
  8
MyLines
 10
66226.0
 20
0.0
 30
0.0
 11
66618.0
 21
0.0
 31
0.0
  0
LINE
  5
466
  8
MyLines
 10
66226.0
 20
0.0
 30
0.0
 11
66226.0
 21
47.5
 31
0.0
  0
LINE
  5
467
  8
MyLines
 10
66618.0
 20
0.0
 30
0.0
 11
66618.0
 21
47.5
 31
0.0
  0
TEXT
  5
468
  8
MyLines
 62
1
 10
66423.0
 20
1.0
 30
0.0
 40
1.0
  1
7640-B
 11
66423.0
 21
1.0
 31
0.0
  0
TEXT
  5
469
  8
MyLines
 62
1
 10
66227.0
 20
1.0
 30
0.0
 40
1.0
  1
7640-A
 11
66227.0
 21
1.0
 31
0.0
  0
LINE
  5
46A
  8
MyLines
 10
66422.0
 20
0.0
 30
0.0
 11
66422.0
 21
47.5
 31
0.0
  0
LINE
  5
46B
  8
MyLines
 10
66620.0
 20
48.5
 30
0.0
 11
67204.0
 21
48.5
 31
0.0
  0
LINE
  5
46C
  8
MyLines
 10
66620.0
 20
0.0
 30
0.0
 11
67204.0
 21
0.0
 31
0.0
  0
LINE
  5
46D
  8
MyLines
 10
66620.0
 20
0.0
 30
0.0
 11
66620.0
 21
48.5
 31
0.0
  0
LINE
  5
46E
  8
MyLines
 10
67204.0
 20
0.0
 30
0.0
 11
67204.0
 21
48.5
 31
0.0
  0
TEXT
  5
46F
  8
MyLines
 62
1
 10
66913.0
 20
1.0
 30
0.0
 40
1.0
  1
7641-B
 11
66913.0
 21
1.0
 31
0.0
  0
TEXT
  5
470
  8
MyLines
 62
1
 10
66621.0
 20
1.0
 30
0.0
 40
1.0
  1
7641-A
 11
66621.0
 21
1.0
 31
0.0
  0
LINE
  5
471
  8
MyLines
 10
66912.0
 20
0.0
 30
0.0
 11
66912.0
 21
48.5
 31
0.0
  0
LINE
  5
472
  8
MyLines
 10
67206.0
 20
56.5
 30
0.0
 11
67794.0
 21
56.5
 31
0.0
  0
LINE
  5
473
  8
MyLines
 10
67206.0
 20
0.0
 30
0.0
 11
67794.0
 21
0.0
 31
0.0
  0
LINE
  5
474
  8
MyLines
 10
67206.0
 20
0.0
 30
0.0
 11
67206.0
 21
56.5
 31
0.0
  0
LINE
  5
475
  8
MyLines
 10
67794.0
 20
0.0
 30
0.0
 11
67794.0
 21
56.5
 31
0.0
  0
TEXT
  5
476
  8
MyLines
 62
1
 10
67501.0
 20
1.0
 30
0.0
 40
1.0
  1
7642-B
 11
67501.0
 21
1.0
 31
0.0
  0
TEXT
  5
477
  8
MyLines
 62
1
 10
67207.0
 20
1.0
 30
0.0
 40
1.0
  1
7642-A
 11
67207.0
 21
1.0
 31
0.0
  0
LINE
  5
478
  8
MyLines
 10
67500.0
 20
0.0
 30
0.0
 11
67500.0
 21
56.5
 31
0.0
  0
LINE
  5
479
  8
MyLines
 10
67796.0
 20
68.0
 30
0.0
 11
68190.0
 21
68.0
 31
0.0
  0
LINE
  5
47A
  8
MyLines
 10
67796.0
 20
0.0
 30
0.0
 11
68190.0
 21
0.0
 31
0.0
  0
LINE
  5
47B
  8
MyLines
 10
67796.0
 20
0.0
 30
0.0
 11
67796.0
 21
68.0
 31
0.0
  0
LINE
  5
47C
  8
MyLines
 10
68190.0
 20
0.0
 30
0.0
 11
68190.0
 21
68.0
 31
0.0
  0
TEXT
  5
47D
  8
MyLines
 62
1
 10
67994.0
 20
1.0
 30
0.0
 40
1.0
  1
7643-B
 11
67994.0
 21
1.0
 31
0.0
  0
TEXT
  5
47E
  8
MyLines
 62
1
 10
67797.0
 20
1.0
 30
0.0
 40
1.0
  1
7643-A
 11
67797.0
 21
1.0
 31
0.0
  0
LINE
  5
47F
  8
MyLines
 10
67993.0
 20
0.0
 30
0.0
 11
67993.0
 21
68.0
 31
0.0
  0
LINE
  5
480
  8
MyLines
 10
68192.0
 20
84.0
 30
0.0
 11
68610.0
 21
84.0
 31
0.0
  0
LINE
  5
481
  8
MyLines
 10
68192.0
 20
0.0
 30
0.0
 11
68610.0
 21
0.0
 31
0.0
  0
LINE
  5
482
  8
MyLines
 10
68192.0
 20
0.0
 30
0.0
 11
68192.0
 21
84.0
 31
0.0
  0
LINE
  5
483
  8
MyLines
 10
68610.0
 20
0.0
 30
0.0
 11
68610.0
 21
84.0
 31
0.0
  0
TEXT
  5
484
  8
MyLines
 62
1
 10
68402.0
 20
1.0
 30
0.0
 40
1.0
  1
7644-B
 11
68402.0
 21
1.0
 31
0.0
  0
TEXT
  5
485
  8
MyLines
 62
1
 10
68193.0
 20
1.0
 30
0.0
 40
1.0
  1
7644-A
 11
68193.0
 21
1.0
 31
0.0
  0
LINE
  5
486
  8
MyLines
 10
68401.0
 20
0.0
 30
0.0
 11
68401.0
 21
84.0
 31
0.0
  0
LINE
  5
487
  8
MyLines
 10
68612.0
 20
88.0
 30
0.0
 11
68976.0
 21
88.0
 31
0.0
  0
LINE
  5
488
  8
MyLines
 10
68612.0
 20
0.0
 30
0.0
 11
68976.0
 21
0.0
 31
0.0
  0
LINE
  5
489
  8
MyLines
 10
68612.0
 20
0.0
 30
0.0
 11
68612.0
 21
88.0
 31
0.0
  0
LINE
  5
48A
  8
MyLines
 10
68976.0
 20
0.0
 30
0.0
 11
68976.0
 21
88.0
 31
0.0
  0
TEXT
  5
48B
  8
MyLines
 62
1
 10
68795.0
 20
1.0
 30
0.0
 40
1.0
  1
7645-B
 11
68795.0
 21
1.0
 31
0.0
  0
TEXT
  5
48C
  8
MyLines
 62
1
 10
68613.0
 20
1.0
 30
0.0
 40
1.0
  1
7645-A
 11
68613.0
 21
1.0
 31
0.0
  0
LINE
  5
48D
  8
MyLines
 10
68794.0
 20
0.0
 30
0.0
 11
68794.0
 21
88.0
 31
0.0
  0
LINE
  5
48E
  8
MyLines
 10
68978.0
 20
38.5
 30
0.0
 11
69334.0
 21
38.5
 31
0.0
  0
LINE
  5
48F
  8
MyLines
 10
68978.0
 20
0.0
 30
0.0
 11
69334.0
 21
0.0
 31
0.0
  0
LINE
  5
490
  8
MyLines
 10
68978.0
 20
0.0
 30
0.0
 11
68978.0
 21
38.5
 31
0.0
  0
LINE
  5
491
  8
MyLines
 10
69334.0
 20
0.0
 30
0.0
 11
69334.0
 21
38.5
 31
0.0
  0
TEXT
  5
492
  8
MyLines
 62
1
 10
69157.0
 20
1.0
 30
0.0
 40
1.0
  1
7646-B
 11
69157.0
 21
1.0
 31
0.0
  0
TEXT
  5
493
  8
MyLines
 62
1
 10
68979.0
 20
1.0
 30
0.0
 40
1.0
  1
7646-A
 11
68979.0
 21
1.0
 31
0.0
  0
LINE
  5
494
  8
MyLines
 10
69156.0
 20
0.0
 30
0.0
 11
69156.0
 21
38.5
 31
0.0
  0
LINE
  5
495
  8
MyLines
 10
69336.0
 20
53.0
 30
0.0
 11
69868.0
 21
53.0
 31
0.0
  0
LINE
  5
496
  8
MyLines
 10
69336.0
 20
0.0
 30
0.0
 11
69868.0
 21
0.0
 31
0.0
  0
LINE
  5
497
  8
MyLines
 10
69336.0
 20
0.0
 30
0.0
 11
69336.0
 21
53.0
 31
0.0
  0
LINE
  5
498
  8
MyLines
 10
69868.0
 20
0.0
 30
0.0
 11
69868.0
 21
53.0
 31
0.0
  0
TEXT
  5
499
  8
MyLines
 62
1
 10
69603.0
 20
1.0
 30
0.0
 40
1.0
  1
7647-B
 11
69603.0
 21
1.0
 31
0.0
  0
TEXT
  5
49A
  8
MyLines
 62
1
 10
69337.0
 20
1.0
 30
0.0
 40
1.0
  1
7647-A
 11
69337.0
 21
1.0
 31
0.0
  0
LINE
  5
49B
  8
MyLines
 10
69602.0
 20
0.0
 30
0.0
 11
69602.0
 21
53.0
 31
0.0
  0
LINE
  5
49C
  8
MyLines
 10
69870.0
 20
37.0
 30
0.0
 11
70374.0
 21
37.0
 31
0.0
  0
LINE
  5
49D
  8
MyLines
 10
69870.0
 20
0.0
 30
0.0
 11
70374.0
 21
0.0
 31
0.0
  0
LINE
  5
49E
  8
MyLines
 10
69870.0
 20
0.0
 30
0.0
 11
69870.0
 21
37.0
 31
0.0
  0
LINE
  5
49F
  8
MyLines
 10
70374.0
 20
0.0
 30
0.0
 11
70374.0
 21
37.0
 31
0.0
  0
TEXT
  5
4A0
  8
MyLines
 62
1
 10
70123.0
 20
1.0
 30
0.0
 40
1.0
  1
7648-B
 11
70123.0
 21
1.0
 31
0.0
  0
TEXT
  5
4A1
  8
MyLines
 62
1
 10
69871.0
 20
1.0
 30
0.0
 40
1.0
  1
7648-A
 11
69871.0
 21
1.0
 31
0.0
  0
LINE
  5
4A2
  8
MyLines
 10
70122.0
 20
0.0
 30
0.0
 11
70122.0
 21
37.0
 31
0.0
  0
LINE
  5
4A3
  8
MyLines
 10
70376.0
 20
85.0
 30
0.0
 11
70890.0
 21
85.0
 31
0.0
  0
LINE
  5
4A4
  8
MyLines
 10
70376.0
 20
0.0
 30
0.0
 11
70890.0
 21
0.0
 31
0.0
  0
LINE
  5
4A5
  8
MyLines
 10
70376.0
 20
0.0
 30
0.0
 11
70376.0
 21
85.0
 31
0.0
  0
LINE
  5
4A6
  8
MyLines
 10
70890.0
 20
0.0
 30
0.0
 11
70890.0
 21
85.0
 31
0.0
  0
TEXT
  5
4A7
  8
MyLines
 62
1
 10
70634.0
 20
1.0
 30
0.0
 40
1.0
  1
7649-B
 11
70634.0
 21
1.0
 31
0.0
  0
TEXT
  5
4A8
  8
MyLines
 62
1
 10
70377.0
 20
1.0
 30
0.0
 40
1.0
  1
7649-A
 11
70377.0
 21
1.0
 31
0.0
  0
LINE
  5
4A9
  8
MyLines
 10
70633.0
 20
0.0
 30
0.0
 11
70633.0
 21
85.0
 31
0.0
  0
LINE
  5
4AA
  8
MyLines
 10
70892.0
 20
58.5
 30
0.0
 11
71400.0
 21
58.5
 31
0.0
  0
LINE
  5
4AB
  8
MyLines
 10
70892.0
 20
0.0
 30
0.0
 11
71400.0
 21
0.0
 31
0.0
  0
LINE
  5
4AC
  8
MyLines
 10
70892.0
 20
0.0
 30
0.0
 11
70892.0
 21
58.5
 31
0.0
  0
LINE
  5
4AD
  8
MyLines
 10
71400.0
 20
0.0
 30
0.0
 11
71400.0
 21
58.5
 31
0.0
  0
TEXT
  5
4AE
  8
MyLines
 62
1
 10
71147.0
 20
1.0
 30
0.0
 40
1.0
  1
7650-B
 11
71147.0
 21
1.0
 31
0.0
  0
TEXT
  5
4AF
  8
MyLines
 62
1
 10
70893.0
 20
1.0
 30
0.0
 40
1.0
  1
7650-A
 11
70893.0
 21
1.0
 31
0.0
  0
LINE
  5
4B0
  8
MyLines
 10
71146.0
 20
0.0
 30
0.0
 11
71146.0
 21
58.5
 31
0.0
  0
LINE
  5
4B1
  8
MyLines
 10
71402.0
 20
51.0
 30
0.0
 11
71864.0
 21
51.0
 31
0.0
  0
LINE
  5
4B2
  8
MyLines
 10
71402.0
 20
0.0
 30
0.0
 11
71864.0
 21
0.0
 31
0.0
  0
LINE
  5
4B3
  8
MyLines
 10
71402.0
 20
0.0
 30
0.0
 11
71402.0
 21
51.0
 31
0.0
  0
LINE
  5
4B4
  8
MyLines
 10
71864.0
 20
0.0
 30
0.0
 11
71864.0
 21
51.0
 31
0.0
  0
TEXT
  5
4B5
  8
MyLines
 62
1
 10
71634.0
 20
1.0
 30
0.0
 40
1.0
  1
7651-B
 11
71634.0
 21
1.0
 31
0.0
  0
TEXT
  5
4B6
  8
MyLines
 62
1
 10
71403.0
 20
1.0
 30
0.0
 40
1.0
  1
7651-A
 11
71403.0
 21
1.0
 31
0.0
  0
LINE
  5
4B7
  8
MyLines
 10
71633.0
 20
0.0
 30
0.0
 11
71633.0
 21
51.0
 31
0.0
  0
LINE
  5
4B8
  8
MyLines
 10
71866.0
 20
67.0
 30
0.0
 11
72282.0
 21
67.0
 31
0.0
  0
LINE
  5
4B9
  8
MyLines
 10
71866.0
 20
0.0
 30
0.0
 11
72282.0
 21
0.0
 31
0.0
  0
LINE
  5
4BA
  8
MyLines
 10
71866.0
 20
0.0
 30
0.0
 11
71866.0
 21
67.0
 31
0.0
  0
LINE
  5
4BB
  8
MyLines
 10
72282.0
 20
0.0
 30
0.0
 11
72282.0
 21
67.0
 31
0.0
  0
TEXT
  5
4BC
  8
MyLines
 62
1
 10
72075.0
 20
1.0
 30
0.0
 40
1.0
  1
7652-B
 11
72075.0
 21
1.0
 31
0.0
  0
TEXT
  5
4BD
  8
MyLines
 62
1
 10
71867.0
 20
1.0
 30
0.0
 40
1.0
  1
7652-A
 11
71867.0
 21
1.0
 31
0.0
  0
LINE
  5
4BE
  8
MyLines
 10
72074.0
 20
0.0
 30
0.0
 11
72074.0
 21
67.0
 31
0.0
  0
LINE
  5
4BF
  8
MyLines
 10
72284.0
 20
39.5
 30
0.0
 11
72704.0
 21
39.5
 31
0.0
  0
LINE
  5
4C0
  8
MyLines
 10
72284.0
 20
0.0
 30
0.0
 11
72704.0
 21
0.0
 31
0.0
  0
LINE
  5
4C1
  8
MyLines
 10
72284.0
 20
0.0
 30
0.0
 11
72284.0
 21
39.5
 31
0.0
  0
LINE
  5
4C2
  8
MyLines
 10
72704.0
 20
0.0
 30
0.0
 11
72704.0
 21
39.5
 31
0.0
  0
TEXT
  5
4C3
  8
MyLines
 62
1
 10
72495.0
 20
1.0
 30
0.0
 40
1.0
  1
7653-B
 11
72495.0
 21
1.0
 31
0.0
  0
TEXT
  5
4C4
  8
MyLines
 62
1
 10
72285.0
 20
1.0
 30
0.0
 40
1.0
  1
7653-A
 11
72285.0
 21
1.0
 31
0.0
  0
LINE
  5
4C5
  8
MyLines
 10
72494.0
 20
0.0
 30
0.0
 11
72494.0
 21
39.5
 31
0.0
  0
LINE
  5
4C6
  8
MyLines
 10
72706.0
 20
71.0
 30
0.0
 11
73272.0
 21
71.0
 31
0.0
  0
LINE
  5
4C7
  8
MyLines
 10
72706.0
 20
0.0
 30
0.0
 11
73272.0
 21
0.0
 31
0.0
  0
LINE
  5
4C8
  8
MyLines
 10
72706.0
 20
0.0
 30
0.0
 11
72706.0
 21
71.0
 31
0.0
  0
LINE
  5
4C9
  8
MyLines
 10
73272.0
 20
0.0
 30
0.0
 11
73272.0
 21
71.0
 31
0.0
  0
TEXT
  5
4CA
  8
MyLines
 62
1
 10
72990.0
 20
1.0
 30
0.0
 40
1.0
  1
7654-B
 11
72990.0
 21
1.0
 31
0.0
  0
TEXT
  5
4CB
  8
MyLines
 62
1
 10
72707.0
 20
1.0
 30
0.0
 40
1.0
  1
7654-A
 11
72707.0
 21
1.0
 31
0.0
  0
LINE
  5
4CC
  8
MyLines
 10
72989.0
 20
0.0
 30
0.0
 11
72989.0
 21
71.0
 31
0.0
  0
LINE
  5
4CD
  8
MyLines
 10
73274.0
 20
47.5
 30
0.0
 11
73654.0
 21
47.5
 31
0.0
  0
LINE
  5
4CE
  8
MyLines
 10
73274.0
 20
0.0
 30
0.0
 11
73654.0
 21
0.0
 31
0.0
  0
LINE
  5
4CF
  8
MyLines
 10
73274.0
 20
0.0
 30
0.0
 11
73274.0
 21
47.5
 31
0.0
  0
LINE
  5
4D0
  8
MyLines
 10
73654.0
 20
0.0
 30
0.0
 11
73654.0
 21
47.5
 31
0.0
  0
TEXT
  5
4D1
  8
MyLines
 62
1
 10
73465.0
 20
1.0
 30
0.0
 40
1.0
  1
7655-B
 11
73465.0
 21
1.0
 31
0.0
  0
TEXT
  5
4D2
  8
MyLines
 62
1
 10
73275.0
 20
1.0
 30
0.0
 40
1.0
  1
7655-A
 11
73275.0
 21
1.0
 31
0.0
  0
LINE
  5
4D3
  8
MyLines
 10
73464.0
 20
0.0
 30
0.0
 11
73464.0
 21
47.5
 31
0.0
  0
LINE
  5
4D4
  8
MyLines
 10
73656.0
 20
57.0
 30
0.0
 11
74118.0
 21
57.0
 31
0.0
  0
LINE
  5
4D5
  8
MyLines
 10
73656.0
 20
0.0
 30
0.0
 11
74118.0
 21
0.0
 31
0.0
  0
LINE
  5
4D6
  8
MyLines
 10
73656.0
 20
0.0
 30
0.0
 11
73656.0
 21
57.0
 31
0.0
  0
LINE
  5
4D7
  8
MyLines
 10
74118.0
 20
0.0
 30
0.0
 11
74118.0
 21
57.0
 31
0.0
  0
TEXT
  5
4D8
  8
MyLines
 62
1
 10
73888.0
 20
1.0
 30
0.0
 40
1.0
  1
7656-B
 11
73888.0
 21
1.0
 31
0.0
  0
TEXT
  5
4D9
  8
MyLines
 62
1
 10
73657.0
 20
1.0
 30
0.0
 40
1.0
  1
7656-A
 11
73657.0
 21
1.0
 31
0.0
  0
LINE
  5
4DA
  8
MyLines
 10
73887.0
 20
0.0
 30
0.0
 11
73887.0
 21
57.0
 31
0.0
  0
LINE
  5
4DB
  8
MyLines
 10
74120.0
 20
41.0
 30
0.0
 11
74622.0
 21
41.0
 31
0.0
  0
LINE
  5
4DC
  8
MyLines
 10
74120.0
 20
0.0
 30
0.0
 11
74622.0
 21
0.0
 31
0.0
  0
LINE
  5
4DD
  8
MyLines
 10
74120.0
 20
0.0
 30
0.0
 11
74120.0
 21
41.0
 31
0.0
  0
LINE
  5
4DE
  8
MyLines
 10
74622.0
 20
0.0
 30
0.0
 11
74622.0
 21
41.0
 31
0.0
  0
TEXT
  5
4DF
  8
MyLines
 62
1
 10
74372.0
 20
1.0
 30
0.0
 40
1.0
  1
7657-B
 11
74372.0
 21
1.0
 31
0.0
  0
TEXT
  5
4E0
  8
MyLines
 62
1
 10
74121.0
 20
1.0
 30
0.0
 40
1.0
  1
7657-A
 11
74121.0
 21
1.0
 31
0.0
  0
LINE
  5
4E1
  8
MyLines
 10
74371.0
 20
0.0
 30
0.0
 11
74371.0
 21
41.0
 31
0.0
  0
LINE
  5
4E2
  8
MyLines
 10
74624.0
 20
81.0
 30
0.0
 11
75212.0
 21
81.0
 31
0.0
  0
LINE
  5
4E3
  8
MyLines
 10
74624.0
 20
0.0
 30
0.0
 11
75212.0
 21
0.0
 31
0.0
  0
LINE
  5
4E4
  8
MyLines
 10
74624.0
 20
0.0
 30
0.0
 11
74624.0
 21
81.0
 31
0.0
  0
LINE
  5
4E5
  8
MyLines
 10
75212.0
 20
0.0
 30
0.0
 11
75212.0
 21
81.0
 31
0.0
  0
TEXT
  5
4E6
  8
MyLines
 62
1
 10
74919.0
 20
1.0
 30
0.0
 40
1.0
  1
7658-B
 11
74919.0
 21
1.0
 31
0.0
  0
TEXT
  5
4E7
  8
MyLines
 62
1
 10
74625.0
 20
1.0
 30
0.0
 40
1.0
  1
7658-A
 11
74625.0
 21
1.0
 31
0.0
  0
LINE
  5
4E8
  8
MyLines
 10
74918.0
 20
0.0
 30
0.0
 11
74918.0
 21
81.0
 31
0.0
  0
LINE
  5
4E9
  8
MyLines
 10
75214.0
 20
68.0
 30
0.0
 11
75714.0
 21
68.0
 31
0.0
  0
LINE
  5
4EA
  8
MyLines
 10
75214.0
 20
0.0
 30
0.0
 11
75714.0
 21
0.0
 31
0.0
  0
LINE
  5
4EB
  8
MyLines
 10
75214.0
 20
0.0
 30
0.0
 11
75214.0
 21
68.0
 31
0.0
  0
LINE
  5
4EC
  8
MyLines
 10
75714.0
 20
0.0
 30
0.0
 11
75714.0
 21
68.0
 31
0.0
  0
TEXT
  5
4ED
  8
MyLines
 62
1
 10
75465.0
 20
1.0
 30
0.0
 40
1.0
  1
7659-B
 11
75465.0
 21
1.0
 31
0.0
  0
TEXT
  5
4EE
  8
MyLines
 62
1
 10
75215.0
 20
1.0
 30
0.0
 40
1.0
  1
7659-A
 11
75215.0
 21
1.0
 31
0.0
  0
LINE
  5
4EF
  8
MyLines
 10
75464.0
 20
0.0
 30
0.0
 11
75464.0
 21
68.0
 31
0.0
  0
LINE
  5
4F0
  8
MyLines
 10
75716.0
 20
57.5
 30
0.0
 11
76088.0
 21
57.5
 31
0.0
  0
LINE
  5
4F1
  8
MyLines
 10
75716.0
 20
0.0
 30
0.0
 11
76088.0
 21
0.0
 31
0.0
  0
LINE
  5
4F2
  8
MyLines
 10
75716.0
 20
0.0
 30
0.0
 11
75716.0
 21
57.5
 31
0.0
  0
LINE
  5
4F3
  8
MyLines
 10
76088.0
 20
0.0
 30
0.0
 11
76088.0
 21
57.5
 31
0.0
  0
TEXT
  5
4F4
  8
MyLines
 62
1
 10
75903.0
 20
1.0
 30
0.0
 40
1.0
  1
7660-B
 11
75903.0
 21
1.0
 31
0.0
  0
TEXT
  5
4F5
  8
MyLines
 62
1
 10
75717.0
 20
1.0
 30
0.0
 40
1.0
  1
7660-A
 11
75717.0
 21
1.0
 31
0.0
  0
LINE
  5
4F6
  8
MyLines
 10
75902.0
 20
0.0
 30
0.0
 11
75902.0
 21
57.5
 31
0.0
  0
LINE
  5
4F7
  8
MyLines
 10
76090.0
 20
89.5
 30
0.0
 11
76452.0
 21
89.5
 31
0.0
  0
LINE
  5
4F8
  8
MyLines
 10
76090.0
 20
0.0
 30
0.0
 11
76452.0
 21
0.0
 31
0.0
  0
LINE
  5
4F9
  8
MyLines
 10
76090.0
 20
0.0
 30
0.0
 11
76090.0
 21
89.5
 31
0.0
  0
LINE
  5
4FA
  8
MyLines
 10
76452.0
 20
0.0
 30
0.0
 11
76452.0
 21
89.5
 31
0.0
  0
TEXT
  5
4FB
  8
MyLines
 62
1
 10
76272.0
 20
1.0
 30
0.0
 40
1.0
  1
7661-B
 11
76272.0
 21
1.0
 31
0.0
  0
TEXT
  5
4FC
  8
MyLines
 62
1
 10
76091.0
 20
1.0
 30
0.0
 40
1.0
  1
7661-A
 11
76091.0
 21
1.0
 31
0.0
  0
LINE
  5
4FD
  8
MyLines
 10
76271.0
 20
0.0
 30
0.0
 11
76271.0
 21
89.5
 31
0.0
  0
LINE
  5
4FE
  8
MyLines
 10
76454.0
 20
44.0
 30
0.0
 11
77040.0
 21
44.0
 31
0.0
  0
LINE
  5
4FF
  8
MyLines
 10
76454.0
 20
0.0
 30
0.0
 11
77040.0
 21
0.0
 31
0.0
  0
LINE
  5
500
  8
MyLines
 10
76454.0
 20
0.0
 30
0.0
 11
76454.0
 21
44.0
 31
0.0
  0
LINE
  5
501
  8
MyLines
 10
77040.0
 20
0.0
 30
0.0
 11
77040.0
 21
44.0
 31
0.0
  0
TEXT
  5
502
  8
MyLines
 62
1
 10
76748.0
 20
1.0
 30
0.0
 40
1.0
  1
7662-B
 11
76748.0
 21
1.0
 31
0.0
  0
TEXT
  5
503
  8
MyLines
 62
1
 10
76455.0
 20
1.0
 30
0.0
 40
1.0
  1
7662-A
 11
76455.0
 21
1.0
 31
0.0
  0
LINE
  5
504
  8
MyLines
 10
76747.0
 20
0.0
 30
0.0
 11
76747.0
 21
44.0
 31
0.0
  0
LINE
  5
505
  8
MyLines
 10
77042.0
 20
43.5
 30
0.0
 11
77528.0
 21
43.5
 31
0.0
  0
LINE
  5
506
  8
MyLines
 10
77042.0
 20
0.0
 30
0.0
 11
77528.0
 21
0.0
 31
0.0
  0
LINE
  5
507
  8
MyLines
 10
77042.0
 20
0.0
 30
0.0
 11
77042.0
 21
43.5
 31
0.0
  0
LINE
  5
508
  8
MyLines
 10
77528.0
 20
0.0
 30
0.0
 11
77528.0
 21
43.5
 31
0.0
  0
TEXT
  5
509
  8
MyLines
 62
1
 10
77286.0
 20
1.0
 30
0.0
 40
1.0
  1
7663-B
 11
77286.0
 21
1.0
 31
0.0
  0
TEXT
  5
50A
  8
MyLines
 62
1
 10
77043.0
 20
1.0
 30
0.0
 40
1.0
  1
7663-A
 11
77043.0
 21
1.0
 31
0.0
  0
LINE
  5
50B
  8
MyLines
 10
77285.0
 20
0.0
 30
0.0
 11
77285.0
 21
43.5
 31
0.0
  0
LINE
  5
50C
  8
MyLines
 10
77530.0
 20
62.5
 30
0.0
 11
78090.0
 21
62.5
 31
0.0
  0
LINE
  5
50D
  8
MyLines
 10
77530.0
 20
0.0
 30
0.0
 11
78090.0
 21
0.0
 31
0.0
  0
LINE
  5
50E
  8
MyLines
 10
77530.0
 20
0.0
 30
0.0
 11
77530.0
 21
62.5
 31
0.0
  0
LINE
  5
50F
  8
MyLines
 10
78090.0
 20
0.0
 30
0.0
 11
78090.0
 21
62.5
 31
0.0
  0
TEXT
  5
510
  8
MyLines
 62
1
 10
77811.0
 20
1.0
 30
0.0
 40
1.0
  1
7664-B
 11
77811.0
 21
1.0
 31
0.0
  0
TEXT
  5
511
  8
MyLines
 62
1
 10
77531.0
 20
1.0
 30
0.0
 40
1.0
  1
7664-A
 11
77531.0
 21
1.0
 31
0.0
  0
LINE
  5
512
  8
MyLines
 10
77810.0
 20
0.0
 30
0.0
 11
77810.0
 21
62.5
 31
0.0
  0
LINE
  5
513
  8
MyLines
 10
78092.0
 20
46.5
 30
0.0
 11
78552.0
 21
46.5
 31
0.0
  0
LINE
  5
514
  8
MyLines
 10
78092.0
 20
0.0
 30
0.0
 11
78552.0
 21
0.0
 31
0.0
  0
LINE
  5
515
  8
MyLines
 10
78092.0
 20
0.0
 30
0.0
 11
78092.0
 21
46.5
 31
0.0
  0
LINE
  5
516
  8
MyLines
 10
78552.0
 20
0.0
 30
0.0
 11
78552.0
 21
46.5
 31
0.0
  0
TEXT
  5
517
  8
MyLines
 62
1
 10
78323.0
 20
1.0
 30
0.0
 40
1.0
  1
7665-B
 11
78323.0
 21
1.0
 31
0.0
  0
TEXT
  5
518
  8
MyLines
 62
1
 10
78093.0
 20
1.0
 30
0.0
 40
1.0
  1
7665-A
 11
78093.0
 21
1.0
 31
0.0
  0
LINE
  5
519
  8
MyLines
 10
78322.0
 20
0.0
 30
0.0
 11
78322.0
 21
46.5
 31
0.0
  0
LINE
  5
51A
  8
MyLines
 10
78554.0
 20
57.0
 30
0.0
 11
79000.0
 21
57.0
 31
0.0
  0
LINE
  5
51B
  8
MyLines
 10
78554.0
 20
0.0
 30
0.0
 11
79000.0
 21
0.0
 31
0.0
  0
LINE
  5
51C
  8
MyLines
 10
78554.0
 20
0.0
 30
0.0
 11
78554.0
 21
57.0
 31
0.0
  0
LINE
  5
51D
  8
MyLines
 10
79000.0
 20
0.0
 30
0.0
 11
79000.0
 21
57.0
 31
0.0
  0
TEXT
  5
51E
  8
MyLines
 62
1
 10
78778.0
 20
1.0
 30
0.0
 40
1.0
  1
7666-B
 11
78778.0
 21
1.0
 31
0.0
  0
TEXT
  5
51F
  8
MyLines
 62
1
 10
78555.0
 20
1.0
 30
0.0
 40
1.0
  1
7666-A
 11
78555.0
 21
1.0
 31
0.0
  0
LINE
  5
520
  8
MyLines
 10
78777.0
 20
0.0
 30
0.0
 11
78777.0
 21
57.0
 31
0.0
  0
LINE
  5
521
  8
MyLines
 10
79002.0
 20
51.5
 30
0.0
 11
79404.0
 21
51.5
 31
0.0
  0
LINE
  5
522
  8
MyLines
 10
79002.0
 20
0.0
 30
0.0
 11
79404.0
 21
0.0
 31
0.0
  0
LINE
  5
523
  8
MyLines
 10
79002.0
 20
0.0
 30
0.0
 11
79002.0
 21
51.5
 31
0.0
  0
LINE
  5
524
  8
MyLines
 10
79404.0
 20
0.0
 30
0.0
 11
79404.0
 21
51.5
 31
0.0
  0
TEXT
  5
525
  8
MyLines
 62
1
 10
79204.0
 20
1.0
 30
0.0
 40
1.0
  1
7667-B
 11
79204.0
 21
1.0
 31
0.0
  0
TEXT
  5
526
  8
MyLines
 62
1
 10
79003.0
 20
1.0
 30
0.0
 40
1.0
  1
7667-A
 11
79003.0
 21
1.0
 31
0.0
  0
LINE
  5
527
  8
MyLines
 10
79203.0
 20
0.0
 30
0.0
 11
79203.0
 21
51.5
 31
0.0
  0
LINE
  5
528
  8
MyLines
 10
79406.0
 20
73.5
 30
0.0
 11
79910.0
 21
73.5
 31
0.0
  0
LINE
  5
529
  8
MyLines
 10
79406.0
 20
0.0
 30
0.0
 11
79910.0
 21
0.0
 31
0.0
  0
LINE
  5
52A
  8
MyLines
 10
79406.0
 20
0.0
 30
0.0
 11
79406.0
 21
73.5
 31
0.0
  0
LINE
  5
52B
  8
MyLines
 10
79910.0
 20
0.0
 30
0.0
 11
79910.0
 21
73.5
 31
0.0
  0
TEXT
  5
52C
  8
MyLines
 62
1
 10
79659.0
 20
1.0
 30
0.0
 40
1.0
  1
7668-B
 11
79659.0
 21
1.0
 31
0.0
  0
TEXT
  5
52D
  8
MyLines
 62
1
 10
79407.0
 20
1.0
 30
0.0
 40
1.0
  1
7668-A
 11
79407.0
 21
1.0
 31
0.0
  0
LINE
  5
52E
  8
MyLines
 10
79658.0
 20
0.0
 30
0.0
 11
79658.0
 21
73.5
 31
0.0
  0
LINE
  5
52F
  8
MyLines
 10
79912.0
 20
69.0
 30
0.0
 11
80412.0
 21
69.0
 31
0.0
  0
LINE
  5
530
  8
MyLines
 10
79912.0
 20
0.0
 30
0.0
 11
80412.0
 21
0.0
 31
0.0
  0
LINE
  5
531
  8
MyLines
 10
79912.0
 20
0.0
 30
0.0
 11
79912.0
 21
69.0
 31
0.0
  0
LINE
  5
532
  8
MyLines
 10
80412.0
 20
0.0
 30
0.0
 11
80412.0
 21
69.0
 31
0.0
  0
TEXT
  5
533
  8
MyLines
 62
1
 10
80163.0
 20
1.0
 30
0.0
 40
1.0
  1
7669-B
 11
80163.0
 21
1.0
 31
0.0
  0
TEXT
  5
534
  8
MyLines
 62
1
 10
79913.0
 20
1.0
 30
0.0
 40
1.0
  1
7669-A
 11
79913.0
 21
1.0
 31
0.0
  0
LINE
  5
535
  8
MyLines
 10
80162.0
 20
0.0
 30
0.0
 11
80162.0
 21
69.0
 31
0.0
  0
LINE
  5
536
  8
MyLines
 10
80414.0
 20
42.0
 30
0.0
 11
80974.0
 21
42.0
 31
0.0
  0
LINE
  5
537
  8
MyLines
 10
80414.0
 20
0.0
 30
0.0
 11
80974.0
 21
0.0
 31
0.0
  0
LINE
  5
538
  8
MyLines
 10
80414.0
 20
0.0
 30
0.0
 11
80414.0
 21
42.0
 31
0.0
  0
LINE
  5
539
  8
MyLines
 10
80974.0
 20
0.0
 30
0.0
 11
80974.0
 21
42.0
 31
0.0
  0
TEXT
  5
53A
  8
MyLines
 62
1
 10
80695.0
 20
1.0
 30
0.0
 40
1.0
  1
7670-B
 11
80695.0
 21
1.0
 31
0.0
  0
TEXT
  5
53B
  8
MyLines
 62
1
 10
80415.0
 20
1.0
 30
0.0
 40
1.0
  1
7670-A
 11
80415.0
 21
1.0
 31
0.0
  0
LINE
  5
53C
  8
MyLines
 10
80694.0
 20
0.0
 30
0.0
 11
80694.0
 21
42.0
 31
0.0
  0
LINE
  5
53D
  8
MyLines
 10
80976.0
 20
52.0
 30
0.0
 11
81410.0
 21
52.0
 31
0.0
  0
LINE
  5
53E
  8
MyLines
 10
80976.0
 20
0.0
 30
0.0
 11
81410.0
 21
0.0
 31
0.0
  0
LINE
  5
53F
  8
MyLines
 10
80976.0
 20
0.0
 30
0.0
 11
80976.0
 21
52.0
 31
0.0
  0
LINE
  5
540
  8
MyLines
 10
81410.0
 20
0.0
 30
0.0
 11
81410.0
 21
52.0
 31
0.0
  0
TEXT
  5
541
  8
MyLines
 62
1
 10
81194.0
 20
1.0
 30
0.0
 40
1.0
  1
7671-B
 11
81194.0
 21
1.0
 31
0.0
  0
TEXT
  5
542
  8
MyLines
 62
1
 10
80977.0
 20
1.0
 30
0.0
 40
1.0
  1
7671-A
 11
80977.0
 21
1.0
 31
0.0
  0
LINE
  5
543
  8
MyLines
 10
81193.0
 20
0.0
 30
0.0
 11
81193.0
 21
52.0
 31
0.0
  0
LINE
  5
544
  8
MyLines
 10
81412.0
 20
57.5
 30
0.0
 11
81910.0
 21
57.5
 31
0.0
  0
LINE
  5
545
  8
MyLines
 10
81412.0
 20
0.0
 30
0.0
 11
81910.0
 21
0.0
 31
0.0
  0
LINE
  5
546
  8
MyLines
 10
81412.0
 20
0.0
 30
0.0
 11
81412.0
 21
57.5
 31
0.0
  0
LINE
  5
547
  8
MyLines
 10
81910.0
 20
0.0
 30
0.0
 11
81910.0
 21
57.5
 31
0.0
  0
TEXT
  5
548
  8
MyLines
 62
1
 10
81662.0
 20
1.0
 30
0.0
 40
1.0
  1
7672-B
 11
81662.0
 21
1.0
 31
0.0
  0
TEXT
  5
549
  8
MyLines
 62
1
 10
81413.0
 20
1.0
 30
0.0
 40
1.0
  1
7672-A
 11
81413.0
 21
1.0
 31
0.0
  0
LINE
  5
54A
  8
MyLines
 10
81661.0
 20
0.0
 30
0.0
 11
81661.0
 21
57.5
 31
0.0
  0
LINE
  5
54B
  8
MyLines
 10
81912.0
 20
42.5
 30
0.0
 11
82304.0
 21
42.5
 31
0.0
  0
LINE
  5
54C
  8
MyLines
 10
81912.0
 20
0.0
 30
0.0
 11
82304.0
 21
0.0
 31
0.0
  0
LINE
  5
54D
  8
MyLines
 10
81912.0
 20
0.0
 30
0.0
 11
81912.0
 21
42.5
 31
0.0
  0
LINE
  5
54E
  8
MyLines
 10
82304.0
 20
0.0
 30
0.0
 11
82304.0
 21
42.5
 31
0.0
  0
TEXT
  5
54F
  8
MyLines
 62
1
 10
82109.0
 20
1.0
 30
0.0
 40
1.0
  1
7673-B
 11
82109.0
 21
1.0
 31
0.0
  0
TEXT
  5
550
  8
MyLines
 62
1
 10
81913.0
 20
1.0
 30
0.0
 40
1.0
  1
7673-A
 11
81913.0
 21
1.0
 31
0.0
  0
LINE
  5
551
  8
MyLines
 10
82108.0
 20
0.0
 30
0.0
 11
82108.0
 21
42.5
 31
0.0
  0
LINE
  5
552
  8
MyLines
 10
82306.0
 20
57.5
 30
0.0
 11
82812.0
 21
57.5
 31
0.0
  0
LINE
  5
553
  8
MyLines
 10
82306.0
 20
0.0
 30
0.0
 11
82812.0
 21
0.0
 31
0.0
  0
LINE
  5
554
  8
MyLines
 10
82306.0
 20
0.0
 30
0.0
 11
82306.0
 21
57.5
 31
0.0
  0
LINE
  5
555
  8
MyLines
 10
82812.0
 20
0.0
 30
0.0
 11
82812.0
 21
57.5
 31
0.0
  0
TEXT
  5
556
  8
MyLines
 62
1
 10
82560.0
 20
1.0
 30
0.0
 40
1.0
  1
7674-B
 11
82560.0
 21
1.0
 31
0.0
  0
TEXT
  5
557
  8
MyLines
 62
1
 10
82307.0
 20
1.0
 30
0.0
 40
1.0
  1
7674-A
 11
82307.0
 21
1.0
 31
0.0
  0
LINE
  5
558
  8
MyLines
 10
82559.0
 20
0.0
 30
0.0
 11
82559.0
 21
57.5
 31
0.0
  0
LINE
  5
559
  8
MyLines
 10
82814.0
 20
36.0
 30
0.0
 11
83286.0
 21
36.0
 31
0.0
  0
LINE
  5
55A
  8
MyLines
 10
82814.0
 20
0.0
 30
0.0
 11
83286.0
 21
0.0
 31
0.0
  0
LINE
  5
55B
  8
MyLines
 10
82814.0
 20
0.0
 30
0.0
 11
82814.0
 21
36.0
 31
0.0
  0
LINE
  5
55C
  8
MyLines
 10
83286.0
 20
0.0
 30
0.0
 11
83286.0
 21
36.0
 31
0.0
  0
TEXT
  5
55D
  8
MyLines
 62
1
 10
83051.0
 20
1.0
 30
0.0
 40
1.0
  1
7675-B
 11
83051.0
 21
1.0
 31
0.0
  0
TEXT
  5
55E
  8
MyLines
 62
1
 10
82815.0
 20
1.0
 30
0.0
 40
1.0
  1
7675-A
 11
82815.0
 21
1.0
 31
0.0
  0
LINE
  5
55F
  8
MyLines
 10
83050.0
 20
0.0
 30
0.0
 11
83050.0
 21
36.0
 31
0.0
  0
LINE
  5
560
  8
MyLines
 10
83288.0
 20
69.0
 30
0.0
 11
83646.0
 21
69.0
 31
0.0
  0
LINE
  5
561
  8
MyLines
 10
83288.0
 20
0.0
 30
0.0
 11
83646.0
 21
0.0
 31
0.0
  0
LINE
  5
562
  8
MyLines
 10
83288.0
 20
0.0
 30
0.0
 11
83288.0
 21
69.0
 31
0.0
  0
LINE
  5
563
  8
MyLines
 10
83646.0
 20
0.0
 30
0.0
 11
83646.0
 21
69.0
 31
0.0
  0
TEXT
  5
564
  8
MyLines
 62
1
 10
83468.0
 20
1.0
 30
0.0
 40
1.0
  1
7676-B
 11
83468.0
 21
1.0
 31
0.0
  0
TEXT
  5
565
  8
MyLines
 62
1
 10
83289.0
 20
1.0
 30
0.0
 40
1.0
  1
7676-A
 11
83289.0
 21
1.0
 31
0.0
  0
LINE
  5
566
  8
MyLines
 10
83467.0
 20
0.0
 30
0.0
 11
83467.0
 21
69.0
 31
0.0
  0
LINE
  5
567
  8
MyLines
 10
83648.0
 20
55.0
 30
0.0
 11
84024.0
 21
55.0
 31
0.0
  0
LINE
  5
568
  8
MyLines
 10
83648.0
 20
0.0
 30
0.0
 11
84024.0
 21
0.0
 31
0.0
  0
LINE
  5
569
  8
MyLines
 10
83648.0
 20
0.0
 30
0.0
 11
83648.0
 21
55.0
 31
0.0
  0
LINE
  5
56A
  8
MyLines
 10
84024.0
 20
0.0
 30
0.0
 11
84024.0
 21
55.0
 31
0.0
  0
TEXT
  5
56B
  8
MyLines
 62
1
 10
83837.0
 20
1.0
 30
0.0
 40
1.0
  1
7677-B
 11
83837.0
 21
1.0
 31
0.0
  0
TEXT
  5
56C
  8
MyLines
 62
1
 10
83649.0
 20
1.0
 30
0.0
 40
1.0
  1
7677-A
 11
83649.0
 21
1.0
 31
0.0
  0
LINE
  5
56D
  8
MyLines
 10
83836.0
 20
0.0
 30
0.0
 11
83836.0
 21
55.0
 31
0.0
  0
LINE
  5
56E
  8
MyLines
 10
84026.0
 20
87.0
 30
0.0
 11
84376.0
 21
87.0
 31
0.0
  0
LINE
  5
56F
  8
MyLines
 10
84026.0
 20
0.0
 30
0.0
 11
84376.0
 21
0.0
 31
0.0
  0
LINE
  5
570
  8
MyLines
 10
84026.0
 20
0.0
 30
0.0
 11
84026.0
 21
87.0
 31
0.0
  0
LINE
  5
571
  8
MyLines
 10
84376.0
 20
0.0
 30
0.0
 11
84376.0
 21
87.0
 31
0.0
  0
TEXT
  5
572
  8
MyLines
 62
1
 10
84202.0
 20
1.0
 30
0.0
 40
1.0
  1
7678-B
 11
84202.0
 21
1.0
 31
0.0
  0
TEXT
  5
573
  8
MyLines
 62
1
 10
84027.0
 20
1.0
 30
0.0
 40
1.0
  1
7678-A
 11
84027.0
 21
1.0
 31
0.0
  0
LINE
  5
574
  8
MyLines
 10
84201.0
 20
0.0
 30
0.0
 11
84201.0
 21
87.0
 31
0.0
  0
LINE
  5
575
  8
MyLines
 10
84378.0
 20
36.5
 30
0.0
 11
84792.0
 21
36.5
 31
0.0
  0
LINE
  5
576
  8
MyLines
 10
84378.0
 20
0.0
 30
0.0
 11
84792.0
 21
0.0
 31
0.0
  0
LINE
  5
577
  8
MyLines
 10
84378.0
 20
0.0
 30
0.0
 11
84378.0
 21
36.5
 31
0.0
  0
LINE
  5
578
  8
MyLines
 10
84792.0
 20
0.0
 30
0.0
 11
84792.0
 21
36.5
 31
0.0
  0
TEXT
  5
579
  8
MyLines
 62
1
 10
84586.0
 20
1.0
 30
0.0
 40
1.0
  1
7679-B
 11
84586.0
 21
1.0
 31
0.0
  0
TEXT
  5
57A
  8
MyLines
 62
1
 10
84379.0
 20
1.0
 30
0.0
 40
1.0
  1
7679-A
 11
84379.0
 21
1.0
 31
0.0
  0
LINE
  5
57B
  8
MyLines
 10
84585.0
 20
0.0
 30
0.0
 11
84585.0
 21
36.5
 31
0.0
  0
LINE
  5
57C
  8
MyLines
 10
84794.0
 20
69.5
 30
0.0
 11
85276.0
 21
69.5
 31
0.0
  0
LINE
  5
57D
  8
MyLines
 10
84794.0
 20
0.0
 30
0.0
 11
85276.0
 21
0.0
 31
0.0
  0
LINE
  5
57E
  8
MyLines
 10
84794.0
 20
0.0
 30
0.0
 11
84794.0
 21
69.5
 31
0.0
  0
LINE
  5
57F
  8
MyLines
 10
85276.0
 20
0.0
 30
0.0
 11
85276.0
 21
69.5
 31
0.0
  0
TEXT
  5
580
  8
MyLines
 62
1
 10
85036.0
 20
1.0
 30
0.0
 40
1.0
  1
7680-B
 11
85036.0
 21
1.0
 31
0.0
  0
TEXT
  5
581
  8
MyLines
 62
1
 10
84795.0
 20
1.0
 30
0.0
 40
1.0
  1
7680-A
 11
84795.0
 21
1.0
 31
0.0
  0
LINE
  5
582
  8
MyLines
 10
85035.0
 20
0.0
 30
0.0
 11
85035.0
 21
69.5
 31
0.0
  0
LINE
  5
583
  8
MyLines
 10
85278.0
 20
47.5
 30
0.0
 11
85680.0
 21
47.5
 31
0.0
  0
LINE
  5
584
  8
MyLines
 10
85278.0
 20
0.0
 30
0.0
 11
85680.0
 21
0.0
 31
0.0
  0
LINE
  5
585
  8
MyLines
 10
85278.0
 20
0.0
 30
0.0
 11
85278.0
 21
47.5
 31
0.0
  0
LINE
  5
586
  8
MyLines
 10
85680.0
 20
0.0
 30
0.0
 11
85680.0
 21
47.5
 31
0.0
  0
TEXT
  5
587
  8
MyLines
 62
1
 10
85480.0
 20
1.0
 30
0.0
 40
1.0
  1
7681-B
 11
85480.0
 21
1.0
 31
0.0
  0
TEXT
  5
588
  8
MyLines
 62
1
 10
85279.0
 20
1.0
 30
0.0
 40
1.0
  1
7681-A
 11
85279.0
 21
1.0
 31
0.0
  0
LINE
  5
589
  8
MyLines
 10
85479.0
 20
0.0
 30
0.0
 11
85479.0
 21
47.5
 31
0.0
  0
LINE
  5
58A
  8
MyLines
 10
85682.0
 20
77.0
 30
0.0
 11
86152.0
 21
77.0
 31
0.0
  0
LINE
  5
58B
  8
MyLines
 10
85682.0
 20
0.0
 30
0.0
 11
86152.0
 21
0.0
 31
0.0
  0
LINE
  5
58C
  8
MyLines
 10
85682.0
 20
0.0
 30
0.0
 11
85682.0
 21
77.0
 31
0.0
  0
LINE
  5
58D
  8
MyLines
 10
86152.0
 20
0.0
 30
0.0
 11
86152.0
 21
77.0
 31
0.0
  0
TEXT
  5
58E
  8
MyLines
 62
1
 10
85918.0
 20
1.0
 30
0.0
 40
1.0
  1
7682-B
 11
85918.0
 21
1.0
 31
0.0
  0
TEXT
  5
58F
  8
MyLines
 62
1
 10
85683.0
 20
1.0
 30
0.0
 40
1.0
  1
7682-A
 11
85683.0
 21
1.0
 31
0.0
  0
LINE
  5
590
  8
MyLines
 10
85917.0
 20
0.0
 30
0.0
 11
85917.0
 21
77.0
 31
0.0
  0
LINE
  5
591
  8
MyLines
 10
86154.0
 20
87.0
 30
0.0
 11
86668.0
 21
87.0
 31
0.0
  0
LINE
  5
592
  8
MyLines
 10
86154.0
 20
0.0
 30
0.0
 11
86668.0
 21
0.0
 31
0.0
  0
LINE
  5
593
  8
MyLines
 10
86154.0
 20
0.0
 30
0.0
 11
86154.0
 21
87.0
 31
0.0
  0
LINE
  5
594
  8
MyLines
 10
86668.0
 20
0.0
 30
0.0
 11
86668.0
 21
87.0
 31
0.0
  0
TEXT
  5
595
  8
MyLines
 62
1
 10
86412.0
 20
1.0
 30
0.0
 40
1.0
  1
7683-B
 11
86412.0
 21
1.0
 31
0.0
  0
TEXT
  5
596
  8
MyLines
 62
1
 10
86155.0
 20
1.0
 30
0.0
 40
1.0
  1
7683-A
 11
86155.0
 21
1.0
 31
0.0
  0
LINE
  5
597
  8
MyLines
 10
86411.0
 20
0.0
 30
0.0
 11
86411.0
 21
87.0
 31
0.0
  0
LINE
  5
598
  8
MyLines
 10
86670.0
 20
47.5
 30
0.0
 11
87158.0
 21
47.5
 31
0.0
  0
LINE
  5
599
  8
MyLines
 10
86670.0
 20
0.0
 30
0.0
 11
87158.0
 21
0.0
 31
0.0
  0
LINE
  5
59A
  8
MyLines
 10
86670.0
 20
0.0
 30
0.0
 11
86670.0
 21
47.5
 31
0.0
  0
LINE
  5
59B
  8
MyLines
 10
87158.0
 20
0.0
 30
0.0
 11
87158.0
 21
47.5
 31
0.0
  0
TEXT
  5
59C
  8
MyLines
 62
1
 10
86915.0
 20
1.0
 30
0.0
 40
1.0
  1
7684-B
 11
86915.0
 21
1.0
 31
0.0
  0
TEXT
  5
59D
  8
MyLines
 62
1
 10
86671.0
 20
1.0
 30
0.0
 40
1.0
  1
7684-A
 11
86671.0
 21
1.0
 31
0.0
  0
LINE
  5
59E
  8
MyLines
 10
86914.0
 20
0.0
 30
0.0
 11
86914.0
 21
47.5
 31
0.0
  0
LINE
  5
59F
  8
MyLines
 10
87160.0
 20
66.0
 30
0.0
 11
87618.0
 21
66.0
 31
0.0
  0
LINE
  5
5A0
  8
MyLines
 10
87160.0
 20
0.0
 30
0.0
 11
87618.0
 21
0.0
 31
0.0
  0
LINE
  5
5A1
  8
MyLines
 10
87160.0
 20
0.0
 30
0.0
 11
87160.0
 21
66.0
 31
0.0
  0
LINE
  5
5A2
  8
MyLines
 10
87618.0
 20
0.0
 30
0.0
 11
87618.0
 21
66.0
 31
0.0
  0
TEXT
  5
5A3
  8
MyLines
 62
1
 10
87390.0
 20
1.0
 30
0.0
 40
1.0
  1
7685-B
 11
87390.0
 21
1.0
 31
0.0
  0
TEXT
  5
5A4
  8
MyLines
 62
1
 10
87161.0
 20
1.0
 30
0.0
 40
1.0
  1
7685-A
 11
87161.0
 21
1.0
 31
0.0
  0
LINE
  5
5A5
  8
MyLines
 10
87389.0
 20
0.0
 30
0.0
 11
87389.0
 21
66.0
 31
0.0
  0
LINE
  5
5A6
  8
MyLines
 10
87620.0
 20
74.0
 30
0.0
 11
88098.0
 21
74.0
 31
0.0
  0
LINE
  5
5A7
  8
MyLines
 10
87620.0
 20
0.0
 30
0.0
 11
88098.0
 21
0.0
 31
0.0
  0
LINE
  5
5A8
  8
MyLines
 10
87620.0
 20
0.0
 30
0.0
 11
87620.0
 21
74.0
 31
0.0
  0
LINE
  5
5A9
  8
MyLines
 10
88098.0
 20
0.0
 30
0.0
 11
88098.0
 21
74.0
 31
0.0
  0
TEXT
  5
5AA
  8
MyLines
 62
1
 10
87860.0
 20
1.0
 30
0.0
 40
1.0
  1
7686-B
 11
87860.0
 21
1.0
 31
0.0
  0
TEXT
  5
5AB
  8
MyLines
 62
1
 10
87621.0
 20
1.0
 30
0.0
 40
1.0
  1
7686-A
 11
87621.0
 21
1.0
 31
0.0
  0
LINE
  5
5AC
  8
MyLines
 10
87859.0
 20
0.0
 30
0.0
 11
87859.0
 21
74.0
 31
0.0
  0
LINE
  5
5AD
  8
MyLines
 10
88100.0
 20
57.0
 30
0.0
 11
88530.0
 21
57.0
 31
0.0
  0
LINE
  5
5AE
  8
MyLines
 10
88100.0
 20
0.0
 30
0.0
 11
88530.0
 21
0.0
 31
0.0
  0
LINE
  5
5AF
  8
MyLines
 10
88100.0
 20
0.0
 30
0.0
 11
88100.0
 21
57.0
 31
0.0
  0
LINE
  5
5B0
  8
MyLines
 10
88530.0
 20
0.0
 30
0.0
 11
88530.0
 21
57.0
 31
0.0
  0
TEXT
  5
5B1
  8
MyLines
 62
1
 10
88316.0
 20
1.0
 30
0.0
 40
1.0
  1
7687-B
 11
88316.0
 21
1.0
 31
0.0
  0
TEXT
  5
5B2
  8
MyLines
 62
1
 10
88101.0
 20
1.0
 30
0.0
 40
1.0
  1
7687-A
 11
88101.0
 21
1.0
 31
0.0
  0
LINE
  5
5B3
  8
MyLines
 10
88315.0
 20
0.0
 30
0.0
 11
88315.0
 21
57.0
 31
0.0
  0
LINE
  5
5B4
  8
MyLines
 10
88532.0
 20
74.0
 30
0.0
 11
89074.0
 21
74.0
 31
0.0
  0
LINE
  5
5B5
  8
MyLines
 10
88532.0
 20
0.0
 30
0.0
 11
89074.0
 21
0.0
 31
0.0
  0
LINE
  5
5B6
  8
MyLines
 10
88532.0
 20
0.0
 30
0.0
 11
88532.0
 21
74.0
 31
0.0
  0
LINE
  5
5B7
  8
MyLines
 10
89074.0
 20
0.0
 30
0.0
 11
89074.0
 21
74.0
 31
0.0
  0
TEXT
  5
5B8
  8
MyLines
 62
1
 10
88804.0
 20
1.0
 30
0.0
 40
1.0
  1
7688-B
 11
88804.0
 21
1.0
 31
0.0
  0
TEXT
  5
5B9
  8
MyLines
 62
1
 10
88533.0
 20
1.0
 30
0.0
 40
1.0
  1
7688-A
 11
88533.0
 21
1.0
 31
0.0
  0
LINE
  5
5BA
  8
MyLines
 10
88803.0
 20
0.0
 30
0.0
 11
88803.0
 21
74.0
 31
0.0
  0
LINE
  5
5BB
  8
MyLines
 10
89076.0
 20
50.0
 30
0.0
 11
89488.0
 21
50.0
 31
0.0
  0
LINE
  5
5BC
  8
MyLines
 10
89076.0
 20
0.0
 30
0.0
 11
89488.0
 21
0.0
 31
0.0
  0
LINE
  5
5BD
  8
MyLines
 10
89076.0
 20
0.0
 30
0.0
 11
89076.0
 21
50.0
 31
0.0
  0
LINE
  5
5BE
  8
MyLines
 10
89488.0
 20
0.0
 30
0.0
 11
89488.0
 21
50.0
 31
0.0
  0
TEXT
  5
5BF
  8
MyLines
 62
1
 10
89283.0
 20
1.0
 30
0.0
 40
1.0
  1
7689-B
 11
89283.0
 21
1.0
 31
0.0
  0
TEXT
  5
5C0
  8
MyLines
 62
1
 10
89077.0
 20
1.0
 30
0.0
 40
1.0
  1
7689-A
 11
89077.0
 21
1.0
 31
0.0
  0
LINE
  5
5C1
  8
MyLines
 10
89282.0
 20
0.0
 30
0.0
 11
89282.0
 21
50.0
 31
0.0
  0
LINE
  5
5C2
  8
MyLines
 10
89490.0
 20
87.0
 30
0.0
 11
89880.0
 21
87.0
 31
0.0
  0
LINE
  5
5C3
  8
MyLines
 10
89490.0
 20
0.0
 30
0.0
 11
89880.0
 21
0.0
 31
0.0
  0
LINE
  5
5C4
  8
MyLines
 10
89490.0
 20
0.0
 30
0.0
 11
89490.0
 21
87.0
 31
0.0
  0
LINE
  5
5C5
  8
MyLines
 10
89880.0
 20
0.0
 30
0.0
 11
89880.0
 21
87.0
 31
0.0
  0
TEXT
  5
5C6
  8
MyLines
 62
1
 10
89686.0
 20
1.0
 30
0.0
 40
1.0
  1
7690-B
 11
89686.0
 21
1.0
 31
0.0
  0
TEXT
  5
5C7
  8
MyLines
 62
1
 10
89491.0
 20
1.0
 30
0.0
 40
1.0
  1
7690-A
 11
89491.0
 21
1.0
 31
0.0
  0
LINE
  5
5C8
  8
MyLines
 10
89685.0
 20
0.0
 30
0.0
 11
89685.0
 21
87.0
 31
0.0
  0
LINE
  5
5C9
  8
MyLines
 10
89882.0
 20
54.0
 30
0.0
 11
90432.0
 21
54.0
 31
0.0
  0
LINE
  5
5CA
  8
MyLines
 10
89882.0
 20
0.0
 30
0.0
 11
90432.0
 21
0.0
 31
0.0
  0
LINE
  5
5CB
  8
MyLines
 10
89882.0
 20
0.0
 30
0.0
 11
89882.0
 21
54.0
 31
0.0
  0
LINE
  5
5CC
  8
MyLines
 10
90432.0
 20
0.0
 30
0.0
 11
90432.0
 21
54.0
 31
0.0
  0
TEXT
  5
5CD
  8
MyLines
 62
1
 10
90158.0
 20
1.0
 30
0.0
 40
1.0
  1
7691-B
 11
90158.0
 21
1.0
 31
0.0
  0
TEXT
  5
5CE
  8
MyLines
 62
1
 10
89883.0
 20
1.0
 30
0.0
 40
1.0
  1
7691-A
 11
89883.0
 21
1.0
 31
0.0
  0
LINE
  5
5CF
  8
MyLines
 10
90157.0
 20
0.0
 30
0.0
 11
90157.0
 21
54.0
 31
0.0
  0
LINE
  5
5D0
  8
MyLines
 10
90434.0
 20
46.0
 30
0.0
 11
90938.0
 21
46.0
 31
0.0
  0
LINE
  5
5D1
  8
MyLines
 10
90434.0
 20
0.0
 30
0.0
 11
90938.0
 21
0.0
 31
0.0
  0
LINE
  5
5D2
  8
MyLines
 10
90434.0
 20
0.0
 30
0.0
 11
90434.0
 21
46.0
 31
0.0
  0
LINE
  5
5D3
  8
MyLines
 10
90938.0
 20
0.0
 30
0.0
 11
90938.0
 21
46.0
 31
0.0
  0
TEXT
  5
5D4
  8
MyLines
 62
1
 10
90687.0
 20
1.0
 30
0.0
 40
1.0
  1
7692-B
 11
90687.0
 21
1.0
 31
0.0
  0
TEXT
  5
5D5
  8
MyLines
 62
1
 10
90435.0
 20
1.0
 30
0.0
 40
1.0
  1
7692-A
 11
90435.0
 21
1.0
 31
0.0
  0
LINE
  5
5D6
  8
MyLines
 10
90686.0
 20
0.0
 30
0.0
 11
90686.0
 21
46.0
 31
0.0
  0
LINE
  5
5D7
  8
MyLines
 10
90940.0
 20
41.0
 30
0.0
 11
91332.0
 21
41.0
 31
0.0
  0
LINE
  5
5D8
  8
MyLines
 10
90940.0
 20
0.0
 30
0.0
 11
91332.0
 21
0.0
 31
0.0
  0
LINE
  5
5D9
  8
MyLines
 10
90940.0
 20
0.0
 30
0.0
 11
90940.0
 21
41.0
 31
0.0
  0
LINE
  5
5DA
  8
MyLines
 10
91332.0
 20
0.0
 30
0.0
 11
91332.0
 21
41.0
 31
0.0
  0
TEXT
  5
5DB
  8
MyLines
 62
1
 10
91137.0
 20
1.0
 30
0.0
 40
1.0
  1
7693-B
 11
91137.0
 21
1.0
 31
0.0
  0
TEXT
  5
5DC
  8
MyLines
 62
1
 10
90941.0
 20
1.0
 30
0.0
 40
1.0
  1
7693-A
 11
90941.0
 21
1.0
 31
0.0
  0
LINE
  5
5DD
  8
MyLines
 10
91136.0
 20
0.0
 30
0.0
 11
91136.0
 21
41.0
 31
0.0
  0
LINE
  5
5DE
  8
MyLines
 10
91334.0
 20
70.5
 30
0.0
 11
91684.0
 21
70.5
 31
0.0
  0
LINE
  5
5DF
  8
MyLines
 10
91334.0
 20
0.0
 30
0.0
 11
91684.0
 21
0.0
 31
0.0
  0
LINE
  5
5E0
  8
MyLines
 10
91334.0
 20
0.0
 30
0.0
 11
91334.0
 21
70.5
 31
0.0
  0
LINE
  5
5E1
  8
MyLines
 10
91684.0
 20
0.0
 30
0.0
 11
91684.0
 21
70.5
 31
0.0
  0
TEXT
  5
5E2
  8
MyLines
 62
1
 10
91510.0
 20
1.0
 30
0.0
 40
1.0
  1
7694-B
 11
91510.0
 21
1.0
 31
0.0
  0
TEXT
  5
5E3
  8
MyLines
 62
1
 10
91335.0
 20
1.0
 30
0.0
 40
1.0
  1
7694-A
 11
91335.0
 21
1.0
 31
0.0
  0
LINE
  5
5E4
  8
MyLines
 10
91509.0
 20
0.0
 30
0.0
 11
91509.0
 21
70.5
 31
0.0
  0
LINE
  5
5E5
  8
MyLines
 10
91686.0
 20
50.0
 30
0.0
 11
92258.0
 21
50.0
 31
0.0
  0
LINE
  5
5E6
  8
MyLines
 10
91686.0
 20
0.0
 30
0.0
 11
92258.0
 21
0.0
 31
0.0
  0
LINE
  5
5E7
  8
MyLines
 10
91686.0
 20
0.0
 30
0.0
 11
91686.0
 21
50.0
 31
0.0
  0
LINE
  5
5E8
  8
MyLines
 10
92258.0
 20
0.0
 30
0.0
 11
92258.0
 21
50.0
 31
0.0
  0
TEXT
  5
5E9
  8
MyLines
 62
1
 10
91973.0
 20
1.0
 30
0.0
 40
1.0
  1
7695-B
 11
91973.0
 21
1.0
 31
0.0
  0
TEXT
  5
5EA
  8
MyLines
 62
1
 10
91687.0
 20
1.0
 30
0.0
 40
1.0
  1
7695-A
 11
91687.0
 21
1.0
 31
0.0
  0
LINE
  5
5EB
  8
MyLines
 10
91972.0
 20
0.0
 30
0.0
 11
91972.0
 21
50.0
 31
0.0
  0
LINE
  5
5EC
  8
MyLines
 10
92260.0
 20
66.0
 30
0.0
 11
92632.0
 21
66.0
 31
0.0
  0
LINE
  5
5ED
  8
MyLines
 10
92260.0
 20
0.0
 30
0.0
 11
92632.0
 21
0.0
 31
0.0
  0
LINE
  5
5EE
  8
MyLines
 10
92260.0
 20
0.0
 30
0.0
 11
92260.0
 21
66.0
 31
0.0
  0
LINE
  5
5EF
  8
MyLines
 10
92632.0
 20
0.0
 30
0.0
 11
92632.0
 21
66.0
 31
0.0
  0
TEXT
  5
5F0
  8
MyLines
 62
1
 10
92447.0
 20
1.0
 30
0.0
 40
1.0
  1
7696-B
 11
92447.0
 21
1.0
 31
0.0
  0
TEXT
  5
5F1
  8
MyLines
 62
1
 10
92261.0
 20
1.0
 30
0.0
 40
1.0
  1
7696-A
 11
92261.0
 21
1.0
 31
0.0
  0
LINE
  5
5F2
  8
MyLines
 10
92446.0
 20
0.0
 30
0.0
 11
92446.0
 21
66.0
 31
0.0
  0
LINE
  5
5F3
  8
MyLines
 10
92634.0
 20
35.0
 30
0.0
 11
93026.0
 21
35.0
 31
0.0
  0
LINE
  5
5F4
  8
MyLines
 10
92634.0
 20
0.0
 30
0.0
 11
93026.0
 21
0.0
 31
0.0
  0
LINE
  5
5F5
  8
MyLines
 10
92634.0
 20
0.0
 30
0.0
 11
92634.0
 21
35.0
 31
0.0
  0
LINE
  5
5F6
  8
MyLines
 10
93026.0
 20
0.0
 30
0.0
 11
93026.0
 21
35.0
 31
0.0
  0
TEXT
  5
5F7
  8
MyLines
 62
1
 10
92831.0
 20
1.0
 30
0.0
 40
1.0
  1
7697-B
 11
92831.0
 21
1.0
 31
0.0
  0
TEXT
  5
5F8
  8
MyLines
 62
1
 10
92635.0
 20
1.0
 30
0.0
 40
1.0
  1
7697-A
 11
92635.0
 21
1.0
 31
0.0
  0
LINE
  5
5F9
  8
MyLines
 10
92830.0
 20
0.0
 30
0.0
 11
92830.0
 21
35.0
 31
0.0
  0
LINE
  5
5FA
  8
MyLines
 10
93028.0
 20
69.0
 30
0.0
 11
93514.0
 21
69.0
 31
0.0
  0
LINE
  5
5FB
  8
MyLines
 10
93028.0
 20
0.0
 30
0.0
 11
93514.0
 21
0.0
 31
0.0
  0
LINE
  5
5FC
  8
MyLines
 10
93028.0
 20
0.0
 30
0.0
 11
93028.0
 21
69.0
 31
0.0
  0
LINE
  5
5FD
  8
MyLines
 10
93514.0
 20
0.0
 30
0.0
 11
93514.0
 21
69.0
 31
0.0
  0
TEXT
  5
5FE
  8
MyLines
 62
1
 10
93272.0
 20
1.0
 30
0.0
 40
1.0
  1
7698-B
 11
93272.0
 21
1.0
 31
0.0
  0
TEXT
  5
5FF
  8
MyLines
 62
1
 10
93029.0
 20
1.0
 30
0.0
 40
1.0
  1
7698-A
 11
93029.0
 21
1.0
 31
0.0
  0
LINE
  5
600
  8
MyLines
 10
93271.0
 20
0.0
 30
0.0
 11
93271.0
 21
69.0
 31
0.0
  0
LINE
  5
601
  8
MyLines
 10
93516.0
 20
36.5
 30
0.0
 11
93904.0
 21
36.5
 31
0.0
  0
LINE
  5
602
  8
MyLines
 10
93516.0
 20
0.0
 30
0.0
 11
93904.0
 21
0.0
 31
0.0
  0
LINE
  5
603
  8
MyLines
 10
93516.0
 20
0.0
 30
0.0
 11
93516.0
 21
36.5
 31
0.0
  0
LINE
  5
604
  8
MyLines
 10
93904.0
 20
0.0
 30
0.0
 11
93904.0
 21
36.5
 31
0.0
  0
TEXT
  5
605
  8
MyLines
 62
1
 10
93711.0
 20
1.0
 30
0.0
 40
1.0
  1
7699-B
 11
93711.0
 21
1.0
 31
0.0
  0
TEXT
  5
606
  8
MyLines
 62
1
 10
93517.0
 20
1.0
 30
0.0
 40
1.0
  1
7699-A
 11
93517.0
 21
1.0
 31
0.0
  0
LINE
  5
607
  8
MyLines
 10
93710.0
 20
0.0
 30
0.0
 11
93710.0
 21
36.5
 31
0.0
  0
ENDSEC
  0
EOF
