  0
SECTION
  2
HEADER
  9
$ACADVER
  1
AC1009
  9
$INSBASE
 10
0.0
 20
0.0
 30
0.0
  9
$EXTMIN
 10
0.0
 20
0.0
 30
0.0
  9
$EXTMAX
 10
100.0
 20
100.0
 30
0.0
  9
$UNITMODE
 70
0
  9
$AUNITS
 70
0
  9
$ANGBASE
 50
0.0
  9
$ANGDIR
 70
0
  0
ENDSEC
  0
SECTION
  2
TABLES
  0
TABLE
  2
LTYPE
 70
19
  0
LTYPE
  2
CONTINUOUS
 70
0
  3
Solid
 72
65
 73
0
 40
0.0
  0
LTYPE
  2
CENTER
 70
0
  3
Center ____ _ ____ _ ____ _ ____ _ ____ _ ____
 72
65
 73
4
 40
2.0
 49
1.25
 49
-0.25
 49
0.25
 49
-0.25
  0
LTYPE
  2
CENTERX2
 70
0
  3
Center (2x) ________  __  ________  __  ________
 72
65
 73
4
 40
3.5
 49
2.5
 49
-0.25
 49
0.5
 49
-0.25
  0
LTYPE
  2
CENTER2
 70
0
  3
Center (.5x) ____ _ ____ _ ____ _ ____ _ ____
 72
65
 73
4
 40
1.0
 49
0.625
 49
-0.125
 49
0.125
 49
-0.125
  0
LTYPE
  2
DASHED
 70
0
  3
Dashed __ __ __ __ __ __ __ __ __ __ __ __ __ _
 72
65
 73
2
 40
0.6
 49
0.5
 49
-0.1
  0
LTYPE
  2
DASHEDX2
 70
0
  3
Dashed (2x) ____  ____  ____  ____  ____  ____
 72
65
 73
2
 40
1.2
 49
1.0
 49
-0.2
  0
LTYPE
  2
DASHED2
 70
0
  3
Dashed (.5x) _ _ _ _ _ _ _ _ _ _ _ _ _ _
 72
65
 73
2
 40
0.3
 49
0.25
 49
-0.05
  0
LTYPE
  2
PHANTOM
 70
0
  3
Phantom ______  __  __  ______  __  __  ______
 72
65
 73
6
 40
2.5
 49
1.25
 49
-0.25
 49
0.25
 49
-0.25
 49
0.25
 49
-0.25
  0
LTYPE
  2
PHANTOMX2
 70
0
  3
Phantom (2x)____________    ____    ____    ____________
 72
65
 73
6
 40
4.25
 49
2.5
 49
-0.25
 49
0.5
 49
-0.25
 49
0.5
 49
-0.25
  0
LTYPE
  2
PHANTOM2
 70
0
  3
Phantom (.5x) ___ _ _ ___ _ _ ___ _ _ ___ _ _ ___
 72
65
 73
6
 40
1.25
 49
0.625
 49
-0.125
 49
0.125
 49
-0.125
 49
0.125
 49
-0.125
  0
LTYPE
  2
DASHDOT
 70
0
  3
Dash dot __ . __ . __ . __ . __ . __ . __ . __
 72
65
 73
4
 40
1.4
 49
1.0
 49
-0.2
 49
0.0
 49
-0.2
  0
LTYPE
  2
DASHDOTX2
 70
0
  3
Dash dot (2x) ____  .  ____  .  ____  .  ____
 72
65
 73
4
 40
2.4
 49
2.0
 49
-0.2
 49
0.0
 49
-0.2
  0
LTYPE
  2
DASHDOT2
 70
0
  3
Dash dot (.5x) _ . _ . _ . _ . _ . _ . _ . _
 72
65
 73
4
 40
0.7
 49
0.5
 49
-0.1
 49
0.0
 49
-0.1
  0
LTYPE
  2
DOT
 70
0
  3
Dot .  .  .  .  .  .  .  .  .  .  .  .  .  .  .  .
 72
65
 73
2
 40
0.2
 49
0.0
 49
-0.2
  0
LTYPE
  2
DOTX2
 70
0
  3
Dot (2x) .    .    .    .    .    .    .    . 
 72
65
 73
2
 40
0.4
 49
0.0
 49
-0.4
  0
LTYPE
  2
DOT2
 70
0
  3
Dot (.5) . . . . . . . . . . . . . . . . . . . 
 72
65
 73
2
 40
0.1
 49
0.0
 49
-0.1
  0
LTYPE
  2
DIVIDE
 70
0
  3
Divide __ . . __ . . __ . . __ . . __ . . __
 72
65
 73
6
 40
1.6
 49
1.0
 49
-0.2
 49
0.0
 49
-0.2
 49
0.0
 49
-0.2
  0
LTYPE
  2
DIVIDEX2
 70
0
  3
Divide (2x) ____  . .  ____  . .  ____  . .  ____
 72
65
 73
6
 40
2.6
 49
2.0
 49
-0.2
 49
0.0
 49
-0.2
 49
0.0
 49
-0.2
  0
LTYPE
  2
DIVIDE2
 70
0
  3
Divide(.5x) _ . _ . _ . _ . _ . _ . _ . _
 72
65
 73
6
 40
0.8
 49
0.5
 49
-0.1
 49
0.0
 49
-0.1
 49
0.0
 49
-0.1
  0
ENDTAB
  0
TABLE
  2
LAYER
 70
7
  0
LAYER
  2
DIMENSIONS
 70
0
 62
1
  6
CONTINUOUS
  0
LAYER
  2
TABLEBACKGROUND
 70
0
 62
1
  6
CONTINUOUS
  0
LAYER
  2
TABLECONTENT
 70
0
 62
1
  6
CONTINUOUS
  0
LAYER
  2
TABLEGRID
 70
0
 62
1
  6
CONTINUOUS
  0
LAYER
  2
VIEWPORTS
 70
0
 62
7
  6
CONTINUOUS
  0
LAYER
  2
WQ_LINES
 70
0
 62
1
  6
CONTINUOUS
  0
LAYER
  2
WQ_TEXT_LAYER
 70
0
 62
1
  6
CONTINUOUS
  0
ENDTAB
  0
TABLE
  2
STYLE
 70
12
  0
STYLE
  2
STANDARD
 70
0
 40
0.0
 41
1.0
 42
1.0
 50
0.0
 71
0
  3
arial.ttf
  4

  0
STYLE
  2
ARIAL
 70
0
 40
0.0
 41
1.0
 42
1.0
 50
0.0
 71
0
  3
arial.ttf
  4

  0
STYLE
  2
ARIAL_BOLD
 70
0
 40
0.0
 41
1.0
 42
1.0
 50
0.0
 71
0
  3
arialbd.ttf
  4

  0
STYLE
  2
ARIAL_ITALIC
 70
0
 40
0.0
 41
1.0
 42
1.0
 50
0.0
 71
0
  3
ariali.ttf
  4

  0
STYLE
  2
ARIAL_BOLD_ITALIC
 70
0
 40
0.0
 41
1.0
 42
1.0
 50
0.0
 71
0
  3
arialbi.ttf
  4

  0
STYLE
  2
ARIAL_BLACK
 70
0
 40
0.0
 41
1.0
 42
1.0
 50
0.0
 71
0
  3
ariblk.ttf
  4

  0
STYLE
  2
ISOCPEUR
 70
0
 40
0.0
 41
1.0
 42
1.0
 50
0.0
 71
0
  3
isocpeur.ttf
  4

  0
STYLE
  2
ISOCPEUR_ITALIC
 70
0
 40
0.0
 41
1.0
 42
1.0
 50
0.0
 71
0
  3
isocpeui.ttf
  4

  0
STYLE
  2
TIMES
 70
0
 40
0.0
 41
1.0
 42
1.0
 50
0.0
 71
0
  3
times.ttf
  4

  0
STYLE
  2
TIMES_BOLD
 70
0
 40
0.0
 41
1.0
 42
1.0
 50
0.0
 71
0
  3
timesbd.ttf
  4

  0
STYLE
  2
TIMES_ITALIC
 70
0
 40
0.0
 41
1.0
 42
1.0
 50
0.0
 71
0
  3
timesi.ttf
  4

  0
STYLE
  2
TIMES_BOLD_ITALIC
 70
0
 40
0.0
 41
1.0
 42
1.0
 50
0.0
 71
0
  3
timesbi.ttf
  4

  0
ENDTAB
  0
TABLE
  2
VIEW
 70
0
  0
ENDTAB
  0
TABLE
  2
APPID
 70
1
  0
APPID
  2
DXFWRITE
 70
0
  0
ENDTAB
  0
TABLE
  2
VPORT
 70
0
  0
ENDTAB
  0
TABLE
  2
UCS
 70
0
  0
ENDTAB
  0
ENDSEC
  0
SECTION
  2
BLOCKS
  0
ENDSEC
  0
SECTION
  2
ENTITIES
  0
VIEWPORT
  8
VIEWPORTS
 67
1
 10
0.0
 20
0.0
 30
0.0
 40
1.0
 41
1.0
 68
1
 69
1
1001
ACAD
1000
MVIEW
1002
{
1070
16
1010
0.0
1020
0.0
1030
0.0
1010
0.0
1020
0.0
1030
0.0
1040
0.0
1040
1.0
1040
0.0
1040
0.0
1040
50.0
1040
0.0
1040
0.0
1070
0
1070
100
1070
1
1070
3
1070
0
1070
0
1070
0
1070
0
1040
0.0
1040
0.0
1040
0.0
1040
0.1
1040
0.1
1040
0.1
1040
0.1
1070
0
1002
{
1002
}
1002
}
  0
LINE
 62
7
  8
WQ_LINES
 10
0.0
 20
90.0
 30
0.0
 11
209.0
 21
90.0
 31
0.0
  0
LINE
 62
7
  8
WQ_LINES
 10
0.0
 20
0.0
 30
0.0
 11
209.0
 21
0.0
 31
0.0
  0
LINE
 62
7
  8
WQ_LINES
 10
0.0
 20
0.0
 30
0.0
 11
0.0
 21
90.0
 31
0.0
  0
LINE
 62
7
  8
WQ_LINES
 10
209.0
 20
0.0
 30
0.0
 11
209.0
 21
90.0
 31
0.0
  0
TEXT
  8
WQ_TEXT_LAYER
 10
1.0
 20
46.0
 30
0.0
 40
2.0
  1
6500-B
  0
TEXT
  8
WQ_TEXT_LAYER
 10
1.0
 20
1.0
 30
0.0
 40
2.0
  1
6500-A
  0
LINE
 62
7
  8
WQ_LINES
 10
0.0
 20
45.0
 30
0.0
 11
209.0
 21
45.0
 31
0.0
  0
LINE
 62
7
  8
WQ_LINES
 10
211.0
 20
77.0
 30
0.0
 11
417.0
 21
77.0
 31
0.0
  0
LINE
 62
7
  8
WQ_LINES
 10
211.0
 20
0.0
 30
0.0
 11
417.0
 21
0.0
 31
0.0
  0
LINE
 62
7
  8
WQ_LINES
 10
211.0
 20
0.0
 30
0.0
 11
211.0
 21
77.0
 31
0.0
  0
LINE
 62
7
  8
WQ_LINES
 10
417.0
 20
0.0
 30
0.0
 11
417.0
 21
77.0
 31
0.0
  0
TEXT
  8
WQ_TEXT_LAYER
 10
212.0
 20
39.5
 30
0.0
 40
2.0
  1
6501-B
  0
TEXT
  8
WQ_TEXT_LAYER
 10
212.0
 20
1.0
 30
0.0
 40
2.0
  1
6501-A
  0
LINE
 62
7
  8
WQ_LINES
 10
211.0
 20
38.5
 30
0.0
 11
417.0
 21
38.5
 31
0.0
  0
LINE
 62
7
  8
WQ_LINES
 10
419.0
 20
88.0
 30
0.0
 11
696.0
 21
88.0
 31
0.0
  0
LINE
 62
7
  8
WQ_LINES
 10
419.0
 20
0.0
 30
0.0
 11
696.0
 21
0.0
 31
0.0
  0
LINE
 62
7
  8
WQ_LINES
 10
419.0
 20
0.0
 30
0.0
 11
419.0
 21
88.0
 31
0.0
  0
LINE
 62
7
  8
WQ_LINES
 10
696.0
 20
0.0
 30
0.0
 11
696.0
 21
88.0
 31
0.0
  0
TEXT
  8
WQ_TEXT_LAYER
 10
420.0
 20
45.0
 30
0.0
 40
2.0
  1
6502-B
  0
TEXT
  8
WQ_TEXT_LAYER
 10
420.0
 20
1.0
 30
0.0
 40
2.0
  1
6502-A
  0
LINE
 62
7
  8
WQ_LINES
 10
419.0
 20
44.0
 30
0.0
 11
696.0
 21
44.0
 31
0.0
  0
LINE
 62
7
  8
WQ_LINES
 10
698.0
 20
146.0
 30
0.0
 11
964.0
 21
146.0
 31
0.0
  0
LINE
 62
7
  8
WQ_LINES
 10
698.0
 20
0.0
 30
0.0
 11
964.0
 21
0.0
 31
0.0
  0
LINE
 62
7
  8
WQ_LINES
 10
698.0
 20
0.0
 30
0.0
 11
698.0
 21
146.0
 31
0.0
  0
LINE
 62
7
  8
WQ_LINES
 10
964.0
 20
0.0
 30
0.0
 11
964.0
 21
146.0
 31
0.0
  0
TEXT
  8
WQ_TEXT_LAYER
 10
699.0
 20
74.0
 30
0.0
 40
2.0
  1
6503-B
  0
TEXT
  8
WQ_TEXT_LAYER
 10
699.0
 20
1.0
 30
0.0
 40
2.0
  1
6503-A
  0
LINE
 62
7
  8
WQ_LINES
 10
698.0
 20
73.0
 30
0.0
 11
964.0
 21
73.0
 31
0.0
  0
LINE
 62
7
  8
WQ_LINES
 10
966.0
 20
123.0
 30
0.0
 11
1176.0
 21
123.0
 31
0.0
  0
LINE
 62
7
  8
WQ_LINES
 10
966.0
 20
0.0
 30
0.0
 11
1176.0
 21
0.0
 31
0.0
  0
LINE
 62
7
  8
WQ_LINES
 10
966.0
 20
0.0
 30
0.0
 11
966.0
 21
123.0
 31
0.0
  0
LINE
 62
7
  8
WQ_LINES
 10
1176.0
 20
0.0
 30
0.0
 11
1176.0
 21
123.0
 31
0.0
  0
TEXT
  8
WQ_TEXT_LAYER
 10
967.0
 20
62.5
 30
0.0
 40
2.0
  1
6504-B
  0
TEXT
  8
WQ_TEXT_LAYER
 10
967.0
 20
1.0
 30
0.0
 40
2.0
  1
6504-A
  0
LINE
 62
7
  8
WQ_LINES
 10
966.0
 20
61.5
 30
0.0
 11
1176.0
 21
61.5
 31
0.0
  0
LINE
 62
7
  8
WQ_LINES
 10
1178.0
 20
123.0
 30
0.0
 11
1450.0
 21
123.0
 31
0.0
  0
LINE
 62
7
  8
WQ_LINES
 10
1178.0
 20
0.0
 30
0.0
 11
1450.0
 21
0.0
 31
0.0
  0
LINE
 62
7
  8
WQ_LINES
 10
1178.0
 20
0.0
 30
0.0
 11
1178.0
 21
123.0
 31
0.0
  0
LINE
 62
7
  8
WQ_LINES
 10
1450.0
 20
0.0
 30
0.0
 11
1450.0
 21
123.0
 31
0.0
  0
TEXT
  8
WQ_TEXT_LAYER
 10
1179.0
 20
62.5
 30
0.0
 40
2.0
  1
6505-B
  0
TEXT
  8
WQ_TEXT_LAYER
 10
1179.0
 20
1.0
 30
0.0
 40
2.0
  1
6505-A
  0
LINE
 62
7
  8
WQ_LINES
 10
1178.0
 20
61.5
 30
0.0
 11
1450.0
 21
61.5
 31
0.0
  0
LINE
 62
7
  8
WQ_LINES
 10
1452.0
 20
154.0
 30
0.0
 11
1637.0
 21
154.0
 31
0.0
  0
LINE
 62
7
  8
WQ_LINES
 10
1452.0
 20
0.0
 30
0.0
 11
1637.0
 21
0.0
 31
0.0
  0
LINE
 62
7
  8
WQ_LINES
 10
1452.0
 20
0.0
 30
0.0
 11
1452.0
 21
154.0
 31
0.0
  0
LINE
 62
7
  8
WQ_LINES
 10
1637.0
 20
0.0
 30
0.0
 11
1637.0
 21
154.0
 31
0.0
  0
TEXT
  8
WQ_TEXT_LAYER
 10
1453.0
 20
78.0
 30
0.0
 40
2.0
  1
6506-B
  0
TEXT
  8
WQ_TEXT_LAYER
 10
1453.0
 20
1.0
 30
0.0
 40
2.0
  1
6506-A
  0
LINE
 62
7
  8
WQ_LINES
 10
1452.0
 20
77.0
 30
0.0
 11
1637.0
 21
77.0
 31
0.0
  0
LINE
 62
7
  8
WQ_LINES
 10
1639.0
 20
107.0
 30
0.0
 11
1852.0
 21
107.0
 31
0.0
  0
LINE
 62
7
  8
WQ_LINES
 10
1639.0
 20
0.0
 30
0.0
 11
1852.0
 21
0.0
 31
0.0
  0
LINE
 62
7
  8
WQ_LINES
 10
1639.0
 20
0.0
 30
0.0
 11
1639.0
 21
107.0
 31
0.0
  0
LINE
 62
7
  8
WQ_LINES
 10
1852.0
 20
0.0
 30
0.0
 11
1852.0
 21
107.0
 31
0.0
  0
TEXT
  8
WQ_TEXT_LAYER
 10
1640.0
 20
54.5
 30
0.0
 40
2.0
  1
6507-B
  0
TEXT
  8
WQ_TEXT_LAYER
 10
1640.0
 20
1.0
 30
0.0
 40
2.0
  1
6507-A
  0
LINE
 62
7
  8
WQ_LINES
 10
1639.0
 20
53.5
 30
0.0
 11
1852.0
 21
53.5
 31
0.0
  0
LINE
 62
7
  8
WQ_LINES
 10
1854.0
 20
99.0
 30
0.0
 11
2094.0
 21
99.0
 31
0.0
  0
LINE
 62
7
  8
WQ_LINES
 10
1854.0
 20
0.0
 30
0.0
 11
2094.0
 21
0.0
 31
0.0
  0
LINE
 62
7
  8
WQ_LINES
 10
1854.0
 20
0.0
 30
0.0
 11
1854.0
 21
99.0
 31
0.0
  0
LINE
 62
7
  8
WQ_LINES
 10
2094.0
 20
0.0
 30
0.0
 11
2094.0
 21
99.0
 31
0.0
  0
TEXT
  8
WQ_TEXT_LAYER
 10
1855.0
 20
50.5
 30
0.0
 40
2.0
  1
6508-B
  0
TEXT
  8
WQ_TEXT_LAYER
 10
1855.0
 20
1.0
 30
0.0
 40
2.0
  1
6508-A
  0
LINE
 62
7
  8
WQ_LINES
 10
1854.0
 20
49.5
 30
0.0
 11
2094.0
 21
49.5
 31
0.0
  0
LINE
 62
7
  8
WQ_LINES
 10
2096.0
 20
150.0
 30
0.0
 11
2298.0
 21
150.0
 31
0.0
  0
LINE
 62
7
  8
WQ_LINES
 10
2096.0
 20
0.0
 30
0.0
 11
2298.0
 21
0.0
 31
0.0
  0
LINE
 62
7
  8
WQ_LINES
 10
2096.0
 20
0.0
 30
0.0
 11
2096.0
 21
150.0
 31
0.0
  0
LINE
 62
7
  8
WQ_LINES
 10
2298.0
 20
0.0
 30
0.0
 11
2298.0
 21
150.0
 31
0.0
  0
TEXT
  8
WQ_TEXT_LAYER
 10
2097.0
 20
76.0
 30
0.0
 40
2.0
  1
6509-B
  0
TEXT
  8
WQ_TEXT_LAYER
 10
2097.0
 20
1.0
 30
0.0
 40
2.0
  1
6509-A
  0
LINE
 62
7
  8
WQ_LINES
 10
2096.0
 20
75.0
 30
0.0
 11
2298.0
 21
75.0
 31
0.0
  0
LINE
 62
7
  8
WQ_LINES
 10
2300.0
 20
82.0
 30
0.0
 11
2499.0
 21
82.0
 31
0.0
  0
LINE
 62
7
  8
WQ_LINES
 10
2300.0
 20
0.0
 30
0.0
 11
2499.0
 21
0.0
 31
0.0
  0
LINE
 62
7
  8
WQ_LINES
 10
2300.0
 20
0.0
 30
0.0
 11
2300.0
 21
82.0
 31
0.0
  0
LINE
 62
7
  8
WQ_LINES
 10
2499.0
 20
0.0
 30
0.0
 11
2499.0
 21
82.0
 31
0.0
  0
TEXT
  8
WQ_TEXT_LAYER
 10
2301.0
 20
42.0
 30
0.0
 40
2.0
  1
6510-B
  0
TEXT
  8
WQ_TEXT_LAYER
 10
2301.0
 20
1.0
 30
0.0
 40
2.0
  1
6510-A
  0
LINE
 62
7
  8
WQ_LINES
 10
2300.0
 20
41.0
 30
0.0
 11
2499.0
 21
41.0
 31
0.0
  0
LINE
 62
7
  8
WQ_LINES
 10
2501.0
 20
110.0
 30
0.0
 11
2792.0
 21
110.0
 31
0.0
  0
LINE
 62
7
  8
WQ_LINES
 10
2501.0
 20
0.0
 30
0.0
 11
2792.0
 21
0.0
 31
0.0
  0
LINE
 62
7
  8
WQ_LINES
 10
2501.0
 20
0.0
 30
0.0
 11
2501.0
 21
110.0
 31
0.0
  0
LINE
 62
7
  8
WQ_LINES
 10
2792.0
 20
0.0
 30
0.0
 11
2792.0
 21
110.0
 31
0.0
  0
TEXT
  8
WQ_TEXT_LAYER
 10
2502.0
 20
56.0
 30
0.0
 40
2.0
  1
6511-B
  0
TEXT
  8
WQ_TEXT_LAYER
 10
2502.0
 20
1.0
 30
0.0
 40
2.0
  1
6511-A
  0
LINE
 62
7
  8
WQ_LINES
 10
2501.0
 20
55.0
 30
0.0
 11
2792.0
 21
55.0
 31
0.0
  0
LINE
 62
7
  8
WQ_LINES
 10
2794.0
 20
94.0
 30
0.0
 11
3011.0
 21
94.0
 31
0.0
  0
LINE
 62
7
  8
WQ_LINES
 10
2794.0
 20
0.0
 30
0.0
 11
3011.0
 21
0.0
 31
0.0
  0
LINE
 62
7
  8
WQ_LINES
 10
2794.0
 20
0.0
 30
0.0
 11
2794.0
 21
94.0
 31
0.0
  0
LINE
 62
7
  8
WQ_LINES
 10
3011.0
 20
0.0
 30
0.0
 11
3011.0
 21
94.0
 31
0.0
  0
TEXT
  8
WQ_TEXT_LAYER
 10
2795.0
 20
48.0
 30
0.0
 40
2.0
  1
6512-B
  0
TEXT
  8
WQ_TEXT_LAYER
 10
2795.0
 20
1.0
 30
0.0
 40
2.0
  1
6512-A
  0
LINE
 62
7
  8
WQ_LINES
 10
2794.0
 20
47.0
 30
0.0
 11
3011.0
 21
47.0
 31
0.0
  0
LINE
 62
7
  8
WQ_LINES
 10
3013.0
 20
119.0
 30
0.0
 11
3253.0
 21
119.0
 31
0.0
  0
LINE
 62
7
  8
WQ_LINES
 10
3013.0
 20
0.0
 30
0.0
 11
3253.0
 21
0.0
 31
0.0
  0
LINE
 62
7
  8
WQ_LINES
 10
3013.0
 20
0.0
 30
0.0
 11
3013.0
 21
119.0
 31
0.0
  0
LINE
 62
7
  8
WQ_LINES
 10
3253.0
 20
0.0
 30
0.0
 11
3253.0
 21
119.0
 31
0.0
  0
TEXT
  8
WQ_TEXT_LAYER
 10
3014.0
 20
60.5
 30
0.0
 40
2.0
  1
6513-B
  0
TEXT
  8
WQ_TEXT_LAYER
 10
3014.0
 20
1.0
 30
0.0
 40
2.0
  1
6513-A
  0
LINE
 62
7
  8
WQ_LINES
 10
3013.0
 20
59.5
 30
0.0
 11
3253.0
 21
59.5
 31
0.0
  0
LINE
 62
7
  8
WQ_LINES
 10
3255.0
 20
73.0
 30
0.0
 11
3525.0
 21
73.0
 31
0.0
  0
LINE
 62
7
  8
WQ_LINES
 10
3255.0
 20
0.0
 30
0.0
 11
3525.0
 21
0.0
 31
0.0
  0
LINE
 62
7
  8
WQ_LINES
 10
3255.0
 20
0.0
 30
0.0
 11
3255.0
 21
73.0
 31
0.0
  0
LINE
 62
7
  8
WQ_LINES
 10
3525.0
 20
0.0
 30
0.0
 11
3525.0
 21
73.0
 31
0.0
  0
TEXT
  8
WQ_TEXT_LAYER
 10
3256.0
 20
37.5
 30
0.0
 40
2.0
  1
6514-B
  0
TEXT
  8
WQ_TEXT_LAYER
 10
3256.0
 20
1.0
 30
0.0
 40
2.0
  1
6514-A
  0
LINE
 62
7
  8
WQ_LINES
 10
3255.0
 20
36.5
 30
0.0
 11
3525.0
 21
36.5
 31
0.0
  0
LINE
 62
7
  8
WQ_LINES
 10
3527.0
 20
140.0
 30
0.0
 11
3814.0
 21
140.0
 31
0.0
  0
LINE
 62
7
  8
WQ_LINES
 10
3527.0
 20
0.0
 30
0.0
 11
3814.0
 21
0.0
 31
0.0
  0
LINE
 62
7
  8
WQ_LINES
 10
3527.0
 20
0.0
 30
0.0
 11
3527.0
 21
140.0
 31
0.0
  0
LINE
 62
7
  8
WQ_LINES
 10
3814.0
 20
0.0
 30
0.0
 11
3814.0
 21
140.0
 31
0.0
  0
TEXT
  8
WQ_TEXT_LAYER
 10
3528.0
 20
71.0
 30
0.0
 40
2.0
  1
6515-B
  0
TEXT
  8
WQ_TEXT_LAYER
 10
3528.0
 20
1.0
 30
0.0
 40
2.0
  1
6515-A
  0
LINE
 62
7
  8
WQ_LINES
 10
3527.0
 20
70.0
 30
0.0
 11
3814.0
 21
70.0
 31
0.0
  0
LINE
 62
7
  8
WQ_LINES
 10
3816.0
 20
109.0
 30
0.0
 11
4044.0
 21
109.0
 31
0.0
  0
LINE
 62
7
  8
WQ_LINES
 10
3816.0
 20
0.0
 30
0.0
 11
4044.0
 21
0.0
 31
0.0
  0
LINE
 62
7
  8
WQ_LINES
 10
3816.0
 20
0.0
 30
0.0
 11
3816.0
 21
109.0
 31
0.0
  0
LINE
 62
7
  8
WQ_LINES
 10
4044.0
 20
0.0
 30
0.0
 11
4044.0
 21
109.0
 31
0.0
  0
TEXT
  8
WQ_TEXT_LAYER
 10
3817.0
 20
55.5
 30
0.0
 40
2.0
  1
6516-B
  0
TEXT
  8
WQ_TEXT_LAYER
 10
3817.0
 20
1.0
 30
0.0
 40
2.0
  1
6516-A
  0
LINE
 62
7
  8
WQ_LINES
 10
3816.0
 20
54.5
 30
0.0
 11
4044.0
 21
54.5
 31
0.0
  0
LINE
 62
7
  8
WQ_LINES
 10
4046.0
 20
158.0
 30
0.0
 11
4259.0
 21
158.0
 31
0.0
  0
LINE
 62
7
  8
WQ_LINES
 10
4046.0
 20
0.0
 30
0.0
 11
4259.0
 21
0.0
 31
0.0
  0
LINE
 62
7
  8
WQ_LINES
 10
4046.0
 20
0.0
 30
0.0
 11
4046.0
 21
158.0
 31
0.0
  0
LINE
 62
7
  8
WQ_LINES
 10
4259.0
 20
0.0
 30
0.0
 11
4259.0
 21
158.0
 31
0.0
  0
TEXT
  8
WQ_TEXT_LAYER
 10
4047.0
 20
80.0
 30
0.0
 40
2.0
  1
6517-B
  0
TEXT
  8
WQ_TEXT_LAYER
 10
4047.0
 20
1.0
 30
0.0
 40
2.0
  1
6517-A
  0
LINE
 62
7
  8
WQ_LINES
 10
4046.0
 20
79.0
 30
0.0
 11
4259.0
 21
79.0
 31
0.0
  0
LINE
 62
7
  8
WQ_LINES
 10
4261.0
 20
171.0
 30
0.0
 11
4534.0
 21
171.0
 31
0.0
  0
LINE
 62
7
  8
WQ_LINES
 10
4261.0
 20
0.0
 30
0.0
 11
4534.0
 21
0.0
 31
0.0
  0
LINE
 62
7
  8
WQ_LINES
 10
4261.0
 20
0.0
 30
0.0
 11
4261.0
 21
171.0
 31
0.0
  0
LINE
 62
7
  8
WQ_LINES
 10
4534.0
 20
0.0
 30
0.0
 11
4534.0
 21
171.0
 31
0.0
  0
TEXT
  8
WQ_TEXT_LAYER
 10
4262.0
 20
86.5
 30
0.0
 40
2.0
  1
6518-B
  0
TEXT
  8
WQ_TEXT_LAYER
 10
4262.0
 20
1.0
 30
0.0
 40
2.0
  1
6518-A
  0
LINE
 62
7
  8
WQ_LINES
 10
4261.0
 20
85.5
 30
0.0
 11
4534.0
 21
85.5
 31
0.0
  0
LINE
 62
7
  8
WQ_LINES
 10
4536.0
 20
119.0
 30
0.0
 11
4718.0
 21
119.0
 31
0.0
  0
LINE
 62
7
  8
WQ_LINES
 10
4536.0
 20
0.0
 30
0.0
 11
4718.0
 21
0.0
 31
0.0
  0
LINE
 62
7
  8
WQ_LINES
 10
4536.0
 20
0.0
 30
0.0
 11
4536.0
 21
119.0
 31
0.0
  0
LINE
 62
7
  8
WQ_LINES
 10
4718.0
 20
0.0
 30
0.0
 11
4718.0
 21
119.0
 31
0.0
  0
TEXT
  8
WQ_TEXT_LAYER
 10
4537.0
 20
60.5
 30
0.0
 40
2.0
  1
6519-B
  0
TEXT
  8
WQ_TEXT_LAYER
 10
4537.0
 20
1.0
 30
0.0
 40
2.0
  1
6519-A
  0
LINE
 62
7
  8
WQ_LINES
 10
4536.0
 20
59.5
 30
0.0
 11
4718.0
 21
59.5
 31
0.0
  0
LINE
 62
7
  8
WQ_LINES
 10
4720.0
 20
130.0
 30
0.0
 11
4943.0
 21
130.0
 31
0.0
  0
LINE
 62
7
  8
WQ_LINES
 10
4720.0
 20
0.0
 30
0.0
 11
4943.0
 21
0.0
 31
0.0
  0
LINE
 62
7
  8
WQ_LINES
 10
4720.0
 20
0.0
 30
0.0
 11
4720.0
 21
130.0
 31
0.0
  0
LINE
 62
7
  8
WQ_LINES
 10
4943.0
 20
0.0
 30
0.0
 11
4943.0
 21
130.0
 31
0.0
  0
TEXT
  8
WQ_TEXT_LAYER
 10
4721.0
 20
66.0
 30
0.0
 40
2.0
  1
6520-B
  0
TEXT
  8
WQ_TEXT_LAYER
 10
4721.0
 20
1.0
 30
0.0
 40
2.0
  1
6520-A
  0
LINE
 62
7
  8
WQ_LINES
 10
4720.0
 20
65.0
 30
0.0
 11
4943.0
 21
65.0
 31
0.0
  0
LINE
 62
7
  8
WQ_LINES
 10
4945.0
 20
168.0
 30
0.0
 11
5142.0
 21
168.0
 31
0.0
  0
LINE
 62
7
  8
WQ_LINES
 10
4945.0
 20
0.0
 30
0.0
 11
5142.0
 21
0.0
 31
0.0
  0
LINE
 62
7
  8
WQ_LINES
 10
4945.0
 20
0.0
 30
0.0
 11
4945.0
 21
168.0
 31
0.0
  0
LINE
 62
7
  8
WQ_LINES
 10
5142.0
 20
0.0
 30
0.0
 11
5142.0
 21
168.0
 31
0.0
  0
TEXT
  8
WQ_TEXT_LAYER
 10
4946.0
 20
85.0
 30
0.0
 40
2.0
  1
6521-B
  0
TEXT
  8
WQ_TEXT_LAYER
 10
4946.0
 20
1.0
 30
0.0
 40
2.0
  1
6521-A
  0
LINE
 62
7
  8
WQ_LINES
 10
4945.0
 20
84.0
 30
0.0
 11
5142.0
 21
84.0
 31
0.0
  0
LINE
 62
7
  8
WQ_LINES
 10
5144.0
 20
171.0
 30
0.0
 11
5334.0
 21
171.0
 31
0.0
  0
LINE
 62
7
  8
WQ_LINES
 10
5144.0
 20
0.0
 30
0.0
 11
5334.0
 21
0.0
 31
0.0
  0
LINE
 62
7
  8
WQ_LINES
 10
5144.0
 20
0.0
 30
0.0
 11
5144.0
 21
171.0
 31
0.0
  0
LINE
 62
7
  8
WQ_LINES
 10
5334.0
 20
0.0
 30
0.0
 11
5334.0
 21
171.0
 31
0.0
  0
TEXT
  8
WQ_TEXT_LAYER
 10
5145.0
 20
86.5
 30
0.0
 40
2.0
  1
6522-B
  0
TEXT
  8
WQ_TEXT_LAYER
 10
5145.0
 20
1.0
 30
0.0
 40
2.0
  1
6522-A
  0
LINE
 62
7
  8
WQ_LINES
 10
5144.0
 20
85.5
 30
0.0
 11
5334.0
 21
85.5
 31
0.0
  0
LINE
 62
7
  8
WQ_LINES
 10
5336.0
 20
157.0
 30
0.0
 11
5580.0
 21
157.0
 31
0.0
  0
LINE
 62
7
  8
WQ_LINES
 10
5336.0
 20
0.0
 30
0.0
 11
5580.0
 21
0.0
 31
0.0
  0
LINE
 62
7
  8
WQ_LINES
 10
5336.0
 20
0.0
 30
0.0
 11
5336.0
 21
157.0
 31
0.0
  0
LINE
 62
7
  8
WQ_LINES
 10
5580.0
 20
0.0
 30
0.0
 11
5580.0
 21
157.0
 31
0.0
  0
TEXT
  8
WQ_TEXT_LAYER
 10
5337.0
 20
79.5
 30
0.0
 40
2.0
  1
6523-B
  0
TEXT
  8
WQ_TEXT_LAYER
 10
5337.0
 20
1.0
 30
0.0
 40
2.0
  1
6523-A
  0
LINE
 62
7
  8
WQ_LINES
 10
5336.0
 20
78.5
 30
0.0
 11
5580.0
 21
78.5
 31
0.0
  0
LINE
 62
7
  8
WQ_LINES
 10
5582.0
 20
118.0
 30
0.0
 11
5827.0
 21
118.0
 31
0.0
  0
LINE
 62
7
  8
WQ_LINES
 10
5582.0
 20
0.0
 30
0.0
 11
5827.0
 21
0.0
 31
0.0
  0
LINE
 62
7
  8
WQ_LINES
 10
5582.0
 20
0.0
 30
0.0
 11
5582.0
 21
118.0
 31
0.0
  0
LINE
 62
7
  8
WQ_LINES
 10
5827.0
 20
0.0
 30
0.0
 11
5827.0
 21
118.0
 31
0.0
  0
TEXT
  8
WQ_TEXT_LAYER
 10
5583.0
 20
60.0
 30
0.0
 40
2.0
  1
6524-B
  0
TEXT
  8
WQ_TEXT_LAYER
 10
5583.0
 20
1.0
 30
0.0
 40
2.0
  1
6524-A
  0
LINE
 62
7
  8
WQ_LINES
 10
5582.0
 20
59.0
 30
0.0
 11
5827.0
 21
59.0
 31
0.0
  0
LINE
 62
7
  8
WQ_LINES
 10
5829.0
 20
165.0
 30
0.0
 11
6016.0
 21
165.0
 31
0.0
  0
LINE
 62
7
  8
WQ_LINES
 10
5829.0
 20
0.0
 30
0.0
 11
6016.0
 21
0.0
 31
0.0
  0
LINE
 62
7
  8
WQ_LINES
 10
5829.0
 20
0.0
 30
0.0
 11
5829.0
 21
165.0
 31
0.0
  0
LINE
 62
7
  8
WQ_LINES
 10
6016.0
 20
0.0
 30
0.0
 11
6016.0
 21
165.0
 31
0.0
  0
TEXT
  8
WQ_TEXT_LAYER
 10
5830.0
 20
83.5
 30
0.0
 40
2.0
  1
6525-B
  0
TEXT
  8
WQ_TEXT_LAYER
 10
5830.0
 20
1.0
 30
0.0
 40
2.0
  1
6525-A
  0
LINE
 62
7
  8
WQ_LINES
 10
5829.0
 20
82.5
 30
0.0
 11
6016.0
 21
82.5
 31
0.0
  0
LINE
 62
7
  8
WQ_LINES
 10
6018.0
 20
179.0
 30
0.0
 11
6313.0
 21
179.0
 31
0.0
  0
LINE
 62
7
  8
WQ_LINES
 10
6018.0
 20
0.0
 30
0.0
 11
6313.0
 21
0.0
 31
0.0
  0
LINE
 62
7
  8
WQ_LINES
 10
6018.0
 20
0.0
 30
0.0
 11
6018.0
 21
179.0
 31
0.0
  0
LINE
 62
7
  8
WQ_LINES
 10
6313.0
 20
0.0
 30
0.0
 11
6313.0
 21
179.0
 31
0.0
  0
TEXT
  8
WQ_TEXT_LAYER
 10
6019.0
 20
90.5
 30
0.0
 40
2.0
  1
6526-B
  0
TEXT
  8
WQ_TEXT_LAYER
 10
6019.0
 20
1.0
 30
0.0
 40
2.0
  1
6526-A
  0
LINE
 62
7
  8
WQ_LINES
 10
6018.0
 20
89.5
 30
0.0
 11
6313.0
 21
89.5
 31
0.0
  0
LINE
 62
7
  8
WQ_LINES
 10
6315.0
 20
108.0
 30
0.0
 11
6557.0
 21
108.0
 31
0.0
  0
LINE
 62
7
  8
WQ_LINES
 10
6315.0
 20
0.0
 30
0.0
 11
6557.0
 21
0.0
 31
0.0
  0
LINE
 62
7
  8
WQ_LINES
 10
6315.0
 20
0.0
 30
0.0
 11
6315.0
 21
108.0
 31
0.0
  0
LINE
 62
7
  8
WQ_LINES
 10
6557.0
 20
0.0
 30
0.0
 11
6557.0
 21
108.0
 31
0.0
  0
TEXT
  8
WQ_TEXT_LAYER
 10
6316.0
 20
55.0
 30
0.0
 40
2.0
  1
6527-B
  0
TEXT
  8
WQ_TEXT_LAYER
 10
6316.0
 20
1.0
 30
0.0
 40
2.0
  1
6527-A
  0
LINE
 62
7
  8
WQ_LINES
 10
6315.0
 20
54.0
 30
0.0
 11
6557.0
 21
54.0
 31
0.0
  0
LINE
 62
7
  8
WQ_LINES
 10
6559.0
 20
123.0
 30
0.0
 11
6858.0
 21
123.0
 31
0.0
  0
LINE
 62
7
  8
WQ_LINES
 10
6559.0
 20
0.0
 30
0.0
 11
6858.0
 21
0.0
 31
0.0
  0
LINE
 62
7
  8
WQ_LINES
 10
6559.0
 20
0.0
 30
0.0
 11
6559.0
 21
123.0
 31
0.0
  0
LINE
 62
7
  8
WQ_LINES
 10
6858.0
 20
0.0
 30
0.0
 11
6858.0
 21
123.0
 31
0.0
  0
TEXT
  8
WQ_TEXT_LAYER
 10
6560.0
 20
62.5
 30
0.0
 40
2.0
  1
6528-B
  0
TEXT
  8
WQ_TEXT_LAYER
 10
6560.0
 20
1.0
 30
0.0
 40
2.0
  1
6528-A
  0
LINE
 62
7
  8
WQ_LINES
 10
6559.0
 20
61.5
 30
0.0
 11
6858.0
 21
61.5
 31
0.0
  0
LINE
 62
7
  8
WQ_LINES
 10
6860.0
 20
77.0
 30
0.0
 11
7055.0
 21
77.0
 31
0.0
  0
LINE
 62
7
  8
WQ_LINES
 10
6860.0
 20
0.0
 30
0.0
 11
7055.0
 21
0.0
 31
0.0
  0
LINE
 62
7
  8
WQ_LINES
 10
6860.0
 20
0.0
 30
0.0
 11
6860.0
 21
77.0
 31
0.0
  0
LINE
 62
7
  8
WQ_LINES
 10
7055.0
 20
0.0
 30
0.0
 11
7055.0
 21
77.0
 31
0.0
  0
TEXT
  8
WQ_TEXT_LAYER
 10
6861.0
 20
39.5
 30
0.0
 40
2.0
  1
6529-B
  0
TEXT
  8
WQ_TEXT_LAYER
 10
6861.0
 20
1.0
 30
0.0
 40
2.0
  1
6529-A
  0
LINE
 62
7
  8
WQ_LINES
 10
6860.0
 20
38.5
 30
0.0
 11
7055.0
 21
38.5
 31
0.0
  0
LINE
 62
7
  8
WQ_LINES
 10
7057.0
 20
81.0
 30
0.0
 11
7333.0
 21
81.0
 31
0.0
  0
LINE
 62
7
  8
WQ_LINES
 10
7057.0
 20
0.0
 30
0.0
 11
7333.0
 21
0.0
 31
0.0
  0
LINE
 62
7
  8
WQ_LINES
 10
7057.0
 20
0.0
 30
0.0
 11
7057.0
 21
81.0
 31
0.0
  0
LINE
 62
7
  8
WQ_LINES
 10
7333.0
 20
0.0
 30
0.0
 11
7333.0
 21
81.0
 31
0.0
  0
TEXT
  8
WQ_TEXT_LAYER
 10
7058.0
 20
41.5
 30
0.0
 40
2.0
  1
6530-B
  0
TEXT
  8
WQ_TEXT_LAYER
 10
7058.0
 20
1.0
 30
0.0
 40
2.0
  1
6530-A
  0
LINE
 62
7
  8
WQ_LINES
 10
7057.0
 20
40.5
 30
0.0
 11
7333.0
 21
40.5
 31
0.0
  0
LINE
 62
7
  8
WQ_LINES
 10
7335.0
 20
171.0
 30
0.0
 11
7564.0
 21
171.0
 31
0.0
  0
LINE
 62
7
  8
WQ_LINES
 10
7335.0
 20
0.0
 30
0.0
 11
7564.0
 21
0.0
 31
0.0
  0
LINE
 62
7
  8
WQ_LINES
 10
7335.0
 20
0.0
 30
0.0
 11
7335.0
 21
171.0
 31
0.0
  0
LINE
 62
7
  8
WQ_LINES
 10
7564.0
 20
0.0
 30
0.0
 11
7564.0
 21
171.0
 31
0.0
  0
TEXT
  8
WQ_TEXT_LAYER
 10
7336.0
 20
86.5
 30
0.0
 40
2.0
  1
6531-B
  0
TEXT
  8
WQ_TEXT_LAYER
 10
7336.0
 20
1.0
 30
0.0
 40
2.0
  1
6531-A
  0
LINE
 62
7
  8
WQ_LINES
 10
7335.0
 20
85.5
 30
0.0
 11
7564.0
 21
85.5
 31
0.0
  0
LINE
 62
7
  8
WQ_LINES
 10
7566.0
 20
173.0
 30
0.0
 11
7849.0
 21
173.0
 31
0.0
  0
LINE
 62
7
  8
WQ_LINES
 10
7566.0
 20
0.0
 30
0.0
 11
7849.0
 21
0.0
 31
0.0
  0
LINE
 62
7
  8
WQ_LINES
 10
7566.0
 20
0.0
 30
0.0
 11
7566.0
 21
173.0
 31
0.0
  0
LINE
 62
7
  8
WQ_LINES
 10
7849.0
 20
0.0
 30
0.0
 11
7849.0
 21
173.0
 31
0.0
  0
TEXT
  8
WQ_TEXT_LAYER
 10
7567.0
 20
87.5
 30
0.0
 40
2.0
  1
6532-B
  0
TEXT
  8
WQ_TEXT_LAYER
 10
7567.0
 20
1.0
 30
0.0
 40
2.0
  1
6532-A
  0
LINE
 62
7
  8
WQ_LINES
 10
7566.0
 20
86.5
 30
0.0
 11
7849.0
 21
86.5
 31
0.0
  0
LINE
 62
7
  8
WQ_LINES
 10
7851.0
 20
135.0
 30
0.0
 11
8044.0
 21
135.0
 31
0.0
  0
LINE
 62
7
  8
WQ_LINES
 10
7851.0
 20
0.0
 30
0.0
 11
8044.0
 21
0.0
 31
0.0
  0
LINE
 62
7
  8
WQ_LINES
 10
7851.0
 20
0.0
 30
0.0
 11
7851.0
 21
135.0
 31
0.0
  0
LINE
 62
7
  8
WQ_LINES
 10
8044.0
 20
0.0
 30
0.0
 11
8044.0
 21
135.0
 31
0.0
  0
TEXT
  8
WQ_TEXT_LAYER
 10
7852.0
 20
68.5
 30
0.0
 40
2.0
  1
6533-B
  0
TEXT
  8
WQ_TEXT_LAYER
 10
7852.0
 20
1.0
 30
0.0
 40
2.0
  1
6533-A
  0
LINE
 62
7
  8
WQ_LINES
 10
7851.0
 20
67.5
 30
0.0
 11
8044.0
 21
67.5
 31
0.0
  0
LINE
 62
7
  8
WQ_LINES
 10
8046.0
 20
135.0
 30
0.0
 11
8278.0
 21
135.0
 31
0.0
  0
LINE
 62
7
  8
WQ_LINES
 10
8046.0
 20
0.0
 30
0.0
 11
8278.0
 21
0.0
 31
0.0
  0
LINE
 62
7
  8
WQ_LINES
 10
8046.0
 20
0.0
 30
0.0
 11
8046.0
 21
135.0
 31
0.0
  0
LINE
 62
7
  8
WQ_LINES
 10
8278.0
 20
0.0
 30
0.0
 11
8278.0
 21
135.0
 31
0.0
  0
TEXT
  8
WQ_TEXT_LAYER
 10
8047.0
 20
68.5
 30
0.0
 40
2.0
  1
6534-B
  0
TEXT
  8
WQ_TEXT_LAYER
 10
8047.0
 20
1.0
 30
0.0
 40
2.0
  1
6534-A
  0
LINE
 62
7
  8
WQ_LINES
 10
8046.0
 20
67.5
 30
0.0
 11
8278.0
 21
67.5
 31
0.0
  0
LINE
 62
7
  8
WQ_LINES
 10
8280.0
 20
82.0
 30
0.0
 11
8498.0
 21
82.0
 31
0.0
  0
LINE
 62
7
  8
WQ_LINES
 10
8280.0
 20
0.0
 30
0.0
 11
8498.0
 21
0.0
 31
0.0
  0
LINE
 62
7
  8
WQ_LINES
 10
8280.0
 20
0.0
 30
0.0
 11
8280.0
 21
82.0
 31
0.0
  0
LINE
 62
7
  8
WQ_LINES
 10
8498.0
 20
0.0
 30
0.0
 11
8498.0
 21
82.0
 31
0.0
  0
TEXT
  8
WQ_TEXT_LAYER
 10
8281.0
 20
42.0
 30
0.0
 40
2.0
  1
6535-B
  0
TEXT
  8
WQ_TEXT_LAYER
 10
8281.0
 20
1.0
 30
0.0
 40
2.0
  1
6535-A
  0
LINE
 62
7
  8
WQ_LINES
 10
8280.0
 20
41.0
 30
0.0
 11
8498.0
 21
41.0
 31
0.0
  0
LINE
 62
7
  8
WQ_LINES
 10
8500.0
 20
127.0
 30
0.0
 11
8800.0
 21
127.0
 31
0.0
  0
LINE
 62
7
  8
WQ_LINES
 10
8500.0
 20
0.0
 30
0.0
 11
8800.0
 21
0.0
 31
0.0
  0
LINE
 62
7
  8
WQ_LINES
 10
8500.0
 20
0.0
 30
0.0
 11
8500.0
 21
127.0
 31
0.0
  0
LINE
 62
7
  8
WQ_LINES
 10
8800.0
 20
0.0
 30
0.0
 11
8800.0
 21
127.0
 31
0.0
  0
TEXT
  8
WQ_TEXT_LAYER
 10
8501.0
 20
64.5
 30
0.0
 40
2.0
  1
6536-B
  0
TEXT
  8
WQ_TEXT_LAYER
 10
8501.0
 20
1.0
 30
0.0
 40
2.0
  1
6536-A
  0
LINE
 62
7
  8
WQ_LINES
 10
8500.0
 20
63.5
 30
0.0
 11
8800.0
 21
63.5
 31
0.0
  0
LINE
 62
7
  8
WQ_LINES
 10
8802.0
 20
85.0
 30
0.0
 11
9095.0
 21
85.0
 31
0.0
  0
LINE
 62
7
  8
WQ_LINES
 10
8802.0
 20
0.0
 30
0.0
 11
9095.0
 21
0.0
 31
0.0
  0
LINE
 62
7
  8
WQ_LINES
 10
8802.0
 20
0.0
 30
0.0
 11
8802.0
 21
85.0
 31
0.0
  0
LINE
 62
7
  8
WQ_LINES
 10
9095.0
 20
0.0
 30
0.0
 11
9095.0
 21
85.0
 31
0.0
  0
TEXT
  8
WQ_TEXT_LAYER
 10
8803.0
 20
43.5
 30
0.0
 40
2.0
  1
6537-B
  0
TEXT
  8
WQ_TEXT_LAYER
 10
8803.0
 20
1.0
 30
0.0
 40
2.0
  1
6537-A
  0
LINE
 62
7
  8
WQ_LINES
 10
8802.0
 20
42.5
 30
0.0
 11
9095.0
 21
42.5
 31
0.0
  0
LINE
 62
7
  8
WQ_LINES
 10
9097.0
 20
85.0
 30
0.0
 11
9375.0
 21
85.0
 31
0.0
  0
LINE
 62
7
  8
WQ_LINES
 10
9097.0
 20
0.0
 30
0.0
 11
9375.0
 21
0.0
 31
0.0
  0
LINE
 62
7
  8
WQ_LINES
 10
9097.0
 20
0.0
 30
0.0
 11
9097.0
 21
85.0
 31
0.0
  0
LINE
 62
7
  8
WQ_LINES
 10
9375.0
 20
0.0
 30
0.0
 11
9375.0
 21
85.0
 31
0.0
  0
TEXT
  8
WQ_TEXT_LAYER
 10
9098.0
 20
43.5
 30
0.0
 40
2.0
  1
6538-B
  0
TEXT
  8
WQ_TEXT_LAYER
 10
9098.0
 20
1.0
 30
0.0
 40
2.0
  1
6538-A
  0
LINE
 62
7
  8
WQ_LINES
 10
9097.0
 20
42.5
 30
0.0
 11
9375.0
 21
42.5
 31
0.0
  0
LINE
 62
7
  8
WQ_LINES
 10
9377.0
 20
95.0
 30
0.0
 11
9676.0
 21
95.0
 31
0.0
  0
LINE
 62
7
  8
WQ_LINES
 10
9377.0
 20
0.0
 30
0.0
 11
9676.0
 21
0.0
 31
0.0
  0
LINE
 62
7
  8
WQ_LINES
 10
9377.0
 20
0.0
 30
0.0
 11
9377.0
 21
95.0
 31
0.0
  0
LINE
 62
7
  8
WQ_LINES
 10
9676.0
 20
0.0
 30
0.0
 11
9676.0
 21
95.0
 31
0.0
  0
TEXT
  8
WQ_TEXT_LAYER
 10
9378.0
 20
48.5
 30
0.0
 40
2.0
  1
6539-B
  0
TEXT
  8
WQ_TEXT_LAYER
 10
9378.0
 20
1.0
 30
0.0
 40
2.0
  1
6539-A
  0
LINE
 62
7
  8
WQ_LINES
 10
9377.0
 20
47.5
 30
0.0
 11
9676.0
 21
47.5
 31
0.0
  0
LINE
 62
7
  8
WQ_LINES
 10
9678.0
 20
134.0
 30
0.0
 11
9920.0
 21
134.0
 31
0.0
  0
LINE
 62
7
  8
WQ_LINES
 10
9678.0
 20
0.0
 30
0.0
 11
9920.0
 21
0.0
 31
0.0
  0
LINE
 62
7
  8
WQ_LINES
 10
9678.0
 20
0.0
 30
0.0
 11
9678.0
 21
134.0
 31
0.0
  0
LINE
 62
7
  8
WQ_LINES
 10
9920.0
 20
0.0
 30
0.0
 11
9920.0
 21
134.0
 31
0.0
  0
TEXT
  8
WQ_TEXT_LAYER
 10
9679.0
 20
68.0
 30
0.0
 40
2.0
  1
6540-B
  0
TEXT
  8
WQ_TEXT_LAYER
 10
9679.0
 20
1.0
 30
0.0
 40
2.0
  1
6540-A
  0
LINE
 62
7
  8
WQ_LINES
 10
9678.0
 20
67.0
 30
0.0
 11
9920.0
 21
67.0
 31
0.0
  0
LINE
 62
7
  8
WQ_LINES
 10
9922.0
 20
76.0
 30
0.0
 11
10103.0
 21
76.0
 31
0.0
  0
LINE
 62
7
  8
WQ_LINES
 10
9922.0
 20
0.0
 30
0.0
 11
10103.0
 21
0.0
 31
0.0
  0
LINE
 62
7
  8
WQ_LINES
 10
9922.0
 20
0.0
 30
0.0
 11
9922.0
 21
76.0
 31
0.0
  0
LINE
 62
7
  8
WQ_LINES
 10
10103.0
 20
0.0
 30
0.0
 11
10103.0
 21
76.0
 31
0.0
  0
TEXT
  8
WQ_TEXT_LAYER
 10
9923.0
 20
39.0
 30
0.0
 40
2.0
  1
6541-B
  0
TEXT
  8
WQ_TEXT_LAYER
 10
9923.0
 20
1.0
 30
0.0
 40
2.0
  1
6541-A
  0
LINE
 62
7
  8
WQ_LINES
 10
9922.0
 20
38.0
 30
0.0
 11
10103.0
 21
38.0
 31
0.0
  0
LINE
 62
7
  8
WQ_LINES
 10
10105.0
 20
130.0
 30
0.0
 11
10316.0
 21
130.0
 31
0.0
  0
LINE
 62
7
  8
WQ_LINES
 10
10105.0
 20
0.0
 30
0.0
 11
10316.0
 21
0.0
 31
0.0
  0
LINE
 62
7
  8
WQ_LINES
 10
10105.0
 20
0.0
 30
0.0
 11
10105.0
 21
130.0
 31
0.0
  0
LINE
 62
7
  8
WQ_LINES
 10
10316.0
 20
0.0
 30
0.0
 11
10316.0
 21
130.0
 31
0.0
  0
TEXT
  8
WQ_TEXT_LAYER
 10
10106.0
 20
66.0
 30
0.0
 40
2.0
  1
6542-B
  0
TEXT
  8
WQ_TEXT_LAYER
 10
10106.0
 20
1.0
 30
0.0
 40
2.0
  1
6542-A
  0
LINE
 62
7
  8
WQ_LINES
 10
10105.0
 20
65.0
 30
0.0
 11
10316.0
 21
65.0
 31
0.0
  0
LINE
 62
7
  8
WQ_LINES
 10
10318.0
 20
163.0
 30
0.0
 11
10511.0
 21
163.0
 31
0.0
  0
LINE
 62
7
  8
WQ_LINES
 10
10318.0
 20
0.0
 30
0.0
 11
10511.0
 21
0.0
 31
0.0
  0
LINE
 62
7
  8
WQ_LINES
 10
10318.0
 20
0.0
 30
0.0
 11
10318.0
 21
163.0
 31
0.0
  0
LINE
 62
7
  8
WQ_LINES
 10
10511.0
 20
0.0
 30
0.0
 11
10511.0
 21
163.0
 31
0.0
  0
TEXT
  8
WQ_TEXT_LAYER
 10
10319.0
 20
82.5
 30
0.0
 40
2.0
  1
6543-B
  0
TEXT
  8
WQ_TEXT_LAYER
 10
10319.0
 20
1.0
 30
0.0
 40
2.0
  1
6543-A
  0
LINE
 62
7
  8
WQ_LINES
 10
10318.0
 20
81.5
 30
0.0
 11
10511.0
 21
81.5
 31
0.0
  0
LINE
 62
7
  8
WQ_LINES
 10
10513.0
 20
118.0
 30
0.0
 11
10777.0
 21
118.0
 31
0.0
  0
LINE
 62
7
  8
WQ_LINES
 10
10513.0
 20
0.0
 30
0.0
 11
10777.0
 21
0.0
 31
0.0
  0
LINE
 62
7
  8
WQ_LINES
 10
10513.0
 20
0.0
 30
0.0
 11
10513.0
 21
118.0
 31
0.0
  0
LINE
 62
7
  8
WQ_LINES
 10
10777.0
 20
0.0
 30
0.0
 11
10777.0
 21
118.0
 31
0.0
  0
TEXT
  8
WQ_TEXT_LAYER
 10
10514.0
 20
60.0
 30
0.0
 40
2.0
  1
6544-B
  0
TEXT
  8
WQ_TEXT_LAYER
 10
10514.0
 20
1.0
 30
0.0
 40
2.0
  1
6544-A
  0
LINE
 62
7
  8
WQ_LINES
 10
10513.0
 20
59.0
 30
0.0
 11
10777.0
 21
59.0
 31
0.0
  0
LINE
 62
7
  8
WQ_LINES
 10
10779.0
 20
113.0
 30
0.0
 11
10985.0
 21
113.0
 31
0.0
  0
LINE
 62
7
  8
WQ_LINES
 10
10779.0
 20
0.0
 30
0.0
 11
10985.0
 21
0.0
 31
0.0
  0
LINE
 62
7
  8
WQ_LINES
 10
10779.0
 20
0.0
 30
0.0
 11
10779.0
 21
113.0
 31
0.0
  0
LINE
 62
7
  8
WQ_LINES
 10
10985.0
 20
0.0
 30
0.0
 11
10985.0
 21
113.0
 31
0.0
  0
TEXT
  8
WQ_TEXT_LAYER
 10
10780.0
 20
57.5
 30
0.0
 40
2.0
  1
6545-B
  0
TEXT
  8
WQ_TEXT_LAYER
 10
10780.0
 20
1.0
 30
0.0
 40
2.0
  1
6545-A
  0
LINE
 62
7
  8
WQ_LINES
 10
10779.0
 20
56.5
 30
0.0
 11
10985.0
 21
56.5
 31
0.0
  0
LINE
 62
7
  8
WQ_LINES
 10
10987.0
 20
149.0
 30
0.0
 11
11182.0
 21
149.0
 31
0.0
  0
LINE
 62
7
  8
WQ_LINES
 10
10987.0
 20
0.0
 30
0.0
 11
11182.0
 21
0.0
 31
0.0
  0
LINE
 62
7
  8
WQ_LINES
 10
10987.0
 20
0.0
 30
0.0
 11
10987.0
 21
149.0
 31
0.0
  0
LINE
 62
7
  8
WQ_LINES
 10
11182.0
 20
0.0
 30
0.0
 11
11182.0
 21
149.0
 31
0.0
  0
TEXT
  8
WQ_TEXT_LAYER
 10
10988.0
 20
75.5
 30
0.0
 40
2.0
  1
6546-B
  0
TEXT
  8
WQ_TEXT_LAYER
 10
10988.0
 20
1.0
 30
0.0
 40
2.0
  1
6546-A
  0
LINE
 62
7
  8
WQ_LINES
 10
10987.0
 20
74.5
 30
0.0
 11
11182.0
 21
74.5
 31
0.0
  0
LINE
 62
7
  8
WQ_LINES
 10
11184.0
 20
156.0
 30
0.0
 11
11412.0
 21
156.0
 31
0.0
  0
LINE
 62
7
  8
WQ_LINES
 10
11184.0
 20
0.0
 30
0.0
 11
11412.0
 21
0.0
 31
0.0
  0
LINE
 62
7
  8
WQ_LINES
 10
11184.0
 20
0.0
 30
0.0
 11
11184.0
 21
156.0
 31
0.0
  0
LINE
 62
7
  8
WQ_LINES
 10
11412.0
 20
0.0
 30
0.0
 11
11412.0
 21
156.0
 31
0.0
  0
TEXT
  8
WQ_TEXT_LAYER
 10
11185.0
 20
79.0
 30
0.0
 40
2.0
  1
6547-B
  0
TEXT
  8
WQ_TEXT_LAYER
 10
11185.0
 20
1.0
 30
0.0
 40
2.0
  1
6547-A
  0
LINE
 62
7
  8
WQ_LINES
 10
11184.0
 20
78.0
 30
0.0
 11
11412.0
 21
78.0
 31
0.0
  0
LINE
 62
7
  8
WQ_LINES
 10
11414.0
 20
149.0
 30
0.0
 11
11697.0
 21
149.0
 31
0.0
  0
LINE
 62
7
  8
WQ_LINES
 10
11414.0
 20
0.0
 30
0.0
 11
11697.0
 21
0.0
 31
0.0
  0
LINE
 62
7
  8
WQ_LINES
 10
11414.0
 20
0.0
 30
0.0
 11
11414.0
 21
149.0
 31
0.0
  0
LINE
 62
7
  8
WQ_LINES
 10
11697.0
 20
0.0
 30
0.0
 11
11697.0
 21
149.0
 31
0.0
  0
TEXT
  8
WQ_TEXT_LAYER
 10
11415.0
 20
75.5
 30
0.0
 40
2.0
  1
6548-B
  0
TEXT
  8
WQ_TEXT_LAYER
 10
11415.0
 20
1.0
 30
0.0
 40
2.0
  1
6548-A
  0
LINE
 62
7
  8
WQ_LINES
 10
11414.0
 20
74.5
 30
0.0
 11
11697.0
 21
74.5
 31
0.0
  0
LINE
 62
7
  8
WQ_LINES
 10
11699.0
 20
70.0
 30
0.0
 11
11979.0
 21
70.0
 31
0.0
  0
LINE
 62
7
  8
WQ_LINES
 10
11699.0
 20
0.0
 30
0.0
 11
11979.0
 21
0.0
 31
0.0
  0
LINE
 62
7
  8
WQ_LINES
 10
11699.0
 20
0.0
 30
0.0
 11
11699.0
 21
70.0
 31
0.0
  0
LINE
 62
7
  8
WQ_LINES
 10
11979.0
 20
0.0
 30
0.0
 11
11979.0
 21
70.0
 31
0.0
  0
TEXT
  8
WQ_TEXT_LAYER
 10
11700.0
 20
36.0
 30
0.0
 40
2.0
  1
6549-B
  0
TEXT
  8
WQ_TEXT_LAYER
 10
11700.0
 20
1.0
 30
0.0
 40
2.0
  1
6549-A
  0
LINE
 62
7
  8
WQ_LINES
 10
11699.0
 20
35.0
 30
0.0
 11
11979.0
 21
35.0
 31
0.0
  0
LINE
 62
7
  8
WQ_LINES
 10
11981.0
 20
89.0
 30
0.0
 11
12216.0
 21
89.0
 31
0.0
  0
LINE
 62
7
  8
WQ_LINES
 10
11981.0
 20
0.0
 30
0.0
 11
12216.0
 21
0.0
 31
0.0
  0
LINE
 62
7
  8
WQ_LINES
 10
11981.0
 20
0.0
 30
0.0
 11
11981.0
 21
89.0
 31
0.0
  0
LINE
 62
7
  8
WQ_LINES
 10
12216.0
 20
0.0
 30
0.0
 11
12216.0
 21
89.0
 31
0.0
  0
TEXT
  8
WQ_TEXT_LAYER
 10
11982.0
 20
45.5
 30
0.0
 40
2.0
  1
6550-B
  0
TEXT
  8
WQ_TEXT_LAYER
 10
11982.0
 20
1.0
 30
0.0
 40
2.0
  1
6550-A
  0
LINE
 62
7
  8
WQ_LINES
 10
11981.0
 20
44.5
 30
0.0
 11
12216.0
 21
44.5
 31
0.0
  0
LINE
 62
7
  8
WQ_LINES
 10
12218.0
 20
174.0
 30
0.0
 11
12417.0
 21
174.0
 31
0.0
  0
LINE
 62
7
  8
WQ_LINES
 10
12218.0
 20
0.0
 30
0.0
 11
12417.0
 21
0.0
 31
0.0
  0
LINE
 62
7
  8
WQ_LINES
 10
12218.0
 20
0.0
 30
0.0
 11
12218.0
 21
174.0
 31
0.0
  0
LINE
 62
7
  8
WQ_LINES
 10
12417.0
 20
0.0
 30
0.0
 11
12417.0
 21
174.0
 31
0.0
  0
TEXT
  8
WQ_TEXT_LAYER
 10
12219.0
 20
88.0
 30
0.0
 40
2.0
  1
6551-B
  0
TEXT
  8
WQ_TEXT_LAYER
 10
12219.0
 20
1.0
 30
0.0
 40
2.0
  1
6551-A
  0
LINE
 62
7
  8
WQ_LINES
 10
12218.0
 20
87.0
 30
0.0
 11
12417.0
 21
87.0
 31
0.0
  0
LINE
 62
7
  8
WQ_LINES
 10
12419.0
 20
77.0
 30
0.0
 11
12615.0
 21
77.0
 31
0.0
  0
LINE
 62
7
  8
WQ_LINES
 10
12419.0
 20
0.0
 30
0.0
 11
12615.0
 21
0.0
 31
0.0
  0
LINE
 62
7
  8
WQ_LINES
 10
12419.0
 20
0.0
 30
0.0
 11
12419.0
 21
77.0
 31
0.0
  0
LINE
 62
7
  8
WQ_LINES
 10
12615.0
 20
0.0
 30
0.0
 11
12615.0
 21
77.0
 31
0.0
  0
TEXT
  8
WQ_TEXT_LAYER
 10
12420.0
 20
39.5
 30
0.0
 40
2.0
  1
6552-B
  0
TEXT
  8
WQ_TEXT_LAYER
 10
12420.0
 20
1.0
 30
0.0
 40
2.0
  1
6552-A
  0
LINE
 62
7
  8
WQ_LINES
 10
12419.0
 20
38.5
 30
0.0
 11
12615.0
 21
38.5
 31
0.0
  0
LINE
 62
7
  8
WQ_LINES
 10
12617.0
 20
161.0
 30
0.0
 11
12865.0
 21
161.0
 31
0.0
  0
LINE
 62
7
  8
WQ_LINES
 10
12617.0
 20
0.0
 30
0.0
 11
12865.0
 21
0.0
 31
0.0
  0
LINE
 62
7
  8
WQ_LINES
 10
12617.0
 20
0.0
 30
0.0
 11
12617.0
 21
161.0
 31
0.0
  0
LINE
 62
7
  8
WQ_LINES
 10
12865.0
 20
0.0
 30
0.0
 11
12865.0
 21
161.0
 31
0.0
  0
TEXT
  8
WQ_TEXT_LAYER
 10
12618.0
 20
81.5
 30
0.0
 40
2.0
  1
6553-B
  0
TEXT
  8
WQ_TEXT_LAYER
 10
12618.0
 20
1.0
 30
0.0
 40
2.0
  1
6553-A
  0
LINE
 62
7
  8
WQ_LINES
 10
12617.0
 20
80.5
 30
0.0
 11
12865.0
 21
80.5
 31
0.0
  0
LINE
 62
7
  8
WQ_LINES
 10
12867.0
 20
154.0
 30
0.0
 11
13145.0
 21
154.0
 31
0.0
  0
LINE
 62
7
  8
WQ_LINES
 10
12867.0
 20
0.0
 30
0.0
 11
13145.0
 21
0.0
 31
0.0
  0
LINE
 62
7
  8
WQ_LINES
 10
12867.0
 20
0.0
 30
0.0
 11
12867.0
 21
154.0
 31
0.0
  0
LINE
 62
7
  8
WQ_LINES
 10
13145.0
 20
0.0
 30
0.0
 11
13145.0
 21
154.0
 31
0.0
  0
TEXT
  8
WQ_TEXT_LAYER
 10
12868.0
 20
78.0
 30
0.0
 40
2.0
  1
6554-B
  0
TEXT
  8
WQ_TEXT_LAYER
 10
12868.0
 20
1.0
 30
0.0
 40
2.0
  1
6554-A
  0
LINE
 62
7
  8
WQ_LINES
 10
12867.0
 20
77.0
 30
0.0
 11
13145.0
 21
77.0
 31
0.0
  0
LINE
 62
7
  8
WQ_LINES
 10
13147.0
 20
110.0
 30
0.0
 11
13424.0
 21
110.0
 31
0.0
  0
LINE
 62
7
  8
WQ_LINES
 10
13147.0
 20
0.0
 30
0.0
 11
13424.0
 21
0.0
 31
0.0
  0
LINE
 62
7
  8
WQ_LINES
 10
13147.0
 20
0.0
 30
0.0
 11
13147.0
 21
110.0
 31
0.0
  0
LINE
 62
7
  8
WQ_LINES
 10
13424.0
 20
0.0
 30
0.0
 11
13424.0
 21
110.0
 31
0.0
  0
TEXT
  8
WQ_TEXT_LAYER
 10
13148.0
 20
56.0
 30
0.0
 40
2.0
  1
6555-B
  0
TEXT
  8
WQ_TEXT_LAYER
 10
13148.0
 20
1.0
 30
0.0
 40
2.0
  1
6555-A
  0
LINE
 62
7
  8
WQ_LINES
 10
13147.0
 20
55.0
 30
0.0
 11
13424.0
 21
55.0
 31
0.0
  0
LINE
 62
7
  8
WQ_LINES
 10
13426.0
 20
100.0
 30
0.0
 11
13615.0
 21
100.0
 31
0.0
  0
LINE
 62
7
  8
WQ_LINES
 10
13426.0
 20
0.0
 30
0.0
 11
13615.0
 21
0.0
 31
0.0
  0
LINE
 62
7
  8
WQ_LINES
 10
13426.0
 20
0.0
 30
0.0
 11
13426.0
 21
100.0
 31
0.0
  0
LINE
 62
7
  8
WQ_LINES
 10
13615.0
 20
0.0
 30
0.0
 11
13615.0
 21
100.0
 31
0.0
  0
TEXT
  8
WQ_TEXT_LAYER
 10
13427.0
 20
51.0
 30
0.0
 40
2.0
  1
6556-B
  0
TEXT
  8
WQ_TEXT_LAYER
 10
13427.0
 20
1.0
 30
0.0
 40
2.0
  1
6556-A
  0
LINE
 62
7
  8
WQ_LINES
 10
13426.0
 20
50.0
 30
0.0
 11
13615.0
 21
50.0
 31
0.0
  0
LINE
 62
7
  8
WQ_LINES
 10
13617.0
 20
146.0
 30
0.0
 11
13868.0
 21
146.0
 31
0.0
  0
LINE
 62
7
  8
WQ_LINES
 10
13617.0
 20
0.0
 30
0.0
 11
13868.0
 21
0.0
 31
0.0
  0
LINE
 62
7
  8
WQ_LINES
 10
13617.0
 20
0.0
 30
0.0
 11
13617.0
 21
146.0
 31
0.0
  0
LINE
 62
7
  8
WQ_LINES
 10
13868.0
 20
0.0
 30
0.0
 11
13868.0
 21
146.0
 31
0.0
  0
TEXT
  8
WQ_TEXT_LAYER
 10
13618.0
 20
74.0
 30
0.0
 40
2.0
  1
6557-B
  0
TEXT
  8
WQ_TEXT_LAYER
 10
13618.0
 20
1.0
 30
0.0
 40
2.0
  1
6557-A
  0
LINE
 62
7
  8
WQ_LINES
 10
13617.0
 20
73.0
 30
0.0
 11
13868.0
 21
73.0
 31
0.0
  0
LINE
 62
7
  8
WQ_LINES
 10
13870.0
 20
75.0
 30
0.0
 11
14091.0
 21
75.0
 31
0.0
  0
LINE
 62
7
  8
WQ_LINES
 10
13870.0
 20
0.0
 30
0.0
 11
14091.0
 21
0.0
 31
0.0
  0
LINE
 62
7
  8
WQ_LINES
 10
13870.0
 20
0.0
 30
0.0
 11
13870.0
 21
75.0
 31
0.0
  0
LINE
 62
7
  8
WQ_LINES
 10
14091.0
 20
0.0
 30
0.0
 11
14091.0
 21
75.0
 31
0.0
  0
TEXT
  8
WQ_TEXT_LAYER
 10
13871.0
 20
38.5
 30
0.0
 40
2.0
  1
6558-B
  0
TEXT
  8
WQ_TEXT_LAYER
 10
13871.0
 20
1.0
 30
0.0
 40
2.0
  1
6558-A
  0
LINE
 62
7
  8
WQ_LINES
 10
13870.0
 20
37.5
 30
0.0
 11
14091.0
 21
37.5
 31
0.0
  0
LINE
 62
7
  8
WQ_LINES
 10
14093.0
 20
177.0
 30
0.0
 11
14291.0
 21
177.0
 31
0.0
  0
LINE
 62
7
  8
WQ_LINES
 10
14093.0
 20
0.0
 30
0.0
 11
14291.0
 21
0.0
 31
0.0
  0
LINE
 62
7
  8
WQ_LINES
 10
14093.0
 20
0.0
 30
0.0
 11
14093.0
 21
177.0
 31
0.0
  0
LINE
 62
7
  8
WQ_LINES
 10
14291.0
 20
0.0
 30
0.0
 11
14291.0
 21
177.0
 31
0.0
  0
TEXT
  8
WQ_TEXT_LAYER
 10
14094.0
 20
89.5
 30
0.0
 40
2.0
  1
6559-B
  0
TEXT
  8
WQ_TEXT_LAYER
 10
14094.0
 20
1.0
 30
0.0
 40
2.0
  1
6559-A
  0
LINE
 62
7
  8
WQ_LINES
 10
14093.0
 20
88.5
 30
0.0
 11
14291.0
 21
88.5
 31
0.0
  0
LINE
 62
7
  8
WQ_LINES
 10
14293.0
 20
179.0
 30
0.0
 11
14546.0
 21
179.0
 31
0.0
  0
LINE
 62
7
  8
WQ_LINES
 10
14293.0
 20
0.0
 30
0.0
 11
14546.0
 21
0.0
 31
0.0
  0
LINE
 62
7
  8
WQ_LINES
 10
14293.0
 20
0.0
 30
0.0
 11
14293.0
 21
179.0
 31
0.0
  0
LINE
 62
7
  8
WQ_LINES
 10
14546.0
 20
0.0
 30
0.0
 11
14546.0
 21
179.0
 31
0.0
  0
TEXT
  8
WQ_TEXT_LAYER
 10
14294.0
 20
90.5
 30
0.0
 40
2.0
  1
6560-B
  0
TEXT
  8
WQ_TEXT_LAYER
 10
14294.0
 20
1.0
 30
0.0
 40
2.0
  1
6560-A
  0
LINE
 62
7
  8
WQ_LINES
 10
14293.0
 20
89.5
 30
0.0
 11
14546.0
 21
89.5
 31
0.0
  0
LINE
 62
7
  8
WQ_LINES
 10
14548.0
 20
97.0
 30
0.0
 11
14725.0
 21
97.0
 31
0.0
  0
LINE
 62
7
  8
WQ_LINES
 10
14548.0
 20
0.0
 30
0.0
 11
14725.0
 21
0.0
 31
0.0
  0
LINE
 62
7
  8
WQ_LINES
 10
14548.0
 20
0.0
 30
0.0
 11
14548.0
 21
97.0
 31
0.0
  0
LINE
 62
7
  8
WQ_LINES
 10
14725.0
 20
0.0
 30
0.0
 11
14725.0
 21
97.0
 31
0.0
  0
TEXT
  8
WQ_TEXT_LAYER
 10
14549.0
 20
49.5
 30
0.0
 40
2.0
  1
6561-B
  0
TEXT
  8
WQ_TEXT_LAYER
 10
14549.0
 20
1.0
 30
0.0
 40
2.0
  1
6561-A
  0
LINE
 62
7
  8
WQ_LINES
 10
14548.0
 20
48.5
 30
0.0
 11
14725.0
 21
48.5
 31
0.0
  0
LINE
 62
7
  8
WQ_LINES
 10
14727.0
 20
162.0
 30
0.0
 11
14976.0
 21
162.0
 31
0.0
  0
LINE
 62
7
  8
WQ_LINES
 10
14727.0
 20
0.0
 30
0.0
 11
14976.0
 21
0.0
 31
0.0
  0
LINE
 62
7
  8
WQ_LINES
 10
14727.0
 20
0.0
 30
0.0
 11
14727.0
 21
162.0
 31
0.0
  0
LINE
 62
7
  8
WQ_LINES
 10
14976.0
 20
0.0
 30
0.0
 11
14976.0
 21
162.0
 31
0.0
  0
TEXT
  8
WQ_TEXT_LAYER
 10
14728.0
 20
82.0
 30
0.0
 40
2.0
  1
6562-B
  0
TEXT
  8
WQ_TEXT_LAYER
 10
14728.0
 20
1.0
 30
0.0
 40
2.0
  1
6562-A
  0
LINE
 62
7
  8
WQ_LINES
 10
14727.0
 20
81.0
 30
0.0
 11
14976.0
 21
81.0
 31
0.0
  0
LINE
 62
7
  8
WQ_LINES
 10
14978.0
 20
117.0
 30
0.0
 11
15251.0
 21
117.0
 31
0.0
  0
LINE
 62
7
  8
WQ_LINES
 10
14978.0
 20
0.0
 30
0.0
 11
15251.0
 21
0.0
 31
0.0
  0
LINE
 62
7
  8
WQ_LINES
 10
14978.0
 20
0.0
 30
0.0
 11
14978.0
 21
117.0
 31
0.0
  0
LINE
 62
7
  8
WQ_LINES
 10
15251.0
 20
0.0
 30
0.0
 11
15251.0
 21
117.0
 31
0.0
  0
TEXT
  8
WQ_TEXT_LAYER
 10
14979.0
 20
59.5
 30
0.0
 40
2.0
  1
6563-B
  0
TEXT
  8
WQ_TEXT_LAYER
 10
14979.0
 20
1.0
 30
0.0
 40
2.0
  1
6563-A
  0
LINE
 62
7
  8
WQ_LINES
 10
14978.0
 20
58.5
 30
0.0
 11
15251.0
 21
58.5
 31
0.0
  0
LINE
 62
7
  8
WQ_LINES
 10
15253.0
 20
115.0
 30
0.0
 11
15444.0
 21
115.0
 31
0.0
  0
LINE
 62
7
  8
WQ_LINES
 10
15253.0
 20
0.0
 30
0.0
 11
15444.0
 21
0.0
 31
0.0
  0
LINE
 62
7
  8
WQ_LINES
 10
15253.0
 20
0.0
 30
0.0
 11
15253.0
 21
115.0
 31
0.0
  0
LINE
 62
7
  8
WQ_LINES
 10
15444.0
 20
0.0
 30
0.0
 11
15444.0
 21
115.0
 31
0.0
  0
TEXT
  8
WQ_TEXT_LAYER
 10
15254.0
 20
58.5
 30
0.0
 40
2.0
  1
6564-B
  0
TEXT
  8
WQ_TEXT_LAYER
 10
15254.0
 20
1.0
 30
0.0
 40
2.0
  1
6564-A
  0
LINE
 62
7
  8
WQ_LINES
 10
15253.0
 20
57.5
 30
0.0
 11
15444.0
 21
57.5
 31
0.0
  0
LINE
 62
7
  8
WQ_LINES
 10
15446.0
 20
94.0
 30
0.0
 11
15746.0
 21
94.0
 31
0.0
  0
LINE
 62
7
  8
WQ_LINES
 10
15446.0
 20
0.0
 30
0.0
 11
15746.0
 21
0.0
 31
0.0
  0
LINE
 62
7
  8
WQ_LINES
 10
15446.0
 20
0.0
 30
0.0
 11
15446.0
 21
94.0
 31
0.0
  0
LINE
 62
7
  8
WQ_LINES
 10
15746.0
 20
0.0
 30
0.0
 11
15746.0
 21
94.0
 31
0.0
  0
TEXT
  8
WQ_TEXT_LAYER
 10
15447.0
 20
48.0
 30
0.0
 40
2.0
  1
6565-B
  0
TEXT
  8
WQ_TEXT_LAYER
 10
15447.0
 20
1.0
 30
0.0
 40
2.0
  1
6565-A
  0
LINE
 62
7
  8
WQ_LINES
 10
15446.0
 20
47.0
 30
0.0
 11
15746.0
 21
47.0
 31
0.0
  0
LINE
 62
7
  8
WQ_LINES
 10
15748.0
 20
178.0
 30
0.0
 11
15982.0
 21
178.0
 31
0.0
  0
LINE
 62
7
  8
WQ_LINES
 10
15748.0
 20
0.0
 30
0.0
 11
15982.0
 21
0.0
 31
0.0
  0
LINE
 62
7
  8
WQ_LINES
 10
15748.0
 20
0.0
 30
0.0
 11
15748.0
 21
178.0
 31
0.0
  0
LINE
 62
7
  8
WQ_LINES
 10
15982.0
 20
0.0
 30
0.0
 11
15982.0
 21
178.0
 31
0.0
  0
TEXT
  8
WQ_TEXT_LAYER
 10
15749.0
 20
90.0
 30
0.0
 40
2.0
  1
6566-B
  0
TEXT
  8
WQ_TEXT_LAYER
 10
15749.0
 20
1.0
 30
0.0
 40
2.0
  1
6566-A
  0
LINE
 62
7
  8
WQ_LINES
 10
15748.0
 20
89.0
 30
0.0
 11
15982.0
 21
89.0
 31
0.0
  0
LINE
 62
7
  8
WQ_LINES
 10
15984.0
 20
89.0
 30
0.0
 11
16237.0
 21
89.0
 31
0.0
  0
LINE
 62
7
  8
WQ_LINES
 10
15984.0
 20
0.0
 30
0.0
 11
16237.0
 21
0.0
 31
0.0
  0
LINE
 62
7
  8
WQ_LINES
 10
15984.0
 20
0.0
 30
0.0
 11
15984.0
 21
89.0
 31
0.0
  0
LINE
 62
7
  8
WQ_LINES
 10
16237.0
 20
0.0
 30
0.0
 11
16237.0
 21
89.0
 31
0.0
  0
TEXT
  8
WQ_TEXT_LAYER
 10
15985.0
 20
45.5
 30
0.0
 40
2.0
  1
6567-B
  0
TEXT
  8
WQ_TEXT_LAYER
 10
15985.0
 20
1.0
 30
0.0
 40
2.0
  1
6567-A
  0
LINE
 62
7
  8
WQ_LINES
 10
15984.0
 20
44.5
 30
0.0
 11
16237.0
 21
44.5
 31
0.0
  0
LINE
 62
7
  8
WQ_LINES
 10
16239.0
 20
144.0
 30
0.0
 11
16435.0
 21
144.0
 31
0.0
  0
LINE
 62
7
  8
WQ_LINES
 10
16239.0
 20
0.0
 30
0.0
 11
16435.0
 21
0.0
 31
0.0
  0
LINE
 62
7
  8
WQ_LINES
 10
16239.0
 20
0.0
 30
0.0
 11
16239.0
 21
144.0
 31
0.0
  0
LINE
 62
7
  8
WQ_LINES
 10
16435.0
 20
0.0
 30
0.0
 11
16435.0
 21
144.0
 31
0.0
  0
TEXT
  8
WQ_TEXT_LAYER
 10
16240.0
 20
73.0
 30
0.0
 40
2.0
  1
6568-B
  0
TEXT
  8
WQ_TEXT_LAYER
 10
16240.0
 20
1.0
 30
0.0
 40
2.0
  1
6568-A
  0
LINE
 62
7
  8
WQ_LINES
 10
16239.0
 20
72.0
 30
0.0
 11
16435.0
 21
72.0
 31
0.0
  0
LINE
 62
7
  8
WQ_LINES
 10
16437.0
 20
110.0
 30
0.0
 11
16734.0
 21
110.0
 31
0.0
  0
LINE
 62
7
  8
WQ_LINES
 10
16437.0
 20
0.0
 30
0.0
 11
16734.0
 21
0.0
 31
0.0
  0
LINE
 62
7
  8
WQ_LINES
 10
16437.0
 20
0.0
 30
0.0
 11
16437.0
 21
110.0
 31
0.0
  0
LINE
 62
7
  8
WQ_LINES
 10
16734.0
 20
0.0
 30
0.0
 11
16734.0
 21
110.0
 31
0.0
  0
TEXT
  8
WQ_TEXT_LAYER
 10
16438.0
 20
56.0
 30
0.0
 40
2.0
  1
6569-B
  0
TEXT
  8
WQ_TEXT_LAYER
 10
16438.0
 20
1.0
 30
0.0
 40
2.0
  1
6569-A
  0
LINE
 62
7
  8
WQ_LINES
 10
16437.0
 20
55.0
 30
0.0
 11
16734.0
 21
55.0
 31
0.0
  0
LINE
 62
7
  8
WQ_LINES
 10
16736.0
 20
117.0
 30
0.0
 11
17010.0
 21
117.0
 31
0.0
  0
LINE
 62
7
  8
WQ_LINES
 10
16736.0
 20
0.0
 30
0.0
 11
17010.0
 21
0.0
 31
0.0
  0
LINE
 62
7
  8
WQ_LINES
 10
16736.0
 20
0.0
 30
0.0
 11
16736.0
 21
117.0
 31
0.0
  0
LINE
 62
7
  8
WQ_LINES
 10
17010.0
 20
0.0
 30
0.0
 11
17010.0
 21
117.0
 31
0.0
  0
TEXT
  8
WQ_TEXT_LAYER
 10
16737.0
 20
59.5
 30
0.0
 40
2.0
  1
6570-B
  0
TEXT
  8
WQ_TEXT_LAYER
 10
16737.0
 20
1.0
 30
0.0
 40
2.0
  1
6570-A
  0
LINE
 62
7
  8
WQ_LINES
 10
16736.0
 20
58.5
 30
0.0
 11
17010.0
 21
58.5
 31
0.0
  0
LINE
 62
7
  8
WQ_LINES
 10
17012.0
 20
165.0
 30
0.0
 11
17258.0
 21
165.0
 31
0.0
  0
LINE
 62
7
  8
WQ_LINES
 10
17012.0
 20
0.0
 30
0.0
 11
17258.0
 21
0.0
 31
0.0
  0
LINE
 62
7
  8
WQ_LINES
 10
17012.0
 20
0.0
 30
0.0
 11
17012.0
 21
165.0
 31
0.0
  0
LINE
 62
7
  8
WQ_LINES
 10
17258.0
 20
0.0
 30
0.0
 11
17258.0
 21
165.0
 31
0.0
  0
TEXT
  8
WQ_TEXT_LAYER
 10
17013.0
 20
83.5
 30
0.0
 40
2.0
  1
6571-B
  0
TEXT
  8
WQ_TEXT_LAYER
 10
17013.0
 20
1.0
 30
0.0
 40
2.0
  1
6571-A
  0
LINE
 62
7
  8
WQ_LINES
 10
17012.0
 20
82.5
 30
0.0
 11
17258.0
 21
82.5
 31
0.0
  0
LINE
 62
7
  8
WQ_LINES
 10
17260.0
 20
128.0
 30
0.0
 11
17482.0
 21
128.0
 31
0.0
  0
LINE
 62
7
  8
WQ_LINES
 10
17260.0
 20
0.0
 30
0.0
 11
17482.0
 21
0.0
 31
0.0
  0
LINE
 62
7
  8
WQ_LINES
 10
17260.0
 20
0.0
 30
0.0
 11
17260.0
 21
128.0
 31
0.0
  0
LINE
 62
7
  8
WQ_LINES
 10
17482.0
 20
0.0
 30
0.0
 11
17482.0
 21
128.0
 31
0.0
  0
TEXT
  8
WQ_TEXT_LAYER
 10
17261.0
 20
65.0
 30
0.0
 40
2.0
  1
6572-B
  0
TEXT
  8
WQ_TEXT_LAYER
 10
17261.0
 20
1.0
 30
0.0
 40
2.0
  1
6572-A
  0
LINE
 62
7
  8
WQ_LINES
 10
17260.0
 20
64.0
 30
0.0
 11
17482.0
 21
64.0
 31
0.0
  0
LINE
 62
7
  8
WQ_LINES
 10
17484.0
 20
171.0
 30
0.0
 11
17707.0
 21
171.0
 31
0.0
  0
LINE
 62
7
  8
WQ_LINES
 10
17484.0
 20
0.0
 30
0.0
 11
17707.0
 21
0.0
 31
0.0
  0
LINE
 62
7
  8
WQ_LINES
 10
17484.0
 20
0.0
 30
0.0
 11
17484.0
 21
171.0
 31
0.0
  0
LINE
 62
7
  8
WQ_LINES
 10
17707.0
 20
0.0
 30
0.0
 11
17707.0
 21
171.0
 31
0.0
  0
TEXT
  8
WQ_TEXT_LAYER
 10
17485.0
 20
86.5
 30
0.0
 40
2.0
  1
6573-B
  0
TEXT
  8
WQ_TEXT_LAYER
 10
17485.0
 20
1.0
 30
0.0
 40
2.0
  1
6573-A
  0
LINE
 62
7
  8
WQ_LINES
 10
17484.0
 20
85.5
 30
0.0
 11
17707.0
 21
85.5
 31
0.0
  0
LINE
 62
7
  8
WQ_LINES
 10
17709.0
 20
77.0
 30
0.0
 11
17933.0
 21
77.0
 31
0.0
  0
LINE
 62
7
  8
WQ_LINES
 10
17709.0
 20
0.0
 30
0.0
 11
17933.0
 21
0.0
 31
0.0
  0
LINE
 62
7
  8
WQ_LINES
 10
17709.0
 20
0.0
 30
0.0
 11
17709.0
 21
77.0
 31
0.0
  0
LINE
 62
7
  8
WQ_LINES
 10
17933.0
 20
0.0
 30
0.0
 11
17933.0
 21
77.0
 31
0.0
  0
TEXT
  8
WQ_TEXT_LAYER
 10
17710.0
 20
39.5
 30
0.0
 40
2.0
  1
6574-B
  0
TEXT
  8
WQ_TEXT_LAYER
 10
17710.0
 20
1.0
 30
0.0
 40
2.0
  1
6574-A
  0
LINE
 62
7
  8
WQ_LINES
 10
17709.0
 20
38.5
 30
0.0
 11
17933.0
 21
38.5
 31
0.0
  0
LINE
 62
7
  8
WQ_LINES
 10
17935.0
 20
109.0
 30
0.0
 11
18211.0
 21
109.0
 31
0.0
  0
LINE
 62
7
  8
WQ_LINES
 10
17935.0
 20
0.0
 30
0.0
 11
18211.0
 21
0.0
 31
0.0
  0
LINE
 62
7
  8
WQ_LINES
 10
17935.0
 20
0.0
 30
0.0
 11
17935.0
 21
109.0
 31
0.0
  0
LINE
 62
7
  8
WQ_LINES
 10
18211.0
 20
0.0
 30
0.0
 11
18211.0
 21
109.0
 31
0.0
  0
TEXT
  8
WQ_TEXT_LAYER
 10
17936.0
 20
55.5
 30
0.0
 40
2.0
  1
6575-B
  0
TEXT
  8
WQ_TEXT_LAYER
 10
17936.0
 20
1.0
 30
0.0
 40
2.0
  1
6575-A
  0
LINE
 62
7
  8
WQ_LINES
 10
17935.0
 20
54.5
 30
0.0
 11
18211.0
 21
54.5
 31
0.0
  0
LINE
 62
7
  8
WQ_LINES
 10
18213.0
 20
76.0
 30
0.0
 11
18422.0
 21
76.0
 31
0.0
  0
LINE
 62
7
  8
WQ_LINES
 10
18213.0
 20
0.0
 30
0.0
 11
18422.0
 21
0.0
 31
0.0
  0
LINE
 62
7
  8
WQ_LINES
 10
18213.0
 20
0.0
 30
0.0
 11
18213.0
 21
76.0
 31
0.0
  0
LINE
 62
7
  8
WQ_LINES
 10
18422.0
 20
0.0
 30
0.0
 11
18422.0
 21
76.0
 31
0.0
  0
TEXT
  8
WQ_TEXT_LAYER
 10
18214.0
 20
39.0
 30
0.0
 40
2.0
  1
6576-B
  0
TEXT
  8
WQ_TEXT_LAYER
 10
18214.0
 20
1.0
 30
0.0
 40
2.0
  1
6576-A
  0
LINE
 62
7
  8
WQ_LINES
 10
18213.0
 20
38.0
 30
0.0
 11
18422.0
 21
38.0
 31
0.0
  0
LINE
 62
7
  8
WQ_LINES
 10
18424.0
 20
124.0
 30
0.0
 11
18685.0
 21
124.0
 31
0.0
  0
LINE
 62
7
  8
WQ_LINES
 10
18424.0
 20
0.0
 30
0.0
 11
18685.0
 21
0.0
 31
0.0
  0
LINE
 62
7
  8
WQ_LINES
 10
18424.0
 20
0.0
 30
0.0
 11
18424.0
 21
124.0
 31
0.0
  0
LINE
 62
7
  8
WQ_LINES
 10
18685.0
 20
0.0
 30
0.0
 11
18685.0
 21
124.0
 31
0.0
  0
TEXT
  8
WQ_TEXT_LAYER
 10
18425.0
 20
63.0
 30
0.0
 40
2.0
  1
6577-B
  0
TEXT
  8
WQ_TEXT_LAYER
 10
18425.0
 20
1.0
 30
0.0
 40
2.0
  1
6577-A
  0
LINE
 62
7
  8
WQ_LINES
 10
18424.0
 20
62.0
 30
0.0
 11
18685.0
 21
62.0
 31
0.0
  0
LINE
 62
7
  8
WQ_LINES
 10
18687.0
 20
121.0
 30
0.0
 11
18945.0
 21
121.0
 31
0.0
  0
LINE
 62
7
  8
WQ_LINES
 10
18687.0
 20
0.0
 30
0.0
 11
18945.0
 21
0.0
 31
0.0
  0
LINE
 62
7
  8
WQ_LINES
 10
18687.0
 20
0.0
 30
0.0
 11
18687.0
 21
121.0
 31
0.0
  0
LINE
 62
7
  8
WQ_LINES
 10
18945.0
 20
0.0
 30
0.0
 11
18945.0
 21
121.0
 31
0.0
  0
TEXT
  8
WQ_TEXT_LAYER
 10
18688.0
 20
61.5
 30
0.0
 40
2.0
  1
6578-B
  0
TEXT
  8
WQ_TEXT_LAYER
 10
18688.0
 20
1.0
 30
0.0
 40
2.0
  1
6578-A
  0
LINE
 62
7
  8
WQ_LINES
 10
18687.0
 20
60.5
 30
0.0
 11
18945.0
 21
60.5
 31
0.0
  0
LINE
 62
7
  8
WQ_LINES
 10
18947.0
 20
91.0
 30
0.0
 11
19229.0
 21
91.0
 31
0.0
  0
LINE
 62
7
  8
WQ_LINES
 10
18947.0
 20
0.0
 30
0.0
 11
19229.0
 21
0.0
 31
0.0
  0
LINE
 62
7
  8
WQ_LINES
 10
18947.0
 20
0.0
 30
0.0
 11
18947.0
 21
91.0
 31
0.0
  0
LINE
 62
7
  8
WQ_LINES
 10
19229.0
 20
0.0
 30
0.0
 11
19229.0
 21
91.0
 31
0.0
  0
TEXT
  8
WQ_TEXT_LAYER
 10
18948.0
 20
46.5
 30
0.0
 40
2.0
  1
6579-B
  0
TEXT
  8
WQ_TEXT_LAYER
 10
18948.0
 20
1.0
 30
0.0
 40
2.0
  1
6579-A
  0
LINE
 62
7
  8
WQ_LINES
 10
18947.0
 20
45.5
 30
0.0
 11
19229.0
 21
45.5
 31
0.0
  0
LINE
 62
7
  8
WQ_LINES
 10
19231.0
 20
82.0
 30
0.0
 11
19458.0
 21
82.0
 31
0.0
  0
LINE
 62
7
  8
WQ_LINES
 10
19231.0
 20
0.0
 30
0.0
 11
19458.0
 21
0.0
 31
0.0
  0
LINE
 62
7
  8
WQ_LINES
 10
19231.0
 20
0.0
 30
0.0
 11
19231.0
 21
82.0
 31
0.0
  0
LINE
 62
7
  8
WQ_LINES
 10
19458.0
 20
0.0
 30
0.0
 11
19458.0
 21
82.0
 31
0.0
  0
TEXT
  8
WQ_TEXT_LAYER
 10
19232.0
 20
42.0
 30
0.0
 40
2.0
  1
6580-B
  0
TEXT
  8
WQ_TEXT_LAYER
 10
19232.0
 20
1.0
 30
0.0
 40
2.0
  1
6580-A
  0
LINE
 62
7
  8
WQ_LINES
 10
19231.0
 20
41.0
 30
0.0
 11
19458.0
 21
41.0
 31
0.0
  0
LINE
 62
7
  8
WQ_LINES
 10
19460.0
 20
136.0
 30
0.0
 11
19740.0
 21
136.0
 31
0.0
  0
LINE
 62
7
  8
WQ_LINES
 10
19460.0
 20
0.0
 30
0.0
 11
19740.0
 21
0.0
 31
0.0
  0
LINE
 62
7
  8
WQ_LINES
 10
19460.0
 20
0.0
 30
0.0
 11
19460.0
 21
136.0
 31
0.0
  0
LINE
 62
7
  8
WQ_LINES
 10
19740.0
 20
0.0
 30
0.0
 11
19740.0
 21
136.0
 31
0.0
  0
TEXT
  8
WQ_TEXT_LAYER
 10
19461.0
 20
69.0
 30
0.0
 40
2.0
  1
6581-B
  0
TEXT
  8
WQ_TEXT_LAYER
 10
19461.0
 20
1.0
 30
0.0
 40
2.0
  1
6581-A
  0
LINE
 62
7
  8
WQ_LINES
 10
19460.0
 20
68.0
 30
0.0
 11
19740.0
 21
68.0
 31
0.0
  0
LINE
 62
7
  8
WQ_LINES
 10
19742.0
 20
157.0
 30
0.0
 11
19947.0
 21
157.0
 31
0.0
  0
LINE
 62
7
  8
WQ_LINES
 10
19742.0
 20
0.0
 30
0.0
 11
19947.0
 21
0.0
 31
0.0
  0
LINE
 62
7
  8
WQ_LINES
 10
19742.0
 20
0.0
 30
0.0
 11
19742.0
 21
157.0
 31
0.0
  0
LINE
 62
7
  8
WQ_LINES
 10
19947.0
 20
0.0
 30
0.0
 11
19947.0
 21
157.0
 31
0.0
  0
TEXT
  8
WQ_TEXT_LAYER
 10
19743.0
 20
79.5
 30
0.0
 40
2.0
  1
6582-B
  0
TEXT
  8
WQ_TEXT_LAYER
 10
19743.0
 20
1.0
 30
0.0
 40
2.0
  1
6582-A
  0
LINE
 62
7
  8
WQ_LINES
 10
19742.0
 20
78.5
 30
0.0
 11
19947.0
 21
78.5
 31
0.0
  0
LINE
 62
7
  8
WQ_LINES
 10
19949.0
 20
126.0
 30
0.0
 11
20164.0
 21
126.0
 31
0.0
  0
LINE
 62
7
  8
WQ_LINES
 10
19949.0
 20
0.0
 30
0.0
 11
20164.0
 21
0.0
 31
0.0
  0
LINE
 62
7
  8
WQ_LINES
 10
19949.0
 20
0.0
 30
0.0
 11
19949.0
 21
126.0
 31
0.0
  0
LINE
 62
7
  8
WQ_LINES
 10
20164.0
 20
0.0
 30
0.0
 11
20164.0
 21
126.0
 31
0.0
  0
TEXT
  8
WQ_TEXT_LAYER
 10
19950.0
 20
64.0
 30
0.0
 40
2.0
  1
6583-B
  0
TEXT
  8
WQ_TEXT_LAYER
 10
19950.0
 20
1.0
 30
0.0
 40
2.0
  1
6583-A
  0
LINE
 62
7
  8
WQ_LINES
 10
19949.0
 20
63.0
 30
0.0
 11
20164.0
 21
63.0
 31
0.0
  0
LINE
 62
7
  8
WQ_LINES
 10
20166.0
 20
111.0
 30
0.0
 11
20356.0
 21
111.0
 31
0.0
  0
LINE
 62
7
  8
WQ_LINES
 10
20166.0
 20
0.0
 30
0.0
 11
20356.0
 21
0.0
 31
0.0
  0
LINE
 62
7
  8
WQ_LINES
 10
20166.0
 20
0.0
 30
0.0
 11
20166.0
 21
111.0
 31
0.0
  0
LINE
 62
7
  8
WQ_LINES
 10
20356.0
 20
0.0
 30
0.0
 11
20356.0
 21
111.0
 31
0.0
  0
TEXT
  8
WQ_TEXT_LAYER
 10
20167.0
 20
56.5
 30
0.0
 40
2.0
  1
6584-B
  0
TEXT
  8
WQ_TEXT_LAYER
 10
20167.0
 20
1.0
 30
0.0
 40
2.0
  1
6584-A
  0
LINE
 62
7
  8
WQ_LINES
 10
20166.0
 20
55.5
 30
0.0
 11
20356.0
 21
55.5
 31
0.0
  0
LINE
 62
7
  8
WQ_LINES
 10
20358.0
 20
119.0
 30
0.0
 11
20639.0
 21
119.0
 31
0.0
  0
LINE
 62
7
  8
WQ_LINES
 10
20358.0
 20
0.0
 30
0.0
 11
20639.0
 21
0.0
 31
0.0
  0
LINE
 62
7
  8
WQ_LINES
 10
20358.0
 20
0.0
 30
0.0
 11
20358.0
 21
119.0
 31
0.0
  0
LINE
 62
7
  8
WQ_LINES
 10
20639.0
 20
0.0
 30
0.0
 11
20639.0
 21
119.0
 31
0.0
  0
TEXT
  8
WQ_TEXT_LAYER
 10
20359.0
 20
60.5
 30
0.0
 40
2.0
  1
6585-B
  0
TEXT
  8
WQ_TEXT_LAYER
 10
20359.0
 20
1.0
 30
0.0
 40
2.0
  1
6585-A
  0
LINE
 62
7
  8
WQ_LINES
 10
20358.0
 20
59.5
 30
0.0
 11
20639.0
 21
59.5
 31
0.0
  0
LINE
 62
7
  8
WQ_LINES
 10
20641.0
 20
140.0
 30
0.0
 11
20840.0
 21
140.0
 31
0.0
  0
LINE
 62
7
  8
WQ_LINES
 10
20641.0
 20
0.0
 30
0.0
 11
20840.0
 21
0.0
 31
0.0
  0
LINE
 62
7
  8
WQ_LINES
 10
20641.0
 20
0.0
 30
0.0
 11
20641.0
 21
140.0
 31
0.0
  0
LINE
 62
7
  8
WQ_LINES
 10
20840.0
 20
0.0
 30
0.0
 11
20840.0
 21
140.0
 31
0.0
  0
TEXT
  8
WQ_TEXT_LAYER
 10
20642.0
 20
71.0
 30
0.0
 40
2.0
  1
6586-B
  0
TEXT
  8
WQ_TEXT_LAYER
 10
20642.0
 20
1.0
 30
0.0
 40
2.0
  1
6586-A
  0
LINE
 62
7
  8
WQ_LINES
 10
20641.0
 20
70.0
 30
0.0
 11
20840.0
 21
70.0
 31
0.0
  0
LINE
 62
7
  8
WQ_LINES
 10
20842.0
 20
161.0
 30
0.0
 11
21081.0
 21
161.0
 31
0.0
  0
LINE
 62
7
  8
WQ_LINES
 10
20842.0
 20
0.0
 30
0.0
 11
21081.0
 21
0.0
 31
0.0
  0
LINE
 62
7
  8
WQ_LINES
 10
20842.0
 20
0.0
 30
0.0
 11
20842.0
 21
161.0
 31
0.0
  0
LINE
 62
7
  8
WQ_LINES
 10
21081.0
 20
0.0
 30
0.0
 11
21081.0
 21
161.0
 31
0.0
  0
TEXT
  8
WQ_TEXT_LAYER
 10
20843.0
 20
81.5
 30
0.0
 40
2.0
  1
6587-B
  0
TEXT
  8
WQ_TEXT_LAYER
 10
20843.0
 20
1.0
 30
0.0
 40
2.0
  1
6587-A
  0
LINE
 62
7
  8
WQ_LINES
 10
20842.0
 20
80.5
 30
0.0
 11
21081.0
 21
80.5
 31
0.0
  0
LINE
 62
7
  8
WQ_LINES
 10
21083.0
 20
92.0
 30
0.0
 11
21325.0
 21
92.0
 31
0.0
  0
LINE
 62
7
  8
WQ_LINES
 10
21083.0
 20
0.0
 30
0.0
 11
21325.0
 21
0.0
 31
0.0
  0
LINE
 62
7
  8
WQ_LINES
 10
21083.0
 20
0.0
 30
0.0
 11
21083.0
 21
92.0
 31
0.0
  0
LINE
 62
7
  8
WQ_LINES
 10
21325.0
 20
0.0
 30
0.0
 11
21325.0
 21
92.0
 31
0.0
  0
TEXT
  8
WQ_TEXT_LAYER
 10
21084.0
 20
47.0
 30
0.0
 40
2.0
  1
6588-B
  0
TEXT
  8
WQ_TEXT_LAYER
 10
21084.0
 20
1.0
 30
0.0
 40
2.0
  1
6588-A
  0
LINE
 62
7
  8
WQ_LINES
 10
21083.0
 20
46.0
 30
0.0
 11
21325.0
 21
46.0
 31
0.0
  0
LINE
 62
7
  8
WQ_LINES
 10
21327.0
 20
146.0
 30
0.0
 11
21562.0
 21
146.0
 31
0.0
  0
LINE
 62
7
  8
WQ_LINES
 10
21327.0
 20
0.0
 30
0.0
 11
21562.0
 21
0.0
 31
0.0
  0
LINE
 62
7
  8
WQ_LINES
 10
21327.0
 20
0.0
 30
0.0
 11
21327.0
 21
146.0
 31
0.0
  0
LINE
 62
7
  8
WQ_LINES
 10
21562.0
 20
0.0
 30
0.0
 11
21562.0
 21
146.0
 31
0.0
  0
TEXT
  8
WQ_TEXT_LAYER
 10
21328.0
 20
74.0
 30
0.0
 40
2.0
  1
6589-B
  0
TEXT
  8
WQ_TEXT_LAYER
 10
21328.0
 20
1.0
 30
0.0
 40
2.0
  1
6589-A
  0
LINE
 62
7
  8
WQ_LINES
 10
21327.0
 20
73.0
 30
0.0
 11
21562.0
 21
73.0
 31
0.0
  0
LINE
 62
7
  8
WQ_LINES
 10
21564.0
 20
91.0
 30
0.0
 11
21739.0
 21
91.0
 31
0.0
  0
LINE
 62
7
  8
WQ_LINES
 10
21564.0
 20
0.0
 30
0.0
 11
21739.0
 21
0.0
 31
0.0
  0
LINE
 62
7
  8
WQ_LINES
 10
21564.0
 20
0.0
 30
0.0
 11
21564.0
 21
91.0
 31
0.0
  0
LINE
 62
7
  8
WQ_LINES
 10
21739.0
 20
0.0
 30
0.0
 11
21739.0
 21
91.0
 31
0.0
  0
TEXT
  8
WQ_TEXT_LAYER
 10
21565.0
 20
46.5
 30
0.0
 40
2.0
  1
6590-B
  0
TEXT
  8
WQ_TEXT_LAYER
 10
21565.0
 20
1.0
 30
0.0
 40
2.0
  1
6590-A
  0
LINE
 62
7
  8
WQ_LINES
 10
21564.0
 20
45.5
 30
0.0
 11
21739.0
 21
45.5
 31
0.0
  0
LINE
 62
7
  8
WQ_LINES
 10
21741.0
 20
84.0
 30
0.0
 11
22019.0
 21
84.0
 31
0.0
  0
LINE
 62
7
  8
WQ_LINES
 10
21741.0
 20
0.0
 30
0.0
 11
22019.0
 21
0.0
 31
0.0
  0
LINE
 62
7
  8
WQ_LINES
 10
21741.0
 20
0.0
 30
0.0
 11
21741.0
 21
84.0
 31
0.0
  0
LINE
 62
7
  8
WQ_LINES
 10
22019.0
 20
0.0
 30
0.0
 11
22019.0
 21
84.0
 31
0.0
  0
TEXT
  8
WQ_TEXT_LAYER
 10
21742.0
 20
43.0
 30
0.0
 40
2.0
  1
6591-B
  0
TEXT
  8
WQ_TEXT_LAYER
 10
21742.0
 20
1.0
 30
0.0
 40
2.0
  1
6591-A
  0
LINE
 62
7
  8
WQ_LINES
 10
21741.0
 20
42.0
 30
0.0
 11
22019.0
 21
42.0
 31
0.0
  0
LINE
 62
7
  8
WQ_LINES
 10
22021.0
 20
161.0
 30
0.0
 11
22220.0
 21
161.0
 31
0.0
  0
LINE
 62
7
  8
WQ_LINES
 10
22021.0
 20
0.0
 30
0.0
 11
22220.0
 21
0.0
 31
0.0
  0
LINE
 62
7
  8
WQ_LINES
 10
22021.0
 20
0.0
 30
0.0
 11
22021.0
 21
161.0
 31
0.0
  0
LINE
 62
7
  8
WQ_LINES
 10
22220.0
 20
0.0
 30
0.0
 11
22220.0
 21
161.0
 31
0.0
  0
TEXT
  8
WQ_TEXT_LAYER
 10
22022.0
 20
81.5
 30
0.0
 40
2.0
  1
6592-B
  0
TEXT
  8
WQ_TEXT_LAYER
 10
22022.0
 20
1.0
 30
0.0
 40
2.0
  1
6592-A
  0
LINE
 62
7
  8
WQ_LINES
 10
22021.0
 20
80.5
 30
0.0
 11
22220.0
 21
80.5
 31
0.0
  0
LINE
 62
7
  8
WQ_LINES
 10
22222.0
 20
156.0
 30
0.0
 11
22497.0
 21
156.0
 31
0.0
  0
LINE
 62
7
  8
WQ_LINES
 10
22222.0
 20
0.0
 30
0.0
 11
22497.0
 21
0.0
 31
0.0
  0
LINE
 62
7
  8
WQ_LINES
 10
22222.0
 20
0.0
 30
0.0
 11
22222.0
 21
156.0
 31
0.0
  0
LINE
 62
7
  8
WQ_LINES
 10
22497.0
 20
0.0
 30
0.0
 11
22497.0
 21
156.0
 31
0.0
  0
TEXT
  8
WQ_TEXT_LAYER
 10
22223.0
 20
79.0
 30
0.0
 40
2.0
  1
6593-B
  0
TEXT
  8
WQ_TEXT_LAYER
 10
22223.0
 20
1.0
 30
0.0
 40
2.0
  1
6593-A
  0
LINE
 62
7
  8
WQ_LINES
 10
22222.0
 20
78.0
 30
0.0
 11
22497.0
 21
78.0
 31
0.0
  0
LINE
 62
7
  8
WQ_LINES
 10
22499.0
 20
164.0
 30
0.0
 11
22756.0
 21
164.0
 31
0.0
  0
LINE
 62
7
  8
WQ_LINES
 10
22499.0
 20
0.0
 30
0.0
 11
22756.0
 21
0.0
 31
0.0
  0
LINE
 62
7
  8
WQ_LINES
 10
22499.0
 20
0.0
 30
0.0
 11
22499.0
 21
164.0
 31
0.0
  0
LINE
 62
7
  8
WQ_LINES
 10
22756.0
 20
0.0
 30
0.0
 11
22756.0
 21
164.0
 31
0.0
  0
TEXT
  8
WQ_TEXT_LAYER
 10
22500.0
 20
83.0
 30
0.0
 40
2.0
  1
6594-B
  0
TEXT
  8
WQ_TEXT_LAYER
 10
22500.0
 20
1.0
 30
0.0
 40
2.0
  1
6594-A
  0
LINE
 62
7
  8
WQ_LINES
 10
22499.0
 20
82.0
 30
0.0
 11
22756.0
 21
82.0
 31
0.0
  0
LINE
 62
7
  8
WQ_LINES
 10
22758.0
 20
90.0
 30
0.0
 11
22950.0
 21
90.0
 31
0.0
  0
LINE
 62
7
  8
WQ_LINES
 10
22758.0
 20
0.0
 30
0.0
 11
22950.0
 21
0.0
 31
0.0
  0
LINE
 62
7
  8
WQ_LINES
 10
22758.0
 20
0.0
 30
0.0
 11
22758.0
 21
90.0
 31
0.0
  0
LINE
 62
7
  8
WQ_LINES
 10
22950.0
 20
0.0
 30
0.0
 11
22950.0
 21
90.0
 31
0.0
  0
TEXT
  8
WQ_TEXT_LAYER
 10
22759.0
 20
46.0
 30
0.0
 40
2.0
  1
6595-B
  0
TEXT
  8
WQ_TEXT_LAYER
 10
22759.0
 20
1.0
 30
0.0
 40
2.0
  1
6595-A
  0
LINE
 62
7
  8
WQ_LINES
 10
22758.0
 20
45.0
 30
0.0
 11
22950.0
 21
45.0
 31
0.0
  0
LINE
 62
7
  8
WQ_LINES
 10
22952.0
 20
76.0
 30
0.0
 11
23151.0
 21
76.0
 31
0.0
  0
LINE
 62
7
  8
WQ_LINES
 10
22952.0
 20
0.0
 30
0.0
 11
23151.0
 21
0.0
 31
0.0
  0
LINE
 62
7
  8
WQ_LINES
 10
22952.0
 20
0.0
 30
0.0
 11
22952.0
 21
76.0
 31
0.0
  0
LINE
 62
7
  8
WQ_LINES
 10
23151.0
 20
0.0
 30
0.0
 11
23151.0
 21
76.0
 31
0.0
  0
TEXT
  8
WQ_TEXT_LAYER
 10
22953.0
 20
39.0
 30
0.0
 40
2.0
  1
6596-B
  0
TEXT
  8
WQ_TEXT_LAYER
 10
22953.0
 20
1.0
 30
0.0
 40
2.0
  1
6596-A
  0
LINE
 62
7
  8
WQ_LINES
 10
22952.0
 20
38.0
 30
0.0
 11
23151.0
 21
38.0
 31
0.0
  0
LINE
 62
7
  8
WQ_LINES
 10
23153.0
 20
170.0
 30
0.0
 11
23381.0
 21
170.0
 31
0.0
  0
LINE
 62
7
  8
WQ_LINES
 10
23153.0
 20
0.0
 30
0.0
 11
23381.0
 21
0.0
 31
0.0
  0
LINE
 62
7
  8
WQ_LINES
 10
23153.0
 20
0.0
 30
0.0
 11
23153.0
 21
170.0
 31
0.0
  0
LINE
 62
7
  8
WQ_LINES
 10
23381.0
 20
0.0
 30
0.0
 11
23381.0
 21
170.0
 31
0.0
  0
TEXT
  8
WQ_TEXT_LAYER
 10
23154.0
 20
86.0
 30
0.0
 40
2.0
  1
6597-B
  0
TEXT
  8
WQ_TEXT_LAYER
 10
23154.0
 20
1.0
 30
0.0
 40
2.0
  1
6597-A
  0
LINE
 62
7
  8
WQ_LINES
 10
23153.0
 20
85.0
 30
0.0
 11
23381.0
 21
85.0
 31
0.0
  0
LINE
 62
7
  8
WQ_LINES
 10
23383.0
 20
77.0
 30
0.0
 11
23581.0
 21
77.0
 31
0.0
  0
LINE
 62
7
  8
WQ_LINES
 10
23383.0
 20
0.0
 30
0.0
 11
23581.0
 21
0.0
 31
0.0
  0
LINE
 62
7
  8
WQ_LINES
 10
23383.0
 20
0.0
 30
0.0
 11
23383.0
 21
77.0
 31
0.0
  0
LINE
 62
7
  8
WQ_LINES
 10
23581.0
 20
0.0
 30
0.0
 11
23581.0
 21
77.0
 31
0.0
  0
TEXT
  8
WQ_TEXT_LAYER
 10
23384.0
 20
39.5
 30
0.0
 40
2.0
  1
6598-B
  0
TEXT
  8
WQ_TEXT_LAYER
 10
23384.0
 20
1.0
 30
0.0
 40
2.0
  1
6598-A
  0
LINE
 62
7
  8
WQ_LINES
 10
23383.0
 20
38.5
 30
0.0
 11
23581.0
 21
38.5
 31
0.0
  0
LINE
 62
7
  8
WQ_LINES
 10
23583.0
 20
135.0
 30
0.0
 11
23842.0
 21
135.0
 31
0.0
  0
LINE
 62
7
  8
WQ_LINES
 10
23583.0
 20
0.0
 30
0.0
 11
23842.0
 21
0.0
 31
0.0
  0
LINE
 62
7
  8
WQ_LINES
 10
23583.0
 20
0.0
 30
0.0
 11
23583.0
 21
135.0
 31
0.0
  0
LINE
 62
7
  8
WQ_LINES
 10
23842.0
 20
0.0
 30
0.0
 11
23842.0
 21
135.0
 31
0.0
  0
TEXT
  8
WQ_TEXT_LAYER
 10
23584.0
 20
68.5
 30
0.0
 40
2.0
  1
6599-B
  0
TEXT
  8
WQ_TEXT_LAYER
 10
23584.0
 20
1.0
 30
0.0
 40
2.0
  1
6599-A
  0
LINE
 62
7
  8
WQ_LINES
 10
23583.0
 20
67.5
 30
0.0
 11
23842.0
 21
67.5
 31
0.0
  0
ENDSEC
  0
EOF
